<?xml version="1.0" standalone="no"?>
<!DOCTYPE svg PUBLIC "-//W3C//DTD SVG 1.1//EN"
  "http://www.w3.org/Graphics/SVG/1.1/DTD/svg11.dtd">
<!-- Created with matplotlib (http://matplotlib.sourceforge.net/) -->
<svg width="585" height="441" viewBox="0 0 585 441"
   xmlns="http://www.w3.org/2000/svg"
   xmlns:xlink="http://www.w3.org/1999/xlink"
   version="1.1"
   id="svg1">
<g id="figure1">
<polygon style="fill: #ffffff; stroke: #ffffff; stroke-width: 1.000000; stroke-linejoin: miter; stroke-linecap: square;  opacity: 1.000000"  points = "0.000000,441.000000 0.000000,0.000000 585.000000,0.000000 585.000000,441.000000"/>
<g id="axes1">
<polygon style="fill: #ffffff; stroke: #000000; stroke-width: 1.000000; stroke-linejoin: miter; stroke-linecap: square;  opacity: 1.000000"  points = "73.125000,396.900000 73.125000,44.100000 526.500000,44.100000 526.500000,396.900000"/>
<defs>
    <clipPath id="7240474723315632415">
    <rect x="73.125000" y="44.100000" width="453.375000" height="352.800000"
    style="stroke: gray; fill: none;"/>
    </clipPath>
</defs>
<path style="fill: none; stroke: #0000ff; stroke-width: 0.500000; stroke-linejoin: miter; stroke-linecap: square;  opacity: 1.000000" clip-path="url(#7240474723315632415)" d="M 73.125000,216.087794 L 73.578375,220.989973 L 74.031750,225.891058 L 74.485125,230.780166 L 74.938500,235.646486 L 75.391875,240.479371 L 75.845250,245.268432 L 76.298625,250.003628 L 76.752000,254.675351 L 77.205375,259.274494 L 77.658750,263.792528 L 78.112125,268.221549 L 78.565500,272.554334 L 79.018875,276.784373 L 79.472250,280.905895 L 79.925625,284.913883 L 80.379000,288.804083 L 80.832375,292.572991 L 81.285750,296.217847 L 81.739125,299.736611 L 82.192500,303.127928 L 82.645875,306.391105 L 83.099250,309.526058 L 83.552625,312.533280 L 84.006000,315.413785 L 84.459375,318.169069 L 84.912750,320.801052 L 85.366125,323.312038 L 85.819500,325.704659 L 86.272875,327.981834 L 86.726250,330.146721 L 87.179625,332.202675 L 87.633000,334.153210 L 88.086375,336.001956 L 88.539750,337.752634 L 88.993125,339.409013 L 89.446500,340.974895 L 89.899875,342.454077 L 90.353250,343.850338 L 90.806625,345.167415 L 91.260000,346.408987 L 91.713375,347.578663 L 92.166750,348.679965 L 92.620125,349.716322 L 93.073500,350.691062 L 93.526875,351.607402 L 93.980250,352.468449 L 94.433625,353.277190 L 94.887000,354.036498 L 95.340375,354.749123 L 95.793750,355.417698 L 96.247125,356.044735 L 96.700500,356.632630 L 97.153875,357.183666 L 97.607250,357.700010 L 98.060625,358.183721 L 98.514000,358.636752 L 98.967375,359.060952 L 99.420750,359.458073 L 99.874125,359.829767 L 100.327500,360.177599 L 100.780875,360.503043 L 101.234250,360.807491 L 101.687625,361.092254 L 102.141000,361.358566 L 102.594375,361.607590 L 103.047750,361.840418 L 103.501125,362.058079 L 103.954500,362.261539 L 104.407875,362.451703 L 104.861250,362.629425 L 105.314625,362.795504 L 105.768000,362.950689 L 106.221375,363.095683 L 106.674750,363.231146 L 107.128125,363.357696 L 107.581500,363.475912 L 108.034875,363.586335 L 108.488250,363.689475 L 108.941625,363.785806 L 109.395000,363.875773 L 109.848375,363.959793 L 110.301750,364.038257 L 110.755125,364.111527 L 111.208500,364.179946 L 111.661875,364.243833 L 112.115250,364.303486 L 112.568625,364.359184 L 113.022000,364.411187 L 113.475375,364.459740 L 113.928750,364.505070 L 114.382125,364.547390 L 114.835500,364.586899 L 115.288875,364.623784 L 115.742250,364.658217 L 116.195625,364.690362 L 116.649000,364.720369 L 117.102375,364.748381 L 117.555750,364.774530 L 118.009125,364.798939 L 118.462500,364.821725 L 118.915875,364.842994 L 119.369250,364.862847 L 119.822625,364.881379 L 120.276000,364.898677 L 120.729375,364.914823 L 121.182750,364.929895 L 121.636125,364.943962 L 122.089500,364.957093 L 122.542875,364.969348 L 122.996250,364.980788 L 123.449625,364.991465 L 123.903000,365.001431 L 124.356375,365.010733 L 124.809750,365.019415 L 125.263125,365.027519 L 125.716500,365.035082 L 126.169875,365.042142 L 126.623250,365.048730 L 127.076625,365.054880 L 127.530000,365.060620 L 127.983375,365.065977 L 128.436750,365.070977 L 128.890125,365.075644 L 129.343500,365.079999 L 129.796875,365.084065 L 130.250250,365.087859 L 130.703625,365.091400 L 131.157000,365.094705 L 131.610375,365.097790 L 132.063750,365.100669 L 132.517125,365.103356 L 132.970500,365.105864 L 133.423875,365.108205 L 133.877250,365.110390 L 134.330625,365.112429 L 134.784000,365.114332 L 135.237375,365.116108 L 135.690750,365.117765 L 136.144125,365.119312 L 136.597500,365.120756 L 137.050875,365.122104 L 137.504250,365.123362 L 137.957625,365.124536 L 138.411000,365.125631 L 138.864375,365.126654 L 139.317750,365.127608 L 139.771125,365.128499 L 140.224500,365.129330 L 140.677875,365.130106 L 141.131250,365.130830 L 141.584625,365.131506 L 142.038000,365.132137 L 142.491375,365.132725 L 142.944750,365.133275 L 143.398125,365.133788 L 143.851500,365.134266 L 144.304875,365.134713 L 144.758250,365.135130 L 145.211625,365.135519 L 145.665000,365.135882 L 146.118375,365.136221 L 146.571750,365.136537 L 147.025125,365.136832 L 147.478500,365.137108 L 147.931875,365.137365 L 148.385250,365.137605 L 148.838625,365.137829 L 149.292000,365.138038 L 149.745375,365.138233 L 150.198750,365.138415 L 150.652125,365.138585 L 151.105500,365.138744 L 151.558875,365.138892 L 152.012250,365.139030 L 152.465625,365.139159 L 152.919000,365.139279 L 153.372375,365.139392 L 153.825750,365.139496 L 154.279125,365.139594 L 154.732500,365.139686 L 155.185875,365.139771 L 155.639250,365.139850 L 156.092625,365.139925 L 156.546000,365.139994 L 156.999375,365.140059 L 157.452750,365.140119 L 157.906125,365.140175 L 158.359500,365.140228 L 158.812875,365.140277 L 159.266250,365.140323 L 159.719625,365.140365 L 160.173000,365.140405 L 160.626375,365.140442 L 161.079750,365.140477 L 161.533125,365.140510 L 161.986500,365.140540 L 162.439875,365.140568 L 162.893250,365.140594 L 163.346625,365.140619 L 163.800000,365.140642 L 164.253375,365.140663 L 164.706750,365.140683 L 165.160125,365.140702 L 165.613500,365.140720 L 166.066875,365.140736 L 166.520250,365.140751 L 166.973625,365.140765 L 167.427000,365.140778 L 167.880375,365.140791 L 168.333750,365.140802 L 168.787125,365.140813 L 169.240500,365.140823 L 169.693875,365.140832 L 170.147250,365.140841 L 170.600625,365.140849 L 171.054000,365.140857 L 171.507375,365.140864 L 171.960750,365.140871 L 172.414125,365.140877 L 172.867500,365.140883 L 173.320875,365.140888 L 173.774250,365.140893 L 174.227625,365.140898 L 174.681000,365.140902 L 175.134375,365.140906 L 175.587750,365.140910 L 176.041125,365.140914 L 176.494500,365.140917 L 176.947875,365.140920 L 177.401250,365.140923 L 177.854625,365.140926 L 178.308000,365.140928 L 178.761375,365.140930 L 179.214750,365.140933 L 179.668125,365.140935 L 180.121500,365.140937 L 180.574875,365.140938 L 181.028250,365.140940 L 181.481625,365.140942 L 181.935000,365.140943 L 182.388375,365.140944 L 182.841750,365.140946 L 183.295125,365.140947 L 183.748500,365.140948 L 184.201875,365.140949 L 184.655250,365.140950 L 185.108625,365.140951 L 185.562000,365.140952 L 186.015375,365.140952 L 186.468750,365.140953 L 186.922125,365.140954 L 187.375500,365.140954 L 187.828875,365.140955 L 188.282250,365.140956 L 188.735625,365.140956 L 189.189000,365.140957 L 189.642375,365.140957 L 190.095750,365.140957 L 190.549125,365.140958 L 191.002500,365.140958 L 191.455875,365.140959 L 191.909250,365.140959 L 192.362625,365.140959 L 192.816000,365.140959 L 193.269375,365.140960 L 193.722750,365.140960 L 194.176125,365.140960 L 194.629500,365.140960 L 195.082875,365.140961 L 195.536250,365.140961 L 195.989625,365.140961 L 196.443000,365.140961 L 196.896375,365.140961 L 197.349750,365.140961 L 197.803125,365.140962 L 198.256500,365.140962 L 198.709875,365.140962 L 199.163250,365.140962 L 199.616625,365.140962 L 200.070000,365.140962 L 200.523375,365.140962 L 200.976750,365.140962 L 201.430125,365.140962 L 201.883500,365.140962 L 202.336875,365.140962 L 202.790250,365.140963 L 203.243625,365.140963 L 203.697000,365.140963 L 204.150375,365.140963 L 204.603750,365.140963 L 205.057125,365.140963 L 205.510500,365.140963 L 205.963875,365.140963 L 206.417250,365.140963 L 206.870625,365.140963 L 207.324000,365.140963 L 207.777375,365.140963 L 208.230750,365.140963 L 208.684125,365.140963 L 209.137500,365.140963 L 209.590875,365.140963 L 210.044250,365.140963 L 210.497625,365.140963 L 210.951000,365.140963 L 211.404375,365.140963 L 211.857750,365.140963 L 212.311125,365.140963 L 212.764500,365.140963 L 213.217875,365.140963 L 213.671250,365.140963 L 214.124625,365.140963 L 214.578000,365.140963 L 215.031375,365.140963 L 215.484750,365.140963 L 215.938125,365.140963 L 216.391500,365.140963 L 216.844875,365.140963 L 217.298250,365.140963 L 217.751625,365.140963 L 218.205000,365.140963 L 218.658375,365.140963 L 219.111750,365.140963 L 219.565125,365.140963 L 220.018500,365.140963 L 220.471875,365.140963 L 220.925250,365.140963 L 221.378625,365.140963 L 221.832000,365.140963 L 222.285375,365.140963 L 222.738750,365.140963 L 223.192125,365.140963 L 223.645500,365.140963 L 224.098875,365.140963 L 224.552250,365.140963 L 225.005625,365.140963 L 225.459000,365.140963 L 225.912375,365.140963 L 226.365750,365.140963 L 226.819125,365.140963 L 227.272500,365.140963 L 227.725875,365.140963 L 228.179250,365.140963 L 228.632625,365.140963 L 229.086000,365.140963 L 229.539375,365.140963 L 229.992750,365.140963 L 230.446125,365.140963 L 230.899500,365.140963 L 231.352875,365.140963 L 231.806250,365.140963 L 232.259625,365.140963 L 232.713000,365.140963 L 233.166375,365.140963 L 233.619750,365.140963 L 234.073125,365.140963 L 234.526500,365.140963 L 234.979875,365.140963 L 235.433250,365.140963 L 235.886625,365.140963 L 236.340000,365.140963 L 236.793375,365.140963 L 237.246750,365.140963 L 237.700125,365.140963 L 238.153500,365.140963 L 238.606875,365.140963 L 239.060250,365.140963 L 239.513625,365.140963 L 239.967000,365.140963 L 240.420375,365.140963 L 240.873750,365.140963 L 241.327125,365.140963 L 241.780500,365.140963 L 242.233875,365.140963 L 242.687250,365.140963 L 243.140625,365.140963 L 243.594000,365.140963 L 244.047375,365.140963 L 244.500750,365.140963 L 244.954125,365.140963 L 245.407500,365.140963 L 245.860875,365.140963 L 246.314250,365.140963 L 246.767625,365.140963 L 247.221000,365.140963 L 247.674375,365.140963 L 248.127750,365.140963 L 248.581125,365.140963 L 249.034500,365.140963 L 249.487875,365.140963 L 249.941250,365.140963 L 250.394625,365.140963 L 250.848000,365.140963 L 251.301375,365.140963 L 251.754750,365.140963 L 252.208125,365.140963 L 252.661500,365.140963 L 253.114875,365.140963 L 253.568250,365.140963 L 254.021625,365.140963 L 254.475000,365.140963 L 254.928375,365.140963 L 255.381750,365.140963 L 255.835125,365.140963 L 256.288500,365.140963 L 256.741875,365.140963 L 257.195250,365.140963 L 257.648625,365.140963 L 258.102000,365.140963 L 258.555375,365.140963 L 259.008750,365.140963 L 259.462125,365.140963 L 259.915500,365.140963 L 260.368875,365.140963 L 260.822250,365.140963 L 261.275625,365.140963 L 261.729000,365.140963 L 262.182375,365.140963 L 262.635750,365.140963 L 263.089125,365.140963 L 263.542500,365.140963 L 263.995875,365.140963 L 264.449250,365.140963 L 264.902625,365.140963 L 265.356000,365.140963 L 265.809375,365.140963 L 266.262750,365.140963 L 266.716125,365.140963 L 267.169500,365.140963 L 267.622875,365.140963 L 268.076250,365.140963 L 268.529625,365.140963 L 268.983000,365.140963 L 269.436375,365.140963 L 269.889750,365.140963 L 270.343125,365.140963 L 270.796500,365.140963 L 271.249875,365.140963 L 271.703250,365.140963 L 272.156625,365.140963 L 272.610000,365.140963 L 273.063375,365.140963 L 273.516750,365.140963 L 273.970125,365.140963 L 274.423500,365.140963 L 274.876875,365.140963 L 275.330250,365.140963 L 275.783625,365.140963 L 276.237000,365.140963 L 276.690375,365.140963 L 277.143750,365.140963 L 277.597125,365.140963 L 278.050500,365.140963 L 278.503875,365.140963 L 278.957250,365.140963 L 279.410625,365.140963 L 279.864000,365.140963 L 280.317375,365.140963 L 280.770750,365.140963 L 281.224125,365.140963 L 281.677500,365.140963 L 282.130875,365.140963 L 282.584250,365.140963 L 283.037625,365.140963 L 283.491000,365.140963 L 283.944375,365.140963 L 284.397750,365.140963 L 284.851125,365.140963 L 285.304500,365.140963 L 285.757875,365.140963 L 286.211250,365.140963 L 286.664625,365.140963 L 287.118000,365.140963 L 287.571375,365.140963 L 288.024750,365.140963 L 288.478125,365.140963 L 288.931500,365.140963 L 289.384875,365.140963 L 289.838250,365.140963 L 290.291625,365.140963 L 290.745000,365.140963 L 291.198375,365.140963 L 291.651750,365.140963 L 292.105125,365.140963 L 292.558500,365.140963 L 293.011875,365.140963 L 293.465250,365.140963 L 293.918625,365.140963 L 294.372000,365.140963 L 294.825375,365.140963 L 295.278750,365.140963 L 295.732125,365.140963 L 296.185500,365.140963 L 296.638875,365.140963 L 297.092250,365.140963 L 297.545625,365.140963 L 297.999000,365.140963 L 298.452375,365.140963 L 298.905750,365.140963 L 299.359125,365.140963 L 299.812500,365.140963 L 300.265875,365.140963 L 300.719250,365.140963 L 301.172625,365.140963 L 301.626000,365.140963 L 302.079375,365.140963 L 302.532750,365.140963 L 302.986125,365.140963 L 303.439500,365.140963 L 303.892875,365.140963 L 304.346250,365.140963 L 304.799625,365.140963 L 305.253000,365.140963 L 305.706375,365.140963 L 306.159750,365.140963 L 306.613125,365.140963 L 307.066500,365.140963 L 307.519875,365.140963 L 307.973250,365.140963 L 308.426625,365.140963 L 308.880000,365.140963 L 309.333375,365.140963 L 309.786750,365.140963 L 310.240125,365.140963 L 310.693500,365.140963 L 311.146875,365.140963 L 311.600250,365.140963 L 312.053625,365.140963 L 312.507000,365.140963 L 312.960375,365.140963 L 313.413750,365.140963 L 313.867125,365.140963 L 314.320500,365.140963 L 314.773875,365.140963 L 315.227250,365.140963 L 315.680625,365.140963 L 316.134000,365.140963 L 316.587375,365.140963 L 317.040750,365.140963 L 317.494125,365.140963 L 317.947500,365.140963 L 318.400875,365.140963 L 318.854250,365.140963 L 319.307625,365.140963 L 319.761000,365.140963 L 320.214375,365.140963 L 320.667750,365.140963 L 321.121125,365.140963 L 321.574500,365.140963 L 322.027875,365.140963 L 322.481250,365.140963 L 322.934625,365.140963 L 323.388000,365.140963 L 323.841375,365.140963 L 324.294750,365.140963 L 324.748125,365.140963 L 325.201500,365.140963 L 325.654875,365.140963 L 326.108250,365.140963 L 326.561625,365.140963 L 327.015000,365.140963 L 327.468375,365.140963 L 327.921750,365.140963 L 328.375125,365.140963 L 328.828500,365.140963 L 329.281875,365.140963 L 329.735250,365.140963 L 330.188625,365.140963 L 330.642000,365.140963 L 331.095375,365.140963 L 331.548750,365.140963 L 332.002125,365.140963 L 332.455500,365.140963 L 332.908875,365.140963 L 333.362250,365.140963 L 333.815625,365.140963 L 334.269000,365.140963 L 334.722375,365.140963 L 335.175750,365.140963 L 335.629125,365.140963 L 336.082500,365.140963 L 336.535875,365.140963 L 336.989250,365.140963 L 337.442625,365.140963 L 337.896000,365.140963 L 338.349375,365.140963 L 338.802750,365.140963 L 339.256125,365.140963 L 339.709500,365.140963 L 340.162875,365.140963 L 340.616250,365.140963 L 341.069625,365.140963 L 341.523000,365.140963 L 341.976375,365.140963 L 342.429750,365.140963 L 342.883125,365.140963 L 343.336500,365.140963 L 343.789875,365.140963 L 344.243250,365.140963 L 344.696625,365.140963 L 345.150000,365.140963 L 345.603375,365.140963 L 346.056750,365.140963 L 346.510125,365.140963 L 346.963500,365.140963 L 347.416875,365.140963 L 347.870250,365.140963 L 348.323625,365.140963 L 348.777000,365.140963 L 349.230375,365.140963 L 349.683750,365.140963 L 350.137125,365.140963 L 350.590500,365.140963 L 351.043875,365.140963 L 351.497250,365.140963 L 351.950625,365.140963 L 352.404000,365.140963 L 352.857375,365.140963 L 353.310750,365.140963 L 353.764125,365.140963 L 354.217500,365.140963 L 354.670875,365.140963 L 355.124250,365.140963 L 355.577625,365.140963 L 356.031000,365.140963 L 356.484375,365.140963 L 356.937750,365.140963 L 357.391125,365.140963 L 357.844500,365.140963 L 358.297875,365.140963 L 358.751250,365.140963 L 359.204625,365.140963 L 359.658000,365.140963 L 360.111375,365.140963 L 360.564750,365.140963 L 361.018125,365.140963 L 361.471500,365.140963 L 361.924875,365.140963 L 362.378250,365.140963 L 362.831625,365.140963 L 363.285000,365.140963 L 363.738375,365.140963 L 364.191750,365.140963 L 364.645125,365.140963 L 365.098500,365.140963 L 365.551875,365.140963 L 366.005250,365.140963 L 366.458625,365.140963 L 366.912000,365.140963 L 367.365375,365.140963 L 367.818750,365.140963 L 368.272125,365.140963 L 368.725500,365.140963 L 369.178875,365.140963 L 369.632250,365.140963 L 370.085625,365.140963 L 370.539000,365.140963 L 370.992375,365.140963 L 371.445750,365.140963 L 371.899125,365.140963 L 372.352500,365.140963 L 372.805875,365.140963 L 373.259250,365.140963 L 373.712625,365.140963 L 374.166000,365.140963 L 374.619375,365.140963 L 375.072750,365.140963 L 375.526125,365.140963 L 375.979500,365.140963 L 376.432875,365.140963 L 376.886250,365.140963 L 377.339625,365.140963 L 377.793000,365.140963 L 378.246375,365.140963 L 378.699750,365.140963 L 379.153125,365.140963 L 379.606500,365.140963 L 380.059875,365.140963 L 380.513250,365.140963 L 380.966625,365.140963 L 381.420000,365.140963 L 381.873375,365.140963 L 382.326750,365.140963 L 382.780125,365.140963 L 383.233500,365.140963 L 383.686875,365.140963 L 384.140250,365.140963 L 384.593625,365.140963 L 385.047000,365.140963 L 385.500375,365.140963 L 385.953750,365.140963 L 386.407125,365.140963 L 386.860500,365.140963 L 387.313875,365.140963 L 387.767250,365.140963 L 388.220625,365.140963 L 388.674000,365.140963 L 389.127375,365.140963 L 389.580750,365.140963 L 390.034125,365.140963 L 390.487500,365.140963 L 390.940875,365.140963 L 391.394250,365.140963 L 391.847625,365.140963 L 392.301000,365.140963 L 392.754375,365.140963 L 393.207750,365.140963 L 393.661125,365.140963 L 394.114500,365.140963 L 394.567875,365.140963 L 395.021250,365.140963 L 395.474625,365.140963 L 395.928000,365.140963 L 396.381375,365.140963 L 396.834750,365.140963 L 397.288125,365.140963 L 397.741500,365.140963 L 398.194875,365.140963 L 398.648250,365.140963 L 399.101625,365.140963 L 399.555000,365.140963 L 400.008375,365.140963 L 400.461750,365.140963 L 400.915125,365.140963 L 401.368500,365.140963 L 401.821875,365.140963 L 402.275250,365.140963 L 402.728625,365.140963 L 403.182000,365.140963 L 403.635375,365.140963 L 404.088750,365.140963 L 404.542125,365.140963 L 404.995500,365.140963 L 405.448875,365.140963 L 405.902250,365.140963 L 406.355625,365.140963 L 406.809000,365.140963 L 407.262375,365.140963 L 407.715750,365.140963 L 408.169125,365.140963 L 408.622500,365.140963 L 409.075875,365.140963 L 409.529250,365.140963 L 409.982625,365.140963 L 410.436000,365.140963 L 410.889375,365.140963 L 411.342750,365.140963 L 411.796125,365.140963 L 412.249500,365.140963 L 412.702875,365.140963 L 413.156250,365.140963 L 413.609625,365.140963 L 414.063000,365.140963 L 414.516375,365.140963 L 414.969750,365.140963 L 415.423125,365.140963 L 415.876500,365.140963 L 416.329875,365.140963 L 416.783250,365.140963 L 417.236625,365.140963 L 417.690000,365.140963 L 418.143375,365.140963 L 418.596750,365.140963 L 419.050125,365.140963 L 419.503500,365.140963 L 419.956875,365.140963 L 420.410250,365.140963 L 420.863625,365.140963 L 421.317000,365.140963 L 421.770375,365.140963 L 422.223750,365.140963 L 422.677125,365.140963 L 423.130500,365.140963 L 423.583875,365.140963 L 424.037250,365.140963 L 424.490625,365.140963 L 424.944000,365.140963 L 425.397375,365.140963 L 425.850750,365.140963 L 426.304125,365.140963 L 426.757500,365.140963 L 427.210875,365.140963 L 427.664250,365.140963 L 428.117625,365.140963 L 428.571000,365.140963 L 429.024375,365.140963 L 429.477750,365.140963 L 429.931125,365.140963 L 430.384500,365.140963 L 430.837875,365.140963 L 431.291250,365.140963 L 431.744625,365.140963 L 432.198000,365.140963 L 432.651375,365.140963 L 433.104750,365.140963 L 433.558125,365.140963 L 434.011500,365.140963 L 434.464875,365.140963 L 434.918250,365.140963 L 435.371625,365.140963 L 435.825000,365.140963 L 436.278375,365.140963 L 436.731750,365.140963 L 437.185125,365.140963 L 437.638500,365.140963 L 438.091875,365.140963 L 438.545250,365.140963 L 438.998625,365.140963 L 439.452000,365.140963 L 439.905375,365.140963 L 440.358750,365.140963 L 440.812125,365.140963 L 441.265500,365.140963 L 441.718875,365.140963 L 442.172250,365.140963 L 442.625625,365.140963 L 443.079000,365.140963 L 443.532375,365.140963 L 443.985750,365.140963 L 444.439125,365.140963 L 444.892500,365.140963 L 445.345875,365.140963 L 445.799250,365.140963 L 446.252625,365.140963 L 446.706000,365.140963 L 447.159375,365.140963 L 447.612750,365.140963 L 448.066125,365.140963 L 448.519500,365.140963 L 448.972875,365.140963 L 449.426250,365.140963 L 449.879625,365.140963 L 450.333000,365.140963 L 450.786375,365.140963 L 451.239750,365.140963 L 451.693125,365.140963 L 452.146500,365.140963 L 452.599875,365.140963 L 453.053250,365.140963 L 453.506625,365.140963 L 453.960000,365.140963 L 454.413375,365.140963 L 454.866750,365.140963 L 455.320125,365.140963 L 455.773500,365.140963 L 456.226875,365.140963 L 456.680250,365.140963 L 457.133625,365.140963 L 457.587000,365.140963 L 458.040375,365.140963 L 458.493750,365.140963 L 458.947125,365.140963 L 459.400500,365.140963 L 459.853875,365.140963 L 460.307250,365.140963 L 460.760625,365.140963 L 461.214000,365.140963 L 461.667375,365.140963 L 462.120750,365.140963 L 462.574125,365.140963 L 463.027500,365.140963 L 463.480875,365.140963 L 463.934250,365.140963 L 464.387625,365.140963 L 464.841000,365.140963 L 465.294375,365.140963 L 465.747750,365.140963 L 466.201125,365.140963 L 466.654500,365.140963 L 467.107875,365.140963 L 467.561250,365.140963 L 468.014625,365.140963 L 468.468000,365.140963 L 468.921375,365.140963 L 469.374750,365.140963 L 469.828125,365.140963 L 470.281500,365.140963 L 470.734875,365.140963 L 471.188250,365.140963 L 471.641625,365.140963 L 472.095000,365.140963 L 472.548375,365.140963 L 473.001750,365.140963 L 473.455125,365.140963 L 473.908500,365.140963 L 474.361875,365.140963 L 474.815250,365.140963 L 475.268625,365.140963 L 475.722000,365.140963 L 476.175375,365.140963 L 476.628750,365.140963 L 477.082125,365.140963 L 477.535500,365.140963 L 477.988875,365.140963 L 478.442250,365.140963 L 478.895625,365.140963 L 479.349000,365.140963 L 479.802375,365.140963 L 480.255750,365.140963 L 480.709125,365.140963 L 481.162500,365.140963 L 481.615875,365.140963 L 482.069250,365.140963 L 482.522625,365.140963 L 482.976000,365.140963 L 483.429375,365.140963 L 483.882750,365.140963 L 484.336125,365.140963 L 484.789500,365.140963 L 485.242875,365.140963 L 485.696250,365.140963 L 486.149625,365.140963 L 486.603000,365.140963 L 487.056375,365.140963 L 487.509750,365.140963 L 487.963125,365.140963 L 488.416500,365.140963 L 488.869875,365.140963 L 489.323250,365.140963 L 489.776625,365.140963 L 490.230000,365.140963 L 490.683375,365.140963 L 491.136750,365.140963 L 491.590125,365.140963 L 492.043500,365.140963 L 492.496875,365.140963 L 492.950250,365.140963 L 493.403625,365.140963 L 493.857000,365.140963 L 494.310375,365.140963 L 494.763750,365.140963 L 495.217125,365.140963 L 495.670500,365.140963 L 496.123875,365.140963 L 496.577250,365.140963 L 497.030625,365.140963 L 497.484000,365.140963 L 497.937375,365.140963 L 498.390750,365.140963 L 498.844125,365.140963 L 499.297500,365.140963 L 499.750875,365.140963 L 500.204250,365.140963 L 500.657625,365.140963 L 501.111000,365.140963 L 501.564375,365.140963 L 502.017750,365.140963 L 502.471125,365.140963 L 502.924500,365.140963 L 503.377875,365.140963 L 503.831250,365.140963 L 504.284625,365.140963 L 504.738000,365.140963 L 505.191375,365.140963 L 505.644750,365.140963 L 506.098125,365.140963 L 506.551500,365.140963 L 507.004875,365.140963 L 507.458250,365.140963 L 507.911625,365.140963 L 508.365000,365.140963 L 508.818375,365.140963 L 509.271750,365.140963 L 509.725125,365.140963 L 510.178500,365.140963 L 510.631875,365.140963 L 511.085250,365.140963 L 511.538625,365.140963 L 511.992000,365.140963 L 512.445375,365.140963 L 512.898750,365.140963 L 513.352125,365.140963 L 513.805500,365.140963 L 514.258875,365.140963 L 514.712250,365.140963 L 515.165625,365.140963 L 515.619000,365.140963 L 516.072375,365.140963 L 516.525750,365.140963 L 516.979125,365.140963 L 517.432500,365.140963 L 517.885875,365.140963 L 518.339250,365.140963 L 518.792625,365.140963 L 519.246000,365.140963 L 519.699375,365.140963 L 520.152750,365.140963 L 520.606125,365.140963 L 521.059500,365.140963 L 521.512875,365.140963 L 521.966250,365.140963 L 522.419625,365.140963 L 522.873000,365.140963 L 523.326375,365.140963 L 523.779750,365.140963 L 524.233125,365.140963 L 524.686500,365.140963 L 525.139875,365.140963 L 525.593250,365.140963 L 526.046625,365.140963 "/>
<path style="fill: none; stroke: #008000; stroke-width: 0.500000; stroke-linejoin: miter; stroke-linecap: square;  opacity: 1.000000" clip-path="url(#7240474723315632415)" d="M 73.125000,358.741005 L 73.578375,358.741005 L 74.031750,358.741005 L 74.485125,358.741005 L 74.938500,358.741005 L 75.391875,358.741005 L 75.845250,358.741005 L 76.298625,358.741005 L 76.752000,358.741005 L 77.205375,358.741005 L 77.658750,358.741005 L 78.112125,358.741005 L 78.565500,358.741005 L 79.018875,358.741005 L 79.472250,358.741005 L 79.925625,358.741005 L 80.379000,358.741005 L 80.832375,358.741005 L 81.285750,358.741005 L 81.739125,358.741005 L 82.192500,358.741005 L 82.645875,358.741005 L 83.099250,358.741005 L 83.552625,358.741005 L 84.006000,358.741005 L 84.459375,358.741005 L 84.912750,358.741005 L 85.366125,358.741005 L 85.819500,358.741005 L 86.272875,358.741005 L 86.726250,358.741005 L 87.179625,358.741005 L 87.633000,358.741005 L 88.086375,358.741005 L 88.539750,358.741005 L 88.993125,358.741005 L 89.446500,358.741005 L 89.899875,358.741005 L 90.353250,358.741005 L 90.806625,358.741005 L 91.260000,358.741005 L 91.713375,358.741005 L 92.166750,358.741005 L 92.620125,358.741005 L 93.073500,358.741005 L 93.526875,358.741005 L 93.980250,358.741005 L 94.433625,358.741005 L 94.887000,358.741005 L 95.340375,358.741005 L 95.793750,358.741005 L 96.247125,358.741005 L 96.700500,358.741005 L 97.153875,358.741005 L 97.607250,358.741005 L 98.060625,358.741005 L 98.514000,358.741005 L 98.967375,358.741005 L 99.420750,358.741005 L 99.874125,358.741005 L 100.327500,358.741005 L 100.780875,358.741005 L 101.234250,358.741005 L 101.687625,358.741005 L 102.141000,358.741005 L 102.594375,358.741005 L 103.047750,358.741005 L 103.501125,358.741005 L 103.954500,358.741005 L 104.407875,358.741005 L 104.861250,358.741005 L 105.314625,358.741005 L 105.768000,358.741005 L 106.221375,358.741005 L 106.674750,358.741005 L 107.128125,358.741005 L 107.581500,358.741005 L 108.034875,358.741005 L 108.488250,358.741005 L 108.941625,358.741005 L 109.395000,358.741005 L 109.848375,358.741005 L 110.301750,358.741005 L 110.755125,358.741005 L 111.208500,358.741005 L 111.661875,358.741005 L 112.115250,358.741005 L 112.568625,358.741005 L 113.022000,358.741005 L 113.475375,358.741005 L 113.928750,358.741005 L 114.382125,358.741005 L 114.835500,358.741005 L 115.288875,358.741005 L 115.742250,358.741005 L 116.195625,358.741005 L 116.649000,358.741005 L 117.102375,358.741005 L 117.555750,358.741005 L 118.009125,358.741005 L 118.462500,358.741005 L 118.915875,358.741005 L 119.369250,358.741005 L 119.822625,358.741005 L 120.276000,358.741005 L 120.729375,358.741005 L 121.182750,358.741005 L 121.636125,358.741005 L 122.089500,358.741005 L 122.542875,358.741005 L 122.996250,358.741005 L 123.449625,358.741005 L 123.903000,358.741005 L 124.356375,358.741005 L 124.809750,358.741005 L 125.263125,358.741005 L 125.716500,358.741005 L 126.169875,358.741005 L 126.623250,358.741005 L 127.076625,358.741005 L 127.530000,358.741005 L 127.983375,358.741005 L 128.436750,358.741005 L 128.890125,358.741005 L 129.343500,358.741005 L 129.796875,358.741005 L 130.250250,358.741005 L 130.703625,358.741005 L 131.157000,358.741005 L 131.610375,358.741005 L 132.063750,358.741005 L 132.517125,358.741005 L 132.970500,358.741005 L 133.423875,358.741005 L 133.877250,358.741005 L 134.330625,358.741005 L 134.784000,358.741005 L 135.237375,358.741005 L 135.690750,358.741005 L 136.144125,358.741005 L 136.597500,358.741005 L 137.050875,358.741005 L 137.504250,358.741005 L 137.957625,358.741005 L 138.411000,358.741005 L 138.864375,358.741005 L 139.317750,358.741005 L 139.771125,358.741005 L 140.224500,358.741005 L 140.677875,358.741005 L 141.131250,358.741005 L 141.584625,358.741005 L 142.038000,358.741005 L 142.491375,358.741005 L 142.944750,358.741005 L 143.398125,358.741005 L 143.851500,358.741005 L 144.304875,358.741005 L 144.758250,358.741005 L 145.211625,358.741005 L 145.665000,358.741005 L 146.118375,358.741005 L 146.571750,358.741005 L 147.025125,358.741005 L 147.478500,358.741005 L 147.931875,358.741005 L 148.385250,358.741005 L 148.838625,358.741005 L 149.292000,358.741005 L 149.745375,358.741005 L 150.198750,358.741005 L 150.652125,358.741005 L 151.105500,358.741005 L 151.558875,358.741005 L 152.012250,358.741005 L 152.465625,358.741005 L 152.919000,358.741005 L 153.372375,358.741005 L 153.825750,358.741005 L 154.279125,358.741005 L 154.732500,358.741005 L 155.185875,358.741005 L 155.639250,358.741005 L 156.092625,358.741005 L 156.546000,358.741005 L 156.999375,358.741005 L 157.452750,358.741005 L 157.906125,358.741005 L 158.359500,358.741005 L 158.812875,358.741005 L 159.266250,358.741005 L 159.719625,358.741005 L 160.173000,358.741005 L 160.626375,358.741005 L 161.079750,358.741005 L 161.533125,358.741005 L 161.986500,358.741005 L 162.439875,358.741005 L 162.893250,358.741005 L 163.346625,358.741005 L 163.800000,358.741005 L 164.253375,358.741005 L 164.706750,358.741005 L 165.160125,358.741005 L 165.613500,358.741005 L 166.066875,358.741005 L 166.520250,358.741005 L 166.973625,358.741005 L 167.427000,358.741005 L 167.880375,358.741005 L 168.333750,358.741005 L 168.787125,358.741005 L 169.240500,358.741005 L 169.693875,358.741005 L 170.147250,358.741005 L 170.600625,358.741005 L 171.054000,358.741005 L 171.507375,358.741005 L 171.960750,358.741005 L 172.414125,358.741005 L 172.867500,358.741005 L 173.320875,358.741005 L 173.774250,358.741005 L 174.227625,358.741005 L 174.681000,358.741005 L 175.134375,358.741005 L 175.587750,358.741005 L 176.041125,358.741005 L 176.494500,358.741005 L 176.947875,358.741005 L 177.401250,358.741005 L 177.854625,358.741005 L 178.308000,358.741005 L 178.761375,358.741005 L 179.214750,358.741005 L 179.668125,358.741005 L 180.121500,358.741005 L 180.574875,358.741005 L 181.028250,358.741005 L 181.481625,358.741005 L 181.935000,358.741005 L 182.388375,358.741005 L 182.841750,358.741005 L 183.295125,358.741005 L 183.748500,358.741005 L 184.201875,358.741005 L 184.655250,358.741005 L 185.108625,358.741005 L 185.562000,358.741005 L 186.015375,358.741005 L 186.468750,358.741005 L 186.922125,358.741005 L 187.375500,358.741005 L 187.828875,358.741005 L 188.282250,358.741005 L 188.735625,358.741005 L 189.189000,358.741005 L 189.642375,358.741005 L 190.095750,358.741005 L 190.549125,358.741005 L 191.002500,358.741005 L 191.455875,358.741005 L 191.909250,358.741005 L 192.362625,358.741005 L 192.816000,358.741005 L 193.269375,358.741005 L 193.722750,358.741005 L 194.176125,358.741005 L 194.629500,358.741005 L 195.082875,358.741005 L 195.536250,358.741005 L 195.989625,358.741005 L 196.443000,358.741005 L 196.896375,358.741005 L 197.349750,358.741005 L 197.803125,358.741005 L 198.256500,358.741005 L 198.709875,358.741005 L 199.163250,358.741005 L 199.616625,358.741005 L 200.070000,358.741005 L 200.523375,358.741005 L 200.976750,358.741005 L 201.430125,358.741005 L 201.883500,358.741005 L 202.336875,358.741005 L 202.790250,358.741005 L 203.243625,358.741005 L 203.697000,358.741005 L 204.150375,358.741005 L 204.603750,358.741005 L 205.057125,358.741005 L 205.510500,358.741005 L 205.963875,358.741005 L 206.417250,358.741005 L 206.870625,358.741005 L 207.324000,358.741005 L 207.777375,358.741005 L 208.230750,358.741005 L 208.684125,358.741005 L 209.137500,358.741005 L 209.590875,358.741005 L 210.044250,358.741005 L 210.497625,358.741005 L 210.951000,358.741005 L 211.404375,358.741005 L 211.857750,358.741005 L 212.311125,358.741005 L 212.764500,358.741005 L 213.217875,358.741005 L 213.671250,358.741005 L 214.124625,358.741005 L 214.578000,358.741005 L 215.031375,358.741005 L 215.484750,358.741005 L 215.938125,358.741005 L 216.391500,358.741005 L 216.844875,358.741005 L 217.298250,358.741005 L 217.751625,358.741005 L 218.205000,358.741005 L 218.658375,358.741005 L 219.111750,358.741005 L 219.565125,358.741005 L 220.018500,358.741005 L 220.471875,358.741005 L 220.925250,358.741005 L 221.378625,358.741005 L 221.832000,358.741005 L 222.285375,358.741005 L 222.738750,358.741005 L 223.192125,358.741005 L 223.645500,358.741005 L 224.098875,358.741005 L 224.552250,358.741005 L 225.005625,358.741005 L 225.459000,358.741005 L 225.912375,358.741005 L 226.365750,358.741005 L 226.819125,358.741005 L 227.272500,358.741005 L 227.725875,358.741005 L 228.179250,358.741005 L 228.632625,358.741005 L 229.086000,358.741005 L 229.539375,358.741005 L 229.992750,358.741005 L 230.446125,358.741005 L 230.899500,358.741005 L 231.352875,358.741005 L 231.806250,358.741005 L 232.259625,358.741005 L 232.713000,358.741005 L 233.166375,358.741005 L 233.619750,358.741005 L 234.073125,358.741005 L 234.526500,358.741005 L 234.979875,358.741005 L 235.433250,358.741005 L 235.886625,358.741005 L 236.340000,358.741005 L 236.793375,358.741005 L 237.246750,358.741005 L 237.700125,358.741005 L 238.153500,358.741005 L 238.606875,358.741005 L 239.060250,358.741005 L 239.513625,358.741005 L 239.967000,358.741005 L 240.420375,358.741005 L 240.873750,358.741005 L 241.327125,358.741005 L 241.780500,358.741005 L 242.233875,358.741005 L 242.687250,358.741005 L 243.140625,358.741005 L 243.594000,358.741005 L 244.047375,358.741005 L 244.500750,358.741005 L 244.954125,358.741005 L 245.407500,358.741005 L 245.860875,358.741005 L 246.314250,358.741005 L 246.767625,358.741005 L 247.221000,358.741005 L 247.674375,358.741005 L 248.127750,358.741005 L 248.581125,358.741005 L 249.034500,358.741005 L 249.487875,358.741005 L 249.941250,358.741005 L 250.394625,358.741005 L 250.848000,358.741005 L 251.301375,358.741005 L 251.754750,358.741005 L 252.208125,358.741005 L 252.661500,358.741005 L 253.114875,358.741005 L 253.568250,358.741005 L 254.021625,358.741005 L 254.475000,358.741005 L 254.928375,358.741005 L 255.381750,358.741005 L 255.835125,358.741005 L 256.288500,358.741005 L 256.741875,358.741005 L 257.195250,358.741005 L 257.648625,358.741005 L 258.102000,358.741005 L 258.555375,358.741005 L 259.008750,358.741005 L 259.462125,358.741005 L 259.915500,358.741005 L 260.368875,358.741005 L 260.822250,358.741005 L 261.275625,358.741005 L 261.729000,358.741005 L 262.182375,358.741005 L 262.635750,358.741005 L 263.089125,358.741005 L 263.542500,358.741005 L 263.995875,358.741005 L 264.449250,358.741005 L 264.902625,358.741005 L 265.356000,358.741005 L 265.809375,358.741005 L 266.262750,358.741005 L 266.716125,358.741005 L 267.169500,358.741005 L 267.622875,358.741005 L 268.076250,358.741005 L 268.529625,358.741005 L 268.983000,358.741005 L 269.436375,358.741005 L 269.889750,358.741005 L 270.343125,358.741005 L 270.796500,358.741005 L 271.249875,358.741005 L 271.703250,358.741005 L 272.156625,358.741005 L 272.610000,358.741005 L 273.063375,358.741005 L 273.516750,358.741005 L 273.970125,358.741005 L 274.423500,358.741005 L 274.876875,358.741005 L 275.330250,358.741005 L 275.783625,358.741005 L 276.237000,358.741005 L 276.690375,358.741005 L 277.143750,358.741005 L 277.597125,358.741005 L 278.050500,358.741005 L 278.503875,358.741005 L 278.957250,358.741005 L 279.410625,358.741005 L 279.864000,358.741005 L 280.317375,358.741005 L 280.770750,358.741005 L 281.224125,358.741005 L 281.677500,358.741005 L 282.130875,358.741005 L 282.584250,358.741005 L 283.037625,358.741005 L 283.491000,358.741005 L 283.944375,358.741005 L 284.397750,358.741005 L 284.851125,358.741005 L 285.304500,358.741005 L 285.757875,358.741005 L 286.211250,358.741005 L 286.664625,358.741005 L 287.118000,358.741005 L 287.571375,358.741005 L 288.024750,358.741005 L 288.478125,358.741005 L 288.931500,358.741005 L 289.384875,358.741005 L 289.838250,358.741005 L 290.291625,358.741005 L 290.745000,358.741005 L 291.198375,358.741005 L 291.651750,358.741005 L 292.105125,358.741005 L 292.558500,358.741005 L 293.011875,358.741005 L 293.465250,358.741005 L 293.918625,358.741005 L 294.372000,358.741005 L 294.825375,358.741005 L 295.278750,358.741005 L 295.732125,358.741005 L 296.185500,358.741005 L 296.638875,358.741005 L 297.092250,358.741005 L 297.545625,358.741005 L 297.999000,358.741005 L 298.452375,358.741005 L 298.905750,358.741005 L 299.359125,358.741005 L 299.812500,358.741005 L 300.265875,358.741005 L 300.719250,358.741005 L 301.172625,358.741005 L 301.626000,358.741005 L 302.079375,358.741005 L 302.532750,358.741005 L 302.986125,358.741005 L 303.439500,358.741005 L 303.892875,358.741005 L 304.346250,358.741005 L 304.799625,358.741005 L 305.253000,358.741005 L 305.706375,358.741005 L 306.159750,358.741005 L 306.613125,358.741005 L 307.066500,358.741005 L 307.519875,358.741005 L 307.973250,358.741005 L 308.426625,358.741005 L 308.880000,358.741005 L 309.333375,358.741005 L 309.786750,358.741005 L 310.240125,358.741005 L 310.693500,358.741005 L 311.146875,358.741005 L 311.600250,358.741005 L 312.053625,358.741005 L 312.507000,358.741005 L 312.960375,358.741005 L 313.413750,358.741005 L 313.867125,358.741005 L 314.320500,358.741005 L 314.773875,358.741005 L 315.227250,358.741005 L 315.680625,358.741005 L 316.134000,358.741005 L 316.587375,358.741005 L 317.040750,358.741005 L 317.494125,358.741005 L 317.947500,358.741005 L 318.400875,358.741005 L 318.854250,358.741005 L 319.307625,358.741005 L 319.761000,358.741005 L 320.214375,358.741005 L 320.667750,358.741005 L 321.121125,358.741005 L 321.574500,358.741005 L 322.027875,358.741005 L 322.481250,358.741005 L 322.934625,358.741005 L 323.388000,358.741005 L 323.841375,358.741005 L 324.294750,358.741005 L 324.748125,358.741005 L 325.201500,358.741005 L 325.654875,358.741005 L 326.108250,358.741005 L 326.561625,358.741005 L 327.015000,358.741005 L 327.468375,358.741005 L 327.921750,358.741005 L 328.375125,358.741005 L 328.828500,358.741005 L 329.281875,358.741005 L 329.735250,358.741005 L 330.188625,358.741005 L 330.642000,358.741005 L 331.095375,358.741005 L 331.548750,358.741005 L 332.002125,358.741005 L 332.455500,358.741005 L 332.908875,358.741005 L 333.362250,358.741005 L 333.815625,358.741005 L 334.269000,358.741005 L 334.722375,358.741005 L 335.175750,358.741005 L 335.629125,358.741005 L 336.082500,358.741005 L 336.535875,358.741005 L 336.989250,358.741005 L 337.442625,358.741005 L 337.896000,358.741005 L 338.349375,358.741005 L 338.802750,358.741005 L 339.256125,358.741005 L 339.709500,358.741005 L 340.162875,358.741005 L 340.616250,358.741005 L 341.069625,358.741005 L 341.523000,358.741005 L 341.976375,358.741005 L 342.429750,358.741005 L 342.883125,358.741005 L 343.336500,358.741005 L 343.789875,358.741005 L 344.243250,358.741005 L 344.696625,358.741005 L 345.150000,358.741005 L 345.603375,358.741005 L 346.056750,358.741005 L 346.510125,358.741005 L 346.963500,358.741005 L 347.416875,358.741005 L 347.870250,358.741005 L 348.323625,358.741005 L 348.777000,358.741005 L 349.230375,358.741005 L 349.683750,358.741005 L 350.137125,358.741005 L 350.590500,358.741005 L 351.043875,358.741005 L 351.497250,358.741005 L 351.950625,358.741005 L 352.404000,358.741005 L 352.857375,358.741005 L 353.310750,358.741005 L 353.764125,358.741005 L 354.217500,358.741005 L 354.670875,358.741005 L 355.124250,358.741005 L 355.577625,358.741005 L 356.031000,358.741005 L 356.484375,358.741005 L 356.937750,358.741005 L 357.391125,358.741005 L 357.844500,358.741005 L 358.297875,358.741005 L 358.751250,358.741005 L 359.204625,358.741005 L 359.658000,358.741005 L 360.111375,358.741005 L 360.564750,358.741005 L 361.018125,358.741005 L 361.471500,358.741005 L 361.924875,358.741005 L 362.378250,358.741005 L 362.831625,358.741005 L 363.285000,358.741005 L 363.738375,358.741005 L 364.191750,358.741005 L 364.645125,358.741005 L 365.098500,358.741005 L 365.551875,358.741005 L 366.005250,358.741005 L 366.458625,358.741005 L 366.912000,358.741005 L 367.365375,358.741005 L 367.818750,358.741005 L 368.272125,358.741005 L 368.725500,358.741005 L 369.178875,358.741005 L 369.632250,358.741005 L 370.085625,358.741005 L 370.539000,358.741005 L 370.992375,358.741005 L 371.445750,358.741005 L 371.899125,358.741005 L 372.352500,358.741005 L 372.805875,358.741005 L 373.259250,358.741005 L 373.712625,358.741005 L 374.166000,358.741005 L 374.619375,358.741005 L 375.072750,358.741005 L 375.526125,358.741005 L 375.979500,358.741005 L 376.432875,358.741005 L 376.886250,358.741005 L 377.339625,358.741005 L 377.793000,358.741005 L 378.246375,358.741005 L 378.699750,358.741005 L 379.153125,358.741005 L 379.606500,358.741005 L 380.059875,358.741005 L 380.513250,358.741005 L 380.966625,358.741005 L 381.420000,358.741005 L 381.873375,358.741005 L 382.326750,358.741005 L 382.780125,358.741005 L 383.233500,358.741005 L 383.686875,358.741005 L 384.140250,358.741005 L 384.593625,358.741005 L 385.047000,358.741005 L 385.500375,358.741005 L 385.953750,358.741005 L 386.407125,358.741005 L 386.860500,358.741005 L 387.313875,358.741005 L 387.767250,358.741005 L 388.220625,358.741005 L 388.674000,358.741005 L 389.127375,358.741005 L 389.580750,358.741005 L 390.034125,358.741005 L 390.487500,358.741005 L 390.940875,358.741005 L 391.394250,358.741005 L 391.847625,358.741005 L 392.301000,358.741005 L 392.754375,358.741005 L 393.207750,358.741005 L 393.661125,358.741005 L 394.114500,358.741005 L 394.567875,358.741005 L 395.021250,358.741005 L 395.474625,358.741005 L 395.928000,358.741005 L 396.381375,358.741005 L 396.834750,358.741005 L 397.288125,358.741005 L 397.741500,358.741005 L 398.194875,358.741005 L 398.648250,358.741005 L 399.101625,358.741005 L 399.555000,358.741005 L 400.008375,358.741005 L 400.461750,358.741005 L 400.915125,358.741005 L 401.368500,358.741005 L 401.821875,358.741005 L 402.275250,358.741005 L 402.728625,358.741005 L 403.182000,358.741005 L 403.635375,358.741005 L 404.088750,358.741005 L 404.542125,358.741005 L 404.995500,358.741005 L 405.448875,358.741005 L 405.902250,358.741005 L 406.355625,358.741005 L 406.809000,358.741005 L 407.262375,358.741005 L 407.715750,358.741005 L 408.169125,358.741005 L 408.622500,358.741005 L 409.075875,358.741005 L 409.529250,358.741005 L 409.982625,358.741005 L 410.436000,358.741005 L 410.889375,358.741005 L 411.342750,358.741005 L 411.796125,358.741005 L 412.249500,358.741005 L 412.702875,358.741005 L 413.156250,358.741005 L 413.609625,358.741005 L 414.063000,358.741005 L 414.516375,358.741005 L 414.969750,358.741005 L 415.423125,358.741005 L 415.876500,358.741005 L 416.329875,358.741005 L 416.783250,358.741005 L 417.236625,358.741005 L 417.690000,358.741005 L 418.143375,358.741005 L 418.596750,358.741005 L 419.050125,358.741005 L 419.503500,358.741005 L 419.956875,358.741005 L 420.410250,358.741005 L 420.863625,358.741005 L 421.317000,358.741005 L 421.770375,358.741005 L 422.223750,358.741005 L 422.677125,358.741005 L 423.130500,358.741005 L 423.583875,358.741005 L 424.037250,358.741005 L 424.490625,358.741005 L 424.944000,358.741005 L 425.397375,358.741005 L 425.850750,358.741005 L 426.304125,358.741005 L 426.757500,358.741005 L 427.210875,358.741005 L 427.664250,358.741005 L 428.117625,358.741005 L 428.571000,358.741005 L 429.024375,358.741005 L 429.477750,358.741005 L 429.931125,358.741005 L 430.384500,358.741005 L 430.837875,358.741005 L 431.291250,358.741005 L 431.744625,358.741005 L 432.198000,358.741005 L 432.651375,358.741005 L 433.104750,358.741005 L 433.558125,358.741005 L 434.011500,358.741005 L 434.464875,358.741005 L 434.918250,358.741005 L 435.371625,358.741005 L 435.825000,358.741005 L 436.278375,358.741005 L 436.731750,358.741005 L 437.185125,358.741005 L 437.638500,358.741005 L 438.091875,358.741005 L 438.545250,358.741005 L 438.998625,358.741005 L 439.452000,358.741005 L 439.905375,358.741005 L 440.358750,358.741005 L 440.812125,358.741005 L 441.265500,358.741005 L 441.718875,358.741005 L 442.172250,358.741005 L 442.625625,358.741005 L 443.079000,358.741005 L 443.532375,358.741005 L 443.985750,358.741005 L 444.439125,358.741005 L 444.892500,358.741005 L 445.345875,358.741005 L 445.799250,358.741005 L 446.252625,358.741005 L 446.706000,358.741005 L 447.159375,358.741005 L 447.612750,358.741005 L 448.066125,358.741005 L 448.519500,358.741005 L 448.972875,358.741005 L 449.426250,358.741005 L 449.879625,358.741005 L 450.333000,358.741005 L 450.786375,358.741005 L 451.239750,358.741005 L 451.693125,358.741005 L 452.146500,358.741005 L 452.599875,358.741005 L 453.053250,358.741005 L 453.506625,358.741005 L 453.960000,358.741005 L 454.413375,358.741005 L 454.866750,358.741005 L 455.320125,358.741005 L 455.773500,358.741005 L 456.226875,358.741005 L 456.680250,358.741005 L 457.133625,358.741005 L 457.587000,358.741005 L 458.040375,358.741005 L 458.493750,358.741005 L 458.947125,358.741005 L 459.400500,358.741005 L 459.853875,358.741005 L 460.307250,358.741005 L 460.760625,358.741005 L 461.214000,358.741005 L 461.667375,358.741005 L 462.120750,358.741005 L 462.574125,358.741005 L 463.027500,358.741005 L 463.480875,358.741005 L 463.934250,358.741005 L 464.387625,358.741005 L 464.841000,358.741005 L 465.294375,358.741005 L 465.747750,358.741005 L 466.201125,358.741005 L 466.654500,358.741005 L 467.107875,358.741005 L 467.561250,358.741005 L 468.014625,358.741005 L 468.468000,358.741005 L 468.921375,358.741005 L 469.374750,358.741005 L 469.828125,358.741005 L 470.281500,358.741005 L 470.734875,358.741005 L 471.188250,358.741005 L 471.641625,358.741005 L 472.095000,358.741005 L 472.548375,358.741005 L 473.001750,358.741005 L 473.455125,358.741005 L 473.908500,358.741005 L 474.361875,358.741005 L 474.815250,358.741005 L 475.268625,358.741005 L 475.722000,358.741005 L 476.175375,358.741005 L 476.628750,358.741005 L 477.082125,358.741005 L 477.535500,358.741005 L 477.988875,358.741005 L 478.442250,358.741005 L 478.895625,358.741005 L 479.349000,358.741005 L 479.802375,358.741005 L 480.255750,358.741005 L 480.709125,358.741005 L 481.162500,358.741005 L 481.615875,358.741005 L 482.069250,358.741005 L 482.522625,358.741005 L 482.976000,358.741005 L 483.429375,358.741005 L 483.882750,358.741005 L 484.336125,358.741005 L 484.789500,358.741005 L 485.242875,358.741005 L 485.696250,358.741005 L 486.149625,358.741005 L 486.603000,358.741005 L 487.056375,358.741005 L 487.509750,358.741005 L 487.963125,358.741005 L 488.416500,358.741005 L 488.869875,358.741005 L 489.323250,358.741005 L 489.776625,358.741005 L 490.230000,358.741005 L 490.683375,358.741005 L 491.136750,358.741005 L 491.590125,358.741005 L 492.043500,358.741005 L 492.496875,358.741005 L 492.950250,358.741005 L 493.403625,358.741005 L 493.857000,358.741005 L 494.310375,358.741005 L 494.763750,358.741005 L 495.217125,358.741005 L 495.670500,358.741005 L 496.123875,358.741005 L 496.577250,358.741005 L 497.030625,358.741005 L 497.484000,358.741005 L 497.937375,358.741005 L 498.390750,358.741005 L 498.844125,358.741005 L 499.297500,358.741005 L 499.750875,358.741005 L 500.204250,358.741005 L 500.657625,358.741005 L 501.111000,358.741005 L 501.564375,358.741005 L 502.017750,358.741005 L 502.471125,358.741005 L 502.924500,358.741005 L 503.377875,358.741005 L 503.831250,358.741005 L 504.284625,358.741005 L 504.738000,358.741005 L 505.191375,358.741005 L 505.644750,358.741005 L 506.098125,358.741005 L 506.551500,358.741005 L 507.004875,358.741005 L 507.458250,358.741005 L 507.911625,358.741005 L 508.365000,358.741005 L 508.818375,358.741005 L 509.271750,358.741005 L 509.725125,358.741005 L 510.178500,358.741005 L 510.631875,358.741005 L 511.085250,358.741005 L 511.538625,358.741005 L 511.992000,358.741005 L 512.445375,358.741005 L 512.898750,358.741005 L 513.352125,358.741005 L 513.805500,358.741005 L 514.258875,358.741005 L 514.712250,358.741005 L 515.165625,358.741005 L 515.619000,358.741005 L 516.072375,358.741005 L 516.525750,358.741005 L 516.979125,358.741005 L 517.432500,358.741005 L 517.885875,358.741005 L 518.339250,358.741005 L 518.792625,358.741005 L 519.246000,358.741005 L 519.699375,358.741005 L 520.152750,358.741005 L 520.606125,358.741005 L 521.059500,358.741005 L 521.512875,358.741005 L 521.966250,358.741005 L 522.419625,358.741005 L 522.873000,358.741005 L 523.326375,358.741005 L 523.779750,358.741005 L 524.233125,358.741005 L 524.686500,358.741005 L 525.139875,358.741005 L 525.593250,358.741005 L 526.046625,358.741005 "/>
<path style="fill: none; stroke: #ff0000; stroke-width: 0.500000; stroke-linejoin: miter; stroke-linecap: square;  opacity: 1.000000" clip-path="url(#7240474723315632415)" d="M 73.125000,64.112802 L 73.578375,64.112802 L 74.031750,64.112802 L 74.485125,64.112802 L 74.938500,64.112802 L 75.391875,64.112802 L 75.845250,64.112802 L 76.298625,64.112802 L 76.752000,64.112802 L 77.205375,64.112802 L 77.658750,64.112802 L 78.112125,64.112802 L 78.565500,64.112802 L 79.018875,64.112802 L 79.472250,64.112802 L 79.925625,64.112802 L 80.379000,64.112802 L 80.832375,64.112802 L 81.285750,64.112802 L 81.739125,64.112802 L 82.192500,64.112802 L 82.645875,64.112802 L 83.099250,64.112802 L 83.552625,64.112802 L 84.006000,64.112802 L 84.459375,64.112802 L 84.912750,64.112802 L 85.366125,64.112802 L 85.819500,64.112802 L 86.272875,64.112802 L 86.726250,64.112802 L 87.179625,64.112802 L 87.633000,64.112802 L 88.086375,64.112802 L 88.539750,64.112802 L 88.993125,64.112802 L 89.446500,64.112802 L 89.899875,64.112802 L 90.353250,64.112802 L 90.806625,64.112802 L 91.260000,64.112802 L 91.713375,64.112802 L 92.166750,64.112802 L 92.620125,64.112802 L 93.073500,64.112802 L 93.526875,64.112802 L 93.980250,64.112802 L 94.433625,64.112802 L 94.887000,64.112802 L 95.340375,64.112802 L 95.793750,64.112802 L 96.247125,64.112802 L 96.700500,64.112802 L 97.153875,64.112802 L 97.607250,64.112802 L 98.060625,64.112802 L 98.514000,64.112802 L 98.967375,64.112802 L 99.420750,64.112802 L 99.874125,64.112802 L 100.327500,64.112802 L 100.780875,64.112802 L 101.234250,64.112802 L 101.687625,64.112802 L 102.141000,64.112802 L 102.594375,64.112802 L 103.047750,64.112802 L 103.501125,64.112802 L 103.954500,64.112802 L 104.407875,64.112802 L 104.861250,64.112802 L 105.314625,64.112802 L 105.768000,64.112802 L 106.221375,64.112802 L 106.674750,64.112802 L 107.128125,64.112802 L 107.581500,64.112802 L 108.034875,64.112802 L 108.488250,64.112802 L 108.941625,64.112802 L 109.395000,64.112802 L 109.848375,64.112802 L 110.301750,64.112802 L 110.755125,64.112802 L 111.208500,64.112802 L 111.661875,64.112802 L 112.115250,64.112802 L 112.568625,64.112802 L 113.022000,64.112802 L 113.475375,64.112802 L 113.928750,64.112802 L 114.382125,64.112802 L 114.835500,64.112802 L 115.288875,64.112802 L 115.742250,64.112802 L 116.195625,64.112802 L 116.649000,64.112802 L 117.102375,64.112802 L 117.555750,64.112802 L 118.009125,64.112802 L 118.462500,64.112802 L 118.915875,64.112802 L 119.369250,64.112802 L 119.822625,64.112802 L 120.276000,64.112802 L 120.729375,64.112802 L 121.182750,64.112802 L 121.636125,64.112802 L 122.089500,64.112802 L 122.542875,64.112802 L 122.996250,64.112802 L 123.449625,64.112802 L 123.903000,64.112802 L 124.356375,64.112802 L 124.809750,64.112802 L 125.263125,64.112802 L 125.716500,64.112802 L 126.169875,64.112802 L 126.623250,64.112802 L 127.076625,64.112802 L 127.530000,64.112802 L 127.983375,64.112802 L 128.436750,64.112802 L 128.890125,64.112802 L 129.343500,64.112802 L 129.796875,64.112802 L 130.250250,64.112802 L 130.703625,64.112802 L 131.157000,64.112802 L 131.610375,64.112802 L 132.063750,64.112802 L 132.517125,64.112802 L 132.970500,64.112802 L 133.423875,64.112802 L 133.877250,64.112802 L 134.330625,64.112802 L 134.784000,64.112802 L 135.237375,64.112802 L 135.690750,64.112802 L 136.144125,64.112802 L 136.597500,64.112802 L 137.050875,64.112802 L 137.504250,64.112802 L 137.957625,64.112802 L 138.411000,64.112802 L 138.864375,64.112802 L 139.317750,64.112802 L 139.771125,64.112802 L 140.224500,64.112802 L 140.677875,64.112802 L 141.131250,64.112802 L 141.584625,64.112802 L 142.038000,64.112802 L 142.491375,64.112802 L 142.944750,64.112802 L 143.398125,64.112802 L 143.851500,64.112802 L 144.304875,64.112802 L 144.758250,64.112802 L 145.211625,64.112802 L 145.665000,64.112802 L 146.118375,64.112802 L 146.571750,64.112802 L 147.025125,64.112802 L 147.478500,64.112802 L 147.931875,64.112802 L 148.385250,64.112802 L 148.838625,64.112802 L 149.292000,64.112802 L 149.745375,64.112802 L 150.198750,64.112802 L 150.652125,64.112802 L 151.105500,64.112802 L 151.558875,64.112802 L 152.012250,64.112802 L 152.465625,64.112802 L 152.919000,64.112802 L 153.372375,64.112802 L 153.825750,64.112802 L 154.279125,64.112802 L 154.732500,64.112802 L 155.185875,64.112802 L 155.639250,64.112802 L 156.092625,64.112802 L 156.546000,64.112802 L 156.999375,64.112802 L 157.452750,64.112802 L 157.906125,64.112802 L 158.359500,64.112802 L 158.812875,64.112802 L 159.266250,64.112802 L 159.719625,64.112802 L 160.173000,64.112802 L 160.626375,64.112802 L 161.079750,64.112802 L 161.533125,64.112802 L 161.986500,64.112802 L 162.439875,64.112802 L 162.893250,64.112802 L 163.346625,64.112802 L 163.800000,64.112802 L 164.253375,64.112802 L 164.706750,64.112802 L 165.160125,64.112802 L 165.613500,64.112802 L 166.066875,64.112802 L 166.520250,64.112802 L 166.973625,64.112802 L 167.427000,64.112802 L 167.880375,64.112802 L 168.333750,64.112802 L 168.787125,64.112802 L 169.240500,64.112802 L 169.693875,64.112802 L 170.147250,64.112802 L 170.600625,64.112802 L 171.054000,64.112802 L 171.507375,64.112802 L 171.960750,64.112802 L 172.414125,64.112802 L 172.867500,64.112802 L 173.320875,64.112802 L 173.774250,64.112802 L 174.227625,64.112802 L 174.681000,64.112802 L 175.134375,64.112802 L 175.587750,64.112802 L 176.041125,64.112802 L 176.494500,64.112802 L 176.947875,64.112802 L 177.401250,64.112802 L 177.854625,64.112802 L 178.308000,64.112802 L 178.761375,64.112802 L 179.214750,64.112802 L 179.668125,64.112802 L 180.121500,64.112802 L 180.574875,64.112802 L 181.028250,64.112802 L 181.481625,64.112802 L 181.935000,64.112802 L 182.388375,64.112802 L 182.841750,64.112802 L 183.295125,64.112802 L 183.748500,64.112802 L 184.201875,64.112802 L 184.655250,64.112802 L 185.108625,64.112802 L 185.562000,64.112802 L 186.015375,64.112802 L 186.468750,64.112802 L 186.922125,64.112802 L 187.375500,64.112802 L 187.828875,64.112802 L 188.282250,64.112802 L 188.735625,64.112802 L 189.189000,64.112802 L 189.642375,64.112802 L 190.095750,64.112802 L 190.549125,64.112802 L 191.002500,64.112802 L 191.455875,64.112802 L 191.909250,64.112802 L 192.362625,64.112802 L 192.816000,64.112802 L 193.269375,64.112802 L 193.722750,64.112802 L 194.176125,64.112802 L 194.629500,64.112802 L 195.082875,64.112802 L 195.536250,64.112802 L 195.989625,64.112802 L 196.443000,64.112802 L 196.896375,64.112802 L 197.349750,64.112802 L 197.803125,64.112802 L 198.256500,64.112802 L 198.709875,64.112802 L 199.163250,64.112802 L 199.616625,64.112802 L 200.070000,64.112802 L 200.523375,64.112802 L 200.976750,64.112802 L 201.430125,64.112802 L 201.883500,64.112802 L 202.336875,64.112802 L 202.790250,64.112802 L 203.243625,64.112802 L 203.697000,64.112802 L 204.150375,64.112802 L 204.603750,64.112802 L 205.057125,64.112802 L 205.510500,64.112802 L 205.963875,64.112802 L 206.417250,64.112802 L 206.870625,64.112802 L 207.324000,64.112802 L 207.777375,64.112802 L 208.230750,64.112802 L 208.684125,64.112802 L 209.137500,64.112802 L 209.590875,64.112802 L 210.044250,64.112802 L 210.497625,64.112802 L 210.951000,64.112802 L 211.404375,64.112802 L 211.857750,64.112802 L 212.311125,64.112802 L 212.764500,64.112802 L 213.217875,64.112802 L 213.671250,64.112802 L 214.124625,64.112802 L 214.578000,64.112802 L 215.031375,64.112802 L 215.484750,64.112802 L 215.938125,64.112802 L 216.391500,64.112802 L 216.844875,64.112802 L 217.298250,64.112802 L 217.751625,64.112802 L 218.205000,64.112802 L 218.658375,64.112802 L 219.111750,64.112802 L 219.565125,64.112802 L 220.018500,64.112802 L 220.471875,64.112802 L 220.925250,64.112802 L 221.378625,64.112802 L 221.832000,64.112802 L 222.285375,64.112802 L 222.738750,64.112802 L 223.192125,64.112802 L 223.645500,64.112802 L 224.098875,64.112802 L 224.552250,64.112802 L 225.005625,64.112802 L 225.459000,64.112802 L 225.912375,64.112802 L 226.365750,64.112802 L 226.819125,64.112802 L 227.272500,64.112802 L 227.725875,64.112802 L 228.179250,64.112802 L 228.632625,64.112802 L 229.086000,64.112802 L 229.539375,64.112802 L 229.992750,64.112802 L 230.446125,64.112802 L 230.899500,64.112802 L 231.352875,64.112802 L 231.806250,64.112802 L 232.259625,64.112802 L 232.713000,64.112802 L 233.166375,64.112802 L 233.619750,64.112802 L 234.073125,64.112802 L 234.526500,64.112802 L 234.979875,64.112802 L 235.433250,64.112802 L 235.886625,64.112802 L 236.340000,64.112802 L 236.793375,64.112802 L 237.246750,64.112802 L 237.700125,64.112802 L 238.153500,64.112802 L 238.606875,64.112802 L 239.060250,64.112802 L 239.513625,64.112802 L 239.967000,64.112802 L 240.420375,64.112802 L 240.873750,64.112802 L 241.327125,64.112802 L 241.780500,64.112802 L 242.233875,64.112802 L 242.687250,64.112802 L 243.140625,64.112802 L 243.594000,64.112802 L 244.047375,64.112802 L 244.500750,64.112802 L 244.954125,64.112802 L 245.407500,64.112802 L 245.860875,64.112802 L 246.314250,64.112802 L 246.767625,64.112802 L 247.221000,64.112802 L 247.674375,64.112802 L 248.127750,64.112802 L 248.581125,64.112802 L 249.034500,64.112802 L 249.487875,64.112802 L 249.941250,64.112802 L 250.394625,64.112802 L 250.848000,64.112802 L 251.301375,64.112802 L 251.754750,64.112802 L 252.208125,64.112802 L 252.661500,64.112802 L 253.114875,64.112802 L 253.568250,64.112802 L 254.021625,64.112802 L 254.475000,64.112802 L 254.928375,64.112802 L 255.381750,64.112802 L 255.835125,64.112802 L 256.288500,64.112802 L 256.741875,64.112802 L 257.195250,64.112802 L 257.648625,64.112802 L 258.102000,64.112802 L 258.555375,64.112802 L 259.008750,64.112802 L 259.462125,64.112802 L 259.915500,64.112802 L 260.368875,64.112802 L 260.822250,64.112802 L 261.275625,64.112802 L 261.729000,64.112802 L 262.182375,64.112802 L 262.635750,64.112802 L 263.089125,64.112802 L 263.542500,64.112802 L 263.995875,64.112802 L 264.449250,64.112802 L 264.902625,64.112802 L 265.356000,64.112802 L 265.809375,64.112802 L 266.262750,64.112802 L 266.716125,64.112802 L 267.169500,64.112802 L 267.622875,64.112802 L 268.076250,64.112802 L 268.529625,64.112802 L 268.983000,64.112802 L 269.436375,64.112802 L 269.889750,64.112802 L 270.343125,64.112802 L 270.796500,64.112802 L 271.249875,64.112802 L 271.703250,64.112802 L 272.156625,64.112802 L 272.610000,64.112802 L 273.063375,64.112802 L 273.516750,64.112802 L 273.970125,64.112802 L 274.423500,64.112802 L 274.876875,64.112802 L 275.330250,64.112802 L 275.783625,64.112802 L 276.237000,64.112802 L 276.690375,64.112802 L 277.143750,64.112802 L 277.597125,64.112802 L 278.050500,64.112802 L 278.503875,64.112802 L 278.957250,64.112802 L 279.410625,64.112802 L 279.864000,64.112802 L 280.317375,64.112802 L 280.770750,64.112802 L 281.224125,64.112802 L 281.677500,64.112802 L 282.130875,64.112802 L 282.584250,64.112802 L 283.037625,64.112802 L 283.491000,64.112802 L 283.944375,64.112802 L 284.397750,64.112802 L 284.851125,64.112802 L 285.304500,64.112802 L 285.757875,64.112802 L 286.211250,64.112802 L 286.664625,64.112802 L 287.118000,64.112802 L 287.571375,64.112802 L 288.024750,64.112802 L 288.478125,64.112802 L 288.931500,64.112802 L 289.384875,64.112802 L 289.838250,64.112802 L 290.291625,64.112802 L 290.745000,64.112802 L 291.198375,64.112802 L 291.651750,64.112802 L 292.105125,64.112802 L 292.558500,64.112802 L 293.011875,64.112802 L 293.465250,64.112802 L 293.918625,64.112802 L 294.372000,64.112802 L 294.825375,64.112802 L 295.278750,64.112802 L 295.732125,64.112802 L 296.185500,64.112802 L 296.638875,64.112802 L 297.092250,64.112802 L 297.545625,64.112802 L 297.999000,64.112802 L 298.452375,64.112802 L 298.905750,64.112802 L 299.359125,64.112802 L 299.812500,64.112802 L 300.265875,64.112802 L 300.719250,64.112802 L 301.172625,64.112802 L 301.626000,64.112802 L 302.079375,64.112802 L 302.532750,64.112802 L 302.986125,64.112802 L 303.439500,64.112802 L 303.892875,64.112802 L 304.346250,64.112802 L 304.799625,64.112802 L 305.253000,64.112802 L 305.706375,64.112802 L 306.159750,64.112802 L 306.613125,64.112802 L 307.066500,64.112802 L 307.519875,64.112802 L 307.973250,64.112802 L 308.426625,64.112802 L 308.880000,64.112802 L 309.333375,64.112802 L 309.786750,64.112802 L 310.240125,64.112802 L 310.693500,64.112802 L 311.146875,64.112802 L 311.600250,64.112802 L 312.053625,64.112802 L 312.507000,64.112802 L 312.960375,64.112802 L 313.413750,64.112802 L 313.867125,64.112802 L 314.320500,64.112802 L 314.773875,64.112802 L 315.227250,64.112802 L 315.680625,64.112802 L 316.134000,64.112802 L 316.587375,64.112802 L 317.040750,64.112802 L 317.494125,64.112802 L 317.947500,64.112802 L 318.400875,64.112802 L 318.854250,64.112802 L 319.307625,64.112802 L 319.761000,64.112802 L 320.214375,64.112802 L 320.667750,64.112802 L 321.121125,64.112802 L 321.574500,64.112802 L 322.027875,64.112802 L 322.481250,64.112802 L 322.934625,64.112802 L 323.388000,64.112802 L 323.841375,64.112802 L 324.294750,64.112802 L 324.748125,64.112802 L 325.201500,64.112802 L 325.654875,64.112802 L 326.108250,64.112802 L 326.561625,64.112802 L 327.015000,64.112802 L 327.468375,64.112802 L 327.921750,64.112802 L 328.375125,64.112802 L 328.828500,64.112802 L 329.281875,64.112802 L 329.735250,64.112802 L 330.188625,64.112802 L 330.642000,64.112802 L 331.095375,64.112802 L 331.548750,64.112802 L 332.002125,64.112802 L 332.455500,64.112802 L 332.908875,64.112802 L 333.362250,64.112802 L 333.815625,64.112802 L 334.269000,64.112802 L 334.722375,64.112802 L 335.175750,64.112802 L 335.629125,64.112802 L 336.082500,64.112802 L 336.535875,64.112802 L 336.989250,64.112802 L 337.442625,64.112802 L 337.896000,64.112802 L 338.349375,64.112802 L 338.802750,64.112802 L 339.256125,64.112802 L 339.709500,64.112802 L 340.162875,64.112802 L 340.616250,64.112802 L 341.069625,64.112802 L 341.523000,64.112802 L 341.976375,64.112802 L 342.429750,64.112802 L 342.883125,64.112802 L 343.336500,64.112802 L 343.789875,64.112802 L 344.243250,64.112802 L 344.696625,64.112802 L 345.150000,64.112802 L 345.603375,64.112802 L 346.056750,64.112802 L 346.510125,64.112802 L 346.963500,64.112802 L 347.416875,64.112802 L 347.870250,64.112802 L 348.323625,64.112802 L 348.777000,64.112802 L 349.230375,64.112802 L 349.683750,64.112802 L 350.137125,64.112802 L 350.590500,64.112802 L 351.043875,64.112802 L 351.497250,64.112802 L 351.950625,64.112802 L 352.404000,64.112802 L 352.857375,64.112802 L 353.310750,64.112802 L 353.764125,64.112802 L 354.217500,64.112802 L 354.670875,64.112802 L 355.124250,64.112802 L 355.577625,64.112802 L 356.031000,64.112802 L 356.484375,64.112802 L 356.937750,64.112802 L 357.391125,64.112802 L 357.844500,64.112802 L 358.297875,64.112802 L 358.751250,64.112802 L 359.204625,64.112802 L 359.658000,64.112802 L 360.111375,64.112802 L 360.564750,64.112802 L 361.018125,64.112802 L 361.471500,64.112802 L 361.924875,64.112802 L 362.378250,64.112802 L 362.831625,64.112802 L 363.285000,64.112802 L 363.738375,64.112802 L 364.191750,64.112802 L 364.645125,64.112802 L 365.098500,64.112802 L 365.551875,64.112802 L 366.005250,64.112802 L 366.458625,64.112802 L 366.912000,64.112802 L 367.365375,64.112802 L 367.818750,64.112802 L 368.272125,64.112802 L 368.725500,64.112802 L 369.178875,64.112802 L 369.632250,64.112802 L 370.085625,64.112802 L 370.539000,64.112802 L 370.992375,64.112802 L 371.445750,64.112802 L 371.899125,64.112802 L 372.352500,64.112802 L 372.805875,64.112802 L 373.259250,64.112802 L 373.712625,64.112802 L 374.166000,64.112802 L 374.619375,64.112802 L 375.072750,64.112802 L 375.526125,64.112802 L 375.979500,64.112802 L 376.432875,64.112802 L 376.886250,64.112802 L 377.339625,64.112802 L 377.793000,64.112802 L 378.246375,64.112802 L 378.699750,64.112802 L 379.153125,64.112802 L 379.606500,64.112802 L 380.059875,64.112802 L 380.513250,64.112802 L 380.966625,64.112802 L 381.420000,64.112802 L 381.873375,64.112802 L 382.326750,64.112802 L 382.780125,64.112802 L 383.233500,64.112802 L 383.686875,64.112802 L 384.140250,64.112802 L 384.593625,64.112802 L 385.047000,64.112802 L 385.500375,64.112802 L 385.953750,64.112802 L 386.407125,64.112802 L 386.860500,64.112802 L 387.313875,64.112802 L 387.767250,64.112802 L 388.220625,64.112802 L 388.674000,64.112802 L 389.127375,64.112802 L 389.580750,64.112802 L 390.034125,64.112802 L 390.487500,64.112802 L 390.940875,64.112802 L 391.394250,64.112802 L 391.847625,64.112802 L 392.301000,64.112802 L 392.754375,64.112802 L 393.207750,64.112802 L 393.661125,64.112802 L 394.114500,64.112802 L 394.567875,64.112802 L 395.021250,64.112802 L 395.474625,64.112802 L 395.928000,64.112802 L 396.381375,64.112802 L 396.834750,64.112802 L 397.288125,64.112802 L 397.741500,64.112802 L 398.194875,64.112802 L 398.648250,64.112802 L 399.101625,64.112802 L 399.555000,64.112802 L 400.008375,64.112802 L 400.461750,64.112802 L 400.915125,64.112802 L 401.368500,64.112802 L 401.821875,64.112802 L 402.275250,64.112802 L 402.728625,64.112802 L 403.182000,64.112802 L 403.635375,64.112802 L 404.088750,64.112802 L 404.542125,64.112802 L 404.995500,64.112802 L 405.448875,64.112802 L 405.902250,64.112802 L 406.355625,64.112802 L 406.809000,64.112802 L 407.262375,64.112802 L 407.715750,64.112802 L 408.169125,64.112802 L 408.622500,64.112802 L 409.075875,64.112802 L 409.529250,64.112802 L 409.982625,64.112802 L 410.436000,64.112802 L 410.889375,64.112802 L 411.342750,64.112802 L 411.796125,64.112802 L 412.249500,64.112802 L 412.702875,64.112802 L 413.156250,64.112802 L 413.609625,64.112802 L 414.063000,64.112802 L 414.516375,64.112802 L 414.969750,64.112802 L 415.423125,64.112802 L 415.876500,64.112802 L 416.329875,64.112802 L 416.783250,64.112802 L 417.236625,64.112802 L 417.690000,64.112802 L 418.143375,64.112802 L 418.596750,64.112802 L 419.050125,64.112802 L 419.503500,64.112802 L 419.956875,64.112802 L 420.410250,64.112802 L 420.863625,64.112802 L 421.317000,64.112802 L 421.770375,64.112802 L 422.223750,64.112802 L 422.677125,64.112802 L 423.130500,64.112802 L 423.583875,64.112802 L 424.037250,64.112802 L 424.490625,64.112802 L 424.944000,64.112802 L 425.397375,64.112802 L 425.850750,64.112802 L 426.304125,64.112802 L 426.757500,64.112802 L 427.210875,64.112802 L 427.664250,64.112802 L 428.117625,64.112802 L 428.571000,64.112802 L 429.024375,64.112802 L 429.477750,64.112802 L 429.931125,64.112802 L 430.384500,64.112802 L 430.837875,64.112802 L 431.291250,64.112802 L 431.744625,64.112802 L 432.198000,64.112802 L 432.651375,64.112802 L 433.104750,64.112802 L 433.558125,64.112802 L 434.011500,64.112802 L 434.464875,64.112802 L 434.918250,64.112802 L 435.371625,64.112802 L 435.825000,64.112802 L 436.278375,64.112802 L 436.731750,64.112802 L 437.185125,64.112802 L 437.638500,64.112802 L 438.091875,64.112802 L 438.545250,64.112802 L 438.998625,64.112802 L 439.452000,64.112802 L 439.905375,64.112802 L 440.358750,64.112802 L 440.812125,64.112802 L 441.265500,64.112802 L 441.718875,64.112802 L 442.172250,64.112802 L 442.625625,64.112802 L 443.079000,64.112802 L 443.532375,64.112802 L 443.985750,64.112802 L 444.439125,64.112802 L 444.892500,64.112802 L 445.345875,64.112802 L 445.799250,64.112802 L 446.252625,64.112802 L 446.706000,64.112802 L 447.159375,64.112802 L 447.612750,64.112802 L 448.066125,64.112802 L 448.519500,64.112802 L 448.972875,64.112802 L 449.426250,64.112802 L 449.879625,64.112802 L 450.333000,64.112802 L 450.786375,64.112802 L 451.239750,64.112802 L 451.693125,64.112802 L 452.146500,64.112802 L 452.599875,64.112802 L 453.053250,64.112802 L 453.506625,64.112802 L 453.960000,64.112802 L 454.413375,64.112802 L 454.866750,64.112802 L 455.320125,64.112802 L 455.773500,64.112802 L 456.226875,64.112802 L 456.680250,64.112802 L 457.133625,64.112802 L 457.587000,64.112802 L 458.040375,64.112802 L 458.493750,64.112802 L 458.947125,64.112802 L 459.400500,64.112802 L 459.853875,64.112802 L 460.307250,64.112802 L 460.760625,64.112802 L 461.214000,64.112802 L 461.667375,64.112802 L 462.120750,64.112802 L 462.574125,64.112802 L 463.027500,64.112802 L 463.480875,64.112802 L 463.934250,64.112802 L 464.387625,64.112802 L 464.841000,64.112802 L 465.294375,64.112802 L 465.747750,64.112802 L 466.201125,64.112802 L 466.654500,64.112802 L 467.107875,64.112802 L 467.561250,64.112802 L 468.014625,64.112802 L 468.468000,64.112802 L 468.921375,64.112802 L 469.374750,64.112802 L 469.828125,64.112802 L 470.281500,64.112802 L 470.734875,64.112802 L 471.188250,64.112802 L 471.641625,64.112802 L 472.095000,64.112802 L 472.548375,64.112802 L 473.001750,64.112802 L 473.455125,64.112802 L 473.908500,64.112802 L 474.361875,64.112802 L 474.815250,64.112802 L 475.268625,64.112802 L 475.722000,64.112802 L 476.175375,64.112802 L 476.628750,64.112802 L 477.082125,64.112802 L 477.535500,64.112802 L 477.988875,64.112802 L 478.442250,64.112802 L 478.895625,64.112802 L 479.349000,64.112802 L 479.802375,64.112802 L 480.255750,64.112802 L 480.709125,64.112802 L 481.162500,64.112802 L 481.615875,64.112802 L 482.069250,64.112802 L 482.522625,64.112802 L 482.976000,64.112802 L 483.429375,64.112802 L 483.882750,64.112802 L 484.336125,64.112802 L 484.789500,64.112802 L 485.242875,64.112802 L 485.696250,64.112802 L 486.149625,64.112802 L 486.603000,64.112802 L 487.056375,64.112802 L 487.509750,64.112802 L 487.963125,64.112802 L 488.416500,64.112802 L 488.869875,64.112802 L 489.323250,64.112802 L 489.776625,64.112802 L 490.230000,64.112802 L 490.683375,64.112802 L 491.136750,64.112802 L 491.590125,64.112802 L 492.043500,64.112802 L 492.496875,64.112802 L 492.950250,64.112802 L 493.403625,64.112802 L 493.857000,64.112802 L 494.310375,64.112802 L 494.763750,64.112802 L 495.217125,64.112802 L 495.670500,64.112802 L 496.123875,64.112802 L 496.577250,64.112802 L 497.030625,64.112802 L 497.484000,64.112802 L 497.937375,64.112802 L 498.390750,64.112802 L 498.844125,64.112802 L 499.297500,64.112802 L 499.750875,64.112802 L 500.204250,64.112802 L 500.657625,64.112802 L 501.111000,64.112802 L 501.564375,64.112802 L 502.017750,64.112802 L 502.471125,64.112802 L 502.924500,64.112802 L 503.377875,64.112802 L 503.831250,64.112802 L 504.284625,64.112802 L 504.738000,64.112802 L 505.191375,64.112802 L 505.644750,64.112802 L 506.098125,64.112802 L 506.551500,64.112802 L 507.004875,64.112802 L 507.458250,64.112802 L 507.911625,64.112802 L 508.365000,64.112802 L 508.818375,64.112802 L 509.271750,64.112802 L 509.725125,64.112802 L 510.178500,64.112802 L 510.631875,64.112802 L 511.085250,64.112802 L 511.538625,64.112802 L 511.992000,64.112802 L 512.445375,64.112802 L 512.898750,64.112802 L 513.352125,64.112802 L 513.805500,64.112802 L 514.258875,64.112802 L 514.712250,64.112802 L 515.165625,64.112802 L 515.619000,64.112802 L 516.072375,64.112802 L 516.525750,64.112802 L 516.979125,64.112802 L 517.432500,64.112802 L 517.885875,64.112802 L 518.339250,64.112802 L 518.792625,64.112802 L 519.246000,64.112802 L 519.699375,64.112802 L 520.152750,64.112802 L 520.606125,64.112802 L 521.059500,64.112802 L 521.512875,64.112802 L 521.966250,64.112802 L 522.419625,64.112802 L 522.873000,64.112802 L 523.326375,64.112802 L 523.779750,64.112802 L 524.233125,64.112802 L 524.686500,64.112802 L 525.139875,64.112802 L 525.593250,64.112802 L 526.046625,64.112802 "/>
<g id="matplotlib.axis1">
<g id="xtick1">
<text style="font-size: 9.996000; font-family: Bitstream Vera Serif; font-style: Roman; fill: #000000;" x="70.625000" y="406.900000" >0</text>
</g>
<g id="xtick2">
<path style="fill: none; stroke: #000000; stroke-width: 0.500000; stroke-linejoin: miter; stroke-linecap: butt;  opacity: 1.000000"  d="M 163.800000,396.900000 L 163.800000,391.900000"/>
<path style="fill: none; stroke: #000000; stroke-width: 0.500000; stroke-linejoin: miter; stroke-linecap: butt;  opacity: 1.000000"  d="M 163.800000,49.100000 L 163.800000,44.100000"/>
<text style="font-size: 9.996000; font-family: Bitstream Vera Serif; font-style: Roman; fill: #000000;" x="155.300000" y="406.900000" >200</text>
</g>
<g id="xtick3">
<path style="fill: none; stroke: #000000; stroke-width: 0.500000; stroke-linejoin: miter; stroke-linecap: butt;  opacity: 1.000000"  d="M 254.475000,396.900000 L 254.475000,391.900000"/>
<path style="fill: none; stroke: #000000; stroke-width: 0.500000; stroke-linejoin: miter; stroke-linecap: butt;  opacity: 1.000000"  d="M 254.475000,49.100000 L 254.475000,44.100000"/>
<text style="font-size: 9.996000; font-family: Bitstream Vera Serif; font-style: Roman; fill: #000000;" x="245.975000" y="406.900000" >400</text>
</g>
<g id="xtick4">
<path style="fill: none; stroke: #000000; stroke-width: 0.500000; stroke-linejoin: miter; stroke-linecap: butt;  opacity: 1.000000"  d="M 345.150000,396.900000 L 345.150000,391.900000"/>
<path style="fill: none; stroke: #000000; stroke-width: 0.500000; stroke-linejoin: miter; stroke-linecap: butt;  opacity: 1.000000"  d="M 345.150000,49.100000 L 345.150000,44.100000"/>
<text style="font-size: 9.996000; font-family: Bitstream Vera Serif; font-style: Roman; fill: #000000;" x="336.650000" y="406.900000" >600</text>
</g>
<g id="xtick5">
<path style="fill: none; stroke: #000000; stroke-width: 0.500000; stroke-linejoin: miter; stroke-linecap: butt;  opacity: 1.000000"  d="M 435.825000,396.900000 L 435.825000,391.900000"/>
<path style="fill: none; stroke: #000000; stroke-width: 0.500000; stroke-linejoin: miter; stroke-linecap: butt;  opacity: 1.000000"  d="M 435.825000,49.100000 L 435.825000,44.100000"/>
<text style="font-size: 9.996000; font-family: Bitstream Vera Serif; font-style: Roman; fill: #000000;" x="427.325000" y="406.900000" >800</text>
</g>
<g id="xtick6">
<text style="font-size: 9.996000; font-family: Bitstream Vera Serif; font-style: Roman; fill: #000000;" x="515.500000" y="406.900000" >1000</text>
</g>
<text style="font-size: 12.000000; font-family: Bitstream Vera Serif; font-style: Roman; fill: #000000;" x="296.312500" y="418.900000" >n</text>
</g>
<g id="matplotlib.axis2">
<g id="ytick1">
<path style="fill: none; stroke: #000000; stroke-width: 0.500000; stroke-linejoin: miter; stroke-linecap: butt;  opacity: 1.000000"  d="M 73.125000,396.900000 L 78.125000,396.900000"/>
<path style="fill: none; stroke: #000000; stroke-width: 0.500000; stroke-linejoin: miter; stroke-linecap: butt;  opacity: 1.000000"  d="M 521.500000,396.900000 L 526.500000,396.900000"/>
<text style="font-size: 9.996000; font-family: Bitstream Vera Serif; font-style: Roman; fill: #000000;" x="50.125000" y="400.400000" >0.96</text>
</g>
<g id="ytick2">
<path style="fill: none; stroke: #000000; stroke-width: 0.500000; stroke-linejoin: miter; stroke-linecap: butt;  opacity: 1.000000"  d="M 73.125000,352.800000 L 78.125000,352.800000"/>
<path style="fill: none; stroke: #000000; stroke-width: 0.500000; stroke-linejoin: miter; stroke-linecap: butt;  opacity: 1.000000"  d="M 521.500000,352.800000 L 526.500000,352.800000"/>
<text style="font-size: 9.996000; font-family: Bitstream Vera Serif; font-style: Roman; fill: #000000;" x="50.125000" y="356.300000" >0.97</text>
</g>
<g id="ytick3">
<path style="fill: none; stroke: #000000; stroke-width: 0.500000; stroke-linejoin: miter; stroke-linecap: butt;  opacity: 1.000000"  d="M 73.125000,308.700000 L 78.125000,308.700000"/>
<path style="fill: none; stroke: #000000; stroke-width: 0.500000; stroke-linejoin: miter; stroke-linecap: butt;  opacity: 1.000000"  d="M 521.500000,308.700000 L 526.500000,308.700000"/>
<text style="font-size: 9.996000; font-family: Bitstream Vera Serif; font-style: Roman; fill: #000000;" x="50.125000" y="312.200000" >0.98</text>
</g>
<g id="ytick4">
<path style="fill: none; stroke: #000000; stroke-width: 0.500000; stroke-linejoin: miter; stroke-linecap: butt;  opacity: 1.000000"  d="M 73.125000,264.600000 L 78.125000,264.600000"/>
<path style="fill: none; stroke: #000000; stroke-width: 0.500000; stroke-linejoin: miter; stroke-linecap: butt;  opacity: 1.000000"  d="M 521.500000,264.600000 L 526.500000,264.600000"/>
<text style="font-size: 9.996000; font-family: Bitstream Vera Serif; font-style: Roman; fill: #000000;" x="50.125000" y="268.100000" >0.99</text>
</g>
<g id="ytick5">
<path style="fill: none; stroke: #000000; stroke-width: 0.500000; stroke-linejoin: miter; stroke-linecap: butt;  opacity: 1.000000"  d="M 73.125000,220.500000 L 78.125000,220.500000"/>
<path style="fill: none; stroke: #000000; stroke-width: 0.500000; stroke-linejoin: miter; stroke-linecap: butt;  opacity: 1.000000"  d="M 521.500000,220.500000 L 526.500000,220.500000"/>
<text style="font-size: 9.996000; font-family: Bitstream Vera Serif; font-style: Roman; fill: #000000;" x="51.125000" y="224.000000" >1.00</text>
</g>
<g id="ytick6">
<path style="fill: none; stroke: #000000; stroke-width: 0.500000; stroke-linejoin: miter; stroke-linecap: butt;  opacity: 1.000000"  d="M 73.125000,176.400000 L 78.125000,176.400000"/>
<path style="fill: none; stroke: #000000; stroke-width: 0.500000; stroke-linejoin: miter; stroke-linecap: butt;  opacity: 1.000000"  d="M 521.500000,176.400000 L 526.500000,176.400000"/>
<text style="font-size: 9.996000; font-family: Bitstream Vera Serif; font-style: Roman; fill: #000000;" x="52.125000" y="179.900000" >1.01</text>
</g>
<g id="ytick7">
<path style="fill: none; stroke: #000000; stroke-width: 0.500000; stroke-linejoin: miter; stroke-linecap: butt;  opacity: 1.000000"  d="M 73.125000,132.300000 L 78.125000,132.300000"/>
<path style="fill: none; stroke: #000000; stroke-width: 0.500000; stroke-linejoin: miter; stroke-linecap: butt;  opacity: 1.000000"  d="M 521.500000,132.300000 L 526.500000,132.300000"/>
<text style="font-size: 9.996000; font-family: Bitstream Vera Serif; font-style: Roman; fill: #000000;" x="51.125000" y="135.800000" >1.02</text>
</g>
<g id="ytick8">
<path style="fill: none; stroke: #000000; stroke-width: 0.500000; stroke-linejoin: miter; stroke-linecap: butt;  opacity: 1.000000"  d="M 73.125000,88.200000 L 78.125000,88.200000"/>
<path style="fill: none; stroke: #000000; stroke-width: 0.500000; stroke-linejoin: miter; stroke-linecap: butt;  opacity: 1.000000"  d="M 521.500000,88.200000 L 526.500000,88.200000"/>
<text style="font-size: 9.996000; font-family: Bitstream Vera Serif; font-style: Roman; fill: #000000;" x="51.125000" y="91.700000" >1.03</text>
</g>
<g id="ytick9">
<text style="font-size: 9.996000; font-family: Bitstream Vera Serif; font-style: Roman; fill: #000000;" x="51.125000" y="47.600000" >1.04</text>
</g>
</g>
<path style="fill: none; stroke: #000000; stroke-width: 1.000000; stroke-linejoin: miter; stroke-linecap: square;  opacity: 1.000000"  d="M 73.125000,396.900000 L 526.500000,396.900000 L 526.500000,44.100000 L 73.125000,44.100000 L 73.125000,396.900000 "/>
<text style="font-size: 14.400000; font-family: Bitstream Vera Serif; font-style: Roman; fill: #000000;" x="-17.687500" y="37.044000" >Final_4 a_ratio approx vs exact. a=0.1 b=1 B=0.3 gap=0.01, mse1=0.0000, mse2=0.0046</text>
<g id="legend1">
<polygon style="fill: #ffffff; stroke: #000000; stroke-width: 0.500000; stroke-linejoin: miter; stroke-linecap: square;  opacity: 1.000000"  points = "367.989000,94.636320 367.989000,51.156000 517.432500,51.156000 517.432500,94.636320"/>
<path style="fill: none; stroke: #0000ff; stroke-width: 0.500000; stroke-linejoin: miter; stroke-linecap: square;  opacity: 1.000000"  d="M 382.242625,59.779360 L 389.798875,59.779360 L 397.355125,59.779360 L 404.911375,59.779360 "/>
<path style="fill: none; stroke: #008000; stroke-width: 0.500000; stroke-linejoin: miter; stroke-linecap: square;  opacity: 1.000000"  d="M 382.242625,72.896160 L 389.798875,72.896160 L 397.355125,72.896160 L 404.911375,72.896160 "/>
<path style="fill: none; stroke: #ff0000; stroke-width: 0.500000; stroke-linejoin: miter; stroke-linecap: square;  opacity: 1.000000"  d="M 382.242625,86.012960 L 389.798875,86.012960 L 397.355125,86.012960 L 404.911375,86.012960 "/>
<text style="font-size: 9.996000; font-family: Bitstream Vera Serif; font-style: Roman; fill: #000000;" x="413.978875" y="64.779360" >approx_alpha_ratio</text>
<text style="font-size: 9.996000; font-family: Bitstream Vera Serif; font-style: Roman; fill: #000000;" x="413.978875" y="77.896160" >exact_alpha_ratio1</text>
<text style="font-size: 9.996000; font-family: Bitstream Vera Serif; font-style: Roman; fill: #000000;" x="413.978875" y="91.012960" >exact_alpha_ratio2</text>
</g>
</g>
</g>
</svg>
