<?xml version="1.0" standalone="no"?>
<!DOCTYPE svg PUBLIC "-//W3C//DTD SVG 1.1//EN"
  "http://www.w3.org/Graphics/SVG/1.1/DTD/svg11.dtd">
<!-- Created with matplotlib (http://matplotlib.sourceforge.net/) -->
<svg width="585" height="441" viewBox="0 0 585 441"
   xmlns="http://www.w3.org/2000/svg"
   xmlns:xlink="http://www.w3.org/1999/xlink"
   version="1.1"
   id="svg1">
<g id="figure1">
<polygon style="fill: #ffffff; stroke: #ffffff; stroke-width: 1.000000; stroke-linejoin: miter; stroke-linecap: square;  opacity: 1.000000"  points = "0.000000,441.000000 0.000000,0.000000 585.000000,0.000000 585.000000,441.000000"/>
<g id="axes1">
<polygon style="fill: #ffffff; stroke: #000000; stroke-width: 1.000000; stroke-linejoin: miter; stroke-linecap: square;  opacity: 1.000000"  points = "73.125000,396.900000 73.125000,44.100000 526.500000,44.100000 526.500000,396.900000"/>
<defs>
    <clipPath id="7240474723315632415">
    <rect x="73.125000" y="44.100000" width="453.375000" height="352.800000"
    style="stroke: gray; fill: none;"/>
    </clipPath>
</defs>
<path style="fill: none; stroke: #0000ff; stroke-width: 0.500000; stroke-linejoin: miter; stroke-linecap: square;  opacity: 1.000000" clip-path="url(#7240474723315632415)" d="M 73.125000,242.440117 L 73.578375,252.121076 L 74.031750,261.524018 L 74.485125,270.575873 L 74.938500,279.214265 L 75.391875,287.388997 L 75.845250,295.062793 L 76.298625,302.211310 L 76.752000,308.822524 L 77.205375,314.895602 L 77.658750,320.439421 L 78.112125,325.470887 L 78.565500,330.013196 L 79.018875,334.094151 L 79.472250,337.744616 L 79.925625,340.997169 L 80.379000,343.884969 L 80.832375,346.440849 L 81.285750,348.696625 L 81.739125,350.682589 L 82.192500,352.427175 L 82.645875,353.956754 L 83.099250,355.295540 L 83.552625,356.465581 L 84.006000,357.486807 L 84.459375,358.377125 L 84.912750,359.152538 L 85.366125,359.827287 L 85.819500,360.413993 L 86.272875,360.923807 L 86.726250,361.366550 L 87.179625,361.750854 L 87.633000,362.084288 L 88.086375,362.373475 L 88.539750,362.624205 L 88.993125,362.841530 L 89.446500,363.029855 L 89.899875,363.193014 L 90.353250,363.334345 L 90.806625,363.456747 L 91.260000,363.562741 L 91.713375,363.654515 L 92.166750,363.733970 L 92.620125,363.802752 L 93.073500,363.862291 L 93.526875,363.913824 L 93.980250,363.958427 L 94.433625,363.997028 L 94.887000,364.030435 L 95.340375,364.059344 L 95.793750,364.084361 L 96.247125,364.106009 L 96.700500,364.124742 L 97.153875,364.140951 L 97.607250,364.154976 L 98.060625,364.167112 L 98.514000,364.177612 L 98.967375,364.186697 L 99.420750,364.194558 L 99.874125,364.201360 L 100.327500,364.207244 L 100.780875,364.212336 L 101.234250,364.216741 L 101.687625,364.220553 L 102.141000,364.223850 L 102.594375,364.226703 L 103.047750,364.229172 L 103.501125,364.231307 L 103.954500,364.233155 L 104.407875,364.234754 L 104.861250,364.236137 L 105.314625,364.237334 L 105.768000,364.238369 L 106.221375,364.239265 L 106.674750,364.240040 L 107.128125,364.240710 L 107.581500,364.241291 L 108.034875,364.241792 L 108.488250,364.242227 L 108.941625,364.242602 L 109.395000,364.242927 L 109.848375,364.243209 L 110.301750,364.243452 L 110.755125,364.243662 L 111.208500,364.243845 L 111.661875,364.244002 L 112.115250,364.244138 L 112.568625,364.244256 L 113.022000,364.244358 L 113.475375,364.244447 L 113.928750,364.244523 L 114.382125,364.244589 L 114.835500,364.244646 L 115.288875,364.244696 L 115.742250,364.244739 L 116.195625,364.244776 L 116.649000,364.244808 L 117.102375,364.244835 L 117.555750,364.244859 L 118.009125,364.244880 L 118.462500,364.244898 L 118.915875,364.244914 L 119.369250,364.244927 L 119.822625,364.244939 L 120.276000,364.244949 L 120.729375,364.244957 L 121.182750,364.244965 L 121.636125,364.244971 L 122.089500,364.244977 L 122.542875,364.244982 L 122.996250,364.244986 L 123.449625,364.244990 L 123.903000,364.244993 L 124.356375,364.244996 L 124.809750,364.244998 L 125.263125,364.245000 L 125.716500,364.245002 L 126.169875,364.245003 L 126.623250,364.245005 L 127.076625,364.245006 L 127.530000,364.245007 L 127.983375,364.245008 L 128.436750,364.245008 L 128.890125,364.245009 L 129.343500,364.245010 L 129.796875,364.245010 L 130.250250,364.245011 L 130.703625,364.245011 L 131.157000,364.245011 L 131.610375,364.245012 L 132.063750,364.245012 L 132.517125,364.245012 L 132.970500,364.245012 L 133.423875,364.245012 L 133.877250,364.245012 L 134.330625,364.245013 L 134.784000,364.245013 L 135.237375,364.245013 L 135.690750,364.245013 L 136.144125,364.245013 L 136.597500,364.245013 L 137.050875,364.245013 L 137.504250,364.245013 L 137.957625,364.245013 L 138.411000,364.245013 L 138.864375,364.245013 L 139.317750,364.245013 L 139.771125,364.245013 L 140.224500,364.245013 L 140.677875,364.245013 L 141.131250,364.245013 L 141.584625,364.245013 L 142.038000,364.245013 L 142.491375,364.245013 L 142.944750,364.245013 L 143.398125,364.245013 L 143.851500,364.245013 L 144.304875,364.245013 L 144.758250,364.245013 L 145.211625,364.245013 L 145.665000,364.245013 L 146.118375,364.245013 L 146.571750,364.245013 L 147.025125,364.245013 L 147.478500,364.245013 L 147.931875,364.245013 L 148.385250,364.245013 L 148.838625,364.245013 L 149.292000,364.245013 L 149.745375,364.245013 L 150.198750,364.245013 L 150.652125,364.245013 L 151.105500,364.245013 L 151.558875,364.245013 L 152.012250,364.245013 L 152.465625,364.245013 L 152.919000,364.245013 L 153.372375,364.245013 L 153.825750,364.245013 L 154.279125,364.245013 L 154.732500,364.245013 L 155.185875,364.245013 L 155.639250,364.245013 L 156.092625,364.245013 L 156.546000,364.245013 L 156.999375,364.245013 L 157.452750,364.245013 L 157.906125,364.245013 L 158.359500,364.245013 L 158.812875,364.245013 L 159.266250,364.245013 L 159.719625,364.245013 L 160.173000,364.245013 L 160.626375,364.245013 L 161.079750,364.245013 L 161.533125,364.245013 L 161.986500,364.245013 L 162.439875,364.245013 L 162.893250,364.245013 L 163.346625,364.245013 L 163.800000,364.245013 L 164.253375,364.245013 L 164.706750,364.245013 L 165.160125,364.245013 L 165.613500,364.245013 L 166.066875,364.245013 L 166.520250,364.245013 L 166.973625,364.245013 L 167.427000,364.245013 L 167.880375,364.245013 L 168.333750,364.245013 L 168.787125,364.245013 L 169.240500,364.245013 L 169.693875,364.245013 L 170.147250,364.245013 L 170.600625,364.245013 L 171.054000,364.245013 L 171.507375,364.245013 L 171.960750,364.245013 L 172.414125,364.245013 L 172.867500,364.245013 L 173.320875,364.245013 L 173.774250,364.245013 L 174.227625,364.245013 L 174.681000,364.245013 L 175.134375,364.245013 L 175.587750,364.245013 L 176.041125,364.245013 L 176.494500,364.245013 L 176.947875,364.245013 L 177.401250,364.245013 L 177.854625,364.245013 L 178.308000,364.245013 L 178.761375,364.245013 L 179.214750,364.245013 L 179.668125,364.245013 L 180.121500,364.245013 L 180.574875,364.245013 L 181.028250,364.245013 L 181.481625,364.245013 L 181.935000,364.245013 L 182.388375,364.245013 L 182.841750,364.245013 L 183.295125,364.245013 L 183.748500,364.245013 L 184.201875,364.245013 L 184.655250,364.245013 L 185.108625,364.245013 L 185.562000,364.245013 L 186.015375,364.245013 L 186.468750,364.245013 L 186.922125,364.245013 L 187.375500,364.245013 L 187.828875,364.245013 L 188.282250,364.245013 L 188.735625,364.245013 L 189.189000,364.245013 L 189.642375,364.245013 L 190.095750,364.245013 L 190.549125,364.245013 L 191.002500,364.245013 L 191.455875,364.245013 L 191.909250,364.245013 L 192.362625,364.245013 L 192.816000,364.245013 L 193.269375,364.245013 L 193.722750,364.245013 L 194.176125,364.245013 L 194.629500,364.245013 L 195.082875,364.245013 L 195.536250,364.245013 L 195.989625,364.245013 L 196.443000,364.245013 L 196.896375,364.245013 L 197.349750,364.245013 L 197.803125,364.245013 L 198.256500,364.245013 L 198.709875,364.245013 L 199.163250,364.245013 L 199.616625,364.245013 L 200.070000,364.245013 L 200.523375,364.245013 L 200.976750,364.245013 L 201.430125,364.245013 L 201.883500,364.245013 L 202.336875,364.245013 L 202.790250,364.245013 L 203.243625,364.245013 L 203.697000,364.245013 L 204.150375,364.245013 L 204.603750,364.245013 L 205.057125,364.245013 L 205.510500,364.245013 L 205.963875,364.245013 L 206.417250,364.245013 L 206.870625,364.245013 L 207.324000,364.245013 L 207.777375,364.245013 L 208.230750,364.245013 L 208.684125,364.245013 L 209.137500,364.245013 L 209.590875,364.245013 L 210.044250,364.245013 L 210.497625,364.245013 L 210.951000,364.245013 L 211.404375,364.245013 L 211.857750,364.245013 L 212.311125,364.245013 L 212.764500,364.245013 L 213.217875,364.245013 L 213.671250,364.245013 L 214.124625,364.245013 L 214.578000,364.245013 L 215.031375,364.245013 L 215.484750,364.245013 L 215.938125,364.245013 L 216.391500,364.245013 L 216.844875,364.245013 L 217.298250,364.245013 L 217.751625,364.245013 L 218.205000,364.245013 L 218.658375,364.245013 L 219.111750,364.245013 L 219.565125,364.245013 L 220.018500,364.245013 L 220.471875,364.245013 L 220.925250,364.245013 L 221.378625,364.245013 L 221.832000,364.245013 L 222.285375,364.245013 L 222.738750,364.245013 L 223.192125,364.245013 L 223.645500,364.245013 L 224.098875,364.245013 L 224.552250,364.245013 L 225.005625,364.245013 L 225.459000,364.245013 L 225.912375,364.245013 L 226.365750,364.245013 L 226.819125,364.245013 L 227.272500,364.245013 L 227.725875,364.245013 L 228.179250,364.245013 L 228.632625,364.245013 L 229.086000,364.245013 L 229.539375,364.245013 L 229.992750,364.245013 L 230.446125,364.245013 L 230.899500,364.245013 L 231.352875,364.245013 L 231.806250,364.245013 L 232.259625,364.245013 L 232.713000,364.245013 L 233.166375,364.245013 L 233.619750,364.245013 L 234.073125,364.245013 L 234.526500,364.245013 L 234.979875,364.245013 L 235.433250,364.245013 L 235.886625,364.245013 L 236.340000,364.245013 L 236.793375,364.245013 L 237.246750,364.245013 L 237.700125,364.245013 L 238.153500,364.245013 L 238.606875,364.245013 L 239.060250,364.245013 L 239.513625,364.245013 L 239.967000,364.245013 L 240.420375,364.245013 L 240.873750,364.245013 L 241.327125,364.245013 L 241.780500,364.245013 L 242.233875,364.245013 L 242.687250,364.245013 L 243.140625,364.245013 L 243.594000,364.245013 L 244.047375,364.245013 L 244.500750,364.245013 L 244.954125,364.245013 L 245.407500,364.245013 L 245.860875,364.245013 L 246.314250,364.245013 L 246.767625,364.245013 L 247.221000,364.245013 L 247.674375,364.245013 L 248.127750,364.245013 L 248.581125,364.245013 L 249.034500,364.245013 L 249.487875,364.245013 L 249.941250,364.245013 L 250.394625,364.245013 L 250.848000,364.245013 L 251.301375,364.245013 L 251.754750,364.245013 L 252.208125,364.245013 L 252.661500,364.245013 L 253.114875,364.245013 L 253.568250,364.245013 L 254.021625,364.245013 L 254.475000,364.245013 L 254.928375,364.245013 L 255.381750,364.245013 L 255.835125,364.245013 L 256.288500,364.245013 L 256.741875,364.245013 L 257.195250,364.245013 L 257.648625,364.245013 L 258.102000,364.245013 L 258.555375,364.245013 L 259.008750,364.245013 L 259.462125,364.245013 L 259.915500,364.245013 L 260.368875,364.245013 L 260.822250,364.245013 L 261.275625,364.245013 L 261.729000,364.245013 L 262.182375,364.245013 L 262.635750,364.245013 L 263.089125,364.245013 L 263.542500,364.245013 L 263.995875,364.245013 L 264.449250,364.245013 L 264.902625,364.245013 L 265.356000,364.245013 L 265.809375,364.245013 L 266.262750,364.245013 L 266.716125,364.245013 L 267.169500,364.245013 L 267.622875,364.245013 L 268.076250,364.245013 L 268.529625,364.245013 L 268.983000,364.245013 L 269.436375,364.245013 L 269.889750,364.245013 L 270.343125,364.245013 L 270.796500,364.245013 L 271.249875,364.245013 L 271.703250,364.245013 L 272.156625,364.245013 L 272.610000,364.245013 L 273.063375,364.245013 L 273.516750,364.245013 L 273.970125,364.245013 L 274.423500,364.245013 L 274.876875,364.245013 L 275.330250,364.245013 L 275.783625,364.245013 L 276.237000,364.245013 L 276.690375,364.245013 L 277.143750,364.245013 L 277.597125,364.245013 L 278.050500,364.245013 L 278.503875,364.245013 L 278.957250,364.245013 L 279.410625,364.245013 L 279.864000,364.245013 L 280.317375,364.245013 L 280.770750,364.245013 L 281.224125,364.245013 L 281.677500,364.245013 L 282.130875,364.245013 L 282.584250,364.245013 L 283.037625,364.245013 L 283.491000,364.245013 L 283.944375,364.245013 L 284.397750,364.245013 L 284.851125,364.245013 L 285.304500,364.245013 L 285.757875,364.245013 L 286.211250,364.245013 L 286.664625,364.245013 L 287.118000,364.245013 L 287.571375,364.245013 L 288.024750,364.245013 L 288.478125,364.245013 L 288.931500,364.245013 L 289.384875,364.245013 L 289.838250,364.245013 L 290.291625,364.245013 L 290.745000,364.245013 L 291.198375,364.245013 L 291.651750,364.245013 L 292.105125,364.245013 L 292.558500,364.245013 L 293.011875,364.245013 L 293.465250,364.245013 L 293.918625,364.245013 L 294.372000,364.245013 L 294.825375,364.245013 L 295.278750,364.245013 L 295.732125,364.245013 L 296.185500,364.245013 L 296.638875,364.245013 L 297.092250,364.245013 L 297.545625,364.245013 L 297.999000,364.245013 L 298.452375,364.245013 L 298.905750,364.245013 L 299.359125,364.245013 L 299.812500,364.245013 L 300.265875,364.245013 L 300.719250,364.245013 L 301.172625,364.245013 L 301.626000,364.245013 L 302.079375,364.245013 L 302.532750,364.245013 L 302.986125,364.245013 L 303.439500,364.245013 L 303.892875,364.245013 L 304.346250,364.245013 L 304.799625,364.245013 L 305.253000,364.245013 L 305.706375,364.245013 L 306.159750,364.245013 L 306.613125,364.245013 L 307.066500,364.245013 L 307.519875,364.245013 L 307.973250,364.245013 L 308.426625,364.245013 L 308.880000,364.245013 L 309.333375,364.245013 L 309.786750,364.245013 L 310.240125,364.245013 L 310.693500,364.245013 L 311.146875,364.245013 L 311.600250,364.245013 L 312.053625,364.245013 L 312.507000,364.245013 L 312.960375,364.245013 L 313.413750,364.245013 L 313.867125,364.245013 L 314.320500,364.245013 L 314.773875,364.245013 L 315.227250,364.245013 L 315.680625,364.245013 L 316.134000,364.245013 L 316.587375,364.245013 L 317.040750,364.245013 L 317.494125,364.245013 L 317.947500,364.245013 L 318.400875,364.245013 L 318.854250,364.245013 L 319.307625,364.245013 L 319.761000,364.245013 L 320.214375,364.245013 L 320.667750,364.245013 L 321.121125,364.245013 L 321.574500,364.245013 L 322.027875,364.245013 L 322.481250,364.245013 L 322.934625,364.245013 L 323.388000,364.245013 L 323.841375,364.245013 L 324.294750,364.245013 L 324.748125,364.245013 L 325.201500,364.245013 L 325.654875,364.245013 L 326.108250,364.245013 L 326.561625,364.245013 L 327.015000,364.245013 L 327.468375,364.245013 L 327.921750,364.245013 L 328.375125,364.245013 L 328.828500,364.245013 L 329.281875,364.245013 L 329.735250,364.245013 L 330.188625,364.245013 L 330.642000,364.245013 L 331.095375,364.245013 L 331.548750,364.245013 L 332.002125,364.245013 L 332.455500,364.245013 L 332.908875,364.245013 L 333.362250,364.245013 L 333.815625,364.245013 L 334.269000,364.245013 L 334.722375,364.245013 L 335.175750,364.245013 L 335.629125,364.245013 L 336.082500,364.245013 L 336.535875,364.245013 L 336.989250,364.245013 L 337.442625,364.245013 L 337.896000,364.245013 L 338.349375,364.245013 L 338.802750,364.245013 L 339.256125,364.245013 L 339.709500,364.245013 L 340.162875,364.245013 L 340.616250,364.245013 L 341.069625,364.245013 L 341.523000,364.245013 L 341.976375,364.245013 L 342.429750,364.245013 L 342.883125,364.245013 L 343.336500,364.245013 L 343.789875,364.245013 L 344.243250,364.245013 L 344.696625,364.245013 L 345.150000,364.245013 L 345.603375,364.245013 L 346.056750,364.245013 L 346.510125,364.245013 L 346.963500,364.245013 L 347.416875,364.245013 L 347.870250,364.245013 L 348.323625,364.245013 L 348.777000,364.245013 L 349.230375,364.245013 L 349.683750,364.245013 L 350.137125,364.245013 L 350.590500,364.245013 L 351.043875,364.245013 L 351.497250,364.245013 L 351.950625,364.245013 L 352.404000,364.245013 L 352.857375,364.245013 L 353.310750,364.245013 L 353.764125,364.245013 L 354.217500,364.245013 L 354.670875,364.245013 L 355.124250,364.245013 L 355.577625,364.245013 L 356.031000,364.245013 L 356.484375,364.245013 L 356.937750,364.245013 L 357.391125,364.245013 L 357.844500,364.245013 L 358.297875,364.245013 L 358.751250,364.245013 L 359.204625,364.245013 L 359.658000,364.245013 L 360.111375,364.245013 L 360.564750,364.245013 L 361.018125,364.245013 L 361.471500,364.245013 L 361.924875,364.245013 L 362.378250,364.245013 L 362.831625,364.245013 L 363.285000,364.245013 L 363.738375,364.245013 L 364.191750,364.245013 L 364.645125,364.245013 L 365.098500,364.245013 L 365.551875,364.245013 L 366.005250,364.245013 L 366.458625,364.245013 L 366.912000,364.245013 L 367.365375,364.245013 L 367.818750,364.245013 L 368.272125,364.245013 L 368.725500,364.245013 L 369.178875,364.245013 L 369.632250,364.245013 L 370.085625,364.245013 L 370.539000,364.245013 L 370.992375,364.245013 L 371.445750,364.245013 L 371.899125,364.245013 L 372.352500,364.245013 L 372.805875,364.245013 L 373.259250,364.245013 L 373.712625,364.245013 L 374.166000,364.245013 L 374.619375,364.245013 L 375.072750,364.245013 L 375.526125,364.245013 L 375.979500,364.245013 L 376.432875,364.245013 L 376.886250,364.245013 L 377.339625,364.245013 L 377.793000,364.245013 L 378.246375,364.245013 L 378.699750,364.245013 L 379.153125,364.245013 L 379.606500,364.245013 L 380.059875,364.245013 L 380.513250,364.245013 L 380.966625,364.245013 L 381.420000,364.245013 L 381.873375,364.245013 L 382.326750,364.245013 L 382.780125,364.245013 L 383.233500,364.245013 L 383.686875,364.245013 L 384.140250,364.245013 L 384.593625,364.245013 L 385.047000,364.245013 L 385.500375,364.245013 L 385.953750,364.245013 L 386.407125,364.245013 L 386.860500,364.245013 L 387.313875,364.245013 L 387.767250,364.245013 L 388.220625,364.245013 L 388.674000,364.245013 L 389.127375,364.245013 L 389.580750,364.245013 L 390.034125,364.245013 L 390.487500,364.245013 L 390.940875,364.245013 L 391.394250,364.245013 L 391.847625,364.245013 L 392.301000,364.245013 L 392.754375,364.245013 L 393.207750,364.245013 L 393.661125,364.245013 L 394.114500,364.245013 L 394.567875,364.245013 L 395.021250,364.245013 L 395.474625,364.245013 L 395.928000,364.245013 L 396.381375,364.245013 L 396.834750,364.245013 L 397.288125,364.245013 L 397.741500,364.245013 L 398.194875,364.245013 L 398.648250,364.245013 L 399.101625,364.245013 L 399.555000,364.245013 L 400.008375,364.245013 L 400.461750,364.245013 L 400.915125,364.245013 L 401.368500,364.245013 L 401.821875,364.245013 L 402.275250,364.245013 L 402.728625,364.245013 L 403.182000,364.245013 L 403.635375,364.245013 L 404.088750,364.245013 L 404.542125,364.245013 L 404.995500,364.245013 L 405.448875,364.245013 L 405.902250,364.245013 L 406.355625,364.245013 L 406.809000,364.245013 L 407.262375,364.245013 L 407.715750,364.245013 L 408.169125,364.245013 L 408.622500,364.245013 L 409.075875,364.245013 L 409.529250,364.245013 L 409.982625,364.245013 L 410.436000,364.245013 L 410.889375,364.245013 L 411.342750,364.245013 L 411.796125,364.245013 L 412.249500,364.245013 L 412.702875,364.245013 L 413.156250,364.245013 L 413.609625,364.245013 L 414.063000,364.245013 L 414.516375,364.245013 L 414.969750,364.245013 L 415.423125,364.245013 L 415.876500,364.245013 L 416.329875,364.245013 L 416.783250,364.245013 L 417.236625,364.245013 L 417.690000,364.245013 L 418.143375,364.245013 L 418.596750,364.245013 L 419.050125,364.245013 L 419.503500,364.245013 L 419.956875,364.245013 L 420.410250,364.245013 L 420.863625,364.245013 L 421.317000,364.245013 L 421.770375,364.245013 L 422.223750,364.245013 L 422.677125,364.245013 L 423.130500,364.245013 L 423.583875,364.245013 L 424.037250,364.245013 L 424.490625,364.245013 L 424.944000,364.245013 L 425.397375,364.245013 L 425.850750,364.245013 L 426.304125,364.245013 L 426.757500,364.245013 L 427.210875,364.245013 L 427.664250,364.245013 L 428.117625,364.245013 L 428.571000,364.245013 L 429.024375,364.245013 L 429.477750,364.245013 L 429.931125,364.245013 L 430.384500,364.245013 L 430.837875,364.245013 L 431.291250,364.245013 L 431.744625,364.245013 L 432.198000,364.245013 L 432.651375,364.245013 L 433.104750,364.245013 L 433.558125,364.245013 L 434.011500,364.245013 L 434.464875,364.245013 L 434.918250,364.245013 L 435.371625,364.245013 L 435.825000,364.245013 L 436.278375,364.245013 L 436.731750,364.245013 L 437.185125,364.245013 L 437.638500,364.245013 L 438.091875,364.245013 L 438.545250,364.245013 L 438.998625,364.245013 L 439.452000,364.245013 L 439.905375,364.245013 L 440.358750,364.245013 L 440.812125,364.245013 L 441.265500,364.245013 L 441.718875,364.245013 L 442.172250,364.245013 L 442.625625,364.245013 L 443.079000,364.245013 L 443.532375,364.245013 L 443.985750,364.245013 L 444.439125,364.245013 L 444.892500,364.245013 L 445.345875,364.245013 L 445.799250,364.245013 L 446.252625,364.245013 L 446.706000,364.245013 L 447.159375,364.245013 L 447.612750,364.245013 L 448.066125,364.245013 L 448.519500,364.245013 L 448.972875,364.245013 L 449.426250,364.245013 L 449.879625,364.245013 L 450.333000,364.245013 L 450.786375,364.245013 L 451.239750,364.245013 L 451.693125,364.245013 L 452.146500,364.245013 L 452.599875,364.245013 L 453.053250,364.245013 L 453.506625,364.245013 L 453.960000,364.245013 L 454.413375,364.245013 L 454.866750,364.245013 L 455.320125,364.245013 L 455.773500,364.245013 L 456.226875,364.245013 L 456.680250,364.245013 L 457.133625,364.245013 L 457.587000,364.245013 L 458.040375,364.245013 L 458.493750,364.245013 L 458.947125,364.245013 L 459.400500,364.245013 L 459.853875,364.245013 L 460.307250,364.245013 L 460.760625,364.245013 L 461.214000,364.245013 L 461.667375,364.245013 L 462.120750,364.245013 L 462.574125,364.245013 L 463.027500,364.245013 L 463.480875,364.245013 L 463.934250,364.245013 L 464.387625,364.245013 L 464.841000,364.245013 L 465.294375,364.245013 L 465.747750,364.245013 L 466.201125,364.245013 L 466.654500,364.245013 L 467.107875,364.245013 L 467.561250,364.245013 L 468.014625,364.245013 L 468.468000,364.245013 L 468.921375,364.245013 L 469.374750,364.245013 L 469.828125,364.245013 L 470.281500,364.245013 L 470.734875,364.245013 L 471.188250,364.245013 L 471.641625,364.245013 L 472.095000,364.245013 L 472.548375,364.245013 L 473.001750,364.245013 L 473.455125,364.245013 L 473.908500,364.245013 L 474.361875,364.245013 L 474.815250,364.245013 L 475.268625,364.245013 L 475.722000,364.245013 L 476.175375,364.245013 L 476.628750,364.245013 L 477.082125,364.245013 L 477.535500,364.245013 L 477.988875,364.245013 L 478.442250,364.245013 L 478.895625,364.245013 L 479.349000,364.245013 L 479.802375,364.245013 L 480.255750,364.245013 L 480.709125,364.245013 L 481.162500,364.245013 L 481.615875,364.245013 L 482.069250,364.245013 L 482.522625,364.245013 L 482.976000,364.245013 L 483.429375,364.245013 L 483.882750,364.245013 L 484.336125,364.245013 L 484.789500,364.245013 L 485.242875,364.245013 L 485.696250,364.245013 L 486.149625,364.245013 L 486.603000,364.245013 L 487.056375,364.245013 L 487.509750,364.245013 L 487.963125,364.245013 L 488.416500,364.245013 L 488.869875,364.245013 L 489.323250,364.245013 L 489.776625,364.245013 L 490.230000,364.245013 L 490.683375,364.245013 L 491.136750,364.245013 L 491.590125,364.245013 L 492.043500,364.245013 L 492.496875,364.245013 L 492.950250,364.245013 L 493.403625,364.245013 L 493.857000,364.245013 L 494.310375,364.245013 L 494.763750,364.245013 L 495.217125,364.245013 L 495.670500,364.245013 L 496.123875,364.245013 L 496.577250,364.245013 L 497.030625,364.245013 L 497.484000,364.245013 L 497.937375,364.245013 L 498.390750,364.245013 L 498.844125,364.245013 L 499.297500,364.245013 L 499.750875,364.245013 L 500.204250,364.245013 L 500.657625,364.245013 L 501.111000,364.245013 L 501.564375,364.245013 L 502.017750,364.245013 L 502.471125,364.245013 L 502.924500,364.245013 L 503.377875,364.245013 L 503.831250,364.245013 L 504.284625,364.245013 L 504.738000,364.245013 L 505.191375,364.245013 L 505.644750,364.245013 L 506.098125,364.245013 L 506.551500,364.245013 L 507.004875,364.245013 L 507.458250,364.245013 L 507.911625,364.245013 L 508.365000,364.245013 L 508.818375,364.245013 L 509.271750,364.245013 L 509.725125,364.245013 L 510.178500,364.245013 L 510.631875,364.245013 L 511.085250,364.245013 L 511.538625,364.245013 L 511.992000,364.245013 L 512.445375,364.245013 L 512.898750,364.245013 L 513.352125,364.245013 L 513.805500,364.245013 L 514.258875,364.245013 L 514.712250,364.245013 L 515.165625,364.245013 L 515.619000,364.245013 L 516.072375,364.245013 L 516.525750,364.245013 L 516.979125,364.245013 L 517.432500,364.245013 L 517.885875,364.245013 L 518.339250,364.245013 L 518.792625,364.245013 L 519.246000,364.245013 L 519.699375,364.245013 L 520.152750,364.245013 L 520.606125,364.245013 L 521.059500,364.245013 L 521.512875,364.245013 L 521.966250,364.245013 L 522.419625,364.245013 L 522.873000,364.245013 L 523.326375,364.245013 L 523.779750,364.245013 L 524.233125,364.245013 L 524.686500,364.245013 L 525.139875,364.245013 L 525.593250,364.245013 L 526.046625,364.245013 "/>
<path style="fill: none; stroke: #008000; stroke-width: 0.500000; stroke-linejoin: miter; stroke-linecap: square;  opacity: 1.000000" clip-path="url(#7240474723315632415)" d="M 73.125000,362.715609 L 73.578375,362.715609 L 74.031750,362.715609 L 74.485125,362.715609 L 74.938500,362.715609 L 75.391875,362.715609 L 75.845250,362.715609 L 76.298625,362.715609 L 76.752000,362.715609 L 77.205375,362.715609 L 77.658750,362.715609 L 78.112125,362.715609 L 78.565500,362.715609 L 79.018875,362.715609 L 79.472250,362.715609 L 79.925625,362.715609 L 80.379000,362.715609 L 80.832375,362.715609 L 81.285750,362.715609 L 81.739125,362.715609 L 82.192500,362.715609 L 82.645875,362.715609 L 83.099250,362.715609 L 83.552625,362.715609 L 84.006000,362.715609 L 84.459375,362.715609 L 84.912750,362.715609 L 85.366125,362.715609 L 85.819500,362.715609 L 86.272875,362.715609 L 86.726250,362.715609 L 87.179625,362.715609 L 87.633000,362.715609 L 88.086375,362.715609 L 88.539750,362.715609 L 88.993125,362.715609 L 89.446500,362.715609 L 89.899875,362.715609 L 90.353250,362.715609 L 90.806625,362.715609 L 91.260000,362.715609 L 91.713375,362.715609 L 92.166750,362.715609 L 92.620125,362.715609 L 93.073500,362.715609 L 93.526875,362.715609 L 93.980250,362.715609 L 94.433625,362.715609 L 94.887000,362.715609 L 95.340375,362.715609 L 95.793750,362.715609 L 96.247125,362.715609 L 96.700500,362.715609 L 97.153875,362.715609 L 97.607250,362.715609 L 98.060625,362.715609 L 98.514000,362.715609 L 98.967375,362.715609 L 99.420750,362.715609 L 99.874125,362.715609 L 100.327500,362.715609 L 100.780875,362.715609 L 101.234250,362.715609 L 101.687625,362.715609 L 102.141000,362.715609 L 102.594375,362.715609 L 103.047750,362.715609 L 103.501125,362.715609 L 103.954500,362.715609 L 104.407875,362.715609 L 104.861250,362.715609 L 105.314625,362.715609 L 105.768000,362.715609 L 106.221375,362.715609 L 106.674750,362.715609 L 107.128125,362.715609 L 107.581500,362.715609 L 108.034875,362.715609 L 108.488250,362.715609 L 108.941625,362.715609 L 109.395000,362.715609 L 109.848375,362.715609 L 110.301750,362.715609 L 110.755125,362.715609 L 111.208500,362.715609 L 111.661875,362.715609 L 112.115250,362.715609 L 112.568625,362.715609 L 113.022000,362.715609 L 113.475375,362.715609 L 113.928750,362.715609 L 114.382125,362.715609 L 114.835500,362.715609 L 115.288875,362.715609 L 115.742250,362.715609 L 116.195625,362.715609 L 116.649000,362.715609 L 117.102375,362.715609 L 117.555750,362.715609 L 118.009125,362.715609 L 118.462500,362.715609 L 118.915875,362.715609 L 119.369250,362.715609 L 119.822625,362.715609 L 120.276000,362.715609 L 120.729375,362.715609 L 121.182750,362.715609 L 121.636125,362.715609 L 122.089500,362.715609 L 122.542875,362.715609 L 122.996250,362.715609 L 123.449625,362.715609 L 123.903000,362.715609 L 124.356375,362.715609 L 124.809750,362.715609 L 125.263125,362.715609 L 125.716500,362.715609 L 126.169875,362.715609 L 126.623250,362.715609 L 127.076625,362.715609 L 127.530000,362.715609 L 127.983375,362.715609 L 128.436750,362.715609 L 128.890125,362.715609 L 129.343500,362.715609 L 129.796875,362.715609 L 130.250250,362.715609 L 130.703625,362.715609 L 131.157000,362.715609 L 131.610375,362.715609 L 132.063750,362.715609 L 132.517125,362.715609 L 132.970500,362.715609 L 133.423875,362.715609 L 133.877250,362.715609 L 134.330625,362.715609 L 134.784000,362.715609 L 135.237375,362.715609 L 135.690750,362.715609 L 136.144125,362.715609 L 136.597500,362.715609 L 137.050875,362.715609 L 137.504250,362.715609 L 137.957625,362.715609 L 138.411000,362.715609 L 138.864375,362.715609 L 139.317750,362.715609 L 139.771125,362.715609 L 140.224500,362.715609 L 140.677875,362.715609 L 141.131250,362.715609 L 141.584625,362.715609 L 142.038000,362.715609 L 142.491375,362.715609 L 142.944750,362.715609 L 143.398125,362.715609 L 143.851500,362.715609 L 144.304875,362.715609 L 144.758250,362.715609 L 145.211625,362.715609 L 145.665000,362.715609 L 146.118375,362.715609 L 146.571750,362.715609 L 147.025125,362.715609 L 147.478500,362.715609 L 147.931875,362.715609 L 148.385250,362.715609 L 148.838625,362.715609 L 149.292000,362.715609 L 149.745375,362.715609 L 150.198750,362.715609 L 150.652125,362.715609 L 151.105500,362.715609 L 151.558875,362.715609 L 152.012250,362.715609 L 152.465625,362.715609 L 152.919000,362.715609 L 153.372375,362.715609 L 153.825750,362.715609 L 154.279125,362.715609 L 154.732500,362.715609 L 155.185875,362.715609 L 155.639250,362.715609 L 156.092625,362.715609 L 156.546000,362.715609 L 156.999375,362.715609 L 157.452750,362.715609 L 157.906125,362.715609 L 158.359500,362.715609 L 158.812875,362.715609 L 159.266250,362.715609 L 159.719625,362.715609 L 160.173000,362.715609 L 160.626375,362.715609 L 161.079750,362.715609 L 161.533125,362.715609 L 161.986500,362.715609 L 162.439875,362.715609 L 162.893250,362.715609 L 163.346625,362.715609 L 163.800000,362.715609 L 164.253375,362.715609 L 164.706750,362.715609 L 165.160125,362.715609 L 165.613500,362.715609 L 166.066875,362.715609 L 166.520250,362.715609 L 166.973625,362.715609 L 167.427000,362.715609 L 167.880375,362.715609 L 168.333750,362.715609 L 168.787125,362.715609 L 169.240500,362.715609 L 169.693875,362.715609 L 170.147250,362.715609 L 170.600625,362.715609 L 171.054000,362.715609 L 171.507375,362.715609 L 171.960750,362.715609 L 172.414125,362.715609 L 172.867500,362.715609 L 173.320875,362.715609 L 173.774250,362.715609 L 174.227625,362.715609 L 174.681000,362.715609 L 175.134375,362.715609 L 175.587750,362.715609 L 176.041125,362.715609 L 176.494500,362.715609 L 176.947875,362.715609 L 177.401250,362.715609 L 177.854625,362.715609 L 178.308000,362.715609 L 178.761375,362.715609 L 179.214750,362.715609 L 179.668125,362.715609 L 180.121500,362.715609 L 180.574875,362.715609 L 181.028250,362.715609 L 181.481625,362.715609 L 181.935000,362.715609 L 182.388375,362.715609 L 182.841750,362.715609 L 183.295125,362.715609 L 183.748500,362.715609 L 184.201875,362.715609 L 184.655250,362.715609 L 185.108625,362.715609 L 185.562000,362.715609 L 186.015375,362.715609 L 186.468750,362.715609 L 186.922125,362.715609 L 187.375500,362.715609 L 187.828875,362.715609 L 188.282250,362.715609 L 188.735625,362.715609 L 189.189000,362.715609 L 189.642375,362.715609 L 190.095750,362.715609 L 190.549125,362.715609 L 191.002500,362.715609 L 191.455875,362.715609 L 191.909250,362.715609 L 192.362625,362.715609 L 192.816000,362.715609 L 193.269375,362.715609 L 193.722750,362.715609 L 194.176125,362.715609 L 194.629500,362.715609 L 195.082875,362.715609 L 195.536250,362.715609 L 195.989625,362.715609 L 196.443000,362.715609 L 196.896375,362.715609 L 197.349750,362.715609 L 197.803125,362.715609 L 198.256500,362.715609 L 198.709875,362.715609 L 199.163250,362.715609 L 199.616625,362.715609 L 200.070000,362.715609 L 200.523375,362.715609 L 200.976750,362.715609 L 201.430125,362.715609 L 201.883500,362.715609 L 202.336875,362.715609 L 202.790250,362.715609 L 203.243625,362.715609 L 203.697000,362.715609 L 204.150375,362.715609 L 204.603750,362.715609 L 205.057125,362.715609 L 205.510500,362.715609 L 205.963875,362.715609 L 206.417250,362.715609 L 206.870625,362.715609 L 207.324000,362.715609 L 207.777375,362.715609 L 208.230750,362.715609 L 208.684125,362.715609 L 209.137500,362.715609 L 209.590875,362.715609 L 210.044250,362.715609 L 210.497625,362.715609 L 210.951000,362.715609 L 211.404375,362.715609 L 211.857750,362.715609 L 212.311125,362.715609 L 212.764500,362.715609 L 213.217875,362.715609 L 213.671250,362.715609 L 214.124625,362.715609 L 214.578000,362.715609 L 215.031375,362.715609 L 215.484750,362.715609 L 215.938125,362.715609 L 216.391500,362.715609 L 216.844875,362.715609 L 217.298250,362.715609 L 217.751625,362.715609 L 218.205000,362.715609 L 218.658375,362.715609 L 219.111750,362.715609 L 219.565125,362.715609 L 220.018500,362.715609 L 220.471875,362.715609 L 220.925250,362.715609 L 221.378625,362.715609 L 221.832000,362.715609 L 222.285375,362.715609 L 222.738750,362.715609 L 223.192125,362.715609 L 223.645500,362.715609 L 224.098875,362.715609 L 224.552250,362.715609 L 225.005625,362.715609 L 225.459000,362.715609 L 225.912375,362.715609 L 226.365750,362.715609 L 226.819125,362.715609 L 227.272500,362.715609 L 227.725875,362.715609 L 228.179250,362.715609 L 228.632625,362.715609 L 229.086000,362.715609 L 229.539375,362.715609 L 229.992750,362.715609 L 230.446125,362.715609 L 230.899500,362.715609 L 231.352875,362.715609 L 231.806250,362.715609 L 232.259625,362.715609 L 232.713000,362.715609 L 233.166375,362.715609 L 233.619750,362.715609 L 234.073125,362.715609 L 234.526500,362.715609 L 234.979875,362.715609 L 235.433250,362.715609 L 235.886625,362.715609 L 236.340000,362.715609 L 236.793375,362.715609 L 237.246750,362.715609 L 237.700125,362.715609 L 238.153500,362.715609 L 238.606875,362.715609 L 239.060250,362.715609 L 239.513625,362.715609 L 239.967000,362.715609 L 240.420375,362.715609 L 240.873750,362.715609 L 241.327125,362.715609 L 241.780500,362.715609 L 242.233875,362.715609 L 242.687250,362.715609 L 243.140625,362.715609 L 243.594000,362.715609 L 244.047375,362.715609 L 244.500750,362.715609 L 244.954125,362.715609 L 245.407500,362.715609 L 245.860875,362.715609 L 246.314250,362.715609 L 246.767625,362.715609 L 247.221000,362.715609 L 247.674375,362.715609 L 248.127750,362.715609 L 248.581125,362.715609 L 249.034500,362.715609 L 249.487875,362.715609 L 249.941250,362.715609 L 250.394625,362.715609 L 250.848000,362.715609 L 251.301375,362.715609 L 251.754750,362.715609 L 252.208125,362.715609 L 252.661500,362.715609 L 253.114875,362.715609 L 253.568250,362.715609 L 254.021625,362.715609 L 254.475000,362.715609 L 254.928375,362.715609 L 255.381750,362.715609 L 255.835125,362.715609 L 256.288500,362.715609 L 256.741875,362.715609 L 257.195250,362.715609 L 257.648625,362.715609 L 258.102000,362.715609 L 258.555375,362.715609 L 259.008750,362.715609 L 259.462125,362.715609 L 259.915500,362.715609 L 260.368875,362.715609 L 260.822250,362.715609 L 261.275625,362.715609 L 261.729000,362.715609 L 262.182375,362.715609 L 262.635750,362.715609 L 263.089125,362.715609 L 263.542500,362.715609 L 263.995875,362.715609 L 264.449250,362.715609 L 264.902625,362.715609 L 265.356000,362.715609 L 265.809375,362.715609 L 266.262750,362.715609 L 266.716125,362.715609 L 267.169500,362.715609 L 267.622875,362.715609 L 268.076250,362.715609 L 268.529625,362.715609 L 268.983000,362.715609 L 269.436375,362.715609 L 269.889750,362.715609 L 270.343125,362.715609 L 270.796500,362.715609 L 271.249875,362.715609 L 271.703250,362.715609 L 272.156625,362.715609 L 272.610000,362.715609 L 273.063375,362.715609 L 273.516750,362.715609 L 273.970125,362.715609 L 274.423500,362.715609 L 274.876875,362.715609 L 275.330250,362.715609 L 275.783625,362.715609 L 276.237000,362.715609 L 276.690375,362.715609 L 277.143750,362.715609 L 277.597125,362.715609 L 278.050500,362.715609 L 278.503875,362.715609 L 278.957250,362.715609 L 279.410625,362.715609 L 279.864000,362.715609 L 280.317375,362.715609 L 280.770750,362.715609 L 281.224125,362.715609 L 281.677500,362.715609 L 282.130875,362.715609 L 282.584250,362.715609 L 283.037625,362.715609 L 283.491000,362.715609 L 283.944375,362.715609 L 284.397750,362.715609 L 284.851125,362.715609 L 285.304500,362.715609 L 285.757875,362.715609 L 286.211250,362.715609 L 286.664625,362.715609 L 287.118000,362.715609 L 287.571375,362.715609 L 288.024750,362.715609 L 288.478125,362.715609 L 288.931500,362.715609 L 289.384875,362.715609 L 289.838250,362.715609 L 290.291625,362.715609 L 290.745000,362.715609 L 291.198375,362.715609 L 291.651750,362.715609 L 292.105125,362.715609 L 292.558500,362.715609 L 293.011875,362.715609 L 293.465250,362.715609 L 293.918625,362.715609 L 294.372000,362.715609 L 294.825375,362.715609 L 295.278750,362.715609 L 295.732125,362.715609 L 296.185500,362.715609 L 296.638875,362.715609 L 297.092250,362.715609 L 297.545625,362.715609 L 297.999000,362.715609 L 298.452375,362.715609 L 298.905750,362.715609 L 299.359125,362.715609 L 299.812500,362.715609 L 300.265875,362.715609 L 300.719250,362.715609 L 301.172625,362.715609 L 301.626000,362.715609 L 302.079375,362.715609 L 302.532750,362.715609 L 302.986125,362.715609 L 303.439500,362.715609 L 303.892875,362.715609 L 304.346250,362.715609 L 304.799625,362.715609 L 305.253000,362.715609 L 305.706375,362.715609 L 306.159750,362.715609 L 306.613125,362.715609 L 307.066500,362.715609 L 307.519875,362.715609 L 307.973250,362.715609 L 308.426625,362.715609 L 308.880000,362.715609 L 309.333375,362.715609 L 309.786750,362.715609 L 310.240125,362.715609 L 310.693500,362.715609 L 311.146875,362.715609 L 311.600250,362.715609 L 312.053625,362.715609 L 312.507000,362.715609 L 312.960375,362.715609 L 313.413750,362.715609 L 313.867125,362.715609 L 314.320500,362.715609 L 314.773875,362.715609 L 315.227250,362.715609 L 315.680625,362.715609 L 316.134000,362.715609 L 316.587375,362.715609 L 317.040750,362.715609 L 317.494125,362.715609 L 317.947500,362.715609 L 318.400875,362.715609 L 318.854250,362.715609 L 319.307625,362.715609 L 319.761000,362.715609 L 320.214375,362.715609 L 320.667750,362.715609 L 321.121125,362.715609 L 321.574500,362.715609 L 322.027875,362.715609 L 322.481250,362.715609 L 322.934625,362.715609 L 323.388000,362.715609 L 323.841375,362.715609 L 324.294750,362.715609 L 324.748125,362.715609 L 325.201500,362.715609 L 325.654875,362.715609 L 326.108250,362.715609 L 326.561625,362.715609 L 327.015000,362.715609 L 327.468375,362.715609 L 327.921750,362.715609 L 328.375125,362.715609 L 328.828500,362.715609 L 329.281875,362.715609 L 329.735250,362.715609 L 330.188625,362.715609 L 330.642000,362.715609 L 331.095375,362.715609 L 331.548750,362.715609 L 332.002125,362.715609 L 332.455500,362.715609 L 332.908875,362.715609 L 333.362250,362.715609 L 333.815625,362.715609 L 334.269000,362.715609 L 334.722375,362.715609 L 335.175750,362.715609 L 335.629125,362.715609 L 336.082500,362.715609 L 336.535875,362.715609 L 336.989250,362.715609 L 337.442625,362.715609 L 337.896000,362.715609 L 338.349375,362.715609 L 338.802750,362.715609 L 339.256125,362.715609 L 339.709500,362.715609 L 340.162875,362.715609 L 340.616250,362.715609 L 341.069625,362.715609 L 341.523000,362.715609 L 341.976375,362.715609 L 342.429750,362.715609 L 342.883125,362.715609 L 343.336500,362.715609 L 343.789875,362.715609 L 344.243250,362.715609 L 344.696625,362.715609 L 345.150000,362.715609 L 345.603375,362.715609 L 346.056750,362.715609 L 346.510125,362.715609 L 346.963500,362.715609 L 347.416875,362.715609 L 347.870250,362.715609 L 348.323625,362.715609 L 348.777000,362.715609 L 349.230375,362.715609 L 349.683750,362.715609 L 350.137125,362.715609 L 350.590500,362.715609 L 351.043875,362.715609 L 351.497250,362.715609 L 351.950625,362.715609 L 352.404000,362.715609 L 352.857375,362.715609 L 353.310750,362.715609 L 353.764125,362.715609 L 354.217500,362.715609 L 354.670875,362.715609 L 355.124250,362.715609 L 355.577625,362.715609 L 356.031000,362.715609 L 356.484375,362.715609 L 356.937750,362.715609 L 357.391125,362.715609 L 357.844500,362.715609 L 358.297875,362.715609 L 358.751250,362.715609 L 359.204625,362.715609 L 359.658000,362.715609 L 360.111375,362.715609 L 360.564750,362.715609 L 361.018125,362.715609 L 361.471500,362.715609 L 361.924875,362.715609 L 362.378250,362.715609 L 362.831625,362.715609 L 363.285000,362.715609 L 363.738375,362.715609 L 364.191750,362.715609 L 364.645125,362.715609 L 365.098500,362.715609 L 365.551875,362.715609 L 366.005250,362.715609 L 366.458625,362.715609 L 366.912000,362.715609 L 367.365375,362.715609 L 367.818750,362.715609 L 368.272125,362.715609 L 368.725500,362.715609 L 369.178875,362.715609 L 369.632250,362.715609 L 370.085625,362.715609 L 370.539000,362.715609 L 370.992375,362.715609 L 371.445750,362.715609 L 371.899125,362.715609 L 372.352500,362.715609 L 372.805875,362.715609 L 373.259250,362.715609 L 373.712625,362.715609 L 374.166000,362.715609 L 374.619375,362.715609 L 375.072750,362.715609 L 375.526125,362.715609 L 375.979500,362.715609 L 376.432875,362.715609 L 376.886250,362.715609 L 377.339625,362.715609 L 377.793000,362.715609 L 378.246375,362.715609 L 378.699750,362.715609 L 379.153125,362.715609 L 379.606500,362.715609 L 380.059875,362.715609 L 380.513250,362.715609 L 380.966625,362.715609 L 381.420000,362.715609 L 381.873375,362.715609 L 382.326750,362.715609 L 382.780125,362.715609 L 383.233500,362.715609 L 383.686875,362.715609 L 384.140250,362.715609 L 384.593625,362.715609 L 385.047000,362.715609 L 385.500375,362.715609 L 385.953750,362.715609 L 386.407125,362.715609 L 386.860500,362.715609 L 387.313875,362.715609 L 387.767250,362.715609 L 388.220625,362.715609 L 388.674000,362.715609 L 389.127375,362.715609 L 389.580750,362.715609 L 390.034125,362.715609 L 390.487500,362.715609 L 390.940875,362.715609 L 391.394250,362.715609 L 391.847625,362.715609 L 392.301000,362.715609 L 392.754375,362.715609 L 393.207750,362.715609 L 393.661125,362.715609 L 394.114500,362.715609 L 394.567875,362.715609 L 395.021250,362.715609 L 395.474625,362.715609 L 395.928000,362.715609 L 396.381375,362.715609 L 396.834750,362.715609 L 397.288125,362.715609 L 397.741500,362.715609 L 398.194875,362.715609 L 398.648250,362.715609 L 399.101625,362.715609 L 399.555000,362.715609 L 400.008375,362.715609 L 400.461750,362.715609 L 400.915125,362.715609 L 401.368500,362.715609 L 401.821875,362.715609 L 402.275250,362.715609 L 402.728625,362.715609 L 403.182000,362.715609 L 403.635375,362.715609 L 404.088750,362.715609 L 404.542125,362.715609 L 404.995500,362.715609 L 405.448875,362.715609 L 405.902250,362.715609 L 406.355625,362.715609 L 406.809000,362.715609 L 407.262375,362.715609 L 407.715750,362.715609 L 408.169125,362.715609 L 408.622500,362.715609 L 409.075875,362.715609 L 409.529250,362.715609 L 409.982625,362.715609 L 410.436000,362.715609 L 410.889375,362.715609 L 411.342750,362.715609 L 411.796125,362.715609 L 412.249500,362.715609 L 412.702875,362.715609 L 413.156250,362.715609 L 413.609625,362.715609 L 414.063000,362.715609 L 414.516375,362.715609 L 414.969750,362.715609 L 415.423125,362.715609 L 415.876500,362.715609 L 416.329875,362.715609 L 416.783250,362.715609 L 417.236625,362.715609 L 417.690000,362.715609 L 418.143375,362.715609 L 418.596750,362.715609 L 419.050125,362.715609 L 419.503500,362.715609 L 419.956875,362.715609 L 420.410250,362.715609 L 420.863625,362.715609 L 421.317000,362.715609 L 421.770375,362.715609 L 422.223750,362.715609 L 422.677125,362.715609 L 423.130500,362.715609 L 423.583875,362.715609 L 424.037250,362.715609 L 424.490625,362.715609 L 424.944000,362.715609 L 425.397375,362.715609 L 425.850750,362.715609 L 426.304125,362.715609 L 426.757500,362.715609 L 427.210875,362.715609 L 427.664250,362.715609 L 428.117625,362.715609 L 428.571000,362.715609 L 429.024375,362.715609 L 429.477750,362.715609 L 429.931125,362.715609 L 430.384500,362.715609 L 430.837875,362.715609 L 431.291250,362.715609 L 431.744625,362.715609 L 432.198000,362.715609 L 432.651375,362.715609 L 433.104750,362.715609 L 433.558125,362.715609 L 434.011500,362.715609 L 434.464875,362.715609 L 434.918250,362.715609 L 435.371625,362.715609 L 435.825000,362.715609 L 436.278375,362.715609 L 436.731750,362.715609 L 437.185125,362.715609 L 437.638500,362.715609 L 438.091875,362.715609 L 438.545250,362.715609 L 438.998625,362.715609 L 439.452000,362.715609 L 439.905375,362.715609 L 440.358750,362.715609 L 440.812125,362.715609 L 441.265500,362.715609 L 441.718875,362.715609 L 442.172250,362.715609 L 442.625625,362.715609 L 443.079000,362.715609 L 443.532375,362.715609 L 443.985750,362.715609 L 444.439125,362.715609 L 444.892500,362.715609 L 445.345875,362.715609 L 445.799250,362.715609 L 446.252625,362.715609 L 446.706000,362.715609 L 447.159375,362.715609 L 447.612750,362.715609 L 448.066125,362.715609 L 448.519500,362.715609 L 448.972875,362.715609 L 449.426250,362.715609 L 449.879625,362.715609 L 450.333000,362.715609 L 450.786375,362.715609 L 451.239750,362.715609 L 451.693125,362.715609 L 452.146500,362.715609 L 452.599875,362.715609 L 453.053250,362.715609 L 453.506625,362.715609 L 453.960000,362.715609 L 454.413375,362.715609 L 454.866750,362.715609 L 455.320125,362.715609 L 455.773500,362.715609 L 456.226875,362.715609 L 456.680250,362.715609 L 457.133625,362.715609 L 457.587000,362.715609 L 458.040375,362.715609 L 458.493750,362.715609 L 458.947125,362.715609 L 459.400500,362.715609 L 459.853875,362.715609 L 460.307250,362.715609 L 460.760625,362.715609 L 461.214000,362.715609 L 461.667375,362.715609 L 462.120750,362.715609 L 462.574125,362.715609 L 463.027500,362.715609 L 463.480875,362.715609 L 463.934250,362.715609 L 464.387625,362.715609 L 464.841000,362.715609 L 465.294375,362.715609 L 465.747750,362.715609 L 466.201125,362.715609 L 466.654500,362.715609 L 467.107875,362.715609 L 467.561250,362.715609 L 468.014625,362.715609 L 468.468000,362.715609 L 468.921375,362.715609 L 469.374750,362.715609 L 469.828125,362.715609 L 470.281500,362.715609 L 470.734875,362.715609 L 471.188250,362.715609 L 471.641625,362.715609 L 472.095000,362.715609 L 472.548375,362.715609 L 473.001750,362.715609 L 473.455125,362.715609 L 473.908500,362.715609 L 474.361875,362.715609 L 474.815250,362.715609 L 475.268625,362.715609 L 475.722000,362.715609 L 476.175375,362.715609 L 476.628750,362.715609 L 477.082125,362.715609 L 477.535500,362.715609 L 477.988875,362.715609 L 478.442250,362.715609 L 478.895625,362.715609 L 479.349000,362.715609 L 479.802375,362.715609 L 480.255750,362.715609 L 480.709125,362.715609 L 481.162500,362.715609 L 481.615875,362.715609 L 482.069250,362.715609 L 482.522625,362.715609 L 482.976000,362.715609 L 483.429375,362.715609 L 483.882750,362.715609 L 484.336125,362.715609 L 484.789500,362.715609 L 485.242875,362.715609 L 485.696250,362.715609 L 486.149625,362.715609 L 486.603000,362.715609 L 487.056375,362.715609 L 487.509750,362.715609 L 487.963125,362.715609 L 488.416500,362.715609 L 488.869875,362.715609 L 489.323250,362.715609 L 489.776625,362.715609 L 490.230000,362.715609 L 490.683375,362.715609 L 491.136750,362.715609 L 491.590125,362.715609 L 492.043500,362.715609 L 492.496875,362.715609 L 492.950250,362.715609 L 493.403625,362.715609 L 493.857000,362.715609 L 494.310375,362.715609 L 494.763750,362.715609 L 495.217125,362.715609 L 495.670500,362.715609 L 496.123875,362.715609 L 496.577250,362.715609 L 497.030625,362.715609 L 497.484000,362.715609 L 497.937375,362.715609 L 498.390750,362.715609 L 498.844125,362.715609 L 499.297500,362.715609 L 499.750875,362.715609 L 500.204250,362.715609 L 500.657625,362.715609 L 501.111000,362.715609 L 501.564375,362.715609 L 502.017750,362.715609 L 502.471125,362.715609 L 502.924500,362.715609 L 503.377875,362.715609 L 503.831250,362.715609 L 504.284625,362.715609 L 504.738000,362.715609 L 505.191375,362.715609 L 505.644750,362.715609 L 506.098125,362.715609 L 506.551500,362.715609 L 507.004875,362.715609 L 507.458250,362.715609 L 507.911625,362.715609 L 508.365000,362.715609 L 508.818375,362.715609 L 509.271750,362.715609 L 509.725125,362.715609 L 510.178500,362.715609 L 510.631875,362.715609 L 511.085250,362.715609 L 511.538625,362.715609 L 511.992000,362.715609 L 512.445375,362.715609 L 512.898750,362.715609 L 513.352125,362.715609 L 513.805500,362.715609 L 514.258875,362.715609 L 514.712250,362.715609 L 515.165625,362.715609 L 515.619000,362.715609 L 516.072375,362.715609 L 516.525750,362.715609 L 516.979125,362.715609 L 517.432500,362.715609 L 517.885875,362.715609 L 518.339250,362.715609 L 518.792625,362.715609 L 519.246000,362.715609 L 519.699375,362.715609 L 520.152750,362.715609 L 520.606125,362.715609 L 521.059500,362.715609 L 521.512875,362.715609 L 521.966250,362.715609 L 522.419625,362.715609 L 522.873000,362.715609 L 523.326375,362.715609 L 523.779750,362.715609 L 524.233125,362.715609 L 524.686500,362.715609 L 525.139875,362.715609 L 525.593250,362.715609 L 526.046625,362.715609 "/>
<path style="fill: none; stroke: #ff0000; stroke-width: 0.500000; stroke-linejoin: miter; stroke-linecap: square;  opacity: 1.000000" clip-path="url(#7240474723315632415)" d="M 73.125000,64.980538 L 73.578375,64.980538 L 74.031750,64.980538 L 74.485125,64.980538 L 74.938500,64.980538 L 75.391875,64.980538 L 75.845250,64.980538 L 76.298625,64.980538 L 76.752000,64.980538 L 77.205375,64.980538 L 77.658750,64.980538 L 78.112125,64.980538 L 78.565500,64.980538 L 79.018875,64.980538 L 79.472250,64.980538 L 79.925625,64.980538 L 80.379000,64.980538 L 80.832375,64.980538 L 81.285750,64.980538 L 81.739125,64.980538 L 82.192500,64.980538 L 82.645875,64.980538 L 83.099250,64.980538 L 83.552625,64.980538 L 84.006000,64.980538 L 84.459375,64.980538 L 84.912750,64.980538 L 85.366125,64.980538 L 85.819500,64.980538 L 86.272875,64.980538 L 86.726250,64.980538 L 87.179625,64.980538 L 87.633000,64.980538 L 88.086375,64.980538 L 88.539750,64.980538 L 88.993125,64.980538 L 89.446500,64.980538 L 89.899875,64.980538 L 90.353250,64.980538 L 90.806625,64.980538 L 91.260000,64.980538 L 91.713375,64.980538 L 92.166750,64.980538 L 92.620125,64.980538 L 93.073500,64.980538 L 93.526875,64.980538 L 93.980250,64.980538 L 94.433625,64.980538 L 94.887000,64.980538 L 95.340375,64.980538 L 95.793750,64.980538 L 96.247125,64.980538 L 96.700500,64.980538 L 97.153875,64.980538 L 97.607250,64.980538 L 98.060625,64.980538 L 98.514000,64.980538 L 98.967375,64.980538 L 99.420750,64.980538 L 99.874125,64.980538 L 100.327500,64.980538 L 100.780875,64.980538 L 101.234250,64.980538 L 101.687625,64.980538 L 102.141000,64.980538 L 102.594375,64.980538 L 103.047750,64.980538 L 103.501125,64.980538 L 103.954500,64.980538 L 104.407875,64.980538 L 104.861250,64.980538 L 105.314625,64.980538 L 105.768000,64.980538 L 106.221375,64.980538 L 106.674750,64.980538 L 107.128125,64.980538 L 107.581500,64.980538 L 108.034875,64.980538 L 108.488250,64.980538 L 108.941625,64.980538 L 109.395000,64.980538 L 109.848375,64.980538 L 110.301750,64.980538 L 110.755125,64.980538 L 111.208500,64.980538 L 111.661875,64.980538 L 112.115250,64.980538 L 112.568625,64.980538 L 113.022000,64.980538 L 113.475375,64.980538 L 113.928750,64.980538 L 114.382125,64.980538 L 114.835500,64.980538 L 115.288875,64.980538 L 115.742250,64.980538 L 116.195625,64.980538 L 116.649000,64.980538 L 117.102375,64.980538 L 117.555750,64.980538 L 118.009125,64.980538 L 118.462500,64.980538 L 118.915875,64.980538 L 119.369250,64.980538 L 119.822625,64.980538 L 120.276000,64.980538 L 120.729375,64.980538 L 121.182750,64.980538 L 121.636125,64.980538 L 122.089500,64.980538 L 122.542875,64.980538 L 122.996250,64.980538 L 123.449625,64.980538 L 123.903000,64.980538 L 124.356375,64.980538 L 124.809750,64.980538 L 125.263125,64.980538 L 125.716500,64.980538 L 126.169875,64.980538 L 126.623250,64.980538 L 127.076625,64.980538 L 127.530000,64.980538 L 127.983375,64.980538 L 128.436750,64.980538 L 128.890125,64.980538 L 129.343500,64.980538 L 129.796875,64.980538 L 130.250250,64.980538 L 130.703625,64.980538 L 131.157000,64.980538 L 131.610375,64.980538 L 132.063750,64.980538 L 132.517125,64.980538 L 132.970500,64.980538 L 133.423875,64.980538 L 133.877250,64.980538 L 134.330625,64.980538 L 134.784000,64.980538 L 135.237375,64.980538 L 135.690750,64.980538 L 136.144125,64.980538 L 136.597500,64.980538 L 137.050875,64.980538 L 137.504250,64.980538 L 137.957625,64.980538 L 138.411000,64.980538 L 138.864375,64.980538 L 139.317750,64.980538 L 139.771125,64.980538 L 140.224500,64.980538 L 140.677875,64.980538 L 141.131250,64.980538 L 141.584625,64.980538 L 142.038000,64.980538 L 142.491375,64.980538 L 142.944750,64.980538 L 143.398125,64.980538 L 143.851500,64.980538 L 144.304875,64.980538 L 144.758250,64.980538 L 145.211625,64.980538 L 145.665000,64.980538 L 146.118375,64.980538 L 146.571750,64.980538 L 147.025125,64.980538 L 147.478500,64.980538 L 147.931875,64.980538 L 148.385250,64.980538 L 148.838625,64.980538 L 149.292000,64.980538 L 149.745375,64.980538 L 150.198750,64.980538 L 150.652125,64.980538 L 151.105500,64.980538 L 151.558875,64.980538 L 152.012250,64.980538 L 152.465625,64.980538 L 152.919000,64.980538 L 153.372375,64.980538 L 153.825750,64.980538 L 154.279125,64.980538 L 154.732500,64.980538 L 155.185875,64.980538 L 155.639250,64.980538 L 156.092625,64.980538 L 156.546000,64.980538 L 156.999375,64.980538 L 157.452750,64.980538 L 157.906125,64.980538 L 158.359500,64.980538 L 158.812875,64.980538 L 159.266250,64.980538 L 159.719625,64.980538 L 160.173000,64.980538 L 160.626375,64.980538 L 161.079750,64.980538 L 161.533125,64.980538 L 161.986500,64.980538 L 162.439875,64.980538 L 162.893250,64.980538 L 163.346625,64.980538 L 163.800000,64.980538 L 164.253375,64.980538 L 164.706750,64.980538 L 165.160125,64.980538 L 165.613500,64.980538 L 166.066875,64.980538 L 166.520250,64.980538 L 166.973625,64.980538 L 167.427000,64.980538 L 167.880375,64.980538 L 168.333750,64.980538 L 168.787125,64.980538 L 169.240500,64.980538 L 169.693875,64.980538 L 170.147250,64.980538 L 170.600625,64.980538 L 171.054000,64.980538 L 171.507375,64.980538 L 171.960750,64.980538 L 172.414125,64.980538 L 172.867500,64.980538 L 173.320875,64.980538 L 173.774250,64.980538 L 174.227625,64.980538 L 174.681000,64.980538 L 175.134375,64.980538 L 175.587750,64.980538 L 176.041125,64.980538 L 176.494500,64.980538 L 176.947875,64.980538 L 177.401250,64.980538 L 177.854625,64.980538 L 178.308000,64.980538 L 178.761375,64.980538 L 179.214750,64.980538 L 179.668125,64.980538 L 180.121500,64.980538 L 180.574875,64.980538 L 181.028250,64.980538 L 181.481625,64.980538 L 181.935000,64.980538 L 182.388375,64.980538 L 182.841750,64.980538 L 183.295125,64.980538 L 183.748500,64.980538 L 184.201875,64.980538 L 184.655250,64.980538 L 185.108625,64.980538 L 185.562000,64.980538 L 186.015375,64.980538 L 186.468750,64.980538 L 186.922125,64.980538 L 187.375500,64.980538 L 187.828875,64.980538 L 188.282250,64.980538 L 188.735625,64.980538 L 189.189000,64.980538 L 189.642375,64.980538 L 190.095750,64.980538 L 190.549125,64.980538 L 191.002500,64.980538 L 191.455875,64.980538 L 191.909250,64.980538 L 192.362625,64.980538 L 192.816000,64.980538 L 193.269375,64.980538 L 193.722750,64.980538 L 194.176125,64.980538 L 194.629500,64.980538 L 195.082875,64.980538 L 195.536250,64.980538 L 195.989625,64.980538 L 196.443000,64.980538 L 196.896375,64.980538 L 197.349750,64.980538 L 197.803125,64.980538 L 198.256500,64.980538 L 198.709875,64.980538 L 199.163250,64.980538 L 199.616625,64.980538 L 200.070000,64.980538 L 200.523375,64.980538 L 200.976750,64.980538 L 201.430125,64.980538 L 201.883500,64.980538 L 202.336875,64.980538 L 202.790250,64.980538 L 203.243625,64.980538 L 203.697000,64.980538 L 204.150375,64.980538 L 204.603750,64.980538 L 205.057125,64.980538 L 205.510500,64.980538 L 205.963875,64.980538 L 206.417250,64.980538 L 206.870625,64.980538 L 207.324000,64.980538 L 207.777375,64.980538 L 208.230750,64.980538 L 208.684125,64.980538 L 209.137500,64.980538 L 209.590875,64.980538 L 210.044250,64.980538 L 210.497625,64.980538 L 210.951000,64.980538 L 211.404375,64.980538 L 211.857750,64.980538 L 212.311125,64.980538 L 212.764500,64.980538 L 213.217875,64.980538 L 213.671250,64.980538 L 214.124625,64.980538 L 214.578000,64.980538 L 215.031375,64.980538 L 215.484750,64.980538 L 215.938125,64.980538 L 216.391500,64.980538 L 216.844875,64.980538 L 217.298250,64.980538 L 217.751625,64.980538 L 218.205000,64.980538 L 218.658375,64.980538 L 219.111750,64.980538 L 219.565125,64.980538 L 220.018500,64.980538 L 220.471875,64.980538 L 220.925250,64.980538 L 221.378625,64.980538 L 221.832000,64.980538 L 222.285375,64.980538 L 222.738750,64.980538 L 223.192125,64.980538 L 223.645500,64.980538 L 224.098875,64.980538 L 224.552250,64.980538 L 225.005625,64.980538 L 225.459000,64.980538 L 225.912375,64.980538 L 226.365750,64.980538 L 226.819125,64.980538 L 227.272500,64.980538 L 227.725875,64.980538 L 228.179250,64.980538 L 228.632625,64.980538 L 229.086000,64.980538 L 229.539375,64.980538 L 229.992750,64.980538 L 230.446125,64.980538 L 230.899500,64.980538 L 231.352875,64.980538 L 231.806250,64.980538 L 232.259625,64.980538 L 232.713000,64.980538 L 233.166375,64.980538 L 233.619750,64.980538 L 234.073125,64.980538 L 234.526500,64.980538 L 234.979875,64.980538 L 235.433250,64.980538 L 235.886625,64.980538 L 236.340000,64.980538 L 236.793375,64.980538 L 237.246750,64.980538 L 237.700125,64.980538 L 238.153500,64.980538 L 238.606875,64.980538 L 239.060250,64.980538 L 239.513625,64.980538 L 239.967000,64.980538 L 240.420375,64.980538 L 240.873750,64.980538 L 241.327125,64.980538 L 241.780500,64.980538 L 242.233875,64.980538 L 242.687250,64.980538 L 243.140625,64.980538 L 243.594000,64.980538 L 244.047375,64.980538 L 244.500750,64.980538 L 244.954125,64.980538 L 245.407500,64.980538 L 245.860875,64.980538 L 246.314250,64.980538 L 246.767625,64.980538 L 247.221000,64.980538 L 247.674375,64.980538 L 248.127750,64.980538 L 248.581125,64.980538 L 249.034500,64.980538 L 249.487875,64.980538 L 249.941250,64.980538 L 250.394625,64.980538 L 250.848000,64.980538 L 251.301375,64.980538 L 251.754750,64.980538 L 252.208125,64.980538 L 252.661500,64.980538 L 253.114875,64.980538 L 253.568250,64.980538 L 254.021625,64.980538 L 254.475000,64.980538 L 254.928375,64.980538 L 255.381750,64.980538 L 255.835125,64.980538 L 256.288500,64.980538 L 256.741875,64.980538 L 257.195250,64.980538 L 257.648625,64.980538 L 258.102000,64.980538 L 258.555375,64.980538 L 259.008750,64.980538 L 259.462125,64.980538 L 259.915500,64.980538 L 260.368875,64.980538 L 260.822250,64.980538 L 261.275625,64.980538 L 261.729000,64.980538 L 262.182375,64.980538 L 262.635750,64.980538 L 263.089125,64.980538 L 263.542500,64.980538 L 263.995875,64.980538 L 264.449250,64.980538 L 264.902625,64.980538 L 265.356000,64.980538 L 265.809375,64.980538 L 266.262750,64.980538 L 266.716125,64.980538 L 267.169500,64.980538 L 267.622875,64.980538 L 268.076250,64.980538 L 268.529625,64.980538 L 268.983000,64.980538 L 269.436375,64.980538 L 269.889750,64.980538 L 270.343125,64.980538 L 270.796500,64.980538 L 271.249875,64.980538 L 271.703250,64.980538 L 272.156625,64.980538 L 272.610000,64.980538 L 273.063375,64.980538 L 273.516750,64.980538 L 273.970125,64.980538 L 274.423500,64.980538 L 274.876875,64.980538 L 275.330250,64.980538 L 275.783625,64.980538 L 276.237000,64.980538 L 276.690375,64.980538 L 277.143750,64.980538 L 277.597125,64.980538 L 278.050500,64.980538 L 278.503875,64.980538 L 278.957250,64.980538 L 279.410625,64.980538 L 279.864000,64.980538 L 280.317375,64.980538 L 280.770750,64.980538 L 281.224125,64.980538 L 281.677500,64.980538 L 282.130875,64.980538 L 282.584250,64.980538 L 283.037625,64.980538 L 283.491000,64.980538 L 283.944375,64.980538 L 284.397750,64.980538 L 284.851125,64.980538 L 285.304500,64.980538 L 285.757875,64.980538 L 286.211250,64.980538 L 286.664625,64.980538 L 287.118000,64.980538 L 287.571375,64.980538 L 288.024750,64.980538 L 288.478125,64.980538 L 288.931500,64.980538 L 289.384875,64.980538 L 289.838250,64.980538 L 290.291625,64.980538 L 290.745000,64.980538 L 291.198375,64.980538 L 291.651750,64.980538 L 292.105125,64.980538 L 292.558500,64.980538 L 293.011875,64.980538 L 293.465250,64.980538 L 293.918625,64.980538 L 294.372000,64.980538 L 294.825375,64.980538 L 295.278750,64.980538 L 295.732125,64.980538 L 296.185500,64.980538 L 296.638875,64.980538 L 297.092250,64.980538 L 297.545625,64.980538 L 297.999000,64.980538 L 298.452375,64.980538 L 298.905750,64.980538 L 299.359125,64.980538 L 299.812500,64.980538 L 300.265875,64.980538 L 300.719250,64.980538 L 301.172625,64.980538 L 301.626000,64.980538 L 302.079375,64.980538 L 302.532750,64.980538 L 302.986125,64.980538 L 303.439500,64.980538 L 303.892875,64.980538 L 304.346250,64.980538 L 304.799625,64.980538 L 305.253000,64.980538 L 305.706375,64.980538 L 306.159750,64.980538 L 306.613125,64.980538 L 307.066500,64.980538 L 307.519875,64.980538 L 307.973250,64.980538 L 308.426625,64.980538 L 308.880000,64.980538 L 309.333375,64.980538 L 309.786750,64.980538 L 310.240125,64.980538 L 310.693500,64.980538 L 311.146875,64.980538 L 311.600250,64.980538 L 312.053625,64.980538 L 312.507000,64.980538 L 312.960375,64.980538 L 313.413750,64.980538 L 313.867125,64.980538 L 314.320500,64.980538 L 314.773875,64.980538 L 315.227250,64.980538 L 315.680625,64.980538 L 316.134000,64.980538 L 316.587375,64.980538 L 317.040750,64.980538 L 317.494125,64.980538 L 317.947500,64.980538 L 318.400875,64.980538 L 318.854250,64.980538 L 319.307625,64.980538 L 319.761000,64.980538 L 320.214375,64.980538 L 320.667750,64.980538 L 321.121125,64.980538 L 321.574500,64.980538 L 322.027875,64.980538 L 322.481250,64.980538 L 322.934625,64.980538 L 323.388000,64.980538 L 323.841375,64.980538 L 324.294750,64.980538 L 324.748125,64.980538 L 325.201500,64.980538 L 325.654875,64.980538 L 326.108250,64.980538 L 326.561625,64.980538 L 327.015000,64.980538 L 327.468375,64.980538 L 327.921750,64.980538 L 328.375125,64.980538 L 328.828500,64.980538 L 329.281875,64.980538 L 329.735250,64.980538 L 330.188625,64.980538 L 330.642000,64.980538 L 331.095375,64.980538 L 331.548750,64.980538 L 332.002125,64.980538 L 332.455500,64.980538 L 332.908875,64.980538 L 333.362250,64.980538 L 333.815625,64.980538 L 334.269000,64.980538 L 334.722375,64.980538 L 335.175750,64.980538 L 335.629125,64.980538 L 336.082500,64.980538 L 336.535875,64.980538 L 336.989250,64.980538 L 337.442625,64.980538 L 337.896000,64.980538 L 338.349375,64.980538 L 338.802750,64.980538 L 339.256125,64.980538 L 339.709500,64.980538 L 340.162875,64.980538 L 340.616250,64.980538 L 341.069625,64.980538 L 341.523000,64.980538 L 341.976375,64.980538 L 342.429750,64.980538 L 342.883125,64.980538 L 343.336500,64.980538 L 343.789875,64.980538 L 344.243250,64.980538 L 344.696625,64.980538 L 345.150000,64.980538 L 345.603375,64.980538 L 346.056750,64.980538 L 346.510125,64.980538 L 346.963500,64.980538 L 347.416875,64.980538 L 347.870250,64.980538 L 348.323625,64.980538 L 348.777000,64.980538 L 349.230375,64.980538 L 349.683750,64.980538 L 350.137125,64.980538 L 350.590500,64.980538 L 351.043875,64.980538 L 351.497250,64.980538 L 351.950625,64.980538 L 352.404000,64.980538 L 352.857375,64.980538 L 353.310750,64.980538 L 353.764125,64.980538 L 354.217500,64.980538 L 354.670875,64.980538 L 355.124250,64.980538 L 355.577625,64.980538 L 356.031000,64.980538 L 356.484375,64.980538 L 356.937750,64.980538 L 357.391125,64.980538 L 357.844500,64.980538 L 358.297875,64.980538 L 358.751250,64.980538 L 359.204625,64.980538 L 359.658000,64.980538 L 360.111375,64.980538 L 360.564750,64.980538 L 361.018125,64.980538 L 361.471500,64.980538 L 361.924875,64.980538 L 362.378250,64.980538 L 362.831625,64.980538 L 363.285000,64.980538 L 363.738375,64.980538 L 364.191750,64.980538 L 364.645125,64.980538 L 365.098500,64.980538 L 365.551875,64.980538 L 366.005250,64.980538 L 366.458625,64.980538 L 366.912000,64.980538 L 367.365375,64.980538 L 367.818750,64.980538 L 368.272125,64.980538 L 368.725500,64.980538 L 369.178875,64.980538 L 369.632250,64.980538 L 370.085625,64.980538 L 370.539000,64.980538 L 370.992375,64.980538 L 371.445750,64.980538 L 371.899125,64.980538 L 372.352500,64.980538 L 372.805875,64.980538 L 373.259250,64.980538 L 373.712625,64.980538 L 374.166000,64.980538 L 374.619375,64.980538 L 375.072750,64.980538 L 375.526125,64.980538 L 375.979500,64.980538 L 376.432875,64.980538 L 376.886250,64.980538 L 377.339625,64.980538 L 377.793000,64.980538 L 378.246375,64.980538 L 378.699750,64.980538 L 379.153125,64.980538 L 379.606500,64.980538 L 380.059875,64.980538 L 380.513250,64.980538 L 380.966625,64.980538 L 381.420000,64.980538 L 381.873375,64.980538 L 382.326750,64.980538 L 382.780125,64.980538 L 383.233500,64.980538 L 383.686875,64.980538 L 384.140250,64.980538 L 384.593625,64.980538 L 385.047000,64.980538 L 385.500375,64.980538 L 385.953750,64.980538 L 386.407125,64.980538 L 386.860500,64.980538 L 387.313875,64.980538 L 387.767250,64.980538 L 388.220625,64.980538 L 388.674000,64.980538 L 389.127375,64.980538 L 389.580750,64.980538 L 390.034125,64.980538 L 390.487500,64.980538 L 390.940875,64.980538 L 391.394250,64.980538 L 391.847625,64.980538 L 392.301000,64.980538 L 392.754375,64.980538 L 393.207750,64.980538 L 393.661125,64.980538 L 394.114500,64.980538 L 394.567875,64.980538 L 395.021250,64.980538 L 395.474625,64.980538 L 395.928000,64.980538 L 396.381375,64.980538 L 396.834750,64.980538 L 397.288125,64.980538 L 397.741500,64.980538 L 398.194875,64.980538 L 398.648250,64.980538 L 399.101625,64.980538 L 399.555000,64.980538 L 400.008375,64.980538 L 400.461750,64.980538 L 400.915125,64.980538 L 401.368500,64.980538 L 401.821875,64.980538 L 402.275250,64.980538 L 402.728625,64.980538 L 403.182000,64.980538 L 403.635375,64.980538 L 404.088750,64.980538 L 404.542125,64.980538 L 404.995500,64.980538 L 405.448875,64.980538 L 405.902250,64.980538 L 406.355625,64.980538 L 406.809000,64.980538 L 407.262375,64.980538 L 407.715750,64.980538 L 408.169125,64.980538 L 408.622500,64.980538 L 409.075875,64.980538 L 409.529250,64.980538 L 409.982625,64.980538 L 410.436000,64.980538 L 410.889375,64.980538 L 411.342750,64.980538 L 411.796125,64.980538 L 412.249500,64.980538 L 412.702875,64.980538 L 413.156250,64.980538 L 413.609625,64.980538 L 414.063000,64.980538 L 414.516375,64.980538 L 414.969750,64.980538 L 415.423125,64.980538 L 415.876500,64.980538 L 416.329875,64.980538 L 416.783250,64.980538 L 417.236625,64.980538 L 417.690000,64.980538 L 418.143375,64.980538 L 418.596750,64.980538 L 419.050125,64.980538 L 419.503500,64.980538 L 419.956875,64.980538 L 420.410250,64.980538 L 420.863625,64.980538 L 421.317000,64.980538 L 421.770375,64.980538 L 422.223750,64.980538 L 422.677125,64.980538 L 423.130500,64.980538 L 423.583875,64.980538 L 424.037250,64.980538 L 424.490625,64.980538 L 424.944000,64.980538 L 425.397375,64.980538 L 425.850750,64.980538 L 426.304125,64.980538 L 426.757500,64.980538 L 427.210875,64.980538 L 427.664250,64.980538 L 428.117625,64.980538 L 428.571000,64.980538 L 429.024375,64.980538 L 429.477750,64.980538 L 429.931125,64.980538 L 430.384500,64.980538 L 430.837875,64.980538 L 431.291250,64.980538 L 431.744625,64.980538 L 432.198000,64.980538 L 432.651375,64.980538 L 433.104750,64.980538 L 433.558125,64.980538 L 434.011500,64.980538 L 434.464875,64.980538 L 434.918250,64.980538 L 435.371625,64.980538 L 435.825000,64.980538 L 436.278375,64.980538 L 436.731750,64.980538 L 437.185125,64.980538 L 437.638500,64.980538 L 438.091875,64.980538 L 438.545250,64.980538 L 438.998625,64.980538 L 439.452000,64.980538 L 439.905375,64.980538 L 440.358750,64.980538 L 440.812125,64.980538 L 441.265500,64.980538 L 441.718875,64.980538 L 442.172250,64.980538 L 442.625625,64.980538 L 443.079000,64.980538 L 443.532375,64.980538 L 443.985750,64.980538 L 444.439125,64.980538 L 444.892500,64.980538 L 445.345875,64.980538 L 445.799250,64.980538 L 446.252625,64.980538 L 446.706000,64.980538 L 447.159375,64.980538 L 447.612750,64.980538 L 448.066125,64.980538 L 448.519500,64.980538 L 448.972875,64.980538 L 449.426250,64.980538 L 449.879625,64.980538 L 450.333000,64.980538 L 450.786375,64.980538 L 451.239750,64.980538 L 451.693125,64.980538 L 452.146500,64.980538 L 452.599875,64.980538 L 453.053250,64.980538 L 453.506625,64.980538 L 453.960000,64.980538 L 454.413375,64.980538 L 454.866750,64.980538 L 455.320125,64.980538 L 455.773500,64.980538 L 456.226875,64.980538 L 456.680250,64.980538 L 457.133625,64.980538 L 457.587000,64.980538 L 458.040375,64.980538 L 458.493750,64.980538 L 458.947125,64.980538 L 459.400500,64.980538 L 459.853875,64.980538 L 460.307250,64.980538 L 460.760625,64.980538 L 461.214000,64.980538 L 461.667375,64.980538 L 462.120750,64.980538 L 462.574125,64.980538 L 463.027500,64.980538 L 463.480875,64.980538 L 463.934250,64.980538 L 464.387625,64.980538 L 464.841000,64.980538 L 465.294375,64.980538 L 465.747750,64.980538 L 466.201125,64.980538 L 466.654500,64.980538 L 467.107875,64.980538 L 467.561250,64.980538 L 468.014625,64.980538 L 468.468000,64.980538 L 468.921375,64.980538 L 469.374750,64.980538 L 469.828125,64.980538 L 470.281500,64.980538 L 470.734875,64.980538 L 471.188250,64.980538 L 471.641625,64.980538 L 472.095000,64.980538 L 472.548375,64.980538 L 473.001750,64.980538 L 473.455125,64.980538 L 473.908500,64.980538 L 474.361875,64.980538 L 474.815250,64.980538 L 475.268625,64.980538 L 475.722000,64.980538 L 476.175375,64.980538 L 476.628750,64.980538 L 477.082125,64.980538 L 477.535500,64.980538 L 477.988875,64.980538 L 478.442250,64.980538 L 478.895625,64.980538 L 479.349000,64.980538 L 479.802375,64.980538 L 480.255750,64.980538 L 480.709125,64.980538 L 481.162500,64.980538 L 481.615875,64.980538 L 482.069250,64.980538 L 482.522625,64.980538 L 482.976000,64.980538 L 483.429375,64.980538 L 483.882750,64.980538 L 484.336125,64.980538 L 484.789500,64.980538 L 485.242875,64.980538 L 485.696250,64.980538 L 486.149625,64.980538 L 486.603000,64.980538 L 487.056375,64.980538 L 487.509750,64.980538 L 487.963125,64.980538 L 488.416500,64.980538 L 488.869875,64.980538 L 489.323250,64.980538 L 489.776625,64.980538 L 490.230000,64.980538 L 490.683375,64.980538 L 491.136750,64.980538 L 491.590125,64.980538 L 492.043500,64.980538 L 492.496875,64.980538 L 492.950250,64.980538 L 493.403625,64.980538 L 493.857000,64.980538 L 494.310375,64.980538 L 494.763750,64.980538 L 495.217125,64.980538 L 495.670500,64.980538 L 496.123875,64.980538 L 496.577250,64.980538 L 497.030625,64.980538 L 497.484000,64.980538 L 497.937375,64.980538 L 498.390750,64.980538 L 498.844125,64.980538 L 499.297500,64.980538 L 499.750875,64.980538 L 500.204250,64.980538 L 500.657625,64.980538 L 501.111000,64.980538 L 501.564375,64.980538 L 502.017750,64.980538 L 502.471125,64.980538 L 502.924500,64.980538 L 503.377875,64.980538 L 503.831250,64.980538 L 504.284625,64.980538 L 504.738000,64.980538 L 505.191375,64.980538 L 505.644750,64.980538 L 506.098125,64.980538 L 506.551500,64.980538 L 507.004875,64.980538 L 507.458250,64.980538 L 507.911625,64.980538 L 508.365000,64.980538 L 508.818375,64.980538 L 509.271750,64.980538 L 509.725125,64.980538 L 510.178500,64.980538 L 510.631875,64.980538 L 511.085250,64.980538 L 511.538625,64.980538 L 511.992000,64.980538 L 512.445375,64.980538 L 512.898750,64.980538 L 513.352125,64.980538 L 513.805500,64.980538 L 514.258875,64.980538 L 514.712250,64.980538 L 515.165625,64.980538 L 515.619000,64.980538 L 516.072375,64.980538 L 516.525750,64.980538 L 516.979125,64.980538 L 517.432500,64.980538 L 517.885875,64.980538 L 518.339250,64.980538 L 518.792625,64.980538 L 519.246000,64.980538 L 519.699375,64.980538 L 520.152750,64.980538 L 520.606125,64.980538 L 521.059500,64.980538 L 521.512875,64.980538 L 521.966250,64.980538 L 522.419625,64.980538 L 522.873000,64.980538 L 523.326375,64.980538 L 523.779750,64.980538 L 524.233125,64.980538 L 524.686500,64.980538 L 525.139875,64.980538 L 525.593250,64.980538 L 526.046625,64.980538 "/>
<g id="matplotlib.axis1">
<g id="xtick1">
<text style="font-size: 9.996000; font-family: Bitstream Vera Serif; font-style: Roman; fill: #000000;" x="70.625000" y="406.900000" >0</text>
</g>
<g id="xtick2">
<path style="fill: none; stroke: #000000; stroke-width: 0.500000; stroke-linejoin: miter; stroke-linecap: butt;  opacity: 1.000000"  d="M 163.800000,396.900000 L 163.800000,391.900000"/>
<path style="fill: none; stroke: #000000; stroke-width: 0.500000; stroke-linejoin: miter; stroke-linecap: butt;  opacity: 1.000000"  d="M 163.800000,49.100000 L 163.800000,44.100000"/>
<text style="font-size: 9.996000; font-family: Bitstream Vera Serif; font-style: Roman; fill: #000000;" x="155.300000" y="406.900000" >200</text>
</g>
<g id="xtick3">
<path style="fill: none; stroke: #000000; stroke-width: 0.500000; stroke-linejoin: miter; stroke-linecap: butt;  opacity: 1.000000"  d="M 254.475000,396.900000 L 254.475000,391.900000"/>
<path style="fill: none; stroke: #000000; stroke-width: 0.500000; stroke-linejoin: miter; stroke-linecap: butt;  opacity: 1.000000"  d="M 254.475000,49.100000 L 254.475000,44.100000"/>
<text style="font-size: 9.996000; font-family: Bitstream Vera Serif; font-style: Roman; fill: #000000;" x="245.975000" y="406.900000" >400</text>
</g>
<g id="xtick4">
<path style="fill: none; stroke: #000000; stroke-width: 0.500000; stroke-linejoin: miter; stroke-linecap: butt;  opacity: 1.000000"  d="M 345.150000,396.900000 L 345.150000,391.900000"/>
<path style="fill: none; stroke: #000000; stroke-width: 0.500000; stroke-linejoin: miter; stroke-linecap: butt;  opacity: 1.000000"  d="M 345.150000,49.100000 L 345.150000,44.100000"/>
<text style="font-size: 9.996000; font-family: Bitstream Vera Serif; font-style: Roman; fill: #000000;" x="336.650000" y="406.900000" >600</text>
</g>
<g id="xtick5">
<path style="fill: none; stroke: #000000; stroke-width: 0.500000; stroke-linejoin: miter; stroke-linecap: butt;  opacity: 1.000000"  d="M 435.825000,396.900000 L 435.825000,391.900000"/>
<path style="fill: none; stroke: #000000; stroke-width: 0.500000; stroke-linejoin: miter; stroke-linecap: butt;  opacity: 1.000000"  d="M 435.825000,49.100000 L 435.825000,44.100000"/>
<text style="font-size: 9.996000; font-family: Bitstream Vera Serif; font-style: Roman; fill: #000000;" x="427.325000" y="406.900000" >800</text>
</g>
<g id="xtick6">
<text style="font-size: 9.996000; font-family: Bitstream Vera Serif; font-style: Roman; fill: #000000;" x="515.500000" y="406.900000" >1000</text>
</g>
<text style="font-size: 12.000000; font-family: Bitstream Vera Serif; font-style: Roman; fill: #000000;" x="296.312500" y="418.900000" >n</text>
</g>
<g id="matplotlib.axis2">
<g id="ytick1">
<text style="font-size: 9.996000; font-family: Bitstream Vera Serif; font-style: Roman; fill: #000000;" x="50.125000" y="400.400000" >0.92</text>
</g>
<g id="ytick2">
<path style="fill: none; stroke: #000000; stroke-width: 0.500000; stroke-linejoin: miter; stroke-linecap: butt;  opacity: 1.000000"  d="M 73.125000,352.800000 L 78.125000,352.800000"/>
<path style="fill: none; stroke: #000000; stroke-width: 0.500000; stroke-linejoin: miter; stroke-linecap: butt;  opacity: 1.000000"  d="M 521.500000,352.800000 L 526.500000,352.800000"/>
<text style="font-size: 9.996000; font-family: Bitstream Vera Serif; font-style: Roman; fill: #000000;" x="50.125000" y="356.300000" >0.94</text>
</g>
<g id="ytick3">
<path style="fill: none; stroke: #000000; stroke-width: 0.500000; stroke-linejoin: miter; stroke-linecap: butt;  opacity: 1.000000"  d="M 73.125000,308.700000 L 78.125000,308.700000"/>
<path style="fill: none; stroke: #000000; stroke-width: 0.500000; stroke-linejoin: miter; stroke-linecap: butt;  opacity: 1.000000"  d="M 521.500000,308.700000 L 526.500000,308.700000"/>
<text style="font-size: 9.996000; font-family: Bitstream Vera Serif; font-style: Roman; fill: #000000;" x="50.125000" y="312.200000" >0.96</text>
</g>
<g id="ytick4">
<path style="fill: none; stroke: #000000; stroke-width: 0.500000; stroke-linejoin: miter; stroke-linecap: butt;  opacity: 1.000000"  d="M 73.125000,264.600000 L 78.125000,264.600000"/>
<path style="fill: none; stroke: #000000; stroke-width: 0.500000; stroke-linejoin: miter; stroke-linecap: butt;  opacity: 1.000000"  d="M 521.500000,264.600000 L 526.500000,264.600000"/>
<text style="font-size: 9.996000; font-family: Bitstream Vera Serif; font-style: Roman; fill: #000000;" x="50.125000" y="268.100000" >0.98</text>
</g>
<g id="ytick5">
<path style="fill: none; stroke: #000000; stroke-width: 0.500000; stroke-linejoin: miter; stroke-linecap: butt;  opacity: 1.000000"  d="M 73.125000,220.500000 L 78.125000,220.500000"/>
<path style="fill: none; stroke: #000000; stroke-width: 0.500000; stroke-linejoin: miter; stroke-linecap: butt;  opacity: 1.000000"  d="M 521.500000,220.500000 L 526.500000,220.500000"/>
<text style="font-size: 9.996000; font-family: Bitstream Vera Serif; font-style: Roman; fill: #000000;" x="51.125000" y="224.000000" >1.00</text>
</g>
<g id="ytick6">
<path style="fill: none; stroke: #000000; stroke-width: 0.500000; stroke-linejoin: miter; stroke-linecap: butt;  opacity: 1.000000"  d="M 73.125000,176.400000 L 78.125000,176.400000"/>
<path style="fill: none; stroke: #000000; stroke-width: 0.500000; stroke-linejoin: miter; stroke-linecap: butt;  opacity: 1.000000"  d="M 521.500000,176.400000 L 526.500000,176.400000"/>
<text style="font-size: 9.996000; font-family: Bitstream Vera Serif; font-style: Roman; fill: #000000;" x="51.125000" y="179.900000" >1.02</text>
</g>
<g id="ytick7">
<path style="fill: none; stroke: #000000; stroke-width: 0.500000; stroke-linejoin: miter; stroke-linecap: butt;  opacity: 1.000000"  d="M 73.125000,132.300000 L 78.125000,132.300000"/>
<path style="fill: none; stroke: #000000; stroke-width: 0.500000; stroke-linejoin: miter; stroke-linecap: butt;  opacity: 1.000000"  d="M 521.500000,132.300000 L 526.500000,132.300000"/>
<text style="font-size: 9.996000; font-family: Bitstream Vera Serif; font-style: Roman; fill: #000000;" x="51.125000" y="135.800000" >1.04</text>
</g>
<g id="ytick8">
<path style="fill: none; stroke: #000000; stroke-width: 0.500000; stroke-linejoin: miter; stroke-linecap: butt;  opacity: 1.000000"  d="M 73.125000,88.200000 L 78.125000,88.200000"/>
<path style="fill: none; stroke: #000000; stroke-width: 0.500000; stroke-linejoin: miter; stroke-linecap: butt;  opacity: 1.000000"  d="M 521.500000,88.200000 L 526.500000,88.200000"/>
<text style="font-size: 9.996000; font-family: Bitstream Vera Serif; font-style: Roman; fill: #000000;" x="51.125000" y="91.700000" >1.06</text>
</g>
<g id="ytick9">
<text style="font-size: 9.996000; font-family: Bitstream Vera Serif; font-style: Roman; fill: #000000;" x="51.125000" y="47.600000" >1.08</text>
</g>
</g>
<path style="fill: none; stroke: #000000; stroke-width: 1.000000; stroke-linejoin: miter; stroke-linecap: square;  opacity: 1.000000"  d="M 73.125000,396.900000 L 526.500000,396.900000 L 526.500000,44.100000 L 73.125000,44.100000 L 73.125000,396.900000 "/>
<text style="font-size: 14.400000; font-family: Bitstream Vera Serif; font-style: Roman; fill: #000000;" x="-13.687500" y="37.044000" >Final_4 a_ratio approx vs exact. a=-1 b=2 B=0.3 gap=0.01, mse1=0.0000, mse2=0.0183</text>
<g id="legend1">
<polygon style="fill: #ffffff; stroke: #000000; stroke-width: 0.500000; stroke-linejoin: miter; stroke-linecap: square;  opacity: 1.000000"  points = "367.989000,94.636320 367.989000,51.156000 517.432500,51.156000 517.432500,94.636320"/>
<path style="fill: none; stroke: #0000ff; stroke-width: 0.500000; stroke-linejoin: miter; stroke-linecap: square;  opacity: 1.000000"  d="M 382.242625,59.779360 L 389.798875,59.779360 L 397.355125,59.779360 L 404.911375,59.779360 "/>
<path style="fill: none; stroke: #008000; stroke-width: 0.500000; stroke-linejoin: miter; stroke-linecap: square;  opacity: 1.000000"  d="M 382.242625,72.896160 L 389.798875,72.896160 L 397.355125,72.896160 L 404.911375,72.896160 "/>
<path style="fill: none; stroke: #ff0000; stroke-width: 0.500000; stroke-linejoin: miter; stroke-linecap: square;  opacity: 1.000000"  d="M 382.242625,86.012960 L 389.798875,86.012960 L 397.355125,86.012960 L 404.911375,86.012960 "/>
<text style="font-size: 9.996000; font-family: Bitstream Vera Serif; font-style: Roman; fill: #000000;" x="413.978875" y="64.779360" >approx_alpha_ratio</text>
<text style="font-size: 9.996000; font-family: Bitstream Vera Serif; font-style: Roman; fill: #000000;" x="413.978875" y="77.896160" >exact_alpha_ratio1</text>
<text style="font-size: 9.996000; font-family: Bitstream Vera Serif; font-style: Roman; fill: #000000;" x="413.978875" y="91.012960" >exact_alpha_ratio2</text>
</g>
</g>
</g>
</svg>
