<?xml version="1.0" standalone="no"?>
<!DOCTYPE svg PUBLIC "-//W3C//DTD SVG 1.1//EN"
  "http://www.w3.org/Graphics/SVG/1.1/DTD/svg11.dtd">
<!-- Created with matplotlib (http://matplotlib.sourceforge.net/) -->
<svg width="585" height="441" viewBox="0 0 585 441"
   xmlns="http://www.w3.org/2000/svg"
   xmlns:xlink="http://www.w3.org/1999/xlink"
   version="1.1"
   id="svg1">
<g id="figure1">
<polygon style="fill: #ffffff; stroke: #ffffff; stroke-width: 1.000000; stroke-linejoin: miter; stroke-linecap: square;  opacity: 1.000000"  points = "0.000000,441.000000 0.000000,0.000000 585.000000,0.000000 585.000000,441.000000"/>
<g id="axes1">
<polygon style="fill: #ffffff; stroke: #000000; stroke-width: 1.000000; stroke-linejoin: miter; stroke-linecap: square;  opacity: 1.000000"  points = "73.125000,396.900000 73.125000,44.100000 526.500000,44.100000 526.500000,396.900000"/>
<defs>
    <clipPath id="7240474723315632415">
    <rect x="73.125000" y="44.100000" width="453.375000" height="352.800000"
    style="stroke: gray; fill: none;"/>
    </clipPath>
</defs>
<path style="fill: none; stroke: #0000ff; stroke-width: 0.500000; stroke-linejoin: miter; stroke-linecap: square;  opacity: 1.000000" clip-path="url(#7240474723315632415)" d="M 73.125000,313.092771 L 75.391875,305.937116 L 77.658750,312.717869 L 79.925625,296.763709 L 82.192500,296.663202 L 84.459375,293.560616 L 86.726250,299.426114 L 88.993125,306.082875 L 91.260000,313.079696 L 93.526875,312.456837 L 95.793750,312.479473 L 98.060625,324.957934 L 100.327500,325.695792 L 102.594375,314.017675 L 104.861250,308.238425 L 107.128125,311.938663 L 109.395000,310.773822 L 111.661875,322.082252 L 113.928750,315.415399 L 116.195625,333.236543 L 118.462500,339.830189 L 120.729375,334.181265 L 122.996250,317.105015 L 125.263125,303.439439 L 127.530000,317.998343 L 129.796875,298.636769 L 132.063750,302.957157 L 134.330625,290.296420 L 136.597500,298.671924 L 138.864375,289.142857 L 141.131250,292.811693 L 143.398125,286.466758 L 145.665000,295.425819 L 147.931875,285.358628 L 150.198750,284.182050 L 152.465625,282.043098 L 154.732500,284.361348 L 156.999375,282.410949 L 159.266250,271.904438 L 161.533125,276.572957 L 163.800000,287.972233 L 166.066875,285.096187 L 168.333750,282.038067 L 170.600625,278.285606 L 172.867500,285.778969 L 175.134375,268.869897 L 177.401250,273.668614 L 179.668125,269.123897 L 181.935000,276.798595 L 184.201875,272.606541 L 186.468750,268.605217 L 188.735625,265.865123 L 191.002500,269.645053 L 193.269375,274.053480 L 195.536250,272.171644 L 197.803125,267.470505 L 200.070000,266.408311 L 202.336875,268.929259 L 204.603750,253.322883 L 206.870625,259.294065 L 209.137500,252.039772 L 211.404375,252.818800 L 213.671250,241.942736 L 215.938125,228.243331 L 218.205000,229.771819 L 220.471875,223.857379 L 222.738750,218.201796 L 225.005625,207.128766 L 227.272500,205.575704 L 229.539375,211.989252 L 231.806250,217.984103 L 234.073125,213.301175 L 236.340000,214.854998 L 238.606875,213.917560 L 240.873750,215.915257 L 243.140625,215.955778 L 245.407500,226.492467 L 247.674375,207.720944 L 249.941250,218.670200 L 252.208125,229.619580 L 254.475000,226.635390 L 256.741875,233.623974 L 259.008750,230.637835 L 261.275625,232.412844 L 263.542500,234.065093 L 265.809375,234.755926 L 268.076250,229.148933 L 270.343125,215.800410 L 272.610000,207.187196 L 274.876875,200.946596 L 277.143750,198.184156 L 279.410625,190.285854 L 281.677500,189.602712 L 283.944375,190.654141 L 286.211250,196.374698 L 288.478125,198.676975 L 290.745000,186.276904 L 293.011875,191.083471 L 295.278750,201.840235 L 297.545625,206.741755 L 299.812500,214.607205 L 302.079375,214.074463 L 304.346250,206.384460 L 306.613125,200.515349 L 308.880000,205.972036 L 311.146875,205.457590 L 313.413750,204.952577 L 315.680625,197.915622 L 317.947500,198.778581 L 320.214375,189.356388 L 322.481250,188.098387 L 324.748125,178.811443 L 327.015000,186.818942 L 329.281875,191.566675 L 331.548750,180.773392 L 333.815625,184.154784 L 336.082500,183.673393 L 338.349375,185.127676 L 340.616250,180.915404 L 342.883125,183.798222 L 345.150000,171.787646 L 347.416875,153.444608 L 349.683750,158.349104 L 351.950625,143.878327 L 354.217500,141.618363 L 356.484375,146.305761 L 358.751250,139.612044 L 361.018125,141.516419 L 363.285000,153.986749 L 365.551875,143.931369 L 367.818750,146.363898 L 370.085625,160.444460 L 372.352500,147.730435 L 374.619375,134.332072 L 376.886250,137.337585 L 379.153125,127.016962 L 381.420000,136.021691 L 383.686875,135.304640 L 385.953750,151.488268 L 388.220625,153.118200 L 390.487500,152.888952 L 392.754375,153.313952 L 395.021250,154.529061 L 397.288125,157.658318 L 399.555000,147.138759 L 401.821875,147.109422 L 404.088750,139.681931 L 406.355625,147.192341 L 408.622500,153.152019 L 410.889375,159.047034 L 413.156250,153.175836 L 415.423125,169.833422 L 417.690000,165.949472 L 419.956875,166.750880 L 422.223750,169.529817 L 424.490625,161.268089 L 426.757500,172.116833 L 429.024375,197.651092 L 431.291250,208.716987 L 433.558125,206.232906 L 435.825000,201.616830 L 438.091875,211.112249 L 440.358750,218.137309 L 442.625625,217.255501 L 444.892500,208.838513 L 447.159375,204.385702 L 449.426250,204.888135 L 451.693125,199.793821 L 453.960000,203.285663 L 456.226875,199.597780 L 458.493750,210.571987 L 460.760625,205.746869 L 463.027500,205.005852 L 465.294375,203.267210 L 467.561250,196.515619 L 469.828125,186.767577 L 472.095000,187.687559 L 474.361875,190.326194 L 476.628750,188.845077 L 478.895625,199.468923 L 481.162500,197.017638 L 483.429375,197.388637 L 485.696250,189.167327 L 487.963125,191.432477 L 490.230000,183.109456 L 492.496875,181.128312 L 494.763750,197.649310 L 497.030625,204.366322 L 499.297500,213.494099 L 501.564375,213.406864 L 503.831250,221.859460 L 506.098125,235.556623 L 508.365000,231.691015 L 510.631875,241.319843 L 512.898750,249.209886 L 515.165625,242.863927 L 517.432500,246.391320 L 519.699375,236.254088 L 521.966250,247.649154 L 524.233125,244.914481 L 526.500000,252.992681 "/>
<path style="fill: none; stroke: #008000; stroke-width: 0.500000; stroke-linejoin: miter; stroke-linecap: square;  opacity: 1.000000" clip-path="url(#7240474723315632415)" d="M 73.125000,340.385662 L 75.391875,344.368093 L 77.658750,342.778774 L 79.925625,341.553485 L 82.192500,341.909275 L 84.459375,339.224559 L 86.726250,341.810557 L 88.993125,339.492694 L 91.260000,338.038161 L 93.526875,336.565841 L 95.793750,335.769259 L 98.060625,335.163663 L 100.327500,335.267527 L 102.594375,335.414004 L 104.861250,336.746578 L 107.128125,335.321810 L 109.395000,335.497371 L 111.661875,334.826509 L 113.928750,337.439904 L 116.195625,336.475199 L 118.462500,336.588774 L 120.729375,337.499018 L 122.996250,335.130310 L 125.263125,337.175432 L 127.530000,338.265253 L 129.796875,338.826706 L 132.063750,340.232364 L 134.330625,339.843199 L 136.597500,340.233288 L 138.864375,340.771835 L 141.131250,336.583839 L 143.398125,337.414498 L 145.665000,340.037838 L 147.931875,337.016309 L 150.198750,336.024654 L 152.465625,334.151994 L 154.732500,335.880958 L 156.999375,334.673855 L 159.266250,330.408660 L 161.533125,327.896941 L 163.800000,328.168805 L 166.066875,331.516989 L 168.333750,332.724898 L 170.600625,332.687557 L 172.867500,332.369793 L 175.134375,331.980722 L 177.401250,331.936311 L 179.668125,333.937502 L 181.935000,336.410513 L 184.201875,331.361577 L 186.468750,331.129786 L 188.735625,331.337160 L 191.002500,329.377781 L 193.269375,331.057753 L 195.536250,329.698986 L 197.803125,328.558421 L 200.070000,327.614781 L 202.336875,324.925965 L 204.603750,324.776640 L 206.870625,319.990152 L 209.137500,318.466971 L 211.404375,318.552895 L 213.671250,318.208331 L 215.938125,316.669931 L 218.205000,312.512363 L 220.471875,307.212128 L 222.738750,309.305926 L 225.005625,306.709752 L 227.272500,307.094623 L 229.539375,307.145389 L 231.806250,305.075293 L 234.073125,301.954740 L 236.340000,299.911941 L 238.606875,299.288537 L 240.873750,300.175729 L 243.140625,297.689845 L 245.407500,295.405697 L 247.674375,291.889730 L 249.941250,290.188951 L 252.208125,288.425036 L 254.475000,285.714753 L 256.741875,285.771168 L 259.008750,286.434077 L 261.275625,289.977320 L 263.542500,287.036251 L 265.809375,280.051880 L 268.076250,283.400244 L 270.343125,283.256916 L 272.610000,277.691013 L 274.876875,273.285477 L 277.143750,271.020407 L 279.410625,266.966682 L 281.677500,267.266926 L 283.944375,266.094261 L 286.211250,263.967314 L 288.478125,261.804994 L 290.745000,257.891559 L 293.011875,258.728573 L 295.278750,256.338536 L 297.545625,254.833527 L 299.812500,256.183369 L 302.079375,257.206017 L 304.346250,257.854790 L 306.613125,255.293621 L 308.880000,256.045701 L 311.146875,250.545672 L 313.413750,250.566405 L 315.680625,252.124195 L 317.947500,249.141346 L 320.214375,247.728236 L 322.481250,244.937586 L 324.748125,238.593703 L 327.015000,238.288141 L 329.281875,237.734931 L 331.548750,238.239677 L 333.815625,234.729003 L 336.082500,231.628483 L 338.349375,230.431271 L 340.616250,227.940769 L 342.883125,227.076287 L 345.150000,223.739856 L 347.416875,221.247859 L 349.683750,218.393220 L 351.950625,219.054377 L 354.217500,214.802293 L 356.484375,214.015268 L 358.751250,211.046943 L 361.018125,208.893432 L 363.285000,199.972984 L 365.551875,193.989423 L 367.818750,194.982065 L 370.085625,188.917977 L 372.352500,191.242997 L 374.619375,187.764867 L 376.886250,185.414122 L 379.153125,182.815798 L 381.420000,179.689985 L 383.686875,177.606876 L 385.953750,175.096043 L 388.220625,173.253305 L 390.487500,171.452823 L 392.754375,172.211169 L 395.021250,168.884442 L 397.288125,166.662618 L 399.555000,166.234172 L 401.821875,164.807625 L 404.088750,163.293037 L 406.355625,162.199658 L 408.622500,158.280377 L 410.889375,153.540307 L 413.156250,153.461379 L 415.423125,148.843554 L 417.690000,146.151694 L 419.956875,142.094835 L 422.223750,146.274156 L 424.490625,143.995806 L 426.757500,142.277341 L 429.024375,142.247547 L 431.291250,141.893536 L 433.558125,138.558963 L 435.825000,138.585083 L 438.091875,138.660158 L 440.358750,136.161515 L 442.625625,136.570893 L 444.892500,137.481138 L 447.159375,134.571606 L 449.426250,132.140240 L 451.693125,129.399086 L 453.960000,126.661178 L 456.226875,121.810834 L 458.493750,124.018924 L 460.760625,126.820279 L 463.027500,124.574338 L 465.294375,123.788736 L 467.561250,121.349923 L 469.828125,117.934846 L 472.095000,117.814230 L 474.361875,112.100714 L 476.628750,113.241841 L 478.895625,112.797248 L 481.162500,113.898185 L 483.429375,112.725342 L 485.696250,113.110327 L 487.963125,113.224150 L 490.230000,109.391268 L 492.496875,106.130552 L 494.763750,101.796678 L 497.030625,94.412947 L 499.297500,95.857323 L 501.564375,97.922759 L 503.831250,96.990914 L 506.098125,94.299151 L 508.365000,94.461406 L 510.631875,95.568668 L 512.898750,90.074826 L 515.165625,85.580548 L 517.432500,83.838020 L 519.699375,81.861073 L 521.966250,81.049972 L 524.233125,78.481247 L 526.500000,82.488490 "/>
<path style="fill: none; stroke: #ff0000; stroke-width: 0.500000; stroke-linejoin: miter; stroke-linecap: square;  opacity: 1.000000" clip-path="url(#7240474723315632415)" d="M 73.125000,351.443691 L 75.391875,372.529299 L 77.658750,361.549274 L 79.925625,353.330917 L 82.192500,353.841508 L 84.459375,339.100237 L 86.726250,351.103184 L 88.993125,338.896166 L 91.260000,331.524097 L 93.526875,324.544283 L 95.793750,321.017188 L 98.060625,318.533852 L 100.327500,319.249431 L 102.594375,320.097573 L 104.861250,325.869813 L 107.128125,319.904484 L 109.395000,320.790691 L 111.661875,318.205064 L 113.928750,328.882949 L 116.195625,324.853940 L 118.462500,325.247949 L 120.729375,328.721118 L 122.996250,319.371271 L 125.263125,327.345577 L 127.530000,331.334579 L 129.796875,333.147256 L 132.063750,338.056698 L 134.330625,336.036638 L 136.597500,336.999048 L 138.864375,338.468731 L 141.131250,322.470600 L 143.398125,325.508353 L 145.665000,334.973153 L 147.931875,323.532194 L 150.198750,319.899055 L 152.465625,313.239969 L 154.732500,319.756101 L 156.999375,315.517056 L 159.266250,300.574109 L 161.533125,292.450285 L 163.800000,294.425107 L 166.066875,307.177247 L 168.333750,311.954090 L 170.600625,312.167531 L 172.867500,311.384855 L 175.134375,310.379195 L 177.401250,310.618414 L 179.668125,318.025740 L 181.935000,326.839632 L 184.201875,308.983101 L 186.468750,308.611919 L 188.735625,309.784031 L 191.002500,303.375712 L 193.269375,309.841218 L 195.536250,305.524801 L 197.803125,302.120919 L 200.070000,299.520139 L 202.336875,290.994956 L 204.603750,291.516994 L 206.870625,276.131432 L 209.137500,272.463374 L 211.404375,274.398134 L 213.671250,274.803736 L 215.938125,271.130397 L 218.205000,258.725982 L 220.471875,243.024223 L 222.738750,252.607976 L 225.005625,246.166418 L 227.272500,249.937366 L 229.539375,252.474387 L 231.806250,247.790530 L 234.073125,239.759311 L 236.340000,235.617816 L 238.606875,236.347452 L 240.873750,242.116766 L 243.140625,236.398554 L 245.407500,231.559204 L 247.674375,222.805559 L 249.941250,220.374161 L 252.208125,217.814265 L 254.475000,212.220107 L 256.741875,215.934487 L 259.008750,221.568765 L 261.275625,236.743930 L 263.542500,229.649553 L 265.809375,209.397891 L 268.076250,224.183254 L 270.343125,226.907983 L 272.610000,211.432376 L 274.876875,200.450202 L 277.143750,196.897529 L 279.410625,187.636402 L 281.677500,192.871162 L 283.944375,193.140857 L 286.211250,190.273234 L 288.478125,187.383408 L 290.745000,178.887668 L 293.011875,186.149889 L 295.278750,182.642821 L 297.545625,182.144878 L 299.812500,191.067550 L 302.079375,198.709024 L 304.346250,204.911250 L 306.613125,200.157756 L 308.880000,206.674045 L 311.146875,192.046346 L 313.413750,196.331197 L 315.680625,205.666768 L 317.947500,199.464933 L 320.214375,198.736408 L 322.481250,193.429857 L 324.748125,176.598901 L 327.015000,180.232783 L 329.281875,182.954312 L 331.548750,189.120990 L 333.815625,181.759583 L 336.082500,176.024910 L 338.349375,176.749927 L 340.616250,173.192304 L 342.883125,175.101920 L 345.150000,168.816668 L 347.416875,165.516926 L 349.683750,161.143303 L 351.950625,168.412197 L 354.217500,159.357233 L 356.484375,161.929274 L 358.751250,157.290579 L 361.018125,155.461807 L 363.285000,131.956071 L 365.551875,118.874167 L 367.818750,128.115853 L 370.085625,114.880210 L 372.352500,128.483363 L 374.619375,123.318883 L 376.886250,121.899534 L 379.153125,119.734067 L 381.420000,115.959335 L 383.686875,115.604725 L 385.953750,113.901194 L 388.220625,114.371563 L 390.487500,114.966044 L 392.754375,123.793731 L 395.021250,119.186786 L 397.288125,118.291075 L 399.555000,123.234339 L 401.821875,124.806495 L 404.088750,126.049592 L 406.355625,128.642762 L 408.622500,121.900803 L 410.889375,112.756549 L 413.156250,118.995139 L 415.423125,110.340910 L 417.690000,108.191147 L 419.956875,101.733873 L 422.223750,122.114041 L 424.490625,120.936670 L 426.757500,121.635750 L 429.024375,127.900208 L 431.291250,132.942525 L 433.558125,127.911989 L 435.825000,134.222934 L 438.091875,140.552288 L 440.358750,138.050361 L 442.625625,145.412043 L 444.892500,154.305216 L 447.159375,149.950015 L 449.426250,147.367094 L 451.693125,143.830663 L 453.960000,140.428813 L 456.226875,130.134046 L 458.493750,143.649275 L 460.760625,158.972211 L 463.027500,156.719731 L 465.294375,159.506162 L 467.561250,156.585241 L 469.828125,150.474033 L 472.095000,155.673652 L 474.361875,141.918951 L 476.628750,151.562516 L 478.895625,155.631351 L 481.162500,164.841382 L 483.429375,166.053940 L 485.696250,172.550521 L 487.963125,177.936405 L 490.230000,169.639814 L 492.496875,163.611707 L 494.763750,154.215560 L 497.030625,135.170494 L 499.297500,145.858260 L 501.564375,158.446034 L 503.831250,160.651553 L 506.098125,156.868589 L 508.365000,162.802782 L 510.631875,171.795906 L 512.898750,158.182879 L 515.165625,148.495737 L 517.432500,148.281437 L 519.699375,147.296713 L 521.966250,150.211522 L 524.233125,147.201746 L 526.500000,166.296154 "/>
<g id="matplotlib.axis1">
<g id="xtick1">
<text style="font-size: 9.996000; font-family: Bitstream Vera Serif; font-style: Roman; fill: #000000;" x="70.625000" y="406.900000" >0</text>
</g>
<g id="xtick2">
<path style="fill: none; stroke: #000000; stroke-width: 0.500000; stroke-linejoin: miter; stroke-linecap: butt;  opacity: 1.000000"  d="M 186.468750,396.900000 L 186.468750,391.900000"/>
<path style="fill: none; stroke: #000000; stroke-width: 0.500000; stroke-linejoin: miter; stroke-linecap: butt;  opacity: 1.000000"  d="M 186.468750,49.100000 L 186.468750,44.100000"/>
<text style="font-size: 9.996000; font-family: Bitstream Vera Serif; font-style: Roman; fill: #000000;" x="180.968750" y="406.900000" >50</text>
</g>
<g id="xtick3">
<path style="fill: none; stroke: #000000; stroke-width: 0.500000; stroke-linejoin: miter; stroke-linecap: butt;  opacity: 1.000000"  d="M 299.812500,396.900000 L 299.812500,391.900000"/>
<path style="fill: none; stroke: #000000; stroke-width: 0.500000; stroke-linejoin: miter; stroke-linecap: butt;  opacity: 1.000000"  d="M 299.812500,49.100000 L 299.812500,44.100000"/>
<text style="font-size: 9.996000; font-family: Bitstream Vera Serif; font-style: Roman; fill: #000000;" x="291.812500" y="406.900000" >100</text>
</g>
<g id="xtick4">
<path style="fill: none; stroke: #000000; stroke-width: 0.500000; stroke-linejoin: miter; stroke-linecap: butt;  opacity: 1.000000"  d="M 413.156250,396.900000 L 413.156250,391.900000"/>
<path style="fill: none; stroke: #000000; stroke-width: 0.500000; stroke-linejoin: miter; stroke-linecap: butt;  opacity: 1.000000"  d="M 413.156250,49.100000 L 413.156250,44.100000"/>
<text style="font-size: 9.996000; font-family: Bitstream Vera Serif; font-style: Roman; fill: #000000;" x="405.156250" y="406.900000" >150</text>
</g>
<g id="xtick5">
<text style="font-size: 9.996000; font-family: Bitstream Vera Serif; font-style: Roman; fill: #000000;" x="518.000000" y="406.900000" >200</text>
</g>
<text style="font-size: 12.000000; font-family: Bitstream Vera Serif; font-style: Roman; fill: #000000;" x="296.312500" y="418.900000" >n</text>
</g>
<g id="matplotlib.axis2">
<g id="ytick1">
<text style="font-size: 9.996000; font-family: Bitstream Vera Serif; font-style: Roman; fill: #000000;" x="54.125000" y="400.400000" >-0.1</text>
</g>
<g id="ytick2">
<path style="fill: none; stroke: #000000; stroke-width: 0.500000; stroke-linejoin: miter; stroke-linecap: butt;  opacity: 1.000000"  d="M 73.125000,338.100000 L 78.125000,338.100000"/>
<path style="fill: none; stroke: #000000; stroke-width: 0.500000; stroke-linejoin: miter; stroke-linecap: butt;  opacity: 1.000000"  d="M 521.500000,338.100000 L 526.500000,338.100000"/>
<text style="font-size: 9.996000; font-family: Bitstream Vera Serif; font-style: Roman; fill: #000000;" x="56.125000" y="341.600000" >0.0</text>
</g>
<g id="ytick3">
<path style="fill: none; stroke: #000000; stroke-width: 0.500000; stroke-linejoin: miter; stroke-linecap: butt;  opacity: 1.000000"  d="M 73.125000,279.300000 L 78.125000,279.300000"/>
<path style="fill: none; stroke: #000000; stroke-width: 0.500000; stroke-linejoin: miter; stroke-linecap: butt;  opacity: 1.000000"  d="M 521.500000,279.300000 L 526.500000,279.300000"/>
<text style="font-size: 9.996000; font-family: Bitstream Vera Serif; font-style: Roman; fill: #000000;" x="57.125000" y="282.800000" >0.1</text>
</g>
<g id="ytick4">
<path style="fill: none; stroke: #000000; stroke-width: 0.500000; stroke-linejoin: miter; stroke-linecap: butt;  opacity: 1.000000"  d="M 73.125000,220.500000 L 78.125000,220.500000"/>
<path style="fill: none; stroke: #000000; stroke-width: 0.500000; stroke-linejoin: miter; stroke-linecap: butt;  opacity: 1.000000"  d="M 521.500000,220.500000 L 526.500000,220.500000"/>
<text style="font-size: 9.996000; font-family: Bitstream Vera Serif; font-style: Roman; fill: #000000;" x="56.125000" y="224.000000" >0.2</text>
</g>
<g id="ytick5">
<path style="fill: none; stroke: #000000; stroke-width: 0.500000; stroke-linejoin: miter; stroke-linecap: butt;  opacity: 1.000000"  d="M 73.125000,161.700000 L 78.125000,161.700000"/>
<path style="fill: none; stroke: #000000; stroke-width: 0.500000; stroke-linejoin: miter; stroke-linecap: butt;  opacity: 1.000000"  d="M 521.500000,161.700000 L 526.500000,161.700000"/>
<text style="font-size: 9.996000; font-family: Bitstream Vera Serif; font-style: Roman; fill: #000000;" x="56.125000" y="165.200000" >0.3</text>
</g>
<g id="ytick6">
<path style="fill: none; stroke: #000000; stroke-width: 0.500000; stroke-linejoin: miter; stroke-linecap: butt;  opacity: 1.000000"  d="M 73.125000,102.900000 L 78.125000,102.900000"/>
<path style="fill: none; stroke: #000000; stroke-width: 0.500000; stroke-linejoin: miter; stroke-linecap: butt;  opacity: 1.000000"  d="M 521.500000,102.900000 L 526.500000,102.900000"/>
<text style="font-size: 9.996000; font-family: Bitstream Vera Serif; font-style: Roman; fill: #000000;" x="56.125000" y="106.400000" >0.4</text>
</g>
<g id="ytick7">
<text style="font-size: 9.996000; font-family: Bitstream Vera Serif; font-style: Roman; fill: #000000;" x="56.125000" y="47.600000" >0.5</text>
</g>
</g>
<path style="fill: none; stroke: #000000; stroke-width: 1.000000; stroke-linejoin: miter; stroke-linecap: square;  opacity: 1.000000"  d="M 73.125000,396.900000 L 526.500000,396.900000 L 526.500000,44.100000 L 73.125000,44.100000 L 73.125000,396.900000 "/>
<text style="font-size: 14.400000; font-family: Bitstream Vera Serif; font-style: Roman; fill: #000000;" x="58.312500" y="37.044000" >Final_3_corrected cont. state space filtering. gap=0.01, mse=0.0043</text>
<g id="legend1">
<polygon style="fill: #ffffff; stroke: #000000; stroke-width: 0.500000; stroke-linejoin: miter; stroke-linecap: square;  opacity: 1.000000"  points = "436.389000,86.716320 436.389000,51.156000 517.432500,51.156000 517.432500,86.716320"/>
<path style="fill: none; stroke: #0000ff; stroke-width: 0.500000; stroke-linejoin: miter; stroke-linecap: square;  opacity: 1.000000"  d="M 444.942625,57.619360 L 452.498875,57.619360 L 460.055125,57.619360 L 467.611375,57.619360 "/>
<path style="fill: none; stroke: #008000; stroke-width: 0.500000; stroke-linejoin: miter; stroke-linecap: square;  opacity: 1.000000"  d="M 444.942625,67.436160 L 452.498875,67.436160 L 460.055125,67.436160 L 467.611375,67.436160 "/>
<path style="fill: none; stroke: #ff0000; stroke-width: 0.500000; stroke-linejoin: miter; stroke-linecap: square;  opacity: 1.000000"  d="M 444.942625,78.752960 L 452.498875,78.752960 L 460.055125,78.752960 L 467.611375,78.752960 "/>
<text style="font-size: 9.996000; font-family: Bitstream Vera Serif; font-style: Roman; fill: #000000;" x="476.678875" y="61.119360" >Xn</text>
<text style="font-size: 9.996000; font-family: Bitstream Vera Serif; font-style: Roman; fill: #000000;" x="476.678875" y="70.936160" >Un</text>
<text style="font-size: 9.996000; font-family: Bitstream Vera Serif; font-style: Roman; fill: #000000;" x="476.678875" y="83.752960" >Xn_hat</text>
</g>
</g>
</g>
</svg>
