<?xml version="1.0" standalone="no"?>
<!DOCTYPE svg PUBLIC "-//W3C//DTD SVG 1.1//EN"
  "http://www.w3.org/Graphics/SVG/1.1/DTD/svg11.dtd">
<!-- Created with matplotlib (http://matplotlib.sourceforge.net/) -->
<svg width="576" height="432" viewBox="0 0 576 432"
   xmlns="http://www.w3.org/2000/svg"
   xmlns:xlink="http://www.w3.org/1999/xlink"
   version="1.1"
   id="svg1">
<g id="figure1">
<polygon style="fill: #ffffff; stroke: #ffffff; stroke-width: 1.000000; stroke-linejoin: miter; stroke-linecap: square;  opacity: 1.000000"  points = "0.000000,432.000000 0.000000,0.000000 576.000000,0.000000 576.000000,432.000000"/>
<g id="axes1">
<polygon style="fill: #ffffff; stroke: #000000; stroke-width: 1.000000; stroke-linejoin: miter; stroke-linecap: square;  opacity: 1.000000"  points = "72.000000,388.800000 72.000000,43.200000 518.400000,43.200000 518.400000,388.800000"/>
<defs>
    <clipPath id="-8582347323069147106">
    <rect x="72.000000" y="43.200000" width="446.400000" height="345.600000"
    style="stroke: gray; fill: none;"/>
    </clipPath>
</defs>
<path style="fill: none; stroke: #0000ff; stroke-width: 0.500000; stroke-linejoin: miter; stroke-linecap: square;  opacity: 1.000000" clip-path="url(#-8582347323069147106)" d="M 72.000000,306.703122 L 74.232000,299.693502 L 76.464000,306.335871 L 78.696000,290.707307 L 80.928000,290.608851 L 83.160000,287.569583 L 85.392000,293.315377 L 87.624000,299.836286 L 89.856000,306.690314 L 92.088000,306.080167 L 94.320000,306.102341 L 96.552000,318.326139 L 98.784000,319.048939 L 101.016000,307.609151 L 103.248000,301.947845 L 105.480000,305.572568 L 107.712000,304.431499 L 109.944000,315.509144 L 112.176000,308.978350 L 114.408000,326.435797 L 116.640000,332.894879 L 118.872000,327.361239 L 121.104000,310.633484 L 123.336000,297.246797 L 125.568000,311.508581 L 127.800000,292.542141 L 130.032000,296.774358 L 132.264000,284.372004 L 134.496000,292.576578 L 136.728000,283.241982 L 138.960000,286.835944 L 141.192000,280.620498 L 143.424000,289.396721 L 145.656000,279.534982 L 147.888000,278.382417 L 150.120000,276.287116 L 152.352000,278.558055 L 154.584000,276.647460 L 156.816000,266.355367 L 159.048000,270.928611 L 161.280000,282.095248 L 163.512000,279.277898 L 165.744000,276.282188 L 167.976000,272.606308 L 170.208000,279.946745 L 172.440000,263.382757 L 174.672000,268.083541 L 176.904000,263.631572 L 179.136000,271.149644 L 181.368000,267.043142 L 183.600000,263.123478 L 185.832000,260.439304 L 188.064000,264.142093 L 190.296000,268.460552 L 192.528000,266.617120 L 194.760000,262.011923 L 196.992000,260.971407 L 199.224000,263.440906 L 201.456000,248.153028 L 203.688000,254.002350 L 205.920000,246.896103 L 208.152000,247.659232 L 210.384000,237.005129 L 212.616000,223.585304 L 214.848000,225.082598 L 217.080000,219.288861 L 219.312000,213.748698 L 221.544000,202.901649 L 223.776000,201.380282 L 226.008000,207.662940 L 228.240000,213.535448 L 230.472000,208.948089 L 232.704000,210.470202 L 234.936000,209.551896 L 237.168000,211.508824 L 239.400000,211.548517 L 241.632000,221.870172 L 243.864000,203.481741 L 246.096000,214.207543 L 248.328000,224.933466 L 250.560000,222.010178 L 252.792000,228.856138 L 255.024000,225.930941 L 257.256000,227.669724 L 259.488000,229.288254 L 261.720000,229.964989 L 263.952000,224.472425 L 266.184000,211.396320 L 268.416000,202.958886 L 270.648000,196.845645 L 272.880000,194.139581 L 275.112000,186.402469 L 277.344000,185.733269 L 279.576000,186.763241 L 281.808000,192.367052 L 284.040000,194.622342 L 286.272000,182.475335 L 288.504000,187.183808 L 290.736000,197.721047 L 292.968000,202.522536 L 295.200000,210.227466 L 297.432000,209.705596 L 299.664000,202.172532 L 301.896000,196.423199 L 304.128000,201.768525 L 306.360000,201.264578 L 308.592000,200.769871 L 310.824000,193.876528 L 313.056000,194.721876 L 315.288000,185.491972 L 317.520000,184.259645 L 319.752000,175.162230 L 321.984000,183.006311 L 324.216000,187.657151 L 326.448000,177.084139 L 328.680000,180.396523 L 330.912000,179.924956 L 333.144000,181.349560 L 335.376000,177.223253 L 337.608000,180.047238 L 339.840000,168.281776 L 342.072000,150.313085 L 344.304000,155.117490 L 346.536000,140.942034 L 348.768000,138.728193 L 351.000000,143.319929 L 353.232000,136.762819 L 355.464000,138.628329 L 357.696000,150.844163 L 359.928000,140.993994 L 362.160000,143.376880 L 364.392000,157.170083 L 366.624000,144.715528 L 368.856000,131.590602 L 371.088000,134.534777 L 373.320000,124.424779 L 375.552000,133.245738 L 377.784000,132.543320 L 380.016000,148.396671 L 382.248000,149.993339 L 384.480000,149.768770 L 386.712000,150.185096 L 388.944000,151.375407 L 391.176000,154.440802 L 393.408000,144.135927 L 395.640000,144.107188 L 397.872000,136.831279 L 400.104000,144.188415 L 402.336000,150.026468 L 404.568000,155.801176 L 406.800000,150.049799 L 409.032000,166.367434 L 411.264000,162.562748 L 413.496000,163.347800 L 415.728000,166.070025 L 417.960000,157.976904 L 420.192000,168.604245 L 422.424000,193.617396 L 424.656000,204.457456 L 426.888000,202.024072 L 429.120000,197.502201 L 431.352000,206.803836 L 433.584000,213.685527 L 435.816000,212.821716 L 438.048000,204.576502 L 440.280000,200.214565 L 442.512000,200.706744 L 444.744000,195.716396 L 446.976000,199.136976 L 449.208000,195.524356 L 451.440000,206.274599 L 453.672000,201.547954 L 455.904000,200.822059 L 458.136000,199.118899 L 460.368000,192.505096 L 462.600000,182.955994 L 464.832000,183.857201 L 467.064000,186.441986 L 469.296000,184.991096 L 471.528000,195.398129 L 473.760000,192.996870 L 475.992000,193.360297 L 478.224000,185.306769 L 480.456000,187.525691 L 482.688000,179.372528 L 484.920000,177.431816 L 487.152000,193.615651 L 489.384000,200.195581 L 491.616000,209.137076 L 493.848000,209.051622 L 496.080000,217.331716 L 498.312000,230.749345 L 500.544000,226.962627 L 502.776000,236.394949 L 505.008000,244.123970 L 507.240000,237.907520 L 509.472000,241.362926 L 511.704000,231.432576 L 513.936000,242.595090 L 516.168000,239.916226 L 518.400000,247.829565 "/>
<path style="fill: none; stroke: #008000; stroke-width: 0.500000; stroke-linejoin: miter; stroke-linecap: square;  opacity: 1.000000" clip-path="url(#-8582347323069147106)" d="M 72.000000,333.439016 L 74.232000,337.340173 L 76.464000,335.783288 L 78.696000,334.583005 L 80.928000,334.931535 L 83.160000,332.301609 L 85.392000,334.834831 L 87.624000,332.564271 L 89.856000,331.139423 L 92.088000,329.697151 L 94.320000,328.916825 L 96.552000,328.323588 L 98.784000,328.425333 L 101.016000,328.568820 L 103.248000,329.874199 L 105.480000,328.478508 L 107.712000,328.650486 L 109.944000,327.993315 L 112.176000,330.553376 L 114.408000,329.608358 L 116.640000,329.719615 L 118.872000,330.611283 L 121.104000,328.290916 L 123.336000,330.294301 L 125.568000,331.361880 L 127.800000,331.911875 L 130.032000,333.288846 L 132.264000,332.907624 L 134.496000,333.289752 L 136.728000,333.817308 L 138.960000,329.714782 L 141.192000,330.528487 L 143.424000,333.098290 L 145.656000,330.138425 L 147.888000,329.167008 L 150.120000,327.332565 L 152.352000,329.026245 L 154.584000,327.843776 L 156.816000,323.665626 L 159.048000,321.205166 L 161.280000,321.471483 L 163.512000,324.751336 L 165.744000,325.934594 L 167.976000,325.898015 L 170.208000,325.586736 L 172.440000,325.205605 L 174.672000,325.162100 L 176.904000,327.122451 L 179.136000,329.544993 L 181.368000,324.599096 L 183.600000,324.372035 L 185.832000,324.575177 L 188.064000,322.655785 L 190.296000,324.301472 L 192.528000,322.970435 L 194.760000,321.853148 L 196.992000,320.928765 L 199.224000,318.294823 L 201.456000,318.148545 L 203.688000,313.459741 L 205.920000,311.967645 L 208.152000,312.051816 L 210.384000,311.714283 L 212.616000,310.207279 L 214.848000,306.134560 L 217.080000,300.942492 L 219.312000,302.993560 L 221.544000,300.450370 L 223.776000,300.827385 L 226.008000,300.877116 L 228.240000,298.849267 L 230.472000,295.792398 L 232.704000,293.791289 L 234.936000,293.180607 L 237.168000,294.049694 L 239.400000,291.614542 L 241.632000,289.377010 L 243.864000,285.932797 L 246.096000,284.266727 L 248.328000,282.538811 L 250.560000,279.883840 L 252.792000,279.939103 L 255.024000,280.588484 L 257.256000,284.059416 L 259.488000,281.178368 L 261.720000,274.336536 L 263.952000,277.616565 L 266.184000,277.476162 L 268.416000,272.023849 L 270.648000,267.708222 L 272.880000,265.489378 L 275.112000,261.518383 L 277.344000,261.812499 L 279.576000,260.663766 L 281.808000,258.580226 L 284.040000,256.462035 L 286.272000,252.628466 L 288.504000,253.448398 L 290.736000,251.107137 L 292.968000,249.632843 L 295.200000,250.955137 L 297.432000,251.956915 L 299.664000,252.592447 L 301.896000,250.083547 L 304.128000,250.820278 L 306.360000,245.432495 L 308.592000,245.452805 L 310.824000,246.978803 L 313.056000,244.056828 L 315.288000,242.672557 L 317.520000,239.938860 L 319.752000,233.724443 L 321.984000,233.425118 L 324.216000,232.883198 L 326.448000,233.377643 L 328.680000,229.938615 L 330.912000,226.901371 L 333.144000,225.728592 L 335.376000,223.288917 L 337.608000,222.442077 L 339.840000,219.173737 L 342.072000,216.732597 L 344.304000,213.936216 L 346.536000,214.583880 L 348.768000,210.418573 L 351.000000,209.647609 L 353.232000,206.739863 L 355.464000,204.630301 L 357.696000,195.891903 L 359.928000,190.030456 L 362.160000,191.002839 L 364.392000,185.062508 L 366.624000,187.340078 L 368.856000,183.932931 L 371.088000,181.630160 L 373.320000,179.084863 L 375.552000,176.022842 L 377.784000,173.982246 L 380.016000,171.522655 L 382.248000,169.717523 L 384.480000,167.953786 L 386.712000,168.696655 L 388.944000,165.437821 L 391.176000,163.261340 L 393.408000,162.841638 L 395.640000,161.444204 L 397.872000,159.960526 L 400.104000,158.889461 L 402.336000,155.050165 L 404.568000,150.406832 L 406.800000,150.329515 L 409.032000,145.805930 L 411.264000,143.169006 L 413.496000,139.194941 L 415.728000,143.288969 L 417.960000,141.057116 L 420.192000,139.373722 L 422.424000,139.344536 L 424.656000,138.997750 L 426.888000,135.731229 L 429.120000,135.756816 L 431.352000,135.830359 L 433.584000,133.382708 L 435.816000,133.783732 L 438.048000,134.675400 L 440.280000,131.825246 L 442.512000,129.443500 L 444.744000,126.758289 L 446.976000,124.076256 L 449.208000,119.324899 L 451.440000,121.487925 L 453.672000,124.232110 L 455.904000,122.032004 L 458.136000,121.262435 L 460.368000,118.873394 L 462.600000,115.528013 L 464.832000,115.409858 L 467.064000,109.812944 L 469.296000,110.930783 L 471.528000,110.495263 L 473.760000,111.573732 L 475.992000,110.424825 L 478.224000,110.801953 L 480.456000,110.913453 L 482.688000,107.158794 L 484.920000,103.964622 L 487.152000,99.719195 L 489.384000,92.486152 L 491.616000,93.901052 L 493.848000,95.924335 L 496.080000,95.011507 L 498.312000,92.374678 L 500.544000,92.533622 L 502.776000,93.618287 L 505.008000,88.236564 L 507.240000,83.834007 L 509.472000,82.127040 L 511.704000,80.190439 L 513.936000,79.395891 L 516.168000,76.879589 L 518.400000,80.805051 "/>
<path style="fill: none; stroke: #ff0000; stroke-width: 0.500000; stroke-linejoin: miter; stroke-linecap: square;  opacity: 1.000000" clip-path="url(#-8582347323069147106)" d="M 72.000000,331.200000 L 74.232000,343.706707 L 76.464000,364.364873 L 78.696000,353.606547 L 80.928000,345.554578 L 83.160000,346.054527 L 85.392000,331.613036 L 87.624000,343.371357 L 89.856000,331.412696 L 92.088000,324.191022 L 94.320000,317.353934 L 96.552000,313.899013 L 98.784000,311.466511 L 101.016000,312.167268 L 103.248000,312.997880 L 105.480000,318.651645 L 107.712000,312.808543 L 109.944000,313.676469 L 112.176000,311.143837 L 114.408000,321.602718 L 116.640000,317.656153 L 118.872000,318.042020 L 121.104000,321.443995 L 123.336000,312.285755 L 125.568000,320.096504 L 127.800000,324.003822 L 130.032000,325.779391 L 132.264000,330.588522 L 134.496000,328.609659 L 136.728000,329.552382 L 138.960000,330.992035 L 141.192000,315.321149 L 143.424000,318.296599 L 145.656000,327.567735 L 147.888000,316.360892 L 150.120000,312.802262 L 152.352000,306.279987 L 154.584000,312.662201 L 156.816000,308.510214 L 159.048000,293.875135 L 161.280000,285.919292 L 163.512000,287.853225 L 165.744000,300.342002 L 167.976000,305.020456 L 170.208000,305.229493 L 172.440000,304.462913 L 174.672000,303.477946 L 176.904000,303.712230 L 179.136000,310.967227 L 181.368000,319.600333 L 183.600000,302.110566 L 185.832000,301.747024 L 188.064000,302.894988 L 190.296000,296.618765 L 192.528000,302.950985 L 194.760000,298.723511 L 196.992000,295.389854 L 199.224000,292.842781 L 201.456000,284.493963 L 203.688000,285.005186 L 205.920000,269.939057 L 208.152000,266.347380 L 210.384000,268.241843 L 212.616000,268.639002 L 214.848000,265.042186 L 217.080000,252.896820 L 219.312000,237.524368 L 221.544000,246.906951 L 223.776000,240.600554 L 226.008000,244.292354 L 228.240000,246.776177 L 230.472000,242.190579 L 232.704000,234.328160 L 234.936000,230.273871 L 237.168000,230.988144 L 239.400000,236.636045 L 241.632000,231.038181 L 243.864000,226.300842 L 246.096000,217.732081 L 248.328000,215.352126 L 250.560000,212.846429 L 252.792000,207.370842 L 255.024000,211.006489 L 257.256000,216.521488 L 259.488000,231.376337 L 261.720000,224.431536 L 263.952000,204.608541 L 266.184000,219.080709 L 268.416000,221.747866 L 270.648000,206.599868 L 272.880000,195.851053 L 275.112000,192.374030 L 277.344000,183.310437 L 279.576000,188.433500 L 281.808000,188.697454 L 284.040000,185.891011 L 286.272000,183.062887 L 288.504000,174.748804 L 290.736000,181.855738 L 292.968000,178.423638 L 295.200000,177.936353 L 297.432000,186.668434 L 299.664000,194.147047 L 301.896000,200.217335 L 304.128000,195.564944 L 306.360000,201.942674 L 308.592000,187.626363 L 310.824000,191.819875 L 313.056000,200.956807 L 315.288000,194.886878 L 317.520000,194.173865 L 319.752000,188.980381 L 321.984000,172.509111 L 324.216000,176.065207 L 326.448000,178.728530 L 328.680000,184.763464 L 330.912000,177.559359 L 333.144000,171.947442 L 335.376000,172.656937 L 337.608000,169.175549 L 339.840000,171.044246 L 342.072000,164.893780 L 344.304000,161.664892 L 346.536000,157.385272 L 348.768000,164.498013 L 351.000000,155.637632 L 353.232000,158.154366 L 355.464000,153.615465 L 357.696000,151.826072 L 359.928000,128.827964 L 362.160000,116.029800 L 364.392000,125.070979 L 366.624000,112.122664 L 368.856000,125.430554 L 371.088000,120.378084 L 373.320000,118.989551 L 375.552000,116.871112 L 377.784000,113.178399 L 380.016000,112.831510 L 382.248000,111.165026 L 384.480000,111.625181 L 386.712000,112.206748 L 388.944000,120.842726 L 391.176000,116.335795 L 393.408000,115.459548 L 395.640000,120.295496 L 397.872000,121.833548 L 400.104000,123.049690 L 402.336000,125.586647 L 404.568000,118.990919 L 406.800000,110.045355 L 409.032000,116.148358 L 411.264000,107.682282 L 413.496000,105.579319 L 415.728000,99.262731 L 417.960000,119.199572 L 420.192000,118.047762 L 422.424000,118.731668 L 424.656000,124.860242 L 426.888000,129.793324 L 429.120000,124.871766 L 431.352000,131.046013 L 433.584000,137.238471 L 435.816000,134.790628 L 438.048000,141.993249 L 440.280000,150.694645 L 442.512000,146.433300 L 444.744000,143.906087 L 446.976000,140.445990 L 449.208000,137.117632 L 451.440000,127.045634 L 453.672000,140.268517 L 455.904000,155.261145 L 458.136000,153.057134 L 460.368000,155.783595 L 462.600000,152.925527 L 464.832000,146.945977 L 467.064000,152.033556 L 469.296000,138.575532 L 471.528000,148.010987 L 473.760000,151.992159 L 475.992000,161.004091 L 478.224000,162.190596 L 480.456000,168.547760 L 482.688000,173.818236 L 484.920000,165.699467 L 487.152000,159.800801 L 489.384000,150.606814 L 491.616000,131.972944 L 493.848000,142.429726 L 496.080000,154.746214 L 498.312000,156.904285 L 500.544000,153.202714 L 502.776000,159.009257 L 505.008000,167.809293 L 507.240000,154.488705 L 509.472000,145.010275 L 511.704000,144.800600 L 513.936000,143.837123 L 516.168000,146.689062 L 518.400000,143.744208 "/>
<g id="matplotlib.axis1">
<g id="xtick1">
<text style="font-size: 9.996000; font-family: Bitstream Vera Serif; font-style: Roman; fill: #000000;" x="69.500000" y="398.800000" >0</text>
</g>
<g id="xtick2">
<path style="fill: none; stroke: #000000; stroke-width: 0.500000; stroke-linejoin: miter; stroke-linecap: butt;  opacity: 1.000000"  d="M 183.600000,388.800000 L 183.600000,383.800000"/>
<path style="fill: none; stroke: #000000; stroke-width: 0.500000; stroke-linejoin: miter; stroke-linecap: butt;  opacity: 1.000000"  d="M 183.600000,48.200000 L 183.600000,43.200000"/>
<text style="font-size: 9.996000; font-family: Bitstream Vera Serif; font-style: Roman; fill: #000000;" x="178.100000" y="398.800000" >50</text>
</g>
<g id="xtick3">
<path style="fill: none; stroke: #000000; stroke-width: 0.500000; stroke-linejoin: miter; stroke-linecap: butt;  opacity: 1.000000"  d="M 295.200000,388.800000 L 295.200000,383.800000"/>
<path style="fill: none; stroke: #000000; stroke-width: 0.500000; stroke-linejoin: miter; stroke-linecap: butt;  opacity: 1.000000"  d="M 295.200000,48.200000 L 295.200000,43.200000"/>
<text style="font-size: 9.996000; font-family: Bitstream Vera Serif; font-style: Roman; fill: #000000;" x="287.200000" y="398.800000" >100</text>
</g>
<g id="xtick4">
<path style="fill: none; stroke: #000000; stroke-width: 0.500000; stroke-linejoin: miter; stroke-linecap: butt;  opacity: 1.000000"  d="M 406.800000,388.800000 L 406.800000,383.800000"/>
<path style="fill: none; stroke: #000000; stroke-width: 0.500000; stroke-linejoin: miter; stroke-linecap: butt;  opacity: 1.000000"  d="M 406.800000,48.200000 L 406.800000,43.200000"/>
<text style="font-size: 9.996000; font-family: Bitstream Vera Serif; font-style: Roman; fill: #000000;" x="398.800000" y="398.800000" >150</text>
</g>
<g id="xtick5">
<text style="font-size: 9.996000; font-family: Bitstream Vera Serif; font-style: Roman; fill: #000000;" x="509.900000" y="398.800000" >200</text>
</g>
<text style="font-size: 12.000000; font-family: Bitstream Vera Serif; font-style: Roman; fill: #000000;" x="291.700000" y="410.800000" >n</text>
</g>
<g id="matplotlib.axis2">
<g id="ytick1">
<text style="font-size: 9.996000; font-family: Bitstream Vera Serif; font-style: Roman; fill: #000000;" x="53.000000" y="392.300000" >-0.1</text>
</g>
<g id="ytick2">
<path style="fill: none; stroke: #000000; stroke-width: 0.500000; stroke-linejoin: miter; stroke-linecap: butt;  opacity: 1.000000"  d="M 72.000000,331.200000 L 77.000000,331.200000"/>
<path style="fill: none; stroke: #000000; stroke-width: 0.500000; stroke-linejoin: miter; stroke-linecap: butt;  opacity: 1.000000"  d="M 513.400000,331.200000 L 518.400000,331.200000"/>
<text style="font-size: 9.996000; font-family: Bitstream Vera Serif; font-style: Roman; fill: #000000;" x="55.000000" y="334.700000" >0.0</text>
</g>
<g id="ytick3">
<path style="fill: none; stroke: #000000; stroke-width: 0.500000; stroke-linejoin: miter; stroke-linecap: butt;  opacity: 1.000000"  d="M 72.000000,273.600000 L 77.000000,273.600000"/>
<path style="fill: none; stroke: #000000; stroke-width: 0.500000; stroke-linejoin: miter; stroke-linecap: butt;  opacity: 1.000000"  d="M 513.400000,273.600000 L 518.400000,273.600000"/>
<text style="font-size: 9.996000; font-family: Bitstream Vera Serif; font-style: Roman; fill: #000000;" x="56.000000" y="277.100000" >0.1</text>
</g>
<g id="ytick4">
<path style="fill: none; stroke: #000000; stroke-width: 0.500000; stroke-linejoin: miter; stroke-linecap: butt;  opacity: 1.000000"  d="M 72.000000,216.000000 L 77.000000,216.000000"/>
<path style="fill: none; stroke: #000000; stroke-width: 0.500000; stroke-linejoin: miter; stroke-linecap: butt;  opacity: 1.000000"  d="M 513.400000,216.000000 L 518.400000,216.000000"/>
<text style="font-size: 9.996000; font-family: Bitstream Vera Serif; font-style: Roman; fill: #000000;" x="55.000000" y="219.500000" >0.2</text>
</g>
<g id="ytick5">
<path style="fill: none; stroke: #000000; stroke-width: 0.500000; stroke-linejoin: miter; stroke-linecap: butt;  opacity: 1.000000"  d="M 72.000000,158.400000 L 77.000000,158.400000"/>
<path style="fill: none; stroke: #000000; stroke-width: 0.500000; stroke-linejoin: miter; stroke-linecap: butt;  opacity: 1.000000"  d="M 513.400000,158.400000 L 518.400000,158.400000"/>
<text style="font-size: 9.996000; font-family: Bitstream Vera Serif; font-style: Roman; fill: #000000;" x="55.000000" y="161.900000" >0.3</text>
</g>
<g id="ytick6">
<path style="fill: none; stroke: #000000; stroke-width: 0.500000; stroke-linejoin: miter; stroke-linecap: butt;  opacity: 1.000000"  d="M 72.000000,100.800000 L 77.000000,100.800000"/>
<path style="fill: none; stroke: #000000; stroke-width: 0.500000; stroke-linejoin: miter; stroke-linecap: butt;  opacity: 1.000000"  d="M 513.400000,100.800000 L 518.400000,100.800000"/>
<text style="font-size: 9.996000; font-family: Bitstream Vera Serif; font-style: Roman; fill: #000000;" x="55.000000" y="104.300000" >0.4</text>
</g>
<g id="ytick7">
<text style="font-size: 9.996000; font-family: Bitstream Vera Serif; font-style: Roman; fill: #000000;" x="55.000000" y="46.700000" >0.5</text>
</g>
</g>
<path style="fill: none; stroke: #000000; stroke-width: 1.000000; stroke-linejoin: miter; stroke-linecap: square;  opacity: 1.000000"  d="M 72.000000,388.800000 L 518.400000,388.800000 L 518.400000,43.200000 L 72.000000,43.200000 L 72.000000,388.800000 "/>
<text style="font-size: 14.400000; font-family: Bitstream Vera Serif; font-style: Roman; fill: #000000;" x="91.700000" y="36.288000" >Final_3 cont. state space filtering. gap=0.01, mse=0.0046</text>
<g id="legend1">
<polygon style="fill: #ffffff; stroke: #000000; stroke-width: 0.500000; stroke-linejoin: miter; stroke-linecap: square;  opacity: 1.000000"  points = "429.014400,85.568640 429.014400,50.112000 509.472000,50.112000 509.472000,85.568640"/>
<path style="fill: none; stroke: #0000ff; stroke-width: 0.500000; stroke-linejoin: miter; stroke-linecap: square;  opacity: 1.000000"  d="M 437.519200,56.566720 L 444.959200,56.566720 L 452.399200,56.566720 L 459.839200,56.566720 "/>
<path style="fill: none; stroke: #008000; stroke-width: 0.500000; stroke-linejoin: miter; stroke-linecap: square;  opacity: 1.000000"  d="M 437.519200,66.340320 L 444.959200,66.340320 L 452.399200,66.340320 L 459.839200,66.340320 "/>
<path style="fill: none; stroke: #ff0000; stroke-width: 0.500000; stroke-linejoin: miter; stroke-linecap: square;  opacity: 1.000000"  d="M 437.519200,77.613920 L 444.959200,77.613920 L 452.399200,77.613920 L 459.839200,77.613920 "/>
<text style="font-size: 9.996000; font-family: Bitstream Vera Serif; font-style: Roman; fill: #000000;" x="468.767200" y="60.066720" >Xn</text>
<text style="font-size: 9.996000; font-family: Bitstream Vera Serif; font-style: Roman; fill: #000000;" x="468.767200" y="69.840320" >Un</text>
<text style="font-size: 9.996000; font-family: Bitstream Vera Serif; font-style: Roman; fill: #000000;" x="468.767200" y="82.613920" >Xn_hat</text>
</g>
</g>
</g>
</svg>
