<?xml version="1.0" standalone="no"?>
<!DOCTYPE svg PUBLIC "-//W3C//DTD SVG 1.1//EN"
  "http://www.w3.org/Graphics/SVG/1.1/DTD/svg11.dtd">
<!-- Created with matplotlib (http://matplotlib.sourceforge.net/) -->
<svg width="585" height="441" viewBox="0 0 585 441"
   xmlns="http://www.w3.org/2000/svg"
   xmlns:xlink="http://www.w3.org/1999/xlink"
   version="1.1"
   id="svg1">
<g id="figure1">
<polygon style="fill: #ffffff; stroke: #ffffff; stroke-width: 1.000000; stroke-linejoin: miter; stroke-linecap: square;  opacity: 1.000000"  points = "0.000000,441.000000 0.000000,0.000000 585.000000,0.000000 585.000000,441.000000"/>
<g id="axes1">
<polygon style="fill: #ffffff; stroke: #000000; stroke-width: 1.000000; stroke-linejoin: miter; stroke-linecap: square;  opacity: 1.000000"  points = "73.125000,396.900000 73.125000,44.100000 526.500000,44.100000 526.500000,396.900000"/>
<defs>
    <clipPath id="7240474723315632415">
    <rect x="73.125000" y="44.100000" width="453.375000" height="352.800000"
    style="stroke: gray; fill: none;"/>
    </clipPath>
</defs>
<path style="fill: none; stroke: #0000ff; stroke-width: 0.500000; stroke-linejoin: miter; stroke-linecap: square;  opacity: 1.000000" clip-path="url(#7240474723315632415)" d="M 73.125000,264.380233 L 73.578375,269.228783 L 74.031750,273.969760 L 74.485125,278.595250 L 74.938500,283.098251 L 75.391875,287.472692 L 75.845250,291.713445 L 76.298625,295.816315 L 76.752000,299.778027 L 77.205375,303.596196 L 77.658750,307.269290 L 78.112125,310.796583 L 78.565500,314.178106 L 79.018875,317.414584 L 79.472250,320.507384 L 79.925625,323.458444 L 80.379000,326.270215 L 80.832375,328.945597 L 81.285750,331.487876 L 81.739125,333.900664 L 82.192500,336.187845 L 82.645875,338.353519 L 83.099250,340.401953 L 83.552625,342.337536 L 84.006000,344.164734 L 84.459375,345.888057 L 84.912750,347.512020 L 85.366125,349.041120 L 85.819500,350.479803 L 86.272875,351.832446 L 86.726250,353.103338 L 87.179625,354.296662 L 87.633000,355.416487 L 88.086375,356.466749 L 88.539750,357.451254 L 88.993125,358.373663 L 89.446500,359.237493 L 89.899875,360.046115 L 90.353250,360.802750 L 90.806625,361.510470 L 91.260000,362.172203 L 91.713375,362.790732 L 92.166750,363.368697 L 92.620125,363.908601 L 93.073500,364.412814 L 93.526875,364.883576 L 93.980250,365.323001 L 94.433625,365.733085 L 94.887000,366.115708 L 95.340375,366.472639 L 95.793750,366.805545 L 96.247125,367.115989 L 96.700500,367.405443 L 97.153875,367.675285 L 97.607250,367.926811 L 98.060625,368.161234 L 98.514000,368.379691 L 98.967375,368.583246 L 99.420750,368.772898 L 99.874125,368.949578 L 100.327500,369.114159 L 100.780875,369.267457 L 101.234250,369.410234 L 101.687625,369.543203 L 102.141000,369.667029 L 102.594375,369.782334 L 103.047750,369.889698 L 103.501125,369.989662 L 103.954500,370.082732 L 104.407875,370.169378 L 104.861250,370.250041 L 105.314625,370.325132 L 105.768000,370.395031 L 106.221375,370.460096 L 106.674750,370.520659 L 107.128125,370.577030 L 107.581500,370.629498 L 108.034875,370.678331 L 108.488250,370.723780 L 108.941625,370.766079 L 109.395000,370.805445 L 109.848375,370.842081 L 110.301750,370.876176 L 110.755125,370.907905 L 111.208500,370.937432 L 111.661875,370.964909 L 112.115250,370.990478 L 112.568625,371.014272 L 113.022000,371.036413 L 113.475375,371.057017 L 113.928750,371.076189 L 114.382125,371.094029 L 114.835500,371.110629 L 115.288875,371.126076 L 115.742250,371.140448 L 116.195625,371.153822 L 116.649000,371.166266 L 117.102375,371.177845 L 117.555750,371.188619 L 118.009125,371.198644 L 118.462500,371.207972 L 118.915875,371.216651 L 119.369250,371.224726 L 119.822625,371.232240 L 120.276000,371.239231 L 120.729375,371.245736 L 121.182750,371.251788 L 121.636125,371.257419 L 122.089500,371.262659 L 122.542875,371.267534 L 122.996250,371.272070 L 123.449625,371.276290 L 123.903000,371.280217 L 124.356375,371.283870 L 124.809750,371.287270 L 125.263125,371.290432 L 125.716500,371.293375 L 126.169875,371.296113 L 126.623250,371.298660 L 127.076625,371.301030 L 127.530000,371.303236 L 127.983375,371.305287 L 128.436750,371.307196 L 128.890125,371.308972 L 129.343500,371.310625 L 129.796875,371.312163 L 130.250250,371.313593 L 130.703625,371.314924 L 131.157000,371.316162 L 131.610375,371.317315 L 132.063750,371.318386 L 132.517125,371.319384 L 132.970500,371.320312 L 133.423875,371.321175 L 133.877250,371.321978 L 134.330625,371.322726 L 134.784000,371.323421 L 135.237375,371.324068 L 135.690750,371.324670 L 136.144125,371.325230 L 136.597500,371.325751 L 137.050875,371.326236 L 137.504250,371.326687 L 137.957625,371.327107 L 138.411000,371.327497 L 138.864375,371.327861 L 139.317750,371.328198 L 139.771125,371.328513 L 140.224500,371.328806 L 140.677875,371.329078 L 141.131250,371.329331 L 141.584625,371.329567 L 142.038000,371.329786 L 142.491375,371.329990 L 142.944750,371.330180 L 143.398125,371.330356 L 143.851500,371.330521 L 144.304875,371.330673 L 144.758250,371.330816 L 145.211625,371.330948 L 145.665000,371.331071 L 146.118375,371.331186 L 146.571750,371.331292 L 147.025125,371.331391 L 147.478500,371.331484 L 147.931875,371.331569 L 148.385250,371.331649 L 148.838625,371.331724 L 149.292000,371.331793 L 149.745375,371.331857 L 150.198750,371.331917 L 150.652125,371.331973 L 151.105500,371.332024 L 151.558875,371.332073 L 152.012250,371.332117 L 152.465625,371.332159 L 152.919000,371.332198 L 153.372375,371.332234 L 153.825750,371.332268 L 154.279125,371.332299 L 154.732500,371.332328 L 155.185875,371.332355 L 155.639250,371.332380 L 156.092625,371.332404 L 156.546000,371.332425 L 156.999375,371.332446 L 157.452750,371.332465 L 157.906125,371.332482 L 158.359500,371.332498 L 158.812875,371.332514 L 159.266250,371.332528 L 159.719625,371.332541 L 160.173000,371.332553 L 160.626375,371.332565 L 161.079750,371.332575 L 161.533125,371.332585 L 161.986500,371.332594 L 162.439875,371.332603 L 162.893250,371.332611 L 163.346625,371.332618 L 163.800000,371.332625 L 164.253375,371.332631 L 164.706750,371.332637 L 165.160125,371.332643 L 165.613500,371.332648 L 166.066875,371.332653 L 166.520250,371.332657 L 166.973625,371.332661 L 167.427000,371.332665 L 167.880375,371.332669 L 168.333750,371.332672 L 168.787125,371.332675 L 169.240500,371.332678 L 169.693875,371.332681 L 170.147250,371.332683 L 170.600625,371.332686 L 171.054000,371.332688 L 171.507375,371.332690 L 171.960750,371.332692 L 172.414125,371.332693 L 172.867500,371.332695 L 173.320875,371.332697 L 173.774250,371.332698 L 174.227625,371.332699 L 174.681000,371.332700 L 175.134375,371.332702 L 175.587750,371.332703 L 176.041125,371.332704 L 176.494500,371.332705 L 176.947875,371.332705 L 177.401250,371.332706 L 177.854625,371.332707 L 178.308000,371.332708 L 178.761375,371.332708 L 179.214750,371.332709 L 179.668125,371.332709 L 180.121500,371.332710 L 180.574875,371.332710 L 181.028250,371.332711 L 181.481625,371.332711 L 181.935000,371.332712 L 182.388375,371.332712 L 182.841750,371.332712 L 183.295125,371.332713 L 183.748500,371.332713 L 184.201875,371.332713 L 184.655250,371.332713 L 185.108625,371.332714 L 185.562000,371.332714 L 186.015375,371.332714 L 186.468750,371.332714 L 186.922125,371.332714 L 187.375500,371.332715 L 187.828875,371.332715 L 188.282250,371.332715 L 188.735625,371.332715 L 189.189000,371.332715 L 189.642375,371.332715 L 190.095750,371.332715 L 190.549125,371.332715 L 191.002500,371.332716 L 191.455875,371.332716 L 191.909250,371.332716 L 192.362625,371.332716 L 192.816000,371.332716 L 193.269375,371.332716 L 193.722750,371.332716 L 194.176125,371.332716 L 194.629500,371.332716 L 195.082875,371.332716 L 195.536250,371.332716 L 195.989625,371.332716 L 196.443000,371.332716 L 196.896375,371.332716 L 197.349750,371.332716 L 197.803125,371.332716 L 198.256500,371.332716 L 198.709875,371.332716 L 199.163250,371.332716 L 199.616625,371.332716 L 200.070000,371.332716 L 200.523375,371.332716 L 200.976750,371.332716 L 201.430125,371.332717 L 201.883500,371.332717 L 202.336875,371.332717 L 202.790250,371.332717 L 203.243625,371.332717 L 203.697000,371.332717 L 204.150375,371.332717 L 204.603750,371.332717 L 205.057125,371.332717 L 205.510500,371.332717 L 205.963875,371.332717 L 206.417250,371.332717 L 206.870625,371.332717 L 207.324000,371.332717 L 207.777375,371.332717 L 208.230750,371.332717 L 208.684125,371.332717 L 209.137500,371.332717 L 209.590875,371.332717 L 210.044250,371.332717 L 210.497625,371.332717 L 210.951000,371.332717 L 211.404375,371.332717 L 211.857750,371.332717 L 212.311125,371.332717 L 212.764500,371.332717 L 213.217875,371.332717 L 213.671250,371.332717 L 214.124625,371.332717 L 214.578000,371.332717 L 215.031375,371.332717 L 215.484750,371.332717 L 215.938125,371.332717 L 216.391500,371.332717 L 216.844875,371.332717 L 217.298250,371.332717 L 217.751625,371.332717 L 218.205000,371.332717 L 218.658375,371.332717 L 219.111750,371.332717 L 219.565125,371.332717 L 220.018500,371.332717 L 220.471875,371.332717 L 220.925250,371.332717 L 221.378625,371.332717 L 221.832000,371.332717 L 222.285375,371.332717 L 222.738750,371.332717 L 223.192125,371.332717 L 223.645500,371.332717 L 224.098875,371.332717 L 224.552250,371.332717 L 225.005625,371.332717 L 225.459000,371.332717 L 225.912375,371.332717 L 226.365750,371.332717 L 226.819125,371.332717 L 227.272500,371.332717 L 227.725875,371.332717 L 228.179250,371.332717 L 228.632625,371.332717 L 229.086000,371.332717 L 229.539375,371.332717 L 229.992750,371.332717 L 230.446125,371.332717 L 230.899500,371.332717 L 231.352875,371.332717 L 231.806250,371.332717 L 232.259625,371.332717 L 232.713000,371.332717 L 233.166375,371.332717 L 233.619750,371.332717 L 234.073125,371.332717 L 234.526500,371.332717 L 234.979875,371.332717 L 235.433250,371.332717 L 235.886625,371.332717 L 236.340000,371.332717 L 236.793375,371.332717 L 237.246750,371.332717 L 237.700125,371.332717 L 238.153500,371.332717 L 238.606875,371.332717 L 239.060250,371.332717 L 239.513625,371.332717 L 239.967000,371.332717 L 240.420375,371.332717 L 240.873750,371.332717 L 241.327125,371.332717 L 241.780500,371.332717 L 242.233875,371.332717 L 242.687250,371.332717 L 243.140625,371.332717 L 243.594000,371.332717 L 244.047375,371.332717 L 244.500750,371.332717 L 244.954125,371.332717 L 245.407500,371.332717 L 245.860875,371.332717 L 246.314250,371.332717 L 246.767625,371.332717 L 247.221000,371.332717 L 247.674375,371.332717 L 248.127750,371.332717 L 248.581125,371.332717 L 249.034500,371.332717 L 249.487875,371.332717 L 249.941250,371.332717 L 250.394625,371.332717 L 250.848000,371.332717 L 251.301375,371.332717 L 251.754750,371.332717 L 252.208125,371.332717 L 252.661500,371.332717 L 253.114875,371.332717 L 253.568250,371.332717 L 254.021625,371.332717 L 254.475000,371.332717 L 254.928375,371.332717 L 255.381750,371.332717 L 255.835125,371.332717 L 256.288500,371.332717 L 256.741875,371.332717 L 257.195250,371.332717 L 257.648625,371.332717 L 258.102000,371.332717 L 258.555375,371.332717 L 259.008750,371.332717 L 259.462125,371.332717 L 259.915500,371.332717 L 260.368875,371.332717 L 260.822250,371.332717 L 261.275625,371.332717 L 261.729000,371.332717 L 262.182375,371.332717 L 262.635750,371.332717 L 263.089125,371.332717 L 263.542500,371.332717 L 263.995875,371.332717 L 264.449250,371.332717 L 264.902625,371.332717 L 265.356000,371.332717 L 265.809375,371.332717 L 266.262750,371.332717 L 266.716125,371.332717 L 267.169500,371.332717 L 267.622875,371.332717 L 268.076250,371.332717 L 268.529625,371.332717 L 268.983000,371.332717 L 269.436375,371.332717 L 269.889750,371.332717 L 270.343125,371.332717 L 270.796500,371.332717 L 271.249875,371.332717 L 271.703250,371.332717 L 272.156625,371.332717 L 272.610000,371.332717 L 273.063375,371.332717 L 273.516750,371.332717 L 273.970125,371.332717 L 274.423500,371.332717 L 274.876875,371.332717 L 275.330250,371.332717 L 275.783625,371.332717 L 276.237000,371.332717 L 276.690375,371.332717 L 277.143750,371.332717 L 277.597125,371.332717 L 278.050500,371.332717 L 278.503875,371.332717 L 278.957250,371.332717 L 279.410625,371.332717 L 279.864000,371.332717 L 280.317375,371.332717 L 280.770750,371.332717 L 281.224125,371.332717 L 281.677500,371.332717 L 282.130875,371.332717 L 282.584250,371.332717 L 283.037625,371.332717 L 283.491000,371.332717 L 283.944375,371.332717 L 284.397750,371.332717 L 284.851125,371.332717 L 285.304500,371.332717 L 285.757875,371.332717 L 286.211250,371.332717 L 286.664625,371.332717 L 287.118000,371.332717 L 287.571375,371.332717 L 288.024750,371.332717 L 288.478125,371.332717 L 288.931500,371.332717 L 289.384875,371.332717 L 289.838250,371.332717 L 290.291625,371.332717 L 290.745000,371.332717 L 291.198375,371.332717 L 291.651750,371.332717 L 292.105125,371.332717 L 292.558500,371.332717 L 293.011875,371.332717 L 293.465250,371.332717 L 293.918625,371.332717 L 294.372000,371.332717 L 294.825375,371.332717 L 295.278750,371.332717 L 295.732125,371.332717 L 296.185500,371.332717 L 296.638875,371.332717 L 297.092250,371.332717 L 297.545625,371.332717 L 297.999000,371.332717 L 298.452375,371.332717 L 298.905750,371.332717 L 299.359125,371.332717 L 299.812500,371.332717 L 300.265875,371.332717 L 300.719250,371.332717 L 301.172625,371.332717 L 301.626000,371.332717 L 302.079375,371.332717 L 302.532750,371.332717 L 302.986125,371.332717 L 303.439500,371.332717 L 303.892875,371.332717 L 304.346250,371.332717 L 304.799625,371.332717 L 305.253000,371.332717 L 305.706375,371.332717 L 306.159750,371.332717 L 306.613125,371.332717 L 307.066500,371.332717 L 307.519875,371.332717 L 307.973250,371.332717 L 308.426625,371.332717 L 308.880000,371.332717 L 309.333375,371.332717 L 309.786750,371.332717 L 310.240125,371.332717 L 310.693500,371.332717 L 311.146875,371.332717 L 311.600250,371.332717 L 312.053625,371.332717 L 312.507000,371.332717 L 312.960375,371.332717 L 313.413750,371.332717 L 313.867125,371.332717 L 314.320500,371.332717 L 314.773875,371.332717 L 315.227250,371.332717 L 315.680625,371.332717 L 316.134000,371.332717 L 316.587375,371.332717 L 317.040750,371.332717 L 317.494125,371.332717 L 317.947500,371.332717 L 318.400875,371.332717 L 318.854250,371.332717 L 319.307625,371.332717 L 319.761000,371.332717 L 320.214375,371.332717 L 320.667750,371.332717 L 321.121125,371.332717 L 321.574500,371.332717 L 322.027875,371.332717 L 322.481250,371.332717 L 322.934625,371.332717 L 323.388000,371.332717 L 323.841375,371.332717 L 324.294750,371.332717 L 324.748125,371.332717 L 325.201500,371.332717 L 325.654875,371.332717 L 326.108250,371.332717 L 326.561625,371.332717 L 327.015000,371.332717 L 327.468375,371.332717 L 327.921750,371.332717 L 328.375125,371.332717 L 328.828500,371.332717 L 329.281875,371.332717 L 329.735250,371.332717 L 330.188625,371.332717 L 330.642000,371.332717 L 331.095375,371.332717 L 331.548750,371.332717 L 332.002125,371.332717 L 332.455500,371.332717 L 332.908875,371.332717 L 333.362250,371.332717 L 333.815625,371.332717 L 334.269000,371.332717 L 334.722375,371.332717 L 335.175750,371.332717 L 335.629125,371.332717 L 336.082500,371.332717 L 336.535875,371.332717 L 336.989250,371.332717 L 337.442625,371.332717 L 337.896000,371.332717 L 338.349375,371.332717 L 338.802750,371.332717 L 339.256125,371.332717 L 339.709500,371.332717 L 340.162875,371.332717 L 340.616250,371.332717 L 341.069625,371.332717 L 341.523000,371.332717 L 341.976375,371.332717 L 342.429750,371.332717 L 342.883125,371.332717 L 343.336500,371.332717 L 343.789875,371.332717 L 344.243250,371.332717 L 344.696625,371.332717 L 345.150000,371.332717 L 345.603375,371.332717 L 346.056750,371.332717 L 346.510125,371.332717 L 346.963500,371.332717 L 347.416875,371.332717 L 347.870250,371.332717 L 348.323625,371.332717 L 348.777000,371.332717 L 349.230375,371.332717 L 349.683750,371.332717 L 350.137125,371.332717 L 350.590500,371.332717 L 351.043875,371.332717 L 351.497250,371.332717 L 351.950625,371.332717 L 352.404000,371.332717 L 352.857375,371.332717 L 353.310750,371.332717 L 353.764125,371.332717 L 354.217500,371.332717 L 354.670875,371.332717 L 355.124250,371.332717 L 355.577625,371.332717 L 356.031000,371.332717 L 356.484375,371.332717 L 356.937750,371.332717 L 357.391125,371.332717 L 357.844500,371.332717 L 358.297875,371.332717 L 358.751250,371.332717 L 359.204625,371.332717 L 359.658000,371.332717 L 360.111375,371.332717 L 360.564750,371.332717 L 361.018125,371.332717 L 361.471500,371.332717 L 361.924875,371.332717 L 362.378250,371.332717 L 362.831625,371.332717 L 363.285000,371.332717 L 363.738375,371.332717 L 364.191750,371.332717 L 364.645125,371.332717 L 365.098500,371.332717 L 365.551875,371.332717 L 366.005250,371.332717 L 366.458625,371.332717 L 366.912000,371.332717 L 367.365375,371.332717 L 367.818750,371.332717 L 368.272125,371.332717 L 368.725500,371.332717 L 369.178875,371.332717 L 369.632250,371.332717 L 370.085625,371.332717 L 370.539000,371.332717 L 370.992375,371.332717 L 371.445750,371.332717 L 371.899125,371.332717 L 372.352500,371.332717 L 372.805875,371.332717 L 373.259250,371.332717 L 373.712625,371.332717 L 374.166000,371.332717 L 374.619375,371.332717 L 375.072750,371.332717 L 375.526125,371.332717 L 375.979500,371.332717 L 376.432875,371.332717 L 376.886250,371.332717 L 377.339625,371.332717 L 377.793000,371.332717 L 378.246375,371.332717 L 378.699750,371.332717 L 379.153125,371.332717 L 379.606500,371.332717 L 380.059875,371.332717 L 380.513250,371.332717 L 380.966625,371.332717 L 381.420000,371.332717 L 381.873375,371.332717 L 382.326750,371.332717 L 382.780125,371.332717 L 383.233500,371.332717 L 383.686875,371.332717 L 384.140250,371.332717 L 384.593625,371.332717 L 385.047000,371.332717 L 385.500375,371.332717 L 385.953750,371.332717 L 386.407125,371.332717 L 386.860500,371.332717 L 387.313875,371.332717 L 387.767250,371.332717 L 388.220625,371.332717 L 388.674000,371.332717 L 389.127375,371.332717 L 389.580750,371.332717 L 390.034125,371.332717 L 390.487500,371.332717 L 390.940875,371.332717 L 391.394250,371.332717 L 391.847625,371.332717 L 392.301000,371.332717 L 392.754375,371.332717 L 393.207750,371.332717 L 393.661125,371.332717 L 394.114500,371.332717 L 394.567875,371.332717 L 395.021250,371.332717 L 395.474625,371.332717 L 395.928000,371.332717 L 396.381375,371.332717 L 396.834750,371.332717 L 397.288125,371.332717 L 397.741500,371.332717 L 398.194875,371.332717 L 398.648250,371.332717 L 399.101625,371.332717 L 399.555000,371.332717 L 400.008375,371.332717 L 400.461750,371.332717 L 400.915125,371.332717 L 401.368500,371.332717 L 401.821875,371.332717 L 402.275250,371.332717 L 402.728625,371.332717 L 403.182000,371.332717 L 403.635375,371.332717 L 404.088750,371.332717 L 404.542125,371.332717 L 404.995500,371.332717 L 405.448875,371.332717 L 405.902250,371.332717 L 406.355625,371.332717 L 406.809000,371.332717 L 407.262375,371.332717 L 407.715750,371.332717 L 408.169125,371.332717 L 408.622500,371.332717 L 409.075875,371.332717 L 409.529250,371.332717 L 409.982625,371.332717 L 410.436000,371.332717 L 410.889375,371.332717 L 411.342750,371.332717 L 411.796125,371.332717 L 412.249500,371.332717 L 412.702875,371.332717 L 413.156250,371.332717 L 413.609625,371.332717 L 414.063000,371.332717 L 414.516375,371.332717 L 414.969750,371.332717 L 415.423125,371.332717 L 415.876500,371.332717 L 416.329875,371.332717 L 416.783250,371.332717 L 417.236625,371.332717 L 417.690000,371.332717 L 418.143375,371.332717 L 418.596750,371.332717 L 419.050125,371.332717 L 419.503500,371.332717 L 419.956875,371.332717 L 420.410250,371.332717 L 420.863625,371.332717 L 421.317000,371.332717 L 421.770375,371.332717 L 422.223750,371.332717 L 422.677125,371.332717 L 423.130500,371.332717 L 423.583875,371.332717 L 424.037250,371.332717 L 424.490625,371.332717 L 424.944000,371.332717 L 425.397375,371.332717 L 425.850750,371.332717 L 426.304125,371.332717 L 426.757500,371.332717 L 427.210875,371.332717 L 427.664250,371.332717 L 428.117625,371.332717 L 428.571000,371.332717 L 429.024375,371.332717 L 429.477750,371.332717 L 429.931125,371.332717 L 430.384500,371.332717 L 430.837875,371.332717 L 431.291250,371.332717 L 431.744625,371.332717 L 432.198000,371.332717 L 432.651375,371.332717 L 433.104750,371.332717 L 433.558125,371.332717 L 434.011500,371.332717 L 434.464875,371.332717 L 434.918250,371.332717 L 435.371625,371.332717 L 435.825000,371.332717 L 436.278375,371.332717 L 436.731750,371.332717 L 437.185125,371.332717 L 437.638500,371.332717 L 438.091875,371.332717 L 438.545250,371.332717 L 438.998625,371.332717 L 439.452000,371.332717 L 439.905375,371.332717 L 440.358750,371.332717 L 440.812125,371.332717 L 441.265500,371.332717 L 441.718875,371.332717 L 442.172250,371.332717 L 442.625625,371.332717 L 443.079000,371.332717 L 443.532375,371.332717 L 443.985750,371.332717 L 444.439125,371.332717 L 444.892500,371.332717 L 445.345875,371.332717 L 445.799250,371.332717 L 446.252625,371.332717 L 446.706000,371.332717 L 447.159375,371.332717 L 447.612750,371.332717 L 448.066125,371.332717 L 448.519500,371.332717 L 448.972875,371.332717 L 449.426250,371.332717 L 449.879625,371.332717 L 450.333000,371.332717 L 450.786375,371.332717 L 451.239750,371.332717 L 451.693125,371.332717 L 452.146500,371.332717 L 452.599875,371.332717 L 453.053250,371.332717 L 453.506625,371.332717 L 453.960000,371.332717 L 454.413375,371.332717 L 454.866750,371.332717 L 455.320125,371.332717 L 455.773500,371.332717 L 456.226875,371.332717 L 456.680250,371.332717 L 457.133625,371.332717 L 457.587000,371.332717 L 458.040375,371.332717 L 458.493750,371.332717 L 458.947125,371.332717 L 459.400500,371.332717 L 459.853875,371.332717 L 460.307250,371.332717 L 460.760625,371.332717 L 461.214000,371.332717 L 461.667375,371.332717 L 462.120750,371.332717 L 462.574125,371.332717 L 463.027500,371.332717 L 463.480875,371.332717 L 463.934250,371.332717 L 464.387625,371.332717 L 464.841000,371.332717 L 465.294375,371.332717 L 465.747750,371.332717 L 466.201125,371.332717 L 466.654500,371.332717 L 467.107875,371.332717 L 467.561250,371.332717 L 468.014625,371.332717 L 468.468000,371.332717 L 468.921375,371.332717 L 469.374750,371.332717 L 469.828125,371.332717 L 470.281500,371.332717 L 470.734875,371.332717 L 471.188250,371.332717 L 471.641625,371.332717 L 472.095000,371.332717 L 472.548375,371.332717 L 473.001750,371.332717 L 473.455125,371.332717 L 473.908500,371.332717 L 474.361875,371.332717 L 474.815250,371.332717 L 475.268625,371.332717 L 475.722000,371.332717 L 476.175375,371.332717 L 476.628750,371.332717 L 477.082125,371.332717 L 477.535500,371.332717 L 477.988875,371.332717 L 478.442250,371.332717 L 478.895625,371.332717 L 479.349000,371.332717 L 479.802375,371.332717 L 480.255750,371.332717 L 480.709125,371.332717 L 481.162500,371.332717 L 481.615875,371.332717 L 482.069250,371.332717 L 482.522625,371.332717 L 482.976000,371.332717 L 483.429375,371.332717 L 483.882750,371.332717 L 484.336125,371.332717 L 484.789500,371.332717 L 485.242875,371.332717 L 485.696250,371.332717 L 486.149625,371.332717 L 486.603000,371.332717 L 487.056375,371.332717 L 487.509750,371.332717 L 487.963125,371.332717 L 488.416500,371.332717 L 488.869875,371.332717 L 489.323250,371.332717 L 489.776625,371.332717 L 490.230000,371.332717 L 490.683375,371.332717 L 491.136750,371.332717 L 491.590125,371.332717 L 492.043500,371.332717 L 492.496875,371.332717 L 492.950250,371.332717 L 493.403625,371.332717 L 493.857000,371.332717 L 494.310375,371.332717 L 494.763750,371.332717 L 495.217125,371.332717 L 495.670500,371.332717 L 496.123875,371.332717 L 496.577250,371.332717 L 497.030625,371.332717 L 497.484000,371.332717 L 497.937375,371.332717 L 498.390750,371.332717 L 498.844125,371.332717 L 499.297500,371.332717 L 499.750875,371.332717 L 500.204250,371.332717 L 500.657625,371.332717 L 501.111000,371.332717 L 501.564375,371.332717 L 502.017750,371.332717 L 502.471125,371.332717 L 502.924500,371.332717 L 503.377875,371.332717 L 503.831250,371.332717 L 504.284625,371.332717 L 504.738000,371.332717 L 505.191375,371.332717 L 505.644750,371.332717 L 506.098125,371.332717 L 506.551500,371.332717 L 507.004875,371.332717 L 507.458250,371.332717 L 507.911625,371.332717 L 508.365000,371.332717 L 508.818375,371.332717 L 509.271750,371.332717 L 509.725125,371.332717 L 510.178500,371.332717 L 510.631875,371.332717 L 511.085250,371.332717 L 511.538625,371.332717 L 511.992000,371.332717 L 512.445375,371.332717 L 512.898750,371.332717 L 513.352125,371.332717 L 513.805500,371.332717 L 514.258875,371.332717 L 514.712250,371.332717 L 515.165625,371.332717 L 515.619000,371.332717 L 516.072375,371.332717 L 516.525750,371.332717 L 516.979125,371.332717 L 517.432500,371.332717 L 517.885875,371.332717 L 518.339250,371.332717 L 518.792625,371.332717 L 519.246000,371.332717 L 519.699375,371.332717 L 520.152750,371.332717 L 520.606125,371.332717 L 521.059500,371.332717 L 521.512875,371.332717 L 521.966250,371.332717 L 522.419625,371.332717 L 522.873000,371.332717 L 523.326375,371.332717 L 523.779750,371.332717 L 524.233125,371.332717 L 524.686500,371.332717 L 525.139875,371.332717 L 525.593250,371.332717 L 526.046625,371.332717 "/>
<path style="fill: none; stroke: #008000; stroke-width: 0.500000; stroke-linejoin: miter; stroke-linecap: square;  opacity: 1.000000" clip-path="url(#7240474723315632415)" d="M 73.125000,365.209005 L 73.578375,365.209005 L 74.031750,365.209005 L 74.485125,365.209005 L 74.938500,365.209005 L 75.391875,365.209005 L 75.845250,365.209005 L 76.298625,365.209005 L 76.752000,365.209005 L 77.205375,365.209005 L 77.658750,365.209005 L 78.112125,365.209005 L 78.565500,365.209005 L 79.018875,365.209005 L 79.472250,365.209005 L 79.925625,365.209005 L 80.379000,365.209005 L 80.832375,365.209005 L 81.285750,365.209005 L 81.739125,365.209005 L 82.192500,365.209005 L 82.645875,365.209005 L 83.099250,365.209005 L 83.552625,365.209005 L 84.006000,365.209005 L 84.459375,365.209005 L 84.912750,365.209005 L 85.366125,365.209005 L 85.819500,365.209005 L 86.272875,365.209005 L 86.726250,365.209005 L 87.179625,365.209005 L 87.633000,365.209005 L 88.086375,365.209005 L 88.539750,365.209005 L 88.993125,365.209005 L 89.446500,365.209005 L 89.899875,365.209005 L 90.353250,365.209005 L 90.806625,365.209005 L 91.260000,365.209005 L 91.713375,365.209005 L 92.166750,365.209005 L 92.620125,365.209005 L 93.073500,365.209005 L 93.526875,365.209005 L 93.980250,365.209005 L 94.433625,365.209005 L 94.887000,365.209005 L 95.340375,365.209005 L 95.793750,365.209005 L 96.247125,365.209005 L 96.700500,365.209005 L 97.153875,365.209005 L 97.607250,365.209005 L 98.060625,365.209005 L 98.514000,365.209005 L 98.967375,365.209005 L 99.420750,365.209005 L 99.874125,365.209005 L 100.327500,365.209005 L 100.780875,365.209005 L 101.234250,365.209005 L 101.687625,365.209005 L 102.141000,365.209005 L 102.594375,365.209005 L 103.047750,365.209005 L 103.501125,365.209005 L 103.954500,365.209005 L 104.407875,365.209005 L 104.861250,365.209005 L 105.314625,365.209005 L 105.768000,365.209005 L 106.221375,365.209005 L 106.674750,365.209005 L 107.128125,365.209005 L 107.581500,365.209005 L 108.034875,365.209005 L 108.488250,365.209005 L 108.941625,365.209005 L 109.395000,365.209005 L 109.848375,365.209005 L 110.301750,365.209005 L 110.755125,365.209005 L 111.208500,365.209005 L 111.661875,365.209005 L 112.115250,365.209005 L 112.568625,365.209005 L 113.022000,365.209005 L 113.475375,365.209005 L 113.928750,365.209005 L 114.382125,365.209005 L 114.835500,365.209005 L 115.288875,365.209005 L 115.742250,365.209005 L 116.195625,365.209005 L 116.649000,365.209005 L 117.102375,365.209005 L 117.555750,365.209005 L 118.009125,365.209005 L 118.462500,365.209005 L 118.915875,365.209005 L 119.369250,365.209005 L 119.822625,365.209005 L 120.276000,365.209005 L 120.729375,365.209005 L 121.182750,365.209005 L 121.636125,365.209005 L 122.089500,365.209005 L 122.542875,365.209005 L 122.996250,365.209005 L 123.449625,365.209005 L 123.903000,365.209005 L 124.356375,365.209005 L 124.809750,365.209005 L 125.263125,365.209005 L 125.716500,365.209005 L 126.169875,365.209005 L 126.623250,365.209005 L 127.076625,365.209005 L 127.530000,365.209005 L 127.983375,365.209005 L 128.436750,365.209005 L 128.890125,365.209005 L 129.343500,365.209005 L 129.796875,365.209005 L 130.250250,365.209005 L 130.703625,365.209005 L 131.157000,365.209005 L 131.610375,365.209005 L 132.063750,365.209005 L 132.517125,365.209005 L 132.970500,365.209005 L 133.423875,365.209005 L 133.877250,365.209005 L 134.330625,365.209005 L 134.784000,365.209005 L 135.237375,365.209005 L 135.690750,365.209005 L 136.144125,365.209005 L 136.597500,365.209005 L 137.050875,365.209005 L 137.504250,365.209005 L 137.957625,365.209005 L 138.411000,365.209005 L 138.864375,365.209005 L 139.317750,365.209005 L 139.771125,365.209005 L 140.224500,365.209005 L 140.677875,365.209005 L 141.131250,365.209005 L 141.584625,365.209005 L 142.038000,365.209005 L 142.491375,365.209005 L 142.944750,365.209005 L 143.398125,365.209005 L 143.851500,365.209005 L 144.304875,365.209005 L 144.758250,365.209005 L 145.211625,365.209005 L 145.665000,365.209005 L 146.118375,365.209005 L 146.571750,365.209005 L 147.025125,365.209005 L 147.478500,365.209005 L 147.931875,365.209005 L 148.385250,365.209005 L 148.838625,365.209005 L 149.292000,365.209005 L 149.745375,365.209005 L 150.198750,365.209005 L 150.652125,365.209005 L 151.105500,365.209005 L 151.558875,365.209005 L 152.012250,365.209005 L 152.465625,365.209005 L 152.919000,365.209005 L 153.372375,365.209005 L 153.825750,365.209005 L 154.279125,365.209005 L 154.732500,365.209005 L 155.185875,365.209005 L 155.639250,365.209005 L 156.092625,365.209005 L 156.546000,365.209005 L 156.999375,365.209005 L 157.452750,365.209005 L 157.906125,365.209005 L 158.359500,365.209005 L 158.812875,365.209005 L 159.266250,365.209005 L 159.719625,365.209005 L 160.173000,365.209005 L 160.626375,365.209005 L 161.079750,365.209005 L 161.533125,365.209005 L 161.986500,365.209005 L 162.439875,365.209005 L 162.893250,365.209005 L 163.346625,365.209005 L 163.800000,365.209005 L 164.253375,365.209005 L 164.706750,365.209005 L 165.160125,365.209005 L 165.613500,365.209005 L 166.066875,365.209005 L 166.520250,365.209005 L 166.973625,365.209005 L 167.427000,365.209005 L 167.880375,365.209005 L 168.333750,365.209005 L 168.787125,365.209005 L 169.240500,365.209005 L 169.693875,365.209005 L 170.147250,365.209005 L 170.600625,365.209005 L 171.054000,365.209005 L 171.507375,365.209005 L 171.960750,365.209005 L 172.414125,365.209005 L 172.867500,365.209005 L 173.320875,365.209005 L 173.774250,365.209005 L 174.227625,365.209005 L 174.681000,365.209005 L 175.134375,365.209005 L 175.587750,365.209005 L 176.041125,365.209005 L 176.494500,365.209005 L 176.947875,365.209005 L 177.401250,365.209005 L 177.854625,365.209005 L 178.308000,365.209005 L 178.761375,365.209005 L 179.214750,365.209005 L 179.668125,365.209005 L 180.121500,365.209005 L 180.574875,365.209005 L 181.028250,365.209005 L 181.481625,365.209005 L 181.935000,365.209005 L 182.388375,365.209005 L 182.841750,365.209005 L 183.295125,365.209005 L 183.748500,365.209005 L 184.201875,365.209005 L 184.655250,365.209005 L 185.108625,365.209005 L 185.562000,365.209005 L 186.015375,365.209005 L 186.468750,365.209005 L 186.922125,365.209005 L 187.375500,365.209005 L 187.828875,365.209005 L 188.282250,365.209005 L 188.735625,365.209005 L 189.189000,365.209005 L 189.642375,365.209005 L 190.095750,365.209005 L 190.549125,365.209005 L 191.002500,365.209005 L 191.455875,365.209005 L 191.909250,365.209005 L 192.362625,365.209005 L 192.816000,365.209005 L 193.269375,365.209005 L 193.722750,365.209005 L 194.176125,365.209005 L 194.629500,365.209005 L 195.082875,365.209005 L 195.536250,365.209005 L 195.989625,365.209005 L 196.443000,365.209005 L 196.896375,365.209005 L 197.349750,365.209005 L 197.803125,365.209005 L 198.256500,365.209005 L 198.709875,365.209005 L 199.163250,365.209005 L 199.616625,365.209005 L 200.070000,365.209005 L 200.523375,365.209005 L 200.976750,365.209005 L 201.430125,365.209005 L 201.883500,365.209005 L 202.336875,365.209005 L 202.790250,365.209005 L 203.243625,365.209005 L 203.697000,365.209005 L 204.150375,365.209005 L 204.603750,365.209005 L 205.057125,365.209005 L 205.510500,365.209005 L 205.963875,365.209005 L 206.417250,365.209005 L 206.870625,365.209005 L 207.324000,365.209005 L 207.777375,365.209005 L 208.230750,365.209005 L 208.684125,365.209005 L 209.137500,365.209005 L 209.590875,365.209005 L 210.044250,365.209005 L 210.497625,365.209005 L 210.951000,365.209005 L 211.404375,365.209005 L 211.857750,365.209005 L 212.311125,365.209005 L 212.764500,365.209005 L 213.217875,365.209005 L 213.671250,365.209005 L 214.124625,365.209005 L 214.578000,365.209005 L 215.031375,365.209005 L 215.484750,365.209005 L 215.938125,365.209005 L 216.391500,365.209005 L 216.844875,365.209005 L 217.298250,365.209005 L 217.751625,365.209005 L 218.205000,365.209005 L 218.658375,365.209005 L 219.111750,365.209005 L 219.565125,365.209005 L 220.018500,365.209005 L 220.471875,365.209005 L 220.925250,365.209005 L 221.378625,365.209005 L 221.832000,365.209005 L 222.285375,365.209005 L 222.738750,365.209005 L 223.192125,365.209005 L 223.645500,365.209005 L 224.098875,365.209005 L 224.552250,365.209005 L 225.005625,365.209005 L 225.459000,365.209005 L 225.912375,365.209005 L 226.365750,365.209005 L 226.819125,365.209005 L 227.272500,365.209005 L 227.725875,365.209005 L 228.179250,365.209005 L 228.632625,365.209005 L 229.086000,365.209005 L 229.539375,365.209005 L 229.992750,365.209005 L 230.446125,365.209005 L 230.899500,365.209005 L 231.352875,365.209005 L 231.806250,365.209005 L 232.259625,365.209005 L 232.713000,365.209005 L 233.166375,365.209005 L 233.619750,365.209005 L 234.073125,365.209005 L 234.526500,365.209005 L 234.979875,365.209005 L 235.433250,365.209005 L 235.886625,365.209005 L 236.340000,365.209005 L 236.793375,365.209005 L 237.246750,365.209005 L 237.700125,365.209005 L 238.153500,365.209005 L 238.606875,365.209005 L 239.060250,365.209005 L 239.513625,365.209005 L 239.967000,365.209005 L 240.420375,365.209005 L 240.873750,365.209005 L 241.327125,365.209005 L 241.780500,365.209005 L 242.233875,365.209005 L 242.687250,365.209005 L 243.140625,365.209005 L 243.594000,365.209005 L 244.047375,365.209005 L 244.500750,365.209005 L 244.954125,365.209005 L 245.407500,365.209005 L 245.860875,365.209005 L 246.314250,365.209005 L 246.767625,365.209005 L 247.221000,365.209005 L 247.674375,365.209005 L 248.127750,365.209005 L 248.581125,365.209005 L 249.034500,365.209005 L 249.487875,365.209005 L 249.941250,365.209005 L 250.394625,365.209005 L 250.848000,365.209005 L 251.301375,365.209005 L 251.754750,365.209005 L 252.208125,365.209005 L 252.661500,365.209005 L 253.114875,365.209005 L 253.568250,365.209005 L 254.021625,365.209005 L 254.475000,365.209005 L 254.928375,365.209005 L 255.381750,365.209005 L 255.835125,365.209005 L 256.288500,365.209005 L 256.741875,365.209005 L 257.195250,365.209005 L 257.648625,365.209005 L 258.102000,365.209005 L 258.555375,365.209005 L 259.008750,365.209005 L 259.462125,365.209005 L 259.915500,365.209005 L 260.368875,365.209005 L 260.822250,365.209005 L 261.275625,365.209005 L 261.729000,365.209005 L 262.182375,365.209005 L 262.635750,365.209005 L 263.089125,365.209005 L 263.542500,365.209005 L 263.995875,365.209005 L 264.449250,365.209005 L 264.902625,365.209005 L 265.356000,365.209005 L 265.809375,365.209005 L 266.262750,365.209005 L 266.716125,365.209005 L 267.169500,365.209005 L 267.622875,365.209005 L 268.076250,365.209005 L 268.529625,365.209005 L 268.983000,365.209005 L 269.436375,365.209005 L 269.889750,365.209005 L 270.343125,365.209005 L 270.796500,365.209005 L 271.249875,365.209005 L 271.703250,365.209005 L 272.156625,365.209005 L 272.610000,365.209005 L 273.063375,365.209005 L 273.516750,365.209005 L 273.970125,365.209005 L 274.423500,365.209005 L 274.876875,365.209005 L 275.330250,365.209005 L 275.783625,365.209005 L 276.237000,365.209005 L 276.690375,365.209005 L 277.143750,365.209005 L 277.597125,365.209005 L 278.050500,365.209005 L 278.503875,365.209005 L 278.957250,365.209005 L 279.410625,365.209005 L 279.864000,365.209005 L 280.317375,365.209005 L 280.770750,365.209005 L 281.224125,365.209005 L 281.677500,365.209005 L 282.130875,365.209005 L 282.584250,365.209005 L 283.037625,365.209005 L 283.491000,365.209005 L 283.944375,365.209005 L 284.397750,365.209005 L 284.851125,365.209005 L 285.304500,365.209005 L 285.757875,365.209005 L 286.211250,365.209005 L 286.664625,365.209005 L 287.118000,365.209005 L 287.571375,365.209005 L 288.024750,365.209005 L 288.478125,365.209005 L 288.931500,365.209005 L 289.384875,365.209005 L 289.838250,365.209005 L 290.291625,365.209005 L 290.745000,365.209005 L 291.198375,365.209005 L 291.651750,365.209005 L 292.105125,365.209005 L 292.558500,365.209005 L 293.011875,365.209005 L 293.465250,365.209005 L 293.918625,365.209005 L 294.372000,365.209005 L 294.825375,365.209005 L 295.278750,365.209005 L 295.732125,365.209005 L 296.185500,365.209005 L 296.638875,365.209005 L 297.092250,365.209005 L 297.545625,365.209005 L 297.999000,365.209005 L 298.452375,365.209005 L 298.905750,365.209005 L 299.359125,365.209005 L 299.812500,365.209005 L 300.265875,365.209005 L 300.719250,365.209005 L 301.172625,365.209005 L 301.626000,365.209005 L 302.079375,365.209005 L 302.532750,365.209005 L 302.986125,365.209005 L 303.439500,365.209005 L 303.892875,365.209005 L 304.346250,365.209005 L 304.799625,365.209005 L 305.253000,365.209005 L 305.706375,365.209005 L 306.159750,365.209005 L 306.613125,365.209005 L 307.066500,365.209005 L 307.519875,365.209005 L 307.973250,365.209005 L 308.426625,365.209005 L 308.880000,365.209005 L 309.333375,365.209005 L 309.786750,365.209005 L 310.240125,365.209005 L 310.693500,365.209005 L 311.146875,365.209005 L 311.600250,365.209005 L 312.053625,365.209005 L 312.507000,365.209005 L 312.960375,365.209005 L 313.413750,365.209005 L 313.867125,365.209005 L 314.320500,365.209005 L 314.773875,365.209005 L 315.227250,365.209005 L 315.680625,365.209005 L 316.134000,365.209005 L 316.587375,365.209005 L 317.040750,365.209005 L 317.494125,365.209005 L 317.947500,365.209005 L 318.400875,365.209005 L 318.854250,365.209005 L 319.307625,365.209005 L 319.761000,365.209005 L 320.214375,365.209005 L 320.667750,365.209005 L 321.121125,365.209005 L 321.574500,365.209005 L 322.027875,365.209005 L 322.481250,365.209005 L 322.934625,365.209005 L 323.388000,365.209005 L 323.841375,365.209005 L 324.294750,365.209005 L 324.748125,365.209005 L 325.201500,365.209005 L 325.654875,365.209005 L 326.108250,365.209005 L 326.561625,365.209005 L 327.015000,365.209005 L 327.468375,365.209005 L 327.921750,365.209005 L 328.375125,365.209005 L 328.828500,365.209005 L 329.281875,365.209005 L 329.735250,365.209005 L 330.188625,365.209005 L 330.642000,365.209005 L 331.095375,365.209005 L 331.548750,365.209005 L 332.002125,365.209005 L 332.455500,365.209005 L 332.908875,365.209005 L 333.362250,365.209005 L 333.815625,365.209005 L 334.269000,365.209005 L 334.722375,365.209005 L 335.175750,365.209005 L 335.629125,365.209005 L 336.082500,365.209005 L 336.535875,365.209005 L 336.989250,365.209005 L 337.442625,365.209005 L 337.896000,365.209005 L 338.349375,365.209005 L 338.802750,365.209005 L 339.256125,365.209005 L 339.709500,365.209005 L 340.162875,365.209005 L 340.616250,365.209005 L 341.069625,365.209005 L 341.523000,365.209005 L 341.976375,365.209005 L 342.429750,365.209005 L 342.883125,365.209005 L 343.336500,365.209005 L 343.789875,365.209005 L 344.243250,365.209005 L 344.696625,365.209005 L 345.150000,365.209005 L 345.603375,365.209005 L 346.056750,365.209005 L 346.510125,365.209005 L 346.963500,365.209005 L 347.416875,365.209005 L 347.870250,365.209005 L 348.323625,365.209005 L 348.777000,365.209005 L 349.230375,365.209005 L 349.683750,365.209005 L 350.137125,365.209005 L 350.590500,365.209005 L 351.043875,365.209005 L 351.497250,365.209005 L 351.950625,365.209005 L 352.404000,365.209005 L 352.857375,365.209005 L 353.310750,365.209005 L 353.764125,365.209005 L 354.217500,365.209005 L 354.670875,365.209005 L 355.124250,365.209005 L 355.577625,365.209005 L 356.031000,365.209005 L 356.484375,365.209005 L 356.937750,365.209005 L 357.391125,365.209005 L 357.844500,365.209005 L 358.297875,365.209005 L 358.751250,365.209005 L 359.204625,365.209005 L 359.658000,365.209005 L 360.111375,365.209005 L 360.564750,365.209005 L 361.018125,365.209005 L 361.471500,365.209005 L 361.924875,365.209005 L 362.378250,365.209005 L 362.831625,365.209005 L 363.285000,365.209005 L 363.738375,365.209005 L 364.191750,365.209005 L 364.645125,365.209005 L 365.098500,365.209005 L 365.551875,365.209005 L 366.005250,365.209005 L 366.458625,365.209005 L 366.912000,365.209005 L 367.365375,365.209005 L 367.818750,365.209005 L 368.272125,365.209005 L 368.725500,365.209005 L 369.178875,365.209005 L 369.632250,365.209005 L 370.085625,365.209005 L 370.539000,365.209005 L 370.992375,365.209005 L 371.445750,365.209005 L 371.899125,365.209005 L 372.352500,365.209005 L 372.805875,365.209005 L 373.259250,365.209005 L 373.712625,365.209005 L 374.166000,365.209005 L 374.619375,365.209005 L 375.072750,365.209005 L 375.526125,365.209005 L 375.979500,365.209005 L 376.432875,365.209005 L 376.886250,365.209005 L 377.339625,365.209005 L 377.793000,365.209005 L 378.246375,365.209005 L 378.699750,365.209005 L 379.153125,365.209005 L 379.606500,365.209005 L 380.059875,365.209005 L 380.513250,365.209005 L 380.966625,365.209005 L 381.420000,365.209005 L 381.873375,365.209005 L 382.326750,365.209005 L 382.780125,365.209005 L 383.233500,365.209005 L 383.686875,365.209005 L 384.140250,365.209005 L 384.593625,365.209005 L 385.047000,365.209005 L 385.500375,365.209005 L 385.953750,365.209005 L 386.407125,365.209005 L 386.860500,365.209005 L 387.313875,365.209005 L 387.767250,365.209005 L 388.220625,365.209005 L 388.674000,365.209005 L 389.127375,365.209005 L 389.580750,365.209005 L 390.034125,365.209005 L 390.487500,365.209005 L 390.940875,365.209005 L 391.394250,365.209005 L 391.847625,365.209005 L 392.301000,365.209005 L 392.754375,365.209005 L 393.207750,365.209005 L 393.661125,365.209005 L 394.114500,365.209005 L 394.567875,365.209005 L 395.021250,365.209005 L 395.474625,365.209005 L 395.928000,365.209005 L 396.381375,365.209005 L 396.834750,365.209005 L 397.288125,365.209005 L 397.741500,365.209005 L 398.194875,365.209005 L 398.648250,365.209005 L 399.101625,365.209005 L 399.555000,365.209005 L 400.008375,365.209005 L 400.461750,365.209005 L 400.915125,365.209005 L 401.368500,365.209005 L 401.821875,365.209005 L 402.275250,365.209005 L 402.728625,365.209005 L 403.182000,365.209005 L 403.635375,365.209005 L 404.088750,365.209005 L 404.542125,365.209005 L 404.995500,365.209005 L 405.448875,365.209005 L 405.902250,365.209005 L 406.355625,365.209005 L 406.809000,365.209005 L 407.262375,365.209005 L 407.715750,365.209005 L 408.169125,365.209005 L 408.622500,365.209005 L 409.075875,365.209005 L 409.529250,365.209005 L 409.982625,365.209005 L 410.436000,365.209005 L 410.889375,365.209005 L 411.342750,365.209005 L 411.796125,365.209005 L 412.249500,365.209005 L 412.702875,365.209005 L 413.156250,365.209005 L 413.609625,365.209005 L 414.063000,365.209005 L 414.516375,365.209005 L 414.969750,365.209005 L 415.423125,365.209005 L 415.876500,365.209005 L 416.329875,365.209005 L 416.783250,365.209005 L 417.236625,365.209005 L 417.690000,365.209005 L 418.143375,365.209005 L 418.596750,365.209005 L 419.050125,365.209005 L 419.503500,365.209005 L 419.956875,365.209005 L 420.410250,365.209005 L 420.863625,365.209005 L 421.317000,365.209005 L 421.770375,365.209005 L 422.223750,365.209005 L 422.677125,365.209005 L 423.130500,365.209005 L 423.583875,365.209005 L 424.037250,365.209005 L 424.490625,365.209005 L 424.944000,365.209005 L 425.397375,365.209005 L 425.850750,365.209005 L 426.304125,365.209005 L 426.757500,365.209005 L 427.210875,365.209005 L 427.664250,365.209005 L 428.117625,365.209005 L 428.571000,365.209005 L 429.024375,365.209005 L 429.477750,365.209005 L 429.931125,365.209005 L 430.384500,365.209005 L 430.837875,365.209005 L 431.291250,365.209005 L 431.744625,365.209005 L 432.198000,365.209005 L 432.651375,365.209005 L 433.104750,365.209005 L 433.558125,365.209005 L 434.011500,365.209005 L 434.464875,365.209005 L 434.918250,365.209005 L 435.371625,365.209005 L 435.825000,365.209005 L 436.278375,365.209005 L 436.731750,365.209005 L 437.185125,365.209005 L 437.638500,365.209005 L 438.091875,365.209005 L 438.545250,365.209005 L 438.998625,365.209005 L 439.452000,365.209005 L 439.905375,365.209005 L 440.358750,365.209005 L 440.812125,365.209005 L 441.265500,365.209005 L 441.718875,365.209005 L 442.172250,365.209005 L 442.625625,365.209005 L 443.079000,365.209005 L 443.532375,365.209005 L 443.985750,365.209005 L 444.439125,365.209005 L 444.892500,365.209005 L 445.345875,365.209005 L 445.799250,365.209005 L 446.252625,365.209005 L 446.706000,365.209005 L 447.159375,365.209005 L 447.612750,365.209005 L 448.066125,365.209005 L 448.519500,365.209005 L 448.972875,365.209005 L 449.426250,365.209005 L 449.879625,365.209005 L 450.333000,365.209005 L 450.786375,365.209005 L 451.239750,365.209005 L 451.693125,365.209005 L 452.146500,365.209005 L 452.599875,365.209005 L 453.053250,365.209005 L 453.506625,365.209005 L 453.960000,365.209005 L 454.413375,365.209005 L 454.866750,365.209005 L 455.320125,365.209005 L 455.773500,365.209005 L 456.226875,365.209005 L 456.680250,365.209005 L 457.133625,365.209005 L 457.587000,365.209005 L 458.040375,365.209005 L 458.493750,365.209005 L 458.947125,365.209005 L 459.400500,365.209005 L 459.853875,365.209005 L 460.307250,365.209005 L 460.760625,365.209005 L 461.214000,365.209005 L 461.667375,365.209005 L 462.120750,365.209005 L 462.574125,365.209005 L 463.027500,365.209005 L 463.480875,365.209005 L 463.934250,365.209005 L 464.387625,365.209005 L 464.841000,365.209005 L 465.294375,365.209005 L 465.747750,365.209005 L 466.201125,365.209005 L 466.654500,365.209005 L 467.107875,365.209005 L 467.561250,365.209005 L 468.014625,365.209005 L 468.468000,365.209005 L 468.921375,365.209005 L 469.374750,365.209005 L 469.828125,365.209005 L 470.281500,365.209005 L 470.734875,365.209005 L 471.188250,365.209005 L 471.641625,365.209005 L 472.095000,365.209005 L 472.548375,365.209005 L 473.001750,365.209005 L 473.455125,365.209005 L 473.908500,365.209005 L 474.361875,365.209005 L 474.815250,365.209005 L 475.268625,365.209005 L 475.722000,365.209005 L 476.175375,365.209005 L 476.628750,365.209005 L 477.082125,365.209005 L 477.535500,365.209005 L 477.988875,365.209005 L 478.442250,365.209005 L 478.895625,365.209005 L 479.349000,365.209005 L 479.802375,365.209005 L 480.255750,365.209005 L 480.709125,365.209005 L 481.162500,365.209005 L 481.615875,365.209005 L 482.069250,365.209005 L 482.522625,365.209005 L 482.976000,365.209005 L 483.429375,365.209005 L 483.882750,365.209005 L 484.336125,365.209005 L 484.789500,365.209005 L 485.242875,365.209005 L 485.696250,365.209005 L 486.149625,365.209005 L 486.603000,365.209005 L 487.056375,365.209005 L 487.509750,365.209005 L 487.963125,365.209005 L 488.416500,365.209005 L 488.869875,365.209005 L 489.323250,365.209005 L 489.776625,365.209005 L 490.230000,365.209005 L 490.683375,365.209005 L 491.136750,365.209005 L 491.590125,365.209005 L 492.043500,365.209005 L 492.496875,365.209005 L 492.950250,365.209005 L 493.403625,365.209005 L 493.857000,365.209005 L 494.310375,365.209005 L 494.763750,365.209005 L 495.217125,365.209005 L 495.670500,365.209005 L 496.123875,365.209005 L 496.577250,365.209005 L 497.030625,365.209005 L 497.484000,365.209005 L 497.937375,365.209005 L 498.390750,365.209005 L 498.844125,365.209005 L 499.297500,365.209005 L 499.750875,365.209005 L 500.204250,365.209005 L 500.657625,365.209005 L 501.111000,365.209005 L 501.564375,365.209005 L 502.017750,365.209005 L 502.471125,365.209005 L 502.924500,365.209005 L 503.377875,365.209005 L 503.831250,365.209005 L 504.284625,365.209005 L 504.738000,365.209005 L 505.191375,365.209005 L 505.644750,365.209005 L 506.098125,365.209005 L 506.551500,365.209005 L 507.004875,365.209005 L 507.458250,365.209005 L 507.911625,365.209005 L 508.365000,365.209005 L 508.818375,365.209005 L 509.271750,365.209005 L 509.725125,365.209005 L 510.178500,365.209005 L 510.631875,365.209005 L 511.085250,365.209005 L 511.538625,365.209005 L 511.992000,365.209005 L 512.445375,365.209005 L 512.898750,365.209005 L 513.352125,365.209005 L 513.805500,365.209005 L 514.258875,365.209005 L 514.712250,365.209005 L 515.165625,365.209005 L 515.619000,365.209005 L 516.072375,365.209005 L 516.525750,365.209005 L 516.979125,365.209005 L 517.432500,365.209005 L 517.885875,365.209005 L 518.339250,365.209005 L 518.792625,365.209005 L 519.246000,365.209005 L 519.699375,365.209005 L 520.152750,365.209005 L 520.606125,365.209005 L 521.059500,365.209005 L 521.512875,365.209005 L 521.966250,365.209005 L 522.419625,365.209005 L 522.873000,365.209005 L 523.326375,365.209005 L 523.779750,365.209005 L 524.233125,365.209005 L 524.686500,365.209005 L 525.139875,365.209005 L 525.593250,365.209005 L 526.046625,365.209005 "/>
<path style="fill: none; stroke: #ff0000; stroke-width: 0.500000; stroke-linejoin: miter; stroke-linecap: square;  opacity: 1.000000" clip-path="url(#7240474723315632415)" d="M 73.125000,57.760627 L 73.578375,57.760627 L 74.031750,57.760627 L 74.485125,57.760627 L 74.938500,57.760627 L 75.391875,57.760627 L 75.845250,57.760627 L 76.298625,57.760627 L 76.752000,57.760627 L 77.205375,57.760627 L 77.658750,57.760627 L 78.112125,57.760627 L 78.565500,57.760627 L 79.018875,57.760627 L 79.472250,57.760627 L 79.925625,57.760627 L 80.379000,57.760627 L 80.832375,57.760627 L 81.285750,57.760627 L 81.739125,57.760627 L 82.192500,57.760627 L 82.645875,57.760627 L 83.099250,57.760627 L 83.552625,57.760627 L 84.006000,57.760627 L 84.459375,57.760627 L 84.912750,57.760627 L 85.366125,57.760627 L 85.819500,57.760627 L 86.272875,57.760627 L 86.726250,57.760627 L 87.179625,57.760627 L 87.633000,57.760627 L 88.086375,57.760627 L 88.539750,57.760627 L 88.993125,57.760627 L 89.446500,57.760627 L 89.899875,57.760627 L 90.353250,57.760627 L 90.806625,57.760627 L 91.260000,57.760627 L 91.713375,57.760627 L 92.166750,57.760627 L 92.620125,57.760627 L 93.073500,57.760627 L 93.526875,57.760627 L 93.980250,57.760627 L 94.433625,57.760627 L 94.887000,57.760627 L 95.340375,57.760627 L 95.793750,57.760627 L 96.247125,57.760627 L 96.700500,57.760627 L 97.153875,57.760627 L 97.607250,57.760627 L 98.060625,57.760627 L 98.514000,57.760627 L 98.967375,57.760627 L 99.420750,57.760627 L 99.874125,57.760627 L 100.327500,57.760627 L 100.780875,57.760627 L 101.234250,57.760627 L 101.687625,57.760627 L 102.141000,57.760627 L 102.594375,57.760627 L 103.047750,57.760627 L 103.501125,57.760627 L 103.954500,57.760627 L 104.407875,57.760627 L 104.861250,57.760627 L 105.314625,57.760627 L 105.768000,57.760627 L 106.221375,57.760627 L 106.674750,57.760627 L 107.128125,57.760627 L 107.581500,57.760627 L 108.034875,57.760627 L 108.488250,57.760627 L 108.941625,57.760627 L 109.395000,57.760627 L 109.848375,57.760627 L 110.301750,57.760627 L 110.755125,57.760627 L 111.208500,57.760627 L 111.661875,57.760627 L 112.115250,57.760627 L 112.568625,57.760627 L 113.022000,57.760627 L 113.475375,57.760627 L 113.928750,57.760627 L 114.382125,57.760627 L 114.835500,57.760627 L 115.288875,57.760627 L 115.742250,57.760627 L 116.195625,57.760627 L 116.649000,57.760627 L 117.102375,57.760627 L 117.555750,57.760627 L 118.009125,57.760627 L 118.462500,57.760627 L 118.915875,57.760627 L 119.369250,57.760627 L 119.822625,57.760627 L 120.276000,57.760627 L 120.729375,57.760627 L 121.182750,57.760627 L 121.636125,57.760627 L 122.089500,57.760627 L 122.542875,57.760627 L 122.996250,57.760627 L 123.449625,57.760627 L 123.903000,57.760627 L 124.356375,57.760627 L 124.809750,57.760627 L 125.263125,57.760627 L 125.716500,57.760627 L 126.169875,57.760627 L 126.623250,57.760627 L 127.076625,57.760627 L 127.530000,57.760627 L 127.983375,57.760627 L 128.436750,57.760627 L 128.890125,57.760627 L 129.343500,57.760627 L 129.796875,57.760627 L 130.250250,57.760627 L 130.703625,57.760627 L 131.157000,57.760627 L 131.610375,57.760627 L 132.063750,57.760627 L 132.517125,57.760627 L 132.970500,57.760627 L 133.423875,57.760627 L 133.877250,57.760627 L 134.330625,57.760627 L 134.784000,57.760627 L 135.237375,57.760627 L 135.690750,57.760627 L 136.144125,57.760627 L 136.597500,57.760627 L 137.050875,57.760627 L 137.504250,57.760627 L 137.957625,57.760627 L 138.411000,57.760627 L 138.864375,57.760627 L 139.317750,57.760627 L 139.771125,57.760627 L 140.224500,57.760627 L 140.677875,57.760627 L 141.131250,57.760627 L 141.584625,57.760627 L 142.038000,57.760627 L 142.491375,57.760627 L 142.944750,57.760627 L 143.398125,57.760627 L 143.851500,57.760627 L 144.304875,57.760627 L 144.758250,57.760627 L 145.211625,57.760627 L 145.665000,57.760627 L 146.118375,57.760627 L 146.571750,57.760627 L 147.025125,57.760627 L 147.478500,57.760627 L 147.931875,57.760627 L 148.385250,57.760627 L 148.838625,57.760627 L 149.292000,57.760627 L 149.745375,57.760627 L 150.198750,57.760627 L 150.652125,57.760627 L 151.105500,57.760627 L 151.558875,57.760627 L 152.012250,57.760627 L 152.465625,57.760627 L 152.919000,57.760627 L 153.372375,57.760627 L 153.825750,57.760627 L 154.279125,57.760627 L 154.732500,57.760627 L 155.185875,57.760627 L 155.639250,57.760627 L 156.092625,57.760627 L 156.546000,57.760627 L 156.999375,57.760627 L 157.452750,57.760627 L 157.906125,57.760627 L 158.359500,57.760627 L 158.812875,57.760627 L 159.266250,57.760627 L 159.719625,57.760627 L 160.173000,57.760627 L 160.626375,57.760627 L 161.079750,57.760627 L 161.533125,57.760627 L 161.986500,57.760627 L 162.439875,57.760627 L 162.893250,57.760627 L 163.346625,57.760627 L 163.800000,57.760627 L 164.253375,57.760627 L 164.706750,57.760627 L 165.160125,57.760627 L 165.613500,57.760627 L 166.066875,57.760627 L 166.520250,57.760627 L 166.973625,57.760627 L 167.427000,57.760627 L 167.880375,57.760627 L 168.333750,57.760627 L 168.787125,57.760627 L 169.240500,57.760627 L 169.693875,57.760627 L 170.147250,57.760627 L 170.600625,57.760627 L 171.054000,57.760627 L 171.507375,57.760627 L 171.960750,57.760627 L 172.414125,57.760627 L 172.867500,57.760627 L 173.320875,57.760627 L 173.774250,57.760627 L 174.227625,57.760627 L 174.681000,57.760627 L 175.134375,57.760627 L 175.587750,57.760627 L 176.041125,57.760627 L 176.494500,57.760627 L 176.947875,57.760627 L 177.401250,57.760627 L 177.854625,57.760627 L 178.308000,57.760627 L 178.761375,57.760627 L 179.214750,57.760627 L 179.668125,57.760627 L 180.121500,57.760627 L 180.574875,57.760627 L 181.028250,57.760627 L 181.481625,57.760627 L 181.935000,57.760627 L 182.388375,57.760627 L 182.841750,57.760627 L 183.295125,57.760627 L 183.748500,57.760627 L 184.201875,57.760627 L 184.655250,57.760627 L 185.108625,57.760627 L 185.562000,57.760627 L 186.015375,57.760627 L 186.468750,57.760627 L 186.922125,57.760627 L 187.375500,57.760627 L 187.828875,57.760627 L 188.282250,57.760627 L 188.735625,57.760627 L 189.189000,57.760627 L 189.642375,57.760627 L 190.095750,57.760627 L 190.549125,57.760627 L 191.002500,57.760627 L 191.455875,57.760627 L 191.909250,57.760627 L 192.362625,57.760627 L 192.816000,57.760627 L 193.269375,57.760627 L 193.722750,57.760627 L 194.176125,57.760627 L 194.629500,57.760627 L 195.082875,57.760627 L 195.536250,57.760627 L 195.989625,57.760627 L 196.443000,57.760627 L 196.896375,57.760627 L 197.349750,57.760627 L 197.803125,57.760627 L 198.256500,57.760627 L 198.709875,57.760627 L 199.163250,57.760627 L 199.616625,57.760627 L 200.070000,57.760627 L 200.523375,57.760627 L 200.976750,57.760627 L 201.430125,57.760627 L 201.883500,57.760627 L 202.336875,57.760627 L 202.790250,57.760627 L 203.243625,57.760627 L 203.697000,57.760627 L 204.150375,57.760627 L 204.603750,57.760627 L 205.057125,57.760627 L 205.510500,57.760627 L 205.963875,57.760627 L 206.417250,57.760627 L 206.870625,57.760627 L 207.324000,57.760627 L 207.777375,57.760627 L 208.230750,57.760627 L 208.684125,57.760627 L 209.137500,57.760627 L 209.590875,57.760627 L 210.044250,57.760627 L 210.497625,57.760627 L 210.951000,57.760627 L 211.404375,57.760627 L 211.857750,57.760627 L 212.311125,57.760627 L 212.764500,57.760627 L 213.217875,57.760627 L 213.671250,57.760627 L 214.124625,57.760627 L 214.578000,57.760627 L 215.031375,57.760627 L 215.484750,57.760627 L 215.938125,57.760627 L 216.391500,57.760627 L 216.844875,57.760627 L 217.298250,57.760627 L 217.751625,57.760627 L 218.205000,57.760627 L 218.658375,57.760627 L 219.111750,57.760627 L 219.565125,57.760627 L 220.018500,57.760627 L 220.471875,57.760627 L 220.925250,57.760627 L 221.378625,57.760627 L 221.832000,57.760627 L 222.285375,57.760627 L 222.738750,57.760627 L 223.192125,57.760627 L 223.645500,57.760627 L 224.098875,57.760627 L 224.552250,57.760627 L 225.005625,57.760627 L 225.459000,57.760627 L 225.912375,57.760627 L 226.365750,57.760627 L 226.819125,57.760627 L 227.272500,57.760627 L 227.725875,57.760627 L 228.179250,57.760627 L 228.632625,57.760627 L 229.086000,57.760627 L 229.539375,57.760627 L 229.992750,57.760627 L 230.446125,57.760627 L 230.899500,57.760627 L 231.352875,57.760627 L 231.806250,57.760627 L 232.259625,57.760627 L 232.713000,57.760627 L 233.166375,57.760627 L 233.619750,57.760627 L 234.073125,57.760627 L 234.526500,57.760627 L 234.979875,57.760627 L 235.433250,57.760627 L 235.886625,57.760627 L 236.340000,57.760627 L 236.793375,57.760627 L 237.246750,57.760627 L 237.700125,57.760627 L 238.153500,57.760627 L 238.606875,57.760627 L 239.060250,57.760627 L 239.513625,57.760627 L 239.967000,57.760627 L 240.420375,57.760627 L 240.873750,57.760627 L 241.327125,57.760627 L 241.780500,57.760627 L 242.233875,57.760627 L 242.687250,57.760627 L 243.140625,57.760627 L 243.594000,57.760627 L 244.047375,57.760627 L 244.500750,57.760627 L 244.954125,57.760627 L 245.407500,57.760627 L 245.860875,57.760627 L 246.314250,57.760627 L 246.767625,57.760627 L 247.221000,57.760627 L 247.674375,57.760627 L 248.127750,57.760627 L 248.581125,57.760627 L 249.034500,57.760627 L 249.487875,57.760627 L 249.941250,57.760627 L 250.394625,57.760627 L 250.848000,57.760627 L 251.301375,57.760627 L 251.754750,57.760627 L 252.208125,57.760627 L 252.661500,57.760627 L 253.114875,57.760627 L 253.568250,57.760627 L 254.021625,57.760627 L 254.475000,57.760627 L 254.928375,57.760627 L 255.381750,57.760627 L 255.835125,57.760627 L 256.288500,57.760627 L 256.741875,57.760627 L 257.195250,57.760627 L 257.648625,57.760627 L 258.102000,57.760627 L 258.555375,57.760627 L 259.008750,57.760627 L 259.462125,57.760627 L 259.915500,57.760627 L 260.368875,57.760627 L 260.822250,57.760627 L 261.275625,57.760627 L 261.729000,57.760627 L 262.182375,57.760627 L 262.635750,57.760627 L 263.089125,57.760627 L 263.542500,57.760627 L 263.995875,57.760627 L 264.449250,57.760627 L 264.902625,57.760627 L 265.356000,57.760627 L 265.809375,57.760627 L 266.262750,57.760627 L 266.716125,57.760627 L 267.169500,57.760627 L 267.622875,57.760627 L 268.076250,57.760627 L 268.529625,57.760627 L 268.983000,57.760627 L 269.436375,57.760627 L 269.889750,57.760627 L 270.343125,57.760627 L 270.796500,57.760627 L 271.249875,57.760627 L 271.703250,57.760627 L 272.156625,57.760627 L 272.610000,57.760627 L 273.063375,57.760627 L 273.516750,57.760627 L 273.970125,57.760627 L 274.423500,57.760627 L 274.876875,57.760627 L 275.330250,57.760627 L 275.783625,57.760627 L 276.237000,57.760627 L 276.690375,57.760627 L 277.143750,57.760627 L 277.597125,57.760627 L 278.050500,57.760627 L 278.503875,57.760627 L 278.957250,57.760627 L 279.410625,57.760627 L 279.864000,57.760627 L 280.317375,57.760627 L 280.770750,57.760627 L 281.224125,57.760627 L 281.677500,57.760627 L 282.130875,57.760627 L 282.584250,57.760627 L 283.037625,57.760627 L 283.491000,57.760627 L 283.944375,57.760627 L 284.397750,57.760627 L 284.851125,57.760627 L 285.304500,57.760627 L 285.757875,57.760627 L 286.211250,57.760627 L 286.664625,57.760627 L 287.118000,57.760627 L 287.571375,57.760627 L 288.024750,57.760627 L 288.478125,57.760627 L 288.931500,57.760627 L 289.384875,57.760627 L 289.838250,57.760627 L 290.291625,57.760627 L 290.745000,57.760627 L 291.198375,57.760627 L 291.651750,57.760627 L 292.105125,57.760627 L 292.558500,57.760627 L 293.011875,57.760627 L 293.465250,57.760627 L 293.918625,57.760627 L 294.372000,57.760627 L 294.825375,57.760627 L 295.278750,57.760627 L 295.732125,57.760627 L 296.185500,57.760627 L 296.638875,57.760627 L 297.092250,57.760627 L 297.545625,57.760627 L 297.999000,57.760627 L 298.452375,57.760627 L 298.905750,57.760627 L 299.359125,57.760627 L 299.812500,57.760627 L 300.265875,57.760627 L 300.719250,57.760627 L 301.172625,57.760627 L 301.626000,57.760627 L 302.079375,57.760627 L 302.532750,57.760627 L 302.986125,57.760627 L 303.439500,57.760627 L 303.892875,57.760627 L 304.346250,57.760627 L 304.799625,57.760627 L 305.253000,57.760627 L 305.706375,57.760627 L 306.159750,57.760627 L 306.613125,57.760627 L 307.066500,57.760627 L 307.519875,57.760627 L 307.973250,57.760627 L 308.426625,57.760627 L 308.880000,57.760627 L 309.333375,57.760627 L 309.786750,57.760627 L 310.240125,57.760627 L 310.693500,57.760627 L 311.146875,57.760627 L 311.600250,57.760627 L 312.053625,57.760627 L 312.507000,57.760627 L 312.960375,57.760627 L 313.413750,57.760627 L 313.867125,57.760627 L 314.320500,57.760627 L 314.773875,57.760627 L 315.227250,57.760627 L 315.680625,57.760627 L 316.134000,57.760627 L 316.587375,57.760627 L 317.040750,57.760627 L 317.494125,57.760627 L 317.947500,57.760627 L 318.400875,57.760627 L 318.854250,57.760627 L 319.307625,57.760627 L 319.761000,57.760627 L 320.214375,57.760627 L 320.667750,57.760627 L 321.121125,57.760627 L 321.574500,57.760627 L 322.027875,57.760627 L 322.481250,57.760627 L 322.934625,57.760627 L 323.388000,57.760627 L 323.841375,57.760627 L 324.294750,57.760627 L 324.748125,57.760627 L 325.201500,57.760627 L 325.654875,57.760627 L 326.108250,57.760627 L 326.561625,57.760627 L 327.015000,57.760627 L 327.468375,57.760627 L 327.921750,57.760627 L 328.375125,57.760627 L 328.828500,57.760627 L 329.281875,57.760627 L 329.735250,57.760627 L 330.188625,57.760627 L 330.642000,57.760627 L 331.095375,57.760627 L 331.548750,57.760627 L 332.002125,57.760627 L 332.455500,57.760627 L 332.908875,57.760627 L 333.362250,57.760627 L 333.815625,57.760627 L 334.269000,57.760627 L 334.722375,57.760627 L 335.175750,57.760627 L 335.629125,57.760627 L 336.082500,57.760627 L 336.535875,57.760627 L 336.989250,57.760627 L 337.442625,57.760627 L 337.896000,57.760627 L 338.349375,57.760627 L 338.802750,57.760627 L 339.256125,57.760627 L 339.709500,57.760627 L 340.162875,57.760627 L 340.616250,57.760627 L 341.069625,57.760627 L 341.523000,57.760627 L 341.976375,57.760627 L 342.429750,57.760627 L 342.883125,57.760627 L 343.336500,57.760627 L 343.789875,57.760627 L 344.243250,57.760627 L 344.696625,57.760627 L 345.150000,57.760627 L 345.603375,57.760627 L 346.056750,57.760627 L 346.510125,57.760627 L 346.963500,57.760627 L 347.416875,57.760627 L 347.870250,57.760627 L 348.323625,57.760627 L 348.777000,57.760627 L 349.230375,57.760627 L 349.683750,57.760627 L 350.137125,57.760627 L 350.590500,57.760627 L 351.043875,57.760627 L 351.497250,57.760627 L 351.950625,57.760627 L 352.404000,57.760627 L 352.857375,57.760627 L 353.310750,57.760627 L 353.764125,57.760627 L 354.217500,57.760627 L 354.670875,57.760627 L 355.124250,57.760627 L 355.577625,57.760627 L 356.031000,57.760627 L 356.484375,57.760627 L 356.937750,57.760627 L 357.391125,57.760627 L 357.844500,57.760627 L 358.297875,57.760627 L 358.751250,57.760627 L 359.204625,57.760627 L 359.658000,57.760627 L 360.111375,57.760627 L 360.564750,57.760627 L 361.018125,57.760627 L 361.471500,57.760627 L 361.924875,57.760627 L 362.378250,57.760627 L 362.831625,57.760627 L 363.285000,57.760627 L 363.738375,57.760627 L 364.191750,57.760627 L 364.645125,57.760627 L 365.098500,57.760627 L 365.551875,57.760627 L 366.005250,57.760627 L 366.458625,57.760627 L 366.912000,57.760627 L 367.365375,57.760627 L 367.818750,57.760627 L 368.272125,57.760627 L 368.725500,57.760627 L 369.178875,57.760627 L 369.632250,57.760627 L 370.085625,57.760627 L 370.539000,57.760627 L 370.992375,57.760627 L 371.445750,57.760627 L 371.899125,57.760627 L 372.352500,57.760627 L 372.805875,57.760627 L 373.259250,57.760627 L 373.712625,57.760627 L 374.166000,57.760627 L 374.619375,57.760627 L 375.072750,57.760627 L 375.526125,57.760627 L 375.979500,57.760627 L 376.432875,57.760627 L 376.886250,57.760627 L 377.339625,57.760627 L 377.793000,57.760627 L 378.246375,57.760627 L 378.699750,57.760627 L 379.153125,57.760627 L 379.606500,57.760627 L 380.059875,57.760627 L 380.513250,57.760627 L 380.966625,57.760627 L 381.420000,57.760627 L 381.873375,57.760627 L 382.326750,57.760627 L 382.780125,57.760627 L 383.233500,57.760627 L 383.686875,57.760627 L 384.140250,57.760627 L 384.593625,57.760627 L 385.047000,57.760627 L 385.500375,57.760627 L 385.953750,57.760627 L 386.407125,57.760627 L 386.860500,57.760627 L 387.313875,57.760627 L 387.767250,57.760627 L 388.220625,57.760627 L 388.674000,57.760627 L 389.127375,57.760627 L 389.580750,57.760627 L 390.034125,57.760627 L 390.487500,57.760627 L 390.940875,57.760627 L 391.394250,57.760627 L 391.847625,57.760627 L 392.301000,57.760627 L 392.754375,57.760627 L 393.207750,57.760627 L 393.661125,57.760627 L 394.114500,57.760627 L 394.567875,57.760627 L 395.021250,57.760627 L 395.474625,57.760627 L 395.928000,57.760627 L 396.381375,57.760627 L 396.834750,57.760627 L 397.288125,57.760627 L 397.741500,57.760627 L 398.194875,57.760627 L 398.648250,57.760627 L 399.101625,57.760627 L 399.555000,57.760627 L 400.008375,57.760627 L 400.461750,57.760627 L 400.915125,57.760627 L 401.368500,57.760627 L 401.821875,57.760627 L 402.275250,57.760627 L 402.728625,57.760627 L 403.182000,57.760627 L 403.635375,57.760627 L 404.088750,57.760627 L 404.542125,57.760627 L 404.995500,57.760627 L 405.448875,57.760627 L 405.902250,57.760627 L 406.355625,57.760627 L 406.809000,57.760627 L 407.262375,57.760627 L 407.715750,57.760627 L 408.169125,57.760627 L 408.622500,57.760627 L 409.075875,57.760627 L 409.529250,57.760627 L 409.982625,57.760627 L 410.436000,57.760627 L 410.889375,57.760627 L 411.342750,57.760627 L 411.796125,57.760627 L 412.249500,57.760627 L 412.702875,57.760627 L 413.156250,57.760627 L 413.609625,57.760627 L 414.063000,57.760627 L 414.516375,57.760627 L 414.969750,57.760627 L 415.423125,57.760627 L 415.876500,57.760627 L 416.329875,57.760627 L 416.783250,57.760627 L 417.236625,57.760627 L 417.690000,57.760627 L 418.143375,57.760627 L 418.596750,57.760627 L 419.050125,57.760627 L 419.503500,57.760627 L 419.956875,57.760627 L 420.410250,57.760627 L 420.863625,57.760627 L 421.317000,57.760627 L 421.770375,57.760627 L 422.223750,57.760627 L 422.677125,57.760627 L 423.130500,57.760627 L 423.583875,57.760627 L 424.037250,57.760627 L 424.490625,57.760627 L 424.944000,57.760627 L 425.397375,57.760627 L 425.850750,57.760627 L 426.304125,57.760627 L 426.757500,57.760627 L 427.210875,57.760627 L 427.664250,57.760627 L 428.117625,57.760627 L 428.571000,57.760627 L 429.024375,57.760627 L 429.477750,57.760627 L 429.931125,57.760627 L 430.384500,57.760627 L 430.837875,57.760627 L 431.291250,57.760627 L 431.744625,57.760627 L 432.198000,57.760627 L 432.651375,57.760627 L 433.104750,57.760627 L 433.558125,57.760627 L 434.011500,57.760627 L 434.464875,57.760627 L 434.918250,57.760627 L 435.371625,57.760627 L 435.825000,57.760627 L 436.278375,57.760627 L 436.731750,57.760627 L 437.185125,57.760627 L 437.638500,57.760627 L 438.091875,57.760627 L 438.545250,57.760627 L 438.998625,57.760627 L 439.452000,57.760627 L 439.905375,57.760627 L 440.358750,57.760627 L 440.812125,57.760627 L 441.265500,57.760627 L 441.718875,57.760627 L 442.172250,57.760627 L 442.625625,57.760627 L 443.079000,57.760627 L 443.532375,57.760627 L 443.985750,57.760627 L 444.439125,57.760627 L 444.892500,57.760627 L 445.345875,57.760627 L 445.799250,57.760627 L 446.252625,57.760627 L 446.706000,57.760627 L 447.159375,57.760627 L 447.612750,57.760627 L 448.066125,57.760627 L 448.519500,57.760627 L 448.972875,57.760627 L 449.426250,57.760627 L 449.879625,57.760627 L 450.333000,57.760627 L 450.786375,57.760627 L 451.239750,57.760627 L 451.693125,57.760627 L 452.146500,57.760627 L 452.599875,57.760627 L 453.053250,57.760627 L 453.506625,57.760627 L 453.960000,57.760627 L 454.413375,57.760627 L 454.866750,57.760627 L 455.320125,57.760627 L 455.773500,57.760627 L 456.226875,57.760627 L 456.680250,57.760627 L 457.133625,57.760627 L 457.587000,57.760627 L 458.040375,57.760627 L 458.493750,57.760627 L 458.947125,57.760627 L 459.400500,57.760627 L 459.853875,57.760627 L 460.307250,57.760627 L 460.760625,57.760627 L 461.214000,57.760627 L 461.667375,57.760627 L 462.120750,57.760627 L 462.574125,57.760627 L 463.027500,57.760627 L 463.480875,57.760627 L 463.934250,57.760627 L 464.387625,57.760627 L 464.841000,57.760627 L 465.294375,57.760627 L 465.747750,57.760627 L 466.201125,57.760627 L 466.654500,57.760627 L 467.107875,57.760627 L 467.561250,57.760627 L 468.014625,57.760627 L 468.468000,57.760627 L 468.921375,57.760627 L 469.374750,57.760627 L 469.828125,57.760627 L 470.281500,57.760627 L 470.734875,57.760627 L 471.188250,57.760627 L 471.641625,57.760627 L 472.095000,57.760627 L 472.548375,57.760627 L 473.001750,57.760627 L 473.455125,57.760627 L 473.908500,57.760627 L 474.361875,57.760627 L 474.815250,57.760627 L 475.268625,57.760627 L 475.722000,57.760627 L 476.175375,57.760627 L 476.628750,57.760627 L 477.082125,57.760627 L 477.535500,57.760627 L 477.988875,57.760627 L 478.442250,57.760627 L 478.895625,57.760627 L 479.349000,57.760627 L 479.802375,57.760627 L 480.255750,57.760627 L 480.709125,57.760627 L 481.162500,57.760627 L 481.615875,57.760627 L 482.069250,57.760627 L 482.522625,57.760627 L 482.976000,57.760627 L 483.429375,57.760627 L 483.882750,57.760627 L 484.336125,57.760627 L 484.789500,57.760627 L 485.242875,57.760627 L 485.696250,57.760627 L 486.149625,57.760627 L 486.603000,57.760627 L 487.056375,57.760627 L 487.509750,57.760627 L 487.963125,57.760627 L 488.416500,57.760627 L 488.869875,57.760627 L 489.323250,57.760627 L 489.776625,57.760627 L 490.230000,57.760627 L 490.683375,57.760627 L 491.136750,57.760627 L 491.590125,57.760627 L 492.043500,57.760627 L 492.496875,57.760627 L 492.950250,57.760627 L 493.403625,57.760627 L 493.857000,57.760627 L 494.310375,57.760627 L 494.763750,57.760627 L 495.217125,57.760627 L 495.670500,57.760627 L 496.123875,57.760627 L 496.577250,57.760627 L 497.030625,57.760627 L 497.484000,57.760627 L 497.937375,57.760627 L 498.390750,57.760627 L 498.844125,57.760627 L 499.297500,57.760627 L 499.750875,57.760627 L 500.204250,57.760627 L 500.657625,57.760627 L 501.111000,57.760627 L 501.564375,57.760627 L 502.017750,57.760627 L 502.471125,57.760627 L 502.924500,57.760627 L 503.377875,57.760627 L 503.831250,57.760627 L 504.284625,57.760627 L 504.738000,57.760627 L 505.191375,57.760627 L 505.644750,57.760627 L 506.098125,57.760627 L 506.551500,57.760627 L 507.004875,57.760627 L 507.458250,57.760627 L 507.911625,57.760627 L 508.365000,57.760627 L 508.818375,57.760627 L 509.271750,57.760627 L 509.725125,57.760627 L 510.178500,57.760627 L 510.631875,57.760627 L 511.085250,57.760627 L 511.538625,57.760627 L 511.992000,57.760627 L 512.445375,57.760627 L 512.898750,57.760627 L 513.352125,57.760627 L 513.805500,57.760627 L 514.258875,57.760627 L 514.712250,57.760627 L 515.165625,57.760627 L 515.619000,57.760627 L 516.072375,57.760627 L 516.525750,57.760627 L 516.979125,57.760627 L 517.432500,57.760627 L 517.885875,57.760627 L 518.339250,57.760627 L 518.792625,57.760627 L 519.246000,57.760627 L 519.699375,57.760627 L 520.152750,57.760627 L 520.606125,57.760627 L 521.059500,57.760627 L 521.512875,57.760627 L 521.966250,57.760627 L 522.419625,57.760627 L 522.873000,57.760627 L 523.326375,57.760627 L 523.779750,57.760627 L 524.233125,57.760627 L 524.686500,57.760627 L 525.139875,57.760627 L 525.593250,57.760627 L 526.046625,57.760627 "/>
<g id="matplotlib.axis1">
<g id="xtick1">
<text style="font-size: 9.996000; font-family: Bitstream Vera Serif; font-style: Roman; fill: #000000;" x="70.625000" y="406.900000" >0</text>
</g>
<g id="xtick2">
<path style="fill: none; stroke: #000000; stroke-width: 0.500000; stroke-linejoin: miter; stroke-linecap: butt;  opacity: 1.000000"  d="M 163.800000,396.900000 L 163.800000,391.900000"/>
<path style="fill: none; stroke: #000000; stroke-width: 0.500000; stroke-linejoin: miter; stroke-linecap: butt;  opacity: 1.000000"  d="M 163.800000,49.100000 L 163.800000,44.100000"/>
<text style="font-size: 9.996000; font-family: Bitstream Vera Serif; font-style: Roman; fill: #000000;" x="155.300000" y="406.900000" >200</text>
</g>
<g id="xtick3">
<path style="fill: none; stroke: #000000; stroke-width: 0.500000; stroke-linejoin: miter; stroke-linecap: butt;  opacity: 1.000000"  d="M 254.475000,396.900000 L 254.475000,391.900000"/>
<path style="fill: none; stroke: #000000; stroke-width: 0.500000; stroke-linejoin: miter; stroke-linecap: butt;  opacity: 1.000000"  d="M 254.475000,49.100000 L 254.475000,44.100000"/>
<text style="font-size: 9.996000; font-family: Bitstream Vera Serif; font-style: Roman; fill: #000000;" x="245.975000" y="406.900000" >400</text>
</g>
<g id="xtick4">
<path style="fill: none; stroke: #000000; stroke-width: 0.500000; stroke-linejoin: miter; stroke-linecap: butt;  opacity: 1.000000"  d="M 345.150000,396.900000 L 345.150000,391.900000"/>
<path style="fill: none; stroke: #000000; stroke-width: 0.500000; stroke-linejoin: miter; stroke-linecap: butt;  opacity: 1.000000"  d="M 345.150000,49.100000 L 345.150000,44.100000"/>
<text style="font-size: 9.996000; font-family: Bitstream Vera Serif; font-style: Roman; fill: #000000;" x="336.650000" y="406.900000" >600</text>
</g>
<g id="xtick5">
<path style="fill: none; stroke: #000000; stroke-width: 0.500000; stroke-linejoin: miter; stroke-linecap: butt;  opacity: 1.000000"  d="M 435.825000,396.900000 L 435.825000,391.900000"/>
<path style="fill: none; stroke: #000000; stroke-width: 0.500000; stroke-linejoin: miter; stroke-linecap: butt;  opacity: 1.000000"  d="M 435.825000,49.100000 L 435.825000,44.100000"/>
<text style="font-size: 9.996000; font-family: Bitstream Vera Serif; font-style: Roman; fill: #000000;" x="427.325000" y="406.900000" >800</text>
</g>
<g id="xtick6">
<text style="font-size: 9.996000; font-family: Bitstream Vera Serif; font-style: Roman; fill: #000000;" x="515.500000" y="406.900000" >1000</text>
</g>
<text style="font-size: 12.000000; font-family: Bitstream Vera Serif; font-style: Roman; fill: #000000;" x="296.312500" y="418.900000" >n</text>
</g>
<g id="matplotlib.axis2">
<g id="ytick1">
<path style="fill: none; stroke: #000000; stroke-width: 0.500000; stroke-linejoin: miter; stroke-linecap: butt;  opacity: 1.000000"  d="M 73.125000,396.900000 L 78.125000,396.900000"/>
<path style="fill: none; stroke: #000000; stroke-width: 0.500000; stroke-linejoin: miter; stroke-linecap: butt;  opacity: 1.000000"  d="M 521.500000,396.900000 L 526.500000,396.900000"/>
<text style="font-size: 9.996000; font-family: Bitstream Vera Serif; font-style: Roman; fill: #000000;" x="50.125000" y="400.400000" >0.96</text>
</g>
<g id="ytick2">
<path style="fill: none; stroke: #000000; stroke-width: 0.500000; stroke-linejoin: miter; stroke-linecap: butt;  opacity: 1.000000"  d="M 73.125000,352.800000 L 78.125000,352.800000"/>
<path style="fill: none; stroke: #000000; stroke-width: 0.500000; stroke-linejoin: miter; stroke-linecap: butt;  opacity: 1.000000"  d="M 521.500000,352.800000 L 526.500000,352.800000"/>
<text style="font-size: 9.996000; font-family: Bitstream Vera Serif; font-style: Roman; fill: #000000;" x="50.125000" y="356.300000" >0.97</text>
</g>
<g id="ytick3">
<path style="fill: none; stroke: #000000; stroke-width: 0.500000; stroke-linejoin: miter; stroke-linecap: butt;  opacity: 1.000000"  d="M 73.125000,308.700000 L 78.125000,308.700000"/>
<path style="fill: none; stroke: #000000; stroke-width: 0.500000; stroke-linejoin: miter; stroke-linecap: butt;  opacity: 1.000000"  d="M 521.500000,308.700000 L 526.500000,308.700000"/>
<text style="font-size: 9.996000; font-family: Bitstream Vera Serif; font-style: Roman; fill: #000000;" x="50.125000" y="312.200000" >0.98</text>
</g>
<g id="ytick4">
<path style="fill: none; stroke: #000000; stroke-width: 0.500000; stroke-linejoin: miter; stroke-linecap: butt;  opacity: 1.000000"  d="M 73.125000,264.600000 L 78.125000,264.600000"/>
<path style="fill: none; stroke: #000000; stroke-width: 0.500000; stroke-linejoin: miter; stroke-linecap: butt;  opacity: 1.000000"  d="M 521.500000,264.600000 L 526.500000,264.600000"/>
<text style="font-size: 9.996000; font-family: Bitstream Vera Serif; font-style: Roman; fill: #000000;" x="50.125000" y="268.100000" >0.99</text>
</g>
<g id="ytick5">
<path style="fill: none; stroke: #000000; stroke-width: 0.500000; stroke-linejoin: miter; stroke-linecap: butt;  opacity: 1.000000"  d="M 73.125000,220.500000 L 78.125000,220.500000"/>
<path style="fill: none; stroke: #000000; stroke-width: 0.500000; stroke-linejoin: miter; stroke-linecap: butt;  opacity: 1.000000"  d="M 521.500000,220.500000 L 526.500000,220.500000"/>
<text style="font-size: 9.996000; font-family: Bitstream Vera Serif; font-style: Roman; fill: #000000;" x="51.125000" y="224.000000" >1.00</text>
</g>
<g id="ytick6">
<path style="fill: none; stroke: #000000; stroke-width: 0.500000; stroke-linejoin: miter; stroke-linecap: butt;  opacity: 1.000000"  d="M 73.125000,176.400000 L 78.125000,176.400000"/>
<path style="fill: none; stroke: #000000; stroke-width: 0.500000; stroke-linejoin: miter; stroke-linecap: butt;  opacity: 1.000000"  d="M 521.500000,176.400000 L 526.500000,176.400000"/>
<text style="font-size: 9.996000; font-family: Bitstream Vera Serif; font-style: Roman; fill: #000000;" x="52.125000" y="179.900000" >1.01</text>
</g>
<g id="ytick7">
<path style="fill: none; stroke: #000000; stroke-width: 0.500000; stroke-linejoin: miter; stroke-linecap: butt;  opacity: 1.000000"  d="M 73.125000,132.300000 L 78.125000,132.300000"/>
<path style="fill: none; stroke: #000000; stroke-width: 0.500000; stroke-linejoin: miter; stroke-linecap: butt;  opacity: 1.000000"  d="M 521.500000,132.300000 L 526.500000,132.300000"/>
<text style="font-size: 9.996000; font-family: Bitstream Vera Serif; font-style: Roman; fill: #000000;" x="51.125000" y="135.800000" >1.02</text>
</g>
<g id="ytick8">
<path style="fill: none; stroke: #000000; stroke-width: 0.500000; stroke-linejoin: miter; stroke-linecap: butt;  opacity: 1.000000"  d="M 73.125000,88.200000 L 78.125000,88.200000"/>
<path style="fill: none; stroke: #000000; stroke-width: 0.500000; stroke-linejoin: miter; stroke-linecap: butt;  opacity: 1.000000"  d="M 521.500000,88.200000 L 526.500000,88.200000"/>
<text style="font-size: 9.996000; font-family: Bitstream Vera Serif; font-style: Roman; fill: #000000;" x="51.125000" y="91.700000" >1.03</text>
</g>
<g id="ytick9">
<text style="font-size: 9.996000; font-family: Bitstream Vera Serif; font-style: Roman; fill: #000000;" x="51.125000" y="47.600000" >1.04</text>
</g>
</g>
<path style="fill: none; stroke: #000000; stroke-width: 1.000000; stroke-linejoin: miter; stroke-linecap: square;  opacity: 1.000000"  d="M 73.125000,396.900000 L 526.500000,396.900000 L 526.500000,44.100000 L 73.125000,44.100000 L 73.125000,396.900000 "/>
<text style="font-size: 14.400000; font-family: Bitstream Vera Serif; font-style: Roman; fill: #000000;" x="-13.687500" y="37.044000" >Final_4 a_ratio approx vs exact. a=-1 b=1 B=0.3 gap=0.01, mse1=0.0000, mse2=0.0050</text>
<g id="legend1">
<polygon style="fill: #ffffff; stroke: #000000; stroke-width: 0.500000; stroke-linejoin: miter; stroke-linecap: square;  opacity: 1.000000"  points = "367.989000,94.636320 367.989000,51.156000 517.432500,51.156000 517.432500,94.636320"/>
<path style="fill: none; stroke: #0000ff; stroke-width: 0.500000; stroke-linejoin: miter; stroke-linecap: square;  opacity: 1.000000"  d="M 382.242625,59.779360 L 389.798875,59.779360 L 397.355125,59.779360 L 404.911375,59.779360 "/>
<path style="fill: none; stroke: #008000; stroke-width: 0.500000; stroke-linejoin: miter; stroke-linecap: square;  opacity: 1.000000"  d="M 382.242625,72.896160 L 389.798875,72.896160 L 397.355125,72.896160 L 404.911375,72.896160 "/>
<path style="fill: none; stroke: #ff0000; stroke-width: 0.500000; stroke-linejoin: miter; stroke-linecap: square;  opacity: 1.000000"  d="M 382.242625,86.012960 L 389.798875,86.012960 L 397.355125,86.012960 L 404.911375,86.012960 "/>
<text style="font-size: 9.996000; font-family: Bitstream Vera Serif; font-style: Roman; fill: #000000;" x="413.978875" y="64.779360" >approx_alpha_ratio</text>
<text style="font-size: 9.996000; font-family: Bitstream Vera Serif; font-style: Roman; fill: #000000;" x="413.978875" y="77.896160" >exact_alpha_ratio1</text>
<text style="font-size: 9.996000; font-family: Bitstream Vera Serif; font-style: Roman; fill: #000000;" x="413.978875" y="91.012960" >exact_alpha_ratio2</text>
</g>
</g>
</g>
</svg>
