<?xml version="1.0" standalone="no"?>
<!DOCTYPE svg PUBLIC "-//W3C//DTD SVG 1.1//EN"
  "http://www.w3.org/Graphics/SVG/1.1/DTD/svg11.dtd">
<!-- Created with matplotlib (http://matplotlib.sourceforge.net/) -->
<svg width="585" height="441" viewBox="0 0 585 441"
   xmlns="http://www.w3.org/2000/svg"
   xmlns:xlink="http://www.w3.org/1999/xlink"
   version="1.1"
   id="svg1">
<g id="figure1">
<polygon style="fill: #ffffff; stroke: #ffffff; stroke-width: 1.000000; stroke-linejoin: miter; stroke-linecap: square;  opacity: 1.000000"  points = "0.000000,441.000000 0.000000,0.000000 585.000000,0.000000 585.000000,441.000000"/>
<g id="axes1">
<polygon style="fill: #ffffff; stroke: #000000; stroke-width: 1.000000; stroke-linejoin: miter; stroke-linecap: square;  opacity: 1.000000"  points = "73.125000,396.900000 73.125000,44.100000 526.500000,44.100000 526.500000,396.900000"/>
<defs>
    <clipPath id="7240474723315632415">
    <rect x="73.125000" y="44.100000" width="453.375000" height="352.800000"
    style="stroke: gray; fill: none;"/>
    </clipPath>
</defs>
<path style="fill: none; stroke: #0000ff; stroke-width: 0.500000; stroke-linejoin: miter; stroke-linecap: square;  opacity: 1.000000" clip-path="url(#7240474723315632415)" d="M 73.125000,338.100000 L 74.938500,337.849928 L 76.752000,337.528299 L 78.565500,337.274478 L 80.379000,336.861115 L 82.192500,336.446747 L 84.006000,336.001353 L 85.819500,335.614614 L 87.633000,335.294443 L 89.446500,335.044240 L 91.260000,334.787808 L 93.073500,334.531603 L 94.887000,334.400182 L 96.700500,334.276140 L 98.514000,334.035317 L 100.327500,333.736701 L 102.141000,333.475088 L 103.954500,333.201826 L 105.768000,333.041648 L 107.581500,332.814802 L 109.395000,332.766168 L 111.208500,332.783470 L 113.022000,332.744282 L 114.835500,332.534333 L 116.649000,332.187727 L 118.462500,331.986710 L 120.276000,331.592078 L 122.089500,331.240650 L 123.903000,330.762614 L 125.716500,330.368333 L 127.530000,329.878762 L 129.343500,329.425879 L 131.157000,328.909546 L 132.970500,328.482804 L 134.784000,327.955391 L 136.597500,327.416211 L 138.411000,326.855642 L 140.224500,326.318256 L 142.038000,325.761365 L 143.851500,325.099409 L 145.665000,324.484139 L 147.478500,323.982861 L 149.292000,323.452823 L 151.105500,322.892204 L 152.919000,322.294060 L 154.732500,321.770850 L 156.546000,321.078549 L 158.359500,320.434235 L 160.173000,319.744474 L 161.986500,319.131460 L 163.800000,318.476525 L 165.613500,317.781577 L 167.427000,317.059228 L 169.240500,316.374679 L 171.054000,315.734214 L 172.867500,315.074930 L 174.681000,314.368635 L 176.494500,313.651718 L 178.308000,312.960011 L 180.121500,312.112240 L 181.935000,311.324180 L 183.748500,310.463578 L 185.562000,309.610766 L 187.375500,308.649194 L 189.189000,307.550627 L 191.002500,306.467345 L 192.816000,305.324919 L 194.629500,304.125937 L 196.443000,302.816224 L 198.256500,301.490981 L 200.070000,300.229874 L 201.883500,299.028715 L 203.697000,297.780727 L 205.510500,296.548277 L 207.324000,295.306452 L 209.137500,294.084605 L 210.951000,292.863163 L 212.764500,291.747087 L 214.578000,290.443297 L 216.391500,289.248999 L 218.205000,288.164195 L 220.018500,287.049549 L 221.832000,286.004788 L 223.645500,284.930167 L 225.459000,283.873295 L 227.272500,282.832946 L 229.086000,281.799505 L 230.899500,280.709995 L 232.713000,279.486999 L 234.526500,278.177871 L 236.340000,276.806337 L 238.153500,275.407178 L 239.967000,273.929037 L 241.780500,272.444064 L 243.594000,270.969605 L 245.407500,269.552352 L 247.221000,268.158122 L 249.034500,266.639891 L 250.848000,265.169726 L 252.661500,263.807128 L 254.475000,262.493546 L 256.288500,261.258618 L 258.102000,260.018362 L 259.915500,258.701207 L 261.729000,257.325360 L 263.542500,256.004081 L 265.356000,254.677657 L 267.169500,253.346182 L 268.983000,251.944339 L 270.796500,250.551124 L 272.610000,249.063688 L 274.423500,247.563672 L 276.237000,245.970787 L 278.050500,244.457976 L 279.864000,242.992643 L 281.677500,241.419377 L 283.491000,239.879925 L 285.304500,238.335658 L 287.118000,236.805935 L 288.931500,235.234089 L 290.745000,233.691071 L 292.558500,232.027948 L 294.372000,230.181394 L 296.185500,228.383885 L 297.999000,226.441668 L 299.812500,224.476852 L 301.626000,222.558910 L 303.439500,220.574030 L 305.253000,218.608194 L 307.066500,216.767062 L 308.880000,214.825375 L 310.693500,212.908014 L 312.507000,211.131459 L 314.320500,209.227763 L 316.134000,207.190084 L 317.947500,205.182460 L 319.761000,203.071629 L 321.574500,201.050846 L 323.388000,199.022893 L 325.201500,197.156775 L 327.015000,195.306957 L 328.828500,193.454847 L 330.642000,191.606987 L 332.455500,189.771277 L 334.269000,187.966860 L 336.082500,186.057248 L 337.896000,184.147342 L 339.709500,182.163161 L 341.523000,180.254085 L 343.336500,178.404605 L 345.150000,176.614075 L 346.963500,174.764834 L 348.777000,173.082168 L 350.590500,171.360663 L 352.404000,169.647171 L 354.217500,167.961470 L 356.031000,166.193151 L 357.844500,164.533319 L 359.658000,163.128830 L 361.471500,161.835000 L 363.285000,160.516329 L 365.098500,159.151497 L 366.912000,157.881620 L 368.725500,156.681993 L 370.539000,155.473548 L 372.352500,154.180933 L 374.166000,152.843790 L 375.979500,151.511671 L 377.793000,150.128609 L 379.606500,148.780466 L 381.420000,147.395444 L 383.233500,146.120164 L 385.047000,144.796632 L 386.860500,143.465691 L 388.674000,142.117363 L 390.487500,140.701519 L 392.301000,139.188195 L 394.114500,137.684070 L 395.928000,136.206332 L 397.741500,134.713783 L 399.555000,133.327472 L 401.368500,131.916649 L 403.182000,130.509535 L 404.995500,129.020208 L 406.809000,127.553533 L 408.622500,126.003628 L 410.436000,124.433911 L 412.249500,123.029404 L 414.063000,121.692067 L 415.876500,120.446008 L 417.690000,119.199077 L 419.503500,118.036671 L 421.317000,117.011238 L 423.130500,115.947148 L 424.944000,114.979346 L 426.757500,114.090445 L 428.571000,113.138084 L 430.384500,112.220998 L 432.198000,111.202538 L 434.011500,110.298030 L 435.825000,109.366175 L 437.638500,108.515102 "/>
<path style="fill: none; stroke: #008000; stroke-width: 0.500000; stroke-linejoin: miter; stroke-linecap: square;  opacity: 1.000000" clip-path="url(#7240474723315632415)" d="M 73.125000,338.100000 L 74.938500,338.233437 L 76.752000,338.789909 L 78.565500,338.822830 L 80.379000,338.755616 L 82.192500,338.954259 L 84.006000,338.302179 L 85.819500,339.129298 L 87.633000,338.395375 L 89.446500,337.840774 L 91.260000,337.193897 L 93.073500,336.764992 L 94.887000,336.388513 L 96.700500,336.332399 L 98.514000,336.308227 L 100.327500,336.921576 L 102.141000,336.081262 L 103.954500,336.096642 L 105.768000,335.627987 L 107.581500,337.115174 L 109.395000,336.479846 L 111.208500,336.498752 L 113.022000,337.038872 L 114.835500,335.436958 L 116.649000,336.750388 L 118.462500,337.462663 L 120.276000,337.832191 L 122.089500,338.816076 L 123.903000,338.531647 L 125.716500,338.809653 L 127.530000,339.204997 L 129.343500,336.048973 L 131.157000,336.639809 L 132.970500,338.631111 L 134.784000,336.264602 L 136.597500,335.449112 L 138.411000,333.920900 L 140.224500,335.251453 L 142.038000,334.235459 L 143.851500,330.719494 L 145.665000,328.593402 L 147.478500,328.727405 L 149.292000,331.428523 L 151.105500,332.388011 L 152.919000,332.311256 L 154.732500,331.997149 L 156.546000,331.620401 L 158.359500,331.538847 L 160.173000,333.236088 L 161.986500,335.371581 L 163.800000,330.917540 L 165.613500,330.673368 L 167.427000,330.818012 L 169.240500,329.039190 L 171.054000,330.496919 L 172.867500,329.243232 L 174.681000,328.178210 L 176.494500,327.284986 L 178.308000,324.809180 L 180.121500,324.621864 L 181.935000,320.229735 L 183.748500,318.780782 L 185.562000,318.787681 L 187.375500,318.406708 L 189.189000,316.933925 L 191.002500,313.062895 L 192.816000,308.156160 L 194.629500,309.960163 L 196.443000,307.494791 L 198.256500,307.754828 L 200.070000,307.717273 L 201.883500,305.721365 L 203.697000,302.750061 L 205.510500,300.767680 L 207.324000,300.093191 L 209.137500,300.828432 L 210.951000,298.424050 L 212.764500,296.202964 L 214.578000,292.830792 L 216.391500,291.141326 L 218.205000,289.389606 L 220.018500,286.752428 L 221.832000,286.692197 L 223.645500,287.215121 L 225.459000,290.499218 L 227.272500,287.624131 L 229.086000,280.918108 L 230.899500,284.001438 L 232.713000,283.790668 L 234.526500,278.397031 L 236.340000,274.119162 L 238.153500,271.864061 L 239.967000,267.917545 L 241.780500,268.075102 L 243.594000,266.846816 L 245.407500,264.710042 L 247.221000,262.536033 L 249.034500,258.693617 L 250.848000,259.367870 L 252.661500,256.967720 L 254.475000,255.411919 L 256.288500,256.611930 L 258.102000,257.525711 L 259.915500,258.095525 L 261.729000,255.521362 L 263.542500,256.202802 L 265.356000,250.738660 L 267.169500,250.689810 L 268.983000,252.171801 L 270.796500,249.170650 L 272.610000,247.719692 L 274.423500,244.905636 L 276.237000,238.602994 L 278.050500,238.218003 L 279.864000,237.598080 L 281.677500,238.032631 L 283.491000,234.495465 L 285.304500,231.363424 L 287.118000,230.106775 L 288.931500,227.572251 L 290.745000,226.643381 L 292.558500,223.268387 L 294.372000,220.725360 L 296.185500,217.821828 L 297.999000,218.394079 L 299.812500,214.101608 L 301.626000,213.237725 L 303.439500,210.211805 L 305.253000,207.990504 L 307.066500,199.116188 L 308.880000,193.157803 L 310.693500,193.948370 L 312.507000,187.894330 L 314.320500,189.995143 L 316.134000,186.440066 L 317.947500,183.986632 L 319.761000,181.287036 L 321.574500,178.064724 L 323.388000,175.864177 L 325.201500,173.240451 L 327.015000,171.275406 L 328.828500,169.354088 L 330.642000,169.999910 L 332.455500,166.557999 L 334.269000,164.222576 L 336.082500,163.698515 L 337.896000,162.174522 L 339.709500,160.564583 L 341.523000,159.388858 L 343.336500,155.324219 L 345.150000,150.426293 L 346.963500,150.266285 L 348.777000,145.484225 L 350.590500,142.658734 L 352.404000,138.444408 L 354.217500,142.650093 L 356.031000,140.255241 L 357.844500,138.439728 L 359.658000,138.385737 L 361.471500,138.009198 L 363.285000,134.512563 L 365.098500,134.539673 L 366.912000,134.634440 L 368.725500,132.014235 L 370.539000,132.474428 L 372.352500,133.485831 L 374.166000,130.427490 L 375.979500,127.879184 L 377.793000,125.001564 L 379.606500,122.127548 L 381.420000,117.024530 L 383.233500,119.378664 L 385.047000,122.417624 L 386.860500,120.066607 L 388.674000,119.280836 L 390.487500,116.723610 L 392.301000,113.124552 L 394.114500,113.042729 L 395.928000,107.001659 L 397.741500,108.250782 L 399.555000,107.823746 L 401.368500,109.060849 L 403.182000,107.863325 L 404.995500,108.343522 L 406.809000,108.536746 L 408.622500,104.478093 L 410.436000,101.042161 L 412.249500,96.468701 L 414.063000,88.696355 L 415.876500,90.231116 L 417.690000,92.461803 L 419.503500,91.515830 L 421.317000,88.692353 L 423.130500,88.913280 L 424.944000,90.156604 L 426.757500,84.337352 L 428.571000,79.605077 L 430.384500,77.788908 L 432.198000,75.724624 L 434.011500,74.894183 L 435.825000,72.203977 L 437.638500,76.510515 "/>
<g id="matplotlib.axis1">
<g id="xtick1">
<text style="font-size: 9.996000; font-family: Bitstream Vera Serif; font-style: Roman; fill: #000000;" x="70.625000" y="406.900000" >0</text>
</g>
<g id="xtick2">
<path style="fill: none; stroke: #000000; stroke-width: 0.500000; stroke-linejoin: miter; stroke-linecap: butt;  opacity: 1.000000"  d="M 163.800000,396.900000 L 163.800000,391.900000"/>
<path style="fill: none; stroke: #000000; stroke-width: 0.500000; stroke-linejoin: miter; stroke-linecap: butt;  opacity: 1.000000"  d="M 163.800000,49.100000 L 163.800000,44.100000"/>
<text style="font-size: 9.996000; font-family: Bitstream Vera Serif; font-style: Roman; fill: #000000;" x="158.300000" y="406.900000" >50</text>
</g>
<g id="xtick3">
<path style="fill: none; stroke: #000000; stroke-width: 0.500000; stroke-linejoin: miter; stroke-linecap: butt;  opacity: 1.000000"  d="M 254.475000,396.900000 L 254.475000,391.900000"/>
<path style="fill: none; stroke: #000000; stroke-width: 0.500000; stroke-linejoin: miter; stroke-linecap: butt;  opacity: 1.000000"  d="M 254.475000,49.100000 L 254.475000,44.100000"/>
<text style="font-size: 9.996000; font-family: Bitstream Vera Serif; font-style: Roman; fill: #000000;" x="246.475000" y="406.900000" >100</text>
</g>
<g id="xtick4">
<path style="fill: none; stroke: #000000; stroke-width: 0.500000; stroke-linejoin: miter; stroke-linecap: butt;  opacity: 1.000000"  d="M 345.150000,396.900000 L 345.150000,391.900000"/>
<path style="fill: none; stroke: #000000; stroke-width: 0.500000; stroke-linejoin: miter; stroke-linecap: butt;  opacity: 1.000000"  d="M 345.150000,49.100000 L 345.150000,44.100000"/>
<text style="font-size: 9.996000; font-family: Bitstream Vera Serif; font-style: Roman; fill: #000000;" x="337.150000" y="406.900000" >150</text>
</g>
<g id="xtick5">
<path style="fill: none; stroke: #000000; stroke-width: 0.500000; stroke-linejoin: miter; stroke-linecap: butt;  opacity: 1.000000"  d="M 435.825000,396.900000 L 435.825000,391.900000"/>
<path style="fill: none; stroke: #000000; stroke-width: 0.500000; stroke-linejoin: miter; stroke-linecap: butt;  opacity: 1.000000"  d="M 435.825000,49.100000 L 435.825000,44.100000"/>
<text style="font-size: 9.996000; font-family: Bitstream Vera Serif; font-style: Roman; fill: #000000;" x="427.325000" y="406.900000" >200</text>
</g>
<g id="xtick6">
<text style="font-size: 9.996000; font-family: Bitstream Vera Serif; font-style: Roman; fill: #000000;" x="518.000000" y="406.900000" >250</text>
</g>
<text style="font-size: 12.000000; font-family: Bitstream Vera Serif; font-style: Roman; fill: #000000;" x="296.312500" y="418.900000" >n</text>
</g>
<g id="matplotlib.axis2">
<g id="ytick1">
<text style="font-size: 9.996000; font-family: Bitstream Vera Serif; font-style: Roman; fill: #000000;" x="56.125000" y="400.400000" >-10</text>
</g>
<g id="ytick2">
<path style="fill: none; stroke: #000000; stroke-width: 0.500000; stroke-linejoin: miter; stroke-linecap: butt;  opacity: 1.000000"  d="M 73.125000,338.100000 L 78.125000,338.100000"/>
<path style="fill: none; stroke: #000000; stroke-width: 0.500000; stroke-linejoin: miter; stroke-linecap: butt;  opacity: 1.000000"  d="M 521.500000,338.100000 L 526.500000,338.100000"/>
<text style="font-size: 9.996000; font-family: Bitstream Vera Serif; font-style: Roman; fill: #000000;" x="65.125000" y="341.600000" >0</text>
</g>
<g id="ytick3">
<path style="fill: none; stroke: #000000; stroke-width: 0.500000; stroke-linejoin: miter; stroke-linecap: butt;  opacity: 1.000000"  d="M 73.125000,279.300000 L 78.125000,279.300000"/>
<path style="fill: none; stroke: #000000; stroke-width: 0.500000; stroke-linejoin: miter; stroke-linecap: butt;  opacity: 1.000000"  d="M 521.500000,279.300000 L 526.500000,279.300000"/>
<text style="font-size: 9.996000; font-family: Bitstream Vera Serif; font-style: Roman; fill: #000000;" x="60.125000" y="282.800000" >10</text>
</g>
<g id="ytick4">
<path style="fill: none; stroke: #000000; stroke-width: 0.500000; stroke-linejoin: miter; stroke-linecap: butt;  opacity: 1.000000"  d="M 73.125000,220.500000 L 78.125000,220.500000"/>
<path style="fill: none; stroke: #000000; stroke-width: 0.500000; stroke-linejoin: miter; stroke-linecap: butt;  opacity: 1.000000"  d="M 521.500000,220.500000 L 526.500000,220.500000"/>
<text style="font-size: 9.996000; font-family: Bitstream Vera Serif; font-style: Roman; fill: #000000;" x="59.125000" y="224.000000" >20</text>
</g>
<g id="ytick5">
<path style="fill: none; stroke: #000000; stroke-width: 0.500000; stroke-linejoin: miter; stroke-linecap: butt;  opacity: 1.000000"  d="M 73.125000,161.700000 L 78.125000,161.700000"/>
<path style="fill: none; stroke: #000000; stroke-width: 0.500000; stroke-linejoin: miter; stroke-linecap: butt;  opacity: 1.000000"  d="M 521.500000,161.700000 L 526.500000,161.700000"/>
<text style="font-size: 9.996000; font-family: Bitstream Vera Serif; font-style: Roman; fill: #000000;" x="59.125000" y="165.200000" >30</text>
</g>
<g id="ytick6">
<path style="fill: none; stroke: #000000; stroke-width: 0.500000; stroke-linejoin: miter; stroke-linecap: butt;  opacity: 1.000000"  d="M 73.125000,102.900000 L 78.125000,102.900000"/>
<path style="fill: none; stroke: #000000; stroke-width: 0.500000; stroke-linejoin: miter; stroke-linecap: butt;  opacity: 1.000000"  d="M 521.500000,102.900000 L 526.500000,102.900000"/>
<text style="font-size: 9.996000; font-family: Bitstream Vera Serif; font-style: Roman; fill: #000000;" x="59.125000" y="106.400000" >40</text>
</g>
<g id="ytick7">
<text style="font-size: 9.996000; font-family: Bitstream Vera Serif; font-style: Roman; fill: #000000;" x="59.125000" y="47.600000" >50</text>
</g>
</g>
<path style="fill: none; stroke: #000000; stroke-width: 1.000000; stroke-linejoin: miter; stroke-linecap: square;  opacity: 1.000000"  d="M 73.125000,396.900000 L 526.500000,396.900000 L 526.500000,44.100000 L 73.125000,44.100000 L 73.125000,396.900000 "/>
<text style="font-size: 14.400000; font-family: Bitstream Vera Serif; font-style: Roman; fill: #000000;" x="58.312500" y="37.044000" >Final_3_corrected cont. state space filtering. gap=0.01, mse=7.7198</text>
<g id="legend1">
<polygon style="fill: #ffffff; stroke: #000000; stroke-width: 0.500000; stroke-linejoin: miter; stroke-linecap: square;  opacity: 1.000000"  points = "435.189000,74.936160 435.189000,51.156000 517.432500,51.156000 517.432500,74.936160"/>
<path style="fill: none; stroke: #0000ff; stroke-width: 0.500000; stroke-linejoin: miter; stroke-linecap: square;  opacity: 1.000000"  d="M 443.842625,56.637680 L 451.398875,56.637680 L 458.955125,56.637680 L 466.511375,56.637680 "/>
<path style="fill: none; stroke: #008000; stroke-width: 0.500000; stroke-linejoin: miter; stroke-linecap: square;  opacity: 1.000000"  d="M 443.842625,67.954480 L 451.398875,67.954480 L 458.955125,67.954480 L 466.511375,67.954480 "/>
<text style="font-size: 9.996000; font-family: Bitstream Vera Serif; font-style: Roman; fill: #000000;" x="475.578875" y="60.137680" >Hn</text>
<text style="font-size: 9.996000; font-family: Bitstream Vera Serif; font-style: Roman; fill: #000000;" x="475.578875" y="72.954480" >Hn_hat</text>
</g>
</g>
</g>
</svg>
