<?xml version="1.0" standalone="no"?>
<!DOCTYPE svg PUBLIC "-//W3C//DTD SVG 1.1//EN"
  "http://www.w3.org/Graphics/SVG/1.1/DTD/svg11.dtd">
<!-- Created with matplotlib (http://matplotlib.sourceforge.net/) -->
<svg width="585" height="441" viewBox="0 0 585 441"
   xmlns="http://www.w3.org/2000/svg"
   xmlns:xlink="http://www.w3.org/1999/xlink"
   version="1.1"
   id="svg1">
<g id="figure1">
<polygon style="fill: #ffffff; stroke: #ffffff; stroke-width: 1.000000; stroke-linejoin: miter; stroke-linecap: square;  opacity: 1.000000"  points = "0.000000,441.000000 0.000000,0.000000 585.000000,0.000000 585.000000,441.000000"/>
<g id="axes1">
<polygon style="fill: #ffffff; stroke: #000000; stroke-width: 1.000000; stroke-linejoin: miter; stroke-linecap: square;  opacity: 1.000000"  points = "73.125000,396.900000 73.125000,44.100000 526.500000,44.100000 526.500000,396.900000"/>
<defs>
    <clipPath id="7240474723315632415">
    <rect x="73.125000" y="44.100000" width="453.375000" height="352.800000"
    style="stroke: gray; fill: none;"/>
    </clipPath>
</defs>
<path style="fill: none; stroke: #0000ff; stroke-width: 0.500000; stroke-linejoin: miter; stroke-linecap: square;  opacity: 1.000000" clip-path="url(#7240474723315632415)" d="M 73.125000,349.856079 L 73.578375,349.863927 L 74.031750,349.871790 L 74.485125,349.879669 L 74.938500,349.887564 L 75.391875,349.895475 L 75.845250,349.903401 L 76.298625,349.911343 L 76.752000,349.919301 L 77.205375,349.927275 L 77.658750,349.935265 L 78.112125,349.943270 L 78.565500,349.951291 L 79.018875,349.959328 L 79.472250,349.967381 L 79.925625,349.975450 L 80.379000,349.983534 L 80.832375,349.991635 L 81.285750,349.999751 L 81.739125,350.007884 L 82.192500,350.016032 L 82.645875,350.024196 L 83.099250,350.032377 L 83.552625,350.040573 L 84.006000,350.048785 L 84.459375,350.057014 L 84.912750,350.065258 L 85.366125,350.073518 L 85.819500,350.081795 L 86.272875,350.090087 L 86.726250,350.098396 L 87.179625,350.106721 L 87.633000,350.115062 L 88.086375,350.123419 L 88.539750,350.131792 L 88.993125,350.140181 L 89.446500,350.148587 L 89.899875,350.157008 L 90.353250,350.165446 L 90.806625,350.173900 L 91.260000,350.182370 L 91.713375,350.190857 L 92.166750,350.199360 L 92.620125,350.207879 L 93.073500,350.216414 L 93.526875,350.224966 L 93.980250,350.233534 L 94.433625,350.242118 L 94.887000,350.250718 L 95.340375,350.259335 L 95.793750,350.267968 L 96.247125,350.276618 L 96.700500,350.285284 L 97.153875,350.293966 L 97.607250,350.302665 L 98.060625,350.311380 L 98.514000,350.320112 L 98.967375,350.328859 L 99.420750,350.337624 L 99.874125,350.346405 L 100.327500,350.355202 L 100.780875,350.364016 L 101.234250,350.372846 L 101.687625,350.381693 L 102.141000,350.390556 L 102.594375,350.399436 L 103.047750,350.408332 L 103.501125,350.417245 L 103.954500,350.426175 L 104.407875,350.435121 L 104.861250,350.444083 L 105.314625,350.453063 L 105.768000,350.462058 L 106.221375,350.471071 L 106.674750,350.480100 L 107.128125,350.489145 L 107.581500,350.498207 L 108.034875,350.507286 L 108.488250,350.516382 L 108.941625,350.525494 L 109.395000,350.534623 L 109.848375,350.543768 L 110.301750,350.552931 L 110.755125,350.562109 L 111.208500,350.571305 L 111.661875,350.580517 L 112.115250,350.589746 L 112.568625,350.598992 L 113.022000,350.608255 L 113.475375,350.617534 L 113.928750,350.626830 L 114.382125,350.636143 L 114.835500,350.645472 L 115.288875,350.654819 L 115.742250,350.664182 L 116.195625,350.673562 L 116.649000,350.682959 L 117.102375,350.692372 L 117.555750,350.701803 L 118.009125,350.711250 L 118.462500,350.720714 L 118.915875,350.730195 L 119.369250,350.739692 L 119.822625,350.749207 L 120.276000,350.758739 L 120.729375,350.768287 L 121.182750,350.777852 L 121.636125,350.787434 L 122.089500,350.797033 L 122.542875,350.806649 L 122.996250,350.816282 L 123.449625,350.825931 L 123.903000,350.835598 L 124.356375,350.845282 L 124.809750,350.854982 L 125.263125,350.864699 L 125.716500,350.874434 L 126.169875,350.884185 L 126.623250,350.893953 L 127.076625,350.903738 L 127.530000,350.913540 L 127.983375,350.923359 L 128.436750,350.933196 L 128.890125,350.943049 L 129.343500,350.952919 L 129.796875,350.962805 L 130.250250,350.972709 L 130.703625,350.982630 L 131.157000,350.992568 L 131.610375,351.002523 L 132.063750,351.012495 L 132.517125,351.022484 L 132.970500,351.032490 L 133.423875,351.042513 L 133.877250,351.052553 L 134.330625,351.062610 L 134.784000,351.072684 L 135.237375,351.082775 L 135.690750,351.092883 L 136.144125,351.103008 L 136.597500,351.113150 L 137.050875,351.123310 L 137.504250,351.133486 L 137.957625,351.143679 L 138.411000,351.153889 L 138.864375,351.164117 L 139.317750,351.174361 L 139.771125,351.184622 L 140.224500,351.194901 L 140.677875,351.205196 L 141.131250,351.215509 L 141.584625,351.225839 L 142.038000,351.236185 L 142.491375,351.246549 L 142.944750,351.256930 L 143.398125,351.267328 L 143.851500,351.277742 L 144.304875,351.288174 L 144.758250,351.298623 L 145.211625,351.309089 L 145.665000,351.319573 L 146.118375,351.330073 L 146.571750,351.340590 L 147.025125,351.351124 L 147.478500,351.361676 L 147.931875,351.372244 L 148.385250,351.382829 L 148.838625,351.393432 L 149.292000,351.404051 L 149.745375,351.414688 L 150.198750,351.425342 L 150.652125,351.436012 L 151.105500,351.446700 L 151.558875,351.457405 L 152.012250,351.468127 L 152.465625,351.478866 L 152.919000,351.489621 L 153.372375,351.500394 L 153.825750,351.511184 L 154.279125,351.521991 L 154.732500,351.532815 L 155.185875,351.543656 L 155.639250,351.554514 L 156.092625,351.565389 L 156.546000,351.576281 L 156.999375,351.587191 L 157.452750,351.598117 L 157.906125,351.609060 L 158.359500,351.620020 L 158.812875,351.630997 L 159.266250,351.641991 L 159.719625,351.653002 L 160.173000,351.664030 L 160.626375,351.675075 L 161.079750,351.686137 L 161.533125,351.697216 L 161.986500,351.708312 L 162.439875,351.719425 L 162.893250,351.730555 L 163.346625,351.741701 L 163.800000,351.752865 L 164.253375,351.764046 L 164.706750,351.775243 L 165.160125,351.786458 L 165.613500,351.797689 L 166.066875,351.808937 L 166.520250,351.820202 L 166.973625,351.831484 L 167.427000,351.842783 L 167.880375,351.854099 L 168.333750,351.865432 L 168.787125,351.876781 L 169.240500,351.888148 L 169.693875,351.899531 L 170.147250,351.910931 L 170.600625,351.922348 L 171.054000,351.933782 L 171.507375,351.945232 L 171.960750,351.956700 L 172.414125,351.968184 L 172.867500,351.979685 L 173.320875,351.991202 L 173.774250,352.002737 L 174.227625,352.014288 L 174.681000,352.025856 L 175.134375,352.037441 L 175.587750,352.049042 L 176.041125,352.060660 L 176.494500,352.072295 L 176.947875,352.083947 L 177.401250,352.095615 L 177.854625,352.107300 L 178.308000,352.119002 L 178.761375,352.130720 L 179.214750,352.142455 L 179.668125,352.154206 L 180.121500,352.165975 L 180.574875,352.177759 L 181.028250,352.189561 L 181.481625,352.201379 L 181.935000,352.213213 L 182.388375,352.225064 L 182.841750,352.236932 L 183.295125,352.248816 L 183.748500,352.260717 L 184.201875,352.272634 L 184.655250,352.284567 L 185.108625,352.296518 L 185.562000,352.308484 L 186.015375,352.320467 L 186.468750,352.332467 L 186.922125,352.344483 L 187.375500,352.356515 L 187.828875,352.368564 L 188.282250,352.380629 L 188.735625,352.392710 L 189.189000,352.404808 L 189.642375,352.416922 L 190.095750,352.429053 L 190.549125,352.441200 L 191.002500,352.453363 L 191.455875,352.465542 L 191.909250,352.477738 L 192.362625,352.489950 L 192.816000,352.502178 L 193.269375,352.514422 L 193.722750,352.526682 L 194.176125,352.538959 L 194.629500,352.551252 L 195.082875,352.563561 L 195.536250,352.575886 L 195.989625,352.588227 L 196.443000,352.600584 L 196.896375,352.612958 L 197.349750,352.625347 L 197.803125,352.637753 L 198.256500,352.650174 L 198.709875,352.662611 L 199.163250,352.675065 L 199.616625,352.687534 L 200.070000,352.700020 L 200.523375,352.712521 L 200.976750,352.725038 L 201.430125,352.737571 L 201.883500,352.750120 L 202.336875,352.762685 L 202.790250,352.775265 L 203.243625,352.787861 L 203.697000,352.800474 L 204.150375,352.813101 L 204.603750,352.825745 L 205.057125,352.838404 L 205.510500,352.851079 L 205.963875,352.863770 L 206.417250,352.876477 L 206.870625,352.889199 L 207.324000,352.901936 L 207.777375,352.914689 L 208.230750,352.927458 L 208.684125,352.940242 L 209.137500,352.953042 L 209.590875,352.965857 L 210.044250,352.978688 L 210.497625,352.991534 L 210.951000,353.004396 L 211.404375,353.017273 L 211.857750,353.030166 L 212.311125,353.043073 L 212.764500,353.055996 L 213.217875,353.068935 L 213.671250,353.081889 L 214.124625,353.094857 L 214.578000,353.107842 L 215.031375,353.120841 L 215.484750,353.133856 L 215.938125,353.146885 L 216.391500,353.159930 L 216.844875,353.172990 L 217.298250,353.186065 L 217.751625,353.199155 L 218.205000,353.212260 L 218.658375,353.225380 L 219.111750,353.238516 L 219.565125,353.251666 L 220.018500,353.264831 L 220.471875,353.278010 L 220.925250,353.291205 L 221.378625,353.304415 L 221.832000,353.317639 L 222.285375,353.330878 L 222.738750,353.344132 L 223.192125,353.357401 L 223.645500,353.370684 L 224.098875,353.383982 L 224.552250,353.397294 L 225.005625,353.410622 L 225.459000,353.423963 L 225.912375,353.437320 L 226.365750,353.450691 L 226.819125,353.464076 L 227.272500,353.477476 L 227.725875,353.490890 L 228.179250,353.504319 L 228.632625,353.517762 L 229.086000,353.531219 L 229.539375,353.544691 L 229.992750,353.558177 L 230.446125,353.571677 L 230.899500,353.585191 L 231.352875,353.598720 L 231.806250,353.612262 L 232.259625,353.625819 L 232.713000,353.639390 L 233.166375,353.652975 L 233.619750,353.666574 L 234.073125,353.680187 L 234.526500,353.693814 L 234.979875,353.707455 L 235.433250,353.721110 L 235.886625,353.734778 L 236.340000,353.748461 L 236.793375,353.762157 L 237.246750,353.775867 L 237.700125,353.789591 L 238.153500,353.803328 L 238.606875,353.817079 L 239.060250,353.830844 L 239.513625,353.844622 L 239.967000,353.858414 L 240.420375,353.872219 L 240.873750,353.886038 L 241.327125,353.899870 L 241.780500,353.913716 L 242.233875,353.927575 L 242.687250,353.941447 L 243.140625,353.955333 L 243.594000,353.969232 L 244.047375,353.983144 L 244.500750,353.997069 L 244.954125,354.011007 L 245.407500,354.024959 L 245.860875,354.038924 L 246.314250,354.052901 L 246.767625,354.066892 L 247.221000,354.080896 L 247.674375,354.094912 L 248.127750,354.108942 L 248.581125,354.122984 L 249.034500,354.137039 L 249.487875,354.151107 L 249.941250,354.165188 L 250.394625,354.179281 L 250.848000,354.193387 L 251.301375,354.207505 L 251.754750,354.221637 L 252.208125,354.235780 L 252.661500,354.249937 L 253.114875,354.264105 L 253.568250,354.278286 L 254.021625,354.292480 L 254.475000,354.306686 L 254.928375,354.320904 L 255.381750,354.335134 L 255.835125,354.349376 L 256.288500,354.363631 L 256.741875,354.377898 L 257.195250,354.392177 L 257.648625,354.406468 L 258.102000,354.420771 L 258.555375,354.435086 L 259.008750,354.449413 L 259.462125,354.463751 L 259.915500,354.478102 L 260.368875,354.492464 L 260.822250,354.506839 L 261.275625,354.521224 L 261.729000,354.535622 L 262.182375,354.550031 L 262.635750,354.564452 L 263.089125,354.578884 L 263.542500,354.593328 L 263.995875,354.607783 L 264.449250,354.622249 L 264.902625,354.636727 L 265.356000,354.651216 L 265.809375,354.665717 L 266.262750,354.680229 L 266.716125,354.694752 L 267.169500,354.709286 L 267.622875,354.723831 L 268.076250,354.738387 L 268.529625,354.752954 L 268.983000,354.767532 L 269.436375,354.782121 L 269.889750,354.796721 L 270.343125,354.811332 L 270.796500,354.825953 L 271.249875,354.840585 L 271.703250,354.855228 L 272.156625,354.869881 L 272.610000,354.884545 L 273.063375,354.899220 L 273.516750,354.913905 L 273.970125,354.928600 L 274.423500,354.943306 L 274.876875,354.958022 L 275.330250,354.972749 L 275.783625,354.987486 L 276.237000,355.002233 L 276.690375,355.016990 L 277.143750,355.031757 L 277.597125,355.046534 L 278.050500,355.061321 L 278.503875,355.076118 L 278.957250,355.090926 L 279.410625,355.105742 L 279.864000,355.120569 L 280.317375,355.135406 L 280.770750,355.150252 L 281.224125,355.165108 L 281.677500,355.179973 L 282.130875,355.194848 L 282.584250,355.209733 L 283.037625,355.224627 L 283.491000,355.239530 L 283.944375,355.254443 L 284.397750,355.269365 L 284.851125,355.284296 L 285.304500,355.299237 L 285.757875,355.314186 L 286.211250,355.329145 L 286.664625,355.344113 L 287.118000,355.359089 L 287.571375,355.374075 L 288.024750,355.389070 L 288.478125,355.404073 L 288.931500,355.419085 L 289.384875,355.434106 L 289.838250,355.449136 L 290.291625,355.464174 L 290.745000,355.479221 L 291.198375,355.494276 L 291.651750,355.509340 L 292.105125,355.524413 L 292.558500,355.539493 L 293.011875,355.554582 L 293.465250,355.569679 L 293.918625,355.584785 L 294.372000,355.599898 L 294.825375,355.615020 L 295.278750,355.630149 L 295.732125,355.645287 L 296.185500,355.660433 L 296.638875,355.675586 L 297.092250,355.690747 L 297.545625,355.705917 L 297.999000,355.721093 L 298.452375,355.736278 L 298.905750,355.751470 L 299.359125,355.766669 L 299.812500,355.781877 L 300.265875,355.797091 L 300.719250,355.812313 L 301.172625,355.827542 L 301.626000,355.842779 L 302.079375,355.858022 L 302.532750,355.873273 L 302.986125,355.888531 L 303.439500,355.903796 L 303.892875,355.919069 L 304.346250,355.934348 L 304.799625,355.949633 L 305.253000,355.964926 L 305.706375,355.980226 L 306.159750,355.995532 L 306.613125,356.010845 L 307.066500,356.026164 L 307.519875,356.041490 L 307.973250,356.056822 L 308.426625,356.072161 L 308.880000,356.087507 L 309.333375,356.102858 L 309.786750,356.118216 L 310.240125,356.133580 L 310.693500,356.148950 L 311.146875,356.164326 L 311.600250,356.179709 L 312.053625,356.195097 L 312.507000,356.210491 L 312.960375,356.225891 L 313.413750,356.241297 L 313.867125,356.256708 L 314.320500,356.272125 L 314.773875,356.287548 L 315.227250,356.302976 L 315.680625,356.318410 L 316.134000,356.333850 L 316.587375,356.349294 L 317.040750,356.364744 L 317.494125,356.380199 L 317.947500,356.395660 L 318.400875,356.411125 L 318.854250,356.426596 L 319.307625,356.442072 L 319.761000,356.457553 L 320.214375,356.473038 L 320.667750,356.488529 L 321.121125,356.504024 L 321.574500,356.519524 L 322.027875,356.535028 L 322.481250,356.550537 L 322.934625,356.566051 L 323.388000,356.581569 L 323.841375,356.597092 L 324.294750,356.612619 L 324.748125,356.628151 L 325.201500,356.643686 L 325.654875,356.659226 L 326.108250,356.674770 L 326.561625,356.690318 L 327.015000,356.705870 L 327.468375,356.721426 L 327.921750,356.736985 L 328.375125,356.752549 L 328.828500,356.768116 L 329.281875,356.783688 L 329.735250,356.799262 L 330.188625,356.814841 L 330.642000,356.830422 L 331.095375,356.846008 L 331.548750,356.861596 L 332.002125,356.877188 L 332.455500,356.892784 L 332.908875,356.908382 L 333.362250,356.923984 L 333.815625,356.939588 L 334.269000,356.955196 L 334.722375,356.970807 L 335.175750,356.986421 L 335.629125,357.002037 L 336.082500,357.017656 L 336.535875,357.033278 L 336.989250,357.048903 L 337.442625,357.064530 L 337.896000,357.080160 L 338.349375,357.095792 L 338.802750,357.111427 L 339.256125,357.127064 L 339.709500,357.142703 L 340.162875,357.158344 L 340.616250,357.173988 L 341.069625,357.189634 L 341.523000,357.205281 L 341.976375,357.220931 L 342.429750,357.236583 L 342.883125,357.252236 L 343.336500,357.267892 L 343.789875,357.283549 L 344.243250,357.299207 L 344.696625,357.314868 L 345.150000,357.330530 L 345.603375,357.346193 L 346.056750,357.361858 L 346.510125,357.377524 L 346.963500,357.393191 L 347.416875,357.408860 L 347.870250,357.424529 L 348.323625,357.440200 L 348.777000,357.455872 L 349.230375,357.471545 L 349.683750,357.487219 L 350.137125,357.502893 L 350.590500,357.518569 L 351.043875,357.534245 L 351.497250,357.549922 L 351.950625,357.565599 L 352.404000,357.581277 L 352.857375,357.596956 L 353.310750,357.612634 L 353.764125,357.628314 L 354.217500,357.643993 L 354.670875,357.659673 L 355.124250,357.675353 L 355.577625,357.691033 L 356.031000,357.706713 L 356.484375,357.722393 L 356.937750,357.738072 L 357.391125,357.753752 L 357.844500,357.769432 L 358.297875,357.785111 L 358.751250,357.800790 L 359.204625,357.816468 L 359.658000,357.832146 L 360.111375,357.847824 L 360.564750,357.863501 L 361.018125,357.879177 L 361.471500,357.894853 L 361.924875,357.910527 L 362.378250,357.926201 L 362.831625,357.941874 L 363.285000,357.957546 L 363.738375,357.973217 L 364.191750,357.988887 L 364.645125,358.004556 L 365.098500,358.020223 L 365.551875,358.035890 L 366.005250,358.051555 L 366.458625,358.067218 L 366.912000,358.082880 L 367.365375,358.098541 L 367.818750,358.114200 L 368.272125,358.129857 L 368.725500,358.145512 L 369.178875,358.161166 L 369.632250,358.176818 L 370.085625,358.192468 L 370.539000,358.208116 L 370.992375,358.223762 L 371.445750,358.239406 L 371.899125,358.255048 L 372.352500,358.270688 L 372.805875,358.286325 L 373.259250,358.301960 L 373.712625,358.317592 L 374.166000,358.333223 L 374.619375,358.348850 L 375.072750,358.364475 L 375.526125,358.380097 L 375.979500,358.395717 L 376.432875,358.411334 L 376.886250,358.426948 L 377.339625,358.442559 L 377.793000,358.458167 L 378.246375,358.473772 L 378.699750,358.489374 L 379.153125,358.504973 L 379.606500,358.520569 L 380.059875,358.536162 L 380.513250,358.551751 L 380.966625,358.567336 L 381.420000,358.582919 L 381.873375,358.598498 L 382.326750,358.614073 L 382.780125,358.629644 L 383.233500,358.645212 L 383.686875,358.660776 L 384.140250,358.676337 L 384.593625,358.691893 L 385.047000,358.707446 L 385.500375,358.722994 L 385.953750,358.738539 L 386.407125,358.754079 L 386.860500,358.769615 L 387.313875,358.785147 L 387.767250,358.800675 L 388.220625,358.816198 L 388.674000,358.831717 L 389.127375,358.847231 L 389.580750,358.862741 L 390.034125,358.878246 L 390.487500,358.893747 L 390.940875,358.909243 L 391.394250,358.924734 L 391.847625,358.940220 L 392.301000,358.955701 L 392.754375,358.971177 L 393.207750,358.986649 L 393.661125,359.002115 L 394.114500,359.017576 L 394.567875,359.033032 L 395.021250,359.048483 L 395.474625,359.063928 L 395.928000,359.079368 L 396.381375,359.094803 L 396.834750,359.110232 L 397.288125,359.125655 L 397.741500,359.141073 L 398.194875,359.156485 L 398.648250,359.171892 L 399.101625,359.187292 L 399.555000,359.202687 L 400.008375,359.218076 L 400.461750,359.233459 L 400.915125,359.248836 L 401.368500,359.264207 L 401.821875,359.279572 L 402.275250,359.294931 L 402.728625,359.310283 L 403.182000,359.325629 L 403.635375,359.340969 L 404.088750,359.356302 L 404.542125,359.371629 L 404.995500,359.386949 L 405.448875,359.402262 L 405.902250,359.417569 L 406.355625,359.432870 L 406.809000,359.448163 L 407.262375,359.463450 L 407.715750,359.478730 L 408.169125,359.494002 L 408.622500,359.509268 L 409.075875,359.524527 L 409.529250,359.539779 L 409.982625,359.555023 L 410.436000,359.570261 L 410.889375,359.585491 L 411.342750,359.600714 L 411.796125,359.615929 L 412.249500,359.631137 L 412.702875,359.646337 L 413.156250,359.661530 L 413.609625,359.676716 L 414.063000,359.691893 L 414.516375,359.707063 L 414.969750,359.722225 L 415.423125,359.737380 L 415.876500,359.752526 L 416.329875,359.767665 L 416.783250,359.782795 L 417.236625,359.797918 L 417.690000,359.813032 L 418.143375,359.828138 L 418.596750,359.843236 L 419.050125,359.858326 L 419.503500,359.873408 L 419.956875,359.888481 L 420.410250,359.903546 L 420.863625,359.918602 L 421.317000,359.933650 L 421.770375,359.948689 L 422.223750,359.963719 L 422.677125,359.978741 L 423.130500,359.993754 L 423.583875,360.008758 L 424.037250,360.023754 L 424.490625,360.038740 L 424.944000,360.053718 L 425.397375,360.068687 L 425.850750,360.083646 L 426.304125,360.098597 L 426.757500,360.113538 L 427.210875,360.128470 L 427.664250,360.143393 L 428.117625,360.158307 L 428.571000,360.173211 L 429.024375,360.188106 L 429.477750,360.202991 L 429.931125,360.217867 L 430.384500,360.232734 L 430.837875,360.247590 L 431.291250,360.262437 L 431.744625,360.277275 L 432.198000,360.292102 L 432.651375,360.306920 L 433.104750,360.321728 L 433.558125,360.336526 L 434.011500,360.351314 L 434.464875,360.366092 L 434.918250,360.380860 L 435.371625,360.395618 L 435.825000,360.410366 L 436.278375,360.425103 L 436.731750,360.439831 L 437.185125,360.454548 L 437.638500,360.469254 L 438.091875,360.483951 L 438.545250,360.498637 L 438.998625,360.513312 L 439.452000,360.527977 L 439.905375,360.542631 L 440.358750,360.557275 L 440.812125,360.571908 L 441.265500,360.586530 L 441.718875,360.601141 L 442.172250,360.615742 L 442.625625,360.630332 L 443.079000,360.644911 L 443.532375,360.659478 L 443.985750,360.674035 L 444.439125,360.688581 L 444.892500,360.703116 L 445.345875,360.717640 L 445.799250,360.732152 L 446.252625,360.746653 L 446.706000,360.761143 L 447.159375,360.775622 L 447.612750,360.790089 L 448.066125,360.804545 L 448.519500,360.818989 L 448.972875,360.833422 L 449.426250,360.847844 L 449.879625,360.862254 L 450.333000,360.876652 L 450.786375,360.891038 L 451.239750,360.905413 L 451.693125,360.919776 L 452.146500,360.934127 L 452.599875,360.948467 L 453.053250,360.962794 L 453.506625,360.977110 L 453.960000,360.991413 L 454.413375,361.005705 L 454.866750,361.019984 L 455.320125,361.034252 L 455.773500,361.048507 L 456.226875,361.062750 L 456.680250,361.076981 L 457.133625,361.091200 L 457.587000,361.105406 L 458.040375,361.119600 L 458.493750,361.133782 L 458.947125,361.147951 L 459.400500,361.162108 L 459.853875,361.176252 L 460.307250,361.190384 L 460.760625,361.204503 L 461.214000,361.218609 L 461.667375,361.232703 L 462.120750,361.246784 L 462.574125,361.260852 L 463.027500,361.274908 L 463.480875,361.288951 L 463.934250,361.302981 L 464.387625,361.316998 L 464.841000,361.331002 L 465.294375,361.344993 L 465.747750,361.358971 L 466.201125,361.372936 L 466.654500,361.386888 L 467.107875,361.400826 L 467.561250,361.414752 L 468.014625,361.428664 L 468.468000,361.442564 L 468.921375,361.456450 L 469.374750,361.470322 L 469.828125,361.484181 L 470.281500,361.498027 L 470.734875,361.511860 L 471.188250,361.525679 L 471.641625,361.539484 L 472.095000,361.553276 L 472.548375,361.567055 L 473.001750,361.580820 L 473.455125,361.594571 L 473.908500,361.608308 L 474.361875,361.622032 L 474.815250,361.635742 L 475.268625,361.649439 L 475.722000,361.663121 L 476.175375,361.676790 L 476.628750,361.690445 L 477.082125,361.704086 L 477.535500,361.717713 L 477.988875,361.731326 L 478.442250,361.744925 L 478.895625,361.758510 L 479.349000,361.772081 L 479.802375,361.785637 L 480.255750,361.799180 L 480.709125,361.812709 L 481.162500,361.826223 L 481.615875,361.839723 L 482.069250,361.853209 L 482.522625,361.866680 L 482.976000,361.880138 L 483.429375,361.893580 L 483.882750,361.907009 L 484.336125,361.920423 L 484.789500,361.933823 L 485.242875,361.947208 L 485.696250,361.960578 L 486.149625,361.973934 L 486.603000,361.987276 L 487.056375,362.000603 L 487.509750,362.013915 L 487.963125,362.027213 L 488.416500,362.040496 L 488.869875,362.053764 L 489.323250,362.067018 L 489.776625,362.080256 L 490.230000,362.093480 L 490.683375,362.106689 L 491.136750,362.119884 L 491.590125,362.133063 L 492.043500,362.146228 L 492.496875,362.159377 L 492.950250,362.172512 L 493.403625,362.185631 L 493.857000,362.198736 L 494.310375,362.211825 L 494.763750,362.224900 L 495.217125,362.237959 L 495.670500,362.251004 L 496.123875,362.264033 L 496.577250,362.277047 L 497.030625,362.290045 L 497.484000,362.303029 L 497.937375,362.315997 L 498.390750,362.328950 L 498.844125,362.341888 L 499.297500,362.354810 L 499.750875,362.367717 L 500.204250,362.380609 L 500.657625,362.393485 L 501.111000,362.406346 L 501.564375,362.419191 L 502.017750,362.432021 L 502.471125,362.444835 L 502.924500,362.457634 L 503.377875,362.470418 L 503.831250,362.483185 L 504.284625,362.495938 L 504.738000,362.508674 L 505.191375,362.521395 L 505.644750,362.534100 L 506.098125,362.546790 L 506.551500,362.559464 L 507.004875,362.572122 L 507.458250,362.584765 L 507.911625,362.597391 L 508.365000,362.610002 L 508.818375,362.622598 L 509.271750,362.635177 L 509.725125,362.647740 L 510.178500,362.660288 L 510.631875,362.672820 L 511.085250,362.685336 L 511.538625,362.697836 L 511.992000,362.710320 L 512.445375,362.722788 L 512.898750,362.735240 L 513.352125,362.747676 L 513.805500,362.760096 L 514.258875,362.772500 L 514.712250,362.784888 L 515.165625,362.797259 L 515.619000,362.809615 L 516.072375,362.821955 L 516.525750,362.834278 L 516.979125,362.846586 L 517.432500,362.858877 L 517.885875,362.871152 L 518.339250,362.883411 L 518.792625,362.895653 L 519.246000,362.907880 L 519.699375,362.920090 L 520.152750,362.932284 L 520.606125,362.944461 L 521.059500,362.956623 L 521.512875,362.968768 L 521.966250,362.980896 L 522.419625,362.993009 L 522.873000,363.005105 L 523.326375,363.017184 L 523.779750,363.029247 L 524.233125,363.041294 L 524.686500,363.053324 L 525.139875,363.065338 L 525.593250,363.077336 L 526.046625,363.089317 "/>
<path style="fill: none; stroke: #008000; stroke-width: 0.500000; stroke-linejoin: miter; stroke-linecap: square;  opacity: 1.000000" clip-path="url(#7240474723315632415)" d="M 73.125000,87.034209 L 73.578375,87.034209 L 74.031750,87.034209 L 74.485125,87.034209 L 74.938500,87.034209 L 75.391875,87.034209 L 75.845250,87.034209 L 76.298625,87.034209 L 76.752000,87.034209 L 77.205375,87.034209 L 77.658750,87.034209 L 78.112125,87.034209 L 78.565500,87.034209 L 79.018875,87.034209 L 79.472250,87.034209 L 79.925625,87.034209 L 80.379000,87.034209 L 80.832375,87.034209 L 81.285750,87.034209 L 81.739125,87.034209 L 82.192500,87.034209 L 82.645875,87.034209 L 83.099250,87.034209 L 83.552625,87.034209 L 84.006000,87.034209 L 84.459375,87.034209 L 84.912750,87.034209 L 85.366125,87.034209 L 85.819500,87.034209 L 86.272875,87.034209 L 86.726250,87.034209 L 87.179625,87.034209 L 87.633000,87.034209 L 88.086375,87.034209 L 88.539750,87.034209 L 88.993125,87.034209 L 89.446500,87.034209 L 89.899875,87.034209 L 90.353250,87.034209 L 90.806625,87.034209 L 91.260000,87.034209 L 91.713375,87.034209 L 92.166750,87.034209 L 92.620125,87.034209 L 93.073500,87.034209 L 93.526875,87.034209 L 93.980250,87.034209 L 94.433625,87.034209 L 94.887000,87.034209 L 95.340375,87.034209 L 95.793750,87.034209 L 96.247125,87.034209 L 96.700500,87.034209 L 97.153875,87.034209 L 97.607250,87.034209 L 98.060625,87.034209 L 98.514000,87.034209 L 98.967375,87.034209 L 99.420750,87.034209 L 99.874125,87.034209 L 100.327500,87.034209 L 100.780875,87.034209 L 101.234250,87.034209 L 101.687625,87.034209 L 102.141000,87.034209 L 102.594375,87.034209 L 103.047750,87.034209 L 103.501125,87.034209 L 103.954500,87.034209 L 104.407875,87.034209 L 104.861250,87.034209 L 105.314625,87.034209 L 105.768000,87.034209 L 106.221375,87.034209 L 106.674750,87.034209 L 107.128125,87.034209 L 107.581500,87.034209 L 108.034875,87.034209 L 108.488250,87.034209 L 108.941625,87.034209 L 109.395000,87.034209 L 109.848375,87.034209 L 110.301750,87.034209 L 110.755125,87.034209 L 111.208500,87.034209 L 111.661875,87.034209 L 112.115250,87.034209 L 112.568625,87.034209 L 113.022000,87.034209 L 113.475375,87.034209 L 113.928750,87.034209 L 114.382125,87.034209 L 114.835500,87.034209 L 115.288875,87.034209 L 115.742250,87.034209 L 116.195625,87.034209 L 116.649000,87.034209 L 117.102375,87.034209 L 117.555750,87.034209 L 118.009125,87.034209 L 118.462500,87.034209 L 118.915875,87.034209 L 119.369250,87.034209 L 119.822625,87.034209 L 120.276000,87.034209 L 120.729375,87.034209 L 121.182750,87.034209 L 121.636125,87.034209 L 122.089500,87.034209 L 122.542875,87.034209 L 122.996250,87.034209 L 123.449625,87.034209 L 123.903000,87.034209 L 124.356375,87.034209 L 124.809750,87.034209 L 125.263125,87.034209 L 125.716500,87.034209 L 126.169875,87.034209 L 126.623250,87.034209 L 127.076625,87.034209 L 127.530000,87.034209 L 127.983375,87.034209 L 128.436750,87.034209 L 128.890125,87.034209 L 129.343500,87.034209 L 129.796875,87.034209 L 130.250250,87.034209 L 130.703625,87.034209 L 131.157000,87.034209 L 131.610375,87.034209 L 132.063750,87.034209 L 132.517125,87.034209 L 132.970500,87.034209 L 133.423875,87.034209 L 133.877250,87.034209 L 134.330625,87.034209 L 134.784000,87.034209 L 135.237375,87.034209 L 135.690750,87.034209 L 136.144125,87.034209 L 136.597500,87.034209 L 137.050875,87.034209 L 137.504250,87.034209 L 137.957625,87.034209 L 138.411000,87.034209 L 138.864375,87.034209 L 139.317750,87.034209 L 139.771125,87.034209 L 140.224500,87.034209 L 140.677875,87.034209 L 141.131250,87.034209 L 141.584625,87.034209 L 142.038000,87.034209 L 142.491375,87.034209 L 142.944750,87.034209 L 143.398125,87.034209 L 143.851500,87.034209 L 144.304875,87.034209 L 144.758250,87.034209 L 145.211625,87.034209 L 145.665000,87.034209 L 146.118375,87.034209 L 146.571750,87.034209 L 147.025125,87.034209 L 147.478500,87.034209 L 147.931875,87.034209 L 148.385250,87.034209 L 148.838625,87.034209 L 149.292000,87.034209 L 149.745375,87.034209 L 150.198750,87.034209 L 150.652125,87.034209 L 151.105500,87.034209 L 151.558875,87.034209 L 152.012250,87.034209 L 152.465625,87.034209 L 152.919000,87.034209 L 153.372375,87.034209 L 153.825750,87.034209 L 154.279125,87.034209 L 154.732500,87.034209 L 155.185875,87.034209 L 155.639250,87.034209 L 156.092625,87.034209 L 156.546000,87.034209 L 156.999375,87.034209 L 157.452750,87.034209 L 157.906125,87.034209 L 158.359500,87.034209 L 158.812875,87.034209 L 159.266250,87.034209 L 159.719625,87.034209 L 160.173000,87.034209 L 160.626375,87.034209 L 161.079750,87.034209 L 161.533125,87.034209 L 161.986500,87.034209 L 162.439875,87.034209 L 162.893250,87.034209 L 163.346625,87.034209 L 163.800000,87.034209 L 164.253375,87.034209 L 164.706750,87.034209 L 165.160125,87.034209 L 165.613500,87.034209 L 166.066875,87.034209 L 166.520250,87.034209 L 166.973625,87.034209 L 167.427000,87.034209 L 167.880375,87.034209 L 168.333750,87.034209 L 168.787125,87.034209 L 169.240500,87.034209 L 169.693875,87.034209 L 170.147250,87.034209 L 170.600625,87.034209 L 171.054000,87.034209 L 171.507375,87.034209 L 171.960750,87.034209 L 172.414125,87.034209 L 172.867500,87.034209 L 173.320875,87.034209 L 173.774250,87.034209 L 174.227625,87.034209 L 174.681000,87.034209 L 175.134375,87.034209 L 175.587750,87.034209 L 176.041125,87.034209 L 176.494500,87.034209 L 176.947875,87.034209 L 177.401250,87.034209 L 177.854625,87.034209 L 178.308000,87.034209 L 178.761375,87.034209 L 179.214750,87.034209 L 179.668125,87.034209 L 180.121500,87.034209 L 180.574875,87.034209 L 181.028250,87.034209 L 181.481625,87.034209 L 181.935000,87.034209 L 182.388375,87.034209 L 182.841750,87.034209 L 183.295125,87.034209 L 183.748500,87.034209 L 184.201875,87.034209 L 184.655250,87.034209 L 185.108625,87.034209 L 185.562000,87.034209 L 186.015375,87.034209 L 186.468750,87.034209 L 186.922125,87.034209 L 187.375500,87.034209 L 187.828875,87.034209 L 188.282250,87.034209 L 188.735625,87.034209 L 189.189000,87.034209 L 189.642375,87.034209 L 190.095750,87.034209 L 190.549125,87.034209 L 191.002500,87.034209 L 191.455875,87.034209 L 191.909250,87.034209 L 192.362625,87.034209 L 192.816000,87.034209 L 193.269375,87.034209 L 193.722750,87.034209 L 194.176125,87.034209 L 194.629500,87.034209 L 195.082875,87.034209 L 195.536250,87.034209 L 195.989625,87.034209 L 196.443000,87.034209 L 196.896375,87.034209 L 197.349750,87.034209 L 197.803125,87.034209 L 198.256500,87.034209 L 198.709875,87.034209 L 199.163250,87.034209 L 199.616625,87.034209 L 200.070000,87.034209 L 200.523375,87.034209 L 200.976750,87.034209 L 201.430125,87.034209 L 201.883500,87.034209 L 202.336875,87.034209 L 202.790250,87.034209 L 203.243625,87.034209 L 203.697000,87.034209 L 204.150375,87.034209 L 204.603750,87.034209 L 205.057125,87.034209 L 205.510500,87.034209 L 205.963875,87.034209 L 206.417250,87.034209 L 206.870625,87.034209 L 207.324000,87.034209 L 207.777375,87.034209 L 208.230750,87.034209 L 208.684125,87.034209 L 209.137500,87.034209 L 209.590875,87.034209 L 210.044250,87.034209 L 210.497625,87.034209 L 210.951000,87.034209 L 211.404375,87.034209 L 211.857750,87.034209 L 212.311125,87.034209 L 212.764500,87.034209 L 213.217875,87.034209 L 213.671250,87.034209 L 214.124625,87.034209 L 214.578000,87.034209 L 215.031375,87.034209 L 215.484750,87.034209 L 215.938125,87.034209 L 216.391500,87.034209 L 216.844875,87.034209 L 217.298250,87.034209 L 217.751625,87.034209 L 218.205000,87.034209 L 218.658375,87.034209 L 219.111750,87.034209 L 219.565125,87.034209 L 220.018500,87.034209 L 220.471875,87.034209 L 220.925250,87.034209 L 221.378625,87.034209 L 221.832000,87.034209 L 222.285375,87.034209 L 222.738750,87.034209 L 223.192125,87.034209 L 223.645500,87.034209 L 224.098875,87.034209 L 224.552250,87.034209 L 225.005625,87.034209 L 225.459000,87.034209 L 225.912375,87.034209 L 226.365750,87.034209 L 226.819125,87.034209 L 227.272500,87.034209 L 227.725875,87.034209 L 228.179250,87.034209 L 228.632625,87.034209 L 229.086000,87.034209 L 229.539375,87.034209 L 229.992750,87.034209 L 230.446125,87.034209 L 230.899500,87.034209 L 231.352875,87.034209 L 231.806250,87.034209 L 232.259625,87.034209 L 232.713000,87.034209 L 233.166375,87.034209 L 233.619750,87.034209 L 234.073125,87.034209 L 234.526500,87.034209 L 234.979875,87.034209 L 235.433250,87.034209 L 235.886625,87.034209 L 236.340000,87.034209 L 236.793375,87.034209 L 237.246750,87.034209 L 237.700125,87.034209 L 238.153500,87.034209 L 238.606875,87.034209 L 239.060250,87.034209 L 239.513625,87.034209 L 239.967000,87.034209 L 240.420375,87.034209 L 240.873750,87.034209 L 241.327125,87.034209 L 241.780500,87.034209 L 242.233875,87.034209 L 242.687250,87.034209 L 243.140625,87.034209 L 243.594000,87.034209 L 244.047375,87.034209 L 244.500750,87.034209 L 244.954125,87.034209 L 245.407500,87.034209 L 245.860875,87.034209 L 246.314250,87.034209 L 246.767625,87.034209 L 247.221000,87.034209 L 247.674375,87.034209 L 248.127750,87.034209 L 248.581125,87.034209 L 249.034500,87.034209 L 249.487875,87.034209 L 249.941250,87.034209 L 250.394625,87.034209 L 250.848000,87.034209 L 251.301375,87.034209 L 251.754750,87.034209 L 252.208125,87.034209 L 252.661500,87.034209 L 253.114875,87.034209 L 253.568250,87.034209 L 254.021625,87.034209 L 254.475000,87.034209 L 254.928375,87.034209 L 255.381750,87.034209 L 255.835125,87.034209 L 256.288500,87.034209 L 256.741875,87.034209 L 257.195250,87.034209 L 257.648625,87.034209 L 258.102000,87.034209 L 258.555375,87.034209 L 259.008750,87.034209 L 259.462125,87.034209 L 259.915500,87.034209 L 260.368875,87.034209 L 260.822250,87.034209 L 261.275625,87.034209 L 261.729000,87.034209 L 262.182375,87.034209 L 262.635750,87.034209 L 263.089125,87.034209 L 263.542500,87.034209 L 263.995875,87.034209 L 264.449250,87.034209 L 264.902625,87.034209 L 265.356000,87.034209 L 265.809375,87.034209 L 266.262750,87.034209 L 266.716125,87.034209 L 267.169500,87.034209 L 267.622875,87.034209 L 268.076250,87.034209 L 268.529625,87.034209 L 268.983000,87.034209 L 269.436375,87.034209 L 269.889750,87.034209 L 270.343125,87.034209 L 270.796500,87.034209 L 271.249875,87.034209 L 271.703250,87.034209 L 272.156625,87.034209 L 272.610000,87.034209 L 273.063375,87.034209 L 273.516750,87.034209 L 273.970125,87.034209 L 274.423500,87.034209 L 274.876875,87.034209 L 275.330250,87.034209 L 275.783625,87.034209 L 276.237000,87.034209 L 276.690375,87.034209 L 277.143750,87.034209 L 277.597125,87.034209 L 278.050500,87.034209 L 278.503875,87.034209 L 278.957250,87.034209 L 279.410625,87.034209 L 279.864000,87.034209 L 280.317375,87.034209 L 280.770750,87.034209 L 281.224125,87.034209 L 281.677500,87.034209 L 282.130875,87.034209 L 282.584250,87.034209 L 283.037625,87.034209 L 283.491000,87.034209 L 283.944375,87.034209 L 284.397750,87.034209 L 284.851125,87.034209 L 285.304500,87.034209 L 285.757875,87.034209 L 286.211250,87.034209 L 286.664625,87.034209 L 287.118000,87.034209 L 287.571375,87.034209 L 288.024750,87.034209 L 288.478125,87.034209 L 288.931500,87.034209 L 289.384875,87.034209 L 289.838250,87.034209 L 290.291625,87.034209 L 290.745000,87.034209 L 291.198375,87.034209 L 291.651750,87.034209 L 292.105125,87.034209 L 292.558500,87.034209 L 293.011875,87.034209 L 293.465250,87.034209 L 293.918625,87.034209 L 294.372000,87.034209 L 294.825375,87.034209 L 295.278750,87.034209 L 295.732125,87.034209 L 296.185500,87.034209 L 296.638875,87.034209 L 297.092250,87.034209 L 297.545625,87.034209 L 297.999000,87.034209 L 298.452375,87.034209 L 298.905750,87.034209 L 299.359125,87.034209 L 299.812500,87.034209 L 300.265875,87.034209 L 300.719250,87.034209 L 301.172625,87.034209 L 301.626000,87.034209 L 302.079375,87.034209 L 302.532750,87.034209 L 302.986125,87.034209 L 303.439500,87.034209 L 303.892875,87.034209 L 304.346250,87.034209 L 304.799625,87.034209 L 305.253000,87.034209 L 305.706375,87.034209 L 306.159750,87.034209 L 306.613125,87.034209 L 307.066500,87.034209 L 307.519875,87.034209 L 307.973250,87.034209 L 308.426625,87.034209 L 308.880000,87.034209 L 309.333375,87.034209 L 309.786750,87.034209 L 310.240125,87.034209 L 310.693500,87.034209 L 311.146875,87.034209 L 311.600250,87.034209 L 312.053625,87.034209 L 312.507000,87.034209 L 312.960375,87.034209 L 313.413750,87.034209 L 313.867125,87.034209 L 314.320500,87.034209 L 314.773875,87.034209 L 315.227250,87.034209 L 315.680625,87.034209 L 316.134000,87.034209 L 316.587375,87.034209 L 317.040750,87.034209 L 317.494125,87.034209 L 317.947500,87.034209 L 318.400875,87.034209 L 318.854250,87.034209 L 319.307625,87.034209 L 319.761000,87.034209 L 320.214375,87.034209 L 320.667750,87.034209 L 321.121125,87.034209 L 321.574500,87.034209 L 322.027875,87.034209 L 322.481250,87.034209 L 322.934625,87.034209 L 323.388000,87.034209 L 323.841375,87.034209 L 324.294750,87.034209 L 324.748125,87.034209 L 325.201500,87.034209 L 325.654875,87.034209 L 326.108250,87.034209 L 326.561625,87.034209 L 327.015000,87.034209 L 327.468375,87.034209 L 327.921750,87.034209 L 328.375125,87.034209 L 328.828500,87.034209 L 329.281875,87.034209 L 329.735250,87.034209 L 330.188625,87.034209 L 330.642000,87.034209 L 331.095375,87.034209 L 331.548750,87.034209 L 332.002125,87.034209 L 332.455500,87.034209 L 332.908875,87.034209 L 333.362250,87.034209 L 333.815625,87.034209 L 334.269000,87.034209 L 334.722375,87.034209 L 335.175750,87.034209 L 335.629125,87.034209 L 336.082500,87.034209 L 336.535875,87.034209 L 336.989250,87.034209 L 337.442625,87.034209 L 337.896000,87.034209 L 338.349375,87.034209 L 338.802750,87.034209 L 339.256125,87.034209 L 339.709500,87.034209 L 340.162875,87.034209 L 340.616250,87.034209 L 341.069625,87.034209 L 341.523000,87.034209 L 341.976375,87.034209 L 342.429750,87.034209 L 342.883125,87.034209 L 343.336500,87.034209 L 343.789875,87.034209 L 344.243250,87.034209 L 344.696625,87.034209 L 345.150000,87.034209 L 345.603375,87.034209 L 346.056750,87.034209 L 346.510125,87.034209 L 346.963500,87.034209 L 347.416875,87.034209 L 347.870250,87.034209 L 348.323625,87.034209 L 348.777000,87.034209 L 349.230375,87.034209 L 349.683750,87.034209 L 350.137125,87.034209 L 350.590500,87.034209 L 351.043875,87.034209 L 351.497250,87.034209 L 351.950625,87.034209 L 352.404000,87.034209 L 352.857375,87.034209 L 353.310750,87.034209 L 353.764125,87.034209 L 354.217500,87.034209 L 354.670875,87.034209 L 355.124250,87.034209 L 355.577625,87.034209 L 356.031000,87.034209 L 356.484375,87.034209 L 356.937750,87.034209 L 357.391125,87.034209 L 357.844500,87.034209 L 358.297875,87.034209 L 358.751250,87.034209 L 359.204625,87.034209 L 359.658000,87.034209 L 360.111375,87.034209 L 360.564750,87.034209 L 361.018125,87.034209 L 361.471500,87.034209 L 361.924875,87.034209 L 362.378250,87.034209 L 362.831625,87.034209 L 363.285000,87.034209 L 363.738375,87.034209 L 364.191750,87.034209 L 364.645125,87.034209 L 365.098500,87.034209 L 365.551875,87.034209 L 366.005250,87.034209 L 366.458625,87.034209 L 366.912000,87.034209 L 367.365375,87.034209 L 367.818750,87.034209 L 368.272125,87.034209 L 368.725500,87.034209 L 369.178875,87.034209 L 369.632250,87.034209 L 370.085625,87.034209 L 370.539000,87.034209 L 370.992375,87.034209 L 371.445750,87.034209 L 371.899125,87.034209 L 372.352500,87.034209 L 372.805875,87.034209 L 373.259250,87.034209 L 373.712625,87.034209 L 374.166000,87.034209 L 374.619375,87.034209 L 375.072750,87.034209 L 375.526125,87.034209 L 375.979500,87.034209 L 376.432875,87.034209 L 376.886250,87.034209 L 377.339625,87.034209 L 377.793000,87.034209 L 378.246375,87.034209 L 378.699750,87.034209 L 379.153125,87.034209 L 379.606500,87.034209 L 380.059875,87.034209 L 380.513250,87.034209 L 380.966625,87.034209 L 381.420000,87.034209 L 381.873375,87.034209 L 382.326750,87.034209 L 382.780125,87.034209 L 383.233500,87.034209 L 383.686875,87.034209 L 384.140250,87.034209 L 384.593625,87.034209 L 385.047000,87.034209 L 385.500375,87.034209 L 385.953750,87.034209 L 386.407125,87.034209 L 386.860500,87.034209 L 387.313875,87.034209 L 387.767250,87.034209 L 388.220625,87.034209 L 388.674000,87.034209 L 389.127375,87.034209 L 389.580750,87.034209 L 390.034125,87.034209 L 390.487500,87.034209 L 390.940875,87.034209 L 391.394250,87.034209 L 391.847625,87.034209 L 392.301000,87.034209 L 392.754375,87.034209 L 393.207750,87.034209 L 393.661125,87.034209 L 394.114500,87.034209 L 394.567875,87.034209 L 395.021250,87.034209 L 395.474625,87.034209 L 395.928000,87.034209 L 396.381375,87.034209 L 396.834750,87.034209 L 397.288125,87.034209 L 397.741500,87.034209 L 398.194875,87.034209 L 398.648250,87.034209 L 399.101625,87.034209 L 399.555000,87.034209 L 400.008375,87.034209 L 400.461750,87.034209 L 400.915125,87.034209 L 401.368500,87.034209 L 401.821875,87.034209 L 402.275250,87.034209 L 402.728625,87.034209 L 403.182000,87.034209 L 403.635375,87.034209 L 404.088750,87.034209 L 404.542125,87.034209 L 404.995500,87.034209 L 405.448875,87.034209 L 405.902250,87.034209 L 406.355625,87.034209 L 406.809000,87.034209 L 407.262375,87.034209 L 407.715750,87.034209 L 408.169125,87.034209 L 408.622500,87.034209 L 409.075875,87.034209 L 409.529250,87.034209 L 409.982625,87.034209 L 410.436000,87.034209 L 410.889375,87.034209 L 411.342750,87.034209 L 411.796125,87.034209 L 412.249500,87.034209 L 412.702875,87.034209 L 413.156250,87.034209 L 413.609625,87.034209 L 414.063000,87.034209 L 414.516375,87.034209 L 414.969750,87.034209 L 415.423125,87.034209 L 415.876500,87.034209 L 416.329875,87.034209 L 416.783250,87.034209 L 417.236625,87.034209 L 417.690000,87.034209 L 418.143375,87.034209 L 418.596750,87.034209 L 419.050125,87.034209 L 419.503500,87.034209 L 419.956875,87.034209 L 420.410250,87.034209 L 420.863625,87.034209 L 421.317000,87.034209 L 421.770375,87.034209 L 422.223750,87.034209 L 422.677125,87.034209 L 423.130500,87.034209 L 423.583875,87.034209 L 424.037250,87.034209 L 424.490625,87.034209 L 424.944000,87.034209 L 425.397375,87.034209 L 425.850750,87.034209 L 426.304125,87.034209 L 426.757500,87.034209 L 427.210875,87.034209 L 427.664250,87.034209 L 428.117625,87.034209 L 428.571000,87.034209 L 429.024375,87.034209 L 429.477750,87.034209 L 429.931125,87.034209 L 430.384500,87.034209 L 430.837875,87.034209 L 431.291250,87.034209 L 431.744625,87.034209 L 432.198000,87.034209 L 432.651375,87.034209 L 433.104750,87.034209 L 433.558125,87.034209 L 434.011500,87.034209 L 434.464875,87.034209 L 434.918250,87.034209 L 435.371625,87.034209 L 435.825000,87.034209 L 436.278375,87.034209 L 436.731750,87.034209 L 437.185125,87.034209 L 437.638500,87.034209 L 438.091875,87.034209 L 438.545250,87.034209 L 438.998625,87.034209 L 439.452000,87.034209 L 439.905375,87.034209 L 440.358750,87.034209 L 440.812125,87.034209 L 441.265500,87.034209 L 441.718875,87.034209 L 442.172250,87.034209 L 442.625625,87.034209 L 443.079000,87.034209 L 443.532375,87.034209 L 443.985750,87.034209 L 444.439125,87.034209 L 444.892500,87.034209 L 445.345875,87.034209 L 445.799250,87.034209 L 446.252625,87.034209 L 446.706000,87.034209 L 447.159375,87.034209 L 447.612750,87.034209 L 448.066125,87.034209 L 448.519500,87.034209 L 448.972875,87.034209 L 449.426250,87.034209 L 449.879625,87.034209 L 450.333000,87.034209 L 450.786375,87.034209 L 451.239750,87.034209 L 451.693125,87.034209 L 452.146500,87.034209 L 452.599875,87.034209 L 453.053250,87.034209 L 453.506625,87.034209 L 453.960000,87.034209 L 454.413375,87.034209 L 454.866750,87.034209 L 455.320125,87.034209 L 455.773500,87.034209 L 456.226875,87.034209 L 456.680250,87.034209 L 457.133625,87.034209 L 457.587000,87.034209 L 458.040375,87.034209 L 458.493750,87.034209 L 458.947125,87.034209 L 459.400500,87.034209 L 459.853875,87.034209 L 460.307250,87.034209 L 460.760625,87.034209 L 461.214000,87.034209 L 461.667375,87.034209 L 462.120750,87.034209 L 462.574125,87.034209 L 463.027500,87.034209 L 463.480875,87.034209 L 463.934250,87.034209 L 464.387625,87.034209 L 464.841000,87.034209 L 465.294375,87.034209 L 465.747750,87.034209 L 466.201125,87.034209 L 466.654500,87.034209 L 467.107875,87.034209 L 467.561250,87.034209 L 468.014625,87.034209 L 468.468000,87.034209 L 468.921375,87.034209 L 469.374750,87.034209 L 469.828125,87.034209 L 470.281500,87.034209 L 470.734875,87.034209 L 471.188250,87.034209 L 471.641625,87.034209 L 472.095000,87.034209 L 472.548375,87.034209 L 473.001750,87.034209 L 473.455125,87.034209 L 473.908500,87.034209 L 474.361875,87.034209 L 474.815250,87.034209 L 475.268625,87.034209 L 475.722000,87.034209 L 476.175375,87.034209 L 476.628750,87.034209 L 477.082125,87.034209 L 477.535500,87.034209 L 477.988875,87.034209 L 478.442250,87.034209 L 478.895625,87.034209 L 479.349000,87.034209 L 479.802375,87.034209 L 480.255750,87.034209 L 480.709125,87.034209 L 481.162500,87.034209 L 481.615875,87.034209 L 482.069250,87.034209 L 482.522625,87.034209 L 482.976000,87.034209 L 483.429375,87.034209 L 483.882750,87.034209 L 484.336125,87.034209 L 484.789500,87.034209 L 485.242875,87.034209 L 485.696250,87.034209 L 486.149625,87.034209 L 486.603000,87.034209 L 487.056375,87.034209 L 487.509750,87.034209 L 487.963125,87.034209 L 488.416500,87.034209 L 488.869875,87.034209 L 489.323250,87.034209 L 489.776625,87.034209 L 490.230000,87.034209 L 490.683375,87.034209 L 491.136750,87.034209 L 491.590125,87.034209 L 492.043500,87.034209 L 492.496875,87.034209 L 492.950250,87.034209 L 493.403625,87.034209 L 493.857000,87.034209 L 494.310375,87.034209 L 494.763750,87.034209 L 495.217125,87.034209 L 495.670500,87.034209 L 496.123875,87.034209 L 496.577250,87.034209 L 497.030625,87.034209 L 497.484000,87.034209 L 497.937375,87.034209 L 498.390750,87.034209 L 498.844125,87.034209 L 499.297500,87.034209 L 499.750875,87.034209 L 500.204250,87.034209 L 500.657625,87.034209 L 501.111000,87.034209 L 501.564375,87.034209 L 502.017750,87.034209 L 502.471125,87.034209 L 502.924500,87.034209 L 503.377875,87.034209 L 503.831250,87.034209 L 504.284625,87.034209 L 504.738000,87.034209 L 505.191375,87.034209 L 505.644750,87.034209 L 506.098125,87.034209 L 506.551500,87.034209 L 507.004875,87.034209 L 507.458250,87.034209 L 507.911625,87.034209 L 508.365000,87.034209 L 508.818375,87.034209 L 509.271750,87.034209 L 509.725125,87.034209 L 510.178500,87.034209 L 510.631875,87.034209 L 511.085250,87.034209 L 511.538625,87.034209 L 511.992000,87.034209 L 512.445375,87.034209 L 512.898750,87.034209 L 513.352125,87.034209 L 513.805500,87.034209 L 514.258875,87.034209 L 514.712250,87.034209 L 515.165625,87.034209 L 515.619000,87.034209 L 516.072375,87.034209 L 516.525750,87.034209 L 516.979125,87.034209 L 517.432500,87.034209 L 517.885875,87.034209 L 518.339250,87.034209 L 518.792625,87.034209 L 519.246000,87.034209 L 519.699375,87.034209 L 520.152750,87.034209 L 520.606125,87.034209 L 521.059500,87.034209 L 521.512875,87.034209 L 521.966250,87.034209 L 522.419625,87.034209 L 522.873000,87.034209 L 523.326375,87.034209 L 523.779750,87.034209 L 524.233125,87.034209 L 524.686500,87.034209 L 525.139875,87.034209 L 525.593250,87.034209 L 526.046625,87.034209 "/>
<path style="fill: none; stroke: #ff0000; stroke-width: 0.500000; stroke-linejoin: miter; stroke-linecap: square;  opacity: 1.000000" clip-path="url(#7240474723315632415)" d="M 73.125000,64.061308 L 73.578375,64.061308 L 74.031750,64.061308 L 74.485125,64.061308 L 74.938500,64.061308 L 75.391875,64.061308 L 75.845250,64.061308 L 76.298625,64.061308 L 76.752000,64.061308 L 77.205375,64.061308 L 77.658750,64.061308 L 78.112125,64.061308 L 78.565500,64.061308 L 79.018875,64.061308 L 79.472250,64.061308 L 79.925625,64.061308 L 80.379000,64.061308 L 80.832375,64.061308 L 81.285750,64.061308 L 81.739125,64.061308 L 82.192500,64.061308 L 82.645875,64.061308 L 83.099250,64.061308 L 83.552625,64.061308 L 84.006000,64.061308 L 84.459375,64.061308 L 84.912750,64.061308 L 85.366125,64.061308 L 85.819500,64.061308 L 86.272875,64.061308 L 86.726250,64.061308 L 87.179625,64.061308 L 87.633000,64.061308 L 88.086375,64.061308 L 88.539750,64.061308 L 88.993125,64.061308 L 89.446500,64.061308 L 89.899875,64.061308 L 90.353250,64.061308 L 90.806625,64.061308 L 91.260000,64.061308 L 91.713375,64.061308 L 92.166750,64.061308 L 92.620125,64.061308 L 93.073500,64.061308 L 93.526875,64.061308 L 93.980250,64.061308 L 94.433625,64.061308 L 94.887000,64.061308 L 95.340375,64.061308 L 95.793750,64.061308 L 96.247125,64.061308 L 96.700500,64.061308 L 97.153875,64.061308 L 97.607250,64.061308 L 98.060625,64.061308 L 98.514000,64.061308 L 98.967375,64.061308 L 99.420750,64.061308 L 99.874125,64.061308 L 100.327500,64.061308 L 100.780875,64.061308 L 101.234250,64.061308 L 101.687625,64.061308 L 102.141000,64.061308 L 102.594375,64.061308 L 103.047750,64.061308 L 103.501125,64.061308 L 103.954500,64.061308 L 104.407875,64.061308 L 104.861250,64.061308 L 105.314625,64.061308 L 105.768000,64.061308 L 106.221375,64.061308 L 106.674750,64.061308 L 107.128125,64.061308 L 107.581500,64.061308 L 108.034875,64.061308 L 108.488250,64.061308 L 108.941625,64.061308 L 109.395000,64.061308 L 109.848375,64.061308 L 110.301750,64.061308 L 110.755125,64.061308 L 111.208500,64.061308 L 111.661875,64.061308 L 112.115250,64.061308 L 112.568625,64.061308 L 113.022000,64.061308 L 113.475375,64.061308 L 113.928750,64.061308 L 114.382125,64.061308 L 114.835500,64.061308 L 115.288875,64.061308 L 115.742250,64.061308 L 116.195625,64.061308 L 116.649000,64.061308 L 117.102375,64.061308 L 117.555750,64.061308 L 118.009125,64.061308 L 118.462500,64.061308 L 118.915875,64.061308 L 119.369250,64.061308 L 119.822625,64.061308 L 120.276000,64.061308 L 120.729375,64.061308 L 121.182750,64.061308 L 121.636125,64.061308 L 122.089500,64.061308 L 122.542875,64.061308 L 122.996250,64.061308 L 123.449625,64.061308 L 123.903000,64.061308 L 124.356375,64.061308 L 124.809750,64.061308 L 125.263125,64.061308 L 125.716500,64.061308 L 126.169875,64.061308 L 126.623250,64.061308 L 127.076625,64.061308 L 127.530000,64.061308 L 127.983375,64.061308 L 128.436750,64.061308 L 128.890125,64.061308 L 129.343500,64.061308 L 129.796875,64.061308 L 130.250250,64.061308 L 130.703625,64.061308 L 131.157000,64.061308 L 131.610375,64.061308 L 132.063750,64.061308 L 132.517125,64.061308 L 132.970500,64.061308 L 133.423875,64.061308 L 133.877250,64.061308 L 134.330625,64.061308 L 134.784000,64.061308 L 135.237375,64.061308 L 135.690750,64.061308 L 136.144125,64.061308 L 136.597500,64.061308 L 137.050875,64.061308 L 137.504250,64.061308 L 137.957625,64.061308 L 138.411000,64.061308 L 138.864375,64.061308 L 139.317750,64.061308 L 139.771125,64.061308 L 140.224500,64.061308 L 140.677875,64.061308 L 141.131250,64.061308 L 141.584625,64.061308 L 142.038000,64.061308 L 142.491375,64.061308 L 142.944750,64.061308 L 143.398125,64.061308 L 143.851500,64.061308 L 144.304875,64.061308 L 144.758250,64.061308 L 145.211625,64.061308 L 145.665000,64.061308 L 146.118375,64.061308 L 146.571750,64.061308 L 147.025125,64.061308 L 147.478500,64.061308 L 147.931875,64.061308 L 148.385250,64.061308 L 148.838625,64.061308 L 149.292000,64.061308 L 149.745375,64.061308 L 150.198750,64.061308 L 150.652125,64.061308 L 151.105500,64.061308 L 151.558875,64.061308 L 152.012250,64.061308 L 152.465625,64.061308 L 152.919000,64.061308 L 153.372375,64.061308 L 153.825750,64.061308 L 154.279125,64.061308 L 154.732500,64.061308 L 155.185875,64.061308 L 155.639250,64.061308 L 156.092625,64.061308 L 156.546000,64.061308 L 156.999375,64.061308 L 157.452750,64.061308 L 157.906125,64.061308 L 158.359500,64.061308 L 158.812875,64.061308 L 159.266250,64.061308 L 159.719625,64.061308 L 160.173000,64.061308 L 160.626375,64.061308 L 161.079750,64.061308 L 161.533125,64.061308 L 161.986500,64.061308 L 162.439875,64.061308 L 162.893250,64.061308 L 163.346625,64.061308 L 163.800000,64.061308 L 164.253375,64.061308 L 164.706750,64.061308 L 165.160125,64.061308 L 165.613500,64.061308 L 166.066875,64.061308 L 166.520250,64.061308 L 166.973625,64.061308 L 167.427000,64.061308 L 167.880375,64.061308 L 168.333750,64.061308 L 168.787125,64.061308 L 169.240500,64.061308 L 169.693875,64.061308 L 170.147250,64.061308 L 170.600625,64.061308 L 171.054000,64.061308 L 171.507375,64.061308 L 171.960750,64.061308 L 172.414125,64.061308 L 172.867500,64.061308 L 173.320875,64.061308 L 173.774250,64.061308 L 174.227625,64.061308 L 174.681000,64.061308 L 175.134375,64.061308 L 175.587750,64.061308 L 176.041125,64.061308 L 176.494500,64.061308 L 176.947875,64.061308 L 177.401250,64.061308 L 177.854625,64.061308 L 178.308000,64.061308 L 178.761375,64.061308 L 179.214750,64.061308 L 179.668125,64.061308 L 180.121500,64.061308 L 180.574875,64.061308 L 181.028250,64.061308 L 181.481625,64.061308 L 181.935000,64.061308 L 182.388375,64.061308 L 182.841750,64.061308 L 183.295125,64.061308 L 183.748500,64.061308 L 184.201875,64.061308 L 184.655250,64.061308 L 185.108625,64.061308 L 185.562000,64.061308 L 186.015375,64.061308 L 186.468750,64.061308 L 186.922125,64.061308 L 187.375500,64.061308 L 187.828875,64.061308 L 188.282250,64.061308 L 188.735625,64.061308 L 189.189000,64.061308 L 189.642375,64.061308 L 190.095750,64.061308 L 190.549125,64.061308 L 191.002500,64.061308 L 191.455875,64.061308 L 191.909250,64.061308 L 192.362625,64.061308 L 192.816000,64.061308 L 193.269375,64.061308 L 193.722750,64.061308 L 194.176125,64.061308 L 194.629500,64.061308 L 195.082875,64.061308 L 195.536250,64.061308 L 195.989625,64.061308 L 196.443000,64.061308 L 196.896375,64.061308 L 197.349750,64.061308 L 197.803125,64.061308 L 198.256500,64.061308 L 198.709875,64.061308 L 199.163250,64.061308 L 199.616625,64.061308 L 200.070000,64.061308 L 200.523375,64.061308 L 200.976750,64.061308 L 201.430125,64.061308 L 201.883500,64.061308 L 202.336875,64.061308 L 202.790250,64.061308 L 203.243625,64.061308 L 203.697000,64.061308 L 204.150375,64.061308 L 204.603750,64.061308 L 205.057125,64.061308 L 205.510500,64.061308 L 205.963875,64.061308 L 206.417250,64.061308 L 206.870625,64.061308 L 207.324000,64.061308 L 207.777375,64.061308 L 208.230750,64.061308 L 208.684125,64.061308 L 209.137500,64.061308 L 209.590875,64.061308 L 210.044250,64.061308 L 210.497625,64.061308 L 210.951000,64.061308 L 211.404375,64.061308 L 211.857750,64.061308 L 212.311125,64.061308 L 212.764500,64.061308 L 213.217875,64.061308 L 213.671250,64.061308 L 214.124625,64.061308 L 214.578000,64.061308 L 215.031375,64.061308 L 215.484750,64.061308 L 215.938125,64.061308 L 216.391500,64.061308 L 216.844875,64.061308 L 217.298250,64.061308 L 217.751625,64.061308 L 218.205000,64.061308 L 218.658375,64.061308 L 219.111750,64.061308 L 219.565125,64.061308 L 220.018500,64.061308 L 220.471875,64.061308 L 220.925250,64.061308 L 221.378625,64.061308 L 221.832000,64.061308 L 222.285375,64.061308 L 222.738750,64.061308 L 223.192125,64.061308 L 223.645500,64.061308 L 224.098875,64.061308 L 224.552250,64.061308 L 225.005625,64.061308 L 225.459000,64.061308 L 225.912375,64.061308 L 226.365750,64.061308 L 226.819125,64.061308 L 227.272500,64.061308 L 227.725875,64.061308 L 228.179250,64.061308 L 228.632625,64.061308 L 229.086000,64.061308 L 229.539375,64.061308 L 229.992750,64.061308 L 230.446125,64.061308 L 230.899500,64.061308 L 231.352875,64.061308 L 231.806250,64.061308 L 232.259625,64.061308 L 232.713000,64.061308 L 233.166375,64.061308 L 233.619750,64.061308 L 234.073125,64.061308 L 234.526500,64.061308 L 234.979875,64.061308 L 235.433250,64.061308 L 235.886625,64.061308 L 236.340000,64.061308 L 236.793375,64.061308 L 237.246750,64.061308 L 237.700125,64.061308 L 238.153500,64.061308 L 238.606875,64.061308 L 239.060250,64.061308 L 239.513625,64.061308 L 239.967000,64.061308 L 240.420375,64.061308 L 240.873750,64.061308 L 241.327125,64.061308 L 241.780500,64.061308 L 242.233875,64.061308 L 242.687250,64.061308 L 243.140625,64.061308 L 243.594000,64.061308 L 244.047375,64.061308 L 244.500750,64.061308 L 244.954125,64.061308 L 245.407500,64.061308 L 245.860875,64.061308 L 246.314250,64.061308 L 246.767625,64.061308 L 247.221000,64.061308 L 247.674375,64.061308 L 248.127750,64.061308 L 248.581125,64.061308 L 249.034500,64.061308 L 249.487875,64.061308 L 249.941250,64.061308 L 250.394625,64.061308 L 250.848000,64.061308 L 251.301375,64.061308 L 251.754750,64.061308 L 252.208125,64.061308 L 252.661500,64.061308 L 253.114875,64.061308 L 253.568250,64.061308 L 254.021625,64.061308 L 254.475000,64.061308 L 254.928375,64.061308 L 255.381750,64.061308 L 255.835125,64.061308 L 256.288500,64.061308 L 256.741875,64.061308 L 257.195250,64.061308 L 257.648625,64.061308 L 258.102000,64.061308 L 258.555375,64.061308 L 259.008750,64.061308 L 259.462125,64.061308 L 259.915500,64.061308 L 260.368875,64.061308 L 260.822250,64.061308 L 261.275625,64.061308 L 261.729000,64.061308 L 262.182375,64.061308 L 262.635750,64.061308 L 263.089125,64.061308 L 263.542500,64.061308 L 263.995875,64.061308 L 264.449250,64.061308 L 264.902625,64.061308 L 265.356000,64.061308 L 265.809375,64.061308 L 266.262750,64.061308 L 266.716125,64.061308 L 267.169500,64.061308 L 267.622875,64.061308 L 268.076250,64.061308 L 268.529625,64.061308 L 268.983000,64.061308 L 269.436375,64.061308 L 269.889750,64.061308 L 270.343125,64.061308 L 270.796500,64.061308 L 271.249875,64.061308 L 271.703250,64.061308 L 272.156625,64.061308 L 272.610000,64.061308 L 273.063375,64.061308 L 273.516750,64.061308 L 273.970125,64.061308 L 274.423500,64.061308 L 274.876875,64.061308 L 275.330250,64.061308 L 275.783625,64.061308 L 276.237000,64.061308 L 276.690375,64.061308 L 277.143750,64.061308 L 277.597125,64.061308 L 278.050500,64.061308 L 278.503875,64.061308 L 278.957250,64.061308 L 279.410625,64.061308 L 279.864000,64.061308 L 280.317375,64.061308 L 280.770750,64.061308 L 281.224125,64.061308 L 281.677500,64.061308 L 282.130875,64.061308 L 282.584250,64.061308 L 283.037625,64.061308 L 283.491000,64.061308 L 283.944375,64.061308 L 284.397750,64.061308 L 284.851125,64.061308 L 285.304500,64.061308 L 285.757875,64.061308 L 286.211250,64.061308 L 286.664625,64.061308 L 287.118000,64.061308 L 287.571375,64.061308 L 288.024750,64.061308 L 288.478125,64.061308 L 288.931500,64.061308 L 289.384875,64.061308 L 289.838250,64.061308 L 290.291625,64.061308 L 290.745000,64.061308 L 291.198375,64.061308 L 291.651750,64.061308 L 292.105125,64.061308 L 292.558500,64.061308 L 293.011875,64.061308 L 293.465250,64.061308 L 293.918625,64.061308 L 294.372000,64.061308 L 294.825375,64.061308 L 295.278750,64.061308 L 295.732125,64.061308 L 296.185500,64.061308 L 296.638875,64.061308 L 297.092250,64.061308 L 297.545625,64.061308 L 297.999000,64.061308 L 298.452375,64.061308 L 298.905750,64.061308 L 299.359125,64.061308 L 299.812500,64.061308 L 300.265875,64.061308 L 300.719250,64.061308 L 301.172625,64.061308 L 301.626000,64.061308 L 302.079375,64.061308 L 302.532750,64.061308 L 302.986125,64.061308 L 303.439500,64.061308 L 303.892875,64.061308 L 304.346250,64.061308 L 304.799625,64.061308 L 305.253000,64.061308 L 305.706375,64.061308 L 306.159750,64.061308 L 306.613125,64.061308 L 307.066500,64.061308 L 307.519875,64.061308 L 307.973250,64.061308 L 308.426625,64.061308 L 308.880000,64.061308 L 309.333375,64.061308 L 309.786750,64.061308 L 310.240125,64.061308 L 310.693500,64.061308 L 311.146875,64.061308 L 311.600250,64.061308 L 312.053625,64.061308 L 312.507000,64.061308 L 312.960375,64.061308 L 313.413750,64.061308 L 313.867125,64.061308 L 314.320500,64.061308 L 314.773875,64.061308 L 315.227250,64.061308 L 315.680625,64.061308 L 316.134000,64.061308 L 316.587375,64.061308 L 317.040750,64.061308 L 317.494125,64.061308 L 317.947500,64.061308 L 318.400875,64.061308 L 318.854250,64.061308 L 319.307625,64.061308 L 319.761000,64.061308 L 320.214375,64.061308 L 320.667750,64.061308 L 321.121125,64.061308 L 321.574500,64.061308 L 322.027875,64.061308 L 322.481250,64.061308 L 322.934625,64.061308 L 323.388000,64.061308 L 323.841375,64.061308 L 324.294750,64.061308 L 324.748125,64.061308 L 325.201500,64.061308 L 325.654875,64.061308 L 326.108250,64.061308 L 326.561625,64.061308 L 327.015000,64.061308 L 327.468375,64.061308 L 327.921750,64.061308 L 328.375125,64.061308 L 328.828500,64.061308 L 329.281875,64.061308 L 329.735250,64.061308 L 330.188625,64.061308 L 330.642000,64.061308 L 331.095375,64.061308 L 331.548750,64.061308 L 332.002125,64.061308 L 332.455500,64.061308 L 332.908875,64.061308 L 333.362250,64.061308 L 333.815625,64.061308 L 334.269000,64.061308 L 334.722375,64.061308 L 335.175750,64.061308 L 335.629125,64.061308 L 336.082500,64.061308 L 336.535875,64.061308 L 336.989250,64.061308 L 337.442625,64.061308 L 337.896000,64.061308 L 338.349375,64.061308 L 338.802750,64.061308 L 339.256125,64.061308 L 339.709500,64.061308 L 340.162875,64.061308 L 340.616250,64.061308 L 341.069625,64.061308 L 341.523000,64.061308 L 341.976375,64.061308 L 342.429750,64.061308 L 342.883125,64.061308 L 343.336500,64.061308 L 343.789875,64.061308 L 344.243250,64.061308 L 344.696625,64.061308 L 345.150000,64.061308 L 345.603375,64.061308 L 346.056750,64.061308 L 346.510125,64.061308 L 346.963500,64.061308 L 347.416875,64.061308 L 347.870250,64.061308 L 348.323625,64.061308 L 348.777000,64.061308 L 349.230375,64.061308 L 349.683750,64.061308 L 350.137125,64.061308 L 350.590500,64.061308 L 351.043875,64.061308 L 351.497250,64.061308 L 351.950625,64.061308 L 352.404000,64.061308 L 352.857375,64.061308 L 353.310750,64.061308 L 353.764125,64.061308 L 354.217500,64.061308 L 354.670875,64.061308 L 355.124250,64.061308 L 355.577625,64.061308 L 356.031000,64.061308 L 356.484375,64.061308 L 356.937750,64.061308 L 357.391125,64.061308 L 357.844500,64.061308 L 358.297875,64.061308 L 358.751250,64.061308 L 359.204625,64.061308 L 359.658000,64.061308 L 360.111375,64.061308 L 360.564750,64.061308 L 361.018125,64.061308 L 361.471500,64.061308 L 361.924875,64.061308 L 362.378250,64.061308 L 362.831625,64.061308 L 363.285000,64.061308 L 363.738375,64.061308 L 364.191750,64.061308 L 364.645125,64.061308 L 365.098500,64.061308 L 365.551875,64.061308 L 366.005250,64.061308 L 366.458625,64.061308 L 366.912000,64.061308 L 367.365375,64.061308 L 367.818750,64.061308 L 368.272125,64.061308 L 368.725500,64.061308 L 369.178875,64.061308 L 369.632250,64.061308 L 370.085625,64.061308 L 370.539000,64.061308 L 370.992375,64.061308 L 371.445750,64.061308 L 371.899125,64.061308 L 372.352500,64.061308 L 372.805875,64.061308 L 373.259250,64.061308 L 373.712625,64.061308 L 374.166000,64.061308 L 374.619375,64.061308 L 375.072750,64.061308 L 375.526125,64.061308 L 375.979500,64.061308 L 376.432875,64.061308 L 376.886250,64.061308 L 377.339625,64.061308 L 377.793000,64.061308 L 378.246375,64.061308 L 378.699750,64.061308 L 379.153125,64.061308 L 379.606500,64.061308 L 380.059875,64.061308 L 380.513250,64.061308 L 380.966625,64.061308 L 381.420000,64.061308 L 381.873375,64.061308 L 382.326750,64.061308 L 382.780125,64.061308 L 383.233500,64.061308 L 383.686875,64.061308 L 384.140250,64.061308 L 384.593625,64.061308 L 385.047000,64.061308 L 385.500375,64.061308 L 385.953750,64.061308 L 386.407125,64.061308 L 386.860500,64.061308 L 387.313875,64.061308 L 387.767250,64.061308 L 388.220625,64.061308 L 388.674000,64.061308 L 389.127375,64.061308 L 389.580750,64.061308 L 390.034125,64.061308 L 390.487500,64.061308 L 390.940875,64.061308 L 391.394250,64.061308 L 391.847625,64.061308 L 392.301000,64.061308 L 392.754375,64.061308 L 393.207750,64.061308 L 393.661125,64.061308 L 394.114500,64.061308 L 394.567875,64.061308 L 395.021250,64.061308 L 395.474625,64.061308 L 395.928000,64.061308 L 396.381375,64.061308 L 396.834750,64.061308 L 397.288125,64.061308 L 397.741500,64.061308 L 398.194875,64.061308 L 398.648250,64.061308 L 399.101625,64.061308 L 399.555000,64.061308 L 400.008375,64.061308 L 400.461750,64.061308 L 400.915125,64.061308 L 401.368500,64.061308 L 401.821875,64.061308 L 402.275250,64.061308 L 402.728625,64.061308 L 403.182000,64.061308 L 403.635375,64.061308 L 404.088750,64.061308 L 404.542125,64.061308 L 404.995500,64.061308 L 405.448875,64.061308 L 405.902250,64.061308 L 406.355625,64.061308 L 406.809000,64.061308 L 407.262375,64.061308 L 407.715750,64.061308 L 408.169125,64.061308 L 408.622500,64.061308 L 409.075875,64.061308 L 409.529250,64.061308 L 409.982625,64.061308 L 410.436000,64.061308 L 410.889375,64.061308 L 411.342750,64.061308 L 411.796125,64.061308 L 412.249500,64.061308 L 412.702875,64.061308 L 413.156250,64.061308 L 413.609625,64.061308 L 414.063000,64.061308 L 414.516375,64.061308 L 414.969750,64.061308 L 415.423125,64.061308 L 415.876500,64.061308 L 416.329875,64.061308 L 416.783250,64.061308 L 417.236625,64.061308 L 417.690000,64.061308 L 418.143375,64.061308 L 418.596750,64.061308 L 419.050125,64.061308 L 419.503500,64.061308 L 419.956875,64.061308 L 420.410250,64.061308 L 420.863625,64.061308 L 421.317000,64.061308 L 421.770375,64.061308 L 422.223750,64.061308 L 422.677125,64.061308 L 423.130500,64.061308 L 423.583875,64.061308 L 424.037250,64.061308 L 424.490625,64.061308 L 424.944000,64.061308 L 425.397375,64.061308 L 425.850750,64.061308 L 426.304125,64.061308 L 426.757500,64.061308 L 427.210875,64.061308 L 427.664250,64.061308 L 428.117625,64.061308 L 428.571000,64.061308 L 429.024375,64.061308 L 429.477750,64.061308 L 429.931125,64.061308 L 430.384500,64.061308 L 430.837875,64.061308 L 431.291250,64.061308 L 431.744625,64.061308 L 432.198000,64.061308 L 432.651375,64.061308 L 433.104750,64.061308 L 433.558125,64.061308 L 434.011500,64.061308 L 434.464875,64.061308 L 434.918250,64.061308 L 435.371625,64.061308 L 435.825000,64.061308 L 436.278375,64.061308 L 436.731750,64.061308 L 437.185125,64.061308 L 437.638500,64.061308 L 438.091875,64.061308 L 438.545250,64.061308 L 438.998625,64.061308 L 439.452000,64.061308 L 439.905375,64.061308 L 440.358750,64.061308 L 440.812125,64.061308 L 441.265500,64.061308 L 441.718875,64.061308 L 442.172250,64.061308 L 442.625625,64.061308 L 443.079000,64.061308 L 443.532375,64.061308 L 443.985750,64.061308 L 444.439125,64.061308 L 444.892500,64.061308 L 445.345875,64.061308 L 445.799250,64.061308 L 446.252625,64.061308 L 446.706000,64.061308 L 447.159375,64.061308 L 447.612750,64.061308 L 448.066125,64.061308 L 448.519500,64.061308 L 448.972875,64.061308 L 449.426250,64.061308 L 449.879625,64.061308 L 450.333000,64.061308 L 450.786375,64.061308 L 451.239750,64.061308 L 451.693125,64.061308 L 452.146500,64.061308 L 452.599875,64.061308 L 453.053250,64.061308 L 453.506625,64.061308 L 453.960000,64.061308 L 454.413375,64.061308 L 454.866750,64.061308 L 455.320125,64.061308 L 455.773500,64.061308 L 456.226875,64.061308 L 456.680250,64.061308 L 457.133625,64.061308 L 457.587000,64.061308 L 458.040375,64.061308 L 458.493750,64.061308 L 458.947125,64.061308 L 459.400500,64.061308 L 459.853875,64.061308 L 460.307250,64.061308 L 460.760625,64.061308 L 461.214000,64.061308 L 461.667375,64.061308 L 462.120750,64.061308 L 462.574125,64.061308 L 463.027500,64.061308 L 463.480875,64.061308 L 463.934250,64.061308 L 464.387625,64.061308 L 464.841000,64.061308 L 465.294375,64.061308 L 465.747750,64.061308 L 466.201125,64.061308 L 466.654500,64.061308 L 467.107875,64.061308 L 467.561250,64.061308 L 468.014625,64.061308 L 468.468000,64.061308 L 468.921375,64.061308 L 469.374750,64.061308 L 469.828125,64.061308 L 470.281500,64.061308 L 470.734875,64.061308 L 471.188250,64.061308 L 471.641625,64.061308 L 472.095000,64.061308 L 472.548375,64.061308 L 473.001750,64.061308 L 473.455125,64.061308 L 473.908500,64.061308 L 474.361875,64.061308 L 474.815250,64.061308 L 475.268625,64.061308 L 475.722000,64.061308 L 476.175375,64.061308 L 476.628750,64.061308 L 477.082125,64.061308 L 477.535500,64.061308 L 477.988875,64.061308 L 478.442250,64.061308 L 478.895625,64.061308 L 479.349000,64.061308 L 479.802375,64.061308 L 480.255750,64.061308 L 480.709125,64.061308 L 481.162500,64.061308 L 481.615875,64.061308 L 482.069250,64.061308 L 482.522625,64.061308 L 482.976000,64.061308 L 483.429375,64.061308 L 483.882750,64.061308 L 484.336125,64.061308 L 484.789500,64.061308 L 485.242875,64.061308 L 485.696250,64.061308 L 486.149625,64.061308 L 486.603000,64.061308 L 487.056375,64.061308 L 487.509750,64.061308 L 487.963125,64.061308 L 488.416500,64.061308 L 488.869875,64.061308 L 489.323250,64.061308 L 489.776625,64.061308 L 490.230000,64.061308 L 490.683375,64.061308 L 491.136750,64.061308 L 491.590125,64.061308 L 492.043500,64.061308 L 492.496875,64.061308 L 492.950250,64.061308 L 493.403625,64.061308 L 493.857000,64.061308 L 494.310375,64.061308 L 494.763750,64.061308 L 495.217125,64.061308 L 495.670500,64.061308 L 496.123875,64.061308 L 496.577250,64.061308 L 497.030625,64.061308 L 497.484000,64.061308 L 497.937375,64.061308 L 498.390750,64.061308 L 498.844125,64.061308 L 499.297500,64.061308 L 499.750875,64.061308 L 500.204250,64.061308 L 500.657625,64.061308 L 501.111000,64.061308 L 501.564375,64.061308 L 502.017750,64.061308 L 502.471125,64.061308 L 502.924500,64.061308 L 503.377875,64.061308 L 503.831250,64.061308 L 504.284625,64.061308 L 504.738000,64.061308 L 505.191375,64.061308 L 505.644750,64.061308 L 506.098125,64.061308 L 506.551500,64.061308 L 507.004875,64.061308 L 507.458250,64.061308 L 507.911625,64.061308 L 508.365000,64.061308 L 508.818375,64.061308 L 509.271750,64.061308 L 509.725125,64.061308 L 510.178500,64.061308 L 510.631875,64.061308 L 511.085250,64.061308 L 511.538625,64.061308 L 511.992000,64.061308 L 512.445375,64.061308 L 512.898750,64.061308 L 513.352125,64.061308 L 513.805500,64.061308 L 514.258875,64.061308 L 514.712250,64.061308 L 515.165625,64.061308 L 515.619000,64.061308 L 516.072375,64.061308 L 516.525750,64.061308 L 516.979125,64.061308 L 517.432500,64.061308 L 517.885875,64.061308 L 518.339250,64.061308 L 518.792625,64.061308 L 519.246000,64.061308 L 519.699375,64.061308 L 520.152750,64.061308 L 520.606125,64.061308 L 521.059500,64.061308 L 521.512875,64.061308 L 521.966250,64.061308 L 522.419625,64.061308 L 522.873000,64.061308 L 523.326375,64.061308 L 523.779750,64.061308 L 524.233125,64.061308 L 524.686500,64.061308 L 525.139875,64.061308 L 525.593250,64.061308 L 526.046625,64.061308 "/>
<g id="matplotlib.axis1">
<g id="xtick1">
<text style="font-size: 9.996000; font-family: Bitstream Vera Serif; font-style: Roman; fill: #000000;" x="70.625000" y="406.900000" >0</text>
</g>
<g id="xtick2">
<path style="fill: none; stroke: #000000; stroke-width: 0.500000; stroke-linejoin: miter; stroke-linecap: butt;  opacity: 1.000000"  d="M 163.800000,396.900000 L 163.800000,391.900000"/>
<path style="fill: none; stroke: #000000; stroke-width: 0.500000; stroke-linejoin: miter; stroke-linecap: butt;  opacity: 1.000000"  d="M 163.800000,49.100000 L 163.800000,44.100000"/>
<text style="font-size: 9.996000; font-family: Bitstream Vera Serif; font-style: Roman; fill: #000000;" x="155.300000" y="406.900000" >200</text>
</g>
<g id="xtick3">
<path style="fill: none; stroke: #000000; stroke-width: 0.500000; stroke-linejoin: miter; stroke-linecap: butt;  opacity: 1.000000"  d="M 254.475000,396.900000 L 254.475000,391.900000"/>
<path style="fill: none; stroke: #000000; stroke-width: 0.500000; stroke-linejoin: miter; stroke-linecap: butt;  opacity: 1.000000"  d="M 254.475000,49.100000 L 254.475000,44.100000"/>
<text style="font-size: 9.996000; font-family: Bitstream Vera Serif; font-style: Roman; fill: #000000;" x="245.975000" y="406.900000" >400</text>
</g>
<g id="xtick4">
<path style="fill: none; stroke: #000000; stroke-width: 0.500000; stroke-linejoin: miter; stroke-linecap: butt;  opacity: 1.000000"  d="M 345.150000,396.900000 L 345.150000,391.900000"/>
<path style="fill: none; stroke: #000000; stroke-width: 0.500000; stroke-linejoin: miter; stroke-linecap: butt;  opacity: 1.000000"  d="M 345.150000,49.100000 L 345.150000,44.100000"/>
<text style="font-size: 9.996000; font-family: Bitstream Vera Serif; font-style: Roman; fill: #000000;" x="336.650000" y="406.900000" >600</text>
</g>
<g id="xtick5">
<path style="fill: none; stroke: #000000; stroke-width: 0.500000; stroke-linejoin: miter; stroke-linecap: butt;  opacity: 1.000000"  d="M 435.825000,396.900000 L 435.825000,391.900000"/>
<path style="fill: none; stroke: #000000; stroke-width: 0.500000; stroke-linejoin: miter; stroke-linecap: butt;  opacity: 1.000000"  d="M 435.825000,49.100000 L 435.825000,44.100000"/>
<text style="font-size: 9.996000; font-family: Bitstream Vera Serif; font-style: Roman; fill: #000000;" x="427.325000" y="406.900000" >800</text>
</g>
<g id="xtick6">
<text style="font-size: 9.996000; font-family: Bitstream Vera Serif; font-style: Roman; fill: #000000;" x="515.500000" y="406.900000" >1000</text>
</g>
<text style="font-size: 12.000000; font-family: Bitstream Vera Serif; font-style: Roman; fill: #000000;" x="296.312500" y="418.900000" >n</text>
</g>
<g id="matplotlib.axis2">
<g id="ytick1">
<path style="fill: none; stroke: #000000; stroke-width: 0.500000; stroke-linejoin: miter; stroke-linecap: butt;  opacity: 1.000000"  d="M 73.125000,357.700000 L 78.125000,357.700000"/>
<path style="fill: none; stroke: #000000; stroke-width: 0.500000; stroke-linejoin: miter; stroke-linecap: butt;  opacity: 1.000000"  d="M 521.500000,357.700000 L 526.500000,357.700000"/>
<text style="font-size: 9.996000; font-family: Bitstream Vera Serif; font-style: Roman; fill: #000000;" x="51.125000" y="361.200000" >1.00</text>
</g>
<g id="ytick2">
<path style="fill: none; stroke: #000000; stroke-width: 0.500000; stroke-linejoin: miter; stroke-linecap: butt;  opacity: 1.000000"  d="M 73.125000,279.300000 L 78.125000,279.300000"/>
<path style="fill: none; stroke: #000000; stroke-width: 0.500000; stroke-linejoin: miter; stroke-linecap: butt;  opacity: 1.000000"  d="M 521.500000,279.300000 L 526.500000,279.300000"/>
<text style="font-size: 9.996000; font-family: Bitstream Vera Serif; font-style: Roman; fill: #000000;" x="52.125000" y="282.800000" >1.01</text>
</g>
<g id="ytick3">
<path style="fill: none; stroke: #000000; stroke-width: 0.500000; stroke-linejoin: miter; stroke-linecap: butt;  opacity: 1.000000"  d="M 73.125000,200.900000 L 78.125000,200.900000"/>
<path style="fill: none; stroke: #000000; stroke-width: 0.500000; stroke-linejoin: miter; stroke-linecap: butt;  opacity: 1.000000"  d="M 521.500000,200.900000 L 526.500000,200.900000"/>
<text style="font-size: 9.996000; font-family: Bitstream Vera Serif; font-style: Roman; fill: #000000;" x="51.125000" y="204.400000" >1.02</text>
</g>
<g id="ytick4">
<path style="fill: none; stroke: #000000; stroke-width: 0.500000; stroke-linejoin: miter; stroke-linecap: butt;  opacity: 1.000000"  d="M 73.125000,122.500000 L 78.125000,122.500000"/>
<path style="fill: none; stroke: #000000; stroke-width: 0.500000; stroke-linejoin: miter; stroke-linecap: butt;  opacity: 1.000000"  d="M 521.500000,122.500000 L 526.500000,122.500000"/>
<text style="font-size: 9.996000; font-family: Bitstream Vera Serif; font-style: Roman; fill: #000000;" x="51.125000" y="126.000000" >1.03</text>
</g>
<g id="ytick5">
<text style="font-size: 9.996000; font-family: Bitstream Vera Serif; font-style: Roman; fill: #000000;" x="51.125000" y="47.600000" >1.04</text>
</g>
</g>
<path style="fill: none; stroke: #000000; stroke-width: 1.000000; stroke-linejoin: miter; stroke-linecap: square;  opacity: 1.000000"  d="M 73.125000,396.900000 L 526.500000,396.900000 L 526.500000,44.100000 L 73.125000,44.100000 L 73.125000,396.900000 "/>
<text style="font-size: 14.400000; font-family: Bitstream Vera Serif; font-style: Roman; fill: #000000;" x="-15.687500" y="37.044000" >Final_4 a_ratio approx vs exact. a=0.1 b=1 B=10 gap=0.01, mse1=0.0012, mse2=0.0014</text>
<g id="legend1">
<polygon style="fill: #ffffff; stroke: #000000; stroke-width: 0.500000; stroke-linejoin: miter; stroke-linecap: square;  opacity: 1.000000"  points = "367.989000,94.636320 367.989000,51.156000 517.432500,51.156000 517.432500,94.636320"/>
<path style="fill: none; stroke: #0000ff; stroke-width: 0.500000; stroke-linejoin: miter; stroke-linecap: square;  opacity: 1.000000"  d="M 382.242625,59.779360 L 389.798875,59.779360 L 397.355125,59.779360 L 404.911375,59.779360 "/>
<path style="fill: none; stroke: #008000; stroke-width: 0.500000; stroke-linejoin: miter; stroke-linecap: square;  opacity: 1.000000"  d="M 382.242625,72.896160 L 389.798875,72.896160 L 397.355125,72.896160 L 404.911375,72.896160 "/>
<path style="fill: none; stroke: #ff0000; stroke-width: 0.500000; stroke-linejoin: miter; stroke-linecap: square;  opacity: 1.000000"  d="M 382.242625,86.012960 L 389.798875,86.012960 L 397.355125,86.012960 L 404.911375,86.012960 "/>
<text style="font-size: 9.996000; font-family: Bitstream Vera Serif; font-style: Roman; fill: #000000;" x="413.978875" y="64.779360" >approx_alpha_ratio</text>
<text style="font-size: 9.996000; font-family: Bitstream Vera Serif; font-style: Roman; fill: #000000;" x="413.978875" y="77.896160" >exact_alpha_ratio1</text>
<text style="font-size: 9.996000; font-family: Bitstream Vera Serif; font-style: Roman; fill: #000000;" x="413.978875" y="91.012960" >exact_alpha_ratio2</text>
</g>
</g>
</g>
</svg>
