<?xml version="1.0" standalone="no"?>
<!DOCTYPE svg PUBLIC "-//W3C//DTD SVG 1.1//EN"
  "http://www.w3.org/Graphics/SVG/1.1/DTD/svg11.dtd">
<!-- Created with matplotlib (http://matplotlib.sourceforge.net/) -->
<svg width="585" height="441" viewBox="0 0 585 441"
   xmlns="http://www.w3.org/2000/svg"
   xmlns:xlink="http://www.w3.org/1999/xlink"
   version="1.1"
   id="svg1">
<g id="figure1">
<polygon style="fill: #ffffff; stroke: #ffffff; stroke-width: 1.000000; stroke-linejoin: miter; stroke-linecap: square;  opacity: 1.000000"  points = "0.000000,441.000000 0.000000,0.000000 585.000000,0.000000 585.000000,441.000000"/>
<g id="axes1">
<polygon style="fill: #ffffff; stroke: #000000; stroke-width: 1.000000; stroke-linejoin: miter; stroke-linecap: square;  opacity: 1.000000"  points = "73.125000,396.900000 73.125000,44.100000 526.500000,44.100000 526.500000,396.900000"/>
<defs>
    <clipPath id="7240474723315632415">
    <rect x="73.125000" y="44.100000" width="453.375000" height="352.800000"
    style="stroke: gray; fill: none;"/>
    </clipPath>
</defs>
<path style="fill: none; stroke: #0000ff; stroke-width: 0.500000; stroke-linejoin: miter; stroke-linecap: square;  opacity: 1.000000" clip-path="url(#7240474723315632415)" d="M 73.125000,313.092771 L 75.391875,305.937116 L 77.658750,312.717869 L 79.925625,296.763709 L 82.192500,296.663202 L 84.459375,293.560616 L 86.726250,299.426114 L 88.993125,306.082875 L 91.260000,313.079696 L 93.526875,312.456837 L 95.793750,312.479473 L 98.060625,324.957934 L 100.327500,325.695792 L 102.594375,314.017675 L 104.861250,308.238425 L 107.128125,311.938663 L 109.395000,310.773822 L 111.661875,322.082252 L 113.928750,315.415399 L 116.195625,333.236543 L 118.462500,339.830189 L 120.729375,334.181265 L 122.996250,317.105015 L 125.263125,303.439439 L 127.530000,317.998343 L 129.796875,298.636769 L 132.063750,302.957157 L 134.330625,290.296420 L 136.597500,298.671924 L 138.864375,289.142857 L 141.131250,292.811693 L 143.398125,286.466758 L 145.665000,295.425819 L 147.931875,285.358628 L 150.198750,284.182050 L 152.465625,282.043098 L 154.732500,284.361348 L 156.999375,282.410949 L 159.266250,271.904438 L 161.533125,276.572957 L 163.800000,287.972233 L 166.066875,285.096187 L 168.333750,282.038067 L 170.600625,278.285606 L 172.867500,285.778969 L 175.134375,268.869897 L 177.401250,273.668614 L 179.668125,269.123897 L 181.935000,276.798595 L 184.201875,272.606541 L 186.468750,268.605217 L 188.735625,265.865123 L 191.002500,269.645053 L 193.269375,274.053480 L 195.536250,272.171644 L 197.803125,267.470505 L 200.070000,266.408311 L 202.336875,268.929259 L 204.603750,253.322883 L 206.870625,259.294065 L 209.137500,252.039772 L 211.404375,252.818800 L 213.671250,241.942736 L 215.938125,228.243331 L 218.205000,229.771819 L 220.471875,223.857379 L 222.738750,218.201796 L 225.005625,207.128766 L 227.272500,205.575704 L 229.539375,211.989252 L 231.806250,217.984103 L 234.073125,213.301175 L 236.340000,214.854998 L 238.606875,213.917560 L 240.873750,215.915257 L 243.140625,215.955778 L 245.407500,226.492467 L 247.674375,207.720944 L 249.941250,218.670200 L 252.208125,229.619580 L 254.475000,226.635390 L 256.741875,233.623974 L 259.008750,230.637835 L 261.275625,232.412844 L 263.542500,234.065093 L 265.809375,234.755926 L 268.076250,229.148933 L 270.343125,215.800410 L 272.610000,207.187196 L 274.876875,200.946596 L 277.143750,198.184156 L 279.410625,190.285854 L 281.677500,189.602712 L 283.944375,190.654141 L 286.211250,196.374698 L 288.478125,198.676975 L 290.745000,186.276904 L 293.011875,191.083471 L 295.278750,201.840235 L 297.545625,206.741755 L 299.812500,214.607205 L 302.079375,214.074463 L 304.346250,206.384460 L 306.613125,200.515349 L 308.880000,205.972036 L 311.146875,205.457590 L 313.413750,204.952577 L 315.680625,197.915622 L 317.947500,198.778581 L 320.214375,189.356388 L 322.481250,188.098387 L 324.748125,178.811443 L 327.015000,186.818942 L 329.281875,191.566675 L 331.548750,180.773392 L 333.815625,184.154784 L 336.082500,183.673393 L 338.349375,185.127676 L 340.616250,180.915404 L 342.883125,183.798222 L 345.150000,171.787646 L 347.416875,153.444608 L 349.683750,158.349104 L 351.950625,143.878327 L 354.217500,141.618363 L 356.484375,146.305761 L 358.751250,139.612044 L 361.018125,141.516419 L 363.285000,153.986749 L 365.551875,143.931369 L 367.818750,146.363898 L 370.085625,160.444460 L 372.352500,147.730435 L 374.619375,134.332072 L 376.886250,137.337585 L 379.153125,127.016962 L 381.420000,136.021691 L 383.686875,135.304640 L 385.953750,151.488268 L 388.220625,153.118200 L 390.487500,152.888952 L 392.754375,153.313952 L 395.021250,154.529061 L 397.288125,157.658318 L 399.555000,147.138759 L 401.821875,147.109422 L 404.088750,139.681931 L 406.355625,147.192341 L 408.622500,153.152019 L 410.889375,159.047034 L 413.156250,153.175836 L 415.423125,169.833422 L 417.690000,165.949472 L 419.956875,166.750880 L 422.223750,169.529817 L 424.490625,161.268089 L 426.757500,172.116833 L 429.024375,197.651092 L 431.291250,208.716987 L 433.558125,206.232906 L 435.825000,201.616830 L 438.091875,211.112249 L 440.358750,218.137309 L 442.625625,217.255501 L 444.892500,208.838513 L 447.159375,204.385702 L 449.426250,204.888135 L 451.693125,199.793821 L 453.960000,203.285663 L 456.226875,199.597780 L 458.493750,210.571987 L 460.760625,205.746869 L 463.027500,205.005852 L 465.294375,203.267210 L 467.561250,196.515619 L 469.828125,186.767577 L 472.095000,187.687559 L 474.361875,190.326194 L 476.628750,188.845077 L 478.895625,199.468923 L 481.162500,197.017638 L 483.429375,197.388637 L 485.696250,189.167327 L 487.963125,191.432477 L 490.230000,183.109456 L 492.496875,181.128312 L 494.763750,197.649310 L 497.030625,204.366322 L 499.297500,213.494099 L 501.564375,213.406864 L 503.831250,221.859460 L 506.098125,235.556623 L 508.365000,231.691015 L 510.631875,241.319843 L 512.898750,249.209886 L 515.165625,242.863927 L 517.432500,246.391320 L 519.699375,236.254088 L 521.966250,247.649154 L 524.233125,244.914481 L 526.500000,252.992681 "/>
<path style="fill: none; stroke: #008000; stroke-width: 0.500000; stroke-linejoin: miter; stroke-linecap: square;  opacity: 1.000000" clip-path="url(#7240474723315632415)" d="M 73.125000,338.100000 L 75.391875,350.867263 L 77.658750,371.955808 L 79.925625,360.973350 L 82.192500,352.753632 L 84.459375,353.263996 L 86.726250,338.521641 L 88.993125,350.524927 L 91.260000,338.317127 L 93.526875,330.945002 L 95.793750,323.965474 L 98.060625,320.438576 L 100.327500,317.955397 L 102.594375,318.670752 L 104.861250,319.518669 L 107.128125,325.290221 L 109.395000,319.325387 L 111.661875,320.211396 L 113.928750,317.626000 L 116.195625,328.302775 L 118.462500,324.273989 L 120.729375,324.667895 L 122.996250,328.140745 L 125.263125,318.791708 L 127.530000,326.765181 L 129.796875,330.753901 L 132.063750,332.566462 L 134.330625,337.475783 L 136.597500,335.455694 L 138.864375,336.418057 L 141.131250,337.887703 L 143.398125,321.890339 L 145.665000,324.927778 L 147.931875,334.392063 L 150.198750,322.951743 L 152.465625,319.318976 L 154.732500,312.660820 L 156.999375,319.175997 L 159.266250,314.937510 L 161.533125,299.997534 L 163.800000,291.875944 L 166.066875,293.850167 L 168.333750,306.599127 L 170.600625,311.375049 L 172.867500,311.588440 L 175.134375,310.805891 L 177.401250,309.800403 L 179.668125,310.039568 L 181.935000,317.445710 L 184.201875,326.258674 L 186.468750,308.404536 L 188.735625,308.033420 L 191.002500,309.205300 L 193.269375,302.798322 L 195.536250,309.262464 L 197.803125,304.946918 L 200.070000,301.543809 L 202.336875,298.943672 L 204.603750,290.420921 L 206.870625,290.942794 L 209.137500,275.562787 L 211.404375,271.896284 L 213.671250,273.830215 L 215.938125,274.235648 L 218.205000,270.563899 L 220.471875,258.165504 L 222.738750,242.472793 L 225.005625,252.050845 L 227.272500,245.613066 L 229.539375,249.381778 L 231.806250,251.917347 L 234.073125,247.236216 L 236.340000,239.209997 L 238.606875,235.071244 L 240.873750,235.800397 L 243.140625,241.565963 L 245.407500,235.851477 L 247.674375,231.015443 L 249.941250,222.268166 L 252.208125,219.838628 L 254.475000,217.280730 L 256.741875,211.691068 L 259.008750,215.402458 L 261.275625,221.032352 L 263.542500,236.196677 L 265.809375,229.107193 L 268.076250,208.871219 L 270.343125,223.644890 L 272.610000,226.367614 L 274.876875,210.904032 L 277.143750,199.931283 L 279.410625,196.381822 L 281.677500,187.129405 L 283.944375,192.359198 L 286.211250,192.628651 L 288.478125,189.763740 L 290.745000,186.876697 L 293.011875,178.389404 L 295.278750,185.644400 L 297.545625,182.140797 L 299.812500,181.643361 L 302.079375,190.557360 L 304.346250,198.191778 L 306.613125,204.388530 L 308.880000,199.639213 L 311.146875,206.149813 L 313.413750,191.535246 L 315.680625,195.816122 L 317.947500,205.143407 L 320.214375,198.947021 L 322.481250,198.219154 L 324.748125,192.917472 L 327.015000,176.103050 L 329.281875,179.733232 L 331.548750,182.452041 L 333.815625,188.612703 L 336.082500,181.258512 L 338.349375,175.529681 L 340.616250,176.253957 L 342.883125,172.700040 L 345.150000,174.607668 L 347.416875,168.329067 L 349.683750,165.032910 L 351.950625,160.664132 L 354.217500,167.925055 L 356.484375,158.880083 L 358.751250,161.449249 L 361.018125,156.815787 L 363.285000,154.989116 L 365.551875,131.511880 L 367.818750,118.447088 L 370.085625,127.676624 L 372.352500,114.458553 L 374.619375,128.043691 L 376.886250,122.885961 L 379.153125,121.468500 L 381.420000,119.305927 L 383.686875,115.536282 L 385.953750,115.182167 L 388.220625,113.480964 L 390.487500,113.950705 L 392.754375,114.544388 L 395.021250,123.360283 L 397.288125,118.759457 L 399.555000,117.864955 L 401.821875,122.801652 L 404.088750,124.371747 L 406.355625,125.613225 L 408.622500,128.203035 L 410.889375,121.469896 L 413.156250,112.337967 L 415.423125,118.568116 L 417.690000,109.925663 L 419.956875,107.778889 L 422.223750,101.330705 L 424.490625,121.682896 L 426.757500,120.507090 L 429.024375,121.205244 L 431.291250,127.461497 L 433.558125,132.497351 L 435.825000,127.473261 L 438.091875,133.776138 L 440.358750,140.097605 L 442.625625,137.598766 L 444.892500,144.951442 L 447.159375,153.834116 L 449.426250,149.483993 L 451.693125,146.904131 L 453.960000,143.371949 L 456.226875,139.974249 L 458.493750,129.692418 L 460.760625,143.190777 L 463.027500,158.495753 L 465.294375,156.245825 L 467.561250,159.029087 L 469.828125,156.111476 L 472.095000,150.007351 L 474.361875,155.200922 L 476.628750,141.462522 L 478.895625,151.094549 L 481.162500,155.158663 L 483.429375,164.358343 L 485.696250,165.569567 L 487.963125,172.059171 L 490.230000,177.439449 L 492.496875,169.151540 L 494.763750,163.129984 L 497.030625,153.744456 L 499.297500,134.722380 L 501.564375,145.397012 L 503.831250,157.970093 L 506.098125,160.173124 L 508.365000,156.394437 L 510.631875,162.321949 L 512.898750,171.305320 L 515.165625,157.707219 L 517.432500,148.031322 L 519.699375,147.817279 L 521.966250,146.833729 L 524.233125,149.745085 L 526.500000,146.738879 "/>
<path style="fill: none; stroke: #ff0000; stroke-width: 0.500000; stroke-linejoin: miter; stroke-linecap: square;  opacity: 1.000000" clip-path="url(#7240474723315632415)" d="M 73.125000,338.100000 L 75.391875,349.860000 L 77.658750,373.380000 L 79.925625,361.620000 L 82.192500,349.860000 L 84.459375,355.740000 L 86.726250,338.100000 L 88.993125,349.860000 L 91.260000,338.100000 L 93.526875,332.220000 L 95.793750,326.340000 L 98.060625,320.460000 L 100.327500,320.460000 L 102.594375,320.460000 L 104.861250,320.460000 L 107.128125,326.340000 L 109.395000,320.460000 L 111.661875,320.460000 L 113.928750,314.580000 L 116.195625,326.340000 L 118.462500,326.340000 L 120.729375,326.340000 L 122.996250,326.340000 L 125.263125,320.460000 L 127.530000,326.340000 L 129.796875,332.220000 L 132.063750,332.220000 L 134.330625,338.100000 L 136.597500,338.100000 L 138.864375,338.100000 L 141.131250,338.100000 L 143.398125,320.460000 L 145.665000,326.340000 L 147.931875,332.220000 L 150.198750,320.460000 L 152.465625,320.460000 L 154.732500,314.580000 L 156.999375,320.460000 L 159.266250,314.580000 L 161.533125,302.820000 L 163.800000,291.060000 L 166.066875,291.060000 L 168.333750,308.700000 L 170.600625,308.700000 L 172.867500,308.700000 L 175.134375,308.700000 L 177.401250,308.700000 L 179.668125,308.700000 L 181.935000,314.580000 L 184.201875,326.340000 L 186.468750,308.700000 L 188.735625,308.700000 L 191.002500,308.700000 L 193.269375,302.820000 L 195.536250,308.700000 L 197.803125,302.820000 L 200.070000,302.820000 L 202.336875,296.940000 L 204.603750,291.060000 L 206.870625,291.060000 L 209.137500,273.420000 L 211.404375,273.420000 L 213.671250,273.420000 L 215.938125,273.420000 L 218.205000,273.420000 L 220.471875,255.780000 L 222.738750,244.020000 L 225.005625,249.900000 L 227.272500,244.020000 L 229.539375,249.900000 L 231.806250,249.900000 L 234.073125,249.900000 L 236.340000,238.140000 L 238.606875,238.140000 L 240.873750,238.140000 L 243.140625,244.020000 L 245.407500,238.140000 L 247.674375,232.260000 L 249.941250,220.500000 L 252.208125,220.500000 L 254.475000,220.500000 L 256.741875,214.620000 L 259.008750,214.620000 L 261.275625,220.500000 L 263.542500,238.140000 L 265.809375,232.260000 L 268.076250,208.740000 L 270.343125,226.380000 L 272.610000,226.380000 L 274.876875,208.740000 L 277.143750,202.860000 L 279.410625,196.980000 L 281.677500,185.220000 L 283.944375,191.100000 L 286.211250,191.100000 L 288.478125,191.100000 L 290.745000,185.220000 L 293.011875,179.340000 L 295.278750,185.220000 L 297.545625,185.220000 L 299.812500,179.340000 L 302.079375,191.100000 L 304.346250,196.980000 L 306.613125,202.860000 L 308.880000,202.860000 L 311.146875,208.740000 L 313.413750,191.100000 L 315.680625,196.980000 L 317.947500,202.860000 L 320.214375,196.980000 L 322.481250,196.980000 L 324.748125,191.100000 L 327.015000,179.340000 L 329.281875,179.340000 L 331.548750,185.220000 L 333.815625,191.100000 L 336.082500,179.340000 L 338.349375,173.460000 L 340.616250,179.340000 L 342.883125,173.460000 L 345.150000,173.460000 L 347.416875,167.580000 L 349.683750,167.580000 L 351.950625,161.700000 L 354.217500,167.580000 L 356.484375,161.700000 L 358.751250,161.700000 L 361.018125,155.820000 L 363.285000,155.820000 L 365.551875,132.300000 L 367.818750,120.540000 L 370.085625,126.420000 L 372.352500,114.660000 L 374.619375,126.420000 L 376.886250,126.420000 L 379.153125,120.540000 L 381.420000,120.540000 L 383.686875,114.660000 L 385.953750,114.660000 L 388.220625,114.660000 L 390.487500,114.660000 L 392.754375,114.660000 L 395.021250,126.420000 L 397.288125,120.540000 L 399.555000,120.540000 L 401.821875,126.420000 L 404.088750,126.420000 L 406.355625,126.420000 L 408.622500,126.420000 L 410.889375,120.540000 L 413.156250,114.660000 L 415.423125,120.540000 L 417.690000,108.780000 L 419.956875,108.780000 L 422.223750,102.900000 L 424.490625,120.540000 L 426.757500,120.540000 L 429.024375,120.540000 L 431.291250,126.420000 L 433.558125,132.300000 L 435.825000,126.420000 L 438.091875,132.300000 L 440.358750,138.180000 L 442.625625,138.180000 L 444.892500,144.060000 L 447.159375,155.820000 L 449.426250,149.940000 L 451.693125,149.940000 L 453.960000,144.060000 L 456.226875,138.180000 L 458.493750,132.300000 L 460.760625,144.060000 L 463.027500,161.700000 L 465.294375,155.820000 L 467.561250,161.700000 L 469.828125,155.820000 L 472.095000,149.940000 L 474.361875,155.820000 L 476.628750,144.060000 L 478.895625,149.940000 L 481.162500,155.820000 L 483.429375,167.580000 L 485.696250,167.580000 L 487.963125,173.460000 L 490.230000,179.340000 L 492.496875,167.580000 L 494.763750,161.700000 L 497.030625,155.820000 L 499.297500,138.180000 L 501.564375,144.060000 L 503.831250,155.820000 L 506.098125,161.700000 L 508.365000,155.820000 L 510.631875,161.700000 L 512.898750,173.460000 L 515.165625,155.820000 L 517.432500,149.940000 L 519.699375,149.940000 L 521.966250,149.940000 L 524.233125,149.940000 L 526.500000,149.940000 "/>
<g id="matplotlib.axis1">
<g id="xtick1">
<text style="font-size: 9.996000; font-family: Bitstream Vera Serif; font-style: Roman; fill: #000000;" x="70.625000" y="406.900000" >0</text>
</g>
<g id="xtick2">
<path style="fill: none; stroke: #000000; stroke-width: 0.500000; stroke-linejoin: miter; stroke-linecap: butt;  opacity: 1.000000"  d="M 186.468750,396.900000 L 186.468750,391.900000"/>
<path style="fill: none; stroke: #000000; stroke-width: 0.500000; stroke-linejoin: miter; stroke-linecap: butt;  opacity: 1.000000"  d="M 186.468750,49.100000 L 186.468750,44.100000"/>
<text style="font-size: 9.996000; font-family: Bitstream Vera Serif; font-style: Roman; fill: #000000;" x="180.968750" y="406.900000" >50</text>
</g>
<g id="xtick3">
<path style="fill: none; stroke: #000000; stroke-width: 0.500000; stroke-linejoin: miter; stroke-linecap: butt;  opacity: 1.000000"  d="M 299.812500,396.900000 L 299.812500,391.900000"/>
<path style="fill: none; stroke: #000000; stroke-width: 0.500000; stroke-linejoin: miter; stroke-linecap: butt;  opacity: 1.000000"  d="M 299.812500,49.100000 L 299.812500,44.100000"/>
<text style="font-size: 9.996000; font-family: Bitstream Vera Serif; font-style: Roman; fill: #000000;" x="291.812500" y="406.900000" >100</text>
</g>
<g id="xtick4">
<path style="fill: none; stroke: #000000; stroke-width: 0.500000; stroke-linejoin: miter; stroke-linecap: butt;  opacity: 1.000000"  d="M 413.156250,396.900000 L 413.156250,391.900000"/>
<path style="fill: none; stroke: #000000; stroke-width: 0.500000; stroke-linejoin: miter; stroke-linecap: butt;  opacity: 1.000000"  d="M 413.156250,49.100000 L 413.156250,44.100000"/>
<text style="font-size: 9.996000; font-family: Bitstream Vera Serif; font-style: Roman; fill: #000000;" x="405.156250" y="406.900000" >150</text>
</g>
<g id="xtick5">
<text style="font-size: 9.996000; font-family: Bitstream Vera Serif; font-style: Roman; fill: #000000;" x="518.000000" y="406.900000" >200</text>
</g>
<text style="font-size: 12.000000; font-family: Bitstream Vera Serif; font-style: Roman; fill: #000000;" x="296.312500" y="418.900000" >n</text>
</g>
<g id="matplotlib.axis2">
<g id="ytick1">
<text style="font-size: 9.996000; font-family: Bitstream Vera Serif; font-style: Roman; fill: #000000;" x="54.125000" y="400.400000" >-0.1</text>
</g>
<g id="ytick2">
<path style="fill: none; stroke: #000000; stroke-width: 0.500000; stroke-linejoin: miter; stroke-linecap: butt;  opacity: 1.000000"  d="M 73.125000,338.100000 L 78.125000,338.100000"/>
<path style="fill: none; stroke: #000000; stroke-width: 0.500000; stroke-linejoin: miter; stroke-linecap: butt;  opacity: 1.000000"  d="M 521.500000,338.100000 L 526.500000,338.100000"/>
<text style="font-size: 9.996000; font-family: Bitstream Vera Serif; font-style: Roman; fill: #000000;" x="56.125000" y="341.600000" >0.0</text>
</g>
<g id="ytick3">
<path style="fill: none; stroke: #000000; stroke-width: 0.500000; stroke-linejoin: miter; stroke-linecap: butt;  opacity: 1.000000"  d="M 73.125000,279.300000 L 78.125000,279.300000"/>
<path style="fill: none; stroke: #000000; stroke-width: 0.500000; stroke-linejoin: miter; stroke-linecap: butt;  opacity: 1.000000"  d="M 521.500000,279.300000 L 526.500000,279.300000"/>
<text style="font-size: 9.996000; font-family: Bitstream Vera Serif; font-style: Roman; fill: #000000;" x="57.125000" y="282.800000" >0.1</text>
</g>
<g id="ytick4">
<path style="fill: none; stroke: #000000; stroke-width: 0.500000; stroke-linejoin: miter; stroke-linecap: butt;  opacity: 1.000000"  d="M 73.125000,220.500000 L 78.125000,220.500000"/>
<path style="fill: none; stroke: #000000; stroke-width: 0.500000; stroke-linejoin: miter; stroke-linecap: butt;  opacity: 1.000000"  d="M 521.500000,220.500000 L 526.500000,220.500000"/>
<text style="font-size: 9.996000; font-family: Bitstream Vera Serif; font-style: Roman; fill: #000000;" x="56.125000" y="224.000000" >0.2</text>
</g>
<g id="ytick5">
<path style="fill: none; stroke: #000000; stroke-width: 0.500000; stroke-linejoin: miter; stroke-linecap: butt;  opacity: 1.000000"  d="M 73.125000,161.700000 L 78.125000,161.700000"/>
<path style="fill: none; stroke: #000000; stroke-width: 0.500000; stroke-linejoin: miter; stroke-linecap: butt;  opacity: 1.000000"  d="M 521.500000,161.700000 L 526.500000,161.700000"/>
<text style="font-size: 9.996000; font-family: Bitstream Vera Serif; font-style: Roman; fill: #000000;" x="56.125000" y="165.200000" >0.3</text>
</g>
<g id="ytick6">
<path style="fill: none; stroke: #000000; stroke-width: 0.500000; stroke-linejoin: miter; stroke-linecap: butt;  opacity: 1.000000"  d="M 73.125000,102.900000 L 78.125000,102.900000"/>
<path style="fill: none; stroke: #000000; stroke-width: 0.500000; stroke-linejoin: miter; stroke-linecap: butt;  opacity: 1.000000"  d="M 521.500000,102.900000 L 526.500000,102.900000"/>
<text style="font-size: 9.996000; font-family: Bitstream Vera Serif; font-style: Roman; fill: #000000;" x="56.125000" y="106.400000" >0.4</text>
</g>
<g id="ytick7">
<text style="font-size: 9.996000; font-family: Bitstream Vera Serif; font-style: Roman; fill: #000000;" x="56.125000" y="47.600000" >0.5</text>
</g>
</g>
<path style="fill: none; stroke: #000000; stroke-width: 1.000000; stroke-linejoin: miter; stroke-linecap: square;  opacity: 1.000000"  d="M 73.125000,396.900000 L 526.500000,396.900000 L 526.500000,44.100000 L 73.125000,44.100000 L 73.125000,396.900000 "/>
<text style="font-size: 14.400000; font-family: Bitstream Vera Serif; font-style: Roman; fill: #000000;" x="96.312500" y="37.044000" >Final_3 cont. state space filtering. gap=0.01, mse=0.0045</text>
<g id="legend1">
<polygon style="fill: #ffffff; stroke: #000000; stroke-width: 0.500000; stroke-linejoin: miter; stroke-linecap: square;  opacity: 1.000000"  points = "407.589000,90.676320 407.589000,51.156000 517.432500,51.156000 517.432500,90.676320"/>
<path style="fill: none; stroke: #0000ff; stroke-width: 0.500000; stroke-linejoin: miter; stroke-linecap: square;  opacity: 1.000000"  d="M 418.542625,57.949360 L 426.098875,57.949360 L 433.655125,57.949360 L 441.211375,57.949360 "/>
<path style="fill: none; stroke: #008000; stroke-width: 0.500000; stroke-linejoin: miter; stroke-linecap: square;  opacity: 1.000000"  d="M 418.542625,69.266160 L 426.098875,69.266160 L 433.655125,69.266160 L 441.211375,69.266160 "/>
<path style="fill: none; stroke: #ff0000; stroke-width: 0.500000; stroke-linejoin: miter; stroke-linecap: square;  opacity: 1.000000"  d="M 418.542625,82.382960 L 426.098875,82.382960 L 433.655125,82.382960 L 441.211375,82.382960 "/>
<text style="font-size: 9.996000; font-family: Bitstream Vera Serif; font-style: Roman; fill: #000000;" x="450.278875" y="61.449360" >Xn</text>
<text style="font-size: 9.996000; font-family: Bitstream Vera Serif; font-style: Roman; fill: #000000;" x="450.278875" y="74.266160" >Xn_hat</text>
<text style="font-size: 9.996000; font-family: Bitstream Vera Serif; font-style: Roman; fill: #000000;" x="450.278875" y="87.382960" >Xn_hat_max</text>
</g>
</g>
</g>
</svg>
