<?xml version="1.0" standalone="no"?>
<!DOCTYPE svg PUBLIC "-//W3C//DTD SVG 1.0//EN"
"http://www.w3.org/TR/2001/REC-SVG-20010904/DTD/svg10.dtd">
<!-- Created with matplotlib (http://matplotlib.sourceforge.net/) -->
<svg
   xmlns="http://www.w3.org/2000/svg"
   xmlns:xlink="http://www.w3.org/1999/xlink"
   version="1.0"
   x="0.0"
   y="0.0"
   width="576.000000"
   height="432.000000"   
   id="svg1">
<g id="figure1">
<polygon         
style="stroke: #ffffff;  stroke-width: 1.000000;  stroke-linejoin: miter;  stroke-linecap: square;   opacity: 1.000000;  fill: #ffffff;   "
   points = "0.000000,432.000000 0.000000,0.000000 576.000000,0.000000 576.000000,432.000000"  />
<g id="axes1">
<polygon         
style="stroke: #000000;  stroke-width: 1.000000;  stroke-linejoin: miter;  stroke-linecap: square;   opacity: 1.000000;  fill: #ffffff;   "
   points = "72.000000,388.800000 72.000000,43.200000 518.400000,43.200000 518.400000,388.800000"  />
<g id="matplotlib.axis1">
<g id="xtick1">
<text style="font-size: 12.000000; font-family: Bitstream Vera Sans; font-style: Roman; fill: #000000;" x="69.000000" y="401.800000" >0</text>
</g>
<g id="xtick2">
<path         
style="stroke: #000000;  stroke-width: 0.500000;  stroke-linejoin: miter;  stroke-linecap: butt;   opacity: 1.000000;  fill: none;   "
 d="M 183.600000,388.800000 L 183.600000,384.800000"   />
<path         
style="stroke: #000000;  stroke-width: 0.500000;  stroke-linejoin: miter;  stroke-linecap: butt;   opacity: 1.000000;  fill: none;   "
 d="M 183.600000,388.800000 L 183.600000,384.800000"   />
<path         
style="stroke: #000000;  stroke-width: 0.500000;  stroke-linejoin: miter;  stroke-linecap: butt;   opacity: 1.000000;  fill: none;   "
 d="M 183.600000,47.200000 L 183.600000,43.200000"   />
<path         
style="stroke: #000000;  stroke-width: 0.500000;  stroke-linejoin: miter;  stroke-linecap: butt;   opacity: 1.000000;  fill: none;   "
 d="M 183.600000,47.200000 L 183.600000,43.200000"   />
<text style="font-size: 12.000000; font-family: Bitstream Vera Sans; font-style: Roman; fill: #000000;" x="176.600000" y="401.800000" >50</text>
</g>
<g id="xtick3">
<path         
style="stroke: #000000;  stroke-width: 0.500000;  stroke-linejoin: miter;  stroke-linecap: butt;   opacity: 1.000000;  fill: none;   "
 d="M 295.200000,388.800000 L 295.200000,384.800000"   />
<path         
style="stroke: #000000;  stroke-width: 0.500000;  stroke-linejoin: miter;  stroke-linecap: butt;   opacity: 1.000000;  fill: none;   "
 d="M 295.200000,388.800000 L 295.200000,384.800000"   />
<path         
style="stroke: #000000;  stroke-width: 0.500000;  stroke-linejoin: miter;  stroke-linecap: butt;   opacity: 1.000000;  fill: none;   "
 d="M 295.200000,47.200000 L 295.200000,43.200000"   />
<path         
style="stroke: #000000;  stroke-width: 0.500000;  stroke-linejoin: miter;  stroke-linecap: butt;   opacity: 1.000000;  fill: none;   "
 d="M 295.200000,47.200000 L 295.200000,43.200000"   />
<text style="font-size: 12.000000; font-family: Bitstream Vera Sans; font-style: Roman; fill: #000000;" x="284.200000" y="401.800000" >100</text>
</g>
<g id="xtick4">
<path         
style="stroke: #000000;  stroke-width: 0.500000;  stroke-linejoin: miter;  stroke-linecap: butt;   opacity: 1.000000;  fill: none;   "
 d="M 406.800000,388.800000 L 406.800000,384.800000"   />
<path         
style="stroke: #000000;  stroke-width: 0.500000;  stroke-linejoin: miter;  stroke-linecap: butt;   opacity: 1.000000;  fill: none;   "
 d="M 406.800000,388.800000 L 406.800000,384.800000"   />
<path         
style="stroke: #000000;  stroke-width: 0.500000;  stroke-linejoin: miter;  stroke-linecap: butt;   opacity: 1.000000;  fill: none;   "
 d="M 406.800000,47.200000 L 406.800000,43.200000"   />
<path         
style="stroke: #000000;  stroke-width: 0.500000;  stroke-linejoin: miter;  stroke-linecap: butt;   opacity: 1.000000;  fill: none;   "
 d="M 406.800000,47.200000 L 406.800000,43.200000"   />
<text style="font-size: 12.000000; font-family: Bitstream Vera Sans; font-style: Roman; fill: #000000;" x="395.800000" y="401.800000" >150</text>
</g>
<g id="xtick5">
<text style="font-size: 12.000000; font-family: Bitstream Vera Sans; font-style: Roman; fill: #000000;" x="507.400000" y="401.800000" >200</text>
</g>
<text style="font-size: 12.000000; font-family: Bitstream Vera Sans; font-style: Roman; fill: #000000;" x="292.200000" y="413.800000" >n</text>
</g>
<g id="matplotlib.axis2">
<g id="ytick1">
<text style="font-size: 12.000000; font-family: Bitstream Vera Sans; font-style: Roman; fill: #000000;" x="42.000000" y="393.300000" >0.80</text>
</g>
<g id="ytick2">
<path         
style="stroke: #000000;  stroke-width: 0.500000;  stroke-linejoin: miter;  stroke-linecap: butt;   opacity: 1.000000;  fill: none;   "
 d="M 72.000000,331.200000 L 76.000000,331.200000"   />
<path         
style="stroke: #000000;  stroke-width: 0.500000;  stroke-linejoin: miter;  stroke-linecap: butt;   opacity: 1.000000;  fill: none;   "
 d="M 72.000000,331.200000 L 76.000000,331.200000"   />
<path         
style="stroke: #000000;  stroke-width: 0.500000;  stroke-linejoin: miter;  stroke-linecap: butt;   opacity: 1.000000;  fill: none;   "
 d="M 514.400000,331.200000 L 518.400000,331.200000"   />
<path         
style="stroke: #000000;  stroke-width: 0.500000;  stroke-linejoin: miter;  stroke-linecap: butt;   opacity: 1.000000;  fill: none;   "
 d="M 514.400000,331.200000 L 518.400000,331.200000"   />
<text style="font-size: 12.000000; font-family: Bitstream Vera Sans; font-style: Roman; fill: #000000;" x="42.000000" y="335.700000" >0.85</text>
</g>
<g id="ytick3">
<path         
style="stroke: #000000;  stroke-width: 0.500000;  stroke-linejoin: miter;  stroke-linecap: butt;   opacity: 1.000000;  fill: none;   "
 d="M 72.000000,273.600000 L 76.000000,273.600000"   />
<path         
style="stroke: #000000;  stroke-width: 0.500000;  stroke-linejoin: miter;  stroke-linecap: butt;   opacity: 1.000000;  fill: none;   "
 d="M 72.000000,273.600000 L 76.000000,273.600000"   />
<path         
style="stroke: #000000;  stroke-width: 0.500000;  stroke-linejoin: miter;  stroke-linecap: butt;   opacity: 1.000000;  fill: none;   "
 d="M 514.400000,273.600000 L 518.400000,273.600000"   />
<path         
style="stroke: #000000;  stroke-width: 0.500000;  stroke-linejoin: miter;  stroke-linecap: butt;   opacity: 1.000000;  fill: none;   "
 d="M 514.400000,273.600000 L 518.400000,273.600000"   />
<text style="font-size: 12.000000; font-family: Bitstream Vera Sans; font-style: Roman; fill: #000000;" x="42.000000" y="278.100000" >0.90</text>
</g>
<g id="ytick4">
<path         
style="stroke: #000000;  stroke-width: 0.500000;  stroke-linejoin: miter;  stroke-linecap: butt;   opacity: 1.000000;  fill: none;   "
 d="M 72.000000,216.000000 L 76.000000,216.000000"   />
<path         
style="stroke: #000000;  stroke-width: 0.500000;  stroke-linejoin: miter;  stroke-linecap: butt;   opacity: 1.000000;  fill: none;   "
 d="M 72.000000,216.000000 L 76.000000,216.000000"   />
<path         
style="stroke: #000000;  stroke-width: 0.500000;  stroke-linejoin: miter;  stroke-linecap: butt;   opacity: 1.000000;  fill: none;   "
 d="M 514.400000,216.000000 L 518.400000,216.000000"   />
<path         
style="stroke: #000000;  stroke-width: 0.500000;  stroke-linejoin: miter;  stroke-linecap: butt;   opacity: 1.000000;  fill: none;   "
 d="M 514.400000,216.000000 L 518.400000,216.000000"   />
<text style="font-size: 12.000000; font-family: Bitstream Vera Sans; font-style: Roman; fill: #000000;" x="42.000000" y="220.500000" >0.95</text>
</g>
<g id="ytick5">
<path         
style="stroke: #000000;  stroke-width: 0.500000;  stroke-linejoin: miter;  stroke-linecap: butt;   opacity: 1.000000;  fill: none;   "
 d="M 72.000000,158.400000 L 76.000000,158.400000"   />
<path         
style="stroke: #000000;  stroke-width: 0.500000;  stroke-linejoin: miter;  stroke-linecap: butt;   opacity: 1.000000;  fill: none;   "
 d="M 72.000000,158.400000 L 76.000000,158.400000"   />
<path         
style="stroke: #000000;  stroke-width: 0.500000;  stroke-linejoin: miter;  stroke-linecap: butt;   opacity: 1.000000;  fill: none;   "
 d="M 514.400000,158.400000 L 518.400000,158.400000"   />
<path         
style="stroke: #000000;  stroke-width: 0.500000;  stroke-linejoin: miter;  stroke-linecap: butt;   opacity: 1.000000;  fill: none;   "
 d="M 514.400000,158.400000 L 518.400000,158.400000"   />
<text style="font-size: 12.000000; font-family: Bitstream Vera Sans; font-style: Roman; fill: #000000;" x="42.000000" y="162.900000" >1.00</text>
</g>
<g id="ytick6">
<path         
style="stroke: #000000;  stroke-width: 0.500000;  stroke-linejoin: miter;  stroke-linecap: butt;   opacity: 1.000000;  fill: none;   "
 d="M 72.000000,100.800000 L 76.000000,100.800000"   />
<path         
style="stroke: #000000;  stroke-width: 0.500000;  stroke-linejoin: miter;  stroke-linecap: butt;   opacity: 1.000000;  fill: none;   "
 d="M 72.000000,100.800000 L 76.000000,100.800000"   />
<path         
style="stroke: #000000;  stroke-width: 0.500000;  stroke-linejoin: miter;  stroke-linecap: butt;   opacity: 1.000000;  fill: none;   "
 d="M 514.400000,100.800000 L 518.400000,100.800000"   />
<path         
style="stroke: #000000;  stroke-width: 0.500000;  stroke-linejoin: miter;  stroke-linecap: butt;   opacity: 1.000000;  fill: none;   "
 d="M 514.400000,100.800000 L 518.400000,100.800000"   />
<text style="font-size: 12.000000; font-family: Bitstream Vera Sans; font-style: Roman; fill: #000000;" x="42.000000" y="105.300000" >1.05</text>
</g>
<g id="ytick7">
<text style="font-size: 12.000000; font-family: Bitstream Vera Sans; font-style: Roman; fill: #000000;" x="42.000000" y="47.700000" >1.10</text>
</g>
</g>

<defs>
    <clipPath id="-1250928610">
    <rect x="72.000000" y="43.200000" width="446.400000" height="345.600000"
    style="stroke: gray; fill: none;"/>
    </clipPath>
</defs>

<path         
style="stroke: #0000ff;  stroke-width: 0.500000;  stroke-linejoin: miter;  stroke-linecap: square;   opacity: 1.000000;  fill: none;   clip-path:url(#-1250928610);  "
 d="M 72.000000,383.047992 L 74.232000,163.681335 L 76.464000,86.240081 L 78.696000,59.722718 L 80.928000,50.737932 L 83.160000,47.704546 L 85.392000,46.681674 L 87.624000,46.336898 L 89.856000,46.220701 L 92.088000,46.181542 L 94.320000,46.168346 L 96.552000,46.163899 L 98.784000,46.162400 L 101.016000,46.161895 L 103.248000,46.161725 L 105.480000,46.161667 L 107.712000,46.161648 L 109.944000,46.161642 L 112.176000,46.161639 L 114.408000,46.161639 L 116.640000,46.161638 L 118.872000,46.161638 L 121.104000,46.161638 L 123.336000,46.161638 L 125.568000,46.161638 L 127.800000,46.161638 L 130.032000,46.161638 L 132.264000,46.161638 L 134.496000,46.161638 L 136.728000,46.161638 L 138.960000,46.161638 L 141.192000,46.161638 L 143.424000,46.161638 L 145.656000,46.161638 L 147.888000,46.161638 L 150.120000,46.161638 L 152.352000,46.161638 L 154.584000,46.161638 L 156.816000,46.161638 L 159.048000,46.161638 L 161.280000,46.161638 L 163.512000,46.161638 L 165.744000,46.161638 L 167.976000,46.161638 L 170.208000,46.161638 L 172.440000,46.161638 L 174.672000,46.161638 L 176.904000,46.161638 L 179.136000,46.161638 L 181.368000,46.161638 L 183.600000,46.161638 L 185.832000,46.161638 L 188.064000,46.161638 L 190.296000,46.161638 L 192.528000,46.161638 L 194.760000,46.161638 L 196.992000,46.161638 L 199.224000,46.161638 L 201.456000,46.161638 L 203.688000,46.161638 L 205.920000,46.161638 L 208.152000,46.161638 L 210.384000,46.161638 L 212.616000,46.161638 L 214.848000,46.161638 L 217.080000,46.161638 L 219.312000,46.161638 L 221.544000,46.161638 L 223.776000,46.161638 L 226.008000,46.161638 L 228.240000,46.161638 L 230.472000,46.161638 L 232.704000,46.161638 L 234.936000,46.161638 L 237.168000,46.161638 L 239.400000,46.161638 L 241.632000,46.161638 L 243.864000,46.161638 L 246.096000,46.161638 L 248.328000,46.161638 L 250.560000,46.161638 L 252.792000,46.161638 L 255.024000,46.161638 L 257.256000,46.161638 L 259.488000,46.161638 L 261.720000,46.161638 L 263.952000,46.161638 L 266.184000,46.161638 L 268.416000,46.161638 L 270.648000,46.161638 L 272.880000,46.161638 L 275.112000,46.161638 L 277.344000,46.161638 L 279.576000,46.161638 L 281.808000,46.161638 L 284.040000,46.161638 L 286.272000,46.161638 L 288.504000,46.161638 L 290.736000,46.161638 L 292.968000,46.161638 L 295.200000,46.161638 L 297.432000,46.161638 L 299.664000,46.161638 L 301.896000,46.161638 L 304.128000,46.161638 L 306.360000,46.161638 L 308.592000,46.161638 L 310.824000,46.161638 L 313.056000,46.161638 L 315.288000,46.161638 L 317.520000,46.161638 L 319.752000,46.161638 L 321.984000,46.161638 L 324.216000,46.161638 L 326.448000,46.161638 L 328.680000,46.161638 L 330.912000,46.161638 L 333.144000,46.161638 L 335.376000,46.161638 L 337.608000,46.161638 L 339.840000,46.161638 L 342.072000,46.161638 L 344.304000,46.161638 L 346.536000,46.161638 L 348.768000,46.161638 L 351.000000,46.161638 L 353.232000,46.161638 L 355.464000,46.161638 L 357.696000,46.161638 L 359.928000,46.161638 L 362.160000,46.161638 L 364.392000,46.161638 L 366.624000,46.161638 L 368.856000,46.161638 L 371.088000,46.161638 L 373.320000,46.161638 L 375.552000,46.161638 L 377.784000,46.161638 L 380.016000,46.161638 L 382.248000,46.161638 L 384.480000,46.161638 L 386.712000,46.161638 L 388.944000,46.161638 L 391.176000,46.161638 L 393.408000,46.161638 L 395.640000,46.161638 L 397.872000,46.161638 L 400.104000,46.161638 L 402.336000,46.161638 L 404.568000,46.161638 L 406.800000,46.161638 L 409.032000,46.161638 L 411.264000,46.161638 L 413.496000,46.161638 L 415.728000,46.161638 L 417.960000,46.161638 L 420.192000,46.161638 L 422.424000,46.161638 L 424.656000,46.161638 L 426.888000,46.161638 L 429.120000,46.161638 L 431.352000,46.161638 L 433.584000,46.161638 L 435.816000,46.161638 L 438.048000,46.161638 L 440.280000,46.161638 L 442.512000,46.161638 L 444.744000,46.161638 L 446.976000,46.161638 L 449.208000,46.161638 L 451.440000,46.161638 L 453.672000,46.161638 L 455.904000,46.161638 L 458.136000,46.161638 L 460.368000,46.161638 L 462.600000,46.161638 L 464.832000,46.161638 L 467.064000,46.161638 L 469.296000,46.161638 L 471.528000,46.161638 L 473.760000,46.161638 L 475.992000,46.161638 L 478.224000,46.161638 L 480.456000,46.161638 L 482.688000,46.161638 L 484.920000,46.161638 L 487.152000,46.161638 L 489.384000,46.161638 L 491.616000,46.161638 L 493.848000,46.161638 L 496.080000,46.161638 L 498.312000,46.161638 L 500.544000,46.161638 L 502.776000,46.161638 L 505.008000,46.161638 L 507.240000,46.161638 L 509.472000,46.161638 L 511.704000,46.161638 L 513.936000,46.161638 L 516.168000,46.161638 L 518.400000,46.161638 "   />
<text style="font-size: 14.000000; font-family: Bitstream Vera Sans; font-style: Roman; fill: #000000;" x="60.676562" y="36.288000" >KalmanFilter error on X0, V1, W1~N(0,1), N=201, a=0.8, e=0.9, d=2</text>
<g id="legend1">
<polygon         
style="stroke: #000000;  stroke-width: 1.000000;  stroke-linejoin: miter;  stroke-linecap: square;   opacity: 1.000000;  fill: #ffffff;   "
   points = "433.814400,62.112000 433.814400,50.112000 509.472000,50.112000 509.472000,62.112000"  />
<path         
style="stroke: #0000ff;  stroke-width: 0.500000;  stroke-linejoin: miter;  stroke-linecap: square;   opacity: 1.000000;  fill: none;   "
 d="M 441.919200,56.112000 L 449.359200,56.112000 L 456.799200,56.112000 L 464.239200,56.112000 "   />
<text style="font-size: 10.000000; font-family: Bitstream Vera Sans; font-style: Roman; fill: #000000;" x="473.167200" y="61.112000" >Pn_list</text>
</g>
</g>
</g>
</svg>