<?xml version="1.0" standalone="no"?>
<!DOCTYPE svg PUBLIC "-//W3C//DTD SVG 1.0//EN"
"http://www.w3.org/TR/2001/REC-SVG-20010904/DTD/svg10.dtd">
<!-- Created with matplotlib (http://matplotlib.sourceforge.net/) -->
<svg
   xmlns="http://www.w3.org/2000/svg"
   xmlns:xlink="http://www.w3.org/1999/xlink"
   version="1.0"
   x="0.0"
   y="0.0"
   width="576.000000"
   height="432.000000"   
   id="svg1">
<g id="figure1">
<polygon         
style="stroke: #ffffff;  stroke-width: 1.000000;  stroke-linejoin: miter;  stroke-linecap: square;   opacity: 1.000000;  fill: #ffffff;   "
   points = "0.000000,432.000000 0.000000,0.000000 576.000000,0.000000 576.000000,432.000000"  />
<g id="axes1">
<polygon         
style="stroke: #000000;  stroke-width: 1.000000;  stroke-linejoin: miter;  stroke-linecap: square;   opacity: 1.000000;  fill: #ffffff;   "
   points = "72.000000,388.800000 72.000000,43.200000 518.400000,43.200000 518.400000,388.800000"  />
<g id="matplotlib.axis1">
<g id="xtick1">
<text style="font-size: 12.000000; font-family: Bitstream Vera Sans; font-style: Roman; fill: #000000;" x="69.000000" y="401.800000" >0</text>
</g>
<g id="xtick2">
<path         
style="stroke: #000000;  stroke-width: 0.500000;  stroke-linejoin: miter;  stroke-linecap: butt;   opacity: 1.000000;  fill: none;   "
 d="M 183.600000,388.800000 L 183.600000,384.800000"   />
<path         
style="stroke: #000000;  stroke-width: 0.500000;  stroke-linejoin: miter;  stroke-linecap: butt;   opacity: 1.000000;  fill: none;   "
 d="M 183.600000,388.800000 L 183.600000,384.800000"   />
<path         
style="stroke: #000000;  stroke-width: 0.500000;  stroke-linejoin: miter;  stroke-linecap: butt;   opacity: 1.000000;  fill: none;   "
 d="M 183.600000,47.200000 L 183.600000,43.200000"   />
<path         
style="stroke: #000000;  stroke-width: 0.500000;  stroke-linejoin: miter;  stroke-linecap: butt;   opacity: 1.000000;  fill: none;   "
 d="M 183.600000,47.200000 L 183.600000,43.200000"   />
<text style="font-size: 12.000000; font-family: Bitstream Vera Sans; font-style: Roman; fill: #000000;" x="176.600000" y="401.800000" >50</text>
</g>
<g id="xtick3">
<path         
style="stroke: #000000;  stroke-width: 0.500000;  stroke-linejoin: miter;  stroke-linecap: butt;   opacity: 1.000000;  fill: none;   "
 d="M 295.200000,388.800000 L 295.200000,384.800000"   />
<path         
style="stroke: #000000;  stroke-width: 0.500000;  stroke-linejoin: miter;  stroke-linecap: butt;   opacity: 1.000000;  fill: none;   "
 d="M 295.200000,388.800000 L 295.200000,384.800000"   />
<path         
style="stroke: #000000;  stroke-width: 0.500000;  stroke-linejoin: miter;  stroke-linecap: butt;   opacity: 1.000000;  fill: none;   "
 d="M 295.200000,47.200000 L 295.200000,43.200000"   />
<path         
style="stroke: #000000;  stroke-width: 0.500000;  stroke-linejoin: miter;  stroke-linecap: butt;   opacity: 1.000000;  fill: none;   "
 d="M 295.200000,47.200000 L 295.200000,43.200000"   />
<text style="font-size: 12.000000; font-family: Bitstream Vera Sans; font-style: Roman; fill: #000000;" x="284.200000" y="401.800000" >100</text>
</g>
<g id="xtick4">
<path         
style="stroke: #000000;  stroke-width: 0.500000;  stroke-linejoin: miter;  stroke-linecap: butt;   opacity: 1.000000;  fill: none;   "
 d="M 406.800000,388.800000 L 406.800000,384.800000"   />
<path         
style="stroke: #000000;  stroke-width: 0.500000;  stroke-linejoin: miter;  stroke-linecap: butt;   opacity: 1.000000;  fill: none;   "
 d="M 406.800000,388.800000 L 406.800000,384.800000"   />
<path         
style="stroke: #000000;  stroke-width: 0.500000;  stroke-linejoin: miter;  stroke-linecap: butt;   opacity: 1.000000;  fill: none;   "
 d="M 406.800000,47.200000 L 406.800000,43.200000"   />
<path         
style="stroke: #000000;  stroke-width: 0.500000;  stroke-linejoin: miter;  stroke-linecap: butt;   opacity: 1.000000;  fill: none;   "
 d="M 406.800000,47.200000 L 406.800000,43.200000"   />
<text style="font-size: 12.000000; font-family: Bitstream Vera Sans; font-style: Roman; fill: #000000;" x="395.800000" y="401.800000" >150</text>
</g>
<g id="xtick5">
<text style="font-size: 12.000000; font-family: Bitstream Vera Sans; font-style: Roman; fill: #000000;" x="507.400000" y="401.800000" >200</text>
</g>
<text style="font-size: 12.000000; font-family: Bitstream Vera Sans; font-style: Roman; fill: #000000;" x="292.200000" y="413.800000" >n</text>
</g>
<g id="matplotlib.axis2">
<g id="ytick1">
<path         
style="stroke: #000000;  stroke-width: 0.500000;  stroke-linejoin: miter;  stroke-linecap: butt;   opacity: 1.000000;  fill: none;   "
 d="M 72.000000,354.240000 L 76.000000,354.240000"   />
<path         
style="stroke: #000000;  stroke-width: 0.500000;  stroke-linejoin: miter;  stroke-linecap: butt;   opacity: 1.000000;  fill: none;   "
 d="M 72.000000,354.240000 L 76.000000,354.240000"   />
<path         
style="stroke: #000000;  stroke-width: 0.500000;  stroke-linejoin: miter;  stroke-linecap: butt;   opacity: 1.000000;  fill: none;   "
 d="M 514.400000,354.240000 L 518.400000,354.240000"   />
<path         
style="stroke: #000000;  stroke-width: 0.500000;  stroke-linejoin: miter;  stroke-linecap: butt;   opacity: 1.000000;  fill: none;   "
 d="M 514.400000,354.240000 L 518.400000,354.240000"   />
<text style="font-size: 12.000000; font-family: Bitstream Vera Sans; font-style: Roman; fill: #000000;" x="57.953125" y="358.740000" >-2</text>
</g>
<g id="ytick2">
<path         
style="stroke: #000000;  stroke-width: 0.500000;  stroke-linejoin: miter;  stroke-linecap: butt;   opacity: 1.000000;  fill: none;   "
 d="M 72.000000,285.120000 L 76.000000,285.120000"   />
<path         
style="stroke: #000000;  stroke-width: 0.500000;  stroke-linejoin: miter;  stroke-linecap: butt;   opacity: 1.000000;  fill: none;   "
 d="M 72.000000,285.120000 L 76.000000,285.120000"   />
<path         
style="stroke: #000000;  stroke-width: 0.500000;  stroke-linejoin: miter;  stroke-linecap: butt;   opacity: 1.000000;  fill: none;   "
 d="M 514.400000,285.120000 L 518.400000,285.120000"   />
<path         
style="stroke: #000000;  stroke-width: 0.500000;  stroke-linejoin: miter;  stroke-linecap: butt;   opacity: 1.000000;  fill: none;   "
 d="M 514.400000,285.120000 L 518.400000,285.120000"   />
<text style="font-size: 12.000000; font-family: Bitstream Vera Sans; font-style: Roman; fill: #000000;" x="59.000000" y="289.620000" >-1</text>
</g>
<g id="ytick3">
<path         
style="stroke: #000000;  stroke-width: 0.500000;  stroke-linejoin: miter;  stroke-linecap: butt;   opacity: 1.000000;  fill: none;   "
 d="M 72.000000,216.000000 L 76.000000,216.000000"   />
<path         
style="stroke: #000000;  stroke-width: 0.500000;  stroke-linejoin: miter;  stroke-linecap: butt;   opacity: 1.000000;  fill: none;   "
 d="M 72.000000,216.000000 L 76.000000,216.000000"   />
<path         
style="stroke: #000000;  stroke-width: 0.500000;  stroke-linejoin: miter;  stroke-linecap: butt;   opacity: 1.000000;  fill: none;   "
 d="M 514.400000,216.000000 L 518.400000,216.000000"   />
<path         
style="stroke: #000000;  stroke-width: 0.500000;  stroke-linejoin: miter;  stroke-linecap: butt;   opacity: 1.000000;  fill: none;   "
 d="M 514.400000,216.000000 L 518.400000,216.000000"   />
<text style="font-size: 12.000000; font-family: Bitstream Vera Sans; font-style: Roman; fill: #000000;" x="62.000000" y="220.500000" >0</text>
</g>
<g id="ytick4">
<path         
style="stroke: #000000;  stroke-width: 0.500000;  stroke-linejoin: miter;  stroke-linecap: butt;   opacity: 1.000000;  fill: none;   "
 d="M 72.000000,146.880000 L 76.000000,146.880000"   />
<path         
style="stroke: #000000;  stroke-width: 0.500000;  stroke-linejoin: miter;  stroke-linecap: butt;   opacity: 1.000000;  fill: none;   "
 d="M 72.000000,146.880000 L 76.000000,146.880000"   />
<path         
style="stroke: #000000;  stroke-width: 0.500000;  stroke-linejoin: miter;  stroke-linecap: butt;   opacity: 1.000000;  fill: none;   "
 d="M 514.400000,146.880000 L 518.400000,146.880000"   />
<path         
style="stroke: #000000;  stroke-width: 0.500000;  stroke-linejoin: miter;  stroke-linecap: butt;   opacity: 1.000000;  fill: none;   "
 d="M 514.400000,146.880000 L 518.400000,146.880000"   />
<text style="font-size: 12.000000; font-family: Bitstream Vera Sans; font-style: Roman; fill: #000000;" x="63.000000" y="151.380000" >1</text>
</g>
<g id="ytick5">
<path         
style="stroke: #000000;  stroke-width: 0.500000;  stroke-linejoin: miter;  stroke-linecap: butt;   opacity: 1.000000;  fill: none;   "
 d="M 72.000000,77.760000 L 76.000000,77.760000"   />
<path         
style="stroke: #000000;  stroke-width: 0.500000;  stroke-linejoin: miter;  stroke-linecap: butt;   opacity: 1.000000;  fill: none;   "
 d="M 72.000000,77.760000 L 76.000000,77.760000"   />
<path         
style="stroke: #000000;  stroke-width: 0.500000;  stroke-linejoin: miter;  stroke-linecap: butt;   opacity: 1.000000;  fill: none;   "
 d="M 514.400000,77.760000 L 518.400000,77.760000"   />
<path         
style="stroke: #000000;  stroke-width: 0.500000;  stroke-linejoin: miter;  stroke-linecap: butt;   opacity: 1.000000;  fill: none;   "
 d="M 514.400000,77.760000 L 518.400000,77.760000"   />
<text style="font-size: 12.000000; font-family: Bitstream Vera Sans; font-style: Roman; fill: #000000;" x="61.953125" y="82.260000" >2</text>
</g>
</g>

<defs>
    <clipPath id="-1250928610">
    <rect x="72.000000" y="43.200000" width="446.400000" height="345.600000"
    style="stroke: gray; fill: none;"/>
    </clipPath>
</defs>

<path         
style="stroke: #0000ff;  stroke-width: 0.500000;  stroke-linejoin: miter;  stroke-linecap: square;   opacity: 1.000000;  fill: none;   clip-path:url(#-1250928610);  "
 d="M 72.000000,146.880000 L 74.232000,174.528000 L 76.464000,157.939200 L 78.696000,143.009280 L 80.928000,171.044352 L 83.160000,154.803917 L 85.392000,181.659525 L 87.624000,205.829573 L 89.856000,186.110615 L 92.088000,168.363554 L 94.320000,152.391198 L 96.552000,179.488079 L 98.784000,203.875271 L 101.016000,184.351744 L 103.248000,208.252569 L 105.480000,229.763312 L 107.712000,207.650981 L 109.944000,187.749883 L 112.176000,211.310895 L 114.408000,191.043805 L 116.640000,214.275425 L 118.872000,235.183882 L 121.104000,254.001494 L 123.336000,229.465345 L 125.568000,248.854810 L 127.800000,266.305329 L 130.032000,240.538796 L 132.264000,258.820917 L 134.496000,233.802825 L 136.728000,211.286542 L 138.960000,191.021888 L 141.192000,214.255699 L 143.424000,235.166129 L 145.656000,253.985517 L 147.888000,270.922965 L 150.120000,244.694668 L 152.352000,262.561202 L 154.584000,237.169081 L 156.816000,255.788173 L 159.048000,272.545356 L 161.280000,246.154820 L 163.512000,222.403338 L 165.744000,201.027004 L 167.976000,223.260304 L 170.208000,243.270274 L 172.440000,219.807246 L 174.672000,198.690522 L 176.904000,221.157469 L 179.136000,241.377723 L 181.368000,218.103950 L 183.600000,197.157555 L 185.832000,219.777800 L 188.064000,198.664020 L 190.296000,179.661618 L 192.528000,204.031456 L 194.760000,225.964310 L 196.992000,204.231879 L 199.224000,226.144691 L 201.456000,245.866222 L 203.688000,263.615600 L 205.920000,238.118040 L 208.152000,215.170236 L 210.384000,194.517212 L 212.616000,175.929491 L 214.848000,200.672542 L 217.080000,181.469288 L 219.312000,205.658359 L 221.544000,227.428523 L 223.776000,247.021671 L 226.008000,223.183504 L 228.240000,243.201153 L 230.472000,219.745038 L 232.704000,240.106534 L 234.936000,258.431881 L 237.168000,274.924693 L 239.400000,248.296223 L 241.632000,265.802601 L 243.864000,240.086341 L 246.096000,258.413707 L 248.328000,274.908336 L 250.560000,248.281503 L 252.792000,265.789352 L 255.024000,281.546417 L 257.256000,254.255775 L 259.488000,271.166198 L 261.720000,244.913578 L 263.952000,221.286220 L 266.184000,241.493598 L 268.416000,259.680238 L 270.648000,234.576215 L 272.880000,211.982593 L 275.112000,191.648334 L 277.344000,214.819500 L 279.576000,235.673550 L 281.808000,254.442195 L 284.040000,229.861976 L 286.272000,207.739778 L 288.504000,187.829800 L 290.736000,169.910820 L 292.968000,153.783738 L 295.200000,180.741364 L 297.432000,163.531228 L 299.664000,189.514105 L 301.896000,212.898695 L 304.128000,192.472825 L 306.360000,174.089543 L 308.592000,157.544588 L 310.824000,142.654130 L 313.056000,170.724717 L 315.288000,154.516245 L 317.520000,181.400620 L 319.752000,205.596558 L 321.984000,227.372903 L 324.216000,205.499612 L 326.448000,185.813651 L 328.680000,168.096286 L 330.912000,193.622657 L 333.144000,175.124392 L 335.376000,199.947952 L 337.608000,180.817157 L 339.840000,205.071442 L 342.072000,185.428297 L 344.304000,209.221468 L 346.536000,189.163321 L 348.768000,171.110989 L 351.000000,196.335890 L 353.232000,219.038301 L 355.464000,239.470471 L 357.696000,216.387424 L 359.928000,195.612681 L 362.160000,218.387413 L 364.392000,238.884672 L 366.624000,215.860205 L 368.856000,236.610184 L 371.088000,213.813166 L 373.320000,193.295849 L 375.552000,174.830264 L 377.784000,158.211238 L 380.016000,143.254114 L 382.248000,129.792703 L 384.480000,117.677432 L 386.712000,148.245689 L 388.944000,134.285120 L 391.176000,163.192608 L 393.408000,189.209347 L 395.640000,212.624413 L 397.872000,233.697971 L 400.104000,211.192174 L 402.336000,232.408957 L 404.568000,251.504061 L 406.800000,227.217655 L 409.032000,246.831890 L 411.264000,223.012701 L 413.496000,243.047431 L 415.728000,261.078687 L 417.960000,235.834819 L 420.192000,213.115337 L 422.424000,192.667803 L 424.656000,174.265023 L 426.888000,157.702521 L 429.120000,184.268269 L 431.352000,166.705442 L 433.584000,192.370897 L 435.816000,173.997808 L 438.048000,157.462027 L 440.280000,184.051824 L 442.512000,207.982642 L 444.744000,188.048378 L 446.976000,170.107540 L 449.208000,195.432786 L 451.440000,176.753507 L 453.672000,201.414157 L 455.904000,223.608741 L 458.136000,243.583867 L 460.368000,220.089480 L 462.600000,198.944532 L 464.832000,221.386079 L 467.064000,200.111471 L 469.296000,222.436324 L 471.528000,201.056692 L 473.760000,223.287022 L 475.992000,243.294320 L 478.224000,261.300888 L 480.456000,277.506799 L 482.688000,292.092119 L 484.920000,263.746907 L 487.152000,279.708217 L 489.384000,294.073395 L 491.616000,307.002056 L 493.848000,277.165850 L 496.080000,250.313265 L 498.312000,226.145938 L 500.544000,204.395345 L 502.776000,184.819810 L 505.008000,208.673829 L 507.240000,188.670446 L 509.472000,212.139402 L 511.704000,191.789461 L 513.936000,173.474515 L 516.168000,198.463064 L 518.400000,179.480757 "   />
<path         
style="stroke: #008000;  stroke-width: 0.500000;  stroke-linejoin: miter;  stroke-linecap: square;   opacity: 1.000000;  fill: none;   clip-path:url(#-1250928610);  "
 d="M 72.000000,216.000000 L 74.232000,228.091671 L 76.464000,184.414477 L 78.696000,193.792150 L 80.928000,174.571732 L 83.160000,158.672863 L 85.392000,153.556594 L 87.624000,183.520419 L 89.856000,200.759415 L 92.088000,181.312239 L 94.320000,164.164827 L 96.552000,185.428111 L 98.784000,177.590972 L 101.016000,196.034492 L 103.248000,214.111326 L 105.480000,231.441484 L 107.712000,211.382112 L 109.944000,192.954636 L 112.176000,184.505315 L 114.408000,174.335004 L 116.640000,171.744245 L 118.872000,202.134903 L 121.104000,227.757152 L 123.336000,241.172290 L 125.568000,226.715479 L 127.800000,219.877089 L 130.032000,209.748373 L 132.264000,234.197350 L 134.496000,218.659966 L 136.728000,202.947269 L 138.960000,215.577940 L 141.192000,229.350109 L 143.424000,215.457727 L 145.656000,237.314677 L 147.888000,256.431955 L 150.120000,264.836085 L 152.352000,246.474654 L 154.584000,256.165501 L 156.816000,238.879949 L 159.048000,229.871086 L 161.280000,218.058337 L 163.512000,232.781137 L 165.744000,239.014882 L 167.976000,219.980811 L 170.208000,238.389219 L 172.440000,246.845000 L 174.672000,248.633989 L 176.904000,254.470505 L 179.136000,234.743449 L 181.368000,215.870645 L 183.600000,198.082491 L 185.832000,217.913946 L 188.064000,227.866990 L 190.296000,231.158897 L 192.528000,210.446637 L 194.760000,228.040390 L 196.992000,208.249335 L 199.224000,226.500105 L 201.456000,243.593665 L 203.688000,231.444240 L 205.920000,217.558701 L 208.152000,230.956872 L 210.384000,236.386604 L 212.616000,208.503594 L 214.848000,221.520900 L 217.080000,198.958186 L 219.312000,187.668300 L 221.544000,211.990809 L 223.776000,205.402675 L 226.008000,195.844311 L 228.240000,193.041367 L 230.472000,214.289674 L 232.704000,205.651115 L 234.936000,203.165317 L 237.168000,204.723546 L 239.400000,200.445785 L 241.632000,200.923446 L 243.864000,224.068000 L 246.096000,244.390946 L 248.328000,262.317651 L 250.560000,241.773732 L 252.792000,230.578700 L 255.024000,225.737880 L 257.256000,244.746730 L 259.488000,233.801759 L 261.720000,220.627559 L 263.952000,234.398500 L 266.184000,248.375678 L 268.416000,234.078469 L 270.648000,246.744280 L 272.880000,223.242303 L 275.112000,230.269093 L 277.344000,240.007085 L 279.576000,251.221163 L 281.808000,263.071929 L 284.040000,238.582493 L 286.272000,244.538351 L 288.504000,216.764961 L 290.736000,193.203005 L 292.968000,173.026387 L 295.200000,192.022746 L 297.432000,202.167539 L 299.664000,214.712851 L 301.896000,200.441409 L 304.128000,186.060785 L 306.360000,200.028624 L 308.592000,206.699621 L 310.824000,180.456586 L 313.056000,195.325068 L 315.288000,174.697665 L 317.520000,193.355688 L 319.752000,211.648195 L 321.984000,201.175186 L 324.216000,189.227105 L 326.448000,176.663715 L 328.680000,164.057680 L 330.912000,188.196845 L 333.144000,173.758307 L 335.376000,196.440007 L 337.608000,180.827381 L 339.840000,202.551168 L 342.072000,186.147298 L 344.304000,179.196923 L 346.536000,198.157495 L 348.768000,180.093037 L 351.000000,172.241109 L 353.232000,199.219690 L 355.464000,194.707636 L 357.696000,186.792136 L 359.928000,204.914901 L 362.160000,222.535302 L 364.392000,211.320780 L 366.624000,198.607297 L 368.856000,221.701468 L 371.088000,205.641919 L 373.320000,189.959574 L 375.552000,174.963683 L 377.784000,188.847500 L 380.016000,195.779958 L 382.248000,198.027042 L 384.480000,169.171663 L 386.712000,182.671590 L 388.944000,161.517594 L 391.176000,152.194776 L 393.408000,150.776518 L 395.640000,182.516470 L 397.872000,209.564169 L 400.104000,196.400782 L 402.336000,219.266684 L 404.568000,211.532329 L 406.800000,201.060579 L 409.032000,197.520419 L 411.264000,190.153201 L 413.496000,216.939045 L 415.728000,239.815065 L 417.960000,223.103137 L 420.192000,206.506383 L 422.424000,190.452668 L 424.656000,175.202998 L 426.888000,188.916152 L 429.120000,204.140319 L 431.352000,183.493718 L 433.584000,173.878055 L 435.816000,163.254505 L 438.048000,180.292889 L 440.280000,197.908196 L 442.512000,215.398700 L 444.744000,195.897932 L 446.976000,178.268181 L 449.208000,170.748543 L 451.440000,189.580012 L 453.672000,208.091158 L 455.904000,225.872709 L 458.136000,242.680935 L 460.368000,249.982031 L 462.600000,250.936671 L 464.832000,228.156384 L 467.064000,235.510524 L 469.296000,245.311934 L 471.528000,248.013303 L 473.760000,226.443710 L 475.992000,215.019119 L 478.224000,238.482306 L 480.456000,230.591113 L 482.688000,227.883765 L 484.920000,248.209949 L 487.152000,238.018000 L 489.384000,233.614965 L 491.616000,261.088006 L 493.848000,274.757330 L 496.080000,251.112463 L 498.312000,229.247073 L 500.544000,237.161311 L 502.776000,210.861075 L 505.008000,224.834063 L 507.240000,230.807940 L 509.472000,211.837774 L 511.704000,194.100617 L 513.936000,177.660667 L 516.168000,170.926631 L 518.400000,190.260461 "   />
<path         
style="stroke: #ff0000;  stroke-width: 0.500000;  stroke-linejoin: miter;  stroke-linecap: square;   opacity: 1.000000;  fill: none;   clip-path:url(#-1250928610);  "
 d="M 72.000000,216.000000 L 74.232000,243.648000 L 76.464000,88.819200 L 78.696000,212.129280 L 80.928000,101.924352 L 83.160000,85.683917 L 85.392000,112.539525 L 87.624000,274.949573 L 89.856000,255.230615 L 92.088000,99.243554 L 94.320000,83.271198 L 96.552000,248.608079 L 98.784000,134.755271 L 101.016000,253.471744 L 103.248000,277.372569 L 105.480000,298.883312 L 107.712000,138.530981 L 109.944000,118.629883 L 112.176000,142.190895 L 114.408000,121.923805 L 116.640000,145.155425 L 118.872000,304.303882 L 121.104000,323.121494 L 123.336000,298.585345 L 125.568000,179.734810 L 127.800000,197.185329 L 130.032000,171.418796 L 132.264000,327.940917 L 134.496000,164.682825 L 136.728000,142.166542 L 138.960000,260.141888 L 141.192000,283.375699 L 143.424000,166.046129 L 145.656000,323.105517 L 147.888000,340.042965 L 150.120000,313.814668 L 152.352000,193.441202 L 154.584000,306.289081 L 156.816000,186.668173 L 159.048000,203.425356 L 161.280000,177.034820 L 163.512000,291.523338 L 165.744000,270.147004 L 167.976000,154.140304 L 170.208000,312.390274 L 172.440000,288.927246 L 174.672000,267.810522 L 176.904000,290.277469 L 179.136000,172.257723 L 181.368000,148.983950 L 183.600000,128.037555 L 185.832000,288.897800 L 188.064000,267.784020 L 190.296000,248.781618 L 192.528000,134.911456 L 194.760000,295.084310 L 196.992000,135.111879 L 199.224000,295.264691 L 201.456000,314.986222 L 203.688000,194.495600 L 205.920000,168.998040 L 208.152000,284.290236 L 210.384000,263.637212 L 212.616000,106.809491 L 214.848000,269.792542 L 217.080000,112.349288 L 219.312000,136.538359 L 221.544000,296.548523 L 223.776000,177.901671 L 226.008000,154.063504 L 228.240000,174.081153 L 230.472000,288.865038 L 232.704000,170.986534 L 234.936000,189.311881 L 237.168000,205.804693 L 239.400000,179.176223 L 241.632000,196.682601 L 243.864000,309.206341 L 246.096000,327.533707 L 248.328000,344.028336 L 250.560000,179.161503 L 252.792000,196.669352 L 255.024000,212.426417 L 257.256000,323.375775 L 259.488000,202.046198 L 261.720000,175.793578 L 263.952000,290.406220 L 266.184000,310.613598 L 268.416000,190.560238 L 270.648000,303.696215 L 272.880000,142.862593 L 275.112000,260.768334 L 277.344000,283.939500 L 279.576000,304.793550 L 281.808000,323.562195 L 284.040000,160.741976 L 286.272000,276.859778 L 288.504000,118.709800 L 290.736000,100.790820 L 292.968000,84.663738 L 295.200000,249.861364 L 297.432000,232.651228 L 299.664000,258.634105 L 301.896000,143.778695 L 304.128000,123.352825 L 306.360000,243.209543 L 308.592000,226.664588 L 310.824000,73.534130 L 313.056000,239.844717 L 315.288000,85.396245 L 317.520000,250.520620 L 319.752000,274.716558 L 321.984000,158.252903 L 324.216000,136.379612 L 326.448000,116.693651 L 328.680000,98.976286 L 330.912000,262.742657 L 333.144000,106.004392 L 335.376000,269.067952 L 337.608000,111.697157 L 339.840000,274.191442 L 342.072000,116.308297 L 344.304000,140.101468 L 346.536000,258.283321 L 348.768000,101.990989 L 351.000000,127.215890 L 353.232000,288.158301 L 355.464000,170.350471 L 357.696000,147.267424 L 359.928000,264.732681 L 362.160000,287.507413 L 364.392000,169.764672 L 366.624000,146.740205 L 368.856000,305.730184 L 371.088000,144.693166 L 373.320000,124.175849 L 375.552000,105.710264 L 377.784000,227.331238 L 380.016000,212.374114 L 382.248000,198.912703 L 384.480000,48.557432 L 386.712000,217.365689 L 388.944000,65.165120 L 391.176000,94.072608 L 393.408000,120.089347 L 395.640000,281.744413 L 397.872000,302.817971 L 400.104000,142.072174 L 402.336000,301.528957 L 404.568000,182.384061 L 406.800000,158.097655 L 409.032000,177.711890 L 411.264000,153.892701 L 413.496000,312.167431 L 415.728000,330.198687 L 417.960000,166.714819 L 420.192000,143.995337 L 422.424000,123.547803 L 424.656000,105.145023 L 426.888000,226.822521 L 429.120000,253.388269 L 431.352000,97.585442 L 433.584000,123.250897 L 435.816000,104.877808 L 438.048000,226.582027 L 440.280000,253.171824 L 442.512000,277.102642 L 444.744000,118.928378 L 446.976000,100.987540 L 449.208000,126.312786 L 451.440000,245.873507 L 453.672000,270.534157 L 455.904000,292.728741 L 458.136000,312.703867 L 460.368000,289.209480 L 462.600000,268.064532 L 464.832000,152.266079 L 467.064000,269.231471 L 469.296000,291.556324 L 471.528000,270.176692 L 473.760000,154.167022 L 475.992000,174.174320 L 478.224000,330.420888 L 480.456000,208.386799 L 482.688000,222.972119 L 484.920000,332.866907 L 487.152000,210.588217 L 489.384000,224.953395 L 491.616000,376.122056 L 493.848000,346.285850 L 496.080000,181.193265 L 498.312000,157.025938 L 500.544000,273.515345 L 502.776000,115.699810 L 505.008000,277.793829 L 507.240000,257.790446 L 509.472000,143.019402 L 511.704000,122.669461 L 513.936000,104.354515 L 516.168000,129.343064 L 518.400000,248.600757 "   />
<text style="font-size: 14.000000; font-family: Bitstream Vera Sans; font-style: Roman; fill: #000000;" x="19.200000" y="36.288000" >KalmanFilter on X0=1, P(V1=+-1)=P(W1=+-1)=1/2, N=201, a=0.9, e=0.3, d=1</text>
<g id="legend1">
<polygon         
style="stroke: #000000;  stroke-width: 1.000000;  stroke-linejoin: miter;  stroke-linecap: square;   opacity: 1.000000;  fill: #ffffff;   "
   points = "408.614400,93.488640 408.614400,50.112000 509.472000,50.112000 509.472000,93.488640"  />
<path         
style="stroke: #0000ff;  stroke-width: 0.500000;  stroke-linejoin: miter;  stroke-linecap: square;   opacity: 1.000000;  fill: none;   "
 d="M 418.819200,58.726720 L 426.259200,58.726720 L 433.699200,58.726720 L 441.139200,58.726720 "   />
<path         
style="stroke: #008000;  stroke-width: 0.500000;  stroke-linejoin: miter;  stroke-linecap: square;   opacity: 1.000000;  fill: none;   "
 d="M 418.819200,71.800320 L 426.259200,71.800320 L 433.699200,71.800320 L 441.139200,71.800320 "   />
<path         
style="stroke: #ff0000;  stroke-width: 0.500000;  stroke-linejoin: miter;  stroke-linecap: square;   opacity: 1.000000;  fill: none;   "
 d="M 418.819200,84.873920 L 426.259200,84.873920 L 433.699200,84.873920 L 441.139200,84.873920 "   />
<text style="font-size: 10.000000; font-family: Bitstream Vera Sans; font-style: Roman; fill: #000000;" x="450.067200" y="63.726720" >Xn_list</text>
<text style="font-size: 10.000000; font-family: Bitstream Vera Sans; font-style: Roman; fill: #000000;" x="450.067200" y="76.800320" >Xn_hat_list</text>
<text style="font-size: 10.000000; font-family: Bitstream Vera Sans; font-style: Roman; fill: #000000;" x="450.067200" y="89.873920" >Yn_list</text>
</g>
</g>
</g>
</svg>