<?xml version="1.0" standalone="no"?>
<!DOCTYPE svg PUBLIC "-//W3C//DTD SVG 1.0//EN"
"http://www.w3.org/TR/2001/REC-SVG-20010904/DTD/svg10.dtd">
<!-- Created with matplotlib (http://matplotlib.sourceforge.net/) -->
<svg
   xmlns="http://www.w3.org/2000/svg"
   xmlns:xlink="http://www.w3.org/1999/xlink"
   version="1.0"
   x="0.0"
   y="0.0"
   width="576.000000"
   height="432.000000"   
   id="svg1">
<g id="figure1">
<polygon         
style="stroke: #ffffff;  stroke-width: 1.000000;  stroke-linejoin: miter;  stroke-linecap: square;   opacity: 1.000000;  fill: #ffffff;   "
   points = "0.000000,432.000000 0.000000,0.000000 576.000000,0.000000 576.000000,432.000000"  />
<g id="axes1">
<polygon         
style="stroke: #000000;  stroke-width: 1.000000;  stroke-linejoin: miter;  stroke-linecap: square;   opacity: 1.000000;  fill: #ffffff;   "
   points = "72.000000,388.800000 72.000000,43.200000 518.400000,43.200000 518.400000,388.800000"  />
<g id="matplotlib.axis1">
<g id="xtick1">
<text style="font-size: 12.000000; font-family: Bitstream Vera Sans; font-style: Roman; fill: #000000;" x="69.000000" y="401.800000" >0</text>
</g>
<g id="xtick2">
<path         
style="stroke: #000000;  stroke-width: 0.500000;  stroke-linejoin: miter;  stroke-linecap: butt;   opacity: 1.000000;  fill: none;   "
 d="M 183.600000,388.800000 L 183.600000,384.800000"   />
<path         
style="stroke: #000000;  stroke-width: 0.500000;  stroke-linejoin: miter;  stroke-linecap: butt;   opacity: 1.000000;  fill: none;   "
 d="M 183.600000,388.800000 L 183.600000,384.800000"   />
<path         
style="stroke: #000000;  stroke-width: 0.500000;  stroke-linejoin: miter;  stroke-linecap: butt;   opacity: 1.000000;  fill: none;   "
 d="M 183.600000,47.200000 L 183.600000,43.200000"   />
<path         
style="stroke: #000000;  stroke-width: 0.500000;  stroke-linejoin: miter;  stroke-linecap: butt;   opacity: 1.000000;  fill: none;   "
 d="M 183.600000,47.200000 L 183.600000,43.200000"   />
<text style="font-size: 12.000000; font-family: Bitstream Vera Sans; font-style: Roman; fill: #000000;" x="176.600000" y="401.800000" >50</text>
</g>
<g id="xtick3">
<path         
style="stroke: #000000;  stroke-width: 0.500000;  stroke-linejoin: miter;  stroke-linecap: butt;   opacity: 1.000000;  fill: none;   "
 d="M 295.200000,388.800000 L 295.200000,384.800000"   />
<path         
style="stroke: #000000;  stroke-width: 0.500000;  stroke-linejoin: miter;  stroke-linecap: butt;   opacity: 1.000000;  fill: none;   "
 d="M 295.200000,388.800000 L 295.200000,384.800000"   />
<path         
style="stroke: #000000;  stroke-width: 0.500000;  stroke-linejoin: miter;  stroke-linecap: butt;   opacity: 1.000000;  fill: none;   "
 d="M 295.200000,47.200000 L 295.200000,43.200000"   />
<path         
style="stroke: #000000;  stroke-width: 0.500000;  stroke-linejoin: miter;  stroke-linecap: butt;   opacity: 1.000000;  fill: none;   "
 d="M 295.200000,47.200000 L 295.200000,43.200000"   />
<text style="font-size: 12.000000; font-family: Bitstream Vera Sans; font-style: Roman; fill: #000000;" x="284.200000" y="401.800000" >100</text>
</g>
<g id="xtick4">
<path         
style="stroke: #000000;  stroke-width: 0.500000;  stroke-linejoin: miter;  stroke-linecap: butt;   opacity: 1.000000;  fill: none;   "
 d="M 406.800000,388.800000 L 406.800000,384.800000"   />
<path         
style="stroke: #000000;  stroke-width: 0.500000;  stroke-linejoin: miter;  stroke-linecap: butt;   opacity: 1.000000;  fill: none;   "
 d="M 406.800000,388.800000 L 406.800000,384.800000"   />
<path         
style="stroke: #000000;  stroke-width: 0.500000;  stroke-linejoin: miter;  stroke-linecap: butt;   opacity: 1.000000;  fill: none;   "
 d="M 406.800000,47.200000 L 406.800000,43.200000"   />
<path         
style="stroke: #000000;  stroke-width: 0.500000;  stroke-linejoin: miter;  stroke-linecap: butt;   opacity: 1.000000;  fill: none;   "
 d="M 406.800000,47.200000 L 406.800000,43.200000"   />
<text style="font-size: 12.000000; font-family: Bitstream Vera Sans; font-style: Roman; fill: #000000;" x="395.800000" y="401.800000" >150</text>
</g>
<g id="xtick5">
<text style="font-size: 12.000000; font-family: Bitstream Vera Sans; font-style: Roman; fill: #000000;" x="507.400000" y="401.800000" >200</text>
</g>
<text style="font-size: 12.000000; font-family: Bitstream Vera Sans; font-style: Roman; fill: #000000;" x="292.200000" y="413.800000" >n</text>
</g>
<g id="matplotlib.axis2">
<g id="ytick1">
<path         
style="stroke: #000000;  stroke-width: 0.500000;  stroke-linejoin: miter;  stroke-linecap: butt;   opacity: 1.000000;  fill: none;   "
 d="M 72.000000,354.240000 L 76.000000,354.240000"   />
<path         
style="stroke: #000000;  stroke-width: 0.500000;  stroke-linejoin: miter;  stroke-linecap: butt;   opacity: 1.000000;  fill: none;   "
 d="M 72.000000,354.240000 L 76.000000,354.240000"   />
<path         
style="stroke: #000000;  stroke-width: 0.500000;  stroke-linejoin: miter;  stroke-linecap: butt;   opacity: 1.000000;  fill: none;   "
 d="M 514.400000,354.240000 L 518.400000,354.240000"   />
<path         
style="stroke: #000000;  stroke-width: 0.500000;  stroke-linejoin: miter;  stroke-linecap: butt;   opacity: 1.000000;  fill: none;   "
 d="M 514.400000,354.240000 L 518.400000,354.240000"   />
<text style="font-size: 12.000000; font-family: Bitstream Vera Sans; font-style: Roman; fill: #000000;" x="58.000000" y="358.740000" >-4</text>
</g>
<g id="ytick2">
<path         
style="stroke: #000000;  stroke-width: 0.500000;  stroke-linejoin: miter;  stroke-linecap: butt;   opacity: 1.000000;  fill: none;   "
 d="M 72.000000,285.120000 L 76.000000,285.120000"   />
<path         
style="stroke: #000000;  stroke-width: 0.500000;  stroke-linejoin: miter;  stroke-linecap: butt;   opacity: 1.000000;  fill: none;   "
 d="M 72.000000,285.120000 L 76.000000,285.120000"   />
<path         
style="stroke: #000000;  stroke-width: 0.500000;  stroke-linejoin: miter;  stroke-linecap: butt;   opacity: 1.000000;  fill: none;   "
 d="M 514.400000,285.120000 L 518.400000,285.120000"   />
<path         
style="stroke: #000000;  stroke-width: 0.500000;  stroke-linejoin: miter;  stroke-linecap: butt;   opacity: 1.000000;  fill: none;   "
 d="M 514.400000,285.120000 L 518.400000,285.120000"   />
<text style="font-size: 12.000000; font-family: Bitstream Vera Sans; font-style: Roman; fill: #000000;" x="57.953125" y="289.620000" >-2</text>
</g>
<g id="ytick3">
<path         
style="stroke: #000000;  stroke-width: 0.500000;  stroke-linejoin: miter;  stroke-linecap: butt;   opacity: 1.000000;  fill: none;   "
 d="M 72.000000,216.000000 L 76.000000,216.000000"   />
<path         
style="stroke: #000000;  stroke-width: 0.500000;  stroke-linejoin: miter;  stroke-linecap: butt;   opacity: 1.000000;  fill: none;   "
 d="M 72.000000,216.000000 L 76.000000,216.000000"   />
<path         
style="stroke: #000000;  stroke-width: 0.500000;  stroke-linejoin: miter;  stroke-linecap: butt;   opacity: 1.000000;  fill: none;   "
 d="M 514.400000,216.000000 L 518.400000,216.000000"   />
<path         
style="stroke: #000000;  stroke-width: 0.500000;  stroke-linejoin: miter;  stroke-linecap: butt;   opacity: 1.000000;  fill: none;   "
 d="M 514.400000,216.000000 L 518.400000,216.000000"   />
<text style="font-size: 12.000000; font-family: Bitstream Vera Sans; font-style: Roman; fill: #000000;" x="62.000000" y="220.500000" >0</text>
</g>
<g id="ytick4">
<path         
style="stroke: #000000;  stroke-width: 0.500000;  stroke-linejoin: miter;  stroke-linecap: butt;   opacity: 1.000000;  fill: none;   "
 d="M 72.000000,146.880000 L 76.000000,146.880000"   />
<path         
style="stroke: #000000;  stroke-width: 0.500000;  stroke-linejoin: miter;  stroke-linecap: butt;   opacity: 1.000000;  fill: none;   "
 d="M 72.000000,146.880000 L 76.000000,146.880000"   />
<path         
style="stroke: #000000;  stroke-width: 0.500000;  stroke-linejoin: miter;  stroke-linecap: butt;   opacity: 1.000000;  fill: none;   "
 d="M 514.400000,146.880000 L 518.400000,146.880000"   />
<path         
style="stroke: #000000;  stroke-width: 0.500000;  stroke-linejoin: miter;  stroke-linecap: butt;   opacity: 1.000000;  fill: none;   "
 d="M 514.400000,146.880000 L 518.400000,146.880000"   />
<text style="font-size: 12.000000; font-family: Bitstream Vera Sans; font-style: Roman; fill: #000000;" x="61.953125" y="151.380000" >2</text>
</g>
<g id="ytick5">
<path         
style="stroke: #000000;  stroke-width: 0.500000;  stroke-linejoin: miter;  stroke-linecap: butt;   opacity: 1.000000;  fill: none;   "
 d="M 72.000000,77.760000 L 76.000000,77.760000"   />
<path         
style="stroke: #000000;  stroke-width: 0.500000;  stroke-linejoin: miter;  stroke-linecap: butt;   opacity: 1.000000;  fill: none;   "
 d="M 72.000000,77.760000 L 76.000000,77.760000"   />
<path         
style="stroke: #000000;  stroke-width: 0.500000;  stroke-linejoin: miter;  stroke-linecap: butt;   opacity: 1.000000;  fill: none;   "
 d="M 514.400000,77.760000 L 518.400000,77.760000"   />
<path         
style="stroke: #000000;  stroke-width: 0.500000;  stroke-linejoin: miter;  stroke-linecap: butt;   opacity: 1.000000;  fill: none;   "
 d="M 514.400000,77.760000 L 518.400000,77.760000"   />
<text style="font-size: 12.000000; font-family: Bitstream Vera Sans; font-style: Roman; fill: #000000;" x="62.000000" y="82.260000" >4</text>
</g>
</g>

<defs>
    <clipPath id="-1250928610">
    <rect x="72.000000" y="43.200000" width="446.400000" height="345.600000"
    style="stroke: gray; fill: none;"/>
    </clipPath>
</defs>

<path         
style="stroke: #0000ff;  stroke-width: 0.500000;  stroke-linejoin: miter;  stroke-linecap: square;   opacity: 1.000000;  fill: none;   clip-path:url(#-1250928610);  "
 d="M 72.000000,239.402059 L 74.232000,259.541742 L 76.464000,258.082669 L 78.696000,243.006487 L 80.928000,242.518751 L 83.160000,232.115323 L 85.392000,238.264892 L 87.624000,235.260687 L 89.856000,232.096517 L 92.088000,223.862789 L 94.320000,209.639095 L 96.552000,219.672360 L 98.784000,212.292611 L 101.016000,208.179258 L 103.248000,200.635079 L 105.480000,199.371564 L 107.712000,199.760989 L 109.944000,195.885099 L 112.176000,205.372598 L 114.408000,205.749437 L 116.640000,219.377156 L 118.872000,211.820204 L 121.104000,194.782180 L 123.336000,198.959892 L 125.568000,227.013116 L 127.800000,222.378478 L 130.032000,224.854954 L 132.264000,229.869452 L 134.496000,225.878868 L 136.728000,212.215033 L 138.960000,195.375502 L 141.192000,186.036242 L 143.424000,160.766301 L 145.656000,169.259141 L 147.888000,173.511110 L 150.120000,182.204820 L 152.352000,210.450446 L 154.584000,216.165782 L 156.816000,215.238695 L 159.048000,210.398157 L 161.280000,210.090795 L 163.512000,202.102202 L 165.744000,205.165715 L 167.976000,207.935851 L 170.208000,224.027851 L 172.440000,225.882945 L 174.672000,217.620646 L 176.904000,228.850855 L 179.136000,221.711223 L 181.368000,224.566122 L 183.600000,220.857453 L 185.832000,220.564423 L 188.064000,206.358469 L 190.296000,192.915575 L 192.528000,198.427239 L 194.760000,214.732265 L 196.992000,208.873726 L 199.224000,207.150052 L 201.456000,195.673197 L 203.688000,208.411575 L 205.920000,212.251157 L 208.152000,208.813388 L 210.384000,218.133843 L 212.616000,220.693671 L 214.848000,212.579696 L 217.080000,211.736659 L 219.312000,216.178135 L 221.544000,213.494814 L 223.776000,205.846372 L 226.008000,218.257482 L 228.240000,223.437806 L 230.472000,223.106461 L 232.704000,221.522607 L 234.936000,208.927471 L 237.168000,227.161274 L 239.400000,228.920235 L 241.632000,232.781361 L 243.864000,242.291065 L 246.096000,247.131030 L 248.328000,254.637796 L 250.560000,240.579705 L 252.792000,241.226946 L 255.024000,251.868650 L 257.256000,240.803812 L 259.488000,213.045303 L 261.720000,224.579891 L 263.952000,215.139640 L 266.184000,219.152266 L 268.416000,222.762928 L 270.648000,239.898903 L 272.880000,225.819965 L 275.112000,231.643092 L 277.344000,225.520764 L 279.576000,218.183927 L 281.808000,222.156631 L 284.040000,200.922432 L 286.272000,204.528116 L 288.504000,202.550480 L 290.736000,211.084376 L 292.968000,197.850256 L 295.200000,185.615996 L 297.432000,187.216362 L 299.664000,174.211910 L 301.896000,174.942988 L 304.128000,198.451872 L 306.360000,190.081894 L 308.592000,192.572487 L 310.824000,188.010974 L 313.056000,183.097802 L 315.288000,195.277133 L 317.520000,215.567349 L 319.752000,204.128512 L 321.984000,181.095328 L 324.216000,174.772255 L 326.448000,189.789765 L 328.680000,208.819297 L 330.912000,201.289368 L 333.144000,198.410317 L 335.376000,190.809287 L 337.608000,180.300232 L 339.840000,185.739723 L 342.072000,177.999524 L 344.304000,172.742083 L 346.536000,168.023224 L 348.768000,168.408069 L 351.000000,172.050431 L 353.232000,174.907322 L 355.464000,190.615894 L 357.696000,200.374628 L 359.928000,210.096839 L 362.160000,214.949460 L 364.392000,222.776531 L 366.624000,217.580101 L 368.856000,228.744494 L 371.088000,227.739727 L 373.320000,229.707939 L 375.552000,222.446946 L 377.784000,220.776597 L 380.016000,238.828063 L 382.248000,249.888706 L 384.480000,245.318095 L 386.712000,236.635279 L 388.944000,231.154006 L 391.176000,244.493257 L 393.408000,242.871345 L 395.640000,243.657168 L 397.872000,232.814992 L 400.104000,250.684598 L 402.336000,255.605398 L 404.568000,234.730640 L 406.800000,231.057609 L 409.032000,243.694563 L 411.264000,246.428569 L 413.496000,256.562395 L 415.728000,248.847937 L 417.960000,247.338005 L 420.192000,255.722604 L 422.424000,242.560497 L 424.656000,246.991223 L 426.888000,246.124976 L 429.120000,266.936226 L 431.352000,258.200444 L 433.584000,243.498881 L 435.816000,238.552368 L 438.048000,239.137813 L 440.280000,244.004205 L 442.512000,234.225790 L 444.744000,216.355290 L 446.976000,208.322790 L 449.208000,209.290286 L 451.440000,211.857813 L 453.672000,198.413790 L 455.904000,221.784303 L 458.136000,221.116127 L 460.368000,236.814793 L 462.600000,238.353068 L 464.832000,240.346372 L 467.064000,233.198423 L 469.296000,234.383690 L 471.528000,237.811469 L 473.760000,243.443919 L 475.992000,227.122807 L 478.224000,221.556041 L 480.456000,224.328159 L 482.688000,199.252069 L 484.920000,183.183329 L 487.152000,205.650565 L 489.384000,213.784474 L 491.616000,225.777530 L 493.848000,223.948785 L 496.080000,223.321721 L 498.312000,217.213851 L 500.544000,200.432724 L 502.776000,212.673477 L 505.008000,222.255913 L 507.240000,212.282359 L 509.472000,205.803272 L 511.704000,195.245201 L 513.936000,177.008977 L 516.168000,166.871832 L 518.400000,170.013635 "   />
<path         
style="stroke: #008000;  stroke-width: 0.500000;  stroke-linejoin: miter;  stroke-linecap: square;   opacity: 1.000000;  fill: none;   clip-path:url(#-1250928610);  "
 d="M 72.000000,217.005489 L 74.232000,229.616981 L 76.464000,250.220224 L 78.696000,249.249920 L 80.928000,234.896819 L 83.160000,233.502943 L 85.392000,235.206977 L 87.624000,229.100772 L 89.856000,234.088320 L 92.088000,230.282055 L 94.320000,235.947225 L 96.552000,231.153933 L 98.784000,230.320968 L 101.016000,223.579277 L 103.248000,210.669748 L 105.480000,220.040436 L 107.712000,212.788106 L 109.944000,205.065568 L 112.176000,208.229325 L 114.408000,207.837619 L 116.640000,209.109264 L 118.872000,219.338750 L 121.104000,201.428856 L 123.336000,199.972902 L 125.568000,211.440217 L 127.800000,209.649767 L 130.032000,206.103253 L 132.264000,198.214123 L 134.496000,194.055782 L 136.728000,203.946707 L 138.960000,207.775828 L 141.192000,190.381398 L 143.424000,195.511339 L 145.656000,188.451425 L 147.888000,164.182924 L 150.120000,166.203599 L 152.352000,184.828770 L 154.584000,180.872550 L 156.816000,185.697610 L 159.048000,180.132437 L 161.280000,194.637844 L 163.512000,213.350502 L 165.744000,221.131377 L 167.976000,216.271950 L 170.208000,205.048506 L 172.440000,221.721096 L 174.672000,227.570773 L 176.904000,229.627566 L 179.136000,229.796784 L 181.368000,237.900600 L 183.600000,231.594972 L 185.832000,226.099138 L 188.064000,219.011511 L 190.296000,202.217230 L 192.528000,197.939425 L 194.760000,206.548142 L 196.992000,213.945853 L 199.224000,211.309900 L 201.456000,201.627393 L 203.688000,190.534711 L 205.920000,198.094127 L 208.152000,197.220526 L 210.384000,218.186051 L 212.616000,218.035531 L 214.848000,225.705643 L 217.080000,224.010747 L 219.312000,207.425075 L 221.544000,206.684808 L 223.776000,211.538889 L 226.008000,216.335306 L 228.240000,217.441145 L 230.472000,217.237216 L 232.704000,204.329586 L 234.936000,219.771711 L 237.168000,228.849641 L 239.400000,231.964345 L 241.632000,223.080318 L 243.864000,229.506059 L 246.096000,238.037301 L 248.328000,246.346218 L 250.560000,243.959875 L 252.792000,248.685861 L 255.024000,250.762687 L 257.256000,245.671843 L 259.488000,240.584373 L 261.720000,231.533534 L 263.952000,221.388014 L 266.184000,212.055726 L 268.416000,214.828088 L 270.648000,215.615843 L 272.880000,221.934099 L 275.112000,215.494718 L 277.344000,222.969163 L 279.576000,221.978635 L 281.808000,212.397861 L 284.040000,216.490277 L 286.272000,204.408490 L 288.504000,213.290671 L 290.736000,204.590741 L 292.968000,208.679175 L 295.200000,214.103458 L 297.432000,207.005087 L 299.664000,194.563547 L 301.896000,179.950251 L 304.128000,197.056167 L 306.360000,198.982316 L 308.592000,201.574777 L 310.824000,201.656375 L 313.056000,186.810366 L 315.288000,188.897421 L 317.520000,197.015466 L 319.752000,211.977005 L 321.984000,205.744636 L 324.216000,207.311281 L 326.448000,201.094402 L 328.680000,197.166594 L 330.912000,192.681303 L 333.144000,186.702789 L 335.376000,187.775531 L 337.608000,186.032629 L 339.840000,189.843012 L 342.072000,186.667216 L 344.304000,197.819403 L 346.536000,184.257101 L 348.768000,178.713166 L 351.000000,169.905562 L 353.232000,171.147994 L 355.464000,180.636454 L 357.696000,193.114520 L 359.928000,203.241789 L 362.160000,210.414549 L 364.392000,224.290158 L 366.624000,220.244510 L 368.856000,235.673265 L 371.088000,232.566165 L 373.320000,217.102308 L 375.552000,225.207358 L 377.784000,223.812392 L 380.016000,233.127047 L 382.248000,231.019877 L 384.480000,231.316004 L 386.712000,238.227816 L 388.944000,227.148769 L 391.176000,235.175175 L 393.408000,229.917826 L 395.640000,225.745906 L 397.872000,228.593837 L 400.104000,227.115746 L 402.336000,238.769881 L 404.568000,238.976040 L 406.800000,236.931180 L 409.032000,238.947284 L 411.264000,244.535743 L 413.496000,223.930478 L 415.728000,223.154369 L 417.960000,231.807487 L 420.192000,259.742508 L 422.424000,256.249860 L 424.656000,251.318365 L 426.888000,251.487256 L 429.120000,248.804198 L 431.352000,254.448858 L 433.584000,242.761368 L 435.816000,229.537121 L 438.048000,229.981134 L 440.280000,211.627656 L 442.512000,223.724741 L 444.744000,223.347148 L 446.976000,237.765271 L 449.208000,218.827321 L 451.440000,218.541922 L 453.672000,225.569583 L 455.904000,217.083631 L 458.136000,213.526827 L 460.368000,223.410158 L 462.600000,216.824381 L 464.832000,222.177234 L 467.064000,218.968308 L 469.296000,222.341375 L 471.528000,216.153224 L 473.760000,212.793750 L 475.992000,213.634557 L 478.224000,223.593590 L 480.456000,227.816844 L 482.688000,218.761654 L 484.920000,213.868078 L 487.152000,225.582942 L 489.384000,226.265938 L 491.616000,228.233112 L 493.848000,223.201662 L 496.080000,225.687188 L 498.312000,217.978956 L 500.544000,215.275571 L 502.776000,205.474267 L 505.008000,204.841822 L 507.240000,205.509530 L 509.472000,207.197673 L 511.704000,208.207467 L 513.936000,203.207957 L 516.168000,198.618451 L 518.400000,195.771685 "   />
<path         
style="stroke: #ff0000;  stroke-width: 0.500000;  stroke-linejoin: miter;  stroke-linecap: square;   opacity: 1.000000;  fill: none;   clip-path:url(#-1250928610);  "
 d="M 72.000000,228.177589 L 74.232000,245.971436 L 76.464000,299.663177 L 78.696000,256.478832 L 80.928000,197.531226 L 83.160000,235.308597 L 85.392000,248.266857 L 87.624000,212.967313 L 89.856000,258.606817 L 92.088000,222.465314 L 94.320000,263.780155 L 96.552000,220.157908 L 98.784000,233.004223 L 101.016000,202.694768 L 103.248000,162.864280 L 105.480000,254.811922 L 107.712000,185.842418 L 109.944000,173.415418 L 112.176000,216.375624 L 114.408000,203.238685 L 116.640000,210.901221 L 118.872000,256.878943 L 121.104000,132.269607 L 123.336000,188.510367 L 125.568000,250.256128 L 127.800000,200.810370 L 130.032000,189.649455 L 132.264000,163.277203 L 134.496000,170.694751 L 136.728000,234.231431 L 138.960000,218.100103 L 141.192000,118.700505 L 143.424000,205.616400 L 145.656000,152.609579 L 147.888000,57.849573 L 150.120000,153.765353 L 152.352000,238.522135 L 154.584000,153.039876 L 156.816000,190.861398 L 159.048000,146.310626 L 161.280000,237.601292 L 163.512000,278.576615 L 165.744000,250.705550 L 167.976000,199.169875 L 170.208000,160.992744 L 172.440000,283.016272 L 174.672000,252.839657 L 176.904000,242.273722 L 179.136000,235.824902 L 181.368000,275.216898 L 183.600000,215.400755 L 185.832000,210.610174 L 188.064000,195.096512 L 190.296000,137.318941 L 192.528000,175.683489 L 194.760000,233.315708 L 196.992000,239.335691 L 199.224000,200.129492 L 201.456000,161.682514 L 203.688000,141.231040 L 205.920000,217.819177 L 208.152000,186.737296 L 210.384000,293.293150 L 212.616000,218.303438 L 214.848000,256.687477 L 217.080000,221.160595 L 219.312000,145.314768 L 221.544000,200.397834 L 223.776000,226.973651 L 226.008000,233.453186 L 228.240000,221.924414 L 230.472000,217.001857 L 232.704000,154.026593 L 234.936000,275.942281 L 237.168000,266.054218 L 239.400000,249.276457 L 241.632000,194.404605 L 243.864000,257.576511 L 246.096000,276.921069 L 248.328000,287.712098 L 250.560000,246.510765 L 252.792000,278.283838 L 255.024000,271.796175 L 257.256000,239.318703 L 259.488000,232.241330 L 261.720000,205.593300 L 263.952000,187.578974 L 266.184000,177.454514 L 268.416000,224.184947 L 270.648000,218.254422 L 272.880000,246.644445 L 275.112000,192.491590 L 277.344000,252.181297 L 279.576000,220.823311 L 281.808000,177.051296 L 284.040000,231.176000 L 286.272000,157.061170 L 288.504000,243.679774 L 290.736000,169.291580 L 292.968000,220.277229 L 295.200000,232.566651 L 297.432000,178.327667 L 299.664000,142.068347 L 301.896000,114.013898 L 304.128000,250.180588 L 306.360000,199.107313 L 308.592000,205.079535 L 310.824000,196.301317 L 313.056000,122.749250 L 315.288000,185.623972 L 317.520000,218.294397 L 319.752000,263.378522 L 321.984000,179.638093 L 324.216000,209.440471 L 326.448000,173.212907 L 328.680000,175.846030 L 330.912000,167.621577 L 333.144000,154.002525 L 335.376000,180.468562 L 337.608000,168.068586 L 339.840000,193.044598 L 342.072000,163.878448 L 344.304000,230.159724 L 346.536000,123.737410 L 348.768000,144.408100 L 351.000000,120.576927 L 353.232000,157.899247 L 355.464000,200.323621 L 357.696000,228.298971 L 359.928000,234.086125 L 362.160000,233.618223 L 364.392000,276.691051 L 366.624000,207.587486 L 368.856000,298.053541 L 371.088000,228.081304 L 373.320000,162.772641 L 375.552000,257.533403 L 377.784000,221.946359 L 380.016000,272.853058 L 382.248000,229.467710 L 384.480000,238.391349 L 386.712000,271.451527 L 388.944000,192.300533 L 391.176000,271.144918 L 393.408000,216.776029 L 395.640000,214.806435 L 397.872000,243.634952 L 400.104000,226.255163 L 402.336000,289.001262 L 404.568000,248.746899 L 406.800000,237.925694 L 409.032000,255.116529 L 411.264000,275.555044 L 413.496000,154.079920 L 415.728000,223.221019 L 417.960000,268.671513 L 420.192000,375.883171 L 422.424000,259.718851 L 424.656000,247.751373 L 426.888000,266.049128 L 429.120000,252.210486 L 431.352000,289.567868 L 433.584000,211.901756 L 435.816000,188.031700 L 438.048000,237.054944 L 440.280000,144.910531 L 442.512000,269.604717 L 444.744000,224.900953 L 446.976000,297.389690 L 449.208000,152.873332 L 451.440000,218.531427 L 453.672000,254.222716 L 455.904000,187.458033 L 458.136000,199.957669 L 460.368000,261.326597 L 462.600000,193.826019 L 464.832000,243.564388 L 467.064000,208.772265 L 469.296000,236.781942 L 471.528000,194.298910 L 473.760000,199.634955 L 475.992000,215.681407 L 478.224000,261.850299 L 480.456000,247.422770 L 482.688000,187.780448 L 484.920000,195.699176 L 487.152000,270.840503 L 489.384000,232.724197 L 491.616000,240.013195 L 493.848000,208.217139 L 496.080000,238.301162 L 498.312000,191.459862 L 500.544000,205.416800 L 502.776000,166.622375 L 505.008000,198.211497 L 507.240000,203.746277 L 509.472000,209.712430 L 511.704000,208.717276 L 513.936000,180.469288 L 516.168000,175.525849 L 518.400000,177.730627 "   />
<text style="font-size: 14.000000; font-family: Bitstream Vera Sans; font-style: Roman; fill: #000000;" x="79.200000" y="36.288000" >KalmanFilter on X0, V1, W1~N(0,1), N=201, a=0.9, e=0.3, d=1</text>
<g id="legend1">
<polygon         
style="stroke: #000000;  stroke-width: 1.000000;  stroke-linejoin: miter;  stroke-linecap: square;   opacity: 1.000000;  fill: #ffffff;   "
   points = "408.614400,93.488640 408.614400,50.112000 509.472000,50.112000 509.472000,93.488640"  />
<path         
style="stroke: #0000ff;  stroke-width: 0.500000;  stroke-linejoin: miter;  stroke-linecap: square;   opacity: 1.000000;  fill: none;   "
 d="M 418.819200,58.726720 L 426.259200,58.726720 L 433.699200,58.726720 L 441.139200,58.726720 "   />
<path         
style="stroke: #008000;  stroke-width: 0.500000;  stroke-linejoin: miter;  stroke-linecap: square;   opacity: 1.000000;  fill: none;   "
 d="M 418.819200,71.800320 L 426.259200,71.800320 L 433.699200,71.800320 L 441.139200,71.800320 "   />
<path         
style="stroke: #ff0000;  stroke-width: 0.500000;  stroke-linejoin: miter;  stroke-linecap: square;   opacity: 1.000000;  fill: none;   "
 d="M 418.819200,84.873920 L 426.259200,84.873920 L 433.699200,84.873920 L 441.139200,84.873920 "   />
<text style="font-size: 10.000000; font-family: Bitstream Vera Sans; font-style: Roman; fill: #000000;" x="450.067200" y="63.726720" >Xn_list</text>
<text style="font-size: 10.000000; font-family: Bitstream Vera Sans; font-style: Roman; fill: #000000;" x="450.067200" y="76.800320" >Xn_hat_list</text>
<text style="font-size: 10.000000; font-family: Bitstream Vera Sans; font-style: Roman; fill: #000000;" x="450.067200" y="89.873920" >Yn_list</text>
</g>
</g>
</g>
</svg>