<?xml version="1.0" standalone="no"?>
<!DOCTYPE svg PUBLIC "-//W3C//DTD SVG 1.0//EN"
"http://www.w3.org/TR/2001/REC-SVG-20010904/DTD/svg10.dtd">
<!-- Created with matplotlib (http://matplotlib.sourceforge.net/) -->
<svg
   xmlns="http://www.w3.org/2000/svg"
   xmlns:xlink="http://www.w3.org/1999/xlink"
   version="1.0"
   x="0.0"
   y="0.0"
   width="576.000000"
   height="432.000000"   
   id="svg1">
<g id="figure1">
<polygon         
style="stroke: #ffffff;  stroke-width: 1.000000;  stroke-linejoin: miter;  stroke-linecap: square;   opacity: 1.000000;  fill: #ffffff;   "
   points = "0.000000,432.000000 0.000000,0.000000 576.000000,0.000000 576.000000,432.000000"  />
<g id="axes1">
<polygon         
style="stroke: #000000;  stroke-width: 1.000000;  stroke-linejoin: miter;  stroke-linecap: square;   opacity: 1.000000;  fill: #ffffff;   "
   points = "72.000000,388.800000 72.000000,43.200000 518.400000,43.200000 518.400000,388.800000"  />
<g id="matplotlib.axis1">
<g id="xtick1">
<text style="font-size: 12.000000; font-family: Bitstream Vera Sans; font-style: Roman; fill: #000000;" x="69.000000" y="401.800000" >0</text>
</g>
<g id="xtick2">
<path         
style="stroke: #000000;  stroke-width: 0.500000;  stroke-linejoin: miter;  stroke-linecap: butt;   opacity: 1.000000;  fill: none;   "
 d="M 183.600000,388.800000 L 183.600000,384.800000"   />
<path         
style="stroke: #000000;  stroke-width: 0.500000;  stroke-linejoin: miter;  stroke-linecap: butt;   opacity: 1.000000;  fill: none;   "
 d="M 183.600000,388.800000 L 183.600000,384.800000"   />
<path         
style="stroke: #000000;  stroke-width: 0.500000;  stroke-linejoin: miter;  stroke-linecap: butt;   opacity: 1.000000;  fill: none;   "
 d="M 183.600000,47.200000 L 183.600000,43.200000"   />
<path         
style="stroke: #000000;  stroke-width: 0.500000;  stroke-linejoin: miter;  stroke-linecap: butt;   opacity: 1.000000;  fill: none;   "
 d="M 183.600000,47.200000 L 183.600000,43.200000"   />
<text style="font-size: 12.000000; font-family: Bitstream Vera Sans; font-style: Roman; fill: #000000;" x="176.600000" y="401.800000" >50</text>
</g>
<g id="xtick3">
<path         
style="stroke: #000000;  stroke-width: 0.500000;  stroke-linejoin: miter;  stroke-linecap: butt;   opacity: 1.000000;  fill: none;   "
 d="M 295.200000,388.800000 L 295.200000,384.800000"   />
<path         
style="stroke: #000000;  stroke-width: 0.500000;  stroke-linejoin: miter;  stroke-linecap: butt;   opacity: 1.000000;  fill: none;   "
 d="M 295.200000,388.800000 L 295.200000,384.800000"   />
<path         
style="stroke: #000000;  stroke-width: 0.500000;  stroke-linejoin: miter;  stroke-linecap: butt;   opacity: 1.000000;  fill: none;   "
 d="M 295.200000,47.200000 L 295.200000,43.200000"   />
<path         
style="stroke: #000000;  stroke-width: 0.500000;  stroke-linejoin: miter;  stroke-linecap: butt;   opacity: 1.000000;  fill: none;   "
 d="M 295.200000,47.200000 L 295.200000,43.200000"   />
<text style="font-size: 12.000000; font-family: Bitstream Vera Sans; font-style: Roman; fill: #000000;" x="284.200000" y="401.800000" >100</text>
</g>
<g id="xtick4">
<path         
style="stroke: #000000;  stroke-width: 0.500000;  stroke-linejoin: miter;  stroke-linecap: butt;   opacity: 1.000000;  fill: none;   "
 d="M 406.800000,388.800000 L 406.800000,384.800000"   />
<path         
style="stroke: #000000;  stroke-width: 0.500000;  stroke-linejoin: miter;  stroke-linecap: butt;   opacity: 1.000000;  fill: none;   "
 d="M 406.800000,388.800000 L 406.800000,384.800000"   />
<path         
style="stroke: #000000;  stroke-width: 0.500000;  stroke-linejoin: miter;  stroke-linecap: butt;   opacity: 1.000000;  fill: none;   "
 d="M 406.800000,47.200000 L 406.800000,43.200000"   />
<path         
style="stroke: #000000;  stroke-width: 0.500000;  stroke-linejoin: miter;  stroke-linecap: butt;   opacity: 1.000000;  fill: none;   "
 d="M 406.800000,47.200000 L 406.800000,43.200000"   />
<text style="font-size: 12.000000; font-family: Bitstream Vera Sans; font-style: Roman; fill: #000000;" x="395.800000" y="401.800000" >150</text>
</g>
<g id="xtick5">
<text style="font-size: 12.000000; font-family: Bitstream Vera Sans; font-style: Roman; fill: #000000;" x="507.400000" y="401.800000" >200</text>
</g>
<text style="font-size: 12.000000; font-family: Bitstream Vera Sans; font-style: Roman; fill: #000000;" x="292.200000" y="413.800000" >n</text>
</g>
<g id="matplotlib.axis2">
<g id="ytick1">
<text style="font-size: 12.000000; font-family: Bitstream Vera Sans; font-style: Roman; fill: #000000;" x="58.000000" y="393.300000" >-6</text>
</g>
<g id="ytick2">
<path         
style="stroke: #000000;  stroke-width: 0.500000;  stroke-linejoin: miter;  stroke-linecap: butt;   opacity: 1.000000;  fill: none;   "
 d="M 72.000000,331.200000 L 76.000000,331.200000"   />
<path         
style="stroke: #000000;  stroke-width: 0.500000;  stroke-linejoin: miter;  stroke-linecap: butt;   opacity: 1.000000;  fill: none;   "
 d="M 72.000000,331.200000 L 76.000000,331.200000"   />
<path         
style="stroke: #000000;  stroke-width: 0.500000;  stroke-linejoin: miter;  stroke-linecap: butt;   opacity: 1.000000;  fill: none;   "
 d="M 514.400000,331.200000 L 518.400000,331.200000"   />
<path         
style="stroke: #000000;  stroke-width: 0.500000;  stroke-linejoin: miter;  stroke-linecap: butt;   opacity: 1.000000;  fill: none;   "
 d="M 514.400000,331.200000 L 518.400000,331.200000"   />
<text style="font-size: 12.000000; font-family: Bitstream Vera Sans; font-style: Roman; fill: #000000;" x="58.000000" y="335.700000" >-4</text>
</g>
<g id="ytick3">
<path         
style="stroke: #000000;  stroke-width: 0.500000;  stroke-linejoin: miter;  stroke-linecap: butt;   opacity: 1.000000;  fill: none;   "
 d="M 72.000000,273.600000 L 76.000000,273.600000"   />
<path         
style="stroke: #000000;  stroke-width: 0.500000;  stroke-linejoin: miter;  stroke-linecap: butt;   opacity: 1.000000;  fill: none;   "
 d="M 72.000000,273.600000 L 76.000000,273.600000"   />
<path         
style="stroke: #000000;  stroke-width: 0.500000;  stroke-linejoin: miter;  stroke-linecap: butt;   opacity: 1.000000;  fill: none;   "
 d="M 514.400000,273.600000 L 518.400000,273.600000"   />
<path         
style="stroke: #000000;  stroke-width: 0.500000;  stroke-linejoin: miter;  stroke-linecap: butt;   opacity: 1.000000;  fill: none;   "
 d="M 514.400000,273.600000 L 518.400000,273.600000"   />
<text style="font-size: 12.000000; font-family: Bitstream Vera Sans; font-style: Roman; fill: #000000;" x="57.953125" y="278.100000" >-2</text>
</g>
<g id="ytick4">
<path         
style="stroke: #000000;  stroke-width: 0.500000;  stroke-linejoin: miter;  stroke-linecap: butt;   opacity: 1.000000;  fill: none;   "
 d="M 72.000000,216.000000 L 76.000000,216.000000"   />
<path         
style="stroke: #000000;  stroke-width: 0.500000;  stroke-linejoin: miter;  stroke-linecap: butt;   opacity: 1.000000;  fill: none;   "
 d="M 72.000000,216.000000 L 76.000000,216.000000"   />
<path         
style="stroke: #000000;  stroke-width: 0.500000;  stroke-linejoin: miter;  stroke-linecap: butt;   opacity: 1.000000;  fill: none;   "
 d="M 514.400000,216.000000 L 518.400000,216.000000"   />
<path         
style="stroke: #000000;  stroke-width: 0.500000;  stroke-linejoin: miter;  stroke-linecap: butt;   opacity: 1.000000;  fill: none;   "
 d="M 514.400000,216.000000 L 518.400000,216.000000"   />
<text style="font-size: 12.000000; font-family: Bitstream Vera Sans; font-style: Roman; fill: #000000;" x="62.000000" y="220.500000" >0</text>
</g>
<g id="ytick5">
<path         
style="stroke: #000000;  stroke-width: 0.500000;  stroke-linejoin: miter;  stroke-linecap: butt;   opacity: 1.000000;  fill: none;   "
 d="M 72.000000,158.400000 L 76.000000,158.400000"   />
<path         
style="stroke: #000000;  stroke-width: 0.500000;  stroke-linejoin: miter;  stroke-linecap: butt;   opacity: 1.000000;  fill: none;   "
 d="M 72.000000,158.400000 L 76.000000,158.400000"   />
<path         
style="stroke: #000000;  stroke-width: 0.500000;  stroke-linejoin: miter;  stroke-linecap: butt;   opacity: 1.000000;  fill: none;   "
 d="M 514.400000,158.400000 L 518.400000,158.400000"   />
<path         
style="stroke: #000000;  stroke-width: 0.500000;  stroke-linejoin: miter;  stroke-linecap: butt;   opacity: 1.000000;  fill: none;   "
 d="M 514.400000,158.400000 L 518.400000,158.400000"   />
<text style="font-size: 12.000000; font-family: Bitstream Vera Sans; font-style: Roman; fill: #000000;" x="61.953125" y="162.900000" >2</text>
</g>
<g id="ytick6">
<path         
style="stroke: #000000;  stroke-width: 0.500000;  stroke-linejoin: miter;  stroke-linecap: butt;   opacity: 1.000000;  fill: none;   "
 d="M 72.000000,100.800000 L 76.000000,100.800000"   />
<path         
style="stroke: #000000;  stroke-width: 0.500000;  stroke-linejoin: miter;  stroke-linecap: butt;   opacity: 1.000000;  fill: none;   "
 d="M 72.000000,100.800000 L 76.000000,100.800000"   />
<path         
style="stroke: #000000;  stroke-width: 0.500000;  stroke-linejoin: miter;  stroke-linecap: butt;   opacity: 1.000000;  fill: none;   "
 d="M 514.400000,100.800000 L 518.400000,100.800000"   />
<path         
style="stroke: #000000;  stroke-width: 0.500000;  stroke-linejoin: miter;  stroke-linecap: butt;   opacity: 1.000000;  fill: none;   "
 d="M 514.400000,100.800000 L 518.400000,100.800000"   />
<text style="font-size: 12.000000; font-family: Bitstream Vera Sans; font-style: Roman; fill: #000000;" x="62.000000" y="105.300000" >4</text>
</g>
<g id="ytick7">
<text style="font-size: 12.000000; font-family: Bitstream Vera Sans; font-style: Roman; fill: #000000;" x="62.000000" y="47.700000" >6</text>
</g>
</g>

<defs>
    <clipPath id="-1250928610">
    <rect x="72.000000" y="43.200000" width="446.400000" height="345.600000"
    style="stroke: gray; fill: none;"/>
    </clipPath>
</defs>

<path         
style="stroke: #0000ff;  stroke-width: 0.500000;  stroke-linejoin: miter;  stroke-linecap: square;   opacity: 1.000000;  fill: none;   clip-path:url(#-1250928610);  "
 d="M 72.000000,256.790854 L 74.232000,262.669883 L 76.464000,263.520133 L 78.696000,234.486841 L 80.928000,222.987688 L 83.160000,208.824763 L 85.392000,194.960565 L 87.624000,175.299260 L 89.856000,206.048085 L 92.088000,262.164322 L 94.320000,233.723290 L 96.552000,246.881810 L 98.784000,231.393507 L 101.016000,255.153696 L 103.248000,234.702838 L 105.480000,219.533785 L 107.712000,235.473748 L 109.944000,239.510630 L 112.176000,219.036506 L 114.408000,227.050854 L 116.640000,239.333428 L 118.872000,215.214085 L 121.104000,248.278530 L 123.336000,204.858164 L 125.568000,156.398848 L 127.800000,191.720738 L 130.032000,198.133488 L 132.264000,199.684429 L 134.496000,197.149859 L 136.728000,210.348208 L 138.960000,195.236172 L 141.192000,182.636830 L 143.424000,195.442271 L 145.656000,202.304889 L 147.888000,248.456507 L 150.120000,266.771912 L 152.352000,240.877098 L 154.584000,253.783005 L 156.816000,237.333186 L 159.048000,262.647985 L 161.280000,200.442663 L 163.512000,230.194931 L 165.744000,273.694432 L 167.976000,261.315490 L 170.208000,215.743506 L 172.440000,220.848244 L 174.672000,220.247674 L 176.904000,213.214532 L 179.136000,164.848179 L 181.368000,186.896070 L 183.600000,177.625986 L 185.832000,195.986461 L 188.064000,192.845199 L 190.296000,207.067092 L 192.528000,184.757293 L 194.760000,199.927316 L 196.992000,208.383118 L 199.224000,195.304792 L 201.456000,156.913037 L 203.688000,177.746400 L 205.920000,174.699644 L 208.152000,236.222088 L 210.384000,245.075544 L 212.616000,268.191641 L 214.848000,240.122598 L 217.080000,234.747093 L 219.312000,215.256713 L 221.544000,235.959143 L 223.776000,193.112469 L 226.008000,211.515490 L 228.240000,218.564935 L 230.472000,208.055814 L 232.704000,183.041801 L 234.936000,208.494998 L 237.168000,193.727551 L 239.400000,221.792889 L 241.632000,208.163116 L 243.864000,179.634484 L 246.096000,178.548359 L 248.328000,179.400698 L 250.560000,185.611897 L 252.792000,140.061706 L 255.024000,162.301281 L 257.256000,144.071293 L 259.488000,130.334272 L 261.720000,140.075762 L 263.952000,186.363536 L 266.184000,172.024883 L 268.416000,178.137396 L 270.648000,162.227308 L 272.880000,175.000047 L 275.112000,224.409306 L 277.344000,168.574789 L 279.576000,199.232722 L 281.808000,220.952002 L 284.040000,231.168997 L 286.272000,254.462545 L 288.504000,258.905862 L 290.736000,227.102156 L 292.968000,213.157157 L 295.200000,222.711676 L 297.432000,221.783219 L 299.664000,280.333248 L 301.896000,269.569853 L 304.128000,219.512638 L 306.360000,290.040255 L 308.592000,295.313811 L 310.824000,309.227939 L 313.056000,253.951432 L 315.288000,254.386420 L 317.520000,221.367277 L 319.752000,198.749227 L 321.984000,194.333124 L 324.216000,240.344879 L 326.448000,215.650762 L 328.680000,246.330505 L 330.912000,212.819814 L 333.144000,184.186699 L 335.376000,172.203125 L 337.608000,173.360457 L 339.840000,208.674360 L 342.072000,231.293168 L 344.304000,259.817132 L 346.536000,244.717938 L 348.768000,226.493345 L 351.000000,218.252551 L 353.232000,231.557449 L 355.464000,200.358287 L 357.696000,212.960179 L 359.928000,211.632161 L 362.160000,179.267962 L 364.392000,181.397458 L 366.624000,187.449303 L 368.856000,151.033848 L 371.088000,192.471213 L 373.320000,204.684858 L 375.552000,191.742103 L 377.784000,219.373517 L 380.016000,187.779629 L 382.248000,193.217660 L 384.480000,214.603656 L 386.712000,240.613737 L 388.944000,227.038824 L 391.176000,261.085818 L 393.408000,251.722473 L 395.640000,232.220654 L 397.872000,246.803262 L 400.104000,238.128778 L 402.336000,210.197575 L 404.568000,236.657237 L 406.800000,221.431099 L 409.032000,240.917488 L 411.264000,207.450295 L 413.496000,213.458911 L 415.728000,267.429867 L 417.960000,207.451592 L 420.192000,200.958986 L 422.424000,210.408272 L 424.656000,186.396886 L 426.888000,162.258051 L 429.120000,168.162517 L 431.352000,180.827633 L 433.584000,204.963109 L 435.816000,217.865889 L 438.048000,230.607656 L 440.280000,179.523702 L 442.512000,179.886889 L 444.744000,211.901757 L 446.976000,189.113154 L 449.208000,157.552120 L 451.440000,162.903004 L 453.672000,164.000862 L 455.904000,185.739970 L 458.136000,181.767702 L 460.368000,162.948610 L 462.600000,214.086631 L 464.832000,187.280292 L 467.064000,203.883213 L 469.296000,151.634784 L 471.528000,179.721943 L 473.760000,148.303438 L 475.992000,164.858336 L 478.224000,165.733608 L 480.456000,192.865808 L 482.688000,242.114325 L 484.920000,253.732556 L 487.152000,237.012516 L 489.384000,265.176433 L 491.616000,242.284310 L 493.848000,232.731581 L 496.080000,202.640290 L 498.312000,222.139114 L 500.544000,233.589192 L 502.776000,191.649984 L 505.008000,214.059975 L 507.240000,203.324559 L 509.472000,174.364369 L 511.704000,170.430676 L 513.936000,202.338944 L 516.168000,205.606798 L 518.400000,226.208209 "   />
<path         
style="stroke: #008000;  stroke-width: 0.500000;  stroke-linejoin: miter;  stroke-linecap: square;   opacity: 1.000000;  fill: none;   clip-path:url(#-1250928610);  "
 d="M 72.000000,203.665685 L 74.232000,221.307180 L 76.464000,200.269012 L 78.696000,217.832609 L 80.928000,216.525171 L 83.160000,206.215381 L 85.392000,200.851980 L 87.624000,203.068194 L 89.856000,207.852960 L 92.088000,235.727528 L 94.320000,207.265388 L 96.552000,213.920343 L 98.784000,204.840717 L 101.016000,215.329562 L 103.248000,220.837863 L 105.480000,214.378964 L 107.712000,204.727885 L 109.944000,221.080712 L 112.176000,225.137279 L 114.408000,220.060430 L 116.640000,233.322094 L 118.872000,229.851507 L 121.104000,230.723217 L 123.336000,206.389942 L 125.568000,208.799299 L 127.800000,209.690163 L 130.032000,214.366785 L 132.264000,209.165598 L 134.496000,205.061301 L 136.728000,213.157864 L 138.960000,197.783860 L 141.192000,183.483071 L 143.424000,215.934960 L 145.656000,192.619060 L 147.888000,234.084548 L 150.120000,234.417598 L 152.352000,227.289590 L 154.584000,253.866389 L 156.816000,268.174759 L 159.048000,269.783245 L 161.280000,244.884361 L 163.512000,273.621354 L 165.744000,274.208108 L 167.976000,274.164048 L 170.208000,229.368775 L 172.440000,245.298503 L 174.672000,226.944491 L 176.904000,235.200837 L 179.136000,221.611883 L 181.368000,201.252335 L 183.600000,225.182583 L 185.832000,216.229621 L 188.064000,230.030373 L 190.296000,222.208845 L 192.528000,196.451039 L 194.760000,213.616352 L 196.992000,217.941578 L 199.224000,208.644122 L 201.456000,199.900491 L 203.688000,211.950968 L 205.920000,190.789806 L 208.152000,187.292466 L 210.384000,188.580172 L 212.616000,221.477399 L 214.848000,236.552873 L 217.080000,222.917065 L 219.312000,197.055164 L 221.544000,182.019798 L 223.776000,189.019955 L 226.008000,188.716844 L 228.240000,194.450493 L 230.472000,208.812914 L 232.704000,200.505758 L 234.936000,211.901296 L 237.168000,191.864365 L 239.400000,203.646483 L 241.632000,198.651423 L 243.864000,193.636088 L 246.096000,171.181414 L 248.328000,166.548692 L 250.560000,154.260058 L 252.792000,157.122302 L 255.024000,157.162347 L 257.256000,183.593151 L 259.488000,184.275987 L 261.720000,179.807569 L 263.952000,194.286906 L 266.184000,173.636391 L 268.416000,157.235078 L 270.648000,142.447236 L 272.880000,155.426118 L 275.112000,167.944568 L 277.344000,183.459779 L 279.576000,184.891479 L 281.808000,189.284999 L 284.040000,227.983239 L 286.272000,237.783020 L 288.504000,239.642512 L 290.736000,237.479702 L 292.968000,224.764381 L 295.200000,231.854937 L 297.432000,246.173078 L 299.664000,241.882613 L 301.896000,195.050673 L 304.128000,167.886979 L 306.360000,198.272676 L 308.592000,246.382410 L 310.824000,269.980372 L 313.056000,236.543768 L 315.288000,232.244265 L 317.520000,199.240316 L 319.752000,199.650291 L 321.984000,208.777423 L 324.216000,227.957754 L 326.448000,212.261997 L 328.680000,208.729502 L 330.912000,214.157985 L 333.144000,209.183300 L 335.376000,202.188962 L 337.608000,235.485664 L 339.840000,223.748829 L 342.072000,230.845458 L 344.304000,239.213087 L 346.536000,221.463374 L 348.768000,210.306674 L 351.000000,213.868161 L 353.232000,213.223374 L 355.464000,205.846481 L 357.696000,226.477484 L 359.928000,224.251100 L 362.160000,200.942375 L 364.392000,223.324114 L 366.624000,209.509992 L 368.856000,192.879539 L 371.088000,200.477574 L 373.320000,221.516737 L 375.552000,209.724877 L 377.784000,212.123015 L 380.016000,216.500270 L 382.248000,200.861169 L 384.480000,203.955273 L 386.712000,233.617186 L 388.944000,225.448390 L 391.176000,238.975094 L 393.408000,257.356717 L 395.640000,223.168417 L 397.872000,267.103845 L 400.104000,238.004623 L 402.336000,206.046627 L 404.568000,203.043502 L 406.800000,219.134544 L 409.032000,222.171430 L 411.264000,241.874483 L 413.496000,227.661355 L 415.728000,244.166229 L 417.960000,214.162466 L 420.192000,217.576324 L 422.424000,209.201848 L 424.656000,201.701583 L 426.888000,183.355692 L 429.120000,214.045922 L 431.352000,211.906274 L 433.584000,214.930971 L 435.816000,209.361717 L 438.048000,230.386521 L 440.280000,225.904307 L 442.512000,196.038641 L 444.744000,171.935268 L 446.976000,211.596356 L 449.208000,208.527811 L 451.440000,195.306000 L 453.672000,190.715044 L 455.904000,201.844906 L 458.136000,209.130453 L 460.368000,190.230507 L 462.600000,185.418954 L 464.832000,175.897621 L 467.064000,191.724250 L 469.296000,210.054814 L 471.528000,201.456284 L 473.760000,188.806885 L 475.992000,178.315106 L 478.224000,198.434735 L 480.456000,196.404893 L 482.688000,214.933153 L 484.920000,244.582729 L 487.152000,216.508050 L 489.384000,222.637270 L 491.616000,239.146766 L 493.848000,235.827431 L 496.080000,213.581037 L 498.312000,230.126220 L 500.544000,237.585595 L 502.776000,202.574757 L 505.008000,216.839987 L 507.240000,195.963436 L 509.472000,178.120515 L 511.704000,184.705168 L 513.936000,191.397147 L 516.168000,194.108526 L 518.400000,220.604934 "   />
<path         
style="stroke: #ff0000;  stroke-width: 0.500000;  stroke-linejoin: miter;  stroke-linecap: square;   opacity: 1.000000;  fill: none;   clip-path:url(#-1250928610);  "
 d="M 72.000000,142.755489 L 74.232000,267.110628 L 76.464000,145.049050 L 78.696000,256.534729 L 80.928000,214.024098 L 83.160000,179.179555 L 85.392000,181.479602 L 87.624000,200.916464 L 89.856000,213.667856 L 92.088000,305.144394 L 94.320000,142.421303 L 96.552000,226.901544 L 98.784000,179.726064 L 101.016000,237.168329 L 103.248000,235.052026 L 105.480000,199.855052 L 107.712000,178.344428 L 109.944000,258.369331 L 112.176000,238.553996 L 114.408000,211.466168 L 116.640000,270.545508 L 118.872000,229.835192 L 121.104000,240.355908 L 123.336000,149.819528 L 125.568000,210.088271 L 127.800000,208.237392 L 130.032000,223.398144 L 132.264000,194.545140 L 134.496000,190.590681 L 136.728000,228.786007 L 138.960000,155.618005 L 141.192000,136.023259 L 143.424000,284.565698 L 145.656000,130.916844 L 147.888000,331.387914 L 150.120000,244.864778 L 152.352000,218.179324 L 154.584000,330.130821 L 156.816000,326.049140 L 159.048000,301.636721 L 161.280000,207.479814 L 163.512000,364.906465 L 165.744000,306.240343 L 167.976000,304.838233 L 170.208000,141.657963 L 172.440000,294.502527 L 174.672000,193.898507 L 176.904000,262.827278 L 179.136000,195.827489 L 181.368000,150.372284 L 183.600000,280.674103 L 185.832000,197.407459 L 188.064000,266.653202 L 190.296000,208.943560 L 192.528000,131.609006 L 194.760000,248.675645 L 196.992000,228.120397 L 199.224000,185.080495 L 201.456000,172.883532 L 203.688000,235.306798 L 205.920000,132.679183 L 208.152000,164.706813 L 210.384000,176.800392 L 212.616000,293.982248 L 214.848000,279.323142 L 217.080000,197.723943 L 219.312000,132.312445 L 221.544000,132.231652 L 223.776000,189.559821 L 226.008000,173.643341 L 228.240000,195.183173 L 230.472000,235.400646 L 232.704000,174.732508 L 234.936000,233.845064 L 237.168000,136.700922 L 239.400000,222.041615 L 241.632000,178.905358 L 243.864000,171.194127 L 246.096000,99.961463 L 248.328000,130.587711 L 250.560000,95.599489 L 252.792000,132.033626 L 255.024000,126.123343 L 257.256000,222.375784 L 259.488000,168.939547 L 261.720000,151.207874 L 263.952000,213.438104 L 266.184000,107.532496 L 268.416000,91.446185 L 270.648000,72.249875 L 272.880000,150.846051 L 275.112000,169.012237 L 277.344000,199.075495 L 279.576000,171.465146 L 281.808000,184.449666 L 284.040000,316.203923 L 286.272000,270.041139 L 288.504000,256.083353 L 290.736000,244.265657 L 292.968000,202.496111 L 295.200000,255.244775 L 297.432000,292.429762 L 299.664000,246.495686 L 301.896000,84.876999 L 304.128000,84.960506 L 306.360000,253.188610 L 308.592000,364.249658 L 310.824000,348.465782 L 313.056000,176.662234 L 315.288000,231.739755 L 317.520000,120.541590 L 319.752000,191.869149 L 321.984000,224.269002 L 324.216000,274.866899 L 326.448000,177.073936 L 328.680000,197.409152 L 330.912000,224.669762 L 333.144000,195.051462 L 335.376000,180.083886 L 337.608000,316.245807 L 339.840000,203.013742 L 342.072000,253.714154 L 344.304000,269.197377 L 346.536000,186.796651 L 348.768000,183.688511 L 351.000000,220.276241 L 353.232000,210.390294 L 355.464000,184.866697 L 357.696000,275.673087 L 359.928000,223.904919 L 362.160000,143.658180 L 364.392000,274.556049 L 366.624000,176.847548 L 368.856000,145.460889 L 371.088000,208.343303 L 373.320000,268.951847 L 375.552000,181.455019 L 377.784000,215.146416 L 380.016000,226.026761 L 382.248000,159.762218 L 384.480000,204.130729 L 386.712000,305.698079 L 388.944000,213.161962 L 391.176000,279.749608 L 393.408000,318.127231 L 395.640000,154.621116 L 397.872000,387.099805 L 400.104000,188.073337 L 402.336000,133.161416 L 404.568000,189.835490 L 406.800000,254.839776 L 409.032000,231.861736 L 411.264000,297.251281 L 413.496000,203.756295 L 415.728000,293.988260 L 417.960000,149.705317 L 420.192000,225.633564 L 422.424000,187.886184 L 424.656000,178.268204 L 426.888000,127.269444 L 429.120000,277.949896 L 431.352000,205.213495 L 433.584000,220.765456 L 435.816000,194.066206 L 438.048000,282.483157 L 440.280000,221.659510 L 442.512000,122.286614 L 444.744000,97.625594 L 446.976000,293.186061 L 449.208000,198.082448 L 451.440000,156.383253 L 453.672000,167.625866 L 455.904000,217.906936 L 458.136000,220.912156 L 460.368000,136.608545 L 462.600000,159.061506 L 464.832000,134.538163 L 467.064000,212.370605 L 469.296000,245.695699 L 471.528000,175.569319 L 473.760000,147.657430 L 475.992000,136.181070 L 478.224000,231.714363 L 480.456000,181.744588 L 482.688000,253.572869 L 484.920000,322.438032 L 487.152000,157.373420 L 489.384000,239.117081 L 491.616000,286.323398 L 493.848000,239.292276 L 496.080000,165.230187 L 498.312000,272.606707 L 500.544000,264.787201 L 502.776000,121.393484 L 505.008000,247.468203 L 507.240000,141.191749 L 509.472000,120.329219 L 511.704000,182.083445 L 513.936000,192.542413 L 516.168000,188.265475 L 518.400000,279.104738 "   />
<text style="font-size: 14.000000; font-family: Bitstream Vera Sans; font-style: Roman; fill: #000000;" x="79.176562" y="36.288000" >KalmanFilter on X0, V1, W1~N(0,1), N=201, a=0.8, e=0.9, d=2</text>
<g id="legend1">
<polygon         
style="stroke: #000000;  stroke-width: 1.000000;  stroke-linejoin: miter;  stroke-linecap: square;   opacity: 1.000000;  fill: #ffffff;   "
   points = "408.614400,93.488640 408.614400,50.112000 509.472000,50.112000 509.472000,93.488640"  />
<path         
style="stroke: #0000ff;  stroke-width: 0.500000;  stroke-linejoin: miter;  stroke-linecap: square;   opacity: 1.000000;  fill: none;   "
 d="M 418.819200,58.726720 L 426.259200,58.726720 L 433.699200,58.726720 L 441.139200,58.726720 "   />
<path         
style="stroke: #008000;  stroke-width: 0.500000;  stroke-linejoin: miter;  stroke-linecap: square;   opacity: 1.000000;  fill: none;   "
 d="M 418.819200,71.800320 L 426.259200,71.800320 L 433.699200,71.800320 L 441.139200,71.800320 "   />
<path         
style="stroke: #ff0000;  stroke-width: 0.500000;  stroke-linejoin: miter;  stroke-linecap: square;   opacity: 1.000000;  fill: none;   "
 d="M 418.819200,84.873920 L 426.259200,84.873920 L 433.699200,84.873920 L 441.139200,84.873920 "   />
<text style="font-size: 10.000000; font-family: Bitstream Vera Sans; font-style: Roman; fill: #000000;" x="450.067200" y="63.726720" >Xn_list</text>
<text style="font-size: 10.000000; font-family: Bitstream Vera Sans; font-style: Roman; fill: #000000;" x="450.067200" y="76.800320" >Xn_hat_list</text>
<text style="font-size: 10.000000; font-family: Bitstream Vera Sans; font-style: Roman; fill: #000000;" x="450.067200" y="89.873920" >Yn_list</text>
</g>
</g>
</g>
</svg>