<?xml version="1.0" standalone="no"?>
<!DOCTYPE svg PUBLIC "-//W3C//DTD SVG 1.0//EN"
"http://www.w3.org/TR/2001/REC-SVG-20010904/DTD/svg10.dtd">
<!-- Created with matplotlib (http://matplotlib.sourceforge.net/) -->
<svg
   xmlns="http://www.w3.org/2000/svg"
   xmlns:xlink="http://www.w3.org/1999/xlink"
   version="1.0"
   x="0.0"
   y="0.0"
   width="576.000000"
   height="432.000000"   
   id="svg1">
<g id="figure1">
<polygon         
style="stroke: #ffffff;  stroke-width: 1.000000;  stroke-linejoin: miter;  stroke-linecap: square;   opacity: 1.000000;  fill: #ffffff;   "
   points = "0.000000,432.000000 0.000000,0.000000 576.000000,0.000000 576.000000,432.000000"  />
<g id="axes1">
<polygon         
style="stroke: #000000;  stroke-width: 1.000000;  stroke-linejoin: miter;  stroke-linecap: square;   opacity: 1.000000;  fill: #ffffff;   "
   points = "72.000000,388.800000 72.000000,43.200000 518.400000,43.200000 518.400000,388.800000"  />
<g id="matplotlib.axis1">
<g id="xtick1">
<text style="font-size: 12.000000; font-family: Bitstream Vera Sans; font-style: Roman; fill: #000000;" x="69.000000" y="401.800000" >0</text>
</g>
<g id="xtick2">
<path         
style="stroke: #000000;  stroke-width: 0.500000;  stroke-linejoin: miter;  stroke-linecap: butt;   opacity: 1.000000;  fill: none;   "
 d="M 183.600000,388.800000 L 183.600000,384.800000"   />
<path         
style="stroke: #000000;  stroke-width: 0.500000;  stroke-linejoin: miter;  stroke-linecap: butt;   opacity: 1.000000;  fill: none;   "
 d="M 183.600000,388.800000 L 183.600000,384.800000"   />
<path         
style="stroke: #000000;  stroke-width: 0.500000;  stroke-linejoin: miter;  stroke-linecap: butt;   opacity: 1.000000;  fill: none;   "
 d="M 183.600000,47.200000 L 183.600000,43.200000"   />
<path         
style="stroke: #000000;  stroke-width: 0.500000;  stroke-linejoin: miter;  stroke-linecap: butt;   opacity: 1.000000;  fill: none;   "
 d="M 183.600000,47.200000 L 183.600000,43.200000"   />
<text style="font-size: 12.000000; font-family: Bitstream Vera Sans; font-style: Roman; fill: #000000;" x="176.600000" y="401.800000" >50</text>
</g>
<g id="xtick3">
<path         
style="stroke: #000000;  stroke-width: 0.500000;  stroke-linejoin: miter;  stroke-linecap: butt;   opacity: 1.000000;  fill: none;   "
 d="M 295.200000,388.800000 L 295.200000,384.800000"   />
<path         
style="stroke: #000000;  stroke-width: 0.500000;  stroke-linejoin: miter;  stroke-linecap: butt;   opacity: 1.000000;  fill: none;   "
 d="M 295.200000,388.800000 L 295.200000,384.800000"   />
<path         
style="stroke: #000000;  stroke-width: 0.500000;  stroke-linejoin: miter;  stroke-linecap: butt;   opacity: 1.000000;  fill: none;   "
 d="M 295.200000,47.200000 L 295.200000,43.200000"   />
<path         
style="stroke: #000000;  stroke-width: 0.500000;  stroke-linejoin: miter;  stroke-linecap: butt;   opacity: 1.000000;  fill: none;   "
 d="M 295.200000,47.200000 L 295.200000,43.200000"   />
<text style="font-size: 12.000000; font-family: Bitstream Vera Sans; font-style: Roman; fill: #000000;" x="284.200000" y="401.800000" >100</text>
</g>
<g id="xtick4">
<path         
style="stroke: #000000;  stroke-width: 0.500000;  stroke-linejoin: miter;  stroke-linecap: butt;   opacity: 1.000000;  fill: none;   "
 d="M 406.800000,388.800000 L 406.800000,384.800000"   />
<path         
style="stroke: #000000;  stroke-width: 0.500000;  stroke-linejoin: miter;  stroke-linecap: butt;   opacity: 1.000000;  fill: none;   "
 d="M 406.800000,388.800000 L 406.800000,384.800000"   />
<path         
style="stroke: #000000;  stroke-width: 0.500000;  stroke-linejoin: miter;  stroke-linecap: butt;   opacity: 1.000000;  fill: none;   "
 d="M 406.800000,47.200000 L 406.800000,43.200000"   />
<path         
style="stroke: #000000;  stroke-width: 0.500000;  stroke-linejoin: miter;  stroke-linecap: butt;   opacity: 1.000000;  fill: none;   "
 d="M 406.800000,47.200000 L 406.800000,43.200000"   />
<text style="font-size: 12.000000; font-family: Bitstream Vera Sans; font-style: Roman; fill: #000000;" x="395.800000" y="401.800000" >150</text>
</g>
<g id="xtick5">
<text style="font-size: 12.000000; font-family: Bitstream Vera Sans; font-style: Roman; fill: #000000;" x="507.400000" y="401.800000" >200</text>
</g>
<text style="font-size: 12.000000; font-family: Bitstream Vera Sans; font-style: Roman; fill: #000000;" x="292.200000" y="413.800000" >n</text>
</g>
<g id="matplotlib.axis2">
<g id="ytick1">
<text style="font-size: 12.000000; font-family: Bitstream Vera Sans; font-style: Roman; fill: #000000;" x="49.953125" y="393.300000" >0.2</text>
</g>
<g id="ytick2">
<path         
style="stroke: #000000;  stroke-width: 0.500000;  stroke-linejoin: miter;  stroke-linecap: butt;   opacity: 1.000000;  fill: none;   "
 d="M 72.000000,339.428571 L 76.000000,339.428571"   />
<path         
style="stroke: #000000;  stroke-width: 0.500000;  stroke-linejoin: miter;  stroke-linecap: butt;   opacity: 1.000000;  fill: none;   "
 d="M 72.000000,339.428571 L 76.000000,339.428571"   />
<path         
style="stroke: #000000;  stroke-width: 0.500000;  stroke-linejoin: miter;  stroke-linecap: butt;   opacity: 1.000000;  fill: none;   "
 d="M 514.400000,339.428571 L 518.400000,339.428571"   />
<path         
style="stroke: #000000;  stroke-width: 0.500000;  stroke-linejoin: miter;  stroke-linecap: butt;   opacity: 1.000000;  fill: none;   "
 d="M 514.400000,339.428571 L 518.400000,339.428571"   />
<text style="font-size: 12.000000; font-family: Bitstream Vera Sans; font-style: Roman; fill: #000000;" x="50.000000" y="343.928571" >0.3</text>
</g>
<g id="ytick3">
<path         
style="stroke: #000000;  stroke-width: 0.500000;  stroke-linejoin: miter;  stroke-linecap: butt;   opacity: 1.000000;  fill: none;   "
 d="M 72.000000,290.057143 L 76.000000,290.057143"   />
<path         
style="stroke: #000000;  stroke-width: 0.500000;  stroke-linejoin: miter;  stroke-linecap: butt;   opacity: 1.000000;  fill: none;   "
 d="M 72.000000,290.057143 L 76.000000,290.057143"   />
<path         
style="stroke: #000000;  stroke-width: 0.500000;  stroke-linejoin: miter;  stroke-linecap: butt;   opacity: 1.000000;  fill: none;   "
 d="M 514.400000,290.057143 L 518.400000,290.057143"   />
<path         
style="stroke: #000000;  stroke-width: 0.500000;  stroke-linejoin: miter;  stroke-linecap: butt;   opacity: 1.000000;  fill: none;   "
 d="M 514.400000,290.057143 L 518.400000,290.057143"   />
<text style="font-size: 12.000000; font-family: Bitstream Vera Sans; font-style: Roman; fill: #000000;" x="50.000000" y="294.557143" >0.4</text>
</g>
<g id="ytick4">
<path         
style="stroke: #000000;  stroke-width: 0.500000;  stroke-linejoin: miter;  stroke-linecap: butt;   opacity: 1.000000;  fill: none;   "
 d="M 72.000000,240.685714 L 76.000000,240.685714"   />
<path         
style="stroke: #000000;  stroke-width: 0.500000;  stroke-linejoin: miter;  stroke-linecap: butt;   opacity: 1.000000;  fill: none;   "
 d="M 72.000000,240.685714 L 76.000000,240.685714"   />
<path         
style="stroke: #000000;  stroke-width: 0.500000;  stroke-linejoin: miter;  stroke-linecap: butt;   opacity: 1.000000;  fill: none;   "
 d="M 514.400000,240.685714 L 518.400000,240.685714"   />
<path         
style="stroke: #000000;  stroke-width: 0.500000;  stroke-linejoin: miter;  stroke-linecap: butt;   opacity: 1.000000;  fill: none;   "
 d="M 514.400000,240.685714 L 518.400000,240.685714"   />
<text style="font-size: 12.000000; font-family: Bitstream Vera Sans; font-style: Roman; fill: #000000;" x="50.000000" y="245.185714" >0.5</text>
</g>
<g id="ytick5">
<path         
style="stroke: #000000;  stroke-width: 0.500000;  stroke-linejoin: miter;  stroke-linecap: butt;   opacity: 1.000000;  fill: none;   "
 d="M 72.000000,191.314286 L 76.000000,191.314286"   />
<path         
style="stroke: #000000;  stroke-width: 0.500000;  stroke-linejoin: miter;  stroke-linecap: butt;   opacity: 1.000000;  fill: none;   "
 d="M 72.000000,191.314286 L 76.000000,191.314286"   />
<path         
style="stroke: #000000;  stroke-width: 0.500000;  stroke-linejoin: miter;  stroke-linecap: butt;   opacity: 1.000000;  fill: none;   "
 d="M 514.400000,191.314286 L 518.400000,191.314286"   />
<path         
style="stroke: #000000;  stroke-width: 0.500000;  stroke-linejoin: miter;  stroke-linecap: butt;   opacity: 1.000000;  fill: none;   "
 d="M 514.400000,191.314286 L 518.400000,191.314286"   />
<text style="font-size: 12.000000; font-family: Bitstream Vera Sans; font-style: Roman; fill: #000000;" x="50.000000" y="195.814286" >0.6</text>
</g>
<g id="ytick6">
<path         
style="stroke: #000000;  stroke-width: 0.500000;  stroke-linejoin: miter;  stroke-linecap: butt;   opacity: 1.000000;  fill: none;   "
 d="M 72.000000,141.942857 L 76.000000,141.942857"   />
<path         
style="stroke: #000000;  stroke-width: 0.500000;  stroke-linejoin: miter;  stroke-linecap: butt;   opacity: 1.000000;  fill: none;   "
 d="M 72.000000,141.942857 L 76.000000,141.942857"   />
<path         
style="stroke: #000000;  stroke-width: 0.500000;  stroke-linejoin: miter;  stroke-linecap: butt;   opacity: 1.000000;  fill: none;   "
 d="M 514.400000,141.942857 L 518.400000,141.942857"   />
<path         
style="stroke: #000000;  stroke-width: 0.500000;  stroke-linejoin: miter;  stroke-linecap: butt;   opacity: 1.000000;  fill: none;   "
 d="M 514.400000,141.942857 L 518.400000,141.942857"   />
<text style="font-size: 12.000000; font-family: Bitstream Vera Sans; font-style: Roman; fill: #000000;" x="50.000000" y="146.442857" >0.7</text>
</g>
<g id="ytick7">
<path         
style="stroke: #000000;  stroke-width: 0.500000;  stroke-linejoin: miter;  stroke-linecap: butt;   opacity: 1.000000;  fill: none;   "
 d="M 72.000000,92.571429 L 76.000000,92.571429"   />
<path         
style="stroke: #000000;  stroke-width: 0.500000;  stroke-linejoin: miter;  stroke-linecap: butt;   opacity: 1.000000;  fill: none;   "
 d="M 72.000000,92.571429 L 76.000000,92.571429"   />
<path         
style="stroke: #000000;  stroke-width: 0.500000;  stroke-linejoin: miter;  stroke-linecap: butt;   opacity: 1.000000;  fill: none;   "
 d="M 514.400000,92.571429 L 518.400000,92.571429"   />
<path         
style="stroke: #000000;  stroke-width: 0.500000;  stroke-linejoin: miter;  stroke-linecap: butt;   opacity: 1.000000;  fill: none;   "
 d="M 514.400000,92.571429 L 518.400000,92.571429"   />
<text style="font-size: 12.000000; font-family: Bitstream Vera Sans; font-style: Roman; fill: #000000;" x="50.000000" y="97.071429" >0.8</text>
</g>
</g>

<defs>
    <clipPath id="-1250928610">
    <rect x="72.000000" y="43.200000" width="446.400000" height="345.600000"
    style="stroke: gray; fill: none;"/>
    </clipPath>
</defs>

<path         
style="stroke: #0000ff;  stroke-width: 0.500000;  stroke-linejoin: miter;  stroke-linecap: square;   opacity: 1.000000;  fill: none;   clip-path:url(#-1250928610);  "
 d="M 72.000000,68.627470 L 74.232000,271.620161 L 76.464000,335.677220 L 78.696000,362.504675 L 80.928000,375.033687 L 83.160000,381.181433 L 85.392000,384.271113 L 87.624000,385.842582 L 89.856000,386.646724 L 92.088000,387.059491 L 94.320000,387.271702 L 96.552000,387.380893 L 98.784000,387.437100 L 101.016000,387.466039 L 103.248000,387.480940 L 105.480000,387.488614 L 107.712000,387.492565 L 109.944000,387.494600 L 112.176000,387.495648 L 114.408000,387.496188 L 116.640000,387.496466 L 118.872000,387.496609 L 121.104000,387.496683 L 123.336000,387.496721 L 125.568000,387.496740 L 127.800000,387.496750 L 130.032000,387.496755 L 132.264000,387.496758 L 134.496000,387.496760 L 136.728000,387.496760 L 138.960000,387.496761 L 141.192000,387.496761 L 143.424000,387.496761 L 145.656000,387.496761 L 147.888000,387.496761 L 150.120000,387.496761 L 152.352000,387.496761 L 154.584000,387.496761 L 156.816000,387.496761 L 159.048000,387.496761 L 161.280000,387.496761 L 163.512000,387.496761 L 165.744000,387.496761 L 167.976000,387.496761 L 170.208000,387.496761 L 172.440000,387.496761 L 174.672000,387.496761 L 176.904000,387.496761 L 179.136000,387.496761 L 181.368000,387.496761 L 183.600000,387.496761 L 185.832000,387.496761 L 188.064000,387.496761 L 190.296000,387.496761 L 192.528000,387.496761 L 194.760000,387.496761 L 196.992000,387.496761 L 199.224000,387.496761 L 201.456000,387.496761 L 203.688000,387.496761 L 205.920000,387.496761 L 208.152000,387.496761 L 210.384000,387.496761 L 212.616000,387.496761 L 214.848000,387.496761 L 217.080000,387.496761 L 219.312000,387.496761 L 221.544000,387.496761 L 223.776000,387.496761 L 226.008000,387.496761 L 228.240000,387.496761 L 230.472000,387.496761 L 232.704000,387.496761 L 234.936000,387.496761 L 237.168000,387.496761 L 239.400000,387.496761 L 241.632000,387.496761 L 243.864000,387.496761 L 246.096000,387.496761 L 248.328000,387.496761 L 250.560000,387.496761 L 252.792000,387.496761 L 255.024000,387.496761 L 257.256000,387.496761 L 259.488000,387.496761 L 261.720000,387.496761 L 263.952000,387.496761 L 266.184000,387.496761 L 268.416000,387.496761 L 270.648000,387.496761 L 272.880000,387.496761 L 275.112000,387.496761 L 277.344000,387.496761 L 279.576000,387.496761 L 281.808000,387.496761 L 284.040000,387.496761 L 286.272000,387.496761 L 288.504000,387.496761 L 290.736000,387.496761 L 292.968000,387.496761 L 295.200000,387.496761 L 297.432000,387.496761 L 299.664000,387.496761 L 301.896000,387.496761 L 304.128000,387.496761 L 306.360000,387.496761 L 308.592000,387.496761 L 310.824000,387.496761 L 313.056000,387.496761 L 315.288000,387.496761 L 317.520000,387.496761 L 319.752000,387.496761 L 321.984000,387.496761 L 324.216000,387.496761 L 326.448000,387.496761 L 328.680000,387.496761 L 330.912000,387.496761 L 333.144000,387.496761 L 335.376000,387.496761 L 337.608000,387.496761 L 339.840000,387.496761 L 342.072000,387.496761 L 344.304000,387.496761 L 346.536000,387.496761 L 348.768000,387.496761 L 351.000000,387.496761 L 353.232000,387.496761 L 355.464000,387.496761 L 357.696000,387.496761 L 359.928000,387.496761 L 362.160000,387.496761 L 364.392000,387.496761 L 366.624000,387.496761 L 368.856000,387.496761 L 371.088000,387.496761 L 373.320000,387.496761 L 375.552000,387.496761 L 377.784000,387.496761 L 380.016000,387.496761 L 382.248000,387.496761 L 384.480000,387.496761 L 386.712000,387.496761 L 388.944000,387.496761 L 391.176000,387.496761 L 393.408000,387.496761 L 395.640000,387.496761 L 397.872000,387.496761 L 400.104000,387.496761 L 402.336000,387.496761 L 404.568000,387.496761 L 406.800000,387.496761 L 409.032000,387.496761 L 411.264000,387.496761 L 413.496000,387.496761 L 415.728000,387.496761 L 417.960000,387.496761 L 420.192000,387.496761 L 422.424000,387.496761 L 424.656000,387.496761 L 426.888000,387.496761 L 429.120000,387.496761 L 431.352000,387.496761 L 433.584000,387.496761 L 435.816000,387.496761 L 438.048000,387.496761 L 440.280000,387.496761 L 442.512000,387.496761 L 444.744000,387.496761 L 446.976000,387.496761 L 449.208000,387.496761 L 451.440000,387.496761 L 453.672000,387.496761 L 455.904000,387.496761 L 458.136000,387.496761 L 460.368000,387.496761 L 462.600000,387.496761 L 464.832000,387.496761 L 467.064000,387.496761 L 469.296000,387.496761 L 471.528000,387.496761 L 473.760000,387.496761 L 475.992000,387.496761 L 478.224000,387.496761 L 480.456000,387.496761 L 482.688000,387.496761 L 484.920000,387.496761 L 487.152000,387.496761 L 489.384000,387.496761 L 491.616000,387.496761 L 493.848000,387.496761 L 496.080000,387.496761 L 498.312000,387.496761 L 500.544000,387.496761 L 502.776000,387.496761 L 505.008000,387.496761 L 507.240000,387.496761 L 509.472000,387.496761 L 511.704000,387.496761 L 513.936000,387.496761 L 516.168000,387.496761 L 518.400000,387.496761 "   />
<text style="font-size: 14.000000; font-family: Bitstream Vera Sans; font-style: Roman; fill: #000000;" x="60.700000" y="36.288000" >KalmanFilter error on X0, V1, W1~N(0,1), N=201, a=0.9, e=0.3, d=1</text>
<g id="legend1">
<polygon         
style="stroke: #000000;  stroke-width: 1.000000;  stroke-linejoin: miter;  stroke-linecap: square;   opacity: 1.000000;  fill: #ffffff;   "
   points = "433.814400,62.112000 433.814400,50.112000 509.472000,50.112000 509.472000,62.112000"  />
<path         
style="stroke: #0000ff;  stroke-width: 0.500000;  stroke-linejoin: miter;  stroke-linecap: square;   opacity: 1.000000;  fill: none;   "
 d="M 441.919200,56.112000 L 449.359200,56.112000 L 456.799200,56.112000 L 464.239200,56.112000 "   />
<text style="font-size: 10.000000; font-family: Bitstream Vera Sans; font-style: Roman; fill: #000000;" x="473.167200" y="61.112000" >Pn_list</text>
</g>
</g>
</g>
</svg>