<?xml version="1.0" standalone="no"?>
<!DOCTYPE svg PUBLIC "-//W3C//DTD SVG 1.0//EN"
"http://www.w3.org/TR/2001/REC-SVG-20010904/DTD/svg10.dtd">
<!-- Created with matplotlib (http://matplotlib.sourceforge.net/) -->
<svg
   xmlns="http://www.w3.org/2000/svg"
   xmlns:xlink="http://www.w3.org/1999/xlink"
   version="1.0"
   x="0.0"
   y="0.0"
   width="576.000000"
   height="432.000000"   
   id="svg1">
<g id="figure1">
<polygon         
style="stroke: #ffffff;  stroke-width: 1.000000;  stroke-linejoin: miter;  stroke-linecap: square;   opacity: 1.000000;  fill: #ffffff;   "
   points = "0.000000,432.000000 0.000000,0.000000 576.000000,0.000000 576.000000,432.000000"  />
<g id="axes1">
<polygon         
style="stroke: #000000;  stroke-width: 1.000000;  stroke-linejoin: miter;  stroke-linecap: square;   opacity: 1.000000;  fill: #ffffff;   "
   points = "72.000000,388.800000 72.000000,43.200000 518.400000,43.200000 518.400000,388.800000"  />
<g id="matplotlib.axis1">
<g id="xtick1">
<text style="font-size: 12.000000; font-family: Bitstream Vera Sans; font-style: Roman; fill: #000000;" x="69.000000" y="401.800000" >0</text>
</g>
<g id="xtick2">
<path         
style="stroke: #000000;  stroke-width: 0.500000;  stroke-linejoin: miter;  stroke-linecap: butt;   opacity: 1.000000;  fill: none;   "
 d="M 161.280000,388.800000 L 161.280000,384.800000"   />
<path         
style="stroke: #000000;  stroke-width: 0.500000;  stroke-linejoin: miter;  stroke-linecap: butt;   opacity: 1.000000;  fill: none;   "
 d="M 161.280000,388.800000 L 161.280000,384.800000"   />
<path         
style="stroke: #000000;  stroke-width: 0.500000;  stroke-linejoin: miter;  stroke-linecap: butt;   opacity: 1.000000;  fill: none;   "
 d="M 161.280000,47.200000 L 161.280000,43.200000"   />
<path         
style="stroke: #000000;  stroke-width: 0.500000;  stroke-linejoin: miter;  stroke-linecap: butt;   opacity: 1.000000;  fill: none;   "
 d="M 161.280000,47.200000 L 161.280000,43.200000"   />
<text style="font-size: 12.000000; font-family: Bitstream Vera Sans; font-style: Roman; fill: #000000;" x="154.280000" y="401.800000" >10</text>
</g>
<g id="xtick3">
<path         
style="stroke: #000000;  stroke-width: 0.500000;  stroke-linejoin: miter;  stroke-linecap: butt;   opacity: 1.000000;  fill: none;   "
 d="M 250.560000,388.800000 L 250.560000,384.800000"   />
<path         
style="stroke: #000000;  stroke-width: 0.500000;  stroke-linejoin: miter;  stroke-linecap: butt;   opacity: 1.000000;  fill: none;   "
 d="M 250.560000,388.800000 L 250.560000,384.800000"   />
<path         
style="stroke: #000000;  stroke-width: 0.500000;  stroke-linejoin: miter;  stroke-linecap: butt;   opacity: 1.000000;  fill: none;   "
 d="M 250.560000,47.200000 L 250.560000,43.200000"   />
<path         
style="stroke: #000000;  stroke-width: 0.500000;  stroke-linejoin: miter;  stroke-linecap: butt;   opacity: 1.000000;  fill: none;   "
 d="M 250.560000,47.200000 L 250.560000,43.200000"   />
<text style="font-size: 12.000000; font-family: Bitstream Vera Sans; font-style: Roman; fill: #000000;" x="243.560000" y="401.800000" >20</text>
</g>
<g id="xtick4">
<path         
style="stroke: #000000;  stroke-width: 0.500000;  stroke-linejoin: miter;  stroke-linecap: butt;   opacity: 1.000000;  fill: none;   "
 d="M 339.840000,388.800000 L 339.840000,384.800000"   />
<path         
style="stroke: #000000;  stroke-width: 0.500000;  stroke-linejoin: miter;  stroke-linecap: butt;   opacity: 1.000000;  fill: none;   "
 d="M 339.840000,388.800000 L 339.840000,384.800000"   />
<path         
style="stroke: #000000;  stroke-width: 0.500000;  stroke-linejoin: miter;  stroke-linecap: butt;   opacity: 1.000000;  fill: none;   "
 d="M 339.840000,47.200000 L 339.840000,43.200000"   />
<path         
style="stroke: #000000;  stroke-width: 0.500000;  stroke-linejoin: miter;  stroke-linecap: butt;   opacity: 1.000000;  fill: none;   "
 d="M 339.840000,47.200000 L 339.840000,43.200000"   />
<text style="font-size: 12.000000; font-family: Bitstream Vera Sans; font-style: Roman; fill: #000000;" x="332.840000" y="401.800000" >30</text>
</g>
<g id="xtick5">
<path         
style="stroke: #000000;  stroke-width: 0.500000;  stroke-linejoin: miter;  stroke-linecap: butt;   opacity: 1.000000;  fill: none;   "
 d="M 429.120000,388.800000 L 429.120000,384.800000"   />
<path         
style="stroke: #000000;  stroke-width: 0.500000;  stroke-linejoin: miter;  stroke-linecap: butt;   opacity: 1.000000;  fill: none;   "
 d="M 429.120000,388.800000 L 429.120000,384.800000"   />
<path         
style="stroke: #000000;  stroke-width: 0.500000;  stroke-linejoin: miter;  stroke-linecap: butt;   opacity: 1.000000;  fill: none;   "
 d="M 429.120000,47.200000 L 429.120000,43.200000"   />
<path         
style="stroke: #000000;  stroke-width: 0.500000;  stroke-linejoin: miter;  stroke-linecap: butt;   opacity: 1.000000;  fill: none;   "
 d="M 429.120000,47.200000 L 429.120000,43.200000"   />
<text style="font-size: 12.000000; font-family: Bitstream Vera Sans; font-style: Roman; fill: #000000;" x="422.120000" y="401.800000" >40</text>
</g>
<g id="xtick6">
<text style="font-size: 12.000000; font-family: Bitstream Vera Sans; font-style: Roman; fill: #000000;" x="511.400000" y="401.800000" >50</text>
</g>
<text style="font-size: 12.000000; font-family: Bitstream Vera Sans; font-style: Roman; fill: #000000;" x="292.200000" y="413.800000" >n</text>
</g>
<g id="matplotlib.axis2">
<g id="ytick1">
<text style="font-size: 12.000000; font-family: Bitstream Vera Sans; font-style: Roman; fill: #000000;" x="46.000000" y="393.300000" >-2.5</text>
</g>
<g id="ytick2">
<path         
style="stroke: #000000;  stroke-width: 0.500000;  stroke-linejoin: miter;  stroke-linecap: butt;   opacity: 1.000000;  fill: none;   "
 d="M 72.000000,350.400000 L 76.000000,350.400000"   />
<path         
style="stroke: #000000;  stroke-width: 0.500000;  stroke-linejoin: miter;  stroke-linecap: butt;   opacity: 1.000000;  fill: none;   "
 d="M 72.000000,350.400000 L 76.000000,350.400000"   />
<path         
style="stroke: #000000;  stroke-width: 0.500000;  stroke-linejoin: miter;  stroke-linecap: butt;   opacity: 1.000000;  fill: none;   "
 d="M 514.400000,350.400000 L 518.400000,350.400000"   />
<path         
style="stroke: #000000;  stroke-width: 0.500000;  stroke-linejoin: miter;  stroke-linecap: butt;   opacity: 1.000000;  fill: none;   "
 d="M 514.400000,350.400000 L 518.400000,350.400000"   />
<text style="font-size: 12.000000; font-family: Bitstream Vera Sans; font-style: Roman; fill: #000000;" x="46.000000" y="354.900000" >-2.0</text>
</g>
<g id="ytick3">
<path         
style="stroke: #000000;  stroke-width: 0.500000;  stroke-linejoin: miter;  stroke-linecap: butt;   opacity: 1.000000;  fill: none;   "
 d="M 72.000000,312.000000 L 76.000000,312.000000"   />
<path         
style="stroke: #000000;  stroke-width: 0.500000;  stroke-linejoin: miter;  stroke-linecap: butt;   opacity: 1.000000;  fill: none;   "
 d="M 72.000000,312.000000 L 76.000000,312.000000"   />
<path         
style="stroke: #000000;  stroke-width: 0.500000;  stroke-linejoin: miter;  stroke-linecap: butt;   opacity: 1.000000;  fill: none;   "
 d="M 514.400000,312.000000 L 518.400000,312.000000"   />
<path         
style="stroke: #000000;  stroke-width: 0.500000;  stroke-linejoin: miter;  stroke-linecap: butt;   opacity: 1.000000;  fill: none;   "
 d="M 514.400000,312.000000 L 518.400000,312.000000"   />
<text style="font-size: 12.000000; font-family: Bitstream Vera Sans; font-style: Roman; fill: #000000;" x="46.000000" y="316.500000" >-1.5</text>
</g>
<g id="ytick4">
<path         
style="stroke: #000000;  stroke-width: 0.500000;  stroke-linejoin: miter;  stroke-linecap: butt;   opacity: 1.000000;  fill: none;   "
 d="M 72.000000,273.600000 L 76.000000,273.600000"   />
<path         
style="stroke: #000000;  stroke-width: 0.500000;  stroke-linejoin: miter;  stroke-linecap: butt;   opacity: 1.000000;  fill: none;   "
 d="M 72.000000,273.600000 L 76.000000,273.600000"   />
<path         
style="stroke: #000000;  stroke-width: 0.500000;  stroke-linejoin: miter;  stroke-linecap: butt;   opacity: 1.000000;  fill: none;   "
 d="M 514.400000,273.600000 L 518.400000,273.600000"   />
<path         
style="stroke: #000000;  stroke-width: 0.500000;  stroke-linejoin: miter;  stroke-linecap: butt;   opacity: 1.000000;  fill: none;   "
 d="M 514.400000,273.600000 L 518.400000,273.600000"   />
<text style="font-size: 12.000000; font-family: Bitstream Vera Sans; font-style: Roman; fill: #000000;" x="46.000000" y="278.100000" >-1.0</text>
</g>
<g id="ytick5">
<path         
style="stroke: #000000;  stroke-width: 0.500000;  stroke-linejoin: miter;  stroke-linecap: butt;   opacity: 1.000000;  fill: none;   "
 d="M 72.000000,235.200000 L 76.000000,235.200000"   />
<path         
style="stroke: #000000;  stroke-width: 0.500000;  stroke-linejoin: miter;  stroke-linecap: butt;   opacity: 1.000000;  fill: none;   "
 d="M 72.000000,235.200000 L 76.000000,235.200000"   />
<path         
style="stroke: #000000;  stroke-width: 0.500000;  stroke-linejoin: miter;  stroke-linecap: butt;   opacity: 1.000000;  fill: none;   "
 d="M 514.400000,235.200000 L 518.400000,235.200000"   />
<path         
style="stroke: #000000;  stroke-width: 0.500000;  stroke-linejoin: miter;  stroke-linecap: butt;   opacity: 1.000000;  fill: none;   "
 d="M 514.400000,235.200000 L 518.400000,235.200000"   />
<text style="font-size: 12.000000; font-family: Bitstream Vera Sans; font-style: Roman; fill: #000000;" x="46.000000" y="239.700000" >-0.5</text>
</g>
<g id="ytick6">
<path         
style="stroke: #000000;  stroke-width: 0.500000;  stroke-linejoin: miter;  stroke-linecap: butt;   opacity: 1.000000;  fill: none;   "
 d="M 72.000000,196.800000 L 76.000000,196.800000"   />
<path         
style="stroke: #000000;  stroke-width: 0.500000;  stroke-linejoin: miter;  stroke-linecap: butt;   opacity: 1.000000;  fill: none;   "
 d="M 72.000000,196.800000 L 76.000000,196.800000"   />
<path         
style="stroke: #000000;  stroke-width: 0.500000;  stroke-linejoin: miter;  stroke-linecap: butt;   opacity: 1.000000;  fill: none;   "
 d="M 514.400000,196.800000 L 518.400000,196.800000"   />
<path         
style="stroke: #000000;  stroke-width: 0.500000;  stroke-linejoin: miter;  stroke-linecap: butt;   opacity: 1.000000;  fill: none;   "
 d="M 514.400000,196.800000 L 518.400000,196.800000"   />
<text style="font-size: 12.000000; font-family: Bitstream Vera Sans; font-style: Roman; fill: #000000;" x="50.000000" y="201.300000" >0.0</text>
</g>
<g id="ytick7">
<path         
style="stroke: #000000;  stroke-width: 0.500000;  stroke-linejoin: miter;  stroke-linecap: butt;   opacity: 1.000000;  fill: none;   "
 d="M 72.000000,158.400000 L 76.000000,158.400000"   />
<path         
style="stroke: #000000;  stroke-width: 0.500000;  stroke-linejoin: miter;  stroke-linecap: butt;   opacity: 1.000000;  fill: none;   "
 d="M 72.000000,158.400000 L 76.000000,158.400000"   />
<path         
style="stroke: #000000;  stroke-width: 0.500000;  stroke-linejoin: miter;  stroke-linecap: butt;   opacity: 1.000000;  fill: none;   "
 d="M 514.400000,158.400000 L 518.400000,158.400000"   />
<path         
style="stroke: #000000;  stroke-width: 0.500000;  stroke-linejoin: miter;  stroke-linecap: butt;   opacity: 1.000000;  fill: none;   "
 d="M 514.400000,158.400000 L 518.400000,158.400000"   />
<text style="font-size: 12.000000; font-family: Bitstream Vera Sans; font-style: Roman; fill: #000000;" x="50.000000" y="162.900000" >0.5</text>
</g>
<g id="ytick8">
<path         
style="stroke: #000000;  stroke-width: 0.500000;  stroke-linejoin: miter;  stroke-linecap: butt;   opacity: 1.000000;  fill: none;   "
 d="M 72.000000,120.000000 L 76.000000,120.000000"   />
<path         
style="stroke: #000000;  stroke-width: 0.500000;  stroke-linejoin: miter;  stroke-linecap: butt;   opacity: 1.000000;  fill: none;   "
 d="M 72.000000,120.000000 L 76.000000,120.000000"   />
<path         
style="stroke: #000000;  stroke-width: 0.500000;  stroke-linejoin: miter;  stroke-linecap: butt;   opacity: 1.000000;  fill: none;   "
 d="M 514.400000,120.000000 L 518.400000,120.000000"   />
<path         
style="stroke: #000000;  stroke-width: 0.500000;  stroke-linejoin: miter;  stroke-linecap: butt;   opacity: 1.000000;  fill: none;   "
 d="M 514.400000,120.000000 L 518.400000,120.000000"   />
<text style="font-size: 12.000000; font-family: Bitstream Vera Sans; font-style: Roman; fill: #000000;" x="50.000000" y="124.500000" >1.0</text>
</g>
<g id="ytick9">
<path         
style="stroke: #000000;  stroke-width: 0.500000;  stroke-linejoin: miter;  stroke-linecap: butt;   opacity: 1.000000;  fill: none;   "
 d="M 72.000000,81.600000 L 76.000000,81.600000"   />
<path         
style="stroke: #000000;  stroke-width: 0.500000;  stroke-linejoin: miter;  stroke-linecap: butt;   opacity: 1.000000;  fill: none;   "
 d="M 72.000000,81.600000 L 76.000000,81.600000"   />
<path         
style="stroke: #000000;  stroke-width: 0.500000;  stroke-linejoin: miter;  stroke-linecap: butt;   opacity: 1.000000;  fill: none;   "
 d="M 514.400000,81.600000 L 518.400000,81.600000"   />
<path         
style="stroke: #000000;  stroke-width: 0.500000;  stroke-linejoin: miter;  stroke-linecap: butt;   opacity: 1.000000;  fill: none;   "
 d="M 514.400000,81.600000 L 518.400000,81.600000"   />
<text style="font-size: 12.000000; font-family: Bitstream Vera Sans; font-style: Roman; fill: #000000;" x="50.000000" y="86.100000" >1.5</text>
</g>
<g id="ytick10">
<text style="font-size: 12.000000; font-family: Bitstream Vera Sans; font-style: Roman; fill: #000000;" x="50.000000" y="47.700000" >2.0</text>
</g>
</g>

<defs>
    <clipPath id="-1250928610">
    <rect x="72.000000" y="43.200000" width="446.400000" height="345.600000"
    style="stroke: gray; fill: none;"/>
    </clipPath>
</defs>

<path         
style="stroke: #0000ff;  stroke-width: 0.500000;  stroke-linejoin: miter;  stroke-linecap: square;   opacity: 1.000000;  fill: none;   clip-path:url(#-1250928610);  "
 d="M 72.000000,296.824904 L 80.928000,267.528288 L 89.856000,196.800000 L 98.784000,126.071712 L 107.712000,96.775096 L 116.640000,126.071712 L 125.568000,196.800000 L 134.496000,267.528288 L 143.424000,296.824904 L 152.352000,267.528288 L 161.280000,196.800000 L 170.208000,126.071712 L 179.136000,96.775096 L 188.064000,126.071712 L 196.992000,196.800000 L 205.920000,267.528288 L 214.848000,296.824904 L 223.776000,267.528288 L 232.704000,196.800000 L 241.632000,126.071712 L 250.560000,96.775096 L 259.488000,126.071712 L 268.416000,196.800000 L 277.344000,267.528288 L 286.272000,296.824904 L 295.200000,267.528288 L 304.128000,196.800000 L 313.056000,126.071712 L 321.984000,96.775096 L 330.912000,126.071712 L 339.840000,196.800000 L 348.768000,267.528288 L 357.696000,296.824904 L 366.624000,267.528288 L 375.552000,196.800000 L 384.480000,126.071712 L 393.408000,96.775096 L 402.336000,126.071712 L 411.264000,196.800000 L 420.192000,267.528288 L 429.120000,296.824904 L 438.048000,267.528288 L 446.976000,196.800000 L 455.904000,126.071712 L 464.832000,96.775096 L 473.760000,126.071712 L 482.688000,196.800000 L 491.616000,267.528288 L 500.544000,296.824904 L 509.472000,267.528288 L 518.400000,196.800000 "   />
<path         
style="stroke: #ff0000;  stroke-width: 0.500000;  stroke-linejoin: miter;  stroke-linecap: square;   opacity: 1.000000;  fill: none;   clip-path:url(#-1250928610);  "
 d="M 72.000000,372.153897 L 80.928000,229.863792 L 89.856000,159.135504 L 98.784000,201.400705 L 107.712000,59.110599 L 116.640000,88.407215 L 125.568000,272.128993 L 134.496000,229.863792 L 143.424000,259.160408 L 152.352000,342.857281 L 161.280000,159.135504 L 170.208000,88.407215 L 179.136000,172.104088 L 188.064000,88.407215 L 196.992000,159.135504 L 205.920000,342.857281 L 214.848000,259.160408 L 223.776000,229.863792 L 232.704000,272.128993 L 241.632000,88.407215 L 250.560000,59.110599 L 259.488000,201.400705 L 268.416000,159.135504 L 277.344000,229.863792 L 286.272000,372.153897 L 295.200000,229.863792 L 304.128000,159.135504 L 313.056000,201.400705 L 321.984000,59.110599 L 330.912000,88.407215 L 339.840000,272.128993 L 348.768000,229.863792 L 357.696000,259.160408 L 366.624000,342.857281 L 375.552000,159.135504 L 384.480000,88.407215 L 393.408000,172.104088 L 402.336000,88.407215 L 411.264000,159.135504 L 420.192000,342.857281 L 429.120000,259.160408 L 438.048000,229.863792 L 446.976000,272.128993 L 455.904000,88.407215 L 464.832000,59.110599 L 473.760000,201.400705 L 482.688000,159.135504 L 491.616000,229.863792 L 500.544000,372.153897 L 509.472000,229.863792 L 518.400000,159.135504 "   />
<text style="font-size: 14.000000; font-family: Bitstream Vera Sans; font-style: Roman; fill: #000000;" x="31.676562" y="36.288000" >Real parts of theta_n, Xn, eta_1=-1.30240760991, eta_2=-0.980846260442</text>
<g id="legend1">
<polygon         
style="stroke: #000000;  stroke-width: 1.000000;  stroke-linejoin: miter;  stroke-linecap: square;   opacity: 1.000000;  fill: #ffffff;   "
   points = "425.414400,74.200320 425.414400,50.112000 509.472000,50.112000 509.472000,74.200320"  />
<path         
style="stroke: #0000ff;  stroke-width: 0.500000;  stroke-linejoin: miter;  stroke-linecap: square;   opacity: 1.000000;  fill: none;   "
 d="M 434.219200,57.119360 L 441.659200,57.119360 L 449.099200,57.119360 L 456.539200,57.119360 "   />
<path         
style="stroke: #ff0000;  stroke-width: 0.500000;  stroke-linejoin: miter;  stroke-linecap: square;   opacity: 1.000000;  fill: none;   "
 d="M 434.219200,68.692960 L 441.659200,68.692960 L 449.099200,68.692960 L 456.539200,68.692960 "   />
<text style="font-size: 10.000000; font-family: Bitstream Vera Sans; font-style: Roman; fill: #000000;" x="465.467200" y="62.119360" >theta_n</text>
<text style="font-size: 10.000000; font-family: Bitstream Vera Sans; font-style: Roman; fill: #000000;" x="465.467200" y="72.192960" >Xn</text>
</g>
</g>
</g>
</svg>