<?xml version="1.0" standalone="no"?>
<!DOCTYPE svg PUBLIC "-//W3C//DTD SVG 1.1//EN"
  "http://www.w3.org/Graphics/SVG/1.1/DTD/svg11.dtd">
<!-- Created with matplotlib (http://matplotlib.sourceforge.net/) -->
<svg width="576" height="432" viewBox="0 0 576 432"
   xmlns="http://www.w3.org/2000/svg"
   xmlns:xlink="http://www.w3.org/1999/xlink"
   version="1.1"
   id="svg1">
<g id="figure1">
<polygon style="fill: #ffffff; stroke: #ffffff; stroke-width: 1.000000; stroke-linejoin: miter; stroke-linecap: square;  opacity: 1.000000; " points = "0.000000,432.000000 0.000000,0.000000 576.000000,0.000000 576.000000,432.000000"/>
<g id="axes1">
<polygon style="fill: #ffffff; stroke: #000000; stroke-width: 1.000000; stroke-linejoin: miter; stroke-linecap: square;  opacity: 1.000000; " points = "72.000000,388.800000 72.000000,43.200000 518.400000,43.200000 518.400000,388.800000"/>
<defs>
    <clipPath id="789695421804425603">
    <rect x="72.000000" y="43.200000" width="446.400000" height="345.600000"
    style="stroke: gray; fill: none;"/>
    </clipPath>
</defs>
<path style="fill: none; stroke: #0000ff; stroke-width: 1.000000; stroke-linejoin: miter; stroke-linecap: square;  opacity: 1.000000; clip-path:url(#789695421804425603);" d="M 72.000000,227.173668 L 73.785600,218.505076 L 75.571200,216.577327 L 77.356800,207.853267 L 79.142400,237.171211 L 80.928000,230.184896 L 82.713600,219.664474 L 84.499200,201.270748 L 86.284800,214.942696 L 88.070400,208.005763 L 89.856000,196.619637 L 91.641600,203.677399 L 93.427200,197.645448 L 95.212800,206.627915 L 96.998400,213.190750 L 98.784000,212.303847 L 100.569600,212.704065 L 102.355200,215.299605 L 104.140800,197.542473 L 105.926400,189.216310 L 107.712000,179.910787 L 109.497600,172.237123 L 111.283200,190.758537 L 113.068800,183.144307 L 114.854400,195.922349 L 116.640000,199.160407 L 118.425600,192.896889 L 120.211200,201.575779 L 121.996800,205.409793 L 123.782400,196.679653 L 125.568000,202.118160 L 127.353600,209.911182 L 129.139200,212.055456 L 130.924800,210.392357 L 132.710400,218.171251 L 134.496000,213.617670 L 136.281600,197.836171 L 138.067200,207.943078 L 139.852800,207.697420 L 141.638400,224.952248 L 143.424000,209.170820 L 145.209600,214.486640 L 146.995200,216.811909 L 148.780800,205.233317 L 150.566400,217.067318 L 152.352000,224.079762 L 154.137600,242.195152 L 155.923200,240.413841 L 157.708800,237.743294 L 159.494400,229.679444 L 161.280000,234.864056 L 163.065600,225.510662 L 164.851200,229.686314 L 166.636800,218.865210 L 168.422400,243.315721 L 170.208000,240.654099 L 171.993600,248.751606 L 173.779200,245.664550 L 175.564800,243.062999 L 177.350400,245.130260 L 179.136000,240.449415 L 180.921600,227.752671 L 182.707200,229.417161 L 184.492800,228.582817 L 186.278400,235.140041 L 188.064000,224.340159 L 189.849600,226.962625 L 191.635200,228.899716 L 193.420800,224.938355 L 195.206400,218.076841 L 196.992000,226.909239 L 198.777600,251.524137 L 200.563200,248.573805 L 202.348800,228.142630 L 204.134400,230.562254 L 205.920000,238.933534 L 207.705600,227.560264 L 209.491200,234.121065 L 211.276800,246.549371 L 213.062400,238.480541 L 214.848000,238.807241 L 216.633600,245.756115 L 218.419200,248.607812 L 220.204800,255.223213 L 221.990400,267.853013 L 223.776000,271.965841 L 225.561600,260.904734 L 227.347200,275.160091 L 229.132800,283.722081 L 230.918400,287.234397 L 232.704000,276.011267 L 234.489600,275.673076 L 236.275200,280.372476 L 238.060800,277.127682 L 239.846400,278.483034 L 241.632000,273.816948 L 243.417600,269.846807 L 245.203200,268.674758 L 246.988800,263.432921 L 248.774400,273.411074 L 250.560000,265.124287 L 252.345600,262.152768 L 254.131200,252.334196 L 255.916800,255.115462 L 257.702400,251.580966 L 259.488000,256.388902 L 261.273600,261.462690 L 263.059200,271.404445 L 264.844800,280.152600 L 266.630400,285.409774 L 268.416000,291.144687 L 270.201600,284.297148 L 271.987200,272.069195 L 273.772800,274.227747 L 275.558400,274.755857 L 277.344000,280.788963 L 279.129600,280.144831 L 280.915200,275.160059 L 282.700800,268.802809 L 284.486400,267.649810 L 286.272000,269.628869 L 288.057600,268.517414 L 289.843200,260.612686 L 291.628800,252.320847 L 293.414400,259.399051 L 295.200000,256.070585 L 296.985600,252.277478 L 298.771200,255.356753 L 300.556800,260.930797 L 302.342400,245.875231 L 304.128000,258.302857 L 305.913600,255.862364 L 307.699200,245.677092 L 309.484800,243.471055 L 311.270400,244.648563 L 313.056000,248.765311 L 314.841600,259.518912 L 316.627200,258.735874 L 318.412800,249.322423 L 320.198400,258.720235 L 321.984000,259.555978 L 323.769600,257.846029 L 325.555200,257.224272 L 327.340800,269.322293 L 329.126400,267.042498 L 330.912000,274.069517 L 332.697600,264.578920 L 334.483200,267.724734 L 336.268800,264.472354 L 338.054400,251.557959 L 339.840000,249.292512 L 341.625600,240.001053 L 343.411200,241.662418 L 345.196800,263.031860 L 346.982400,250.902348 L 348.768000,243.797522 L 350.553600,246.058435 L 352.339200,260.402152 L 354.124800,262.408605 L 355.910400,268.498080 L 357.696000,252.385552 L 359.481600,234.779905 L 361.267200,232.542726 L 363.052800,232.813979 L 364.838400,218.594681 L 366.624000,220.235203 L 368.409600,218.976669 L 370.195200,213.637181 L 371.980800,213.007426 L 373.766400,207.963021 L 375.552000,194.325816 L 377.337600,227.636752 L 379.123200,219.624404 L 380.908800,214.392236 L 382.694400,219.083899 L 384.480000,220.971848 L 386.265600,220.906739 L 388.051200,217.805815 L 389.836800,201.687044 L 391.622400,204.794613 L 393.408000,195.790726 L 395.193600,190.378088 L 396.979200,194.885073 L 398.764800,200.349326 L 400.550400,191.392706 L 402.336000,213.010069 L 404.121600,204.897158 L 405.907200,216.354588 L 407.692800,207.325587 L 409.478400,199.083236 L 411.264000,195.184527 L 413.049600,180.508670 L 414.835200,199.151396 L 416.620800,204.628836 L 418.406400,215.701995 L 420.192000,236.471911 L 421.977600,239.619199 L 423.763200,236.657911 L 425.548800,257.473797 L 427.334400,239.789166 L 429.120000,250.109900 L 430.905600,253.029769 L 432.691200,256.105251 L 434.476800,239.671642 L 436.262400,244.445340 L 438.048000,231.042938 L 439.833600,219.677228 L 441.619200,218.581180 L 443.404800,205.795634 L 445.190400,213.864520 L 446.976000,196.616660 L 448.761600,205.261766 L 450.547200,218.882634 L 452.332800,215.989270 L 454.118400,204.980918 L 455.904000,211.628779 L 457.689600,207.622960 L 459.475200,229.047582 L 461.260800,235.671378 L 463.046400,238.240224 L 464.832000,247.356543 L 466.617600,246.388280 L 468.403200,243.418201 L 470.188800,242.335730 L 471.974400,237.899724 L 473.760000,236.982292 L 475.545600,244.783094 L 477.331200,242.372492 L 479.116800,245.657186 L 480.902400,249.051465 L 482.688000,233.876901 L 484.473600,242.285884 L 486.259200,241.948980 L 488.044800,250.473313 L 489.830400,248.130235 L 491.616000,253.086419 L 493.401600,255.648366 L 495.187200,255.506235 L 496.972800,249.716276 L 498.758400,259.329324 L 500.544000,259.884439 L 502.329600,243.135605 L 504.115200,241.301962 L 505.900800,234.650356 L 507.686400,233.358673 L 509.472000,248.638583 L 511.257600,251.881599 L 513.043200,255.935957 L 514.828800,256.777791 L 516.614400,270.217756 L 518.400000,276.020488 "/>
<path style="fill: none; stroke: #008000; stroke-width: 1.000000; stroke-linejoin: miter; stroke-linecap: square;  opacity: 1.000000; clip-path:url(#789695421804425603);" d="M 72.000000,214.545162 L 73.785600,219.328549 L 75.571200,221.359941 L 77.356800,211.017773 L 79.142400,207.079367 L 80.928000,209.182708 L 82.713600,201.018617 L 84.499200,206.025284 L 86.284800,202.462763 L 88.070400,188.304705 L 89.856000,203.273952 L 91.641600,211.439103 L 93.427200,209.662336 L 95.212800,200.744077 L 96.998400,212.627470 L 98.784000,207.983862 L 100.569600,196.734065 L 102.355200,189.911969 L 104.140800,191.298458 L 105.926400,183.173953 L 107.712000,168.098943 L 109.497600,163.418725 L 111.283200,166.321611 L 113.068800,163.969646 L 114.854400,187.035613 L 116.640000,187.280542 L 118.425600,175.990696 L 120.211200,180.715747 L 121.996800,198.247772 L 123.782400,187.032348 L 125.568000,182.247477 L 127.353600,189.953810 L 129.139200,203.592450 L 130.924800,214.822970 L 132.710400,208.038364 L 134.496000,208.331243 L 136.281600,203.614029 L 138.067200,207.637761 L 139.852800,221.063101 L 141.638400,226.280886 L 143.424000,231.171522 L 145.209600,238.644000 L 146.995200,220.782632 L 148.780800,218.224188 L 150.566400,221.441960 L 152.352000,226.326541 L 154.137600,234.181056 L 155.923200,224.739887 L 157.708800,208.860788 L 159.494400,198.281277 L 161.280000,189.051220 L 163.065600,191.132123 L 164.851200,208.175642 L 166.636800,212.126736 L 168.422400,206.983392 L 170.208000,225.626254 L 171.993600,233.795547 L 173.779200,240.382710 L 175.564800,241.266224 L 177.350400,242.918194 L 179.136000,247.472517 L 180.921600,243.167891 L 182.707200,241.018765 L 184.492800,240.323548 L 186.278400,235.527203 L 188.064000,231.306274 L 189.849600,228.082527 L 191.635200,252.053203 L 193.420800,250.932784 L 195.206400,253.070763 L 196.992000,248.598915 L 198.777600,251.259526 L 200.563200,242.804312 L 202.348800,250.433690 L 204.134400,246.516098 L 205.920000,250.934578 L 207.705600,256.129354 L 209.491200,255.100210 L 211.276800,244.236527 L 213.062400,253.068628 L 214.848000,252.682374 L 216.633600,263.196611 L 218.419200,256.770498 L 220.204800,251.690681 L 221.990400,267.109576 L 223.776000,269.114839 L 225.561600,262.427327 L 227.347200,273.877706 L 229.132800,268.903376 L 230.918400,258.996832 L 232.704000,261.637852 L 234.489600,264.475882 L 236.275200,271.726191 L 238.060800,275.007598 L 239.846400,273.124434 L 241.632000,273.455406 L 243.417600,279.648865 L 245.203200,285.725524 L 246.988800,273.058812 L 248.774400,266.477964 L 250.560000,267.542829 L 252.345600,273.839851 L 254.131200,276.862266 L 255.916800,271.723849 L 257.702400,267.917116 L 259.488000,262.136930 L 261.273600,249.762625 L 263.059200,260.801211 L 264.844800,265.762325 L 266.630400,267.300781 L 268.416000,265.961762 L 270.201600,269.259538 L 271.987200,272.818370 L 273.772800,274.158057 L 275.558400,273.692472 L 277.344000,274.108826 L 279.129600,273.814379 L 280.915200,267.589803 L 282.700800,273.821864 L 284.486400,267.744097 L 286.272000,267.038536 L 288.057600,266.090547 L 289.843200,268.088718 L 291.628800,268.534423 L 293.414400,261.120901 L 295.200000,259.106898 L 296.985600,258.683229 L 298.771200,258.331415 L 300.556800,261.478352 L 302.342400,257.909569 L 304.128000,255.959559 L 305.913600,258.360267 L 307.699200,259.238263 L 309.484800,270.159660 L 311.270400,269.085041 L 313.056000,258.992164 L 314.841600,253.712211 L 316.627200,260.514328 L 318.412800,252.650285 L 320.198400,246.511194 L 321.984000,257.992733 L 323.769600,257.198813 L 325.555200,268.868969 L 327.340800,262.753127 L 329.126400,256.446319 L 330.912000,261.287020 L 332.697600,259.596157 L 334.483200,268.975095 L 336.268800,273.291001 L 338.054400,275.016372 L 339.840000,271.388868 L 341.625600,259.988390 L 343.411200,261.645796 L 345.196800,257.099763 L 346.982400,252.212518 L 348.768000,257.234321 L 350.553600,247.815224 L 352.339200,241.998146 L 354.124800,237.515131 L 355.910400,246.337248 L 357.696000,241.546837 L 359.481600,239.238394 L 361.267200,242.337998 L 363.052800,228.150370 L 364.838400,224.128712 L 366.624000,226.887688 L 368.409600,221.673718 L 370.195200,218.679469 L 371.980800,201.500889 L 373.766400,196.307328 L 375.552000,183.121232 L 377.337600,183.704769 L 379.123200,204.336762 L 380.908800,201.743842 L 382.694400,185.629817 L 384.480000,171.796590 L 386.265600,170.838536 L 388.051200,188.532675 L 389.836800,188.976884 L 391.622400,195.192062 L 393.408000,189.738755 L 395.193600,190.616258 L 396.979200,205.427357 L 398.764800,208.868214 L 400.550400,209.099966 L 402.336000,216.556222 L 404.121600,214.674720 L 405.907200,205.173450 L 407.692800,175.697039 L 409.478400,186.780275 L 411.264000,189.397614 L 413.049600,189.530581 L 414.835200,195.629624 L 416.620800,173.692993 L 418.406400,188.879833 L 420.192000,200.830487 L 421.977600,213.759258 L 423.763200,204.801410 L 425.548800,211.988938 L 427.334400,202.647094 L 429.120000,196.508392 L 430.905600,215.706778 L 432.691200,228.434689 L 434.476800,233.222432 L 436.262400,231.051434 L 438.048000,223.777425 L 439.833600,228.958589 L 441.619200,227.398365 L 443.404800,221.507782 L 445.190400,222.254876 L 446.976000,225.125113 L 448.761600,222.930469 L 450.547200,221.388582 L 452.332800,222.579143 L 454.118400,217.147645 L 455.904000,216.960537 L 457.689600,204.878611 L 459.475200,213.759433 L 461.260800,210.804620 L 463.046400,200.709233 L 464.832000,200.536570 L 466.617600,211.879949 L 468.403200,225.145685 L 470.188800,230.230893 L 471.974400,226.296082 L 473.760000,223.040123 L 475.545600,221.636634 L 477.331200,220.780380 L 479.116800,217.630198 L 480.902400,224.048988 L 482.688000,225.938659 L 484.473600,229.955701 L 486.259200,226.400225 L 488.044800,245.129586 L 489.830400,250.864453 L 491.616000,250.463877 L 493.401600,254.118259 L 495.187200,241.275256 L 496.972800,258.379990 L 498.758400,251.003422 L 500.544000,264.383304 L 502.329600,265.162044 L 504.115200,258.928693 L 505.900800,259.552195 L 507.686400,262.950704 L 509.472000,262.143086 L 511.257600,259.898078 L 513.043200,270.411533 L 514.828800,280.841891 L 516.614400,264.660915 L 518.400000,261.739935 "/>
<path style="fill: none; stroke: #ff0000; stroke-width: 1.000000; stroke-linejoin: miter; stroke-linecap: square;  opacity: 1.000000; clip-path:url(#789695421804425603);" d="M 72.000000,188.717791 L 73.785600,272.735676 L 75.571200,240.269340 L 77.356800,150.550048 L 79.142400,188.001148 L 80.928000,219.339128 L 82.713600,167.161484 L 84.499200,227.593339 L 86.284800,188.426965 L 88.070400,136.142570 L 89.856000,258.359516 L 91.641600,246.250854 L 93.427200,202.420107 L 95.212800,164.958433 L 96.998400,261.459669 L 98.784000,190.511866 L 100.569600,151.629826 L 102.355200,165.384947 L 104.140800,198.020173 L 105.926400,154.745451 L 107.712000,118.986503 L 109.497600,150.058025 L 111.283200,175.211254 L 113.068800,156.062219 L 114.854400,268.265040 L 116.640000,188.688819 L 118.425600,139.122054 L 120.211200,197.792674 L 121.996800,265.661712 L 123.782400,144.802203 L 125.568000,165.501890 L 127.353600,218.171797 L 129.139200,259.612647 L 130.924800,265.993968 L 132.710400,179.060756 L 134.496000,209.504368 L 136.281600,185.212394 L 138.067200,224.316678 L 139.852800,280.273880 L 141.638400,252.168396 L 143.424000,256.243150 L 145.209600,277.861639 L 146.995200,134.998300 L 148.780800,207.984515 L 150.566400,237.590138 L 152.352000,248.624296 L 154.137600,272.223009 L 155.923200,179.541404 L 157.708800,143.352351 L 159.494400,158.854709 L 161.280000,156.931662 L 163.065600,197.405795 L 164.851200,275.957392 L 166.636800,228.226480 L 168.422400,185.235767 L 170.208000,310.868726 L 171.993600,276.408881 L 173.779200,277.235681 L 175.564800,244.932639 L 177.350400,250.707023 L 179.136000,274.683784 L 180.921600,219.057348 L 182.707200,231.262799 L 184.492800,236.343656 L 186.278400,213.613969 L 188.064000,211.641750 L 189.849600,214.256629 L 191.635200,382.998583 L 193.420800,245.263898 L 195.206400,267.833484 L 196.992000,223.870485 L 198.777600,266.832481 L 200.563200,194.782694 L 202.348800,293.221818 L 204.134400,224.912614 L 205.920000,274.801600 L 207.705600,286.730840 L 209.491200,248.314118 L 211.276800,183.302137 L 213.062400,300.422805 L 214.848000,249.917070 L 216.633600,326.678894 L 218.419200,217.174005 L 220.204800,223.505569 L 221.990400,360.578691 L 223.776000,282.427861 L 225.561600,219.918228 L 227.347200,353.110675 L 229.132800,235.317657 L 230.918400,199.567534 L 232.704000,276.634695 L 234.489600,281.122344 L 236.275200,320.110043 L 238.060800,300.059802 L 239.846400,259.637820 L 241.632000,276.658748 L 243.417600,326.656122 L 245.203200,336.471831 L 246.988800,180.224101 L 248.774400,225.031805 L 250.560000,274.147550 L 252.345600,315.726155 L 254.131200,298.886159 L 255.916800,238.333907 L 257.702400,243.708599 L 259.488000,228.248307 L 261.273600,185.775104 L 263.059200,318.437104 L 264.844800,294.716763 L 266.630400,277.981805 L 268.416000,259.122537 L 270.201600,292.489402 L 271.987200,297.788788 L 273.772800,283.526644 L 275.558400,271.106950 L 277.344000,276.044199 L 279.129600,273.258740 L 280.915200,228.005887 L 282.700800,313.288483 L 284.486400,229.819278 L 286.272000,263.793810 L 288.057600,260.039922 L 289.843200,281.690380 L 291.628800,271.575197 L 293.414400,216.279617 L 295.200000,248.425530 L 296.985600,257.037402 L 298.771200,254.787368 L 300.556800,280.336384 L 302.342400,237.189340 L 304.128000,245.747388 L 305.913600,271.525783 L 307.699200,263.745142 L 309.484800,340.036676 L 311.270400,262.512100 L 313.056000,197.943556 L 314.841600,224.384677 L 316.627200,299.414607 L 318.412800,208.511301 L 320.198400,214.544372 L 321.984000,319.744511 L 323.769600,252.210867 L 325.555200,342.377903 L 327.340800,221.845302 L 329.126400,220.412133 L 330.912000,289.683495 L 332.697600,249.817463 L 334.483200,328.921038 L 336.268800,301.599195 L 338.054400,288.330563 L 339.840000,245.773595 L 341.625600,191.665722 L 343.411200,269.934741 L 345.196800,232.227143 L 346.982400,225.615694 L 348.768000,285.552101 L 350.553600,199.598667 L 352.339200,213.443521 L 354.124800,216.464006 L 355.910400,290.397522 L 357.696000,217.355228 L 359.481600,228.698907 L 361.267200,257.861913 L 363.052800,160.825160 L 364.838400,206.989792 L 366.624000,239.114975 L 368.409600,200.535616 L 370.195200,206.008508 L 371.980800,136.608981 L 373.766400,178.655738 L 375.552000,138.395703 L 377.337600,185.549946 L 379.123200,288.423677 L 380.908800,189.987798 L 382.694400,125.876855 L 384.480000,127.530980 L 386.265600,168.446762 L 388.051200,249.385022 L 389.836800,190.676631 L 391.622400,218.727097 L 393.408000,168.443481 L 395.193600,193.656360 L 396.979200,265.398458 L 398.764800,224.105687 L 400.550400,209.690335 L 402.336000,250.567766 L 404.121600,205.182189 L 405.907200,166.292160 L 407.692800,75.743943 L 409.478400,222.055158 L 411.264000,200.071142 L 413.049600,189.879373 L 414.835200,217.605333 L 416.620800,100.885667 L 418.406400,240.237505 L 420.192000,246.422284 L 421.977600,270.410954 L 423.763200,164.329081 L 425.548800,244.085758 L 427.334400,163.934205 L 429.120000,172.920512 L 430.905600,294.671351 L 432.691200,290.781492 L 434.476800,258.544235 L 436.262400,220.874718 L 438.048000,190.467897 L 439.833600,253.953091 L 441.619200,220.880253 L 443.404800,195.629084 L 445.190400,227.390965 L 446.976000,238.396021 L 448.761600,213.676228 L 450.547200,213.146850 L 452.332800,229.020534 L 454.118400,194.521066 L 455.904000,215.863495 L 457.689600,158.828017 L 459.475200,247.720322 L 461.260800,199.889599 L 463.046400,162.457082 L 464.832000,199.707010 L 466.617600,259.004934 L 468.403200,285.578498 L 470.188800,257.439794 L 471.974400,208.165824 L 473.760000,209.086409 L 475.545600,215.237629 L 477.331200,218.545219 L 479.116800,202.850981 L 480.902400,253.932980 L 482.688000,236.041095 L 484.473600,249.869371 L 486.259200,210.057016 L 488.044800,340.614654 L 489.830400,283.322072 L 491.616000,248.226111 L 493.401600,276.291546 L 495.187200,172.769006 L 496.972800,353.636458 L 498.758400,209.384763 L 500.544000,345.919906 L 502.329600,271.664315 L 504.115200,220.417997 L 505.900800,263.301098 L 507.686400,283.579082 L 509.472000,257.693365 L 511.257600,247.064001 L 513.043200,337.366576 L 514.828800,359.800904 L 516.614400,153.181430 L 518.400000,244.716406 "/>
<g id="matplotlib.axis1">
<g id="xtick1">
<text style="font-size: 12.000000; font-family: Bitstream Vera Sans; font-style: Roman; fill: #000000;" x="68.937500" y="401.800000" >0</text>
</g>
<g id="xtick2">
<path style="fill: none; stroke: #000000; stroke-width: 0.500000; stroke-linejoin: miter; stroke-linecap: butt;  opacity: 1.000000; " d="M 161.280000,388.800000 L 161.280000,384.800000"/>
<path style="fill: none; stroke: #000000; stroke-width: 0.500000; stroke-linejoin: miter; stroke-linecap: butt;  opacity: 1.000000; " d="M 161.280000,47.200000 L 161.280000,43.200000"/>
<text style="font-size: 12.000000; font-family: Bitstream Vera Sans; font-style: Roman; fill: #000000;" x="154.717500" y="401.800000" >50</text>
</g>
<g id="xtick3">
<path style="fill: none; stroke: #000000; stroke-width: 0.500000; stroke-linejoin: miter; stroke-linecap: butt;  opacity: 1.000000; " d="M 250.560000,388.800000 L 250.560000,384.800000"/>
<path style="fill: none; stroke: #000000; stroke-width: 0.500000; stroke-linejoin: miter; stroke-linecap: butt;  opacity: 1.000000; " d="M 250.560000,47.200000 L 250.560000,43.200000"/>
<text style="font-size: 12.000000; font-family: Bitstream Vera Sans; font-style: Roman; fill: #000000;" x="240.075625" y="401.800000" >100</text>
</g>
<g id="xtick4">
<path style="fill: none; stroke: #000000; stroke-width: 0.500000; stroke-linejoin: miter; stroke-linecap: butt;  opacity: 1.000000; " d="M 339.840000,388.800000 L 339.840000,384.800000"/>
<path style="fill: none; stroke: #000000; stroke-width: 0.500000; stroke-linejoin: miter; stroke-linecap: butt;  opacity: 1.000000; " d="M 339.840000,47.200000 L 339.840000,43.200000"/>
<text style="font-size: 12.000000; font-family: Bitstream Vera Sans; font-style: Roman; fill: #000000;" x="329.855625" y="401.800000" >150</text>
</g>
<g id="xtick5">
<path style="fill: none; stroke: #000000; stroke-width: 0.500000; stroke-linejoin: miter; stroke-linecap: butt;  opacity: 1.000000; " d="M 429.120000,388.800000 L 429.120000,384.800000"/>
<path style="fill: none; stroke: #000000; stroke-width: 0.500000; stroke-linejoin: miter; stroke-linecap: butt;  opacity: 1.000000; " d="M 429.120000,47.200000 L 429.120000,43.200000"/>
<text style="font-size: 12.000000; font-family: Bitstream Vera Sans; font-style: Roman; fill: #000000;" x="418.135625" y="401.800000" >200</text>
</g>
<g id="xtick6">
<text style="font-size: 12.000000; font-family: Bitstream Vera Sans; font-style: Roman; fill: #000000;" x="507.915625" y="401.800000" >250</text>
</g>
<text style="font-size: 12.000000; font-family: Bitstream Vera Sans; font-style: Roman; fill: #000000;" x="292.637500" y="413.800000" >n</text>
</g>
<g id="matplotlib.axis2">
<g id="ytick1">
<text style="font-size: 12.000000; font-family: Bitstream Vera Sans; font-style: Roman; fill: #000000;" x="61.875000" y="393.300000" >0</text>
</g>
<g id="ytick2">
<path style="fill: none; stroke: #000000; stroke-width: 0.500000; stroke-linejoin: miter; stroke-linecap: butt;  opacity: 1.000000; " d="M 72.000000,339.428571 L 76.000000,339.428571"/>
<path style="fill: none; stroke: #000000; stroke-width: 0.500000; stroke-linejoin: miter; stroke-linecap: butt;  opacity: 1.000000; " d="M 514.400000,339.428571 L 518.400000,339.428571"/>
<text style="font-size: 12.000000; font-family: Bitstream Vera Sans; font-style: Roman; fill: #000000;" x="62.031250" y="343.928571" >2</text>
</g>
<g id="ytick3">
<path style="fill: none; stroke: #000000; stroke-width: 0.500000; stroke-linejoin: miter; stroke-linecap: butt;  opacity: 1.000000; " d="M 72.000000,290.057143 L 76.000000,290.057143"/>
<path style="fill: none; stroke: #000000; stroke-width: 0.500000; stroke-linejoin: miter; stroke-linecap: butt;  opacity: 1.000000; " d="M 514.400000,290.057143 L 518.400000,290.057143"/>
<text style="font-size: 12.000000; font-family: Bitstream Vera Sans; font-style: Roman; fill: #000000;" x="61.671875" y="294.557143" >4</text>
</g>
<g id="ytick4">
<path style="fill: none; stroke: #000000; stroke-width: 0.500000; stroke-linejoin: miter; stroke-linecap: butt;  opacity: 1.000000; " d="M 72.000000,240.685714 L 76.000000,240.685714"/>
<path style="fill: none; stroke: #000000; stroke-width: 0.500000; stroke-linejoin: miter; stroke-linecap: butt;  opacity: 1.000000; " d="M 514.400000,240.685714 L 518.400000,240.685714"/>
<text style="font-size: 12.000000; font-family: Bitstream Vera Sans; font-style: Roman; fill: #000000;" x="61.875000" y="245.185714" >6</text>
</g>
<g id="ytick5">
<path style="fill: none; stroke: #000000; stroke-width: 0.500000; stroke-linejoin: miter; stroke-linecap: butt;  opacity: 1.000000; " d="M 72.000000,191.314286 L 76.000000,191.314286"/>
<path style="fill: none; stroke: #000000; stroke-width: 0.500000; stroke-linejoin: miter; stroke-linecap: butt;  opacity: 1.000000; " d="M 514.400000,191.314286 L 518.400000,191.314286"/>
<text style="font-size: 12.000000; font-family: Bitstream Vera Sans; font-style: Roman; fill: #000000;" x="61.875000" y="195.814286" >8</text>
</g>
<g id="ytick6">
<path style="fill: none; stroke: #000000; stroke-width: 0.500000; stroke-linejoin: miter; stroke-linecap: butt;  opacity: 1.000000; " d="M 72.000000,141.942857 L 76.000000,141.942857"/>
<path style="fill: none; stroke: #000000; stroke-width: 0.500000; stroke-linejoin: miter; stroke-linecap: butt;  opacity: 1.000000; " d="M 514.400000,141.942857 L 518.400000,141.942857"/>
<text style="font-size: 12.000000; font-family: Bitstream Vera Sans; font-style: Roman; fill: #000000;" x="55.031250" y="146.442857" >10</text>
</g>
<g id="ytick7">
<path style="fill: none; stroke: #000000; stroke-width: 0.500000; stroke-linejoin: miter; stroke-linecap: butt;  opacity: 1.000000; " d="M 72.000000,92.571429 L 76.000000,92.571429"/>
<path style="fill: none; stroke: #000000; stroke-width: 0.500000; stroke-linejoin: miter; stroke-linecap: butt;  opacity: 1.000000; " d="M 514.400000,92.571429 L 518.400000,92.571429"/>
<text style="font-size: 12.000000; font-family: Bitstream Vera Sans; font-style: Roman; fill: #000000;" x="55.031250" y="97.071429" >12</text>
</g>
<g id="ytick8">
<text style="font-size: 12.000000; font-family: Bitstream Vera Sans; font-style: Roman; fill: #000000;" x="54.765625" y="47.700000" >14</text>
</g>
</g>
<path style="fill: none; stroke: #000000; stroke-width: 1.000000; stroke-linejoin: miter; stroke-linecap: square;  opacity: 1.000000; " d="M 72.000000,388.800000 L 518.400000,388.800000 L 518.400000,43.200000 L 72.000000,43.200000 L 72.000000,388.800000 "/>
<text style="font-size: 14.000000; font-family: Bitstream Vera Sans; font-style: Roman; fill: #000000;" x="39.168750" y="36.288000" >Hw12, No 3. continuous state space filtering by SIR(10000), mse=0.4908</text>
<g id="legend1">
<polygon style="fill: #ffffff; stroke: #000000; stroke-width: 1.000000; stroke-linejoin: miter; stroke-linecap: square;  opacity: 1.000000; " points = "377.680650,114.365280 377.680650,50.112000 509.472000,50.112000 509.472000,114.365280"/>
<path style="fill: none; stroke: #0000ff; stroke-width: 1.000000; stroke-linejoin: miter; stroke-linecap: square;  opacity: 1.000000; " d="M 391.663262,62.536752 L 399.103263,62.536752 L 406.543262,62.536752 L 413.983263,62.536752 "/>
<path style="fill: none; stroke: #008000; stroke-width: 1.000000; stroke-linejoin: miter; stroke-linecap: square;  opacity: 1.000000; " d="M 391.663262,82.238640 L 399.103263,82.238640 L 406.543262,82.238640 L 413.983263,82.238640 "/>
<path style="fill: none; stroke: #ff0000; stroke-width: 1.000000; stroke-linejoin: miter; stroke-linecap: square;  opacity: 1.000000; " d="M 391.663262,101.940527 L 399.103263,101.940527 L 406.543262,101.940527 L 413.983263,101.940527 "/>
<text style="font-size: 14.000000; font-family: Bitstream Vera Sans; font-style: Roman; fill: #000000;" x="422.911263" y="69.607065" >Xn_list</text>
<text style="font-size: 14.000000; font-family: Bitstream Vera Sans; font-style: Roman; fill: #000000;" x="422.911263" y="89.308952" >Xn_hat_list</text>
<text style="font-size: 14.000000; font-family: Bitstream Vera Sans; font-style: Roman; fill: #000000;" x="422.911263" y="109.010840" >Yn_list</text>
</g>
</g>
</g>
</svg>
