<?xml version="1.0" standalone="no"?>
<!DOCTYPE svg PUBLIC "-//W3C//DTD SVG 1.1//EN"
  "http://www.w3.org/Graphics/SVG/1.1/DTD/svg11.dtd">
<!-- Created with matplotlib (http://matplotlib.sourceforge.net/) -->
<svg width="576" height="432" viewBox="0 0 576 432"
   xmlns="http://www.w3.org/2000/svg"
   xmlns:xlink="http://www.w3.org/1999/xlink"
   version="1.1"
   id="svg1">
<g id="figure1">
<polygon style="fill: #ffffff; stroke: #ffffff; stroke-width: 1.000000; stroke-linejoin: miter; stroke-linecap: square;  opacity: 1.000000; " points = "0.000000,432.000000 0.000000,0.000000 576.000000,0.000000 576.000000,432.000000"/>
<g id="axes1">
<polygon style="fill: #ffffff; stroke: #000000; stroke-width: 1.000000; stroke-linejoin: miter; stroke-linecap: square;  opacity: 1.000000; " points = "72.000000,388.800000 72.000000,43.200000 518.400000,43.200000 518.400000,388.800000"/>
<defs>
    <clipPath id="789695421804425603">
    <rect x="72.000000" y="43.200000" width="446.400000" height="345.600000"
    style="stroke: gray; fill: none;"/>
    </clipPath>
</defs>
<path style="fill: none; stroke: #0000ff; stroke-width: 1.000000; stroke-linejoin: miter; stroke-linecap: square;  opacity: 1.000000; clip-path:url(#789695421804425603);" d="M 72.000000,269.729775 L 73.785600,278.963873 L 75.571200,280.752646 L 77.356800,280.772405 L 79.142400,276.056294 L 80.928000,278.978078 L 82.713600,278.773226 L 84.499200,275.955983 L 86.284800,269.983289 L 88.070400,274.615198 L 89.856000,273.968342 L 91.641600,276.995755 L 93.427200,272.803023 L 95.212800,274.815435 L 96.998400,265.629705 L 98.784000,266.544015 L 100.569600,263.911438 L 102.355200,263.545074 L 104.140800,263.477982 L 105.926400,269.843583 L 107.712000,270.204065 L 109.497600,270.615602 L 111.283200,271.251133 L 113.068800,272.008197 L 114.854400,268.747516 L 116.640000,261.098728 L 118.425600,264.006782 L 120.211200,259.021041 L 121.996800,267.185731 L 123.782400,266.311738 L 125.568000,263.892617 L 127.353600,266.691389 L 129.139200,269.386871 L 130.924800,269.593961 L 132.710400,272.145404 L 134.496000,273.699716 L 136.281600,277.675856 L 138.067200,283.735728 L 139.852800,287.891991 L 141.638400,287.620368 L 143.424000,285.301012 L 145.209600,284.005098 L 146.995200,280.172175 L 148.780800,278.405594 L 150.566400,281.743654 L 152.352000,278.105089 L 154.137600,279.103858 L 155.923200,275.536145 L 157.708800,272.776908 L 159.494400,277.580490 L 161.280000,270.297377 L 163.065600,271.239844 L 164.851200,273.286426 L 166.636800,281.033326 L 168.422400,276.934864 L 170.208000,273.419950 L 171.993600,276.792034 L 173.779200,271.295216 L 175.564800,271.922047 L 177.350400,272.830705 L 179.136000,267.195086 L 180.921600,268.811449 L 182.707200,270.717257 L 184.492800,279.218946 L 186.278400,284.542916 L 188.064000,280.753747 L 189.849600,282.301496 L 191.635200,284.837091 L 193.420800,288.339419 L 195.206400,289.342163 L 196.992000,288.024643 L 198.777600,282.451946 L 200.563200,280.609759 L 202.348800,285.233933 L 204.134400,286.498605 L 205.920000,289.181317 L 207.705600,289.259160 L 209.491200,291.451701 L 211.276800,289.371260 L 213.062400,287.681114 L 214.848000,289.179766 L 216.633600,294.913551 L 218.419200,296.711750 L 220.204800,295.122021 L 221.990400,292.559646 L 223.776000,293.075306 L 225.561600,294.673034 L 227.347200,289.111939 L 229.132800,295.161348 L 230.918400,293.692923 L 232.704000,293.788990 L 234.489600,297.887088 L 236.275200,298.042255 L 238.060800,298.906618 L 239.846400,297.386898 L 241.632000,296.587649 L 243.417600,295.254899 L 245.203200,293.430945 L 246.988800,298.665929 L 248.774400,297.426733 L 250.560000,299.457361 L 252.345600,298.308232 L 254.131200,294.392986 L 255.916800,292.948270 L 257.702400,291.739428 L 259.488000,294.914430 L 261.273600,293.090789 L 263.059200,294.099306 L 264.844800,293.524643 L 266.630400,296.368482 L 268.416000,296.202111 L 270.201600,297.889609 L 271.987200,300.096588 L 273.772800,297.932330 L 275.558400,298.676490 L 277.344000,298.351013 L 279.129600,297.868780 L 280.915200,299.546464 L 282.700800,298.688690 L 284.486400,301.860670 L 286.272000,302.719506 L 288.057600,301.655029 L 289.843200,300.076878 L 291.628800,301.003988 L 293.414400,306.171600 L 295.200000,302.640342 L 296.985600,303.196518 L 298.771200,302.249160 L 300.556800,300.046218 L 302.342400,303.083296 L 304.128000,307.663631 L 305.913600,308.846054 L 307.699200,306.855569 L 309.484800,302.399038 L 311.270400,299.258879 L 313.056000,295.350338 L 314.841600,292.407542 L 316.627200,292.936601 L 318.412800,290.109089 L 320.198400,292.367989 L 321.984000,293.692581 L 323.769600,297.519378 L 325.555200,298.846462 L 327.340800,305.158112 L 329.126400,302.529031 L 330.912000,300.117301 L 332.697600,298.312400 L 334.483200,298.962716 L 336.268800,300.128625 L 338.054400,297.866769 L 339.840000,301.010357 L 341.625600,299.228536 L 343.411200,295.659102 L 345.196800,297.796913 L 346.982400,297.974831 L 348.768000,300.153863 L 350.553600,294.680853 L 352.339200,294.457207 L 354.124800,286.904135 L 355.910400,285.438001 L 357.696000,279.727926 L 359.481600,274.987199 L 361.267200,274.665852 L 363.052800,273.933300 L 364.838400,275.121432 L 366.624000,269.988771 L 368.409600,268.847066 L 370.195200,269.914001 L 371.980800,266.398717 L 373.766400,263.388324 L 375.552000,261.059036 L 377.337600,266.026755 L 379.123200,267.464640 L 380.908800,266.054161 L 382.694400,266.378112 L 384.480000,258.415939 L 386.265600,265.351836 L 388.051200,257.878468 L 389.836800,261.016767 L 391.622400,255.279977 L 393.408000,245.041402 L 395.193600,244.099513 L 396.979200,243.624445 L 398.764800,241.489819 L 400.550400,244.584307 L 402.336000,236.596087 L 404.121600,238.867203 L 405.907200,232.042058 L 407.692800,230.421623 L 409.478400,232.919937 L 411.264000,233.158751 L 413.049600,231.953614 L 414.835200,231.349798 L 416.620800,223.442192 L 418.406400,220.606248 L 420.192000,218.812471 L 421.977600,216.337526 L 423.763200,202.483477 L 425.548800,189.914757 L 427.334400,184.336091 L 429.120000,188.308718 L 430.905600,197.023530 L 432.691200,198.324037 L 434.476800,197.338721 L 436.262400,195.602631 L 438.048000,198.501191 L 439.833600,212.760838 L 441.619200,211.931257 L 443.404800,212.189002 L 445.190400,208.099860 L 446.976000,205.254188 L 448.761600,199.052691 L 450.547200,200.175616 L 452.332800,202.143481 L 454.118400,203.160336 L 455.904000,203.920757 L 457.689600,204.903804 L 459.475200,198.442134 L 461.260800,208.561025 L 463.046400,202.860298 L 464.832000,193.531321 L 466.617600,185.140937 L 468.403200,184.392197 L 470.188800,191.924352 L 471.974400,193.195731 L 473.760000,181.066058 L 475.545600,182.501058 L 477.331200,187.213194 L 479.116800,175.014871 L 480.902400,166.371943 L 482.688000,162.639276 L 484.473600,165.234930 L 486.259200,169.526773 L 488.044800,147.129764 L 489.830400,140.075160 L 491.616000,148.221411 L 493.401600,145.011183 L 495.187200,147.413014 L 496.972800,134.432335 L 498.758400,114.668158 L 500.544000,132.084220 L 502.329600,144.149289 L 504.115200,128.364294 L 505.900800,129.532073 L 507.686400,91.220197 L 509.472000,98.313169 L 511.257600,104.495357 L 513.043200,90.413167 L 514.828800,101.087913 L 516.614400,100.835197 L 518.400000,110.779046 "/>
<path style="fill: none; stroke: #008000; stroke-width: 1.000000; stroke-linejoin: miter; stroke-linecap: square;  opacity: 1.000000; clip-path:url(#789695421804425603);" d="M 72.000000,269.094682 L 73.785600,273.857981 L 75.571200,277.303181 L 77.356800,275.849323 L 79.142400,277.116224 L 80.928000,278.158623 L 82.713600,281.486012 L 84.499200,283.393575 L 86.284800,275.769816 L 88.070400,280.318712 L 89.856000,279.155216 L 91.641600,277.766768 L 93.427200,274.688689 L 95.212800,274.611688 L 96.998400,270.429190 L 98.784000,263.279269 L 100.569600,263.028729 L 102.355200,258.497545 L 104.140800,254.958077 L 105.926400,253.565116 L 107.712000,260.585843 L 109.497600,260.590460 L 111.283200,264.731887 L 113.068800,266.851569 L 114.854400,275.542735 L 116.640000,269.035486 L 118.425600,274.981482 L 120.211200,274.538874 L 121.996800,273.200667 L 123.782400,272.584972 L 125.568000,275.562079 L 127.353600,277.087120 L 129.139200,279.400735 L 130.924800,280.090745 L 132.710400,283.277109 L 134.496000,285.566662 L 136.281600,287.884891 L 138.067200,290.087690 L 139.852800,291.090626 L 141.638400,291.306605 L 143.424000,293.460261 L 145.209600,291.527261 L 146.995200,292.560382 L 148.780800,286.765280 L 150.566400,286.087502 L 152.352000,279.586844 L 154.137600,279.139312 L 155.923200,278.365632 L 157.708800,283.474859 L 159.494400,280.860848 L 161.280000,282.103195 L 163.065600,273.562273 L 164.851200,276.497324 L 166.636800,277.094079 L 168.422400,282.907786 L 170.208000,284.974686 L 171.993600,285.963409 L 173.779200,280.888023 L 175.564800,280.065834 L 177.350400,280.981783 L 179.136000,282.576699 L 180.921600,280.143318 L 182.707200,279.494441 L 184.492800,282.484872 L 186.278400,284.477773 L 188.064000,284.841631 L 189.849600,286.069314 L 191.635200,284.478866 L 193.420800,282.441905 L 195.206400,284.172256 L 196.992000,284.472549 L 198.777600,282.025715 L 200.563200,285.849807 L 202.348800,291.561181 L 204.134400,290.201091 L 205.920000,288.658310 L 207.705600,290.680140 L 209.491200,290.894342 L 211.276800,291.291236 L 213.062400,289.294408 L 214.848000,285.730873 L 216.633600,283.300699 L 218.419200,283.203525 L 220.204800,283.519619 L 221.990400,291.431346 L 223.776000,289.388648 L 225.561600,289.383279 L 227.347200,289.251450 L 229.132800,290.334550 L 230.918400,296.771946 L 232.704000,299.445194 L 234.489600,298.892944 L 236.275200,298.558276 L 238.060800,297.796919 L 239.846400,297.020710 L 241.632000,303.220520 L 243.417600,299.468876 L 245.203200,299.621313 L 246.988800,298.142771 L 248.774400,297.401915 L 250.560000,295.805713 L 252.345600,297.253608 L 254.131200,297.856480 L 255.916800,294.047459 L 257.702400,292.364167 L 259.488000,291.387948 L 261.273600,291.473339 L 263.059200,290.217834 L 264.844800,291.736471 L 266.630400,295.055656 L 268.416000,294.920318 L 270.201600,291.332017 L 271.987200,294.586271 L 273.772800,296.185419 L 275.558400,297.653971 L 277.344000,296.603446 L 279.129600,297.670181 L 280.915200,296.201425 L 282.700800,297.506670 L 284.486400,301.557190 L 286.272000,304.061484 L 288.057600,304.085187 L 289.843200,304.936802 L 291.628800,302.501571 L 293.414400,302.127657 L 295.200000,300.819415 L 296.985600,302.222779 L 298.771200,304.802293 L 300.556800,304.950760 L 302.342400,302.834300 L 304.128000,303.062822 L 305.913600,301.755863 L 307.699200,303.185414 L 309.484800,306.044713 L 311.270400,306.185279 L 313.056000,302.614475 L 314.841600,300.473271 L 316.627200,301.860421 L 318.412800,300.055386 L 320.198400,299.494084 L 321.984000,297.138303 L 323.769600,297.185584 L 325.555200,297.867231 L 327.340800,298.297397 L 329.126400,300.511887 L 330.912000,299.376592 L 332.697600,302.646896 L 334.483200,301.853379 L 336.268800,305.100117 L 338.054400,303.615507 L 339.840000,299.757762 L 341.625600,298.470967 L 343.411200,297.439906 L 345.196800,299.044423 L 346.982400,296.139834 L 348.768000,295.788048 L 350.553600,290.914570 L 352.339200,295.446486 L 354.124800,289.712984 L 355.910400,290.273229 L 357.696000,288.688527 L 359.481600,281.609584 L 361.267200,281.963439 L 363.052800,279.857639 L 364.838400,277.828769 L 366.624000,276.302251 L 368.409600,279.554146 L 370.195200,280.314789 L 371.980800,275.845236 L 373.766400,270.867834 L 375.552000,267.681222 L 377.337600,269.804805 L 379.123200,263.117875 L 380.908800,267.908806 L 382.694400,263.050083 L 384.480000,267.726737 L 386.265600,263.338605 L 388.051200,271.277139 L 389.836800,269.347468 L 391.622400,261.585216 L 393.408000,263.152757 L 395.193600,261.267359 L 396.979200,252.844009 L 398.764800,252.985447 L 400.550400,241.387912 L 402.336000,243.499175 L 404.121600,239.562384 L 405.907200,236.031085 L 407.692800,227.254883 L 409.478400,232.625149 L 411.264000,221.806536 L 413.049600,224.180868 L 414.835200,224.898772 L 416.620800,214.944664 L 418.406400,213.589554 L 420.192000,222.106920 L 421.977600,219.807389 L 423.763200,216.844355 L 425.548800,197.064297 L 427.334400,189.042004 L 429.120000,199.616461 L 430.905600,196.518114 L 432.691200,188.511361 L 434.476800,190.818991 L 436.262400,196.990679 L 438.048000,188.411826 L 439.833600,197.048685 L 441.619200,202.150476 L 443.404800,210.174381 L 445.190400,213.343455 L 446.976000,213.239292 L 448.761600,217.876557 L 450.547200,208.661952 L 452.332800,202.816127 L 454.118400,210.019662 L 455.904000,206.615140 L 457.689600,211.619000 L 459.475200,213.481479 L 461.260800,214.724218 L 463.046400,213.037196 L 464.832000,202.960911 L 466.617600,194.022831 L 468.403200,184.494786 L 470.188800,182.423679 L 471.974400,190.084215 L 473.760000,179.918642 L 475.545600,165.995771 L 477.331200,169.889175 L 479.116800,173.377280 L 480.902400,166.524871 L 482.688000,166.993864 L 484.473600,164.986532 L 486.259200,177.569332 L 488.044800,173.586619 L 489.830400,151.596860 L 491.616000,138.102273 L 493.401600,144.515295 L 495.187200,146.295824 L 496.972800,142.077399 L 498.758400,119.697161 L 500.544000,132.403495 L 502.329600,144.938641 L 504.115200,129.665331 L 505.900800,133.444002 L 507.686400,89.497229 L 509.472000,88.362751 L 511.257600,94.432490 L 513.043200,101.410563 L 514.828800,93.468631 L 516.614400,97.110102 L 518.400000,105.244141 "/>
<path style="fill: none; stroke: #ff0000; stroke-width: 1.000000; stroke-linejoin: miter; stroke-linecap: square;  opacity: 1.000000; clip-path:url(#789695421804425603);" d="M 72.000000,249.672459 L 73.785600,324.119900 L 75.571200,307.579017 L 77.356800,266.523342 L 79.142400,285.686389 L 80.928000,284.852338 L 82.713600,301.962880 L 84.499200,295.698943 L 86.284800,235.090582 L 88.070400,303.491402 L 89.856000,273.235573 L 91.641600,270.988469 L 93.427200,260.515934 L 95.212800,274.336589 L 96.998400,252.756027 L 98.784000,236.700933 L 100.569600,262.148434 L 102.355200,242.937966 L 104.140800,243.487210 L 105.926400,249.175799 L 107.712000,285.293953 L 109.497600,260.782998 L 111.283200,281.241170 L 113.068800,275.948123 L 114.854400,317.479376 L 116.640000,238.713524 L 118.425600,302.707434 L 120.211200,272.603320 L 121.996800,267.120576 L 123.782400,269.943979 L 125.568000,289.610390 L 127.353600,284.805322 L 129.139200,291.565555 L 130.924800,283.977256 L 132.710400,301.307909 L 134.496000,299.574225 L 136.281600,302.916036 L 138.067200,305.245125 L 139.852800,298.386976 L 141.638400,293.082788 L 143.424000,309.117355 L 145.209600,278.272054 L 146.995200,299.731153 L 148.780800,251.761299 L 150.566400,282.421731 L 152.352000,247.988226 L 154.137600,277.075311 L 155.923200,274.843817 L 157.708800,309.266192 L 159.494400,267.382804 L 161.280000,288.597671 L 163.065600,234.487317 L 164.851200,289.284783 L 166.636800,279.966575 L 168.422400,313.296549 L 170.208000,297.246677 L 171.993600,292.154907 L 173.779200,253.295773 L 175.564800,276.050737 L 177.350400,285.676294 L 179.136000,291.098206 L 180.921600,267.720704 L 182.707200,276.384103 L 184.492800,298.081560 L 186.278400,295.810519 L 188.064000,287.134119 L 189.849600,293.447879 L 191.635200,275.537024 L 193.420800,271.651311 L 195.206400,293.554985 L 196.992000,286.279597 L 198.777600,269.125816 L 200.563200,307.018506 L 202.348800,329.034151 L 204.134400,281.177964 L 205.920000,279.070552 L 207.705600,303.719692 L 209.491200,292.499874 L 211.276800,294.086506 L 213.062400,276.870245 L 214.848000,265.652262 L 216.633600,270.793538 L 218.419200,282.729444 L 220.204800,285.210136 L 221.990400,339.751673 L 223.776000,276.175109 L 225.561600,289.528915 L 227.347200,288.593767 L 229.132800,297.314956 L 230.918400,344.315303 L 232.704000,323.163737 L 234.489600,294.417993 L 236.275200,296.051779 L 238.060800,291.938845 L 239.846400,291.285049 L 241.632000,357.575989 L 243.417600,266.231816 L 245.203200,301.006116 L 246.988800,286.863291 L 248.774400,292.062658 L 250.560000,284.754964 L 252.345600,307.470886 L 254.131200,302.422132 L 255.916800,268.058812 L 257.702400,281.980078 L 259.488000,285.562284 L 261.273600,292.007956 L 263.059200,282.808301 L 264.844800,301.028721 L 266.630400,317.622356 L 268.416000,294.161152 L 270.201600,267.964944 L 271.987200,316.088035 L 273.772800,307.984215 L 275.558400,309.178799 L 277.344000,288.803422 L 279.129600,305.942001 L 280.915200,285.464036 L 282.700800,307.292760 L 284.486400,335.726513 L 286.272000,328.728421 L 288.057600,304.715385 L 289.843200,313.874262 L 291.628800,279.877743 L 293.414400,299.054135 L 295.200000,290.214498 L 296.985600,313.879596 L 298.771200,328.616672 L 300.556800,306.658429 L 302.342400,283.842026 L 304.128000,305.135647 L 305.913600,290.980296 L 307.699200,315.280560 L 309.484800,333.256997 L 311.270400,307.886972 L 313.056000,270.495331 L 314.841600,283.869565 L 316.627200,312.597050 L 318.412800,286.200813 L 320.198400,295.380566 L 321.984000,280.741585 L 323.769600,297.493350 L 325.555200,302.664427 L 327.340800,301.493779 L 329.126400,317.823172 L 330.912000,290.566723 L 332.697600,330.198546 L 334.483200,295.128521 L 336.268800,335.653322 L 338.054400,289.689019 L 339.840000,268.305706 L 341.625600,289.158293 L 343.411200,290.262380 L 345.196800,310.589719 L 346.982400,275.846505 L 348.768000,293.467558 L 350.553600,261.513580 L 352.339200,323.546382 L 354.124800,254.856868 L 355.910400,293.422413 L 357.696000,279.738243 L 359.481600,246.426428 L 361.267200,283.549487 L 363.052800,270.022873 L 364.838400,268.659982 L 366.624000,269.572152 L 368.409600,294.837061 L 370.195200,284.259983 L 371.980800,254.821604 L 373.766400,250.084788 L 375.552000,255.384188 L 377.337600,278.233694 L 379.123200,237.907363 L 380.908800,286.302667 L 382.694400,244.507074 L 384.480000,286.154454 L 386.265600,246.294188 L 388.051200,304.563578 L 389.836800,261.015721 L 391.622400,231.777152 L 393.408000,268.930013 L 395.193600,254.427108 L 396.979200,225.079637 L 398.764800,253.468882 L 400.550400,208.345496 L 402.336000,249.333682 L 404.121600,228.770317 L 405.907200,226.765227 L 407.692800,205.926972 L 409.478400,246.010810 L 411.264000,196.210103 L 413.049600,229.740206 L 414.835200,226.748536 L 416.620800,192.928733 L 418.406400,210.844511 L 420.192000,241.592227 L 421.977600,214.589916 L 423.763200,210.335019 L 425.548800,159.204462 L 427.334400,175.569339 L 429.120000,218.841086 L 430.905600,190.865300 L 432.691200,174.582478 L 434.476800,194.968517 L 436.262400,208.504487 L 438.048000,173.273191 L 439.833600,212.876408 L 441.619200,212.302718 L 443.404800,227.200397 L 445.190400,220.530176 L 446.976000,213.192541 L 448.761600,228.516981 L 450.547200,189.106758 L 452.332800,191.530028 L 454.118400,224.724406 L 455.904000,199.773296 L 457.689600,222.254187 L 459.475200,217.708113 L 461.260800,217.632223 L 463.046400,209.525590 L 464.832000,182.950525 L 466.617600,177.992887 L 468.403200,168.721666 L 470.188800,179.201660 L 471.974400,203.347739 L 473.760000,163.134225 L 475.545600,145.489311 L 477.331200,175.725115 L 479.116800,178.885956 L 480.902400,156.465282 L 482.688000,167.846596 L 484.473600,162.238167 L 486.259200,197.265657 L 488.044800,167.471004 L 489.830400,121.413810 L 491.616000,121.867491 L 493.401600,152.534698 L 495.187200,148.751012 L 496.972800,136.976785 L 498.758400,94.703659 L 500.544000,146.830715 L 502.329600,160.658361 L 504.115200,111.614868 L 505.900800,138.004775 L 507.686400,46.100782 L 509.472000,87.487992 L 511.257600,100.244795 L 513.043200,108.326412 L 514.828800,86.138952 L 516.614400,100.748922 L 518.400000,113.413884 "/>
<g id="matplotlib.axis1">
<g id="xtick1">
<text style="font-size: 12.000000; font-family: Bitstream Vera Sans; font-style: Roman; fill: #000000;" x="68.937500" y="401.800000" >0</text>
</g>
<g id="xtick2">
<path style="fill: none; stroke: #000000; stroke-width: 0.500000; stroke-linejoin: miter; stroke-linecap: butt;  opacity: 1.000000; " d="M 161.280000,388.800000 L 161.280000,384.800000"/>
<path style="fill: none; stroke: #000000; stroke-width: 0.500000; stroke-linejoin: miter; stroke-linecap: butt;  opacity: 1.000000; " d="M 161.280000,47.200000 L 161.280000,43.200000"/>
<text style="font-size: 12.000000; font-family: Bitstream Vera Sans; font-style: Roman; fill: #000000;" x="154.717500" y="401.800000" >50</text>
</g>
<g id="xtick3">
<path style="fill: none; stroke: #000000; stroke-width: 0.500000; stroke-linejoin: miter; stroke-linecap: butt;  opacity: 1.000000; " d="M 250.560000,388.800000 L 250.560000,384.800000"/>
<path style="fill: none; stroke: #000000; stroke-width: 0.500000; stroke-linejoin: miter; stroke-linecap: butt;  opacity: 1.000000; " d="M 250.560000,47.200000 L 250.560000,43.200000"/>
<text style="font-size: 12.000000; font-family: Bitstream Vera Sans; font-style: Roman; fill: #000000;" x="240.075625" y="401.800000" >100</text>
</g>
<g id="xtick4">
<path style="fill: none; stroke: #000000; stroke-width: 0.500000; stroke-linejoin: miter; stroke-linecap: butt;  opacity: 1.000000; " d="M 339.840000,388.800000 L 339.840000,384.800000"/>
<path style="fill: none; stroke: #000000; stroke-width: 0.500000; stroke-linejoin: miter; stroke-linecap: butt;  opacity: 1.000000; " d="M 339.840000,47.200000 L 339.840000,43.200000"/>
<text style="font-size: 12.000000; font-family: Bitstream Vera Sans; font-style: Roman; fill: #000000;" x="329.855625" y="401.800000" >150</text>
</g>
<g id="xtick5">
<path style="fill: none; stroke: #000000; stroke-width: 0.500000; stroke-linejoin: miter; stroke-linecap: butt;  opacity: 1.000000; " d="M 429.120000,388.800000 L 429.120000,384.800000"/>
<path style="fill: none; stroke: #000000; stroke-width: 0.500000; stroke-linejoin: miter; stroke-linecap: butt;  opacity: 1.000000; " d="M 429.120000,47.200000 L 429.120000,43.200000"/>
<text style="font-size: 12.000000; font-family: Bitstream Vera Sans; font-style: Roman; fill: #000000;" x="418.135625" y="401.800000" >200</text>
</g>
<g id="xtick6">
<text style="font-size: 12.000000; font-family: Bitstream Vera Sans; font-style: Roman; fill: #000000;" x="507.915625" y="401.800000" >250</text>
</g>
<text style="font-size: 12.000000; font-family: Bitstream Vera Sans; font-style: Roman; fill: #000000;" x="292.637500" y="413.800000" >n</text>
</g>
<g id="matplotlib.axis2">
<g id="ytick1">
<text style="font-size: 12.000000; font-family: Bitstream Vera Sans; font-style: Roman; fill: #000000;" x="58.031250" y="393.300000" >-5</text>
</g>
<g id="ytick2">
<path style="fill: none; stroke: #000000; stroke-width: 0.500000; stroke-linejoin: miter; stroke-linecap: butt;  opacity: 1.000000; " d="M 72.000000,339.428571 L 76.000000,339.428571"/>
<path style="fill: none; stroke: #000000; stroke-width: 0.500000; stroke-linejoin: miter; stroke-linecap: butt;  opacity: 1.000000; " d="M 514.400000,339.428571 L 518.400000,339.428571"/>
<text style="font-size: 12.000000; font-family: Bitstream Vera Sans; font-style: Roman; fill: #000000;" x="61.875000" y="343.928571" >0</text>
</g>
<g id="ytick3">
<path style="fill: none; stroke: #000000; stroke-width: 0.500000; stroke-linejoin: miter; stroke-linecap: butt;  opacity: 1.000000; " d="M 72.000000,290.057143 L 76.000000,290.057143"/>
<path style="fill: none; stroke: #000000; stroke-width: 0.500000; stroke-linejoin: miter; stroke-linecap: butt;  opacity: 1.000000; " d="M 514.400000,290.057143 L 518.400000,290.057143"/>
<text style="font-size: 12.000000; font-family: Bitstream Vera Sans; font-style: Roman; fill: #000000;" x="62.875000" y="294.557143" >5</text>
</g>
<g id="ytick4">
<path style="fill: none; stroke: #000000; stroke-width: 0.500000; stroke-linejoin: miter; stroke-linecap: butt;  opacity: 1.000000; " d="M 72.000000,240.685714 L 76.000000,240.685714"/>
<path style="fill: none; stroke: #000000; stroke-width: 0.500000; stroke-linejoin: miter; stroke-linecap: butt;  opacity: 1.000000; " d="M 514.400000,240.685714 L 518.400000,240.685714"/>
<text style="font-size: 12.000000; font-family: Bitstream Vera Sans; font-style: Roman; fill: #000000;" x="55.031250" y="245.185714" >10</text>
</g>
<g id="ytick5">
<path style="fill: none; stroke: #000000; stroke-width: 0.500000; stroke-linejoin: miter; stroke-linecap: butt;  opacity: 1.000000; " d="M 72.000000,191.314286 L 76.000000,191.314286"/>
<path style="fill: none; stroke: #000000; stroke-width: 0.500000; stroke-linejoin: miter; stroke-linecap: butt;  opacity: 1.000000; " d="M 514.400000,191.314286 L 518.400000,191.314286"/>
<text style="font-size: 12.000000; font-family: Bitstream Vera Sans; font-style: Roman; fill: #000000;" x="56.031250" y="195.814286" >15</text>
</g>
<g id="ytick6">
<path style="fill: none; stroke: #000000; stroke-width: 0.500000; stroke-linejoin: miter; stroke-linecap: butt;  opacity: 1.000000; " d="M 72.000000,141.942857 L 76.000000,141.942857"/>
<path style="fill: none; stroke: #000000; stroke-width: 0.500000; stroke-linejoin: miter; stroke-linecap: butt;  opacity: 1.000000; " d="M 514.400000,141.942857 L 518.400000,141.942857"/>
<text style="font-size: 12.000000; font-family: Bitstream Vera Sans; font-style: Roman; fill: #000000;" x="54.031250" y="146.442857" >20</text>
</g>
<g id="ytick7">
<path style="fill: none; stroke: #000000; stroke-width: 0.500000; stroke-linejoin: miter; stroke-linecap: butt;  opacity: 1.000000; " d="M 72.000000,92.571429 L 76.000000,92.571429"/>
<path style="fill: none; stroke: #000000; stroke-width: 0.500000; stroke-linejoin: miter; stroke-linecap: butt;  opacity: 1.000000; " d="M 514.400000,92.571429 L 518.400000,92.571429"/>
<text style="font-size: 12.000000; font-family: Bitstream Vera Sans; font-style: Roman; fill: #000000;" x="55.031250" y="97.071429" >25</text>
</g>
<g id="ytick8">
<text style="font-size: 12.000000; font-family: Bitstream Vera Sans; font-style: Roman; fill: #000000;" x="54.296875" y="47.700000" >30</text>
</g>
</g>
<path style="fill: none; stroke: #000000; stroke-width: 1.000000; stroke-linejoin: miter; stroke-linecap: square;  opacity: 1.000000; " d="M 72.000000,388.800000 L 518.400000,388.800000 L 518.400000,43.200000 L 72.000000,43.200000 L 72.000000,388.800000 "/>
<text style="font-size: 14.000000; font-family: Bitstream Vera Sans; font-style: Roman; fill: #000000;" x="52.668750" y="36.288000" >Hw12, No 3. continuous state space filtering. gap=0.15, mse=0.5118</text>
<g id="legend1">
<polygon style="fill: #ffffff; stroke: #000000; stroke-width: 1.000000; stroke-linejoin: miter; stroke-linecap: square;  opacity: 1.000000; " points = "377.680650,114.365280 377.680650,50.112000 509.472000,50.112000 509.472000,114.365280"/>
<path style="fill: none; stroke: #0000ff; stroke-width: 1.000000; stroke-linejoin: miter; stroke-linecap: square;  opacity: 1.000000; " d="M 391.663262,62.536752 L 399.103263,62.536752 L 406.543262,62.536752 L 413.983263,62.536752 "/>
<path style="fill: none; stroke: #008000; stroke-width: 1.000000; stroke-linejoin: miter; stroke-linecap: square;  opacity: 1.000000; " d="M 391.663262,82.238640 L 399.103263,82.238640 L 406.543262,82.238640 L 413.983263,82.238640 "/>
<path style="fill: none; stroke: #ff0000; stroke-width: 1.000000; stroke-linejoin: miter; stroke-linecap: square;  opacity: 1.000000; " d="M 391.663262,101.940527 L 399.103263,101.940527 L 406.543262,101.940527 L 413.983263,101.940527 "/>
<text style="font-size: 14.000000; font-family: Bitstream Vera Sans; font-style: Roman; fill: #000000;" x="422.911263" y="69.607065" >Xn_list</text>
<text style="font-size: 14.000000; font-family: Bitstream Vera Sans; font-style: Roman; fill: #000000;" x="422.911263" y="89.308952" >Xn_hat_list</text>
<text style="font-size: 14.000000; font-family: Bitstream Vera Sans; font-style: Roman; fill: #000000;" x="422.911263" y="109.010840" >Yn_list</text>
</g>
</g>
</g>
</svg>
