<?xml version="1.0" standalone="no"?>
<!DOCTYPE svg PUBLIC "-//W3C//DTD SVG 1.1//EN"
  "http://www.w3.org/Graphics/SVG/1.1/DTD/svg11.dtd">
<!-- Created with matplotlib (http://matplotlib.sourceforge.net/) -->
<svg width="576" height="432" viewBox="0 0 576 432"
   xmlns="http://www.w3.org/2000/svg"
   xmlns:xlink="http://www.w3.org/1999/xlink"
   version="1.1"
   id="svg1">
<g id="figure1">
<polygon style="fill: #ffffff; stroke: #ffffff; stroke-width: 1.000000; stroke-linejoin: miter; stroke-linecap: square;  opacity: 1.000000; " points = "0.000000,432.000000 0.000000,0.000000 576.000000,0.000000 576.000000,432.000000"/>
<g id="axes1">
<polygon style="fill: #ffffff; stroke: #000000; stroke-width: 1.000000; stroke-linejoin: miter; stroke-linecap: square;  opacity: 1.000000; " points = "72.000000,388.800000 72.000000,43.200000 518.400000,43.200000 518.400000,388.800000"/>
<defs>
    <clipPath id="789695421804425603">
    <rect x="72.000000" y="43.200000" width="446.400000" height="345.600000"
    style="stroke: gray; fill: none;"/>
    </clipPath>
</defs>
<path style="fill: none; stroke: #0000ff; stroke-width: 1.000000; stroke-linejoin: miter; stroke-linecap: square;  opacity: 1.000000; clip-path:url(#789695421804425603);" d="M 72.000000,305.160430 L 73.785600,307.561417 L 75.571200,309.610948 L 77.356800,313.160356 L 79.142400,309.080759 L 80.928000,312.552054 L 82.713600,319.733550 L 84.499200,322.186396 L 86.284800,311.446394 L 88.070400,308.405095 L 89.856000,302.638346 L 91.641600,296.758601 L 93.427200,293.017054 L 95.212800,294.888897 L 96.998400,283.021262 L 98.784000,281.351478 L 100.569600,276.872634 L 102.355200,283.704303 L 104.140800,285.017750 L 105.926400,272.975771 L 107.712000,284.823810 L 109.497600,288.332916 L 111.283200,282.671134 L 113.068800,270.480802 L 114.854400,270.914801 L 116.640000,269.774684 L 118.425600,269.342992 L 120.211200,254.767936 L 121.996800,241.499646 L 123.782400,243.779043 L 125.568000,234.392392 L 127.353600,238.975849 L 129.139200,234.891647 L 130.924800,217.486431 L 132.710400,223.884701 L 134.496000,225.387241 L 136.281600,229.473369 L 138.067200,219.609620 L 139.852800,219.018260 L 141.638400,223.995217 L 143.424000,235.538708 L 145.209600,248.257550 L 146.995200,243.976828 L 148.780800,246.638969 L 150.566400,235.940848 L 152.352000,253.346071 L 154.137600,248.187068 L 155.923200,252.174179 L 157.708800,241.695237 L 159.494400,236.302104 L 161.280000,241.170257 L 163.065600,235.003213 L 164.851200,237.054272 L 166.636800,232.131412 L 168.422400,237.625669 L 170.208000,242.977207 L 171.993600,232.589134 L 173.779200,240.412720 L 175.564800,243.883003 L 177.350400,238.821285 L 179.136000,243.139621 L 180.921600,236.017216 L 182.707200,242.227400 L 184.492800,230.102687 L 186.278400,229.311596 L 188.064000,221.220150 L 189.849600,219.165948 L 191.635200,228.061386 L 193.420800,235.421181 L 195.206400,250.638726 L 196.992000,241.334994 L 198.777600,262.807833 L 200.563200,260.035154 L 202.348800,240.940204 L 204.134400,232.279757 L 205.920000,221.642415 L 207.705600,202.792113 L 209.491200,195.035079 L 211.276800,198.314541 L 213.062400,223.878132 L 214.848000,219.078002 L 216.633600,208.491072 L 218.419200,221.355755 L 220.204800,223.635525 L 221.990400,239.212401 L 223.776000,232.266076 L 225.561600,236.000189 L 227.347200,247.640969 L 229.132800,239.070451 L 230.918400,232.159434 L 232.704000,235.888066 L 234.489600,231.659308 L 236.275200,244.256256 L 238.060800,248.731434 L 239.846400,258.424773 L 241.632000,254.353781 L 243.417600,248.296802 L 245.203200,244.425495 L 246.988800,236.070767 L 248.774400,242.351216 L 250.560000,238.373443 L 252.345600,248.719969 L 254.131200,257.682912 L 255.916800,267.523221 L 257.702400,257.832908 L 259.488000,260.111988 L 261.273600,264.825053 L 263.059200,269.298617 L 264.844800,270.199914 L 266.630400,266.061487 L 268.416000,270.482850 L 270.201600,259.163022 L 271.987200,250.762397 L 273.772800,253.528304 L 275.558400,251.454022 L 277.344000,262.182500 L 279.129600,256.089697 L 280.915200,249.475351 L 282.700800,249.968926 L 284.486400,247.410664 L 286.272000,239.000410 L 288.057600,256.730950 L 289.843200,246.775445 L 291.628800,249.634110 L 293.414400,246.888804 L 295.200000,257.067746 L 296.985600,260.602952 L 298.771200,258.747146 L 300.556800,271.542672 L 302.342400,280.769817 L 304.128000,278.127014 L 305.913600,280.555748 L 307.699200,282.071564 L 309.484800,279.965404 L 311.270400,283.636652 L 313.056000,290.689135 L 314.841600,283.150485 L 316.627200,286.616396 L 318.412800,282.788198 L 320.198400,280.646873 L 321.984000,279.135840 L 323.769600,270.745672 L 325.555200,273.491159 L 327.340800,270.818382 L 329.126400,265.819425 L 330.912000,259.686669 L 332.697600,251.006529 L 334.483200,265.932767 L 336.268800,263.988230 L 338.054400,266.006377 L 339.840000,269.184404 L 341.625600,266.649374 L 343.411200,267.488249 L 345.196800,265.637591 L 346.982400,267.730412 L 348.768000,239.934704 L 350.553600,245.649730 L 352.339200,263.768248 L 354.124800,269.200100 L 355.910400,266.748283 L 357.696000,264.045419 L 359.481600,263.050251 L 361.267200,265.260810 L 363.052800,267.256783 L 364.838400,270.985769 L 366.624000,264.316451 L 368.409600,263.354538 L 370.195200,253.186936 L 371.980800,244.065463 L 373.766400,235.076724 L 375.552000,239.708061 L 377.337600,241.107769 L 379.123200,220.030999 L 380.908800,212.559691 L 382.694400,207.056011 L 384.480000,199.149475 L 386.265600,186.847099 L 388.051200,167.957164 L 389.836800,179.943279 L 391.622400,179.268624 L 393.408000,191.234123 L 395.193600,193.615271 L 396.979200,185.751706 L 398.764800,185.895328 L 400.550400,180.089353 L 402.336000,176.817661 L 404.121600,173.587634 L 405.907200,152.502925 L 407.692800,131.684369 L 409.478400,135.338485 L 411.264000,125.889137 L 413.049600,119.815579 L 414.835200,126.187579 L 416.620800,120.225479 L 418.406400,134.925751 L 420.192000,137.304893 L 421.977600,147.989480 L 423.763200,169.534269 L 425.548800,170.972967 L 427.334400,169.016293 L 429.120000,167.709559 L 430.905600,164.760209 L 432.691200,181.335318 L 434.476800,185.915672 L 436.262400,196.952120 L 438.048000,188.813641 L 439.833600,185.935901 L 441.619200,179.514405 L 443.404800,149.704252 L 445.190400,158.379202 L 446.976000,155.457102 L 448.761600,157.897289 L 450.547200,143.235052 L 452.332800,163.618097 L 454.118400,171.153429 L 455.904000,178.968106 L 457.689600,188.204803 L 459.475200,218.277178 L 461.260800,226.860797 L 463.046400,231.364710 L 464.832000,241.650900 L 466.617600,245.616779 L 468.403200,249.790326 L 470.188800,241.824980 L 471.974400,244.224892 L 473.760000,237.310816 L 475.545600,256.206653 L 477.331200,254.880389 L 479.116800,232.043758 L 480.902400,234.911805 L 482.688000,230.333983 L 484.473600,224.454647 L 486.259200,219.993978 L 488.044800,221.050567 L 489.830400,213.251415 L 491.616000,227.380499 L 493.401600,236.122824 L 495.187200,236.535593 L 496.972800,229.009253 L 498.758400,232.870036 L 500.544000,239.878126 L 502.329600,226.353794 L 504.115200,207.404561 L 505.900800,205.491631 L 507.686400,190.684602 L 509.472000,174.953678 L 511.257600,179.928292 L 513.043200,197.783648 L 514.828800,199.075774 L 516.614400,185.214667 L 518.400000,209.484208 "/>
<path style="fill: none; stroke: #008000; stroke-width: 1.000000; stroke-linejoin: miter; stroke-linecap: square;  opacity: 1.000000; clip-path:url(#789695421804425603);" d="M 72.000000,293.205594 L 73.785600,294.220988 L 75.571200,297.311635 L 77.356800,297.175563 L 79.142400,304.362700 L 80.928000,308.241949 L 82.713600,309.784263 L 84.499200,309.054471 L 86.284800,311.544404 L 88.070400,312.129046 L 89.856000,309.577900 L 91.641600,311.565293 L 93.427200,316.296992 L 95.212800,315.127958 L 96.998400,309.484368 L 98.784000,302.330971 L 100.569600,286.746007 L 102.355200,294.379162 L 104.140800,298.560520 L 105.926400,286.361456 L 107.712000,286.403696 L 109.497600,284.213014 L 111.283200,289.419627 L 113.068800,284.215093 L 114.854400,284.042834 L 116.640000,268.682255 L 118.425600,283.110206 L 120.211200,279.285217 L 121.996800,272.994429 L 123.782400,274.611475 L 125.568000,277.979943 L 127.353600,268.678607 L 129.139200,271.662727 L 130.924800,250.923323 L 132.710400,237.004465 L 134.496000,230.739843 L 136.281600,227.699416 L 138.067200,230.708044 L 139.852800,236.014831 L 141.638400,232.795720 L 143.424000,244.514979 L 145.209600,252.072715 L 146.995200,249.296421 L 148.780800,247.214020 L 150.566400,255.470975 L 152.352000,261.845289 L 154.137600,253.037493 L 155.923200,251.098519 L 157.708800,260.046309 L 159.494400,252.167243 L 161.280000,243.927903 L 163.065600,250.518867 L 164.851200,238.884962 L 166.636800,247.280266 L 168.422400,242.461146 L 170.208000,248.046812 L 171.993600,228.259217 L 173.779200,235.642607 L 175.564800,239.249103 L 177.350400,251.728029 L 179.136000,236.152055 L 180.921600,236.835024 L 182.707200,233.905416 L 184.492800,232.245552 L 186.278400,240.556525 L 188.064000,249.331687 L 189.849600,247.633773 L 191.635200,246.699390 L 193.420800,234.527872 L 195.206400,237.537977 L 196.992000,243.217755 L 198.777600,246.128736 L 200.563200,262.909789 L 202.348800,252.888522 L 204.134400,251.993913 L 205.920000,237.727279 L 207.705600,230.262075 L 209.491200,229.980651 L 211.276800,206.096248 L 213.062400,194.230320 L 214.848000,199.742586 L 216.633600,218.038736 L 218.419200,206.146315 L 220.204800,225.475678 L 221.990400,225.928193 L 223.776000,227.607380 L 225.561600,233.185360 L 227.347200,225.814740 L 229.132800,224.707167 L 230.918400,225.906245 L 232.704000,240.417113 L 234.489600,247.517513 L 236.275200,246.212503 L 238.060800,246.868257 L 239.846400,248.103501 L 241.632000,245.729494 L 243.417600,249.513121 L 245.203200,247.664912 L 246.988800,249.169487 L 248.774400,245.402545 L 250.560000,239.432017 L 252.345600,245.804460 L 254.131200,254.274394 L 255.916800,259.171171 L 257.702400,271.647469 L 259.488000,264.797171 L 261.273600,264.833191 L 263.059200,275.530768 L 264.844800,273.166974 L 266.630400,274.795249 L 268.416000,270.282870 L 270.201600,257.273388 L 271.987200,258.915029 L 273.772800,257.711249 L 275.558400,252.955769 L 277.344000,256.325626 L 279.129600,253.416938 L 280.915200,256.587304 L 282.700800,255.842330 L 284.486400,248.686369 L 286.272000,243.479647 L 288.057600,249.702228 L 289.843200,256.386828 L 291.628800,249.385278 L 293.414400,251.048135 L 295.200000,258.989018 L 296.985600,256.187493 L 298.771200,254.848060 L 300.556800,264.416181 L 302.342400,264.926219 L 304.128000,265.471180 L 305.913600,280.481197 L 307.699200,287.650081 L 309.484800,288.975860 L 311.270400,285.004436 L 313.056000,292.067594 L 314.841600,292.456212 L 316.627200,290.423097 L 318.412800,273.388781 L 320.198400,278.513988 L 321.984000,269.846784 L 323.769600,264.918878 L 325.555200,255.421669 L 327.340800,263.008597 L 329.126400,272.882105 L 330.912000,269.807130 L 332.697600,271.295655 L 334.483200,268.711228 L 336.268800,267.943691 L 338.054400,271.364840 L 339.840000,267.375222 L 341.625600,268.056436 L 343.411200,260.935826 L 345.196800,256.127649 L 346.982400,257.196405 L 348.768000,253.077571 L 350.553600,244.786729 L 352.339200,240.360596 L 354.124800,262.422991 L 355.910400,259.830911 L 357.696000,255.808816 L 359.481600,262.281827 L 361.267200,277.952701 L 363.052800,271.418832 L 364.838400,271.199561 L 366.624000,271.874855 L 368.409600,268.586327 L 370.195200,259.835018 L 371.980800,260.261126 L 373.766400,262.470542 L 375.552000,262.389660 L 377.337600,256.648239 L 379.123200,246.979042 L 380.908800,221.797405 L 382.694400,206.800993 L 384.480000,198.701295 L 386.265600,192.582516 L 388.051200,170.550902 L 389.836800,159.424996 L 391.622400,156.779978 L 393.408000,166.398389 L 395.193600,195.082226 L 396.979200,185.342713 L 398.764800,176.098710 L 400.550400,178.928673 L 402.336000,141.540437 L 404.121600,149.124420 L 405.907200,132.091089 L 407.692800,120.252453 L 409.478400,117.937404 L 411.264000,115.625309 L 413.049600,121.885301 L 414.835200,118.664618 L 416.620800,126.102637 L 418.406400,134.287139 L 420.192000,137.600490 L 421.977600,127.521106 L 423.763200,149.073270 L 425.548800,178.189656 L 427.334400,188.192585 L 429.120000,183.251996 L 430.905600,172.450515 L 432.691200,188.224933 L 434.476800,192.463138 L 436.262400,189.191082 L 438.048000,187.222797 L 439.833600,178.367492 L 441.619200,186.356910 L 443.404800,158.362752 L 445.190400,164.140757 L 446.976000,151.328317 L 448.761600,164.403360 L 450.547200,158.819627 L 452.332800,166.473103 L 454.118400,165.292892 L 455.904000,180.110433 L 457.689600,210.838215 L 459.475200,208.018974 L 461.260800,217.173958 L 463.046400,212.345016 L 464.832000,227.400283 L 466.617600,232.753898 L 468.403200,244.178729 L 470.188800,252.308063 L 471.974400,253.617503 L 473.760000,262.336425 L 475.545600,261.185992 L 477.331200,257.695750 L 479.116800,246.724432 L 480.902400,254.245490 L 482.688000,261.000118 L 484.473600,248.523294 L 486.259200,238.332605 L 488.044800,237.856589 L 489.830400,234.456559 L 491.616000,240.135526 L 493.401600,240.208374 L 495.187200,218.718881 L 496.972800,230.254787 L 498.758400,236.841964 L 500.544000,223.021726 L 502.329600,226.750927 L 504.115200,206.928310 L 505.900800,191.924415 L 507.686400,195.996550 L 509.472000,194.280682 L 511.257600,181.065389 L 513.043200,176.143166 L 514.828800,188.456227 L 516.614400,178.279577 L 518.400000,182.280530 "/>
<path style="fill: none; stroke: #ff0000; stroke-width: 1.000000; stroke-linejoin: miter; stroke-linecap: square;  opacity: 1.000000; clip-path:url(#789695421804425603);" d="M 72.000000,311.983106 L 73.785600,307.462182 L 75.571200,323.173606 L 77.356800,297.556709 L 79.142400,351.241378 L 80.928000,334.761002 L 82.713600,320.578494 L 84.499200,305.058028 L 86.284800,327.153099 L 88.070400,316.100652 L 89.856000,295.135784 L 91.641600,323.055195 L 93.427200,345.473771 L 95.212800,308.179374 L 96.998400,278.114215 L 98.784000,268.054269 L 100.569600,226.499986 L 102.355200,323.367912 L 104.140800,316.999564 L 105.926400,236.931199 L 107.712000,286.593040 L 109.497600,276.048367 L 111.283200,310.210382 L 113.068800,263.767349 L 114.854400,283.515215 L 116.640000,216.883853 L 118.425600,334.005839 L 120.211200,264.931960 L 121.996800,251.078311 L 123.782400,280.299251 L 125.568000,290.360591 L 127.353600,236.926094 L 129.139200,281.724624 L 130.924800,190.227247 L 132.710400,203.116889 L 134.496000,216.384661 L 136.281600,220.843925 L 138.067200,237.988598 L 139.852800,249.559954 L 141.638400,224.881063 L 143.424000,276.148249 L 145.209600,274.792837 L 146.995200,241.331224 L 148.780800,241.517250 L 150.566400,280.166781 L 152.352000,282.701296 L 154.137600,226.148277 L 155.923200,245.704047 L 157.708800,287.479471 L 159.494400,228.669290 L 161.280000,221.712248 L 163.065600,268.830619 L 164.851200,208.109948 L 166.636800,269.906757 L 168.422400,229.543169 L 170.208000,263.672623 L 171.993600,178.914825 L 173.779200,253.576794 L 175.564800,248.811921 L 177.350400,287.797924 L 179.136000,194.047281 L 180.921600,238.699447 L 182.707200,226.753318 L 184.492800,228.337238 L 186.278400,262.302753 L 188.064000,274.657111 L 189.849600,242.966081 L 191.635200,244.281908 L 193.420800,203.291382 L 195.206400,245.204789 L 196.992000,258.542415 L 198.777600,254.485106 L 200.563200,316.443448 L 202.348800,221.464942 L 204.134400,249.572620 L 205.920000,200.305853 L 207.705600,212.638623 L 209.491200,229.448033 L 211.276800,156.144511 L 213.062400,172.380327 L 214.848000,210.328903 L 216.633600,257.895535 L 218.419200,180.640789 L 220.204800,269.848504 L 221.990400,227.328511 L 223.776000,231.957925 L 225.561600,247.484530 L 227.347200,208.029447 L 229.132800,222.301974 L 230.918400,228.928012 L 232.704000,278.308699 L 234.489600,268.275882 L 236.275200,242.721969 L 238.060800,248.962611 L 239.846400,251.840543 L 241.632000,239.298419 L 243.417600,260.419761 L 245.203200,242.629959 L 246.988800,253.634632 L 248.774400,235.129579 L 250.560000,223.931768 L 252.345600,263.060236 L 254.131200,279.492943 L 255.916800,274.964833 L 257.702400,316.083238 L 259.488000,241.006187 L 261.273600,265.160597 L 263.059200,314.110132 L 264.844800,264.684520 L 266.630400,280.960049 L 268.416000,254.654341 L 270.201600,217.509512 L 271.987200,263.786600 L 273.772800,254.266441 L 275.558400,239.335932 L 277.344000,266.338307 L 279.129600,245.046339 L 280.915200,266.201327 L 282.700800,253.800384 L 284.486400,228.446932 L 286.272000,229.722994 L 288.057600,266.978901 L 289.843200,276.670254 L 291.628800,229.047484 L 293.414400,255.964261 L 295.200000,283.460062 L 296.985600,247.737661 L 298.771200,251.031062 L 300.556800,295.208848 L 302.342400,266.917370 L 304.128000,267.532754 L 305.913600,337.411449 L 307.699200,319.505758 L 309.484800,295.393395 L 311.270400,268.389875 L 313.056000,323.026055 L 314.841600,294.535898 L 316.627200,281.748856 L 318.412800,211.494949 L 320.198400,296.015484 L 321.984000,240.812514 L 323.769600,249.649437 L 325.555200,228.061577 L 327.340800,285.717510 L 329.126400,306.947821 L 330.912000,259.204463 L 332.697600,276.677155 L 334.483200,260.082307 L 336.268800,265.559204 L 338.054400,283.261534 L 339.840000,254.085224 L 341.625600,270.482996 L 343.411200,238.610355 L 345.196800,242.090077 L 346.982400,260.465481 L 348.768000,241.270681 L 350.553600,222.447970 L 352.339200,229.118132 L 354.124800,328.543135 L 355.910400,251.627909 L 357.696000,243.645324 L 359.481600,282.837606 L 361.267200,336.218406 L 363.052800,247.062608 L 364.838400,270.646704 L 366.624000,274.452145 L 368.409600,257.555262 L 370.195200,232.686484 L 371.980800,261.651398 L 373.766400,269.502877 L 375.552000,262.324407 L 377.337600,239.376682 L 379.123200,220.375936 L 380.908800,164.232853 L 382.694400,177.348203 L 384.480000,183.581652 L 386.265600,181.449615 L 388.051200,133.739074 L 389.836800,142.471948 L 391.622400,152.964293 L 393.408000,181.934025 L 395.193600,248.837890 L 396.979200,166.938976 L 398.764800,160.132890 L 400.550400,184.029838 L 402.336000,85.564058 L 404.121600,160.079418 L 405.907200,108.679513 L 407.692800,105.203138 L 409.478400,115.253602 L 411.264000,112.971598 L 413.049600,130.178827 L 414.835200,114.784111 L 416.620800,136.108263 L 418.406400,145.767053 L 420.192000,142.530808 L 421.977600,114.074945 L 423.763200,180.235340 L 425.548800,227.965886 L 427.334400,207.488717 L 429.120000,174.323042 L 430.905600,154.067346 L 432.691200,216.716426 L 434.476800,200.866590 L 436.262400,183.234058 L 438.048000,183.809983 L 439.833600,162.960025 L 441.619200,200.862073 L 443.404800,112.938083 L 445.190400,173.302749 L 446.976000,132.031534 L 448.761600,185.063666 L 450.547200,150.193645 L 452.332800,179.045406 L 454.118400,163.613063 L 455.904000,206.017451 L 457.689600,275.258429 L 459.475200,202.062484 L 461.260800,238.087312 L 463.046400,201.805196 L 464.832000,263.199494 L 466.617600,246.792956 L 468.403200,276.159057 L 470.188800,277.280643 L 471.974400,257.999673 L 473.760000,291.041820 L 475.545600,257.667851 L 477.331200,246.947583 L 479.116800,215.873193 L 480.902400,275.698023 L 482.688000,282.357794 L 484.473600,212.008383 L 486.259200,212.263368 L 488.044800,236.786327 L 489.830400,226.174233 L 491.616000,254.889428 L 493.401600,240.618138 L 495.187200,168.929450 L 496.972800,256.892159 L 498.758400,253.895706 L 500.544000,189.964816 L 502.329600,235.565102 L 504.115200,164.861100 L 505.900800,164.164949 L 507.686400,203.706375 L 509.472000,191.216093 L 511.257600,157.564203 L 513.043200,167.958230 L 514.828800,210.796690 L 516.614400,160.320208 L 518.400000,189.544012 "/>
<g id="matplotlib.axis1">
<g id="xtick1">
<text style="font-size: 12.000000; font-family: Bitstream Vera Sans; font-style: Roman; fill: #000000;" x="68.937500" y="401.800000" >0</text>
</g>
<g id="xtick2">
<path style="fill: none; stroke: #000000; stroke-width: 0.500000; stroke-linejoin: miter; stroke-linecap: butt;  opacity: 1.000000; " d="M 161.280000,388.800000 L 161.280000,384.800000"/>
<path style="fill: none; stroke: #000000; stroke-width: 0.500000; stroke-linejoin: miter; stroke-linecap: butt;  opacity: 1.000000; " d="M 161.280000,47.200000 L 161.280000,43.200000"/>
<text style="font-size: 12.000000; font-family: Bitstream Vera Sans; font-style: Roman; fill: #000000;" x="154.717500" y="401.800000" >50</text>
</g>
<g id="xtick3">
<path style="fill: none; stroke: #000000; stroke-width: 0.500000; stroke-linejoin: miter; stroke-linecap: butt;  opacity: 1.000000; " d="M 250.560000,388.800000 L 250.560000,384.800000"/>
<path style="fill: none; stroke: #000000; stroke-width: 0.500000; stroke-linejoin: miter; stroke-linecap: butt;  opacity: 1.000000; " d="M 250.560000,47.200000 L 250.560000,43.200000"/>
<text style="font-size: 12.000000; font-family: Bitstream Vera Sans; font-style: Roman; fill: #000000;" x="240.075625" y="401.800000" >100</text>
</g>
<g id="xtick4">
<path style="fill: none; stroke: #000000; stroke-width: 0.500000; stroke-linejoin: miter; stroke-linecap: butt;  opacity: 1.000000; " d="M 339.840000,388.800000 L 339.840000,384.800000"/>
<path style="fill: none; stroke: #000000; stroke-width: 0.500000; stroke-linejoin: miter; stroke-linecap: butt;  opacity: 1.000000; " d="M 339.840000,47.200000 L 339.840000,43.200000"/>
<text style="font-size: 12.000000; font-family: Bitstream Vera Sans; font-style: Roman; fill: #000000;" x="329.855625" y="401.800000" >150</text>
</g>
<g id="xtick5">
<path style="fill: none; stroke: #000000; stroke-width: 0.500000; stroke-linejoin: miter; stroke-linecap: butt;  opacity: 1.000000; " d="M 429.120000,388.800000 L 429.120000,384.800000"/>
<path style="fill: none; stroke: #000000; stroke-width: 0.500000; stroke-linejoin: miter; stroke-linecap: butt;  opacity: 1.000000; " d="M 429.120000,47.200000 L 429.120000,43.200000"/>
<text style="font-size: 12.000000; font-family: Bitstream Vera Sans; font-style: Roman; fill: #000000;" x="418.135625" y="401.800000" >200</text>
</g>
<g id="xtick6">
<text style="font-size: 12.000000; font-family: Bitstream Vera Sans; font-style: Roman; fill: #000000;" x="507.915625" y="401.800000" >250</text>
</g>
<text style="font-size: 12.000000; font-family: Bitstream Vera Sans; font-style: Roman; fill: #000000;" x="292.637500" y="413.800000" >n</text>
</g>
<g id="matplotlib.axis2">
<g id="ytick1">
<text style="font-size: 12.000000; font-family: Bitstream Vera Sans; font-style: Roman; fill: #000000;" x="61.875000" y="393.300000" >0</text>
</g>
<g id="ytick2">
<path style="fill: none; stroke: #000000; stroke-width: 0.500000; stroke-linejoin: miter; stroke-linecap: butt;  opacity: 1.000000; " d="M 72.000000,319.680000 L 76.000000,319.680000"/>
<path style="fill: none; stroke: #000000; stroke-width: 0.500000; stroke-linejoin: miter; stroke-linecap: butt;  opacity: 1.000000; " d="M 514.400000,319.680000 L 518.400000,319.680000"/>
<text style="font-size: 12.000000; font-family: Bitstream Vera Sans; font-style: Roman; fill: #000000;" x="62.875000" y="324.180000" >5</text>
</g>
<g id="ytick3">
<path style="fill: none; stroke: #000000; stroke-width: 0.500000; stroke-linejoin: miter; stroke-linecap: butt;  opacity: 1.000000; " d="M 72.000000,250.560000 L 76.000000,250.560000"/>
<path style="fill: none; stroke: #000000; stroke-width: 0.500000; stroke-linejoin: miter; stroke-linecap: butt;  opacity: 1.000000; " d="M 514.400000,250.560000 L 518.400000,250.560000"/>
<text style="font-size: 12.000000; font-family: Bitstream Vera Sans; font-style: Roman; fill: #000000;" x="55.031250" y="255.060000" >10</text>
</g>
<g id="ytick4">
<path style="fill: none; stroke: #000000; stroke-width: 0.500000; stroke-linejoin: miter; stroke-linecap: butt;  opacity: 1.000000; " d="M 72.000000,181.440000 L 76.000000,181.440000"/>
<path style="fill: none; stroke: #000000; stroke-width: 0.500000; stroke-linejoin: miter; stroke-linecap: butt;  opacity: 1.000000; " d="M 514.400000,181.440000 L 518.400000,181.440000"/>
<text style="font-size: 12.000000; font-family: Bitstream Vera Sans; font-style: Roman; fill: #000000;" x="56.031250" y="185.940000" >15</text>
</g>
<g id="ytick5">
<path style="fill: none; stroke: #000000; stroke-width: 0.500000; stroke-linejoin: miter; stroke-linecap: butt;  opacity: 1.000000; " d="M 72.000000,112.320000 L 76.000000,112.320000"/>
<path style="fill: none; stroke: #000000; stroke-width: 0.500000; stroke-linejoin: miter; stroke-linecap: butt;  opacity: 1.000000; " d="M 514.400000,112.320000 L 518.400000,112.320000"/>
<text style="font-size: 12.000000; font-family: Bitstream Vera Sans; font-style: Roman; fill: #000000;" x="54.031250" y="116.820000" >20</text>
</g>
<g id="ytick6">
<text style="font-size: 12.000000; font-family: Bitstream Vera Sans; font-style: Roman; fill: #000000;" x="55.031250" y="47.700000" >25</text>
</g>
</g>
<path style="fill: none; stroke: #000000; stroke-width: 1.000000; stroke-linejoin: miter; stroke-linecap: square;  opacity: 1.000000; " d="M 72.000000,388.800000 L 518.400000,388.800000 L 518.400000,43.200000 L 72.000000,43.200000 L 72.000000,388.800000 "/>
<text style="font-size: 14.000000; font-family: Bitstream Vera Sans; font-style: Roman; fill: #000000;" x="52.668750" y="36.288000" >Hw12, No 3. continuous state space filtering. gap=0.34, mse=0.9502</text>
<g id="legend1">
<polygon style="fill: #ffffff; stroke: #000000; stroke-width: 1.000000; stroke-linejoin: miter; stroke-linecap: square;  opacity: 1.000000; " points = "377.680650,114.365280 377.680650,50.112000 509.472000,50.112000 509.472000,114.365280"/>
<path style="fill: none; stroke: #0000ff; stroke-width: 1.000000; stroke-linejoin: miter; stroke-linecap: square;  opacity: 1.000000; " d="M 391.663262,62.536752 L 399.103263,62.536752 L 406.543262,62.536752 L 413.983263,62.536752 "/>
<path style="fill: none; stroke: #008000; stroke-width: 1.000000; stroke-linejoin: miter; stroke-linecap: square;  opacity: 1.000000; " d="M 391.663262,82.238640 L 399.103263,82.238640 L 406.543262,82.238640 L 413.983263,82.238640 "/>
<path style="fill: none; stroke: #ff0000; stroke-width: 1.000000; stroke-linejoin: miter; stroke-linecap: square;  opacity: 1.000000; " d="M 391.663262,101.940527 L 399.103263,101.940527 L 406.543262,101.940527 L 413.983263,101.940527 "/>
<text style="font-size: 14.000000; font-family: Bitstream Vera Sans; font-style: Roman; fill: #000000;" x="422.911263" y="69.607065" >Xn_list</text>
<text style="font-size: 14.000000; font-family: Bitstream Vera Sans; font-style: Roman; fill: #000000;" x="422.911263" y="89.308952" >Xn_hat_list</text>
<text style="font-size: 14.000000; font-family: Bitstream Vera Sans; font-style: Roman; fill: #000000;" x="422.911263" y="109.010840" >Yn_list</text>
</g>
</g>
</g>
</svg>
