<?xml version="1.0" standalone="no"?>
<!DOCTYPE svg PUBLIC "-//W3C//DTD SVG 1.0//EN"
"http://www.w3.org/TR/2001/REC-SVG-20010904/DTD/svg10.dtd">
<!-- Created with matplotlib (http://matplotlib.sourceforge.net/) -->
<svg
   xmlns="http://www.w3.org/2000/svg"
   xmlns:xlink="http://www.w3.org/1999/xlink"
   version="1.0"
   x="0.0"
   y="0.0"
   width="576.000000"
   height="432.000000"   
   id="svg1">
<g id="figure1">
<polygon         
style="stroke: #ffffff;  stroke-width: 1.000000;  stroke-linejoin: miter;  stroke-linecap: square;   opacity: 1.000000;  fill: #ffffff;   "
   points = "0.000000,432.000000 0.000000,0.000000 576.000000,0.000000 576.000000,432.000000"  />
<g id="axes1">
<polygon         
style="stroke: #000000;  stroke-width: 1.000000;  stroke-linejoin: miter;  stroke-linecap: square;   opacity: 1.000000;  fill: #ffffff;   "
   points = "72.000000,388.800000 72.000000,43.200000 518.400000,43.200000 518.400000,388.800000"  />
<g id="matplotlib.axis1">
<g id="xtick1">
<text style="font-size: 12.000000; font-family: Bitstream Vera Sans; font-style: Roman; fill: #000000;" x="69.000000" y="401.800000" >0</text>
</g>
<g id="xtick2">
<path         
style="stroke: #000000;  stroke-width: 0.500000;  stroke-linejoin: miter;  stroke-linecap: butt;   opacity: 1.000000;  fill: none;   "
 d="M 183.600000,388.800000 L 183.600000,384.800000"   />
<path         
style="stroke: #000000;  stroke-width: 0.500000;  stroke-linejoin: miter;  stroke-linecap: butt;   opacity: 1.000000;  fill: none;   "
 d="M 183.600000,388.800000 L 183.600000,384.800000"   />
<path         
style="stroke: #000000;  stroke-width: 0.500000;  stroke-linejoin: miter;  stroke-linecap: butt;   opacity: 1.000000;  fill: none;   "
 d="M 183.600000,47.200000 L 183.600000,43.200000"   />
<path         
style="stroke: #000000;  stroke-width: 0.500000;  stroke-linejoin: miter;  stroke-linecap: butt;   opacity: 1.000000;  fill: none;   "
 d="M 183.600000,47.200000 L 183.600000,43.200000"   />
<text style="font-size: 12.000000; font-family: Bitstream Vera Sans; font-style: Roman; fill: #000000;" x="176.600000" y="401.800000" >50</text>
</g>
<g id="xtick3">
<path         
style="stroke: #000000;  stroke-width: 0.500000;  stroke-linejoin: miter;  stroke-linecap: butt;   opacity: 1.000000;  fill: none;   "
 d="M 295.200000,388.800000 L 295.200000,384.800000"   />
<path         
style="stroke: #000000;  stroke-width: 0.500000;  stroke-linejoin: miter;  stroke-linecap: butt;   opacity: 1.000000;  fill: none;   "
 d="M 295.200000,388.800000 L 295.200000,384.800000"   />
<path         
style="stroke: #000000;  stroke-width: 0.500000;  stroke-linejoin: miter;  stroke-linecap: butt;   opacity: 1.000000;  fill: none;   "
 d="M 295.200000,47.200000 L 295.200000,43.200000"   />
<path         
style="stroke: #000000;  stroke-width: 0.500000;  stroke-linejoin: miter;  stroke-linecap: butt;   opacity: 1.000000;  fill: none;   "
 d="M 295.200000,47.200000 L 295.200000,43.200000"   />
<text style="font-size: 12.000000; font-family: Bitstream Vera Sans; font-style: Roman; fill: #000000;" x="284.200000" y="401.800000" >100</text>
</g>
<g id="xtick4">
<path         
style="stroke: #000000;  stroke-width: 0.500000;  stroke-linejoin: miter;  stroke-linecap: butt;   opacity: 1.000000;  fill: none;   "
 d="M 406.800000,388.800000 L 406.800000,384.800000"   />
<path         
style="stroke: #000000;  stroke-width: 0.500000;  stroke-linejoin: miter;  stroke-linecap: butt;   opacity: 1.000000;  fill: none;   "
 d="M 406.800000,388.800000 L 406.800000,384.800000"   />
<path         
style="stroke: #000000;  stroke-width: 0.500000;  stroke-linejoin: miter;  stroke-linecap: butt;   opacity: 1.000000;  fill: none;   "
 d="M 406.800000,47.200000 L 406.800000,43.200000"   />
<path         
style="stroke: #000000;  stroke-width: 0.500000;  stroke-linejoin: miter;  stroke-linecap: butt;   opacity: 1.000000;  fill: none;   "
 d="M 406.800000,47.200000 L 406.800000,43.200000"   />
<text style="font-size: 12.000000; font-family: Bitstream Vera Sans; font-style: Roman; fill: #000000;" x="395.800000" y="401.800000" >150</text>
</g>
<g id="xtick5">
<text style="font-size: 12.000000; font-family: Bitstream Vera Sans; font-style: Roman; fill: #000000;" x="507.400000" y="401.800000" >200</text>
</g>
</g>
<g id="matplotlib.axis2">
<g id="ytick1">
<text style="font-size: 12.000000; font-family: Bitstream Vera Sans; font-style: Roman; fill: #000000;" x="62.000000" y="393.300000" >0</text>
</g>
<g id="ytick2">
<path         
style="stroke: #000000;  stroke-width: 0.500000;  stroke-linejoin: miter;  stroke-linecap: butt;   opacity: 1.000000;  fill: none;   "
 d="M 72.000000,345.600000 L 76.000000,345.600000"   />
<path         
style="stroke: #000000;  stroke-width: 0.500000;  stroke-linejoin: miter;  stroke-linecap: butt;   opacity: 1.000000;  fill: none;   "
 d="M 72.000000,345.600000 L 76.000000,345.600000"   />
<path         
style="stroke: #000000;  stroke-width: 0.500000;  stroke-linejoin: miter;  stroke-linecap: butt;   opacity: 1.000000;  fill: none;   "
 d="M 514.400000,345.600000 L 518.400000,345.600000"   />
<path         
style="stroke: #000000;  stroke-width: 0.500000;  stroke-linejoin: miter;  stroke-linecap: butt;   opacity: 1.000000;  fill: none;   "
 d="M 514.400000,345.600000 L 518.400000,345.600000"   />
<text style="font-size: 12.000000; font-family: Bitstream Vera Sans; font-style: Roman; fill: #000000;" x="61.953125" y="350.100000" >2</text>
</g>
<g id="ytick3">
<path         
style="stroke: #000000;  stroke-width: 0.500000;  stroke-linejoin: miter;  stroke-linecap: butt;   opacity: 1.000000;  fill: none;   "
 d="M 72.000000,302.400000 L 76.000000,302.400000"   />
<path         
style="stroke: #000000;  stroke-width: 0.500000;  stroke-linejoin: miter;  stroke-linecap: butt;   opacity: 1.000000;  fill: none;   "
 d="M 72.000000,302.400000 L 76.000000,302.400000"   />
<path         
style="stroke: #000000;  stroke-width: 0.500000;  stroke-linejoin: miter;  stroke-linecap: butt;   opacity: 1.000000;  fill: none;   "
 d="M 514.400000,302.400000 L 518.400000,302.400000"   />
<path         
style="stroke: #000000;  stroke-width: 0.500000;  stroke-linejoin: miter;  stroke-linecap: butt;   opacity: 1.000000;  fill: none;   "
 d="M 514.400000,302.400000 L 518.400000,302.400000"   />
<text style="font-size: 12.000000; font-family: Bitstream Vera Sans; font-style: Roman; fill: #000000;" x="62.000000" y="306.900000" >4</text>
</g>
<g id="ytick4">
<path         
style="stroke: #000000;  stroke-width: 0.500000;  stroke-linejoin: miter;  stroke-linecap: butt;   opacity: 1.000000;  fill: none;   "
 d="M 72.000000,259.200000 L 76.000000,259.200000"   />
<path         
style="stroke: #000000;  stroke-width: 0.500000;  stroke-linejoin: miter;  stroke-linecap: butt;   opacity: 1.000000;  fill: none;   "
 d="M 72.000000,259.200000 L 76.000000,259.200000"   />
<path         
style="stroke: #000000;  stroke-width: 0.500000;  stroke-linejoin: miter;  stroke-linecap: butt;   opacity: 1.000000;  fill: none;   "
 d="M 514.400000,259.200000 L 518.400000,259.200000"   />
<path         
style="stroke: #000000;  stroke-width: 0.500000;  stroke-linejoin: miter;  stroke-linecap: butt;   opacity: 1.000000;  fill: none;   "
 d="M 514.400000,259.200000 L 518.400000,259.200000"   />
<text style="font-size: 12.000000; font-family: Bitstream Vera Sans; font-style: Roman; fill: #000000;" x="62.000000" y="263.700000" >6</text>
</g>
<g id="ytick5">
<path         
style="stroke: #000000;  stroke-width: 0.500000;  stroke-linejoin: miter;  stroke-linecap: butt;   opacity: 1.000000;  fill: none;   "
 d="M 72.000000,216.000000 L 76.000000,216.000000"   />
<path         
style="stroke: #000000;  stroke-width: 0.500000;  stroke-linejoin: miter;  stroke-linecap: butt;   opacity: 1.000000;  fill: none;   "
 d="M 72.000000,216.000000 L 76.000000,216.000000"   />
<path         
style="stroke: #000000;  stroke-width: 0.500000;  stroke-linejoin: miter;  stroke-linecap: butt;   opacity: 1.000000;  fill: none;   "
 d="M 514.400000,216.000000 L 518.400000,216.000000"   />
<path         
style="stroke: #000000;  stroke-width: 0.500000;  stroke-linejoin: miter;  stroke-linecap: butt;   opacity: 1.000000;  fill: none;   "
 d="M 514.400000,216.000000 L 518.400000,216.000000"   />
<text style="font-size: 12.000000; font-family: Bitstream Vera Sans; font-style: Roman; fill: #000000;" x="62.000000" y="220.500000" >8</text>
</g>
<g id="ytick6">
<path         
style="stroke: #000000;  stroke-width: 0.500000;  stroke-linejoin: miter;  stroke-linecap: butt;   opacity: 1.000000;  fill: none;   "
 d="M 72.000000,172.800000 L 76.000000,172.800000"   />
<path         
style="stroke: #000000;  stroke-width: 0.500000;  stroke-linejoin: miter;  stroke-linecap: butt;   opacity: 1.000000;  fill: none;   "
 d="M 72.000000,172.800000 L 76.000000,172.800000"   />
<path         
style="stroke: #000000;  stroke-width: 0.500000;  stroke-linejoin: miter;  stroke-linecap: butt;   opacity: 1.000000;  fill: none;   "
 d="M 514.400000,172.800000 L 518.400000,172.800000"   />
<path         
style="stroke: #000000;  stroke-width: 0.500000;  stroke-linejoin: miter;  stroke-linecap: butt;   opacity: 1.000000;  fill: none;   "
 d="M 514.400000,172.800000 L 518.400000,172.800000"   />
<text style="font-size: 12.000000; font-family: Bitstream Vera Sans; font-style: Roman; fill: #000000;" x="54.000000" y="177.300000" >10</text>
</g>
<g id="ytick7">
<path         
style="stroke: #000000;  stroke-width: 0.500000;  stroke-linejoin: miter;  stroke-linecap: butt;   opacity: 1.000000;  fill: none;   "
 d="M 72.000000,129.600000 L 76.000000,129.600000"   />
<path         
style="stroke: #000000;  stroke-width: 0.500000;  stroke-linejoin: miter;  stroke-linecap: butt;   opacity: 1.000000;  fill: none;   "
 d="M 72.000000,129.600000 L 76.000000,129.600000"   />
<path         
style="stroke: #000000;  stroke-width: 0.500000;  stroke-linejoin: miter;  stroke-linecap: butt;   opacity: 1.000000;  fill: none;   "
 d="M 514.400000,129.600000 L 518.400000,129.600000"   />
<path         
style="stroke: #000000;  stroke-width: 0.500000;  stroke-linejoin: miter;  stroke-linecap: butt;   opacity: 1.000000;  fill: none;   "
 d="M 514.400000,129.600000 L 518.400000,129.600000"   />
<text style="font-size: 12.000000; font-family: Bitstream Vera Sans; font-style: Roman; fill: #000000;" x="53.953125" y="134.100000" >12</text>
</g>
<g id="ytick8">
<path         
style="stroke: #000000;  stroke-width: 0.500000;  stroke-linejoin: miter;  stroke-linecap: butt;   opacity: 1.000000;  fill: none;   "
 d="M 72.000000,86.400000 L 76.000000,86.400000"   />
<path         
style="stroke: #000000;  stroke-width: 0.500000;  stroke-linejoin: miter;  stroke-linecap: butt;   opacity: 1.000000;  fill: none;   "
 d="M 72.000000,86.400000 L 76.000000,86.400000"   />
<path         
style="stroke: #000000;  stroke-width: 0.500000;  stroke-linejoin: miter;  stroke-linecap: butt;   opacity: 1.000000;  fill: none;   "
 d="M 514.400000,86.400000 L 518.400000,86.400000"   />
<path         
style="stroke: #000000;  stroke-width: 0.500000;  stroke-linejoin: miter;  stroke-linecap: butt;   opacity: 1.000000;  fill: none;   "
 d="M 514.400000,86.400000 L 518.400000,86.400000"   />
<text style="font-size: 12.000000; font-family: Bitstream Vera Sans; font-style: Roman; fill: #000000;" x="54.000000" y="90.900000" >14</text>
</g>
<g id="ytick9">
<text style="font-size: 12.000000; font-family: Bitstream Vera Sans; font-style: Roman; fill: #000000;" x="54.000000" y="47.700000" >16</text>
</g>
</g>

<defs>
    <clipPath id="-1250928610">
    <rect x="72.000000" y="43.200000" width="446.400000" height="345.600000"
    style="stroke: gray; fill: none;"/>
    </clipPath>
</defs>

<path         
style="stroke: #0000ff;  stroke-width: 0.500000;  stroke-linejoin: miter;  stroke-linecap: square;   opacity: 1.000000;  fill: none;   clip-path:url(#-1250928610);  "
 d="M 74.232000,172.800000 L 76.464000,194.400000 L 78.696000,172.800000 L 80.928000,194.400000 L 83.160000,216.000000 L 85.392000,237.600000 L 87.624000,259.200000 L 89.856000,280.800000 L 92.088000,259.200000 L 94.320000,237.600000 L 96.552000,259.200000 L 98.784000,280.800000 L 101.016000,302.400000 L 103.248000,280.800000 L 105.480000,302.400000 L 107.712000,280.800000 L 109.944000,259.200000 L 112.176000,237.600000 L 114.408000,216.000000 L 116.640000,194.400000 L 118.872000,216.000000 L 121.104000,237.600000 L 123.336000,216.000000 L 125.568000,237.600000 L 127.800000,259.200000 L 130.032000,237.600000 L 132.264000,216.000000 L 134.496000,194.400000 L 136.728000,172.800000 L 138.960000,151.200000 L 141.192000,172.800000 L 143.424000,194.400000 L 145.656000,216.000000 L 147.888000,237.600000 L 150.120000,216.000000 L 152.352000,194.400000 L 154.584000,216.000000 L 156.816000,237.600000 L 159.048000,259.200000 L 161.280000,237.600000 L 163.512000,259.200000 L 165.744000,237.600000 L 167.976000,259.200000 L 170.208000,237.600000 L 172.440000,216.000000 L 174.672000,194.400000 L 176.904000,216.000000 L 179.136000,194.400000 L 181.368000,172.800000 L 183.600000,151.200000 L 185.832000,129.600000 L 188.064000,151.200000 L 190.296000,129.600000 L 192.528000,151.200000 L 194.760000,172.800000 L 196.992000,194.400000 L 199.224000,216.000000 L 201.456000,237.600000 L 203.688000,216.000000 L 205.920000,194.400000 L 208.152000,216.000000 L 210.384000,237.600000 L 212.616000,259.200000 L 214.848000,280.800000 L 217.080000,259.200000 L 219.312000,280.800000 L 221.544000,259.200000 L 223.776000,280.800000 L 226.008000,259.200000 L 228.240000,237.600000 L 230.472000,259.200000 L 232.704000,237.600000 L 234.936000,259.200000 L 237.168000,237.600000 L 239.400000,216.000000 L 241.632000,237.600000 L 243.864000,216.000000 L 246.096000,194.400000 L 248.328000,172.800000 L 250.560000,151.200000 L 252.792000,172.800000 L 255.024000,151.200000 L 257.256000,172.800000 L 259.488000,151.200000 L 261.720000,129.600000 L 263.952000,108.000000 L 266.184000,86.400000 L 268.416000,108.000000 L 270.648000,129.600000 L 272.880000,151.200000 L 275.112000,172.800000 L 277.344000,194.400000 L 279.576000,216.000000 L 281.808000,237.600000 L 284.040000,259.200000 L 286.272000,237.600000 L 288.504000,216.000000 L 290.736000,237.600000 L 292.968000,259.200000 L 295.200000,280.800000 L 297.432000,259.200000 L 299.664000,280.800000 L 301.896000,259.200000 L 304.128000,237.600000 L 306.360000,259.200000 L 308.592000,280.800000 L 310.824000,259.200000 L 313.056000,237.600000 L 315.288000,216.000000 L 317.520000,237.600000 L 319.752000,259.200000 L 321.984000,280.800000 L 324.216000,259.200000 L 326.448000,237.600000 L 328.680000,259.200000 L 330.912000,280.800000 L 333.144000,259.200000 L 335.376000,237.600000 L 337.608000,216.000000 L 339.840000,194.400000 L 342.072000,216.000000 L 344.304000,237.600000 L 346.536000,216.000000 L 348.768000,194.400000 L 351.000000,216.000000 L 353.232000,237.600000 L 355.464000,216.000000 L 357.696000,237.600000 L 359.928000,259.200000 L 362.160000,237.600000 L 364.392000,216.000000 L 366.624000,237.600000 L 368.856000,259.200000 L 371.088000,280.800000 L 373.320000,259.200000 L 375.552000,237.600000 L 377.784000,216.000000 L 380.016000,237.600000 L 382.248000,259.200000 L 384.480000,280.800000 L 386.712000,259.200000 L 388.944000,237.600000 L 391.176000,216.000000 L 393.408000,237.600000 L 395.640000,259.200000 L 397.872000,280.800000 L 400.104000,302.400000 L 402.336000,280.800000 L 404.568000,302.400000 L 406.800000,324.000000 L 409.032000,302.400000 L 411.264000,280.800000 L 413.496000,259.200000 L 415.728000,280.800000 L 417.960000,302.400000 L 420.192000,324.000000 L 422.424000,302.400000 L 424.656000,324.000000 L 426.888000,345.600000 L 429.120000,324.000000 L 431.352000,345.600000 L 433.584000,367.200000 L 435.816000,345.600000 L 438.048000,367.200000 L 440.280000,345.600000 L 442.512000,324.000000 L 444.744000,302.400000 L 446.976000,324.000000 L 449.208000,345.600000 L 451.440000,367.200000 L 453.672000,388.800000 L 455.904000,367.200000 L 458.136000,388.800000 L 460.368000,388.800000 L 462.600000,367.200000 L 464.832000,345.600000 L 467.064000,367.200000 L 469.296000,345.600000 L 471.528000,367.200000 L 473.760000,345.600000 L 475.992000,367.200000 L 478.224000,388.800000 L 480.456000,388.800000 L 482.688000,388.800000 L 484.920000,367.200000 L 487.152000,388.800000 L 489.384000,367.200000 L 491.616000,345.600000 L 493.848000,367.200000 L 496.080000,388.800000 L 498.312000,388.800000 L 500.544000,388.800000 L 502.776000,388.800000 L 505.008000,388.800000 L 507.240000,388.800000 L 509.472000,388.800000 L 511.704000,367.200000 L 513.936000,388.800000 L 516.168000,388.800000 L 518.400000,367.200000 "   />
<path         
style="stroke: #008000;  stroke-width: 0.500000;  stroke-linejoin: miter;  stroke-linecap: square;   opacity: 1.000000;  fill: none;   clip-path:url(#-1250928610);  "
 d="M 74.232000,237.600000 L 76.464000,259.200000 L 78.696000,237.600000 L 80.928000,259.200000 L 83.160000,216.000000 L 85.392000,237.600000 L 87.624000,259.200000 L 89.856000,280.800000 L 92.088000,259.200000 L 94.320000,237.600000 L 96.552000,259.200000 L 98.784000,280.800000 L 101.016000,302.400000 L 103.248000,280.800000 L 105.480000,302.400000 L 107.712000,280.800000 L 109.944000,259.200000 L 112.176000,237.600000 L 114.408000,216.000000 L 116.640000,194.400000 L 118.872000,216.000000 L 121.104000,237.600000 L 123.336000,216.000000 L 125.568000,237.600000 L 127.800000,259.200000 L 130.032000,237.600000 L 132.264000,216.000000 L 134.496000,194.400000 L 136.728000,172.800000 L 138.960000,151.200000 L 141.192000,172.800000 L 143.424000,194.400000 L 145.656000,216.000000 L 147.888000,237.600000 L 150.120000,216.000000 L 152.352000,194.400000 L 154.584000,216.000000 L 156.816000,237.600000 L 159.048000,259.200000 L 161.280000,237.600000 L 163.512000,259.200000 L 165.744000,237.600000 L 167.976000,259.200000 L 170.208000,237.600000 L 172.440000,216.000000 L 174.672000,194.400000 L 176.904000,216.000000 L 179.136000,194.400000 L 181.368000,172.800000 L 183.600000,151.200000 L 185.832000,129.600000 L 188.064000,151.200000 L 190.296000,129.600000 L 192.528000,151.200000 L 194.760000,172.800000 L 196.992000,194.400000 L 199.224000,216.000000 L 201.456000,237.600000 L 203.688000,216.000000 L 205.920000,194.400000 L 208.152000,216.000000 L 210.384000,237.600000 L 212.616000,259.200000 L 214.848000,280.800000 L 217.080000,259.200000 L 219.312000,280.800000 L 221.544000,259.200000 L 223.776000,280.800000 L 226.008000,259.200000 L 228.240000,237.600000 L 230.472000,259.200000 L 232.704000,237.600000 L 234.936000,259.200000 L 237.168000,237.600000 L 239.400000,216.000000 L 241.632000,237.600000 L 243.864000,216.000000 L 246.096000,194.400000 L 248.328000,172.800000 L 250.560000,151.200000 L 252.792000,172.800000 L 255.024000,151.200000 L 257.256000,172.800000 L 259.488000,151.200000 L 261.720000,129.600000 L 263.952000,108.000000 L 266.184000,86.400000 L 268.416000,108.000000 L 270.648000,129.600000 L 272.880000,151.200000 L 275.112000,172.800000 L 277.344000,194.400000 L 279.576000,216.000000 L 281.808000,237.600000 L 284.040000,259.200000 L 286.272000,237.600000 L 288.504000,216.000000 L 290.736000,237.600000 L 292.968000,259.200000 L 295.200000,280.800000 L 297.432000,259.200000 L 299.664000,280.800000 L 301.896000,259.200000 L 304.128000,237.600000 L 306.360000,259.200000 L 308.592000,280.800000 L 310.824000,259.200000 L 313.056000,237.600000 L 315.288000,216.000000 L 317.520000,237.600000 L 319.752000,259.200000 L 321.984000,280.800000 L 324.216000,259.200000 L 326.448000,237.600000 L 328.680000,259.200000 L 330.912000,280.800000 L 333.144000,259.200000 L 335.376000,237.600000 L 337.608000,216.000000 L 339.840000,194.400000 L 342.072000,216.000000 L 344.304000,237.600000 L 346.536000,216.000000 L 348.768000,194.400000 L 351.000000,216.000000 L 353.232000,237.600000 L 355.464000,216.000000 L 357.696000,237.600000 L 359.928000,259.200000 L 362.160000,237.600000 L 364.392000,216.000000 L 366.624000,237.600000 L 368.856000,259.200000 L 371.088000,280.800000 L 373.320000,259.200000 L 375.552000,237.600000 L 377.784000,216.000000 L 380.016000,237.600000 L 382.248000,259.200000 L 384.480000,280.800000 L 386.712000,259.200000 L 388.944000,237.600000 L 391.176000,216.000000 L 393.408000,237.600000 L 395.640000,259.200000 L 397.872000,280.800000 L 400.104000,302.400000 L 402.336000,280.800000 L 404.568000,302.400000 L 406.800000,324.000000 L 409.032000,302.400000 L 411.264000,280.800000 L 413.496000,259.200000 L 415.728000,280.800000 L 417.960000,302.400000 L 420.192000,324.000000 L 422.424000,302.400000 L 424.656000,324.000000 L 426.888000,345.600000 L 429.120000,345.600000 L 431.352000,345.600000 L 433.584000,345.600000 L 435.816000,345.600000 L 438.048000,345.600000 L 440.280000,360.000000 L 442.512000,356.400000 L 444.744000,302.400000 L 446.976000,324.000000 L 449.208000,345.600000 L 451.440000,367.200000 L 453.672000,388.800000 L 455.904000,378.000000 L 458.136000,372.600000 L 460.368000,388.800000 L 462.600000,367.200000 L 464.832000,345.600000 L 467.064000,345.600000 L 469.296000,360.000000 L 471.528000,356.400000 L 473.760000,365.040000 L 475.992000,360.720000 L 478.224000,388.800000 L 480.456000,388.800000 L 482.688000,378.000000 L 484.920000,367.200000 L 487.152000,367.200000 L 489.384000,367.200000 L 491.616000,345.600000 L 493.848000,367.200000 L 496.080000,367.200000 L 498.312000,361.800000 L 500.544000,367.200000 L 502.776000,388.800000 L 505.008000,388.800000 L 507.240000,378.000000 L 509.472000,372.600000 L 511.704000,367.200000 L 513.936000,388.800000 L 516.168000,378.000000 L 518.400000,372.600000 "   />
<path         
style="stroke: #ff0000;  stroke-width: 0.500000;  stroke-linejoin: miter;  stroke-linecap: square;   opacity: 1.000000;  fill: none;   clip-path:url(#-1250928610);  "
 d="M 74.232000,237.600000 L 76.464000,259.200000 L 78.696000,237.600000 L 80.928000,259.200000 L 83.160000,151.200000 L 85.392000,302.400000 L 87.624000,194.400000 L 89.856000,345.600000 L 92.088000,194.400000 L 94.320000,302.400000 L 96.552000,324.000000 L 98.784000,345.600000 L 101.016000,237.600000 L 103.248000,345.600000 L 105.480000,367.200000 L 107.712000,216.000000 L 109.944000,324.000000 L 112.176000,302.400000 L 114.408000,280.800000 L 116.640000,129.600000 L 118.872000,280.800000 L 121.104000,302.400000 L 123.336000,151.200000 L 125.568000,302.400000 L 127.800000,324.000000 L 130.032000,172.800000 L 132.264000,151.200000 L 134.496000,129.600000 L 136.728000,237.600000 L 138.960000,86.400000 L 141.192000,237.600000 L 143.424000,129.600000 L 145.656000,280.800000 L 147.888000,302.400000 L 150.120000,280.800000 L 152.352000,129.600000 L 154.584000,151.200000 L 156.816000,302.400000 L 159.048000,194.400000 L 161.280000,172.800000 L 163.512000,194.400000 L 165.744000,172.800000 L 167.976000,194.400000 L 170.208000,302.400000 L 172.440000,151.200000 L 174.672000,259.200000 L 176.904000,280.800000 L 179.136000,129.600000 L 181.368000,237.600000 L 183.600000,216.000000 L 185.832000,194.400000 L 188.064000,86.400000 L 190.296000,194.400000 L 192.528000,86.400000 L 194.760000,108.000000 L 196.992000,129.600000 L 199.224000,280.800000 L 201.456000,172.800000 L 203.688000,151.200000 L 205.920000,259.200000 L 208.152000,280.800000 L 210.384000,172.800000 L 212.616000,324.000000 L 214.848000,216.000000 L 217.080000,324.000000 L 219.312000,216.000000 L 221.544000,324.000000 L 223.776000,345.600000 L 226.008000,194.400000 L 228.240000,302.400000 L 230.472000,324.000000 L 232.704000,302.400000 L 234.936000,324.000000 L 237.168000,302.400000 L 239.400000,280.800000 L 241.632000,302.400000 L 243.864000,280.800000 L 246.096000,259.200000 L 248.328000,237.600000 L 250.560000,216.000000 L 252.792000,237.600000 L 255.024000,216.000000 L 257.256000,108.000000 L 259.488000,216.000000 L 261.720000,194.400000 L 263.952000,172.800000 L 266.184000,151.200000 L 268.416000,43.200000 L 270.648000,194.400000 L 272.880000,86.400000 L 275.112000,108.000000 L 277.344000,259.200000 L 279.576000,151.200000 L 281.808000,302.400000 L 284.040000,194.400000 L 286.272000,302.400000 L 288.504000,151.200000 L 290.736000,302.400000 L 292.968000,324.000000 L 295.200000,345.600000 L 297.432000,324.000000 L 299.664000,216.000000 L 301.896000,194.400000 L 304.128000,172.800000 L 306.360000,324.000000 L 308.592000,345.600000 L 310.824000,194.400000 L 313.056000,172.800000 L 315.288000,280.800000 L 317.520000,172.800000 L 319.752000,324.000000 L 321.984000,345.600000 L 324.216000,324.000000 L 326.448000,302.400000 L 328.680000,194.400000 L 330.912000,216.000000 L 333.144000,194.400000 L 335.376000,172.800000 L 337.608000,280.800000 L 339.840000,259.200000 L 342.072000,280.800000 L 344.304000,172.800000 L 346.536000,151.200000 L 348.768000,259.200000 L 351.000000,280.800000 L 353.232000,172.800000 L 355.464000,280.800000 L 357.696000,302.400000 L 359.928000,324.000000 L 362.160000,302.400000 L 364.392000,151.200000 L 366.624000,172.800000 L 368.856000,194.400000 L 371.088000,345.600000 L 373.320000,324.000000 L 375.552000,172.800000 L 377.784000,151.200000 L 380.016000,302.400000 L 382.248000,194.400000 L 384.480000,345.600000 L 386.712000,324.000000 L 388.944000,172.800000 L 391.176000,151.200000 L 393.408000,172.800000 L 395.640000,324.000000 L 397.872000,216.000000 L 400.104000,237.600000 L 402.336000,345.600000 L 404.568000,367.200000 L 406.800000,388.800000 L 409.032000,237.600000 L 411.264000,345.600000 L 413.496000,324.000000 L 415.728000,345.600000 L 417.960000,367.200000 L 420.192000,259.200000 L 422.424000,367.200000 L 424.656000,259.200000 L 426.888000,388.800000 L 429.120000,388.800000 L 431.352000,280.800000 L 433.584000,388.800000 L 435.816000,280.800000 L 438.048000,388.800000 L 440.280000,388.800000 L 442.512000,388.800000 L 444.744000,367.200000 L 446.976000,259.200000 L 449.208000,280.800000 L 451.440000,302.400000 L 453.672000,324.000000 L 455.904000,388.800000 L 458.136000,388.800000 L 460.368000,324.000000 L 462.600000,302.400000 L 464.832000,280.800000 L 467.064000,388.800000 L 469.296000,388.800000 L 471.528000,388.800000 L 473.760000,388.800000 L 475.992000,388.800000 L 478.224000,324.000000 L 480.456000,324.000000 L 482.688000,388.800000 L 484.920000,302.400000 L 487.152000,388.800000 L 489.384000,302.400000 L 491.616000,280.800000 L 493.848000,302.400000 L 496.080000,388.800000 L 498.312000,388.800000 L 500.544000,388.800000 L 502.776000,324.000000 L 505.008000,324.000000 L 507.240000,388.800000 L 509.472000,388.800000 L 511.704000,388.800000 L 513.936000,324.000000 L 516.168000,388.800000 L 518.400000,388.800000 "   />
<text style="font-size: 14.000000; font-family: Bitstream Vera Sans; font-style: Roman; fill: #000000;" x="58.700000" y="36.288000" >simple reflected r.w. on A=[0,20], P(W=+-3)=1/2, n=200, mse=0.26</text>
<g id="legend1">
<polygon         
style="stroke: #000000;  stroke-width: 1.000000;  stroke-linejoin: miter;  stroke-linecap: square;   opacity: 1.000000;  fill: #ffffff;   "
   points = "408.614400,93.488640 408.614400,50.112000 509.472000,50.112000 509.472000,93.488640"  />
<path         
style="stroke: #0000ff;  stroke-width: 0.500000;  stroke-linejoin: miter;  stroke-linecap: square;   opacity: 1.000000;  fill: none;   "
 d="M 418.819200,58.726720 L 426.259200,58.726720 L 433.699200,58.726720 L 441.139200,58.726720 "   />
<path         
style="stroke: #008000;  stroke-width: 0.500000;  stroke-linejoin: miter;  stroke-linecap: square;   opacity: 1.000000;  fill: none;   "
 d="M 418.819200,71.800320 L 426.259200,71.800320 L 433.699200,71.800320 L 441.139200,71.800320 "   />
<path         
style="stroke: #ff0000;  stroke-width: 0.500000;  stroke-linejoin: miter;  stroke-linecap: square;   opacity: 1.000000;  fill: none;   "
 d="M 418.819200,84.873920 L 426.259200,84.873920 L 433.699200,84.873920 L 441.139200,84.873920 "   />
<text style="font-size: 10.000000; font-family: Bitstream Vera Sans; font-style: Roman; fill: #000000;" x="450.067200" y="63.726720" >Xn_list</text>
<text style="font-size: 10.000000; font-family: Bitstream Vera Sans; font-style: Roman; fill: #000000;" x="450.067200" y="76.800320" >Xn_hat_list</text>
<text style="font-size: 10.000000; font-family: Bitstream Vera Sans; font-style: Roman; fill: #000000;" x="450.067200" y="89.873920" >Yn_list</text>
</g>
</g>
</g>
</svg>