<?xml version="1.0" standalone="no"?>
<!DOCTYPE svg PUBLIC "-//W3C//DTD SVG 1.0//EN"
"http://www.w3.org/TR/2001/REC-SVG-20010904/DTD/svg10.dtd">
<!-- Created with matplotlib (http://matplotlib.sourceforge.net/) -->
<svg
   xmlns="http://www.w3.org/2000/svg"
   xmlns:xlink="http://www.w3.org/1999/xlink"
   version="1.0"
   x="0.0"
   y="0.0"
   width="576.000000"
   height="432.000000"   
   id="svg1">
<g id="figure1">
<polygon         
style="stroke: #ffffff;  stroke-width: 1.000000;  stroke-linejoin: miter;  stroke-linecap: square;   opacity: 1.000000;  fill: #ffffff;   "
   points = "0.000000,432.000000 0.000000,0.000000 576.000000,0.000000 576.000000,432.000000"  />
<g id="axes1">
<polygon         
style="stroke: #000000;  stroke-width: 1.000000;  stroke-linejoin: miter;  stroke-linecap: square;   opacity: 1.000000;  fill: #ffffff;   "
   points = "72.000000,388.800000 72.000000,43.200000 518.400000,43.200000 518.400000,388.800000"  />
<g id="matplotlib.axis1">
<g id="xtick1">
<text style="font-size: 12.000000; font-family: Bitstream Vera Sans; font-style: Roman; fill: #000000;" x="69.000000" y="401.800000" >0</text>
</g>
<g id="xtick2">
<path         
style="stroke: #000000;  stroke-width: 0.500000;  stroke-linejoin: miter;  stroke-linecap: butt;   opacity: 1.000000;  fill: none;   "
 d="M 183.600000,388.800000 L 183.600000,384.800000"   />
<path         
style="stroke: #000000;  stroke-width: 0.500000;  stroke-linejoin: miter;  stroke-linecap: butt;   opacity: 1.000000;  fill: none;   "
 d="M 183.600000,388.800000 L 183.600000,384.800000"   />
<path         
style="stroke: #000000;  stroke-width: 0.500000;  stroke-linejoin: miter;  stroke-linecap: butt;   opacity: 1.000000;  fill: none;   "
 d="M 183.600000,47.200000 L 183.600000,43.200000"   />
<path         
style="stroke: #000000;  stroke-width: 0.500000;  stroke-linejoin: miter;  stroke-linecap: butt;   opacity: 1.000000;  fill: none;   "
 d="M 183.600000,47.200000 L 183.600000,43.200000"   />
<text style="font-size: 12.000000; font-family: Bitstream Vera Sans; font-style: Roman; fill: #000000;" x="176.600000" y="401.800000" >50</text>
</g>
<g id="xtick3">
<path         
style="stroke: #000000;  stroke-width: 0.500000;  stroke-linejoin: miter;  stroke-linecap: butt;   opacity: 1.000000;  fill: none;   "
 d="M 295.200000,388.800000 L 295.200000,384.800000"   />
<path         
style="stroke: #000000;  stroke-width: 0.500000;  stroke-linejoin: miter;  stroke-linecap: butt;   opacity: 1.000000;  fill: none;   "
 d="M 295.200000,388.800000 L 295.200000,384.800000"   />
<path         
style="stroke: #000000;  stroke-width: 0.500000;  stroke-linejoin: miter;  stroke-linecap: butt;   opacity: 1.000000;  fill: none;   "
 d="M 295.200000,47.200000 L 295.200000,43.200000"   />
<path         
style="stroke: #000000;  stroke-width: 0.500000;  stroke-linejoin: miter;  stroke-linecap: butt;   opacity: 1.000000;  fill: none;   "
 d="M 295.200000,47.200000 L 295.200000,43.200000"   />
<text style="font-size: 12.000000; font-family: Bitstream Vera Sans; font-style: Roman; fill: #000000;" x="284.200000" y="401.800000" >100</text>
</g>
<g id="xtick4">
<path         
style="stroke: #000000;  stroke-width: 0.500000;  stroke-linejoin: miter;  stroke-linecap: butt;   opacity: 1.000000;  fill: none;   "
 d="M 406.800000,388.800000 L 406.800000,384.800000"   />
<path         
style="stroke: #000000;  stroke-width: 0.500000;  stroke-linejoin: miter;  stroke-linecap: butt;   opacity: 1.000000;  fill: none;   "
 d="M 406.800000,388.800000 L 406.800000,384.800000"   />
<path         
style="stroke: #000000;  stroke-width: 0.500000;  stroke-linejoin: miter;  stroke-linecap: butt;   opacity: 1.000000;  fill: none;   "
 d="M 406.800000,47.200000 L 406.800000,43.200000"   />
<path         
style="stroke: #000000;  stroke-width: 0.500000;  stroke-linejoin: miter;  stroke-linecap: butt;   opacity: 1.000000;  fill: none;   "
 d="M 406.800000,47.200000 L 406.800000,43.200000"   />
<text style="font-size: 12.000000; font-family: Bitstream Vera Sans; font-style: Roman; fill: #000000;" x="395.800000" y="401.800000" >150</text>
</g>
<g id="xtick5">
<text style="font-size: 12.000000; font-family: Bitstream Vera Sans; font-style: Roman; fill: #000000;" x="507.400000" y="401.800000" >200</text>
</g>
</g>
<g id="matplotlib.axis2">
<g id="ytick1">
<text style="font-size: 12.000000; font-family: Bitstream Vera Sans; font-style: Roman; fill: #000000;" x="62.000000" y="393.300000" >0</text>
</g>
<g id="ytick2">
<path         
style="stroke: #000000;  stroke-width: 0.500000;  stroke-linejoin: miter;  stroke-linecap: butt;   opacity: 1.000000;  fill: none;   "
 d="M 72.000000,302.400000 L 76.000000,302.400000"   />
<path         
style="stroke: #000000;  stroke-width: 0.500000;  stroke-linejoin: miter;  stroke-linecap: butt;   opacity: 1.000000;  fill: none;   "
 d="M 72.000000,302.400000 L 76.000000,302.400000"   />
<path         
style="stroke: #000000;  stroke-width: 0.500000;  stroke-linejoin: miter;  stroke-linecap: butt;   opacity: 1.000000;  fill: none;   "
 d="M 514.400000,302.400000 L 518.400000,302.400000"   />
<path         
style="stroke: #000000;  stroke-width: 0.500000;  stroke-linejoin: miter;  stroke-linecap: butt;   opacity: 1.000000;  fill: none;   "
 d="M 514.400000,302.400000 L 518.400000,302.400000"   />
<text style="font-size: 12.000000; font-family: Bitstream Vera Sans; font-style: Roman; fill: #000000;" x="62.000000" y="306.900000" >5</text>
</g>
<g id="ytick3">
<path         
style="stroke: #000000;  stroke-width: 0.500000;  stroke-linejoin: miter;  stroke-linecap: butt;   opacity: 1.000000;  fill: none;   "
 d="M 72.000000,216.000000 L 76.000000,216.000000"   />
<path         
style="stroke: #000000;  stroke-width: 0.500000;  stroke-linejoin: miter;  stroke-linecap: butt;   opacity: 1.000000;  fill: none;   "
 d="M 72.000000,216.000000 L 76.000000,216.000000"   />
<path         
style="stroke: #000000;  stroke-width: 0.500000;  stroke-linejoin: miter;  stroke-linecap: butt;   opacity: 1.000000;  fill: none;   "
 d="M 514.400000,216.000000 L 518.400000,216.000000"   />
<path         
style="stroke: #000000;  stroke-width: 0.500000;  stroke-linejoin: miter;  stroke-linecap: butt;   opacity: 1.000000;  fill: none;   "
 d="M 514.400000,216.000000 L 518.400000,216.000000"   />
<text style="font-size: 12.000000; font-family: Bitstream Vera Sans; font-style: Roman; fill: #000000;" x="54.000000" y="220.500000" >10</text>
</g>
<g id="ytick4">
<path         
style="stroke: #000000;  stroke-width: 0.500000;  stroke-linejoin: miter;  stroke-linecap: butt;   opacity: 1.000000;  fill: none;   "
 d="M 72.000000,129.600000 L 76.000000,129.600000"   />
<path         
style="stroke: #000000;  stroke-width: 0.500000;  stroke-linejoin: miter;  stroke-linecap: butt;   opacity: 1.000000;  fill: none;   "
 d="M 72.000000,129.600000 L 76.000000,129.600000"   />
<path         
style="stroke: #000000;  stroke-width: 0.500000;  stroke-linejoin: miter;  stroke-linecap: butt;   opacity: 1.000000;  fill: none;   "
 d="M 514.400000,129.600000 L 518.400000,129.600000"   />
<path         
style="stroke: #000000;  stroke-width: 0.500000;  stroke-linejoin: miter;  stroke-linecap: butt;   opacity: 1.000000;  fill: none;   "
 d="M 514.400000,129.600000 L 518.400000,129.600000"   />
<text style="font-size: 12.000000; font-family: Bitstream Vera Sans; font-style: Roman; fill: #000000;" x="54.000000" y="134.100000" >15</text>
</g>
<g id="ytick5">
<text style="font-size: 12.000000; font-family: Bitstream Vera Sans; font-style: Roman; fill: #000000;" x="54.000000" y="47.700000" >20</text>
</g>
</g>

<defs>
    <clipPath id="-1250928610">
    <rect x="72.000000" y="43.200000" width="446.400000" height="345.600000"
    style="stroke: gray; fill: none;"/>
    </clipPath>
</defs>

<path         
style="stroke: #0000ff;  stroke-width: 0.500000;  stroke-linejoin: miter;  stroke-linecap: square;   opacity: 1.000000;  fill: none;   clip-path:url(#-1250928610);  "
 d="M 74.232000,216.000000 L 76.464000,198.720000 L 78.696000,216.000000 L 80.928000,233.280000 L 83.160000,216.000000 L 85.392000,233.280000 L 87.624000,250.560000 L 89.856000,233.280000 L 92.088000,216.000000 L 94.320000,233.280000 L 96.552000,216.000000 L 98.784000,233.280000 L 101.016000,250.560000 L 103.248000,233.280000 L 105.480000,216.000000 L 107.712000,233.280000 L 109.944000,250.560000 L 112.176000,267.840000 L 114.408000,250.560000 L 116.640000,267.840000 L 118.872000,250.560000 L 121.104000,233.280000 L 123.336000,216.000000 L 125.568000,198.720000 L 127.800000,181.440000 L 130.032000,198.720000 L 132.264000,216.000000 L 134.496000,198.720000 L 136.728000,216.000000 L 138.960000,198.720000 L 141.192000,181.440000 L 143.424000,198.720000 L 145.656000,181.440000 L 147.888000,164.160000 L 150.120000,146.880000 L 152.352000,164.160000 L 154.584000,181.440000 L 156.816000,198.720000 L 159.048000,181.440000 L 161.280000,164.160000 L 163.512000,146.880000 L 165.744000,129.600000 L 167.976000,146.880000 L 170.208000,129.600000 L 172.440000,146.880000 L 174.672000,164.160000 L 176.904000,146.880000 L 179.136000,129.600000 L 181.368000,112.320000 L 183.600000,129.600000 L 185.832000,112.320000 L 188.064000,129.600000 L 190.296000,146.880000 L 192.528000,164.160000 L 194.760000,181.440000 L 196.992000,198.720000 L 199.224000,216.000000 L 201.456000,198.720000 L 203.688000,216.000000 L 205.920000,233.280000 L 208.152000,216.000000 L 210.384000,233.280000 L 212.616000,250.560000 L 214.848000,233.280000 L 217.080000,216.000000 L 219.312000,233.280000 L 221.544000,250.560000 L 223.776000,233.280000 L 226.008000,250.560000 L 228.240000,233.280000 L 230.472000,216.000000 L 232.704000,198.720000 L 234.936000,216.000000 L 237.168000,233.280000 L 239.400000,250.560000 L 241.632000,267.840000 L 243.864000,250.560000 L 246.096000,267.840000 L 248.328000,285.120000 L 250.560000,302.400000 L 252.792000,319.680000 L 255.024000,302.400000 L 257.256000,319.680000 L 259.488000,302.400000 L 261.720000,285.120000 L 263.952000,302.400000 L 266.184000,285.120000 L 268.416000,267.840000 L 270.648000,285.120000 L 272.880000,267.840000 L 275.112000,250.560000 L 277.344000,233.280000 L 279.576000,216.000000 L 281.808000,233.280000 L 284.040000,250.560000 L 286.272000,267.840000 L 288.504000,250.560000 L 290.736000,233.280000 L 292.968000,250.560000 L 295.200000,233.280000 L 297.432000,216.000000 L 299.664000,198.720000 L 301.896000,181.440000 L 304.128000,198.720000 L 306.360000,181.440000 L 308.592000,164.160000 L 310.824000,146.880000 L 313.056000,129.600000 L 315.288000,146.880000 L 317.520000,164.160000 L 319.752000,146.880000 L 321.984000,164.160000 L 324.216000,146.880000 L 326.448000,164.160000 L 328.680000,146.880000 L 330.912000,129.600000 L 333.144000,112.320000 L 335.376000,129.600000 L 337.608000,112.320000 L 339.840000,129.600000 L 342.072000,112.320000 L 344.304000,129.600000 L 346.536000,112.320000 L 348.768000,95.040000 L 351.000000,112.320000 L 353.232000,129.600000 L 355.464000,112.320000 L 357.696000,129.600000 L 359.928000,112.320000 L 362.160000,129.600000 L 364.392000,146.880000 L 366.624000,129.600000 L 368.856000,112.320000 L 371.088000,95.040000 L 373.320000,77.760000 L 375.552000,60.480000 L 377.784000,77.760000 L 380.016000,95.040000 L 382.248000,112.320000 L 384.480000,95.040000 L 386.712000,77.760000 L 388.944000,60.480000 L 391.176000,77.760000 L 393.408000,95.040000 L 395.640000,112.320000 L 397.872000,95.040000 L 400.104000,77.760000 L 402.336000,95.040000 L 404.568000,77.760000 L 406.800000,95.040000 L 409.032000,112.320000 L 411.264000,129.600000 L 413.496000,146.880000 L 415.728000,129.600000 L 417.960000,112.320000 L 420.192000,129.600000 L 422.424000,146.880000 L 424.656000,129.600000 L 426.888000,112.320000 L 429.120000,129.600000 L 431.352000,146.880000 L 433.584000,129.600000 L 435.816000,146.880000 L 438.048000,164.160000 L 440.280000,181.440000 L 442.512000,164.160000 L 444.744000,146.880000 L 446.976000,129.600000 L 449.208000,146.880000 L 451.440000,129.600000 L 453.672000,112.320000 L 455.904000,95.040000 L 458.136000,112.320000 L 460.368000,129.600000 L 462.600000,112.320000 L 464.832000,129.600000 L 467.064000,146.880000 L 469.296000,164.160000 L 471.528000,181.440000 L 473.760000,198.720000 L 475.992000,181.440000 L 478.224000,198.720000 L 480.456000,181.440000 L 482.688000,164.160000 L 484.920000,146.880000 L 487.152000,164.160000 L 489.384000,146.880000 L 491.616000,164.160000 L 493.848000,181.440000 L 496.080000,164.160000 L 498.312000,146.880000 L 500.544000,129.600000 L 502.776000,112.320000 L 505.008000,95.040000 L 507.240000,77.760000 L 509.472000,60.480000 L 511.704000,43.200000 L 513.936000,43.200000 L 516.168000,60.480000 L 518.400000,43.200000 "   />
<path         
style="stroke: #008000;  stroke-width: 0.500000;  stroke-linejoin: miter;  stroke-linecap: square;   opacity: 1.000000;  fill: none;   clip-path:url(#-1250928610);  "
 d="M 74.232000,216.000000 L 76.464000,216.000000 L 78.696000,216.000000 L 80.928000,216.000000 L 83.160000,216.000000 L 85.392000,216.000000 L 87.624000,216.000000 L 89.856000,216.000000 L 92.088000,216.000000 L 94.320000,216.000000 L 96.552000,216.000000 L 98.784000,216.000000 L 101.016000,216.000000 L 103.248000,216.000000 L 105.480000,216.000000 L 107.712000,216.000000 L 109.944000,216.000000 L 112.176000,216.000000 L 114.408000,216.000000 L 116.640000,216.000000 L 118.872000,216.000000 L 121.104000,216.000000 L 123.336000,216.000000 L 125.568000,216.000000 L 127.800000,216.000000 L 130.032000,216.000000 L 132.264000,216.000000 L 134.496000,216.000000 L 136.728000,216.000000 L 138.960000,216.000000 L 141.192000,216.000000 L 143.424000,216.000000 L 145.656000,216.000000 L 147.888000,216.000000 L 150.120000,216.000000 L 152.352000,216.000000 L 154.584000,216.000000 L 156.816000,216.000000 L 159.048000,216.000000 L 161.280000,216.000000 L 163.512000,216.000000 L 165.744000,216.000000 L 167.976000,216.000000 L 170.208000,216.000000 L 172.440000,216.000000 L 174.672000,216.000000 L 176.904000,216.000000 L 179.136000,216.000000 L 181.368000,216.000000 L 183.600000,216.000000 L 185.832000,216.000000 L 188.064000,216.000000 L 190.296000,216.000000 L 192.528000,216.000000 L 194.760000,216.000000 L 196.992000,216.000000 L 199.224000,216.000000 L 201.456000,216.000000 L 203.688000,216.000000 L 205.920000,216.000000 L 208.152000,216.000000 L 210.384000,216.000000 L 212.616000,216.000000 L 214.848000,216.000000 L 217.080000,216.000000 L 219.312000,216.000000 L 221.544000,216.000000 L 223.776000,216.000000 L 226.008000,216.000000 L 228.240000,216.000000 L 230.472000,216.000000 L 232.704000,216.000000 L 234.936000,216.000000 L 237.168000,216.000000 L 239.400000,216.000000 L 241.632000,216.000000 L 243.864000,216.000000 L 246.096000,216.000000 L 248.328000,216.000000 L 250.560000,216.000000 L 252.792000,216.000000 L 255.024000,216.000000 L 257.256000,216.000000 L 259.488000,216.000000 L 261.720000,216.000000 L 263.952000,216.000000 L 266.184000,216.000000 L 268.416000,216.000000 L 270.648000,216.000000 L 272.880000,216.000000 L 275.112000,216.000000 L 277.344000,216.000000 L 279.576000,216.000000 L 281.808000,216.000000 L 284.040000,216.000000 L 286.272000,216.000000 L 288.504000,216.000000 L 290.736000,216.000000 L 292.968000,216.000000 L 295.200000,216.000000 L 297.432000,216.000000 L 299.664000,216.000000 L 301.896000,216.000000 L 304.128000,216.000000 L 306.360000,216.000000 L 308.592000,216.000000 L 310.824000,216.000000 L 313.056000,216.000000 L 315.288000,216.000000 L 317.520000,216.000000 L 319.752000,216.000000 L 321.984000,216.000000 L 324.216000,216.000000 L 326.448000,216.000000 L 328.680000,216.000000 L 330.912000,216.000000 L 333.144000,216.000000 L 335.376000,216.000000 L 337.608000,216.000000 L 339.840000,216.000000 L 342.072000,216.000000 L 344.304000,216.000000 L 346.536000,216.000000 L 348.768000,216.000000 L 351.000000,216.000000 L 353.232000,216.000000 L 355.464000,216.000000 L 357.696000,216.000000 L 359.928000,216.000000 L 362.160000,216.000000 L 364.392000,216.000000 L 366.624000,216.000000 L 368.856000,216.000000 L 371.088000,216.000000 L 373.320000,216.000000 L 375.552000,216.000000 L 377.784000,216.000000 L 380.016000,216.000000 L 382.248000,216.000000 L 384.480000,216.000000 L 386.712000,216.000000 L 388.944000,216.000000 L 391.176000,216.000000 L 393.408000,216.000000 L 395.640000,216.000000 L 397.872000,216.000000 L 400.104000,216.000000 L 402.336000,216.000000 L 404.568000,216.000000 L 406.800000,216.000000 L 409.032000,216.000000 L 411.264000,216.000000 L 413.496000,216.000000 L 415.728000,216.000000 L 417.960000,216.000000 L 420.192000,216.000000 L 422.424000,216.000000 L 424.656000,216.000000 L 426.888000,216.000000 L 429.120000,216.000000 L 431.352000,216.000000 L 433.584000,216.000000 L 435.816000,216.000000 L 438.048000,216.000000 L 440.280000,216.000000 L 442.512000,216.000000 L 444.744000,216.000000 L 446.976000,216.000000 L 449.208000,216.000000 L 451.440000,216.000000 L 453.672000,216.000000 L 455.904000,216.000000 L 458.136000,216.000000 L 460.368000,216.000000 L 462.600000,216.000000 L 464.832000,216.000000 L 467.064000,216.000000 L 469.296000,216.000000 L 471.528000,216.000000 L 473.760000,216.000000 L 475.992000,216.000000 L 478.224000,216.000000 L 480.456000,216.000000 L 482.688000,216.000000 L 484.920000,216.000000 L 487.152000,216.000000 L 489.384000,216.000000 L 491.616000,216.000000 L 493.848000,216.000000 L 496.080000,216.000000 L 498.312000,216.000000 L 500.544000,216.000000 L 502.776000,216.000000 L 505.008000,216.000000 L 507.240000,216.000000 L 509.472000,216.000000 L 511.704000,216.000000 L 513.936000,216.000000 L 516.168000,216.000000 L 518.400000,216.000000 "   />
<path         
style="stroke: #ff0000;  stroke-width: 0.500000;  stroke-linejoin: miter;  stroke-linecap: square;   opacity: 1.000000;  fill: none;   clip-path:url(#-1250928610);  "
 d="M 74.232000,43.200000 L 76.464000,43.200000 L 78.696000,388.800000 L 80.928000,43.200000 L 83.160000,388.800000 L 85.392000,388.800000 L 87.624000,43.200000 L 89.856000,388.800000 L 92.088000,388.800000 L 94.320000,388.800000 L 96.552000,388.800000 L 98.784000,388.800000 L 101.016000,43.200000 L 103.248000,388.800000 L 105.480000,388.800000 L 107.712000,388.800000 L 109.944000,43.200000 L 112.176000,43.200000 L 114.408000,43.200000 L 116.640000,388.800000 L 118.872000,388.800000 L 121.104000,388.800000 L 123.336000,43.200000 L 125.568000,43.200000 L 127.800000,43.200000 L 130.032000,388.800000 L 132.264000,43.200000 L 134.496000,43.200000 L 136.728000,388.800000 L 138.960000,43.200000 L 141.192000,43.200000 L 143.424000,43.200000 L 145.656000,43.200000 L 147.888000,43.200000 L 150.120000,388.800000 L 152.352000,43.200000 L 154.584000,43.200000 L 156.816000,43.200000 L 159.048000,388.800000 L 161.280000,43.200000 L 163.512000,388.800000 L 165.744000,388.800000 L 167.976000,43.200000 L 170.208000,388.800000 L 172.440000,388.800000 L 174.672000,388.800000 L 176.904000,43.200000 L 179.136000,43.200000 L 181.368000,388.800000 L 183.600000,388.800000 L 185.832000,388.800000 L 188.064000,43.200000 L 190.296000,43.200000 L 192.528000,388.800000 L 194.760000,43.200000 L 196.992000,43.200000 L 199.224000,43.200000 L 201.456000,43.200000 L 203.688000,388.800000 L 205.920000,43.200000 L 208.152000,43.200000 L 210.384000,388.800000 L 212.616000,43.200000 L 214.848000,388.800000 L 217.080000,43.200000 L 219.312000,43.200000 L 221.544000,43.200000 L 223.776000,388.800000 L 226.008000,388.800000 L 228.240000,388.800000 L 230.472000,388.800000 L 232.704000,388.800000 L 234.936000,388.800000 L 237.168000,388.800000 L 239.400000,43.200000 L 241.632000,388.800000 L 243.864000,43.200000 L 246.096000,388.800000 L 248.328000,43.200000 L 250.560000,388.800000 L 252.792000,43.200000 L 255.024000,43.200000 L 257.256000,43.200000 L 259.488000,388.800000 L 261.720000,388.800000 L 263.952000,43.200000 L 266.184000,43.200000 L 268.416000,43.200000 L 270.648000,388.800000 L 272.880000,43.200000 L 275.112000,43.200000 L 277.344000,43.200000 L 279.576000,43.200000 L 281.808000,388.800000 L 284.040000,43.200000 L 286.272000,43.200000 L 288.504000,43.200000 L 290.736000,43.200000 L 292.968000,43.200000 L 295.200000,388.800000 L 297.432000,388.800000 L 299.664000,43.200000 L 301.896000,388.800000 L 304.128000,388.800000 L 306.360000,43.200000 L 308.592000,388.800000 L 310.824000,43.200000 L 313.056000,43.200000 L 315.288000,388.800000 L 317.520000,43.200000 L 319.752000,43.200000 L 321.984000,388.800000 L 324.216000,43.200000 L 326.448000,43.200000 L 328.680000,388.800000 L 330.912000,388.800000 L 333.144000,388.800000 L 335.376000,388.800000 L 337.608000,43.200000 L 339.840000,388.800000 L 342.072000,43.200000 L 344.304000,43.200000 L 346.536000,388.800000 L 348.768000,43.200000 L 351.000000,388.800000 L 353.232000,43.200000 L 355.464000,388.800000 L 357.696000,388.800000 L 359.928000,43.200000 L 362.160000,43.200000 L 364.392000,43.200000 L 366.624000,388.800000 L 368.856000,388.800000 L 371.088000,43.200000 L 373.320000,43.200000 L 375.552000,388.800000 L 377.784000,43.200000 L 380.016000,388.800000 L 382.248000,43.200000 L 384.480000,388.800000 L 386.712000,388.800000 L 388.944000,43.200000 L 391.176000,43.200000 L 393.408000,388.800000 L 395.640000,43.200000 L 397.872000,43.200000 L 400.104000,43.200000 L 402.336000,43.200000 L 404.568000,43.200000 L 406.800000,388.800000 L 409.032000,388.800000 L 411.264000,388.800000 L 413.496000,388.800000 L 415.728000,388.800000 L 417.960000,43.200000 L 420.192000,43.200000 L 422.424000,388.800000 L 424.656000,388.800000 L 426.888000,43.200000 L 429.120000,43.200000 L 431.352000,43.200000 L 433.584000,43.200000 L 435.816000,388.800000 L 438.048000,388.800000 L 440.280000,388.800000 L 442.512000,43.200000 L 444.744000,388.800000 L 446.976000,43.200000 L 449.208000,43.200000 L 451.440000,388.800000 L 453.672000,43.200000 L 455.904000,388.800000 L 458.136000,388.800000 L 460.368000,388.800000 L 462.600000,388.800000 L 464.832000,388.800000 L 467.064000,43.200000 L 469.296000,43.200000 L 471.528000,43.200000 L 473.760000,43.200000 L 475.992000,388.800000 L 478.224000,43.200000 L 480.456000,43.200000 L 482.688000,43.200000 L 484.920000,388.800000 L 487.152000,43.200000 L 489.384000,43.200000 L 491.616000,388.800000 L 493.848000,388.800000 L 496.080000,388.800000 L 498.312000,388.800000 L 500.544000,388.800000 L 502.776000,388.800000 L 505.008000,43.200000 L 507.240000,388.800000 L 509.472000,43.200000 L 511.704000,388.800000 L 513.936000,43.200000 L 516.168000,388.800000 L 518.400000,388.800000 "   />
<text style="font-size: 14.000000; font-family: Bitstream Vera Sans; font-style: Roman; fill: #000000;" x="49.700000" y="36.288000" >simple reflected r.w. on A=[0,20], P(W=+-20)=1/2, n=200, mse=19.04</text>
<g id="legend1">
<polygon         
style="stroke: #000000;  stroke-width: 1.000000;  stroke-linejoin: miter;  stroke-linecap: square;   opacity: 1.000000;  fill: #ffffff;   "
   points = "408.614400,93.488640 408.614400,50.112000 509.472000,50.112000 509.472000,93.488640"  />
<path         
style="stroke: #0000ff;  stroke-width: 0.500000;  stroke-linejoin: miter;  stroke-linecap: square;   opacity: 1.000000;  fill: none;   "
 d="M 418.819200,58.726720 L 426.259200,58.726720 L 433.699200,58.726720 L 441.139200,58.726720 "   />
<path         
style="stroke: #008000;  stroke-width: 0.500000;  stroke-linejoin: miter;  stroke-linecap: square;   opacity: 1.000000;  fill: none;   "
 d="M 418.819200,71.800320 L 426.259200,71.800320 L 433.699200,71.800320 L 441.139200,71.800320 "   />
<path         
style="stroke: #ff0000;  stroke-width: 0.500000;  stroke-linejoin: miter;  stroke-linecap: square;   opacity: 1.000000;  fill: none;   "
 d="M 418.819200,84.873920 L 426.259200,84.873920 L 433.699200,84.873920 L 441.139200,84.873920 "   />
<text style="font-size: 10.000000; font-family: Bitstream Vera Sans; font-style: Roman; fill: #000000;" x="450.067200" y="63.726720" >Xn_list</text>
<text style="font-size: 10.000000; font-family: Bitstream Vera Sans; font-style: Roman; fill: #000000;" x="450.067200" y="76.800320" >Xn_hat_list</text>
<text style="font-size: 10.000000; font-family: Bitstream Vera Sans; font-style: Roman; fill: #000000;" x="450.067200" y="89.873920" >Yn_list</text>
</g>
</g>
</g>
</svg>