<?xml version="1.0" standalone="no"?>
<!DOCTYPE svg PUBLIC "-//W3C//DTD SVG 1.0//EN"
"http://www.w3.org/TR/2001/REC-SVG-20010904/DTD/svg10.dtd">
<!-- Created with matplotlib (http://matplotlib.sourceforge.net/) -->
<svg
   xmlns="http://www.w3.org/2000/svg"
   xmlns:xlink="http://www.w3.org/1999/xlink"
   version="1.0"
   x="0.0"
   y="0.0"
   width="576.000000"
   height="432.000000"   
   id="svg1">
<g id="figure1">
<polygon         
style="stroke: #ffffff;  stroke-width: 1.000000;  stroke-linejoin: miter;  stroke-linecap: square;   opacity: 1.000000;  fill: #ffffff;   "
   points = "0.000000,432.000000 0.000000,0.000000 576.000000,0.000000 576.000000,432.000000"  />
<g id="axes1">
<polygon         
style="stroke: #000000;  stroke-width: 1.000000;  stroke-linejoin: miter;  stroke-linecap: square;   opacity: 1.000000;  fill: #ffffff;   "
   points = "72.000000,388.800000 72.000000,43.200000 518.400000,43.200000 518.400000,388.800000"  />
<g id="matplotlib.axis1">
<g id="xtick1">
<text style="font-size: 12.000000; font-family: Bitstream Vera Sans; font-style: Roman; fill: #000000;" x="69.000000" y="401.800000" >0</text>
</g>
<g id="xtick2">
<path         
style="stroke: #000000;  stroke-width: 0.500000;  stroke-linejoin: miter;  stroke-linecap: butt;   opacity: 1.000000;  fill: none;   "
 d="M 183.600000,388.800000 L 183.600000,384.800000"   />
<path         
style="stroke: #000000;  stroke-width: 0.500000;  stroke-linejoin: miter;  stroke-linecap: butt;   opacity: 1.000000;  fill: none;   "
 d="M 183.600000,388.800000 L 183.600000,384.800000"   />
<path         
style="stroke: #000000;  stroke-width: 0.500000;  stroke-linejoin: miter;  stroke-linecap: butt;   opacity: 1.000000;  fill: none;   "
 d="M 183.600000,47.200000 L 183.600000,43.200000"   />
<path         
style="stroke: #000000;  stroke-width: 0.500000;  stroke-linejoin: miter;  stroke-linecap: butt;   opacity: 1.000000;  fill: none;   "
 d="M 183.600000,47.200000 L 183.600000,43.200000"   />
<text style="font-size: 12.000000; font-family: Bitstream Vera Sans; font-style: Roman; fill: #000000;" x="176.600000" y="401.800000" >50</text>
</g>
<g id="xtick3">
<path         
style="stroke: #000000;  stroke-width: 0.500000;  stroke-linejoin: miter;  stroke-linecap: butt;   opacity: 1.000000;  fill: none;   "
 d="M 295.200000,388.800000 L 295.200000,384.800000"   />
<path         
style="stroke: #000000;  stroke-width: 0.500000;  stroke-linejoin: miter;  stroke-linecap: butt;   opacity: 1.000000;  fill: none;   "
 d="M 295.200000,388.800000 L 295.200000,384.800000"   />
<path         
style="stroke: #000000;  stroke-width: 0.500000;  stroke-linejoin: miter;  stroke-linecap: butt;   opacity: 1.000000;  fill: none;   "
 d="M 295.200000,47.200000 L 295.200000,43.200000"   />
<path         
style="stroke: #000000;  stroke-width: 0.500000;  stroke-linejoin: miter;  stroke-linecap: butt;   opacity: 1.000000;  fill: none;   "
 d="M 295.200000,47.200000 L 295.200000,43.200000"   />
<text style="font-size: 12.000000; font-family: Bitstream Vera Sans; font-style: Roman; fill: #000000;" x="284.200000" y="401.800000" >100</text>
</g>
<g id="xtick4">
<path         
style="stroke: #000000;  stroke-width: 0.500000;  stroke-linejoin: miter;  stroke-linecap: butt;   opacity: 1.000000;  fill: none;   "
 d="M 406.800000,388.800000 L 406.800000,384.800000"   />
<path         
style="stroke: #000000;  stroke-width: 0.500000;  stroke-linejoin: miter;  stroke-linecap: butt;   opacity: 1.000000;  fill: none;   "
 d="M 406.800000,388.800000 L 406.800000,384.800000"   />
<path         
style="stroke: #000000;  stroke-width: 0.500000;  stroke-linejoin: miter;  stroke-linecap: butt;   opacity: 1.000000;  fill: none;   "
 d="M 406.800000,47.200000 L 406.800000,43.200000"   />
<path         
style="stroke: #000000;  stroke-width: 0.500000;  stroke-linejoin: miter;  stroke-linecap: butt;   opacity: 1.000000;  fill: none;   "
 d="M 406.800000,47.200000 L 406.800000,43.200000"   />
<text style="font-size: 12.000000; font-family: Bitstream Vera Sans; font-style: Roman; fill: #000000;" x="395.800000" y="401.800000" >150</text>
</g>
<g id="xtick5">
<text style="font-size: 12.000000; font-family: Bitstream Vera Sans; font-style: Roman; fill: #000000;" x="507.400000" y="401.800000" >200</text>
</g>
</g>
<g id="matplotlib.axis2">
<g id="ytick1">
<text style="font-size: 12.000000; font-family: Bitstream Vera Sans; font-style: Roman; fill: #000000;" x="62.000000" y="393.300000" >0</text>
</g>
<g id="ytick2">
<path         
style="stroke: #000000;  stroke-width: 0.500000;  stroke-linejoin: miter;  stroke-linecap: butt;   opacity: 1.000000;  fill: none;   "
 d="M 72.000000,302.400000 L 76.000000,302.400000"   />
<path         
style="stroke: #000000;  stroke-width: 0.500000;  stroke-linejoin: miter;  stroke-linecap: butt;   opacity: 1.000000;  fill: none;   "
 d="M 72.000000,302.400000 L 76.000000,302.400000"   />
<path         
style="stroke: #000000;  stroke-width: 0.500000;  stroke-linejoin: miter;  stroke-linecap: butt;   opacity: 1.000000;  fill: none;   "
 d="M 514.400000,302.400000 L 518.400000,302.400000"   />
<path         
style="stroke: #000000;  stroke-width: 0.500000;  stroke-linejoin: miter;  stroke-linecap: butt;   opacity: 1.000000;  fill: none;   "
 d="M 514.400000,302.400000 L 518.400000,302.400000"   />
<text style="font-size: 12.000000; font-family: Bitstream Vera Sans; font-style: Roman; fill: #000000;" x="62.000000" y="306.900000" >5</text>
</g>
<g id="ytick3">
<path         
style="stroke: #000000;  stroke-width: 0.500000;  stroke-linejoin: miter;  stroke-linecap: butt;   opacity: 1.000000;  fill: none;   "
 d="M 72.000000,216.000000 L 76.000000,216.000000"   />
<path         
style="stroke: #000000;  stroke-width: 0.500000;  stroke-linejoin: miter;  stroke-linecap: butt;   opacity: 1.000000;  fill: none;   "
 d="M 72.000000,216.000000 L 76.000000,216.000000"   />
<path         
style="stroke: #000000;  stroke-width: 0.500000;  stroke-linejoin: miter;  stroke-linecap: butt;   opacity: 1.000000;  fill: none;   "
 d="M 514.400000,216.000000 L 518.400000,216.000000"   />
<path         
style="stroke: #000000;  stroke-width: 0.500000;  stroke-linejoin: miter;  stroke-linecap: butt;   opacity: 1.000000;  fill: none;   "
 d="M 514.400000,216.000000 L 518.400000,216.000000"   />
<text style="font-size: 12.000000; font-family: Bitstream Vera Sans; font-style: Roman; fill: #000000;" x="54.000000" y="220.500000" >10</text>
</g>
<g id="ytick4">
<path         
style="stroke: #000000;  stroke-width: 0.500000;  stroke-linejoin: miter;  stroke-linecap: butt;   opacity: 1.000000;  fill: none;   "
 d="M 72.000000,129.600000 L 76.000000,129.600000"   />
<path         
style="stroke: #000000;  stroke-width: 0.500000;  stroke-linejoin: miter;  stroke-linecap: butt;   opacity: 1.000000;  fill: none;   "
 d="M 72.000000,129.600000 L 76.000000,129.600000"   />
<path         
style="stroke: #000000;  stroke-width: 0.500000;  stroke-linejoin: miter;  stroke-linecap: butt;   opacity: 1.000000;  fill: none;   "
 d="M 514.400000,129.600000 L 518.400000,129.600000"   />
<path         
style="stroke: #000000;  stroke-width: 0.500000;  stroke-linejoin: miter;  stroke-linecap: butt;   opacity: 1.000000;  fill: none;   "
 d="M 514.400000,129.600000 L 518.400000,129.600000"   />
<text style="font-size: 12.000000; font-family: Bitstream Vera Sans; font-style: Roman; fill: #000000;" x="54.000000" y="134.100000" >15</text>
</g>
<g id="ytick5">
<text style="font-size: 12.000000; font-family: Bitstream Vera Sans; font-style: Roman; fill: #000000;" x="54.000000" y="47.700000" >20</text>
</g>
</g>

<defs>
    <clipPath id="-1250928610">
    <rect x="72.000000" y="43.200000" width="446.400000" height="345.600000"
    style="stroke: gray; fill: none;"/>
    </clipPath>
</defs>

<path         
style="stroke: #0000ff;  stroke-width: 0.500000;  stroke-linejoin: miter;  stroke-linecap: square;   opacity: 1.000000;  fill: none;   clip-path:url(#-1250928610);  "
 d="M 74.232000,216.000000 L 76.464000,198.720000 L 78.696000,181.440000 L 80.928000,164.160000 L 83.160000,146.880000 L 85.392000,164.160000 L 87.624000,146.880000 L 89.856000,164.160000 L 92.088000,146.880000 L 94.320000,129.600000 L 96.552000,146.880000 L 98.784000,129.600000 L 101.016000,112.320000 L 103.248000,95.040000 L 105.480000,112.320000 L 107.712000,129.600000 L 109.944000,112.320000 L 112.176000,129.600000 L 114.408000,146.880000 L 116.640000,164.160000 L 118.872000,181.440000 L 121.104000,164.160000 L 123.336000,146.880000 L 125.568000,129.600000 L 127.800000,112.320000 L 130.032000,95.040000 L 132.264000,77.760000 L 134.496000,60.480000 L 136.728000,77.760000 L 138.960000,60.480000 L 141.192000,43.200000 L 143.424000,43.200000 L 145.656000,60.480000 L 147.888000,77.760000 L 150.120000,95.040000 L 152.352000,112.320000 L 154.584000,129.600000 L 156.816000,112.320000 L 159.048000,95.040000 L 161.280000,77.760000 L 163.512000,60.480000 L 165.744000,77.760000 L 167.976000,60.480000 L 170.208000,43.200000 L 172.440000,60.480000 L 174.672000,43.200000 L 176.904000,43.200000 L 179.136000,43.200000 L 181.368000,60.480000 L 183.600000,43.200000 L 185.832000,60.480000 L 188.064000,43.200000 L 190.296000,43.200000 L 192.528000,60.480000 L 194.760000,43.200000 L 196.992000,43.200000 L 199.224000,60.480000 L 201.456000,77.760000 L 203.688000,60.480000 L 205.920000,77.760000 L 208.152000,95.040000 L 210.384000,77.760000 L 212.616000,95.040000 L 214.848000,77.760000 L 217.080000,95.040000 L 219.312000,77.760000 L 221.544000,95.040000 L 223.776000,112.320000 L 226.008000,129.600000 L 228.240000,146.880000 L 230.472000,164.160000 L 232.704000,146.880000 L 234.936000,164.160000 L 237.168000,181.440000 L 239.400000,164.160000 L 241.632000,181.440000 L 243.864000,164.160000 L 246.096000,146.880000 L 248.328000,164.160000 L 250.560000,146.880000 L 252.792000,164.160000 L 255.024000,146.880000 L 257.256000,164.160000 L 259.488000,146.880000 L 261.720000,129.600000 L 263.952000,146.880000 L 266.184000,129.600000 L 268.416000,146.880000 L 270.648000,129.600000 L 272.880000,146.880000 L 275.112000,164.160000 L 277.344000,146.880000 L 279.576000,129.600000 L 281.808000,146.880000 L 284.040000,164.160000 L 286.272000,146.880000 L 288.504000,129.600000 L 290.736000,112.320000 L 292.968000,129.600000 L 295.200000,146.880000 L 297.432000,129.600000 L 299.664000,146.880000 L 301.896000,164.160000 L 304.128000,181.440000 L 306.360000,164.160000 L 308.592000,146.880000 L 310.824000,164.160000 L 313.056000,181.440000 L 315.288000,198.720000 L 317.520000,181.440000 L 319.752000,198.720000 L 321.984000,181.440000 L 324.216000,164.160000 L 326.448000,146.880000 L 328.680000,129.600000 L 330.912000,146.880000 L 333.144000,129.600000 L 335.376000,146.880000 L 337.608000,129.600000 L 339.840000,112.320000 L 342.072000,95.040000 L 344.304000,77.760000 L 346.536000,95.040000 L 348.768000,77.760000 L 351.000000,95.040000 L 353.232000,112.320000 L 355.464000,129.600000 L 357.696000,112.320000 L 359.928000,95.040000 L 362.160000,77.760000 L 364.392000,95.040000 L 366.624000,77.760000 L 368.856000,60.480000 L 371.088000,43.200000 L 373.320000,60.480000 L 375.552000,43.200000 L 377.784000,60.480000 L 380.016000,43.200000 L 382.248000,43.200000 L 384.480000,60.480000 L 386.712000,77.760000 L 388.944000,60.480000 L 391.176000,77.760000 L 393.408000,95.040000 L 395.640000,112.320000 L 397.872000,95.040000 L 400.104000,112.320000 L 402.336000,95.040000 L 404.568000,77.760000 L 406.800000,95.040000 L 409.032000,112.320000 L 411.264000,129.600000 L 413.496000,112.320000 L 415.728000,129.600000 L 417.960000,112.320000 L 420.192000,129.600000 L 422.424000,146.880000 L 424.656000,129.600000 L 426.888000,146.880000 L 429.120000,164.160000 L 431.352000,181.440000 L 433.584000,198.720000 L 435.816000,216.000000 L 438.048000,233.280000 L 440.280000,216.000000 L 442.512000,233.280000 L 444.744000,216.000000 L 446.976000,198.720000 L 449.208000,181.440000 L 451.440000,164.160000 L 453.672000,181.440000 L 455.904000,198.720000 L 458.136000,216.000000 L 460.368000,198.720000 L 462.600000,181.440000 L 464.832000,198.720000 L 467.064000,216.000000 L 469.296000,233.280000 L 471.528000,216.000000 L 473.760000,233.280000 L 475.992000,216.000000 L 478.224000,233.280000 L 480.456000,250.560000 L 482.688000,267.840000 L 484.920000,285.120000 L 487.152000,267.840000 L 489.384000,250.560000 L 491.616000,233.280000 L 493.848000,250.560000 L 496.080000,233.280000 L 498.312000,250.560000 L 500.544000,267.840000 L 502.776000,250.560000 L 505.008000,267.840000 L 507.240000,250.560000 L 509.472000,267.840000 L 511.704000,285.120000 L 513.936000,267.840000 L 516.168000,250.560000 L 518.400000,267.840000 "   />
<path         
style="stroke: #008000;  stroke-width: 0.500000;  stroke-linejoin: miter;  stroke-linecap: square;   opacity: 1.000000;  fill: none;   clip-path:url(#-1250928610);  "
 d="M 74.232000,259.200000 L 76.464000,215.214545 L 78.696000,210.240000 L 80.928000,218.436923 L 83.160000,221.229474 L 85.392000,215.280000 L 87.624000,212.297143 L 89.856000,210.145574 L 92.088000,216.516069 L 94.320000,213.309906 L 96.552000,210.716831 L 98.784000,208.873813 L 101.016000,206.808015 L 103.248000,205.015259 L 105.480000,203.105770 L 107.712000,201.367807 L 109.944000,112.320000 L 112.176000,129.600000 L 114.408000,146.880000 L 116.640000,146.880000 L 118.872000,158.400000 L 121.104000,158.400000 L 123.336000,158.400000 L 125.568000,164.160000 L 127.800000,164.160000 L 130.032000,95.040000 L 132.264000,95.040000 L 134.496000,60.480000 L 136.728000,77.760000 L 138.960000,77.760000 L 141.192000,43.200000 L 143.424000,43.200000 L 145.656000,60.480000 L 147.888000,77.760000 L 150.120000,77.760000 L 152.352000,112.320000 L 154.584000,129.600000 L 156.816000,112.320000 L 159.048000,95.040000 L 161.280000,77.760000 L 163.512000,77.760000 L 165.744000,77.760000 L 167.976000,79.920000 L 170.208000,81.000000 L 172.440000,83.160000 L 174.672000,43.200000 L 176.904000,51.840000 L 179.136000,43.200000 L 181.368000,60.480000 L 183.600000,43.200000 L 185.832000,51.840000 L 188.064000,56.160000 L 190.296000,43.200000 L 192.528000,51.840000 L 194.760000,56.160000 L 196.992000,43.200000 L 199.224000,60.480000 L 201.456000,60.480000 L 203.688000,60.480000 L 205.920000,60.480000 L 208.152000,95.040000 L 210.384000,95.040000 L 212.616000,95.040000 L 214.848000,77.760000 L 217.080000,95.040000 L 219.312000,77.760000 L 221.544000,77.760000 L 223.776000,77.760000 L 226.008000,79.920000 L 228.240000,81.000000 L 230.472000,83.160000 L 232.704000,151.817143 L 234.936000,151.817143 L 237.168000,151.817143 L 239.400000,158.630400 L 241.632000,169.493333 L 243.864000,169.493333 L 246.096000,169.493333 L 248.328000,174.391579 L 250.560000,174.272000 L 252.792000,179.484632 L 255.024000,188.129584 L 257.256000,187.871262 L 259.488000,186.900022 L 261.720000,190.696039 L 263.952000,189.399888 L 266.184000,193.581706 L 268.416000,200.838665 L 270.648000,199.874278 L 272.880000,205.378525 L 275.112000,205.378525 L 277.344000,210.365723 L 279.576000,210.365723 L 281.808000,203.900399 L 284.040000,206.576382 L 286.272000,212.065721 L 288.504000,212.065721 L 290.736000,112.320000 L 292.968000,112.320000 L 295.200000,146.880000 L 297.432000,146.880000 L 299.664000,158.400000 L 301.896000,158.400000 L 304.128000,158.400000 L 306.360000,158.400000 L 308.592000,173.967568 L 310.824000,173.967568 L 313.056000,181.440000 L 315.288000,181.440000 L 317.520000,188.036515 L 319.752000,187.881869 L 321.984000,187.124804 L 324.216000,190.670369 L 326.448000,197.595538 L 328.680000,196.923977 L 330.912000,195.053048 L 333.144000,195.053048 L 335.376000,193.062514 L 337.608000,193.062514 L 339.840000,112.320000 L 342.072000,112.320000 L 344.304000,112.320000 L 346.536000,95.040000 L 348.768000,95.040000 L 351.000000,95.040000 L 353.232000,95.040000 L 355.464000,136.512000 L 357.696000,112.320000 L 359.928000,112.320000 L 362.160000,77.760000 L 364.392000,77.760000 L 366.624000,77.760000 L 368.856000,79.920000 L 371.088000,81.000000 L 373.320000,60.480000 L 375.552000,60.480000 L 377.784000,64.800000 L 380.016000,66.960000 L 382.248000,43.200000 L 384.480000,51.840000 L 386.712000,77.760000 L 388.944000,60.480000 L 391.176000,60.480000 L 393.408000,95.040000 L 395.640000,112.320000 L 397.872000,95.040000 L 400.104000,112.320000 L 402.336000,112.320000 L 404.568000,112.320000 L 406.800000,112.320000 L 409.032000,112.320000 L 411.264000,129.600000 L 413.496000,129.600000 L 415.728000,141.120000 L 417.960000,141.120000 L 420.192000,150.336000 L 422.424000,163.008000 L 424.656000,163.008000 L 426.888000,163.008000 L 429.120000,168.518919 L 431.352000,177.984000 L 433.584000,177.984000 L 435.816000,177.797312 L 438.048000,182.098628 L 440.280000,181.572230 L 442.512000,186.251791 L 444.744000,185.315798 L 446.976000,189.959255 L 449.208000,188.623763 L 451.440000,188.623763 L 453.672000,186.953128 L 455.904000,186.953128 L 458.136000,202.745722 L 460.368000,201.589434 L 462.600000,207.138803 L 464.832000,207.138803 L 467.064000,202.249041 L 469.296000,202.249041 L 471.528000,199.374726 L 473.760000,204.976674 L 475.992000,202.078677 L 478.224000,205.663097 L 480.456000,202.697849 L 482.688000,202.697849 L 484.920000,212.349444 L 487.152000,212.349444 L 489.384000,206.743796 L 491.616000,206.743796 L 493.848000,214.757544 L 496.080000,212.831299 L 498.312000,208.714609 L 500.544000,211.198793 L 502.776000,216.274118 L 505.008000,216.274118 L 507.240000,209.979089 L 509.472000,209.979089 L 511.704000,206.361267 L 513.936000,206.361267 L 516.168000,202.860054 L 518.400000,202.883494 "   />
<path         
style="stroke: #ff0000;  stroke-width: 0.500000;  stroke-linejoin: miter;  stroke-linecap: square;   opacity: 1.000000;  fill: none;   clip-path:url(#-1250928610);  "
 d="M 74.232000,388.800000 L 76.464000,43.200000 L 78.696000,43.200000 L 80.928000,388.800000 L 83.160000,388.800000 L 85.392000,43.200000 L 87.624000,43.200000 L 89.856000,43.200000 L 92.088000,388.800000 L 94.320000,43.200000 L 96.552000,43.200000 L 98.784000,43.200000 L 101.016000,43.200000 L 103.248000,43.200000 L 105.480000,43.200000 L 107.712000,43.200000 L 109.944000,371.520000 L 112.176000,388.800000 L 114.408000,388.800000 L 116.640000,43.200000 L 118.872000,388.800000 L 121.104000,43.200000 L 123.336000,43.200000 L 125.568000,388.800000 L 127.800000,43.200000 L 130.032000,354.240000 L 132.264000,43.200000 L 134.496000,319.680000 L 136.728000,336.960000 L 138.960000,43.200000 L 141.192000,302.400000 L 143.424000,302.400000 L 145.656000,319.680000 L 147.888000,336.960000 L 150.120000,43.200000 L 152.352000,371.520000 L 154.584000,388.800000 L 156.816000,371.520000 L 159.048000,354.240000 L 161.280000,336.960000 L 163.512000,43.200000 L 165.744000,43.200000 L 167.976000,43.200000 L 170.208000,43.200000 L 172.440000,43.200000 L 174.672000,302.400000 L 176.904000,43.200000 L 179.136000,302.400000 L 181.368000,319.680000 L 183.600000,302.400000 L 185.832000,43.200000 L 188.064000,43.200000 L 190.296000,302.400000 L 192.528000,43.200000 L 194.760000,43.200000 L 196.992000,302.400000 L 199.224000,319.680000 L 201.456000,43.200000 L 203.688000,319.680000 L 205.920000,43.200000 L 208.152000,354.240000 L 210.384000,43.200000 L 212.616000,354.240000 L 214.848000,336.960000 L 217.080000,354.240000 L 219.312000,336.960000 L 221.544000,43.200000 L 223.776000,43.200000 L 226.008000,43.200000 L 228.240000,43.200000 L 230.472000,43.200000 L 232.704000,388.800000 L 234.936000,43.200000 L 237.168000,43.200000 L 239.400000,388.800000 L 241.632000,388.800000 L 243.864000,43.200000 L 246.096000,43.200000 L 248.328000,388.800000 L 250.560000,43.200000 L 252.792000,388.800000 L 255.024000,388.800000 L 257.256000,43.200000 L 259.488000,43.200000 L 261.720000,388.800000 L 263.952000,43.200000 L 266.184000,388.800000 L 268.416000,388.800000 L 270.648000,43.200000 L 272.880000,388.800000 L 275.112000,388.800000 L 277.344000,388.800000 L 279.576000,388.800000 L 281.808000,43.200000 L 284.040000,388.800000 L 286.272000,388.800000 L 288.504000,388.800000 L 290.736000,371.520000 L 292.968000,43.200000 L 295.200000,388.800000 L 297.432000,388.800000 L 299.664000,388.800000 L 301.896000,43.200000 L 304.128000,43.200000 L 306.360000,43.200000 L 308.592000,388.800000 L 310.824000,43.200000 L 313.056000,388.800000 L 315.288000,43.200000 L 317.520000,388.800000 L 319.752000,43.200000 L 321.984000,43.200000 L 324.216000,388.800000 L 326.448000,388.800000 L 328.680000,43.200000 L 330.912000,43.200000 L 333.144000,43.200000 L 335.376000,43.200000 L 337.608000,43.200000 L 339.840000,371.520000 L 342.072000,43.200000 L 344.304000,43.200000 L 346.536000,354.240000 L 348.768000,43.200000 L 351.000000,43.200000 L 353.232000,43.200000 L 355.464000,388.800000 L 357.696000,371.520000 L 359.928000,43.200000 L 362.160000,336.960000 L 364.392000,43.200000 L 366.624000,43.200000 L 368.856000,43.200000 L 371.088000,43.200000 L 373.320000,319.680000 L 375.552000,43.200000 L 377.784000,43.200000 L 380.016000,43.200000 L 382.248000,302.400000 L 384.480000,43.200000 L 386.712000,336.960000 L 388.944000,319.680000 L 391.176000,43.200000 L 393.408000,354.240000 L 395.640000,371.520000 L 397.872000,354.240000 L 400.104000,371.520000 L 402.336000,43.200000 L 404.568000,43.200000 L 406.800000,43.200000 L 409.032000,371.520000 L 411.264000,388.800000 L 413.496000,43.200000 L 415.728000,388.800000 L 417.960000,43.200000 L 420.192000,388.800000 L 422.424000,388.800000 L 424.656000,43.200000 L 426.888000,43.200000 L 429.120000,388.800000 L 431.352000,388.800000 L 433.584000,388.800000 L 435.816000,43.200000 L 438.048000,388.800000 L 440.280000,43.200000 L 442.512000,388.800000 L 444.744000,43.200000 L 446.976000,388.800000 L 449.208000,43.200000 L 451.440000,43.200000 L 453.672000,43.200000 L 455.904000,43.200000 L 458.136000,388.800000 L 460.368000,43.200000 L 462.600000,388.800000 L 464.832000,388.800000 L 467.064000,43.200000 L 469.296000,43.200000 L 471.528000,43.200000 L 473.760000,388.800000 L 475.992000,43.200000 L 478.224000,388.800000 L 480.456000,43.200000 L 482.688000,43.200000 L 484.920000,388.800000 L 487.152000,388.800000 L 489.384000,43.200000 L 491.616000,43.200000 L 493.848000,388.800000 L 496.080000,43.200000 L 498.312000,43.200000 L 500.544000,388.800000 L 502.776000,388.800000 L 505.008000,388.800000 L 507.240000,43.200000 L 509.472000,43.200000 L 511.704000,43.200000 L 513.936000,43.200000 L 516.168000,43.200000 L 518.400000,43.200000 "   />
<text style="font-size: 14.000000; font-family: Bitstream Vera Sans; font-style: Roman; fill: #000000;" x="54.200000" y="36.288000" >simple reflected r.w. on A=[0,20], P(W=+-15)=1/2, n=200, mse=4.27</text>
<g id="legend1">
<polygon         
style="stroke: #000000;  stroke-width: 1.000000;  stroke-linejoin: miter;  stroke-linecap: square;   opacity: 1.000000;  fill: #ffffff;   "
   points = "408.614400,93.488640 408.614400,50.112000 509.472000,50.112000 509.472000,93.488640"  />
<path         
style="stroke: #0000ff;  stroke-width: 0.500000;  stroke-linejoin: miter;  stroke-linecap: square;   opacity: 1.000000;  fill: none;   "
 d="M 418.819200,58.726720 L 426.259200,58.726720 L 433.699200,58.726720 L 441.139200,58.726720 "   />
<path         
style="stroke: #008000;  stroke-width: 0.500000;  stroke-linejoin: miter;  stroke-linecap: square;   opacity: 1.000000;  fill: none;   "
 d="M 418.819200,71.800320 L 426.259200,71.800320 L 433.699200,71.800320 L 441.139200,71.800320 "   />
<path         
style="stroke: #ff0000;  stroke-width: 0.500000;  stroke-linejoin: miter;  stroke-linecap: square;   opacity: 1.000000;  fill: none;   "
 d="M 418.819200,84.873920 L 426.259200,84.873920 L 433.699200,84.873920 L 441.139200,84.873920 "   />
<text style="font-size: 10.000000; font-family: Bitstream Vera Sans; font-style: Roman; fill: #000000;" x="450.067200" y="63.726720" >Xn_list</text>
<text style="font-size: 10.000000; font-family: Bitstream Vera Sans; font-style: Roman; fill: #000000;" x="450.067200" y="76.800320" >Xn_hat_list</text>
<text style="font-size: 10.000000; font-family: Bitstream Vera Sans; font-style: Roman; fill: #000000;" x="450.067200" y="89.873920" >Yn_list</text>
</g>
</g>
</g>
</svg>