<?xml version="1.0" standalone="no"?>
<!DOCTYPE svg PUBLIC "-//W3C//DTD SVG 1.0//EN"
"http://www.w3.org/TR/2001/REC-SVG-20010904/DTD/svg10.dtd">
<!-- Created with matplotlib (http://matplotlib.sourceforge.net/) -->
<svg
   xmlns="http://www.w3.org/2000/svg"
   xmlns:xlink="http://www.w3.org/1999/xlink"
   version="1.0"
   x="0.0"
   y="0.0"
   width="576.000000"
   height="432.000000"   
   id="svg1">
<g id="figure1">
<polygon         
style="stroke: #ffffff;  stroke-width: 1.000000;  stroke-linejoin: miter;  stroke-linecap: square;   opacity: 1.000000;  fill: #ffffff;   "
   points = "0.000000,432.000000 0.000000,0.000000 576.000000,0.000000 576.000000,432.000000"  />
<g id="axes1">
<polygon         
style="stroke: #000000;  stroke-width: 1.000000;  stroke-linejoin: miter;  stroke-linecap: square;   opacity: 1.000000;  fill: #ffffff;   "
   points = "72.000000,388.800000 72.000000,43.200000 518.400000,43.200000 518.400000,388.800000"  />
<g id="matplotlib.axis1">
<g id="xtick1">
<text style="font-size: 12.000000; font-family: Bitstream Vera Sans; font-style: Roman; fill: #000000;" x="69.000000" y="401.800000" >0</text>
</g>
<g id="xtick2">
<path         
style="stroke: #000000;  stroke-width: 0.500000;  stroke-linejoin: miter;  stroke-linecap: butt;   opacity: 1.000000;  fill: none;   "
 d="M 183.600000,388.800000 L 183.600000,384.800000"   />
<path         
style="stroke: #000000;  stroke-width: 0.500000;  stroke-linejoin: miter;  stroke-linecap: butt;   opacity: 1.000000;  fill: none;   "
 d="M 183.600000,388.800000 L 183.600000,384.800000"   />
<path         
style="stroke: #000000;  stroke-width: 0.500000;  stroke-linejoin: miter;  stroke-linecap: butt;   opacity: 1.000000;  fill: none;   "
 d="M 183.600000,47.200000 L 183.600000,43.200000"   />
<path         
style="stroke: #000000;  stroke-width: 0.500000;  stroke-linejoin: miter;  stroke-linecap: butt;   opacity: 1.000000;  fill: none;   "
 d="M 183.600000,47.200000 L 183.600000,43.200000"   />
<text style="font-size: 12.000000; font-family: Bitstream Vera Sans; font-style: Roman; fill: #000000;" x="176.600000" y="401.800000" >50</text>
</g>
<g id="xtick3">
<path         
style="stroke: #000000;  stroke-width: 0.500000;  stroke-linejoin: miter;  stroke-linecap: butt;   opacity: 1.000000;  fill: none;   "
 d="M 295.200000,388.800000 L 295.200000,384.800000"   />
<path         
style="stroke: #000000;  stroke-width: 0.500000;  stroke-linejoin: miter;  stroke-linecap: butt;   opacity: 1.000000;  fill: none;   "
 d="M 295.200000,388.800000 L 295.200000,384.800000"   />
<path         
style="stroke: #000000;  stroke-width: 0.500000;  stroke-linejoin: miter;  stroke-linecap: butt;   opacity: 1.000000;  fill: none;   "
 d="M 295.200000,47.200000 L 295.200000,43.200000"   />
<path         
style="stroke: #000000;  stroke-width: 0.500000;  stroke-linejoin: miter;  stroke-linecap: butt;   opacity: 1.000000;  fill: none;   "
 d="M 295.200000,47.200000 L 295.200000,43.200000"   />
<text style="font-size: 12.000000; font-family: Bitstream Vera Sans; font-style: Roman; fill: #000000;" x="284.200000" y="401.800000" >100</text>
</g>
<g id="xtick4">
<path         
style="stroke: #000000;  stroke-width: 0.500000;  stroke-linejoin: miter;  stroke-linecap: butt;   opacity: 1.000000;  fill: none;   "
 d="M 406.800000,388.800000 L 406.800000,384.800000"   />
<path         
style="stroke: #000000;  stroke-width: 0.500000;  stroke-linejoin: miter;  stroke-linecap: butt;   opacity: 1.000000;  fill: none;   "
 d="M 406.800000,388.800000 L 406.800000,384.800000"   />
<path         
style="stroke: #000000;  stroke-width: 0.500000;  stroke-linejoin: miter;  stroke-linecap: butt;   opacity: 1.000000;  fill: none;   "
 d="M 406.800000,47.200000 L 406.800000,43.200000"   />
<path         
style="stroke: #000000;  stroke-width: 0.500000;  stroke-linejoin: miter;  stroke-linecap: butt;   opacity: 1.000000;  fill: none;   "
 d="M 406.800000,47.200000 L 406.800000,43.200000"   />
<text style="font-size: 12.000000; font-family: Bitstream Vera Sans; font-style: Roman; fill: #000000;" x="395.800000" y="401.800000" >150</text>
</g>
<g id="xtick5">
<text style="font-size: 12.000000; font-family: Bitstream Vera Sans; font-style: Roman; fill: #000000;" x="507.400000" y="401.800000" >200</text>
</g>
</g>
<g id="matplotlib.axis2">
<g id="ytick1">
<text style="font-size: 12.000000; font-family: Bitstream Vera Sans; font-style: Roman; fill: #000000;" x="62.000000" y="393.300000" >6</text>
</g>
<g id="ytick2">
<path         
style="stroke: #000000;  stroke-width: 0.500000;  stroke-linejoin: miter;  stroke-linecap: butt;   opacity: 1.000000;  fill: none;   "
 d="M 72.000000,339.428571 L 76.000000,339.428571"   />
<path         
style="stroke: #000000;  stroke-width: 0.500000;  stroke-linejoin: miter;  stroke-linecap: butt;   opacity: 1.000000;  fill: none;   "
 d="M 72.000000,339.428571 L 76.000000,339.428571"   />
<path         
style="stroke: #000000;  stroke-width: 0.500000;  stroke-linejoin: miter;  stroke-linecap: butt;   opacity: 1.000000;  fill: none;   "
 d="M 514.400000,339.428571 L 518.400000,339.428571"   />
<path         
style="stroke: #000000;  stroke-width: 0.500000;  stroke-linejoin: miter;  stroke-linecap: butt;   opacity: 1.000000;  fill: none;   "
 d="M 514.400000,339.428571 L 518.400000,339.428571"   />
<text style="font-size: 12.000000; font-family: Bitstream Vera Sans; font-style: Roman; fill: #000000;" x="62.000000" y="343.928571" >8</text>
</g>
<g id="ytick3">
<path         
style="stroke: #000000;  stroke-width: 0.500000;  stroke-linejoin: miter;  stroke-linecap: butt;   opacity: 1.000000;  fill: none;   "
 d="M 72.000000,290.057143 L 76.000000,290.057143"   />
<path         
style="stroke: #000000;  stroke-width: 0.500000;  stroke-linejoin: miter;  stroke-linecap: butt;   opacity: 1.000000;  fill: none;   "
 d="M 72.000000,290.057143 L 76.000000,290.057143"   />
<path         
style="stroke: #000000;  stroke-width: 0.500000;  stroke-linejoin: miter;  stroke-linecap: butt;   opacity: 1.000000;  fill: none;   "
 d="M 514.400000,290.057143 L 518.400000,290.057143"   />
<path         
style="stroke: #000000;  stroke-width: 0.500000;  stroke-linejoin: miter;  stroke-linecap: butt;   opacity: 1.000000;  fill: none;   "
 d="M 514.400000,290.057143 L 518.400000,290.057143"   />
<text style="font-size: 12.000000; font-family: Bitstream Vera Sans; font-style: Roman; fill: #000000;" x="54.000000" y="294.557143" >10</text>
</g>
<g id="ytick4">
<path         
style="stroke: #000000;  stroke-width: 0.500000;  stroke-linejoin: miter;  stroke-linecap: butt;   opacity: 1.000000;  fill: none;   "
 d="M 72.000000,240.685714 L 76.000000,240.685714"   />
<path         
style="stroke: #000000;  stroke-width: 0.500000;  stroke-linejoin: miter;  stroke-linecap: butt;   opacity: 1.000000;  fill: none;   "
 d="M 72.000000,240.685714 L 76.000000,240.685714"   />
<path         
style="stroke: #000000;  stroke-width: 0.500000;  stroke-linejoin: miter;  stroke-linecap: butt;   opacity: 1.000000;  fill: none;   "
 d="M 514.400000,240.685714 L 518.400000,240.685714"   />
<path         
style="stroke: #000000;  stroke-width: 0.500000;  stroke-linejoin: miter;  stroke-linecap: butt;   opacity: 1.000000;  fill: none;   "
 d="M 514.400000,240.685714 L 518.400000,240.685714"   />
<text style="font-size: 12.000000; font-family: Bitstream Vera Sans; font-style: Roman; fill: #000000;" x="53.953125" y="245.185714" >12</text>
</g>
<g id="ytick5">
<path         
style="stroke: #000000;  stroke-width: 0.500000;  stroke-linejoin: miter;  stroke-linecap: butt;   opacity: 1.000000;  fill: none;   "
 d="M 72.000000,191.314286 L 76.000000,191.314286"   />
<path         
style="stroke: #000000;  stroke-width: 0.500000;  stroke-linejoin: miter;  stroke-linecap: butt;   opacity: 1.000000;  fill: none;   "
 d="M 72.000000,191.314286 L 76.000000,191.314286"   />
<path         
style="stroke: #000000;  stroke-width: 0.500000;  stroke-linejoin: miter;  stroke-linecap: butt;   opacity: 1.000000;  fill: none;   "
 d="M 514.400000,191.314286 L 518.400000,191.314286"   />
<path         
style="stroke: #000000;  stroke-width: 0.500000;  stroke-linejoin: miter;  stroke-linecap: butt;   opacity: 1.000000;  fill: none;   "
 d="M 514.400000,191.314286 L 518.400000,191.314286"   />
<text style="font-size: 12.000000; font-family: Bitstream Vera Sans; font-style: Roman; fill: #000000;" x="54.000000" y="195.814286" >14</text>
</g>
<g id="ytick6">
<path         
style="stroke: #000000;  stroke-width: 0.500000;  stroke-linejoin: miter;  stroke-linecap: butt;   opacity: 1.000000;  fill: none;   "
 d="M 72.000000,141.942857 L 76.000000,141.942857"   />
<path         
style="stroke: #000000;  stroke-width: 0.500000;  stroke-linejoin: miter;  stroke-linecap: butt;   opacity: 1.000000;  fill: none;   "
 d="M 72.000000,141.942857 L 76.000000,141.942857"   />
<path         
style="stroke: #000000;  stroke-width: 0.500000;  stroke-linejoin: miter;  stroke-linecap: butt;   opacity: 1.000000;  fill: none;   "
 d="M 514.400000,141.942857 L 518.400000,141.942857"   />
<path         
style="stroke: #000000;  stroke-width: 0.500000;  stroke-linejoin: miter;  stroke-linecap: butt;   opacity: 1.000000;  fill: none;   "
 d="M 514.400000,141.942857 L 518.400000,141.942857"   />
<text style="font-size: 12.000000; font-family: Bitstream Vera Sans; font-style: Roman; fill: #000000;" x="54.000000" y="146.442857" >16</text>
</g>
<g id="ytick7">
<path         
style="stroke: #000000;  stroke-width: 0.500000;  stroke-linejoin: miter;  stroke-linecap: butt;   opacity: 1.000000;  fill: none;   "
 d="M 72.000000,92.571429 L 76.000000,92.571429"   />
<path         
style="stroke: #000000;  stroke-width: 0.500000;  stroke-linejoin: miter;  stroke-linecap: butt;   opacity: 1.000000;  fill: none;   "
 d="M 72.000000,92.571429 L 76.000000,92.571429"   />
<path         
style="stroke: #000000;  stroke-width: 0.500000;  stroke-linejoin: miter;  stroke-linecap: butt;   opacity: 1.000000;  fill: none;   "
 d="M 514.400000,92.571429 L 518.400000,92.571429"   />
<path         
style="stroke: #000000;  stroke-width: 0.500000;  stroke-linejoin: miter;  stroke-linecap: butt;   opacity: 1.000000;  fill: none;   "
 d="M 514.400000,92.571429 L 518.400000,92.571429"   />
<text style="font-size: 12.000000; font-family: Bitstream Vera Sans; font-style: Roman; fill: #000000;" x="54.000000" y="97.071429" >18</text>
</g>
<g id="ytick8">
<path         
style="stroke: #000000;  stroke-width: 0.500000;  stroke-linejoin: miter;  stroke-linecap: butt;   opacity: 1.000000;  fill: none;   "
 d="M 72.000000,43.200000 L 76.000000,43.200000"   />
<path         
style="stroke: #000000;  stroke-width: 0.500000;  stroke-linejoin: miter;  stroke-linecap: butt;   opacity: 1.000000;  fill: none;   "
 d="M 72.000000,43.200000 L 76.000000,43.200000"   />
<path         
style="stroke: #000000;  stroke-width: 0.500000;  stroke-linejoin: miter;  stroke-linecap: butt;   opacity: 1.000000;  fill: none;   "
 d="M 514.400000,43.200000 L 518.400000,43.200000"   />
<path         
style="stroke: #000000;  stroke-width: 0.500000;  stroke-linejoin: miter;  stroke-linecap: butt;   opacity: 1.000000;  fill: none;   "
 d="M 514.400000,43.200000 L 518.400000,43.200000"   />
<text style="font-size: 12.000000; font-family: Bitstream Vera Sans; font-style: Roman; fill: #000000;" x="54.000000" y="47.700000" >20</text>
</g>
</g>

<defs>
    <clipPath id="-1250928610">
    <rect x="72.000000" y="43.200000" width="446.400000" height="345.600000"
    style="stroke: gray; fill: none;"/>
    </clipPath>
</defs>

<path         
style="stroke: #0000ff;  stroke-width: 0.500000;  stroke-linejoin: miter;  stroke-linecap: square;   opacity: 1.000000;  fill: none;   clip-path:url(#-1250928610);  "
 d="M 74.232000,290.057143 L 76.464000,265.371429 L 78.696000,240.685714 L 80.928000,216.000000 L 83.160000,191.314286 L 85.392000,216.000000 L 87.624000,240.685714 L 89.856000,216.000000 L 92.088000,191.314286 L 94.320000,166.628571 L 96.552000,141.942857 L 98.784000,117.257143 L 101.016000,92.571429 L 103.248000,117.257143 L 105.480000,92.571429 L 107.712000,67.885714 L 109.944000,43.200000 L 112.176000,67.885714 L 114.408000,43.200000 L 116.640000,67.885714 L 118.872000,43.200000 L 121.104000,67.885714 L 123.336000,92.571429 L 125.568000,67.885714 L 127.800000,92.571429 L 130.032000,67.885714 L 132.264000,92.571429 L 134.496000,117.257143 L 136.728000,92.571429 L 138.960000,117.257143 L 141.192000,92.571429 L 143.424000,67.885714 L 145.656000,43.200000 L 147.888000,67.885714 L 150.120000,43.200000 L 152.352000,67.885714 L 154.584000,92.571429 L 156.816000,117.257143 L 159.048000,92.571429 L 161.280000,117.257143 L 163.512000,141.942857 L 165.744000,117.257143 L 167.976000,92.571429 L 170.208000,67.885714 L 172.440000,43.200000 L 174.672000,43.200000 L 176.904000,67.885714 L 179.136000,43.200000 L 181.368000,43.200000 L 183.600000,43.200000 L 185.832000,43.200000 L 188.064000,67.885714 L 190.296000,43.200000 L 192.528000,43.200000 L 194.760000,43.200000 L 196.992000,67.885714 L 199.224000,92.571429 L 201.456000,67.885714 L 203.688000,43.200000 L 205.920000,43.200000 L 208.152000,43.200000 L 210.384000,43.200000 L 212.616000,43.200000 L 214.848000,43.200000 L 217.080000,43.200000 L 219.312000,43.200000 L 221.544000,43.200000 L 223.776000,43.200000 L 226.008000,43.200000 L 228.240000,67.885714 L 230.472000,92.571429 L 232.704000,117.257143 L 234.936000,92.571429 L 237.168000,117.257143 L 239.400000,92.571429 L 241.632000,67.885714 L 243.864000,92.571429 L 246.096000,117.257143 L 248.328000,92.571429 L 250.560000,117.257143 L 252.792000,141.942857 L 255.024000,117.257143 L 257.256000,141.942857 L 259.488000,117.257143 L 261.720000,141.942857 L 263.952000,166.628571 L 266.184000,191.314286 L 268.416000,166.628571 L 270.648000,141.942857 L 272.880000,166.628571 L 275.112000,141.942857 L 277.344000,117.257143 L 279.576000,92.571429 L 281.808000,67.885714 L 284.040000,92.571429 L 286.272000,67.885714 L 288.504000,92.571429 L 290.736000,117.257143 L 292.968000,141.942857 L 295.200000,166.628571 L 297.432000,141.942857 L 299.664000,117.257143 L 301.896000,92.571429 L 304.128000,67.885714 L 306.360000,92.571429 L 308.592000,117.257143 L 310.824000,92.571429 L 313.056000,67.885714 L 315.288000,43.200000 L 317.520000,67.885714 L 319.752000,92.571429 L 321.984000,117.257143 L 324.216000,92.571429 L 326.448000,117.257143 L 328.680000,141.942857 L 330.912000,166.628571 L 333.144000,141.942857 L 335.376000,166.628571 L 337.608000,141.942857 L 339.840000,117.257143 L 342.072000,92.571429 L 344.304000,117.257143 L 346.536000,141.942857 L 348.768000,166.628571 L 351.000000,141.942857 L 353.232000,117.257143 L 355.464000,92.571429 L 357.696000,67.885714 L 359.928000,43.200000 L 362.160000,43.200000 L 364.392000,43.200000 L 366.624000,67.885714 L 368.856000,92.571429 L 371.088000,117.257143 L 373.320000,141.942857 L 375.552000,166.628571 L 377.784000,191.314286 L 380.016000,166.628571 L 382.248000,141.942857 L 384.480000,166.628571 L 386.712000,141.942857 L 388.944000,166.628571 L 391.176000,141.942857 L 393.408000,117.257143 L 395.640000,141.942857 L 397.872000,117.257143 L 400.104000,141.942857 L 402.336000,166.628571 L 404.568000,191.314286 L 406.800000,216.000000 L 409.032000,191.314286 L 411.264000,166.628571 L 413.496000,141.942857 L 415.728000,166.628571 L 417.960000,191.314286 L 420.192000,216.000000 L 422.424000,240.685714 L 424.656000,216.000000 L 426.888000,240.685714 L 429.120000,265.371429 L 431.352000,240.685714 L 433.584000,216.000000 L 435.816000,191.314286 L 438.048000,216.000000 L 440.280000,191.314286 L 442.512000,166.628571 L 444.744000,141.942857 L 446.976000,166.628571 L 449.208000,141.942857 L 451.440000,117.257143 L 453.672000,92.571429 L 455.904000,67.885714 L 458.136000,43.200000 L 460.368000,43.200000 L 462.600000,43.200000 L 464.832000,67.885714 L 467.064000,92.571429 L 469.296000,117.257143 L 471.528000,141.942857 L 473.760000,166.628571 L 475.992000,141.942857 L 478.224000,117.257143 L 480.456000,141.942857 L 482.688000,166.628571 L 484.920000,191.314286 L 487.152000,166.628571 L 489.384000,191.314286 L 491.616000,166.628571 L 493.848000,191.314286 L 496.080000,216.000000 L 498.312000,240.685714 L 500.544000,216.000000 L 502.776000,240.685714 L 505.008000,265.371429 L 507.240000,240.685714 L 509.472000,265.371429 L 511.704000,290.057143 L 513.936000,314.742857 L 516.168000,339.428571 L 518.400000,314.742857 "   />
<path         
style="stroke: #008000;  stroke-width: 0.500000;  stroke-linejoin: miter;  stroke-linecap: square;   opacity: 1.000000;  fill: none;   clip-path:url(#-1250928610);  "
 d="M 74.232000,265.371429 L 76.464000,281.828571 L 78.696000,270.308571 L 80.928000,216.000000 L 83.160000,191.314286 L 85.392000,216.000000 L 87.624000,240.685714 L 89.856000,216.000000 L 92.088000,216.000000 L 94.320000,199.542857 L 96.552000,141.942857 L 98.784000,117.257143 L 101.016000,92.571429 L 103.248000,92.571429 L 105.480000,76.114286 L 107.712000,61.714286 L 109.944000,64.359184 L 112.176000,58.909091 L 114.408000,62.400000 L 116.640000,58.522167 L 118.872000,49.988571 L 121.104000,53.575155 L 123.336000,92.571429 L 125.568000,67.885714 L 127.800000,92.571429 L 130.032000,67.885714 L 132.264000,67.885714 L 134.496000,117.257143 L 136.728000,92.571429 L 138.960000,92.571429 L 141.192000,76.114286 L 143.424000,61.714286 L 145.656000,64.359184 L 147.888000,82.697143 L 150.120000,43.200000 L 152.352000,55.542857 L 154.584000,59.657143 L 156.816000,117.257143 L 159.048000,117.257143 L 161.280000,133.714286 L 163.512000,154.285714 L 165.744000,145.469388 L 167.976000,127.131429 L 170.208000,105.863736 L 172.440000,43.200000 L 174.672000,55.542857 L 176.904000,67.885714 L 179.136000,43.200000 L 181.368000,55.542857 L 183.600000,51.428571 L 185.832000,55.542857 L 188.064000,77.760000 L 190.296000,43.200000 L 192.528000,43.200000 L 194.760000,43.200000 L 196.992000,55.542857 L 199.224000,92.571429 L 201.456000,67.885714 L 203.688000,43.200000 L 205.920000,43.200000 L 208.152000,55.542857 L 210.384000,59.657143 L 212.616000,58.011429 L 214.848000,61.714286 L 217.080000,43.200000 L 219.312000,55.542857 L 221.544000,51.428571 L 223.776000,55.542857 L 226.008000,57.306122 L 228.240000,67.885714 L 230.472000,92.571429 L 232.704000,117.257143 L 234.936000,92.571429 L 237.168000,92.571429 L 239.400000,76.114286 L 241.632000,87.634286 L 243.864000,106.677551 L 246.096000,128.228571 L 248.328000,92.571429 L 250.560000,92.571429 L 252.792000,141.942857 L 255.024000,117.257143 L 257.256000,141.942857 L 259.488000,117.257143 L 261.720000,141.942857 L 263.952000,166.628571 L 266.184000,191.314286 L 268.416000,166.628571 L 270.648000,141.942857 L 272.880000,166.628571 L 275.112000,166.628571 L 277.344000,117.257143 L 279.576000,117.257143 L 281.808000,67.885714 L 284.040000,67.885714 L 286.272000,84.342857 L 288.504000,104.914286 L 290.736000,127.131429 L 292.968000,120.000000 L 295.200000,166.628571 L 297.432000,141.942857 L 299.664000,141.942857 L 301.896000,125.485714 L 304.128000,67.885714 L 306.360000,67.885714 L 308.592000,117.257143 L 310.824000,117.257143 L 313.056000,100.800000 L 315.288000,43.200000 L 317.520000,55.542857 L 319.752000,92.571429 L 321.984000,92.571429 L 324.216000,76.114286 L 326.448000,117.257143 L 328.680000,117.257143 L 330.912000,166.628571 L 333.144000,166.628571 L 335.376000,183.085714 L 337.608000,141.942857 L 339.840000,117.257143 L 342.072000,117.257143 L 344.304000,133.714286 L 346.536000,154.285714 L 348.768000,145.469388 L 351.000000,127.131429 L 353.232000,105.863736 L 355.464000,83.314286 L 357.696000,63.987970 L 359.928000,65.769796 L 362.160000,59.200000 L 364.392000,62.615730 L 366.624000,81.821198 L 368.856000,103.439353 L 371.088000,95.624432 L 373.320000,141.942857 L 375.552000,166.628571 L 377.784000,191.314286 L 380.016000,166.628571 L 382.248000,166.628571 L 384.480000,150.171429 L 386.712000,129.600000 L 388.944000,166.628571 L 391.176000,166.628571 L 393.408000,150.171429 L 395.640000,161.691429 L 397.872000,117.257143 L 400.104000,141.942857 L 402.336000,141.942857 L 404.568000,191.314286 L 406.800000,191.314286 L 409.032000,174.857143 L 411.264000,154.285714 L 413.496000,132.068571 L 415.728000,139.200000 L 417.960000,191.314286 L 420.192000,191.314286 L 422.424000,240.685714 L 424.656000,216.000000 L 426.888000,216.000000 L 429.120000,232.457143 L 431.352000,253.028571 L 433.584000,244.212245 L 435.816000,225.874286 L 438.048000,204.606593 L 440.280000,182.057143 L 442.512000,158.833083 L 444.744000,164.512653 L 446.976000,182.117647 L 449.208000,141.942857 L 451.440000,141.942857 L 453.672000,125.485714 L 455.904000,104.914286 L 458.136000,82.697143 L 460.368000,63.771429 L 462.600000,65.641558 L 464.832000,83.314286 L 467.064000,104.326531 L 469.296000,95.907336 L 471.528000,110.447291 L 473.760000,166.628571 L 475.992000,141.942857 L 478.224000,117.257143 L 480.456000,141.942857 L 482.688000,166.628571 L 484.920000,166.628571 L 487.152000,150.171429 L 489.384000,161.691429 L 491.616000,148.114286 L 493.848000,160.931868 L 496.080000,216.000000 L 498.312000,216.000000 L 500.544000,232.457143 L 502.776000,220.937143 L 505.008000,265.371429 L 507.240000,240.685714 L 509.472000,265.371429 L 511.704000,290.057143 L 513.936000,290.057143 L 516.168000,339.428571 L 518.400000,339.428571 "   />
<path         
style="stroke: #ff0000;  stroke-width: 0.500000;  stroke-linejoin: miter;  stroke-linecap: square;   opacity: 1.000000;  fill: none;   clip-path:url(#-1250928610);  "
 d="M 74.232000,265.371429 L 76.464000,290.057143 L 78.696000,265.371429 L 80.928000,191.314286 L 83.160000,166.628571 L 85.392000,240.685714 L 87.624000,265.371429 L 89.856000,191.314286 L 92.088000,216.000000 L 94.320000,191.314286 L 96.552000,117.257143 L 98.784000,92.571429 L 101.016000,67.885714 L 103.248000,92.571429 L 105.480000,67.885714 L 107.712000,43.200000 L 109.944000,67.885714 L 112.176000,43.200000 L 114.408000,67.885714 L 116.640000,43.200000 L 118.872000,43.200000 L 121.104000,43.200000 L 123.336000,117.257143 L 125.568000,43.200000 L 127.800000,117.257143 L 130.032000,43.200000 L 132.264000,67.885714 L 134.496000,141.942857 L 136.728000,67.885714 L 138.960000,92.571429 L 141.192000,67.885714 L 143.424000,43.200000 L 145.656000,67.885714 L 147.888000,92.571429 L 150.120000,43.200000 L 152.352000,43.200000 L 154.584000,67.885714 L 156.816000,141.942857 L 159.048000,117.257143 L 161.280000,141.942857 L 163.512000,166.628571 L 165.744000,141.942857 L 167.976000,117.257143 L 170.208000,92.571429 L 172.440000,43.200000 L 174.672000,43.200000 L 176.904000,92.571429 L 179.136000,43.200000 L 181.368000,43.200000 L 183.600000,43.200000 L 185.832000,67.885714 L 188.064000,92.571429 L 190.296000,43.200000 L 192.528000,67.885714 L 194.760000,67.885714 L 196.992000,43.200000 L 199.224000,117.257143 L 201.456000,43.200000 L 203.688000,43.200000 L 205.920000,67.885714 L 208.152000,43.200000 L 210.384000,67.885714 L 212.616000,43.200000 L 214.848000,67.885714 L 217.080000,67.885714 L 219.312000,43.200000 L 221.544000,43.200000 L 223.776000,67.885714 L 226.008000,43.200000 L 228.240000,92.571429 L 230.472000,117.257143 L 232.704000,141.942857 L 234.936000,67.885714 L 237.168000,92.571429 L 239.400000,67.885714 L 241.632000,92.571429 L 243.864000,117.257143 L 246.096000,141.942857 L 248.328000,67.885714 L 250.560000,92.571429 L 252.792000,166.628571 L 255.024000,92.571429 L 257.256000,166.628571 L 259.488000,92.571429 L 261.720000,166.628571 L 263.952000,191.314286 L 266.184000,216.000000 L 268.416000,141.942857 L 270.648000,117.257143 L 272.880000,191.314286 L 275.112000,166.628571 L 277.344000,92.571429 L 279.576000,117.257143 L 281.808000,43.200000 L 284.040000,67.885714 L 286.272000,92.571429 L 288.504000,117.257143 L 290.736000,141.942857 L 292.968000,117.257143 L 295.200000,191.314286 L 297.432000,117.257143 L 299.664000,141.942857 L 301.896000,117.257143 L 304.128000,43.200000 L 306.360000,67.885714 L 308.592000,141.942857 L 310.824000,117.257143 L 313.056000,92.571429 L 315.288000,43.200000 L 317.520000,43.200000 L 319.752000,117.257143 L 321.984000,92.571429 L 324.216000,67.885714 L 326.448000,141.942857 L 328.680000,117.257143 L 330.912000,191.314286 L 333.144000,166.628571 L 335.376000,191.314286 L 337.608000,117.257143 L 339.840000,92.571429 L 342.072000,117.257143 L 344.304000,141.942857 L 346.536000,166.628571 L 348.768000,141.942857 L 351.000000,117.257143 L 353.232000,92.571429 L 355.464000,67.885714 L 357.696000,43.200000 L 359.928000,67.885714 L 362.160000,43.200000 L 364.392000,67.885714 L 366.624000,92.571429 L 368.856000,117.257143 L 371.088000,92.571429 L 373.320000,166.628571 L 375.552000,191.314286 L 377.784000,216.000000 L 380.016000,141.942857 L 382.248000,166.628571 L 384.480000,141.942857 L 386.712000,117.257143 L 388.944000,191.314286 L 391.176000,166.628571 L 393.408000,141.942857 L 395.640000,166.628571 L 397.872000,92.571429 L 400.104000,166.628571 L 402.336000,141.942857 L 404.568000,216.000000 L 406.800000,191.314286 L 409.032000,166.628571 L 411.264000,141.942857 L 413.496000,117.257143 L 415.728000,141.942857 L 417.960000,216.000000 L 420.192000,191.314286 L 422.424000,265.371429 L 424.656000,191.314286 L 426.888000,216.000000 L 429.120000,240.685714 L 431.352000,265.371429 L 433.584000,240.685714 L 435.816000,216.000000 L 438.048000,191.314286 L 440.280000,166.628571 L 442.512000,141.942857 L 444.744000,166.628571 L 446.976000,191.314286 L 449.208000,117.257143 L 451.440000,141.942857 L 453.672000,117.257143 L 455.904000,92.571429 L 458.136000,67.885714 L 460.368000,43.200000 L 462.600000,67.885714 L 464.832000,92.571429 L 467.064000,117.257143 L 469.296000,92.571429 L 471.528000,117.257143 L 473.760000,191.314286 L 475.992000,117.257143 L 478.224000,92.571429 L 480.456000,166.628571 L 482.688000,191.314286 L 484.920000,166.628571 L 487.152000,141.942857 L 489.384000,166.628571 L 491.616000,141.942857 L 493.848000,166.628571 L 496.080000,240.685714 L 498.312000,216.000000 L 500.544000,240.685714 L 502.776000,216.000000 L 505.008000,290.057143 L 507.240000,216.000000 L 509.472000,290.057143 L 511.704000,314.742857 L 513.936000,290.057143 L 516.168000,364.114286 L 518.400000,339.428571 "   />
<text style="font-size: 14.000000; font-family: Bitstream Vera Sans; font-style: Roman; fill: #000000;" x="58.700000" y="36.288000" >simple reflected r.w. on A=[0,20], P(W=+-1)=1/2, n=200, mse=0.45</text>
<g id="legend1">
<polygon         
style="stroke: #000000;  stroke-width: 1.000000;  stroke-linejoin: miter;  stroke-linecap: square;   opacity: 1.000000;  fill: #ffffff;   "
   points = "408.614400,93.488640 408.614400,50.112000 509.472000,50.112000 509.472000,93.488640"  />
<path         
style="stroke: #0000ff;  stroke-width: 0.500000;  stroke-linejoin: miter;  stroke-linecap: square;   opacity: 1.000000;  fill: none;   "
 d="M 418.819200,58.726720 L 426.259200,58.726720 L 433.699200,58.726720 L 441.139200,58.726720 "   />
<path         
style="stroke: #008000;  stroke-width: 0.500000;  stroke-linejoin: miter;  stroke-linecap: square;   opacity: 1.000000;  fill: none;   "
 d="M 418.819200,71.800320 L 426.259200,71.800320 L 433.699200,71.800320 L 441.139200,71.800320 "   />
<path         
style="stroke: #ff0000;  stroke-width: 0.500000;  stroke-linejoin: miter;  stroke-linecap: square;   opacity: 1.000000;  fill: none;   "
 d="M 418.819200,84.873920 L 426.259200,84.873920 L 433.699200,84.873920 L 441.139200,84.873920 "   />
<text style="font-size: 10.000000; font-family: Bitstream Vera Sans; font-style: Roman; fill: #000000;" x="450.067200" y="63.726720" >Xn_list</text>
<text style="font-size: 10.000000; font-family: Bitstream Vera Sans; font-style: Roman; fill: #000000;" x="450.067200" y="76.800320" >Xn_hat_list</text>
<text style="font-size: 10.000000; font-family: Bitstream Vera Sans; font-style: Roman; fill: #000000;" x="450.067200" y="89.873920" >Yn_list</text>
</g>
</g>
</g>
</svg>