<?xml version="1.0" standalone="no"?>
<!DOCTYPE svg PUBLIC "-//W3C//DTD SVG 1.0//EN"
"http://www.w3.org/TR/2001/REC-SVG-20010904/DTD/svg10.dtd">
<!-- Created with matplotlib (http://matplotlib.sourceforge.net/) -->
<svg
   xmlns="http://www.w3.org/2000/svg"
   xmlns:xlink="http://www.w3.org/1999/xlink"
   version="1.0"
   x="0.0"
   y="0.0"
   width="576.000000"
   height="432.000000"   
   id="svg1">
<g id="figure1">
<polygon         
style="stroke: #ffffff;  stroke-width: 1.000000;  stroke-linejoin: miter;  stroke-linecap: square;   opacity: 1.000000;  fill: #ffffff;   "
   points = "0.000000,432.000000 0.000000,0.000000 576.000000,0.000000 576.000000,432.000000"  />
<g id="axes1">
<polygon         
style="stroke: #000000;  stroke-width: 1.000000;  stroke-linejoin: miter;  stroke-linecap: square;   opacity: 1.000000;  fill: #ffffff;   "
   points = "72.000000,388.800000 72.000000,43.200000 518.400000,43.200000 518.400000,388.800000"  />
<g id="matplotlib.axis1">
<g id="xtick1">
<text style="font-size: 12.000000; font-family: Bitstream Vera Sans; font-style: Roman; fill: #000000;" x="69.000000" y="401.800000" >0</text>
</g>
<g id="xtick2">
<path         
style="stroke: #000000;  stroke-width: 0.500000;  stroke-linejoin: miter;  stroke-linecap: butt;   opacity: 1.000000;  fill: none;   "
 d="M 183.600000,388.800000 L 183.600000,384.800000"   />
<path         
style="stroke: #000000;  stroke-width: 0.500000;  stroke-linejoin: miter;  stroke-linecap: butt;   opacity: 1.000000;  fill: none;   "
 d="M 183.600000,388.800000 L 183.600000,384.800000"   />
<path         
style="stroke: #000000;  stroke-width: 0.500000;  stroke-linejoin: miter;  stroke-linecap: butt;   opacity: 1.000000;  fill: none;   "
 d="M 183.600000,47.200000 L 183.600000,43.200000"   />
<path         
style="stroke: #000000;  stroke-width: 0.500000;  stroke-linejoin: miter;  stroke-linecap: butt;   opacity: 1.000000;  fill: none;   "
 d="M 183.600000,47.200000 L 183.600000,43.200000"   />
<text style="font-size: 12.000000; font-family: Bitstream Vera Sans; font-style: Roman; fill: #000000;" x="176.600000" y="401.800000" >50</text>
</g>
<g id="xtick3">
<path         
style="stroke: #000000;  stroke-width: 0.500000;  stroke-linejoin: miter;  stroke-linecap: butt;   opacity: 1.000000;  fill: none;   "
 d="M 295.200000,388.800000 L 295.200000,384.800000"   />
<path         
style="stroke: #000000;  stroke-width: 0.500000;  stroke-linejoin: miter;  stroke-linecap: butt;   opacity: 1.000000;  fill: none;   "
 d="M 295.200000,388.800000 L 295.200000,384.800000"   />
<path         
style="stroke: #000000;  stroke-width: 0.500000;  stroke-linejoin: miter;  stroke-linecap: butt;   opacity: 1.000000;  fill: none;   "
 d="M 295.200000,47.200000 L 295.200000,43.200000"   />
<path         
style="stroke: #000000;  stroke-width: 0.500000;  stroke-linejoin: miter;  stroke-linecap: butt;   opacity: 1.000000;  fill: none;   "
 d="M 295.200000,47.200000 L 295.200000,43.200000"   />
<text style="font-size: 12.000000; font-family: Bitstream Vera Sans; font-style: Roman; fill: #000000;" x="284.200000" y="401.800000" >100</text>
</g>
<g id="xtick4">
<path         
style="stroke: #000000;  stroke-width: 0.500000;  stroke-linejoin: miter;  stroke-linecap: butt;   opacity: 1.000000;  fill: none;   "
 d="M 406.800000,388.800000 L 406.800000,384.800000"   />
<path         
style="stroke: #000000;  stroke-width: 0.500000;  stroke-linejoin: miter;  stroke-linecap: butt;   opacity: 1.000000;  fill: none;   "
 d="M 406.800000,388.800000 L 406.800000,384.800000"   />
<path         
style="stroke: #000000;  stroke-width: 0.500000;  stroke-linejoin: miter;  stroke-linecap: butt;   opacity: 1.000000;  fill: none;   "
 d="M 406.800000,47.200000 L 406.800000,43.200000"   />
<path         
style="stroke: #000000;  stroke-width: 0.500000;  stroke-linejoin: miter;  stroke-linecap: butt;   opacity: 1.000000;  fill: none;   "
 d="M 406.800000,47.200000 L 406.800000,43.200000"   />
<text style="font-size: 12.000000; font-family: Bitstream Vera Sans; font-style: Roman; fill: #000000;" x="395.800000" y="401.800000" >150</text>
</g>
<g id="xtick5">
<text style="font-size: 12.000000; font-family: Bitstream Vera Sans; font-style: Roman; fill: #000000;" x="507.400000" y="401.800000" >200</text>
</g>
</g>
<g id="matplotlib.axis2">
<g id="ytick1">
<text style="font-size: 12.000000; font-family: Bitstream Vera Sans; font-style: Roman; fill: #000000;" x="62.000000" y="393.300000" >0</text>
</g>
<g id="ytick2">
<path         
style="stroke: #000000;  stroke-width: 0.500000;  stroke-linejoin: miter;  stroke-linecap: butt;   opacity: 1.000000;  fill: none;   "
 d="M 72.000000,302.400000 L 76.000000,302.400000"   />
<path         
style="stroke: #000000;  stroke-width: 0.500000;  stroke-linejoin: miter;  stroke-linecap: butt;   opacity: 1.000000;  fill: none;   "
 d="M 72.000000,302.400000 L 76.000000,302.400000"   />
<path         
style="stroke: #000000;  stroke-width: 0.500000;  stroke-linejoin: miter;  stroke-linecap: butt;   opacity: 1.000000;  fill: none;   "
 d="M 514.400000,302.400000 L 518.400000,302.400000"   />
<path         
style="stroke: #000000;  stroke-width: 0.500000;  stroke-linejoin: miter;  stroke-linecap: butt;   opacity: 1.000000;  fill: none;   "
 d="M 514.400000,302.400000 L 518.400000,302.400000"   />
<text style="font-size: 12.000000; font-family: Bitstream Vera Sans; font-style: Roman; fill: #000000;" x="62.000000" y="306.900000" >5</text>
</g>
<g id="ytick3">
<path         
style="stroke: #000000;  stroke-width: 0.500000;  stroke-linejoin: miter;  stroke-linecap: butt;   opacity: 1.000000;  fill: none;   "
 d="M 72.000000,216.000000 L 76.000000,216.000000"   />
<path         
style="stroke: #000000;  stroke-width: 0.500000;  stroke-linejoin: miter;  stroke-linecap: butt;   opacity: 1.000000;  fill: none;   "
 d="M 72.000000,216.000000 L 76.000000,216.000000"   />
<path         
style="stroke: #000000;  stroke-width: 0.500000;  stroke-linejoin: miter;  stroke-linecap: butt;   opacity: 1.000000;  fill: none;   "
 d="M 514.400000,216.000000 L 518.400000,216.000000"   />
<path         
style="stroke: #000000;  stroke-width: 0.500000;  stroke-linejoin: miter;  stroke-linecap: butt;   opacity: 1.000000;  fill: none;   "
 d="M 514.400000,216.000000 L 518.400000,216.000000"   />
<text style="font-size: 12.000000; font-family: Bitstream Vera Sans; font-style: Roman; fill: #000000;" x="54.000000" y="220.500000" >10</text>
</g>
<g id="ytick4">
<path         
style="stroke: #000000;  stroke-width: 0.500000;  stroke-linejoin: miter;  stroke-linecap: butt;   opacity: 1.000000;  fill: none;   "
 d="M 72.000000,129.600000 L 76.000000,129.600000"   />
<path         
style="stroke: #000000;  stroke-width: 0.500000;  stroke-linejoin: miter;  stroke-linecap: butt;   opacity: 1.000000;  fill: none;   "
 d="M 72.000000,129.600000 L 76.000000,129.600000"   />
<path         
style="stroke: #000000;  stroke-width: 0.500000;  stroke-linejoin: miter;  stroke-linecap: butt;   opacity: 1.000000;  fill: none;   "
 d="M 514.400000,129.600000 L 518.400000,129.600000"   />
<path         
style="stroke: #000000;  stroke-width: 0.500000;  stroke-linejoin: miter;  stroke-linecap: butt;   opacity: 1.000000;  fill: none;   "
 d="M 514.400000,129.600000 L 518.400000,129.600000"   />
<text style="font-size: 12.000000; font-family: Bitstream Vera Sans; font-style: Roman; fill: #000000;" x="54.000000" y="134.100000" >15</text>
</g>
<g id="ytick5">
<text style="font-size: 12.000000; font-family: Bitstream Vera Sans; font-style: Roman; fill: #000000;" x="54.000000" y="47.700000" >20</text>
</g>
</g>

<defs>
    <clipPath id="-1250928610">
    <rect x="72.000000" y="43.200000" width="446.400000" height="345.600000"
    style="stroke: gray; fill: none;"/>
    </clipPath>
</defs>

<path         
style="stroke: #0000ff;  stroke-width: 0.500000;  stroke-linejoin: miter;  stroke-linecap: square;   opacity: 1.000000;  fill: none;   clip-path:url(#-1250928610);  "
 d="M 74.232000,216.000000 L 76.464000,233.280000 L 78.696000,216.000000 L 80.928000,198.720000 L 83.160000,216.000000 L 85.392000,198.720000 L 87.624000,216.000000 L 89.856000,233.280000 L 92.088000,250.560000 L 94.320000,267.840000 L 96.552000,285.120000 L 98.784000,267.840000 L 101.016000,250.560000 L 103.248000,267.840000 L 105.480000,250.560000 L 107.712000,267.840000 L 109.944000,250.560000 L 112.176000,233.280000 L 114.408000,250.560000 L 116.640000,267.840000 L 118.872000,250.560000 L 121.104000,233.280000 L 123.336000,250.560000 L 125.568000,267.840000 L 127.800000,250.560000 L 130.032000,267.840000 L 132.264000,250.560000 L 134.496000,267.840000 L 136.728000,250.560000 L 138.960000,233.280000 L 141.192000,250.560000 L 143.424000,233.280000 L 145.656000,250.560000 L 147.888000,267.840000 L 150.120000,285.120000 L 152.352000,302.400000 L 154.584000,319.680000 L 156.816000,336.960000 L 159.048000,354.240000 L 161.280000,371.520000 L 163.512000,354.240000 L 165.744000,336.960000 L 167.976000,354.240000 L 170.208000,371.520000 L 172.440000,388.800000 L 174.672000,371.520000 L 176.904000,354.240000 L 179.136000,336.960000 L 181.368000,354.240000 L 183.600000,371.520000 L 185.832000,354.240000 L 188.064000,336.960000 L 190.296000,319.680000 L 192.528000,302.400000 L 194.760000,319.680000 L 196.992000,336.960000 L 199.224000,354.240000 L 201.456000,371.520000 L 203.688000,388.800000 L 205.920000,371.520000 L 208.152000,388.800000 L 210.384000,371.520000 L 212.616000,388.800000 L 214.848000,371.520000 L 217.080000,354.240000 L 219.312000,336.960000 L 221.544000,354.240000 L 223.776000,371.520000 L 226.008000,388.800000 L 228.240000,388.800000 L 230.472000,371.520000 L 232.704000,388.800000 L 234.936000,371.520000 L 237.168000,388.800000 L 239.400000,371.520000 L 241.632000,388.800000 L 243.864000,388.800000 L 246.096000,371.520000 L 248.328000,354.240000 L 250.560000,336.960000 L 252.792000,354.240000 L 255.024000,371.520000 L 257.256000,388.800000 L 259.488000,371.520000 L 261.720000,354.240000 L 263.952000,371.520000 L 266.184000,354.240000 L 268.416000,371.520000 L 270.648000,354.240000 L 272.880000,371.520000 L 275.112000,388.800000 L 277.344000,388.800000 L 279.576000,371.520000 L 281.808000,388.800000 L 284.040000,371.520000 L 286.272000,354.240000 L 288.504000,371.520000 L 290.736000,388.800000 L 292.968000,371.520000 L 295.200000,354.240000 L 297.432000,371.520000 L 299.664000,354.240000 L 301.896000,336.960000 L 304.128000,319.680000 L 306.360000,336.960000 L 308.592000,319.680000 L 310.824000,336.960000 L 313.056000,354.240000 L 315.288000,371.520000 L 317.520000,388.800000 L 319.752000,388.800000 L 321.984000,388.800000 L 324.216000,388.800000 L 326.448000,371.520000 L 328.680000,354.240000 L 330.912000,371.520000 L 333.144000,388.800000 L 335.376000,388.800000 L 337.608000,388.800000 L 339.840000,388.800000 L 342.072000,388.800000 L 344.304000,371.520000 L 346.536000,388.800000 L 348.768000,371.520000 L 351.000000,354.240000 L 353.232000,336.960000 L 355.464000,354.240000 L 357.696000,336.960000 L 359.928000,319.680000 L 362.160000,302.400000 L 364.392000,285.120000 L 366.624000,267.840000 L 368.856000,285.120000 L 371.088000,302.400000 L 373.320000,319.680000 L 375.552000,302.400000 L 377.784000,319.680000 L 380.016000,336.960000 L 382.248000,319.680000 L 384.480000,336.960000 L 386.712000,354.240000 L 388.944000,336.960000 L 391.176000,319.680000 L 393.408000,336.960000 L 395.640000,319.680000 L 397.872000,302.400000 L 400.104000,319.680000 L 402.336000,336.960000 L 404.568000,319.680000 L 406.800000,302.400000 L 409.032000,285.120000 L 411.264000,267.840000 L 413.496000,285.120000 L 415.728000,267.840000 L 417.960000,250.560000 L 420.192000,233.280000 L 422.424000,216.000000 L 424.656000,198.720000 L 426.888000,181.440000 L 429.120000,198.720000 L 431.352000,181.440000 L 433.584000,164.160000 L 435.816000,181.440000 L 438.048000,198.720000 L 440.280000,181.440000 L 442.512000,164.160000 L 444.744000,146.880000 L 446.976000,129.600000 L 449.208000,112.320000 L 451.440000,129.600000 L 453.672000,112.320000 L 455.904000,129.600000 L 458.136000,112.320000 L 460.368000,129.600000 L 462.600000,146.880000 L 464.832000,164.160000 L 467.064000,146.880000 L 469.296000,129.600000 L 471.528000,146.880000 L 473.760000,164.160000 L 475.992000,181.440000 L 478.224000,164.160000 L 480.456000,146.880000 L 482.688000,164.160000 L 484.920000,181.440000 L 487.152000,164.160000 L 489.384000,181.440000 L 491.616000,164.160000 L 493.848000,146.880000 L 496.080000,164.160000 L 498.312000,181.440000 L 500.544000,198.720000 L 502.776000,181.440000 L 505.008000,198.720000 L 507.240000,216.000000 L 509.472000,198.720000 L 511.704000,181.440000 L 513.936000,198.720000 L 516.168000,216.000000 L 518.400000,233.280000 "   />
<path         
style="stroke: #008000;  stroke-width: 0.500000;  stroke-linejoin: miter;  stroke-linecap: square;   opacity: 1.000000;  fill: none;   clip-path:url(#-1250928610);  "
 d="M 74.232000,233.280000 L 76.464000,215.491765 L 78.696000,220.450909 L 80.928000,215.460000 L 83.160000,219.386880 L 85.392000,222.629878 L 87.624000,216.293503 L 89.856000,214.121335 L 92.088000,218.149277 L 94.320000,215.316172 L 96.552000,218.121456 L 98.784000,220.473973 L 101.016000,216.000000 L 103.248000,218.499148 L 105.480000,215.788962 L 107.712000,218.262617 L 109.944000,215.674678 L 112.176000,218.108581 L 114.408000,215.595289 L 116.640000,213.626175 L 118.872000,212.290264 L 121.104000,210.866314 L 123.336000,209.620101 L 125.568000,215.303886 L 127.800000,213.248068 L 130.032000,211.596707 L 132.264000,210.378984 L 134.496000,214.891873 L 136.728000,217.075339 L 138.960000,214.013491 L 141.192000,212.457321 L 143.424000,211.158551 L 145.656000,209.913510 L 147.888000,214.719965 L 150.120000,212.767731 L 152.352000,211.204220 L 154.584000,215.055192 L 156.816000,213.079236 L 159.048000,215.469478 L 161.280000,371.520000 L 163.512000,354.240000 L 165.744000,336.960000 L 167.976000,336.960000 L 170.208000,371.520000 L 172.440000,388.800000 L 174.672000,371.520000 L 176.904000,371.520000 L 179.136000,367.200000 L 181.368000,345.600000 L 183.600000,371.520000 L 185.832000,371.520000 L 188.064000,367.200000 L 190.296000,365.040000 L 192.528000,334.080000 L 194.760000,334.080000 L 196.992000,334.080000 L 199.224000,333.720000 L 201.456000,371.520000 L 203.688000,371.520000 L 205.920000,367.200000 L 208.152000,388.800000 L 210.384000,371.520000 L 212.616000,388.800000 L 214.848000,371.520000 L 217.080000,371.520000 L 219.312000,367.200000 L 221.544000,345.600000 L 223.776000,345.600000 L 226.008000,345.600000 L 228.240000,388.800000 L 230.472000,380.160000 L 232.704000,388.800000 L 234.936000,371.520000 L 237.168000,371.520000 L 239.400000,371.520000 L 241.632000,371.520000 L 243.864000,367.200000 L 246.096000,371.520000 L 248.328000,371.520000 L 250.560000,367.200000 L 252.792000,345.600000 L 255.024000,345.600000 L 257.256000,345.600000 L 259.488000,371.520000 L 261.720000,371.520000 L 263.952000,367.200000 L 266.184000,345.600000 L 268.416000,371.520000 L 270.648000,371.520000 L 272.880000,371.520000 L 275.112000,371.520000 L 277.344000,367.200000 L 279.576000,371.520000 L 281.808000,388.800000 L 284.040000,371.520000 L 286.272000,371.520000 L 288.504000,371.520000 L 290.736000,388.800000 L 292.968000,371.520000 L 295.200000,354.240000 L 297.432000,354.240000 L 299.664000,354.240000 L 301.896000,328.320000 L 304.128000,328.320000 L 306.360000,318.350769 L 308.592000,318.350769 L 310.824000,318.350769 L 313.056000,318.350769 L 315.288000,371.520000 L 317.520000,371.520000 L 319.752000,367.200000 L 321.984000,388.800000 L 324.216000,388.800000 L 326.448000,371.520000 L 328.680000,354.240000 L 330.912000,354.240000 L 333.144000,388.800000 L 335.376000,380.160000 L 337.608000,375.840000 L 339.840000,388.800000 L 342.072000,380.160000 L 344.304000,375.840000 L 346.536000,371.520000 L 348.768000,371.520000 L 351.000000,354.240000 L 353.232000,354.240000 L 355.464000,354.240000 L 357.696000,328.320000 L 359.928000,328.320000 L 362.160000,328.320000 L 364.392000,328.320000 L 366.624000,327.510000 L 368.856000,316.826422 L 371.088000,306.365902 L 373.320000,306.365902 L 375.552000,306.365902 L 377.784000,301.914816 L 380.016000,293.801672 L 382.248000,293.801672 L 384.480000,287.531206 L 386.712000,287.531206 L 388.944000,287.537370 L 391.176000,287.537370 L 393.408000,287.291803 L 395.640000,287.155918 L 397.872000,286.793106 L 400.104000,278.302178 L 402.336000,278.427854 L 404.568000,278.427854 L 406.800000,278.310046 L 409.032000,278.148279 L 411.264000,277.996562 L 413.496000,277.734205 L 415.728000,262.361376 L 417.960000,261.704849 L 420.192000,256.685757 L 422.424000,257.199790 L 424.656000,252.652938 L 426.888000,252.472361 L 429.120000,253.973277 L 431.352000,253.973277 L 433.584000,246.753498 L 435.816000,247.280741 L 438.048000,248.551892 L 440.280000,246.196621 L 442.512000,241.571304 L 444.744000,241.511113 L 446.976000,243.696447 L 449.208000,241.557676 L 451.440000,242.944756 L 453.672000,242.945112 L 455.904000,244.220854 L 458.136000,244.148186 L 460.368000,245.398048 L 462.600000,239.345132 L 464.832000,234.063713 L 467.064000,233.990268 L 469.296000,230.267723 L 471.528000,230.236610 L 473.760000,234.214302 L 475.992000,234.267858 L 478.224000,236.071931 L 480.456000,232.394501 L 482.688000,227.950513 L 484.920000,229.002420 L 487.152000,231.344979 L 489.384000,229.425204 L 491.616000,231.445837 L 493.848000,231.456244 L 496.080000,233.317926 L 498.312000,229.388690 L 500.544000,224.940567 L 502.776000,226.050048 L 505.008000,228.546273 L 507.240000,226.680491 L 509.472000,228.829613 L 511.704000,228.840227 L 513.936000,222.710317 L 516.168000,223.878035 L 518.400000,220.739342 "   />
<path         
style="stroke: #ff0000;  stroke-width: 0.500000;  stroke-linejoin: miter;  stroke-linecap: square;   opacity: 1.000000;  fill: none;   clip-path:url(#-1250928610);  "
 d="M 74.232000,388.800000 L 76.464000,43.200000 L 78.696000,388.800000 L 80.928000,43.200000 L 83.160000,388.800000 L 85.392000,388.800000 L 87.624000,43.200000 L 89.856000,43.200000 L 92.088000,388.800000 L 94.320000,43.200000 L 96.552000,388.800000 L 98.784000,388.800000 L 101.016000,43.200000 L 103.248000,388.800000 L 105.480000,43.200000 L 107.712000,388.800000 L 109.944000,43.200000 L 112.176000,388.800000 L 114.408000,43.200000 L 116.640000,43.200000 L 118.872000,43.200000 L 121.104000,43.200000 L 123.336000,43.200000 L 125.568000,388.800000 L 127.800000,43.200000 L 130.032000,43.200000 L 132.264000,43.200000 L 134.496000,388.800000 L 136.728000,388.800000 L 138.960000,43.200000 L 141.192000,43.200000 L 143.424000,43.200000 L 145.656000,43.200000 L 147.888000,388.800000 L 150.120000,43.200000 L 152.352000,43.200000 L 154.584000,388.800000 L 156.816000,43.200000 L 159.048000,388.800000 L 161.280000,60.480000 L 163.512000,43.200000 L 165.744000,43.200000 L 167.976000,388.800000 L 170.208000,60.480000 L 172.440000,77.760000 L 174.672000,60.480000 L 176.904000,388.800000 L 179.136000,388.800000 L 181.368000,43.200000 L 183.600000,60.480000 L 185.832000,388.800000 L 188.064000,388.800000 L 190.296000,388.800000 L 192.528000,43.200000 L 194.760000,388.800000 L 196.992000,388.800000 L 199.224000,388.800000 L 201.456000,60.480000 L 203.688000,388.800000 L 205.920000,388.800000 L 208.152000,77.760000 L 210.384000,60.480000 L 212.616000,77.760000 L 214.848000,60.480000 L 217.080000,388.800000 L 219.312000,388.800000 L 221.544000,43.200000 L 223.776000,388.800000 L 226.008000,388.800000 L 228.240000,77.760000 L 230.472000,388.800000 L 232.704000,77.760000 L 234.936000,60.480000 L 237.168000,388.800000 L 239.400000,60.480000 L 241.632000,388.800000 L 243.864000,388.800000 L 246.096000,60.480000 L 248.328000,388.800000 L 250.560000,388.800000 L 252.792000,43.200000 L 255.024000,388.800000 L 257.256000,388.800000 L 259.488000,60.480000 L 261.720000,388.800000 L 263.952000,388.800000 L 266.184000,43.200000 L 268.416000,60.480000 L 270.648000,388.800000 L 272.880000,60.480000 L 275.112000,388.800000 L 277.344000,388.800000 L 279.576000,60.480000 L 281.808000,77.760000 L 284.040000,60.480000 L 286.272000,388.800000 L 288.504000,60.480000 L 290.736000,77.760000 L 292.968000,60.480000 L 295.200000,43.200000 L 297.432000,388.800000 L 299.664000,388.800000 L 301.896000,43.200000 L 304.128000,388.800000 L 306.360000,43.200000 L 308.592000,43.200000 L 310.824000,388.800000 L 313.056000,388.800000 L 315.288000,60.480000 L 317.520000,388.800000 L 319.752000,388.800000 L 321.984000,77.760000 L 324.216000,77.760000 L 326.448000,60.480000 L 328.680000,43.200000 L 330.912000,388.800000 L 333.144000,77.760000 L 335.376000,388.800000 L 337.608000,388.800000 L 339.840000,77.760000 L 342.072000,388.800000 L 344.304000,388.800000 L 346.536000,388.800000 L 348.768000,60.480000 L 351.000000,43.200000 L 353.232000,388.800000 L 355.464000,388.800000 L 357.696000,43.200000 L 359.928000,388.800000 L 362.160000,388.800000 L 364.392000,388.800000 L 366.624000,388.800000 L 368.856000,43.200000 L 371.088000,43.200000 L 373.320000,388.800000 L 375.552000,388.800000 L 377.784000,43.200000 L 380.016000,43.200000 L 382.248000,43.200000 L 384.480000,43.200000 L 386.712000,43.200000 L 388.944000,388.800000 L 391.176000,388.800000 L 393.408000,388.800000 L 395.640000,388.800000 L 397.872000,388.800000 L 400.104000,43.200000 L 402.336000,388.800000 L 404.568000,388.800000 L 406.800000,388.800000 L 409.032000,388.800000 L 411.264000,388.800000 L 413.496000,388.800000 L 415.728000,43.200000 L 417.960000,43.200000 L 420.192000,43.200000 L 422.424000,388.800000 L 424.656000,43.200000 L 426.888000,43.200000 L 429.120000,388.800000 L 431.352000,388.800000 L 433.584000,43.200000 L 435.816000,388.800000 L 438.048000,388.800000 L 440.280000,43.200000 L 442.512000,43.200000 L 444.744000,43.200000 L 446.976000,388.800000 L 449.208000,43.200000 L 451.440000,388.800000 L 453.672000,388.800000 L 455.904000,388.800000 L 458.136000,388.800000 L 460.368000,388.800000 L 462.600000,43.200000 L 464.832000,43.200000 L 467.064000,43.200000 L 469.296000,43.200000 L 471.528000,43.200000 L 473.760000,388.800000 L 475.992000,388.800000 L 478.224000,388.800000 L 480.456000,43.200000 L 482.688000,43.200000 L 484.920000,388.800000 L 487.152000,388.800000 L 489.384000,43.200000 L 491.616000,388.800000 L 493.848000,388.800000 L 496.080000,388.800000 L 498.312000,43.200000 L 500.544000,43.200000 L 502.776000,388.800000 L 505.008000,388.800000 L 507.240000,43.200000 L 509.472000,388.800000 L 511.704000,388.800000 L 513.936000,43.200000 L 516.168000,388.800000 L 518.400000,43.200000 "   />
<text style="font-size: 14.000000; font-family: Bitstream Vera Sans; font-style: Roman; fill: #000000;" x="54.200000" y="36.288000" >simple reflected r.w. on A=[0,20], P(W=+-18)=1/2, n=200, mse=6.94</text>
<g id="legend1">
<polygon         
style="stroke: #000000;  stroke-width: 1.000000;  stroke-linejoin: miter;  stroke-linecap: square;   opacity: 1.000000;  fill: #ffffff;   "
   points = "408.614400,93.488640 408.614400,50.112000 509.472000,50.112000 509.472000,93.488640"  />
<path         
style="stroke: #0000ff;  stroke-width: 0.500000;  stroke-linejoin: miter;  stroke-linecap: square;   opacity: 1.000000;  fill: none;   "
 d="M 418.819200,58.726720 L 426.259200,58.726720 L 433.699200,58.726720 L 441.139200,58.726720 "   />
<path         
style="stroke: #008000;  stroke-width: 0.500000;  stroke-linejoin: miter;  stroke-linecap: square;   opacity: 1.000000;  fill: none;   "
 d="M 418.819200,71.800320 L 426.259200,71.800320 L 433.699200,71.800320 L 441.139200,71.800320 "   />
<path         
style="stroke: #ff0000;  stroke-width: 0.500000;  stroke-linejoin: miter;  stroke-linecap: square;   opacity: 1.000000;  fill: none;   "
 d="M 418.819200,84.873920 L 426.259200,84.873920 L 433.699200,84.873920 L 441.139200,84.873920 "   />
<text style="font-size: 10.000000; font-family: Bitstream Vera Sans; font-style: Roman; fill: #000000;" x="450.067200" y="63.726720" >Xn_list</text>
<text style="font-size: 10.000000; font-family: Bitstream Vera Sans; font-style: Roman; fill: #000000;" x="450.067200" y="76.800320" >Xn_hat_list</text>
<text style="font-size: 10.000000; font-family: Bitstream Vera Sans; font-style: Roman; fill: #000000;" x="450.067200" y="89.873920" >Yn_list</text>
</g>
</g>
</g>
</svg>