<?xml version="1.0" standalone="no"?>
<!DOCTYPE svg PUBLIC "-//W3C//DTD SVG 1.0//EN"
"http://www.w3.org/TR/2001/REC-SVG-20010904/DTD/svg10.dtd">
<!-- Created with matplotlib (http://matplotlib.sourceforge.net/) -->
<svg
   xmlns="http://www.w3.org/2000/svg"
   xmlns:xlink="http://www.w3.org/1999/xlink"
   version="1.0"
   x="0.0"
   y="0.0"
   width="576.000000"
   height="432.000000"   
   id="svg1">
<g id="figure1">
<polygon         
style="stroke: #ffffff;  stroke-width: 1.000000;  stroke-linejoin: miter;  stroke-linecap: square;   opacity: 1.000000;  fill: #ffffff;   "
   points = "0.000000,432.000000 0.000000,0.000000 576.000000,0.000000 576.000000,432.000000"  />
<g id="axes1">
<polygon         
style="stroke: #000000;  stroke-width: 1.000000;  stroke-linejoin: miter;  stroke-linecap: square;   opacity: 1.000000;  fill: #ffffff;   "
   points = "72.000000,388.800000 72.000000,43.200000 518.400000,43.200000 518.400000,388.800000"  />
<g id="matplotlib.axis1">
<g id="xtick1">
<text style="font-size: 12.000000; font-family: Bitstream Vera Sans; font-style: Roman; fill: #000000;" x="69.000000" y="401.800000" >0</text>
</g>
<g id="xtick2">
<path         
style="stroke: #000000;  stroke-width: 0.500000;  stroke-linejoin: miter;  stroke-linecap: butt;   opacity: 1.000000;  fill: none;   "
 d="M 183.600000,388.800000 L 183.600000,384.800000"   />
<path         
style="stroke: #000000;  stroke-width: 0.500000;  stroke-linejoin: miter;  stroke-linecap: butt;   opacity: 1.000000;  fill: none;   "
 d="M 183.600000,388.800000 L 183.600000,384.800000"   />
<path         
style="stroke: #000000;  stroke-width: 0.500000;  stroke-linejoin: miter;  stroke-linecap: butt;   opacity: 1.000000;  fill: none;   "
 d="M 183.600000,47.200000 L 183.600000,43.200000"   />
<path         
style="stroke: #000000;  stroke-width: 0.500000;  stroke-linejoin: miter;  stroke-linecap: butt;   opacity: 1.000000;  fill: none;   "
 d="M 183.600000,47.200000 L 183.600000,43.200000"   />
<text style="font-size: 12.000000; font-family: Bitstream Vera Sans; font-style: Roman; fill: #000000;" x="176.600000" y="401.800000" >50</text>
</g>
<g id="xtick3">
<path         
style="stroke: #000000;  stroke-width: 0.500000;  stroke-linejoin: miter;  stroke-linecap: butt;   opacity: 1.000000;  fill: none;   "
 d="M 295.200000,388.800000 L 295.200000,384.800000"   />
<path         
style="stroke: #000000;  stroke-width: 0.500000;  stroke-linejoin: miter;  stroke-linecap: butt;   opacity: 1.000000;  fill: none;   "
 d="M 295.200000,388.800000 L 295.200000,384.800000"   />
<path         
style="stroke: #000000;  stroke-width: 0.500000;  stroke-linejoin: miter;  stroke-linecap: butt;   opacity: 1.000000;  fill: none;   "
 d="M 295.200000,47.200000 L 295.200000,43.200000"   />
<path         
style="stroke: #000000;  stroke-width: 0.500000;  stroke-linejoin: miter;  stroke-linecap: butt;   opacity: 1.000000;  fill: none;   "
 d="M 295.200000,47.200000 L 295.200000,43.200000"   />
<text style="font-size: 12.000000; font-family: Bitstream Vera Sans; font-style: Roman; fill: #000000;" x="284.200000" y="401.800000" >100</text>
</g>
<g id="xtick4">
<path         
style="stroke: #000000;  stroke-width: 0.500000;  stroke-linejoin: miter;  stroke-linecap: butt;   opacity: 1.000000;  fill: none;   "
 d="M 406.800000,388.800000 L 406.800000,384.800000"   />
<path         
style="stroke: #000000;  stroke-width: 0.500000;  stroke-linejoin: miter;  stroke-linecap: butt;   opacity: 1.000000;  fill: none;   "
 d="M 406.800000,388.800000 L 406.800000,384.800000"   />
<path         
style="stroke: #000000;  stroke-width: 0.500000;  stroke-linejoin: miter;  stroke-linecap: butt;   opacity: 1.000000;  fill: none;   "
 d="M 406.800000,47.200000 L 406.800000,43.200000"   />
<path         
style="stroke: #000000;  stroke-width: 0.500000;  stroke-linejoin: miter;  stroke-linecap: butt;   opacity: 1.000000;  fill: none;   "
 d="M 406.800000,47.200000 L 406.800000,43.200000"   />
<text style="font-size: 12.000000; font-family: Bitstream Vera Sans; font-style: Roman; fill: #000000;" x="395.800000" y="401.800000" >150</text>
</g>
<g id="xtick5">
<text style="font-size: 12.000000; font-family: Bitstream Vera Sans; font-style: Roman; fill: #000000;" x="507.400000" y="401.800000" >200</text>
</g>
</g>
<g id="matplotlib.axis2">
<g id="ytick1">
<text style="font-size: 12.000000; font-family: Bitstream Vera Sans; font-style: Roman; fill: #000000;" x="62.000000" y="393.300000" >0</text>
</g>
<g id="ytick2">
<path         
style="stroke: #000000;  stroke-width: 0.500000;  stroke-linejoin: miter;  stroke-linecap: butt;   opacity: 1.000000;  fill: none;   "
 d="M 72.000000,302.400000 L 76.000000,302.400000"   />
<path         
style="stroke: #000000;  stroke-width: 0.500000;  stroke-linejoin: miter;  stroke-linecap: butt;   opacity: 1.000000;  fill: none;   "
 d="M 72.000000,302.400000 L 76.000000,302.400000"   />
<path         
style="stroke: #000000;  stroke-width: 0.500000;  stroke-linejoin: miter;  stroke-linecap: butt;   opacity: 1.000000;  fill: none;   "
 d="M 514.400000,302.400000 L 518.400000,302.400000"   />
<path         
style="stroke: #000000;  stroke-width: 0.500000;  stroke-linejoin: miter;  stroke-linecap: butt;   opacity: 1.000000;  fill: none;   "
 d="M 514.400000,302.400000 L 518.400000,302.400000"   />
<text style="font-size: 12.000000; font-family: Bitstream Vera Sans; font-style: Roman; fill: #000000;" x="62.000000" y="306.900000" >5</text>
</g>
<g id="ytick3">
<path         
style="stroke: #000000;  stroke-width: 0.500000;  stroke-linejoin: miter;  stroke-linecap: butt;   opacity: 1.000000;  fill: none;   "
 d="M 72.000000,216.000000 L 76.000000,216.000000"   />
<path         
style="stroke: #000000;  stroke-width: 0.500000;  stroke-linejoin: miter;  stroke-linecap: butt;   opacity: 1.000000;  fill: none;   "
 d="M 72.000000,216.000000 L 76.000000,216.000000"   />
<path         
style="stroke: #000000;  stroke-width: 0.500000;  stroke-linejoin: miter;  stroke-linecap: butt;   opacity: 1.000000;  fill: none;   "
 d="M 514.400000,216.000000 L 518.400000,216.000000"   />
<path         
style="stroke: #000000;  stroke-width: 0.500000;  stroke-linejoin: miter;  stroke-linecap: butt;   opacity: 1.000000;  fill: none;   "
 d="M 514.400000,216.000000 L 518.400000,216.000000"   />
<text style="font-size: 12.000000; font-family: Bitstream Vera Sans; font-style: Roman; fill: #000000;" x="54.000000" y="220.500000" >10</text>
</g>
<g id="ytick4">
<path         
style="stroke: #000000;  stroke-width: 0.500000;  stroke-linejoin: miter;  stroke-linecap: butt;   opacity: 1.000000;  fill: none;   "
 d="M 72.000000,129.600000 L 76.000000,129.600000"   />
<path         
style="stroke: #000000;  stroke-width: 0.500000;  stroke-linejoin: miter;  stroke-linecap: butt;   opacity: 1.000000;  fill: none;   "
 d="M 72.000000,129.600000 L 76.000000,129.600000"   />
<path         
style="stroke: #000000;  stroke-width: 0.500000;  stroke-linejoin: miter;  stroke-linecap: butt;   opacity: 1.000000;  fill: none;   "
 d="M 514.400000,129.600000 L 518.400000,129.600000"   />
<path         
style="stroke: #000000;  stroke-width: 0.500000;  stroke-linejoin: miter;  stroke-linecap: butt;   opacity: 1.000000;  fill: none;   "
 d="M 514.400000,129.600000 L 518.400000,129.600000"   />
<text style="font-size: 12.000000; font-family: Bitstream Vera Sans; font-style: Roman; fill: #000000;" x="54.000000" y="134.100000" >15</text>
</g>
<g id="ytick5">
<text style="font-size: 12.000000; font-family: Bitstream Vera Sans; font-style: Roman; fill: #000000;" x="54.000000" y="47.700000" >20</text>
</g>
</g>

<defs>
    <clipPath id="-1250928610">
    <rect x="72.000000" y="43.200000" width="446.400000" height="345.600000"
    style="stroke: gray; fill: none;"/>
    </clipPath>
</defs>

<path         
style="stroke: #0000ff;  stroke-width: 0.500000;  stroke-linejoin: miter;  stroke-linecap: square;   opacity: 1.000000;  fill: none;   clip-path:url(#-1250928610);  "
 d="M 74.232000,216.000000 L 76.464000,198.720000 L 78.696000,216.000000 L 80.928000,233.280000 L 83.160000,250.560000 L 85.392000,233.280000 L 87.624000,250.560000 L 89.856000,267.840000 L 92.088000,250.560000 L 94.320000,233.280000 L 96.552000,250.560000 L 98.784000,267.840000 L 101.016000,285.120000 L 103.248000,302.400000 L 105.480000,285.120000 L 107.712000,302.400000 L 109.944000,285.120000 L 112.176000,302.400000 L 114.408000,285.120000 L 116.640000,302.400000 L 118.872000,319.680000 L 121.104000,336.960000 L 123.336000,319.680000 L 125.568000,336.960000 L 127.800000,354.240000 L 130.032000,336.960000 L 132.264000,354.240000 L 134.496000,371.520000 L 136.728000,354.240000 L 138.960000,336.960000 L 141.192000,354.240000 L 143.424000,336.960000 L 145.656000,319.680000 L 147.888000,336.960000 L 150.120000,354.240000 L 152.352000,336.960000 L 154.584000,319.680000 L 156.816000,302.400000 L 159.048000,285.120000 L 161.280000,302.400000 L 163.512000,285.120000 L 165.744000,302.400000 L 167.976000,319.680000 L 170.208000,302.400000 L 172.440000,319.680000 L 174.672000,302.400000 L 176.904000,319.680000 L 179.136000,302.400000 L 181.368000,285.120000 L 183.600000,267.840000 L 185.832000,285.120000 L 188.064000,302.400000 L 190.296000,285.120000 L 192.528000,302.400000 L 194.760000,285.120000 L 196.992000,302.400000 L 199.224000,285.120000 L 201.456000,302.400000 L 203.688000,319.680000 L 205.920000,336.960000 L 208.152000,354.240000 L 210.384000,336.960000 L 212.616000,354.240000 L 214.848000,371.520000 L 217.080000,388.800000 L 219.312000,388.800000 L 221.544000,371.520000 L 223.776000,354.240000 L 226.008000,336.960000 L 228.240000,354.240000 L 230.472000,371.520000 L 232.704000,354.240000 L 234.936000,336.960000 L 237.168000,354.240000 L 239.400000,336.960000 L 241.632000,354.240000 L 243.864000,336.960000 L 246.096000,354.240000 L 248.328000,336.960000 L 250.560000,319.680000 L 252.792000,336.960000 L 255.024000,354.240000 L 257.256000,336.960000 L 259.488000,319.680000 L 261.720000,302.400000 L 263.952000,319.680000 L 266.184000,302.400000 L 268.416000,285.120000 L 270.648000,302.400000 L 272.880000,285.120000 L 275.112000,267.840000 L 277.344000,285.120000 L 279.576000,267.840000 L 281.808000,285.120000 L 284.040000,267.840000 L 286.272000,250.560000 L 288.504000,233.280000 L 290.736000,216.000000 L 292.968000,198.720000 L 295.200000,216.000000 L 297.432000,198.720000 L 299.664000,216.000000 L 301.896000,198.720000 L 304.128000,181.440000 L 306.360000,198.720000 L 308.592000,216.000000 L 310.824000,198.720000 L 313.056000,216.000000 L 315.288000,233.280000 L 317.520000,216.000000 L 319.752000,233.280000 L 321.984000,250.560000 L 324.216000,267.840000 L 326.448000,250.560000 L 328.680000,233.280000 L 330.912000,216.000000 L 333.144000,233.280000 L 335.376000,216.000000 L 337.608000,233.280000 L 339.840000,216.000000 L 342.072000,233.280000 L 344.304000,250.560000 L 346.536000,233.280000 L 348.768000,250.560000 L 351.000000,233.280000 L 353.232000,216.000000 L 355.464000,233.280000 L 357.696000,250.560000 L 359.928000,267.840000 L 362.160000,285.120000 L 364.392000,302.400000 L 366.624000,319.680000 L 368.856000,336.960000 L 371.088000,319.680000 L 373.320000,302.400000 L 375.552000,285.120000 L 377.784000,267.840000 L 380.016000,285.120000 L 382.248000,302.400000 L 384.480000,285.120000 L 386.712000,302.400000 L 388.944000,285.120000 L 391.176000,267.840000 L 393.408000,250.560000 L 395.640000,267.840000 L 397.872000,285.120000 L 400.104000,267.840000 L 402.336000,285.120000 L 404.568000,267.840000 L 406.800000,250.560000 L 409.032000,267.840000 L 411.264000,250.560000 L 413.496000,267.840000 L 415.728000,285.120000 L 417.960000,267.840000 L 420.192000,250.560000 L 422.424000,233.280000 L 424.656000,216.000000 L 426.888000,198.720000 L 429.120000,216.000000 L 431.352000,233.280000 L 433.584000,250.560000 L 435.816000,233.280000 L 438.048000,216.000000 L 440.280000,198.720000 L 442.512000,181.440000 L 444.744000,198.720000 L 446.976000,181.440000 L 449.208000,198.720000 L 451.440000,181.440000 L 453.672000,198.720000 L 455.904000,181.440000 L 458.136000,164.160000 L 460.368000,181.440000 L 462.600000,164.160000 L 464.832000,146.880000 L 467.064000,129.600000 L 469.296000,112.320000 L 471.528000,95.040000 L 473.760000,77.760000 L 475.992000,95.040000 L 478.224000,112.320000 L 480.456000,95.040000 L 482.688000,77.760000 L 484.920000,60.480000 L 487.152000,77.760000 L 489.384000,95.040000 L 491.616000,77.760000 L 493.848000,60.480000 L 496.080000,43.200000 L 498.312000,43.200000 L 500.544000,43.200000 L 502.776000,43.200000 L 505.008000,60.480000 L 507.240000,77.760000 L 509.472000,95.040000 L 511.704000,112.320000 L 513.936000,129.600000 L 516.168000,146.880000 L 518.400000,164.160000 "   />
<path         
style="stroke: #008000;  stroke-width: 0.500000;  stroke-linejoin: miter;  stroke-linecap: square;   opacity: 1.000000;  fill: none;   clip-path:url(#-1250928610);  "
 d="M 74.232000,302.400000 L 76.464000,207.360000 L 78.696000,198.720000 L 80.928000,233.280000 L 83.160000,233.280000 L 85.392000,233.280000 L 87.624000,233.280000 L 89.856000,267.840000 L 92.088000,250.560000 L 94.320000,250.560000 L 96.552000,250.560000 L 98.784000,257.965714 L 101.016000,285.120000 L 103.248000,302.400000 L 105.480000,285.120000 L 107.712000,302.400000 L 109.944000,285.120000 L 112.176000,285.120000 L 114.408000,285.120000 L 116.640000,302.400000 L 118.872000,319.680000 L 121.104000,336.960000 L 123.336000,336.960000 L 125.568000,336.960000 L 127.800000,336.960000 L 130.032000,336.960000 L 132.264000,354.240000 L 134.496000,354.240000 L 136.728000,354.240000 L 138.960000,336.960000 L 141.192000,336.960000 L 143.424000,336.960000 L 145.656000,336.960000 L 147.888000,336.960000 L 150.120000,354.240000 L 152.352000,336.960000 L 154.584000,319.680000 L 156.816000,319.680000 L 159.048000,319.680000 L 161.280000,302.400000 L 163.512000,302.400000 L 165.744000,302.400000 L 167.976000,302.400000 L 170.208000,302.400000 L 172.440000,302.400000 L 174.672000,302.400000 L 176.904000,319.680000 L 179.136000,302.400000 L 181.368000,302.400000 L 183.600000,302.400000 L 185.832000,285.120000 L 188.064000,302.400000 L 190.296000,302.400000 L 192.528000,302.400000 L 194.760000,302.400000 L 196.992000,302.400000 L 199.224000,302.400000 L 201.456000,302.400000 L 203.688000,319.680000 L 205.920000,336.960000 L 208.152000,336.960000 L 210.384000,336.960000 L 212.616000,354.240000 L 214.848000,354.240000 L 217.080000,388.800000 L 219.312000,380.160000 L 221.544000,371.520000 L 223.776000,371.520000 L 226.008000,367.200000 L 228.240000,365.040000 L 230.472000,371.520000 L 232.704000,371.520000 L 234.936000,367.200000 L 237.168000,365.040000 L 239.400000,336.960000 L 241.632000,336.960000 L 243.864000,336.960000 L 246.096000,354.240000 L 248.328000,354.240000 L 250.560000,354.240000 L 252.792000,352.080000 L 255.024000,351.000000 L 257.256000,336.960000 L 259.488000,336.960000 L 261.720000,302.400000 L 263.952000,319.680000 L 266.184000,319.680000 L 268.416000,285.120000 L 270.648000,285.120000 L 272.880000,285.120000 L 275.112000,267.840000 L 277.344000,285.120000 L 279.576000,285.120000 L 281.808000,285.120000 L 284.040000,267.840000 L 286.272000,250.560000 L 288.504000,233.280000 L 290.736000,216.000000 L 292.968000,198.720000 L 295.200000,216.000000 L 297.432000,198.720000 L 299.664000,216.000000 L 301.896000,198.720000 L 304.128000,198.720000 L 306.360000,187.200000 L 308.592000,187.200000 L 310.824000,177.984000 L 313.056000,177.984000 L 315.288000,233.280000 L 317.520000,216.000000 L 319.752000,233.280000 L 321.984000,250.560000 L 324.216000,267.840000 L 326.448000,267.840000 L 328.680000,233.280000 L 330.912000,216.000000 L 333.144000,233.280000 L 335.376000,216.000000 L 337.608000,233.280000 L 339.840000,216.000000 L 342.072000,233.280000 L 344.304000,233.280000 L 346.536000,244.800000 L 348.768000,244.800000 L 351.000000,233.280000 L 353.232000,216.000000 L 355.464000,233.280000 L 357.696000,250.560000 L 359.928000,267.840000 L 362.160000,285.120000 L 364.392000,302.400000 L 366.624000,302.400000 L 368.856000,302.400000 L 371.088000,319.680000 L 373.320000,319.680000 L 375.552000,319.680000 L 377.784000,319.680000 L 380.016000,285.120000 L 382.248000,285.120000 L 384.480000,285.120000 L 386.712000,302.400000 L 388.944000,285.120000 L 391.176000,267.840000 L 393.408000,267.840000 L 395.640000,267.840000 L 397.872000,267.840000 L 400.104000,267.840000 L 402.336000,285.120000 L 404.568000,267.840000 L 406.800000,267.840000 L 409.032000,267.840000 L 411.264000,250.560000 L 413.496000,267.840000 L 415.728000,267.840000 L 417.960000,267.840000 L 420.192000,250.560000 L 422.424000,250.560000 L 424.656000,216.000000 L 426.888000,198.720000 L 429.120000,216.000000 L 431.352000,233.280000 L 433.584000,250.560000 L 435.816000,250.560000 L 438.048000,216.000000 L 440.280000,198.720000 L 442.512000,198.720000 L 444.744000,187.200000 L 446.976000,181.440000 L 449.208000,198.720000 L 451.440000,181.440000 L 453.672000,198.720000 L 455.904000,198.720000 L 458.136000,164.160000 L 460.368000,181.440000 L 462.600000,181.440000 L 464.832000,146.880000 L 467.064000,129.600000 L 469.296000,129.600000 L 471.528000,95.040000 L 473.760000,95.040000 L 475.992000,95.040000 L 478.224000,95.040000 L 480.456000,95.040000 L 482.688000,95.040000 L 484.920000,60.480000 L 487.152000,60.480000 L 489.384000,95.040000 L 491.616000,77.760000 L 493.848000,77.760000 L 496.080000,77.760000 L 498.312000,79.920000 L 500.544000,43.200000 L 502.776000,51.840000 L 505.008000,60.480000 L 507.240000,77.760000 L 509.472000,77.760000 L 511.704000,112.320000 L 513.936000,112.320000 L 516.168000,112.320000 L 518.400000,164.160000 "   />
<path         
style="stroke: #ff0000;  stroke-width: 0.500000;  stroke-linejoin: miter;  stroke-linecap: square;   opacity: 1.000000;  fill: none;   clip-path:url(#-1250928610);  "
 d="M 74.232000,388.800000 L 76.464000,43.200000 L 78.696000,43.200000 L 80.928000,60.480000 L 83.160000,388.800000 L 85.392000,60.480000 L 87.624000,388.800000 L 89.856000,95.040000 L 92.088000,77.760000 L 94.320000,388.800000 L 96.552000,388.800000 L 98.784000,388.800000 L 101.016000,112.320000 L 103.248000,129.600000 L 105.480000,112.320000 L 107.712000,129.600000 L 109.944000,112.320000 L 112.176000,388.800000 L 114.408000,112.320000 L 116.640000,129.600000 L 118.872000,146.880000 L 121.104000,164.160000 L 123.336000,388.800000 L 125.568000,164.160000 L 127.800000,388.800000 L 130.032000,388.800000 L 132.264000,181.440000 L 134.496000,388.800000 L 136.728000,181.440000 L 138.960000,164.160000 L 141.192000,388.800000 L 143.424000,388.800000 L 145.656000,388.800000 L 147.888000,164.160000 L 150.120000,181.440000 L 152.352000,164.160000 L 154.584000,146.880000 L 156.816000,388.800000 L 159.048000,388.800000 L 161.280000,129.600000 L 163.512000,388.800000 L 165.744000,129.600000 L 167.976000,388.800000 L 170.208000,129.600000 L 172.440000,388.800000 L 174.672000,129.600000 L 176.904000,146.880000 L 179.136000,129.600000 L 181.368000,388.800000 L 183.600000,388.800000 L 185.832000,112.320000 L 188.064000,129.600000 L 190.296000,388.800000 L 192.528000,388.800000 L 194.760000,388.800000 L 196.992000,129.600000 L 199.224000,388.800000 L 201.456000,129.600000 L 203.688000,146.880000 L 205.920000,164.160000 L 208.152000,388.800000 L 210.384000,388.800000 L 212.616000,181.440000 L 214.848000,388.800000 L 217.080000,216.000000 L 219.312000,388.800000 L 221.544000,198.720000 L 223.776000,388.800000 L 226.008000,388.800000 L 228.240000,388.800000 L 230.472000,198.720000 L 232.704000,388.800000 L 234.936000,388.800000 L 237.168000,388.800000 L 239.400000,164.160000 L 241.632000,388.800000 L 243.864000,388.800000 L 246.096000,181.440000 L 248.328000,388.800000 L 250.560000,388.800000 L 252.792000,388.800000 L 255.024000,388.800000 L 257.256000,164.160000 L 259.488000,388.800000 L 261.720000,129.600000 L 263.952000,146.880000 L 266.184000,388.800000 L 268.416000,112.320000 L 270.648000,388.800000 L 272.880000,388.800000 L 275.112000,95.040000 L 277.344000,112.320000 L 279.576000,388.800000 L 281.808000,388.800000 L 284.040000,95.040000 L 286.272000,77.760000 L 288.504000,60.480000 L 290.736000,43.200000 L 292.968000,371.520000 L 295.200000,388.800000 L 297.432000,43.200000 L 299.664000,388.800000 L 301.896000,371.520000 L 304.128000,43.200000 L 306.360000,43.200000 L 308.592000,43.200000 L 310.824000,43.200000 L 313.056000,43.200000 L 315.288000,60.480000 L 317.520000,43.200000 L 319.752000,388.800000 L 321.984000,77.760000 L 324.216000,95.040000 L 326.448000,388.800000 L 328.680000,60.480000 L 330.912000,43.200000 L 333.144000,60.480000 L 335.376000,43.200000 L 337.608000,60.480000 L 339.840000,43.200000 L 342.072000,388.800000 L 344.304000,388.800000 L 346.536000,388.800000 L 348.768000,388.800000 L 351.000000,60.480000 L 353.232000,43.200000 L 355.464000,388.800000 L 357.696000,77.760000 L 359.928000,95.040000 L 362.160000,112.320000 L 364.392000,129.600000 L 366.624000,388.800000 L 368.856000,388.800000 L 371.088000,146.880000 L 373.320000,388.800000 L 375.552000,388.800000 L 377.784000,388.800000 L 380.016000,112.320000 L 382.248000,388.800000 L 384.480000,112.320000 L 386.712000,129.600000 L 388.944000,112.320000 L 391.176000,95.040000 L 393.408000,388.800000 L 395.640000,95.040000 L 397.872000,388.800000 L 400.104000,95.040000 L 402.336000,112.320000 L 404.568000,95.040000 L 406.800000,388.800000 L 409.032000,95.040000 L 411.264000,77.760000 L 413.496000,95.040000 L 415.728000,388.800000 L 417.960000,95.040000 L 420.192000,77.760000 L 422.424000,388.800000 L 424.656000,43.200000 L 426.888000,43.200000 L 429.120000,388.800000 L 431.352000,388.800000 L 433.584000,77.760000 L 435.816000,388.800000 L 438.048000,43.200000 L 440.280000,371.520000 L 442.512000,43.200000 L 444.744000,43.200000 L 446.976000,354.240000 L 449.208000,371.520000 L 451.440000,354.240000 L 453.672000,371.520000 L 455.904000,43.200000 L 458.136000,336.960000 L 460.368000,354.240000 L 462.600000,43.200000 L 464.832000,319.680000 L 467.064000,302.400000 L 469.296000,43.200000 L 471.528000,267.840000 L 473.760000,43.200000 L 475.992000,267.840000 L 478.224000,43.200000 L 480.456000,267.840000 L 482.688000,43.200000 L 484.920000,233.280000 L 487.152000,43.200000 L 489.384000,267.840000 L 491.616000,250.560000 L 493.848000,43.200000 L 496.080000,43.200000 L 498.312000,43.200000 L 500.544000,216.000000 L 502.776000,43.200000 L 505.008000,233.280000 L 507.240000,250.560000 L 509.472000,43.200000 L 511.704000,285.120000 L 513.936000,43.200000 L 516.168000,43.200000 L 518.400000,336.960000 "   />
<text style="font-size: 14.000000; font-family: Bitstream Vera Sans; font-style: Roman; fill: #000000;" x="54.200000" y="36.288000" >simple reflected r.w. on A=[0,20], P(W=+-10)=1/2, n=200, mse=0.68</text>
<g id="legend1">
<polygon         
style="stroke: #000000;  stroke-width: 1.000000;  stroke-linejoin: miter;  stroke-linecap: square;   opacity: 1.000000;  fill: #ffffff;   "
   points = "408.614400,93.488640 408.614400,50.112000 509.472000,50.112000 509.472000,93.488640"  />
<path         
style="stroke: #0000ff;  stroke-width: 0.500000;  stroke-linejoin: miter;  stroke-linecap: square;   opacity: 1.000000;  fill: none;   "
 d="M 418.819200,58.726720 L 426.259200,58.726720 L 433.699200,58.726720 L 441.139200,58.726720 "   />
<path         
style="stroke: #008000;  stroke-width: 0.500000;  stroke-linejoin: miter;  stroke-linecap: square;   opacity: 1.000000;  fill: none;   "
 d="M 418.819200,71.800320 L 426.259200,71.800320 L 433.699200,71.800320 L 441.139200,71.800320 "   />
<path         
style="stroke: #ff0000;  stroke-width: 0.500000;  stroke-linejoin: miter;  stroke-linecap: square;   opacity: 1.000000;  fill: none;   "
 d="M 418.819200,84.873920 L 426.259200,84.873920 L 433.699200,84.873920 L 441.139200,84.873920 "   />
<text style="font-size: 10.000000; font-family: Bitstream Vera Sans; font-style: Roman; fill: #000000;" x="450.067200" y="63.726720" >Xn_list</text>
<text style="font-size: 10.000000; font-family: Bitstream Vera Sans; font-style: Roman; fill: #000000;" x="450.067200" y="76.800320" >Xn_hat_list</text>
<text style="font-size: 10.000000; font-family: Bitstream Vera Sans; font-style: Roman; fill: #000000;" x="450.067200" y="89.873920" >Yn_list</text>
</g>
</g>
</g>
</svg>