<?xml version="1.0" standalone="no"?>
<!DOCTYPE svg PUBLIC "-//W3C//DTD SVG 1.0//EN"
"http://www.w3.org/TR/2001/REC-SVG-20010904/DTD/svg10.dtd">
<!-- Created with matplotlib (http://matplotlib.sourceforge.net/) -->
<svg
   xmlns="http://www.w3.org/2000/svg"
   xmlns:xlink="http://www.w3.org/1999/xlink"
   version="1.0"
   x="0.0"
   y="0.0"
   width="576.000000"
   height="432.000000"   
   id="svg1">
<g id="figure1">
<polygon         
style="stroke: #ffffff;  stroke-width: 1.000000;  stroke-linejoin: miter;  stroke-linecap: square;   opacity: 1.000000;  fill: #ffffff;   "
   points = "0.000000,432.000000 0.000000,0.000000 576.000000,0.000000 576.000000,432.000000"  />
<g id="axes1">
<polygon         
style="stroke: #000000;  stroke-width: 1.000000;  stroke-linejoin: miter;  stroke-linecap: square;   opacity: 1.000000;  fill: #ffffff;   "
   points = "72.000000,388.800000 72.000000,43.200000 518.400000,43.200000 518.400000,388.800000"  />
<g id="matplotlib.axis1">
<g id="xtick1">
<text style="font-size: 12.000000; font-family: Bitstream Vera Sans; font-style: Roman; fill: #000000;" x="61.000000" y="401.800000" >100</text>
</g>
<g id="xtick2">
<path         
style="stroke: #000000;  stroke-width: 0.500000;  stroke-linejoin: miter;  stroke-linecap: butt;   opacity: 1.000000;  fill: none;   "
 d="M 161.280000,388.800000 L 161.280000,384.800000"   />
<path         
style="stroke: #000000;  stroke-width: 0.500000;  stroke-linejoin: miter;  stroke-linecap: butt;   opacity: 1.000000;  fill: none;   "
 d="M 161.280000,388.800000 L 161.280000,384.800000"   />
<path         
style="stroke: #000000;  stroke-width: 0.500000;  stroke-linejoin: miter;  stroke-linecap: butt;   opacity: 1.000000;  fill: none;   "
 d="M 161.280000,47.200000 L 161.280000,43.200000"   />
<path         
style="stroke: #000000;  stroke-width: 0.500000;  stroke-linejoin: miter;  stroke-linecap: butt;   opacity: 1.000000;  fill: none;   "
 d="M 161.280000,47.200000 L 161.280000,43.200000"   />
<text style="font-size: 12.000000; font-family: Bitstream Vera Sans; font-style: Roman; fill: #000000;" x="150.280000" y="401.800000" >120</text>
</g>
<g id="xtick3">
<path         
style="stroke: #000000;  stroke-width: 0.500000;  stroke-linejoin: miter;  stroke-linecap: butt;   opacity: 1.000000;  fill: none;   "
 d="M 250.560000,388.800000 L 250.560000,384.800000"   />
<path         
style="stroke: #000000;  stroke-width: 0.500000;  stroke-linejoin: miter;  stroke-linecap: butt;   opacity: 1.000000;  fill: none;   "
 d="M 250.560000,388.800000 L 250.560000,384.800000"   />
<path         
style="stroke: #000000;  stroke-width: 0.500000;  stroke-linejoin: miter;  stroke-linecap: butt;   opacity: 1.000000;  fill: none;   "
 d="M 250.560000,47.200000 L 250.560000,43.200000"   />
<path         
style="stroke: #000000;  stroke-width: 0.500000;  stroke-linejoin: miter;  stroke-linecap: butt;   opacity: 1.000000;  fill: none;   "
 d="M 250.560000,47.200000 L 250.560000,43.200000"   />
<text style="font-size: 12.000000; font-family: Bitstream Vera Sans; font-style: Roman; fill: #000000;" x="239.560000" y="401.800000" >140</text>
</g>
<g id="xtick4">
<path         
style="stroke: #000000;  stroke-width: 0.500000;  stroke-linejoin: miter;  stroke-linecap: butt;   opacity: 1.000000;  fill: none;   "
 d="M 339.840000,388.800000 L 339.840000,384.800000"   />
<path         
style="stroke: #000000;  stroke-width: 0.500000;  stroke-linejoin: miter;  stroke-linecap: butt;   opacity: 1.000000;  fill: none;   "
 d="M 339.840000,388.800000 L 339.840000,384.800000"   />
<path         
style="stroke: #000000;  stroke-width: 0.500000;  stroke-linejoin: miter;  stroke-linecap: butt;   opacity: 1.000000;  fill: none;   "
 d="M 339.840000,47.200000 L 339.840000,43.200000"   />
<path         
style="stroke: #000000;  stroke-width: 0.500000;  stroke-linejoin: miter;  stroke-linecap: butt;   opacity: 1.000000;  fill: none;   "
 d="M 339.840000,47.200000 L 339.840000,43.200000"   />
<text style="font-size: 12.000000; font-family: Bitstream Vera Sans; font-style: Roman; fill: #000000;" x="328.840000" y="401.800000" >160</text>
</g>
<g id="xtick5">
<path         
style="stroke: #000000;  stroke-width: 0.500000;  stroke-linejoin: miter;  stroke-linecap: butt;   opacity: 1.000000;  fill: none;   "
 d="M 429.120000,388.800000 L 429.120000,384.800000"   />
<path         
style="stroke: #000000;  stroke-width: 0.500000;  stroke-linejoin: miter;  stroke-linecap: butt;   opacity: 1.000000;  fill: none;   "
 d="M 429.120000,388.800000 L 429.120000,384.800000"   />
<path         
style="stroke: #000000;  stroke-width: 0.500000;  stroke-linejoin: miter;  stroke-linecap: butt;   opacity: 1.000000;  fill: none;   "
 d="M 429.120000,47.200000 L 429.120000,43.200000"   />
<path         
style="stroke: #000000;  stroke-width: 0.500000;  stroke-linejoin: miter;  stroke-linecap: butt;   opacity: 1.000000;  fill: none;   "
 d="M 429.120000,47.200000 L 429.120000,43.200000"   />
<text style="font-size: 12.000000; font-family: Bitstream Vera Sans; font-style: Roman; fill: #000000;" x="418.120000" y="401.800000" >180</text>
</g>
<g id="xtick6">
<text style="font-size: 12.000000; font-family: Bitstream Vera Sans; font-style: Roman; fill: #000000;" x="507.400000" y="401.800000" >200</text>
</g>
<text style="font-size: 12.000000; font-family: Bitstream Vera Sans; font-style: Roman; fill: #000000;" x="292.200000" y="413.800000" >n</text>
</g>
<g id="matplotlib.axis2">
<g id="ytick1">
<path         
style="stroke: #000000;  stroke-width: 0.500000;  stroke-linejoin: miter;  stroke-linecap: butt;   opacity: 1.000000;  fill: none;   "
 d="M 72.000000,354.240000 L 76.000000,354.240000"   />
<path         
style="stroke: #000000;  stroke-width: 0.500000;  stroke-linejoin: miter;  stroke-linecap: butt;   opacity: 1.000000;  fill: none;   "
 d="M 72.000000,354.240000 L 76.000000,354.240000"   />
<path         
style="stroke: #000000;  stroke-width: 0.500000;  stroke-linejoin: miter;  stroke-linecap: butt;   opacity: 1.000000;  fill: none;   "
 d="M 514.400000,354.240000 L 518.400000,354.240000"   />
<path         
style="stroke: #000000;  stroke-width: 0.500000;  stroke-linejoin: miter;  stroke-linecap: butt;   opacity: 1.000000;  fill: none;   "
 d="M 514.400000,354.240000 L 518.400000,354.240000"   />
<text style="font-size: 12.000000; font-family: Bitstream Vera Sans; font-style: Roman; fill: #000000;" x="61.953125" y="358.740000" >2</text>
</g>
<g id="ytick2">
<path         
style="stroke: #000000;  stroke-width: 0.500000;  stroke-linejoin: miter;  stroke-linecap: butt;   opacity: 1.000000;  fill: none;   "
 d="M 72.000000,285.120000 L 76.000000,285.120000"   />
<path         
style="stroke: #000000;  stroke-width: 0.500000;  stroke-linejoin: miter;  stroke-linecap: butt;   opacity: 1.000000;  fill: none;   "
 d="M 72.000000,285.120000 L 76.000000,285.120000"   />
<path         
style="stroke: #000000;  stroke-width: 0.500000;  stroke-linejoin: miter;  stroke-linecap: butt;   opacity: 1.000000;  fill: none;   "
 d="M 514.400000,285.120000 L 518.400000,285.120000"   />
<path         
style="stroke: #000000;  stroke-width: 0.500000;  stroke-linejoin: miter;  stroke-linecap: butt;   opacity: 1.000000;  fill: none;   "
 d="M 514.400000,285.120000 L 518.400000,285.120000"   />
<text style="font-size: 12.000000; font-family: Bitstream Vera Sans; font-style: Roman; fill: #000000;" x="62.000000" y="289.620000" >4</text>
</g>
<g id="ytick3">
<path         
style="stroke: #000000;  stroke-width: 0.500000;  stroke-linejoin: miter;  stroke-linecap: butt;   opacity: 1.000000;  fill: none;   "
 d="M 72.000000,216.000000 L 76.000000,216.000000"   />
<path         
style="stroke: #000000;  stroke-width: 0.500000;  stroke-linejoin: miter;  stroke-linecap: butt;   opacity: 1.000000;  fill: none;   "
 d="M 72.000000,216.000000 L 76.000000,216.000000"   />
<path         
style="stroke: #000000;  stroke-width: 0.500000;  stroke-linejoin: miter;  stroke-linecap: butt;   opacity: 1.000000;  fill: none;   "
 d="M 514.400000,216.000000 L 518.400000,216.000000"   />
<path         
style="stroke: #000000;  stroke-width: 0.500000;  stroke-linejoin: miter;  stroke-linecap: butt;   opacity: 1.000000;  fill: none;   "
 d="M 514.400000,216.000000 L 518.400000,216.000000"   />
<text style="font-size: 12.000000; font-family: Bitstream Vera Sans; font-style: Roman; fill: #000000;" x="62.000000" y="220.500000" >6</text>
</g>
<g id="ytick4">
<path         
style="stroke: #000000;  stroke-width: 0.500000;  stroke-linejoin: miter;  stroke-linecap: butt;   opacity: 1.000000;  fill: none;   "
 d="M 72.000000,146.880000 L 76.000000,146.880000"   />
<path         
style="stroke: #000000;  stroke-width: 0.500000;  stroke-linejoin: miter;  stroke-linecap: butt;   opacity: 1.000000;  fill: none;   "
 d="M 72.000000,146.880000 L 76.000000,146.880000"   />
<path         
style="stroke: #000000;  stroke-width: 0.500000;  stroke-linejoin: miter;  stroke-linecap: butt;   opacity: 1.000000;  fill: none;   "
 d="M 514.400000,146.880000 L 518.400000,146.880000"   />
<path         
style="stroke: #000000;  stroke-width: 0.500000;  stroke-linejoin: miter;  stroke-linecap: butt;   opacity: 1.000000;  fill: none;   "
 d="M 514.400000,146.880000 L 518.400000,146.880000"   />
<text style="font-size: 12.000000; font-family: Bitstream Vera Sans; font-style: Roman; fill: #000000;" x="62.000000" y="151.380000" >8</text>
</g>
<g id="ytick5">
<path         
style="stroke: #000000;  stroke-width: 0.500000;  stroke-linejoin: miter;  stroke-linecap: butt;   opacity: 1.000000;  fill: none;   "
 d="M 72.000000,77.760000 L 76.000000,77.760000"   />
<path         
style="stroke: #000000;  stroke-width: 0.500000;  stroke-linejoin: miter;  stroke-linecap: butt;   opacity: 1.000000;  fill: none;   "
 d="M 72.000000,77.760000 L 76.000000,77.760000"   />
<path         
style="stroke: #000000;  stroke-width: 0.500000;  stroke-linejoin: miter;  stroke-linecap: butt;   opacity: 1.000000;  fill: none;   "
 d="M 514.400000,77.760000 L 518.400000,77.760000"   />
<path         
style="stroke: #000000;  stroke-width: 0.500000;  stroke-linejoin: miter;  stroke-linecap: butt;   opacity: 1.000000;  fill: none;   "
 d="M 514.400000,77.760000 L 518.400000,77.760000"   />
<text style="font-size: 12.000000; font-family: Bitstream Vera Sans; font-style: Roman; fill: #000000;" x="54.000000" y="82.260000" >10</text>
</g>
</g>

<defs>
    <clipPath id="-1250928610">
    <rect x="72.000000" y="43.200000" width="446.400000" height="345.600000"
    style="stroke: gray; fill: none;"/>
    </clipPath>
</defs>

<path         
style="stroke: #0000ff;  stroke-width: 0.500000;  stroke-linejoin: miter;  stroke-linecap: square;   opacity: 1.000000;  fill: none;   clip-path:url(#-1250928610);  "
 d="M 518.400000,354.240000 L 513.936000,354.240000 L 509.472000,354.240000 L 505.008000,354.240000 L 500.544000,354.240000 L 496.080000,354.240000 L 491.616000,354.240000 L 487.152000,354.240000 L 482.688000,354.240000 L 478.224000,354.240000 L 473.760000,354.240000 L 469.296000,354.240000 L 464.832000,354.240000 L 460.368000,354.240000 L 455.904000,354.240000 L 451.440000,354.240000 L 446.976000,354.240000 L 442.512000,354.240000 L 438.048000,354.240000 L 433.584000,354.240000 L 429.120000,354.240000 L 424.656000,354.240000 L 420.192000,354.240000 L 415.728000,354.240000 L 411.264000,354.240000 L 406.800000,354.240000 L 402.336000,354.240000 L 397.872000,354.240000 L 393.408000,354.240000 L 388.944000,354.240000 L 384.480000,354.240000 L 380.016000,354.240000 L 375.552000,354.240000 L 371.088000,354.240000 L 366.624000,354.240000 L 362.160000,354.240000 L 357.696000,354.240000 L 353.232000,354.240000 L 348.768000,354.240000 L 344.304000,354.240000 L 339.840000,354.240000 L 335.376000,354.240000 L 330.912000,354.240000 L 326.448000,354.240000 L 321.984000,354.240000 L 317.520000,354.240000 L 313.056000,354.240000 L 308.592000,354.240000 L 304.128000,354.240000 L 299.664000,354.240000 L 295.200000,354.240000 L 290.736000,354.240000 L 286.272000,354.240000 L 281.808000,354.240000 L 277.344000,354.240000 L 272.880000,354.240000 L 268.416000,354.240000 L 263.952000,354.240000 L 259.488000,354.240000 L 255.024000,354.240000 L 250.560000,354.240000 L 246.096000,354.240000 L 241.632000,354.240000 L 237.168000,354.240000 L 232.704000,354.240000 L 228.240000,354.240000 L 223.776000,354.240000 L 219.312000,354.240000 L 214.848000,354.240000 L 210.384000,354.240000 L 205.920000,354.240000 L 201.456000,354.240000 L 196.992000,354.240000 L 192.528000,354.240000 L 188.064000,354.240000 L 183.600000,354.240000 L 179.136000,354.240000 L 174.672000,354.240000 L 170.208000,354.240000 L 165.744000,354.240000 L 161.280000,354.240000 L 156.816000,354.240000 L 152.352000,354.240000 L 147.888000,354.240000 L 143.424000,354.240000 L 138.960000,354.240000 L 134.496000,354.240000 L 130.032000,354.240000 L 125.568000,354.240000 L 121.104000,354.240000 L 116.640000,354.240000 L 112.176000,354.240000 L 107.712000,354.240000 L 103.248000,354.240000 L 98.784000,354.240000 L 94.320000,354.240000 L 89.856000,354.240000 L 85.392000,354.240000 L 80.928000,354.240000 L 76.464000,354.240000 L 72.000000,354.240000 "   />
<path         
style="stroke: #008000;  stroke-width: 0.500000;  stroke-linejoin: miter;  stroke-linecap: square;   opacity: 1.000000;  fill: none;   clip-path:url(#-1250928610);  "
 d="M 518.400000,354.240000 L 513.936000,319.680000 L 509.472000,375.840000 L 505.008000,375.840000 L 500.544000,382.320000 L 496.080000,375.840000 L 491.616000,360.315000 L 487.152000,360.315000 L 482.688000,360.315000 L 478.224000,355.590000 L 473.760000,351.337500 L 469.296000,347.085000 L 464.832000,317.570625 L 460.368000,317.570625 L 455.904000,294.947578 L 451.440000,268.704844 L 446.976000,290.196738 L 442.512000,306.032871 L 438.048000,318.852598 L 433.584000,318.852598 L 429.120000,306.950696 L 424.656000,306.950696 L 420.192000,304.165675 L 415.728000,304.165675 L 411.264000,304.165675 L 406.800000,296.025263 L 402.336000,283.021695 L 397.872000,220.907453 L 393.408000,220.907453 L 388.944000,220.907453 L 384.480000,241.235670 L 380.016000,217.928154 L 375.552000,237.702668 L 371.088000,253.481507 L 366.624000,234.229123 L 362.160000,230.817378 L 357.696000,230.817378 L 353.232000,227.469008 L 348.768000,227.469008 L 344.304000,242.020827 L 339.840000,252.554136 L 335.376000,238.369561 L 330.912000,248.633447 L 326.448000,244.806808 L 321.984000,244.806808 L 317.520000,241.070834 L 313.056000,241.070834 L 308.592000,224.559723 L 304.128000,224.559723 L 299.664000,224.559723 L 295.200000,235.853094 L 290.736000,235.853094 L 286.272000,235.853094 L 281.808000,235.853094 L 277.344000,235.853094 L 272.880000,235.853094 L 268.416000,234.084341 L 263.952000,232.324541 L 259.488000,227.188759 L 255.024000,227.188759 L 250.560000,227.188759 L 246.096000,214.125359 L 241.632000,214.125359 L 237.168000,218.992278 L 232.704000,220.605501 L 228.240000,219.002561 L 223.776000,217.425631 L 219.312000,211.279744 L 214.848000,211.279744 L 210.384000,211.279744 L 205.920000,211.279744 L 201.456000,206.836748 L 196.992000,201.160812 L 192.528000,201.160812 L 188.064000,201.160812 L 183.600000,201.160812 L 179.136000,202.569267 L 174.672000,171.308022 L 170.208000,171.308022 L 165.744000,171.308022 L 161.280000,171.308022 L 156.816000,82.106248 L 152.352000,80.465895 L 147.888000,78.136117 L 143.424000,75.309966 L 138.960000,77.783044 L 134.496000,73.996655 L 130.032000,75.787812 L 125.568000,79.678557 L 121.104000,77.463009 L 116.640000,74.733265 L 112.176000,76.978023 L 107.712000,73.043355 L 103.248000,74.698437 L 98.784000,76.933791 L 94.320000,72.691153 L 89.856000,74.520648 L 85.392000,76.603428 L 80.928000,72.192541 L 76.464000,73.444119 L 72.000000,75.309408 "   />
<text style="font-size: 14.000000; font-family: Bitstream Vera Sans; font-style: Roman; fill: #000000;" x="72.176562" y="36.288000" >prediction $\hat{X_{200,n}}$ r.w. on A=[0,20], P(W=+-15)=1/2</text>
<g id="legend1">
<polygon         
style="stroke: #000000;  stroke-width: 1.000000;  stroke-linejoin: miter;  stroke-linecap: square;   opacity: 1.000000;  fill: #ffffff;   "
   points = "408.614400,77.800320 408.614400,50.112000 509.472000,50.112000 509.472000,77.800320"  />
<path         
style="stroke: #0000ff;  stroke-width: 0.500000;  stroke-linejoin: miter;  stroke-linecap: square;   opacity: 1.000000;  fill: none;   "
 d="M 418.819200,57.419360 L 426.259200,57.419360 L 433.699200,57.419360 L 441.139200,57.419360 "   />
<path         
style="stroke: #008000;  stroke-width: 0.500000;  stroke-linejoin: miter;  stroke-linecap: square;   opacity: 1.000000;  fill: none;   "
 d="M 418.819200,70.492960 L 426.259200,70.492960 L 433.699200,70.492960 L 441.139200,70.492960 "   />
<text style="font-size: 10.000000; font-family: Bitstream Vera Sans; font-style: Roman; fill: #000000;" x="450.067200" y="62.419360" >Xn_list</text>
<text style="font-size: 10.000000; font-family: Bitstream Vera Sans; font-style: Roman; fill: #000000;" x="450.067200" y="75.492960" >Xn_hat_list</text>
</g>
</g>
</g>
</svg>