<?xml version="1.0" standalone="no"?>
<!DOCTYPE svg PUBLIC "-//W3C//DTD SVG 1.0//EN"
"http://www.w3.org/TR/2001/REC-SVG-20010904/DTD/svg10.dtd">
<!-- Created with matplotlib (http://matplotlib.sourceforge.net/) -->
<svg
   xmlns="http://www.w3.org/2000/svg"
   xmlns:xlink="http://www.w3.org/1999/xlink"
   version="1.0"
   x="0.0"
   y="0.0"
   width="576.000000"
   height="432.000000"   
   id="svg1">
<g id="figure1">
<polygon         
style="stroke: #ffffff;  stroke-width: 1.000000;  stroke-linejoin: miter;  stroke-linecap: square;   opacity: 1.000000;  fill: #ffffff;   "
   points = "0.000000,432.000000 0.000000,0.000000 576.000000,0.000000 576.000000,432.000000"  />
<g id="axes1">
<polygon         
style="stroke: #000000;  stroke-width: 1.000000;  stroke-linejoin: miter;  stroke-linecap: square;   opacity: 1.000000;  fill: #ffffff;   "
   points = "72.000000,388.800000 72.000000,43.200000 518.400000,43.200000 518.400000,388.800000"  />
<g id="matplotlib.axis1">
<g id="xtick1">
<text style="font-size: 12.000000; font-family: Bitstream Vera Sans; font-style: Roman; fill: #000000;" x="69.000000" y="401.800000" >0</text>
</g>
<g id="xtick2">
<path         
style="stroke: #000000;  stroke-width: 0.500000;  stroke-linejoin: miter;  stroke-linecap: butt;   opacity: 1.000000;  fill: none;   "
 d="M 127.800000,388.800000 L 127.800000,384.800000"   />
<path         
style="stroke: #000000;  stroke-width: 0.500000;  stroke-linejoin: miter;  stroke-linecap: butt;   opacity: 1.000000;  fill: none;   "
 d="M 127.800000,388.800000 L 127.800000,384.800000"   />
<path         
style="stroke: #000000;  stroke-width: 0.500000;  stroke-linejoin: miter;  stroke-linecap: butt;   opacity: 1.000000;  fill: none;   "
 d="M 127.800000,47.200000 L 127.800000,43.200000"   />
<path         
style="stroke: #000000;  stroke-width: 0.500000;  stroke-linejoin: miter;  stroke-linecap: butt;   opacity: 1.000000;  fill: none;   "
 d="M 127.800000,47.200000 L 127.800000,43.200000"   />
<text style="font-size: 12.000000; font-family: Bitstream Vera Sans; font-style: Roman; fill: #000000;" x="120.800000" y="401.800000" >50</text>
</g>
<g id="xtick3">
<path         
style="stroke: #000000;  stroke-width: 0.500000;  stroke-linejoin: miter;  stroke-linecap: butt;   opacity: 1.000000;  fill: none;   "
 d="M 183.600000,388.800000 L 183.600000,384.800000"   />
<path         
style="stroke: #000000;  stroke-width: 0.500000;  stroke-linejoin: miter;  stroke-linecap: butt;   opacity: 1.000000;  fill: none;   "
 d="M 183.600000,388.800000 L 183.600000,384.800000"   />
<path         
style="stroke: #000000;  stroke-width: 0.500000;  stroke-linejoin: miter;  stroke-linecap: butt;   opacity: 1.000000;  fill: none;   "
 d="M 183.600000,47.200000 L 183.600000,43.200000"   />
<path         
style="stroke: #000000;  stroke-width: 0.500000;  stroke-linejoin: miter;  stroke-linecap: butt;   opacity: 1.000000;  fill: none;   "
 d="M 183.600000,47.200000 L 183.600000,43.200000"   />
<text style="font-size: 12.000000; font-family: Bitstream Vera Sans; font-style: Roman; fill: #000000;" x="172.600000" y="401.800000" >100</text>
</g>
<g id="xtick4">
<path         
style="stroke: #000000;  stroke-width: 0.500000;  stroke-linejoin: miter;  stroke-linecap: butt;   opacity: 1.000000;  fill: none;   "
 d="M 239.400000,388.800000 L 239.400000,384.800000"   />
<path         
style="stroke: #000000;  stroke-width: 0.500000;  stroke-linejoin: miter;  stroke-linecap: butt;   opacity: 1.000000;  fill: none;   "
 d="M 239.400000,388.800000 L 239.400000,384.800000"   />
<path         
style="stroke: #000000;  stroke-width: 0.500000;  stroke-linejoin: miter;  stroke-linecap: butt;   opacity: 1.000000;  fill: none;   "
 d="M 239.400000,47.200000 L 239.400000,43.200000"   />
<path         
style="stroke: #000000;  stroke-width: 0.500000;  stroke-linejoin: miter;  stroke-linecap: butt;   opacity: 1.000000;  fill: none;   "
 d="M 239.400000,47.200000 L 239.400000,43.200000"   />
<text style="font-size: 12.000000; font-family: Bitstream Vera Sans; font-style: Roman; fill: #000000;" x="228.400000" y="401.800000" >150</text>
</g>
<g id="xtick5">
<path         
style="stroke: #000000;  stroke-width: 0.500000;  stroke-linejoin: miter;  stroke-linecap: butt;   opacity: 1.000000;  fill: none;   "
 d="M 295.200000,388.800000 L 295.200000,384.800000"   />
<path         
style="stroke: #000000;  stroke-width: 0.500000;  stroke-linejoin: miter;  stroke-linecap: butt;   opacity: 1.000000;  fill: none;   "
 d="M 295.200000,388.800000 L 295.200000,384.800000"   />
<path         
style="stroke: #000000;  stroke-width: 0.500000;  stroke-linejoin: miter;  stroke-linecap: butt;   opacity: 1.000000;  fill: none;   "
 d="M 295.200000,47.200000 L 295.200000,43.200000"   />
<path         
style="stroke: #000000;  stroke-width: 0.500000;  stroke-linejoin: miter;  stroke-linecap: butt;   opacity: 1.000000;  fill: none;   "
 d="M 295.200000,47.200000 L 295.200000,43.200000"   />
<text style="font-size: 12.000000; font-family: Bitstream Vera Sans; font-style: Roman; fill: #000000;" x="284.200000" y="401.800000" >200</text>
</g>
<g id="xtick6">
<path         
style="stroke: #000000;  stroke-width: 0.500000;  stroke-linejoin: miter;  stroke-linecap: butt;   opacity: 1.000000;  fill: none;   "
 d="M 351.000000,388.800000 L 351.000000,384.800000"   />
<path         
style="stroke: #000000;  stroke-width: 0.500000;  stroke-linejoin: miter;  stroke-linecap: butt;   opacity: 1.000000;  fill: none;   "
 d="M 351.000000,388.800000 L 351.000000,384.800000"   />
<path         
style="stroke: #000000;  stroke-width: 0.500000;  stroke-linejoin: miter;  stroke-linecap: butt;   opacity: 1.000000;  fill: none;   "
 d="M 351.000000,47.200000 L 351.000000,43.200000"   />
<path         
style="stroke: #000000;  stroke-width: 0.500000;  stroke-linejoin: miter;  stroke-linecap: butt;   opacity: 1.000000;  fill: none;   "
 d="M 351.000000,47.200000 L 351.000000,43.200000"   />
<text style="font-size: 12.000000; font-family: Bitstream Vera Sans; font-style: Roman; fill: #000000;" x="340.000000" y="401.800000" >250</text>
</g>
<g id="xtick7">
<path         
style="stroke: #000000;  stroke-width: 0.500000;  stroke-linejoin: miter;  stroke-linecap: butt;   opacity: 1.000000;  fill: none;   "
 d="M 406.800000,388.800000 L 406.800000,384.800000"   />
<path         
style="stroke: #000000;  stroke-width: 0.500000;  stroke-linejoin: miter;  stroke-linecap: butt;   opacity: 1.000000;  fill: none;   "
 d="M 406.800000,388.800000 L 406.800000,384.800000"   />
<path         
style="stroke: #000000;  stroke-width: 0.500000;  stroke-linejoin: miter;  stroke-linecap: butt;   opacity: 1.000000;  fill: none;   "
 d="M 406.800000,47.200000 L 406.800000,43.200000"   />
<path         
style="stroke: #000000;  stroke-width: 0.500000;  stroke-linejoin: miter;  stroke-linecap: butt;   opacity: 1.000000;  fill: none;   "
 d="M 406.800000,47.200000 L 406.800000,43.200000"   />
<text style="font-size: 12.000000; font-family: Bitstream Vera Sans; font-style: Roman; fill: #000000;" x="395.800000" y="401.800000" >300</text>
</g>
<g id="xtick8">
<path         
style="stroke: #000000;  stroke-width: 0.500000;  stroke-linejoin: miter;  stroke-linecap: butt;   opacity: 1.000000;  fill: none;   "
 d="M 462.600000,388.800000 L 462.600000,384.800000"   />
<path         
style="stroke: #000000;  stroke-width: 0.500000;  stroke-linejoin: miter;  stroke-linecap: butt;   opacity: 1.000000;  fill: none;   "
 d="M 462.600000,388.800000 L 462.600000,384.800000"   />
<path         
style="stroke: #000000;  stroke-width: 0.500000;  stroke-linejoin: miter;  stroke-linecap: butt;   opacity: 1.000000;  fill: none;   "
 d="M 462.600000,47.200000 L 462.600000,43.200000"   />
<path         
style="stroke: #000000;  stroke-width: 0.500000;  stroke-linejoin: miter;  stroke-linecap: butt;   opacity: 1.000000;  fill: none;   "
 d="M 462.600000,47.200000 L 462.600000,43.200000"   />
<text style="font-size: 12.000000; font-family: Bitstream Vera Sans; font-style: Roman; fill: #000000;" x="451.600000" y="401.800000" >350</text>
</g>
<g id="xtick9">
<text style="font-size: 12.000000; font-family: Bitstream Vera Sans; font-style: Roman; fill: #000000;" x="507.400000" y="401.800000" >400</text>
</g>
<text style="font-size: 12.000000; font-family: Bitstream Vera Sans; font-style: Roman; fill: #000000;" x="292.200000" y="413.800000" >n</text>
</g>
<g id="matplotlib.axis2">
<g id="ytick1">
<text style="font-size: 12.000000; font-family: Bitstream Vera Sans; font-style: Roman; fill: #000000;" x="62.000000" y="393.300000" >0</text>
</g>
<g id="ytick2">
<path         
style="stroke: #000000;  stroke-width: 0.500000;  stroke-linejoin: miter;  stroke-linecap: butt;   opacity: 1.000000;  fill: none;   "
 d="M 72.000000,302.400000 L 76.000000,302.400000"   />
<path         
style="stroke: #000000;  stroke-width: 0.500000;  stroke-linejoin: miter;  stroke-linecap: butt;   opacity: 1.000000;  fill: none;   "
 d="M 72.000000,302.400000 L 76.000000,302.400000"   />
<path         
style="stroke: #000000;  stroke-width: 0.500000;  stroke-linejoin: miter;  stroke-linecap: butt;   opacity: 1.000000;  fill: none;   "
 d="M 514.400000,302.400000 L 518.400000,302.400000"   />
<path         
style="stroke: #000000;  stroke-width: 0.500000;  stroke-linejoin: miter;  stroke-linecap: butt;   opacity: 1.000000;  fill: none;   "
 d="M 514.400000,302.400000 L 518.400000,302.400000"   />
<text style="font-size: 12.000000; font-family: Bitstream Vera Sans; font-style: Roman; fill: #000000;" x="62.000000" y="306.900000" >5</text>
</g>
<g id="ytick3">
<path         
style="stroke: #000000;  stroke-width: 0.500000;  stroke-linejoin: miter;  stroke-linecap: butt;   opacity: 1.000000;  fill: none;   "
 d="M 72.000000,216.000000 L 76.000000,216.000000"   />
<path         
style="stroke: #000000;  stroke-width: 0.500000;  stroke-linejoin: miter;  stroke-linecap: butt;   opacity: 1.000000;  fill: none;   "
 d="M 72.000000,216.000000 L 76.000000,216.000000"   />
<path         
style="stroke: #000000;  stroke-width: 0.500000;  stroke-linejoin: miter;  stroke-linecap: butt;   opacity: 1.000000;  fill: none;   "
 d="M 514.400000,216.000000 L 518.400000,216.000000"   />
<path         
style="stroke: #000000;  stroke-width: 0.500000;  stroke-linejoin: miter;  stroke-linecap: butt;   opacity: 1.000000;  fill: none;   "
 d="M 514.400000,216.000000 L 518.400000,216.000000"   />
<text style="font-size: 12.000000; font-family: Bitstream Vera Sans; font-style: Roman; fill: #000000;" x="54.000000" y="220.500000" >10</text>
</g>
<g id="ytick4">
<path         
style="stroke: #000000;  stroke-width: 0.500000;  stroke-linejoin: miter;  stroke-linecap: butt;   opacity: 1.000000;  fill: none;   "
 d="M 72.000000,129.600000 L 76.000000,129.600000"   />
<path         
style="stroke: #000000;  stroke-width: 0.500000;  stroke-linejoin: miter;  stroke-linecap: butt;   opacity: 1.000000;  fill: none;   "
 d="M 72.000000,129.600000 L 76.000000,129.600000"   />
<path         
style="stroke: #000000;  stroke-width: 0.500000;  stroke-linejoin: miter;  stroke-linecap: butt;   opacity: 1.000000;  fill: none;   "
 d="M 514.400000,129.600000 L 518.400000,129.600000"   />
<path         
style="stroke: #000000;  stroke-width: 0.500000;  stroke-linejoin: miter;  stroke-linecap: butt;   opacity: 1.000000;  fill: none;   "
 d="M 514.400000,129.600000 L 518.400000,129.600000"   />
<text style="font-size: 12.000000; font-family: Bitstream Vera Sans; font-style: Roman; fill: #000000;" x="54.000000" y="134.100000" >15</text>
</g>
<g id="ytick5">
<text style="font-size: 12.000000; font-family: Bitstream Vera Sans; font-style: Roman; fill: #000000;" x="54.000000" y="47.700000" >20</text>
</g>
</g>

<defs>
    <clipPath id="-1250928610">
    <rect x="72.000000" y="43.200000" width="446.400000" height="345.600000"
    style="stroke: gray; fill: none;"/>
    </clipPath>
</defs>

<path         
style="stroke: #0000ff;  stroke-width: 0.500000;  stroke-linejoin: miter;  stroke-linecap: square;   opacity: 1.000000;  fill: none;   clip-path:url(#-1250928610);  "
 d="M 72.000000,216.000000 L 73.116000,198.720000 L 74.232000,216.000000 L 75.348000,233.280000 L 76.464000,250.560000 L 77.580000,267.840000 L 78.696000,250.560000 L 79.812000,233.280000 L 80.928000,250.560000 L 82.044000,267.840000 L 83.160000,250.560000 L 84.276000,267.840000 L 85.392000,250.560000 L 86.508000,267.840000 L 87.624000,250.560000 L 88.740000,233.280000 L 89.856000,216.000000 L 90.972000,198.720000 L 92.088000,181.440000 L 93.204000,164.160000 L 94.320000,181.440000 L 95.436000,164.160000 L 96.552000,181.440000 L 97.668000,198.720000 L 98.784000,216.000000 L 99.900000,198.720000 L 101.016000,216.000000 L 102.132000,198.720000 L 103.248000,216.000000 L 104.364000,198.720000 L 105.480000,181.440000 L 106.596000,198.720000 L 107.712000,181.440000 L 108.828000,164.160000 L 109.944000,181.440000 L 111.060000,164.160000 L 112.176000,146.880000 L 113.292000,129.600000 L 114.408000,112.320000 L 115.524000,129.600000 L 116.640000,146.880000 L 117.756000,129.600000 L 118.872000,146.880000 L 119.988000,129.600000 L 121.104000,146.880000 L 122.220000,164.160000 L 123.336000,146.880000 L 124.452000,129.600000 L 125.568000,146.880000 L 126.684000,164.160000 L 127.800000,181.440000 L 128.916000,164.160000 L 130.032000,146.880000 L 131.148000,129.600000 L 132.264000,146.880000 L 133.380000,164.160000 L 134.496000,146.880000 L 135.612000,129.600000 L 136.728000,146.880000 L 137.844000,164.160000 L 138.960000,181.440000 L 140.076000,164.160000 L 141.192000,181.440000 L 142.308000,198.720000 L 143.424000,216.000000 L 144.540000,198.720000 L 145.656000,181.440000 L 146.772000,198.720000 L 147.888000,216.000000 L 149.004000,198.720000 L 150.120000,216.000000 L 151.236000,198.720000 L 152.352000,216.000000 L 153.468000,233.280000 L 154.584000,250.560000 L 155.700000,267.840000 L 156.816000,250.560000 L 157.932000,233.280000 L 159.048000,216.000000 L 160.164000,233.280000 L 161.280000,216.000000 L 162.396000,233.280000 L 163.512000,216.000000 L 164.628000,198.720000 L 165.744000,181.440000 L 166.860000,198.720000 L 167.976000,181.440000 L 169.092000,198.720000 L 170.208000,216.000000 L 171.324000,233.280000 L 172.440000,250.560000 L 173.556000,267.840000 L 174.672000,285.120000 L 175.788000,267.840000 L 176.904000,285.120000 L 178.020000,267.840000 L 179.136000,250.560000 L 180.252000,233.280000 L 181.368000,216.000000 L 182.484000,233.280000 L 183.600000,250.560000 L 184.716000,233.280000 L 185.832000,216.000000 L 186.948000,233.280000 L 188.064000,216.000000 L 189.180000,198.720000 L 190.296000,181.440000 L 191.412000,164.160000 L 192.528000,181.440000 L 193.644000,164.160000 L 194.760000,181.440000 L 195.876000,198.720000 L 196.992000,216.000000 L 198.108000,198.720000 L 199.224000,181.440000 L 200.340000,164.160000 L 201.456000,181.440000 L 202.572000,198.720000 L 203.688000,181.440000 L 204.804000,198.720000 L 205.920000,216.000000 L 207.036000,198.720000 L 208.152000,181.440000 L 209.268000,164.160000 L 210.384000,146.880000 L 211.500000,129.600000 L 212.616000,146.880000 L 213.732000,129.600000 L 214.848000,146.880000 L 215.964000,164.160000 L 217.080000,146.880000 L 218.196000,129.600000 L 219.312000,112.320000 L 220.428000,129.600000 L 221.544000,146.880000 L 222.660000,164.160000 L 223.776000,146.880000 L 224.892000,129.600000 L 226.008000,146.880000 L 227.124000,129.600000 L 228.240000,146.880000 L 229.356000,129.600000 L 230.472000,112.320000 L 231.588000,95.040000 L 232.704000,112.320000 L 233.820000,95.040000 L 234.936000,112.320000 L 236.052000,129.600000 L 237.168000,146.880000 L 238.284000,129.600000 L 239.400000,146.880000 L 240.516000,129.600000 L 241.632000,112.320000 L 242.748000,95.040000 L 243.864000,112.320000 L 244.980000,129.600000 L 246.096000,146.880000 L 247.212000,129.600000 L 248.328000,146.880000 L 249.444000,164.160000 L 250.560000,146.880000 L 251.676000,129.600000 L 252.792000,146.880000 L 253.908000,129.600000 L 255.024000,112.320000 L 256.140000,129.600000 L 257.256000,146.880000 L 258.372000,164.160000 L 259.488000,146.880000 L 260.604000,164.160000 L 261.720000,146.880000 L 262.836000,164.160000 L 263.952000,146.880000 L 265.068000,129.600000 L 266.184000,112.320000 L 267.300000,95.040000 L 268.416000,112.320000 L 269.532000,95.040000 L 270.648000,112.320000 L 271.764000,95.040000 L 272.880000,77.760000 L 273.996000,60.480000 L 275.112000,43.200000 L 276.228000,43.200000 L 277.344000,43.200000 L 278.460000,60.480000 L 279.576000,77.760000 L 280.692000,60.480000 L 281.808000,43.200000 L 282.924000,43.200000 L 284.040000,60.480000 L 285.156000,43.200000 L 286.272000,60.480000 L 287.388000,43.200000 L 288.504000,43.200000 L 289.620000,43.200000 L 290.736000,43.200000 L 291.852000,43.200000 L 292.968000,60.480000 L 294.084000,43.200000 L 295.200000,43.200000 L 296.316000,60.480000 L 297.432000,77.760000 L 298.548000,95.040000 L 299.664000,112.320000 L 300.780000,95.040000 L 301.896000,77.760000 L 303.012000,95.040000 L 304.128000,112.320000 L 305.244000,129.600000 L 306.360000,112.320000 L 307.476000,95.040000 L 308.592000,112.320000 L 309.708000,129.600000 L 310.824000,112.320000 L 311.940000,129.600000 L 313.056000,112.320000 L 314.172000,129.600000 L 315.288000,146.880000 L 316.404000,164.160000 L 317.520000,181.440000 L 318.636000,164.160000 L 319.752000,181.440000 L 320.868000,164.160000 L 321.984000,146.880000 L 323.100000,129.600000 L 324.216000,112.320000 L 325.332000,95.040000 L 326.448000,112.320000 L 327.564000,129.600000 L 328.680000,146.880000 L 329.796000,129.600000 L 330.912000,146.880000 L 332.028000,129.600000 L 333.144000,112.320000 L 334.260000,95.040000 L 335.376000,112.320000 L 336.492000,95.040000 L 337.608000,77.760000 L 338.724000,60.480000 L 339.840000,77.760000 L 340.956000,60.480000 L 342.072000,77.760000 L 343.188000,60.480000 L 344.304000,43.200000 L 345.420000,60.480000 L 346.536000,77.760000 L 347.652000,95.040000 L 348.768000,112.320000 L 349.884000,95.040000 L 351.000000,112.320000 L 352.116000,95.040000 L 353.232000,77.760000 L 354.348000,95.040000 L 355.464000,77.760000 L 356.580000,95.040000 L 357.696000,112.320000 L 358.812000,95.040000 L 359.928000,112.320000 L 361.044000,129.600000 L 362.160000,112.320000 L 363.276000,129.600000 L 364.392000,112.320000 L 365.508000,95.040000 L 366.624000,77.760000 L 367.740000,95.040000 L 368.856000,112.320000 L 369.972000,95.040000 L 371.088000,77.760000 L 372.204000,95.040000 L 373.320000,112.320000 L 374.436000,95.040000 L 375.552000,77.760000 L 376.668000,60.480000 L 377.784000,43.200000 L 378.900000,43.200000 L 380.016000,43.200000 L 381.132000,43.200000 L 382.248000,60.480000 L 383.364000,43.200000 L 384.480000,43.200000 L 385.596000,60.480000 L 386.712000,77.760000 L 387.828000,60.480000 L 388.944000,43.200000 L 390.060000,60.480000 L 391.176000,77.760000 L 392.292000,95.040000 L 393.408000,77.760000 L 394.524000,95.040000 L 395.640000,112.320000 L 396.756000,129.600000 L 397.872000,146.880000 L 398.988000,164.160000 L 400.104000,181.440000 L 401.220000,164.160000 L 402.336000,181.440000 L 403.452000,198.720000 L 404.568000,181.440000 L 405.684000,164.160000 L 406.800000,146.880000 L 407.916000,164.160000 L 409.032000,146.880000 L 410.148000,164.160000 L 411.264000,146.880000 L 412.380000,164.160000 L 413.496000,181.440000 L 414.612000,164.160000 L 415.728000,181.440000 L 416.844000,198.720000 L 417.960000,216.000000 L 419.076000,198.720000 L 420.192000,181.440000 L 421.308000,164.160000 L 422.424000,146.880000 L 423.540000,164.160000 L 424.656000,146.880000 L 425.772000,164.160000 L 426.888000,181.440000 L 428.004000,164.160000 L 429.120000,146.880000 L 430.236000,129.600000 L 431.352000,112.320000 L 432.468000,95.040000 L 433.584000,112.320000 L 434.700000,95.040000 L 435.816000,112.320000 L 436.932000,95.040000 L 438.048000,77.760000 L 439.164000,95.040000 L 440.280000,77.760000 L 441.396000,60.480000 L 442.512000,77.760000 L 443.628000,60.480000 L 444.744000,77.760000 L 445.860000,60.480000 L 446.976000,77.760000 L 448.092000,95.040000 L 449.208000,112.320000 L 450.324000,129.600000 L 451.440000,146.880000 L 452.556000,164.160000 L 453.672000,146.880000 L 454.788000,164.160000 L 455.904000,146.880000 L 457.020000,164.160000 L 458.136000,146.880000 L 459.252000,164.160000 L 460.368000,181.440000 L 461.484000,198.720000 L 462.600000,216.000000 L 463.716000,198.720000 L 464.832000,181.440000 L 465.948000,164.160000 L 467.064000,146.880000 L 468.180000,164.160000 L 469.296000,181.440000 L 470.412000,164.160000 L 471.528000,181.440000 L 472.644000,164.160000 L 473.760000,146.880000 L 474.876000,129.600000 L 475.992000,146.880000 L 477.108000,129.600000 L 478.224000,112.320000 L 479.340000,129.600000 L 480.456000,146.880000 L 481.572000,164.160000 L 482.688000,146.880000 L 483.804000,164.160000 L 484.920000,146.880000 L 486.036000,129.600000 L 487.152000,146.880000 L 488.268000,129.600000 L 489.384000,146.880000 L 490.500000,164.160000 L 491.616000,181.440000 L 492.732000,198.720000 L 493.848000,181.440000 L 494.964000,164.160000 L 496.080000,181.440000 L 497.196000,198.720000 L 498.312000,216.000000 L 499.428000,233.280000 L 500.544000,216.000000 L 501.660000,198.720000 L 502.776000,216.000000 L 503.892000,233.280000 L 505.008000,216.000000 L 506.124000,233.280000 L 507.240000,250.560000 L 508.356000,267.840000 L 509.472000,250.560000 L 510.588000,267.840000 L 511.704000,250.560000 L 512.820000,267.840000 L 513.936000,285.120000 L 515.052000,302.400000 L 516.168000,285.120000 L 517.284000,302.400000 L 518.400000,319.680000 "   />
<path         
style="stroke: #008000;  stroke-width: 0.500000;  stroke-linejoin: miter;  stroke-linecap: square;   opacity: 1.000000;  fill: none;   clip-path:url(#-1250928610);  "
 d="M 72.000000,214.502935 L 73.116000,214.975593 L 74.232000,215.448332 L 75.348000,215.484088 L 76.464000,215.519773 L 77.580000,215.837019 L 78.696000,216.154216 L 79.812000,216.280465 L 80.928000,216.455700 L 82.044000,216.491806 L 83.160000,216.580473 L 84.276000,216.543325 L 85.392000,216.555397 L 86.508000,216.442837 L 87.624000,216.370039 L 88.740000,216.139682 L 89.856000,215.909288 L 90.972000,215.835575 L 92.088000,215.761891 L 93.204000,215.810135 L 94.320000,215.818790 L 95.436000,215.963186 L 96.552000,216.107556 L 97.668000,216.076470 L 98.784000,216.045411 L 99.900000,216.181855 L 101.016000,216.318271 L 102.132000,216.320446 L 103.248000,216.349947 L 104.364000,216.247232 L 105.480000,216.144489 L 106.596000,216.209210 L 107.712000,216.273957 L 108.828000,216.182183 L 109.944000,216.090380 L 111.060000,216.155088 L 112.176000,216.219821 L 113.292000,216.107823 L 114.408000,215.995796 L 115.524000,216.014516 L 116.640000,216.033260 L 117.756000,216.168912 L 118.872000,216.268372 L 119.988000,216.517435 L 121.104000,216.766518 L 122.220000,216.880535 L 123.336000,217.038777 L 124.452000,217.092607 L 125.568000,217.146404 L 126.684000,217.101397 L 127.800000,217.113091 L 128.916000,217.026805 L 130.032000,216.994876 L 131.148000,216.861894 L 132.264000,216.728885 L 133.380000,216.473982 L 134.496000,216.219053 L 135.612000,216.153443 L 136.728000,216.087861 L 137.844000,215.867107 L 138.960000,215.646328 L 140.076000,215.582548 L 141.192000,215.518746 L 142.308000,215.275166 L 143.424000,215.031560 L 144.540000,214.913865 L 145.656000,214.796199 L 146.772000,214.800375 L 147.888000,214.804525 L 149.004000,214.601027 L 150.120000,214.397508 L 151.236000,214.308514 L 152.352000,214.179665 L 153.468000,214.146917 L 154.584000,214.067493 L 155.700000,214.081385 L 156.816000,214.046039 L 157.932000,214.104166 L 159.048000,214.107313 L 160.164000,214.207130 L 161.280000,214.306959 L 162.396000,214.522879 L 163.512000,214.738807 L 164.628000,214.747490 L 165.744000,214.756181 L 166.860000,214.893358 L 167.976000,215.002036 L 169.092000,215.258249 L 170.208000,215.514468 L 171.324000,215.631944 L 172.440000,215.749352 L 173.556000,215.756881 L 174.672000,215.809696 L 175.788000,215.755544 L 176.904000,215.737563 L 178.020000,215.595738 L 179.136000,215.453820 L 180.252000,215.504956 L 181.368000,215.556092 L 182.484000,215.482160 L 183.600000,215.448112 L 184.716000,215.303797 L 185.832000,215.159373 L 186.948000,214.885881 L 188.064000,214.612258 L 189.180000,214.528403 L 190.296000,214.444549 L 191.412000,214.220612 L 192.528000,213.996407 L 193.644000,213.619026 L 194.760000,213.241645 L 195.876000,212.996373 L 196.992000,212.719037 L 198.108000,212.558495 L 199.224000,212.397953 L 200.340000,212.002986 L 201.456000,211.608020 L 202.572000,211.318314 L 203.688000,211.031611 L 204.804000,210.835817 L 205.920000,210.640023 L 207.036000,210.531734 L 208.152000,210.366012 L 209.268000,210.308579 L 210.384000,210.251146 L 211.500000,210.000701 L 212.616000,209.750256 L 213.732000,209.313156 L 214.848000,208.876056 L 215.964000,208.543783 L 217.080000,208.176168 L 218.196000,207.902578 L 219.312000,207.628989 L 220.428000,207.129019 L 221.544000,206.629049 L 222.660000,206.227796 L 223.776000,205.826543 L 224.892000,205.186520 L 226.008000,204.546497 L 227.124000,203.983812 L 228.240000,203.380959 L 229.356000,202.854393 L 230.472000,202.327828 L 231.588000,201.575308 L 232.704000,200.822789 L 233.820000,199.825497 L 234.936000,198.828205 L 236.052000,197.890941 L 237.168000,196.953677 L 238.284000,196.068511 L 239.400000,195.183345 L 240.516000,194.023500 L 241.632000,192.863654 L 242.748000,191.459866 L 243.864000,190.056079 L 244.980000,188.323781 L 246.096000,186.591482 L 247.212000,184.879588 L 248.328000,183.066001 L 249.444000,181.262184 L 250.560000,179.458368 L 251.676000,177.660042 L 252.792000,175.861717 L 253.908000,173.458773 L 255.024000,171.055829 L 256.140000,168.653536 L 257.256000,166.251243 L 258.372000,163.128363 L 259.488000,160.005482 L 260.604000,156.882602 L 261.720000,153.759722 L 262.836000,149.737655 L 263.952000,145.715589 L 265.068000,140.581728 L 266.184000,135.447867 L 267.300000,128.048122 L 268.416000,120.648377 L 269.532000,113.248632 L 270.648000,104.144316 L 271.764000,95.040000 L 272.880000,77.760000 L 273.996000,60.480000 L 275.112000,43.200000 L 276.228000,43.200000 L 277.344000,43.200000 L 278.460000,60.480000 L 279.576000,60.480000 L 280.692000,60.480000 L 281.808000,43.200000 L 282.924000,43.200000 L 284.040000,54.720000 L 285.156000,54.720000 L 286.272000,60.480000 L 287.388000,54.720000 L 288.504000,54.720000 L 289.620000,43.200000 L 290.736000,51.840000 L 291.852000,43.200000 L 292.968000,47.520000 L 294.084000,51.840000 L 295.200000,51.840000 L 296.316000,60.480000 L 297.432000,77.760000 L 298.548000,95.040000 L 299.664000,112.320000 L 300.780000,118.312734 L 301.896000,124.305468 L 303.012000,130.298203 L 304.128000,136.290937 L 305.244000,140.227131 L 306.360000,144.163325 L 307.476000,146.935107 L 308.592000,149.706890 L 309.708000,151.584285 L 310.824000,153.461680 L 311.940000,154.556234 L 313.056000,155.650789 L 314.172000,155.895164 L 315.288000,156.139539 L 316.404000,156.383934 L 317.520000,156.628329 L 318.636000,156.028345 L 319.752000,155.428362 L 320.868000,154.039143 L 321.984000,152.649924 L 323.100000,150.164824 L 324.216000,147.679725 L 325.332000,145.194625 L 326.448000,142.400218 L 327.564000,139.605811 L 328.680000,136.811404 L 329.796000,130.844061 L 330.912000,124.876717 L 332.028000,118.909374 L 333.144000,112.942030 L 334.260000,106.974687 L 335.376000,101.007343 L 336.492000,95.040000 L 337.608000,77.760000 L 338.724000,77.760000 L 339.840000,77.760000 L 340.956000,72.000000 L 342.072000,66.240000 L 343.188000,60.480000 L 344.304000,71.280000 L 345.420000,82.080000 L 346.536000,92.880000 L 347.652000,103.680000 L 348.768000,114.480000 L 349.884000,108.000000 L 351.000000,101.520000 L 352.116000,95.040000 L 353.232000,77.760000 L 354.348000,95.040000 L 355.464000,77.760000 L 356.580000,95.040000 L 357.696000,100.768177 L 358.812000,106.496354 L 359.928000,112.224530 L 361.044000,117.952707 L 362.160000,123.680884 L 363.276000,123.680884 L 364.392000,123.680884 L 365.508000,117.952707 L 366.624000,112.224530 L 367.740000,106.496354 L 368.856000,100.768177 L 369.972000,95.040000 L 371.088000,77.760000 L 372.204000,95.040000 L 373.320000,112.320000 L 374.436000,100.800000 L 375.552000,89.280000 L 376.668000,77.760000 L 377.784000,66.240000 L 378.900000,57.600000 L 380.016000,43.200000 L 381.132000,51.840000 L 382.248000,51.840000 L 383.364000,51.840000 L 384.480000,43.200000 L 385.596000,60.480000 L 386.712000,77.760000 L 387.828000,60.480000 L 388.944000,43.200000 L 390.060000,60.480000 L 391.176000,77.760000 L 392.292000,95.040000 L 393.408000,77.760000 L 394.524000,95.040000 L 395.640000,112.320000 L 396.756000,117.825039 L 397.872000,123.330079 L 398.988000,128.835118 L 400.104000,133.714408 L 401.220000,138.593698 L 402.336000,143.472987 L 403.452000,146.752321 L 404.568000,150.031655 L 405.684000,152.200112 L 406.800000,154.368569 L 407.916000,156.537025 L 409.032000,158.705482 L 410.148000,160.100931 L 411.264000,161.496381 L 412.380000,162.303193 L 413.496000,163.110005 L 414.612000,163.360455 L 415.728000,163.610906 L 416.844000,163.213351 L 417.960000,162.815796 L 419.076000,162.418691 L 420.192000,162.021585 L 421.308000,160.891457 L 422.424000,159.761329 L 423.540000,157.742456 L 424.656000,155.723583 L 425.772000,153.704711 L 426.888000,151.685838 L 428.004000,149.666965 L 429.120000,147.648092 L 430.236000,143.889360 L 431.352000,140.130628 L 432.468000,136.371896 L 433.584000,132.159593 L 434.700000,127.947291 L 435.816000,123.734988 L 436.932000,114.169992 L 438.048000,104.604996 L 439.164000,95.040000 L 440.280000,77.760000 L 441.396000,72.000000 L 442.512000,66.240000 L 443.628000,60.480000 L 444.744000,77.760000 L 445.860000,60.480000 L 446.976000,77.760000 L 448.092000,95.040000 L 449.208000,112.320000 L 450.324000,116.854364 L 451.440000,121.388727 L 452.556000,125.923091 L 453.672000,130.457455 L 454.788000,134.991819 L 455.904000,139.526182 L 457.020000,144.060546 L 458.136000,147.930244 L 459.252000,151.799942 L 460.368000,155.327456 L 461.484000,158.854970 L 462.600000,162.382484 L 463.716000,164.722900 L 464.832000,167.063316 L 465.948000,169.404324 L 467.064000,171.745331 L 468.180000,174.088570 L 469.296000,176.431809 L 470.412000,178.780358 L 471.528000,180.968053 L 472.644000,183.168020 L 473.760000,185.367987 L 474.876000,187.152350 L 475.992000,188.936714 L 477.108000,190.392727 L 478.224000,191.848740 L 479.340000,193.345634 L 480.456000,194.842527 L 481.572000,196.036100 L 482.688000,197.229672 L 483.804000,198.496522 L 484.920000,199.763372 L 486.036000,200.815517 L 487.152000,201.867661 L 488.268000,202.748658 L 489.384000,203.629486 L 490.500000,204.349149 L 491.616000,205.067071 L 492.732000,205.605895 L 493.848000,206.144719 L 494.964000,206.829419 L 496.080000,207.515933 L 497.196000,208.028845 L 498.312000,208.541756 L 499.428000,208.902013 L 500.544000,209.262270 L 501.660000,209.433834 L 502.776000,209.605763 L 503.892000,209.905576 L 505.008000,210.161974 L 506.124000,210.524507 L 507.240000,210.841600 L 508.356000,211.289989 L 509.472000,211.738552 L 510.588000,211.931476 L 511.704000,212.124582 L 512.820000,212.520279 L 513.936000,212.915976 L 515.052000,213.026879 L 516.168000,213.137779 L 517.284000,213.645468 L 518.400000,214.153151 "   />
<path         
style="stroke: #ff0000;  stroke-width: 0.500000;  stroke-linejoin: miter;  stroke-linecap: square;   opacity: 1.000000;  fill: none;   clip-path:url(#-1250928610);  "
 d="M 72.000000,216.000000 L 73.116000,198.720000 L 74.232000,181.440000 L 75.348000,164.160000 L 76.464000,146.880000 L 77.580000,129.600000 L 78.696000,112.320000 L 79.812000,95.040000 L 80.928000,112.320000 L 82.044000,95.040000 L 83.160000,112.320000 L 84.276000,95.040000 L 85.392000,112.320000 L 86.508000,95.040000 L 87.624000,112.320000 L 88.740000,95.040000 L 89.856000,77.760000 L 90.972000,60.480000 L 92.088000,77.760000 L 93.204000,95.040000 L 94.320000,77.760000 L 95.436000,95.040000 L 96.552000,112.320000 L 97.668000,95.040000 L 98.784000,77.760000 L 99.900000,95.040000 L 101.016000,112.320000 L 102.132000,95.040000 L 103.248000,112.320000 L 104.364000,95.040000 L 105.480000,77.760000 L 106.596000,95.040000 L 107.712000,112.320000 L 108.828000,95.040000 L 109.944000,77.760000 L 111.060000,95.040000 L 112.176000,112.320000 L 113.292000,95.040000 L 114.408000,77.760000 L 115.524000,60.480000 L 116.640000,77.760000 L 117.756000,95.040000 L 118.872000,77.760000 L 119.988000,95.040000 L 121.104000,112.320000 L 122.220000,95.040000 L 123.336000,112.320000 L 124.452000,95.040000 L 125.568000,112.320000 L 126.684000,95.040000 L 127.800000,112.320000 L 128.916000,95.040000 L 130.032000,112.320000 L 131.148000,95.040000 L 132.264000,112.320000 L 133.380000,95.040000 L 134.496000,77.760000 L 135.612000,95.040000 L 136.728000,112.320000 L 137.844000,95.040000 L 138.960000,77.760000 L 140.076000,95.040000 L 141.192000,112.320000 L 142.308000,95.040000 L 143.424000,77.760000 L 144.540000,60.480000 L 145.656000,77.760000 L 146.772000,95.040000 L 147.888000,112.320000 L 149.004000,95.040000 L 150.120000,77.760000 L 151.236000,95.040000 L 152.352000,77.760000 L 153.468000,95.040000 L 154.584000,77.760000 L 155.700000,95.040000 L 156.816000,77.760000 L 157.932000,95.040000 L 159.048000,77.760000 L 160.164000,60.480000 L 161.280000,77.760000 L 162.396000,95.040000 L 163.512000,112.320000 L 164.628000,95.040000 L 165.744000,77.760000 L 166.860000,95.040000 L 167.976000,77.760000 L 169.092000,95.040000 L 170.208000,112.320000 L 171.324000,95.040000 L 172.440000,112.320000 L 173.556000,95.040000 L 174.672000,112.320000 L 175.788000,95.040000 L 176.904000,112.320000 L 178.020000,95.040000 L 179.136000,77.760000 L 180.252000,95.040000 L 181.368000,112.320000 L 182.484000,95.040000 L 183.600000,112.320000 L 184.716000,95.040000 L 185.832000,112.320000 L 186.948000,95.040000 L 188.064000,77.760000 L 189.180000,95.040000 L 190.296000,112.320000 L 191.412000,95.040000 L 192.528000,112.320000 L 193.644000,95.040000 L 194.760000,77.760000 L 195.876000,95.040000 L 196.992000,77.760000 L 198.108000,95.040000 L 199.224000,112.320000 L 200.340000,95.040000 L 201.456000,77.760000 L 202.572000,60.480000 L 203.688000,43.200000 L 204.804000,60.480000 L 205.920000,77.760000 L 207.036000,95.040000 L 208.152000,77.760000 L 209.268000,95.040000 L 210.384000,112.320000 L 211.500000,95.040000 L 212.616000,112.320000 L 213.732000,95.040000 L 214.848000,77.760000 L 215.964000,95.040000 L 217.080000,77.760000 L 218.196000,95.040000 L 219.312000,112.320000 L 220.428000,95.040000 L 221.544000,77.760000 L 222.660000,95.040000 L 223.776000,112.320000 L 224.892000,95.040000 L 226.008000,77.760000 L 227.124000,95.040000 L 228.240000,77.760000 L 229.356000,95.040000 L 230.472000,112.320000 L 231.588000,95.040000 L 232.704000,112.320000 L 233.820000,95.040000 L 234.936000,77.760000 L 236.052000,60.480000 L 237.168000,77.760000 L 238.284000,95.040000 L 239.400000,112.320000 L 240.516000,95.040000 L 241.632000,112.320000 L 242.748000,95.040000 L 243.864000,112.320000 L 244.980000,95.040000 L 246.096000,77.760000 L 247.212000,95.040000 L 248.328000,77.760000 L 249.444000,60.480000 L 250.560000,77.760000 L 251.676000,95.040000 L 252.792000,112.320000 L 253.908000,95.040000 L 255.024000,77.760000 L 256.140000,95.040000 L 257.256000,112.320000 L 258.372000,95.040000 L 259.488000,77.760000 L 260.604000,95.040000 L 261.720000,112.320000 L 262.836000,95.040000 L 263.952000,112.320000 L 265.068000,95.040000 L 266.184000,112.320000 L 267.300000,95.040000 L 268.416000,77.760000 L 269.532000,95.040000 L 270.648000,77.760000 L 271.764000,95.040000 L 272.880000,77.760000 L 273.996000,60.480000 L 275.112000,43.200000 L 276.228000,43.200000 L 277.344000,43.200000 L 278.460000,60.480000 L 279.576000,43.200000 L 280.692000,60.480000 L 281.808000,43.200000 L 282.924000,43.200000 L 284.040000,43.200000 L 285.156000,43.200000 L 286.272000,60.480000 L 287.388000,43.200000 L 288.504000,43.200000 L 289.620000,43.200000 L 290.736000,43.200000 L 291.852000,43.200000 L 292.968000,43.200000 L 294.084000,43.200000 L 295.200000,43.200000 L 296.316000,60.480000 L 297.432000,77.760000 L 298.548000,95.040000 L 299.664000,112.320000 L 300.780000,95.040000 L 301.896000,77.760000 L 303.012000,95.040000 L 304.128000,112.320000 L 305.244000,95.040000 L 306.360000,112.320000 L 307.476000,95.040000 L 308.592000,112.320000 L 309.708000,95.040000 L 310.824000,112.320000 L 311.940000,95.040000 L 313.056000,112.320000 L 314.172000,95.040000 L 315.288000,77.760000 L 316.404000,95.040000 L 317.520000,112.320000 L 318.636000,95.040000 L 319.752000,112.320000 L 320.868000,95.040000 L 321.984000,112.320000 L 323.100000,95.040000 L 324.216000,77.760000 L 325.332000,95.040000 L 326.448000,77.760000 L 327.564000,95.040000 L 328.680000,112.320000 L 329.796000,95.040000 L 330.912000,77.760000 L 332.028000,60.480000 L 333.144000,43.200000 L 334.260000,60.480000 L 335.376000,77.760000 L 336.492000,95.040000 L 337.608000,77.760000 L 338.724000,60.480000 L 339.840000,77.760000 L 340.956000,60.480000 L 342.072000,43.200000 L 343.188000,60.480000 L 344.304000,43.200000 L 345.420000,60.480000 L 346.536000,77.760000 L 347.652000,95.040000 L 348.768000,112.320000 L 349.884000,95.040000 L 351.000000,77.760000 L 352.116000,95.040000 L 353.232000,77.760000 L 354.348000,95.040000 L 355.464000,77.760000 L 356.580000,95.040000 L 357.696000,77.760000 L 358.812000,60.480000 L 359.928000,77.760000 L 361.044000,95.040000 L 362.160000,112.320000 L 363.276000,95.040000 L 364.392000,112.320000 L 365.508000,95.040000 L 366.624000,77.760000 L 367.740000,60.480000 L 368.856000,77.760000 L 369.972000,95.040000 L 371.088000,77.760000 L 372.204000,95.040000 L 373.320000,112.320000 L 374.436000,95.040000 L 375.552000,77.760000 L 376.668000,60.480000 L 377.784000,43.200000 L 378.900000,43.200000 L 380.016000,43.200000 L 381.132000,43.200000 L 382.248000,43.200000 L 383.364000,43.200000 L 384.480000,43.200000 L 385.596000,60.480000 L 386.712000,77.760000 L 387.828000,60.480000 L 388.944000,43.200000 L 390.060000,60.480000 L 391.176000,77.760000 L 392.292000,95.040000 L 393.408000,77.760000 L 394.524000,95.040000 L 395.640000,112.320000 L 396.756000,95.040000 L 397.872000,77.760000 L 398.988000,95.040000 L 400.104000,77.760000 L 401.220000,95.040000 L 402.336000,112.320000 L 403.452000,95.040000 L 404.568000,112.320000 L 405.684000,95.040000 L 406.800000,77.760000 L 407.916000,95.040000 L 409.032000,112.320000 L 410.148000,95.040000 L 411.264000,112.320000 L 412.380000,95.040000 L 413.496000,112.320000 L 414.612000,95.040000 L 415.728000,112.320000 L 416.844000,95.040000 L 417.960000,77.760000 L 419.076000,95.040000 L 420.192000,112.320000 L 421.308000,95.040000 L 422.424000,112.320000 L 423.540000,95.040000 L 424.656000,77.760000 L 425.772000,60.480000 L 426.888000,77.760000 L 428.004000,95.040000 L 429.120000,112.320000 L 430.236000,95.040000 L 431.352000,77.760000 L 432.468000,95.040000 L 433.584000,77.760000 L 434.700000,95.040000 L 435.816000,112.320000 L 436.932000,95.040000 L 438.048000,77.760000 L 439.164000,95.040000 L 440.280000,77.760000 L 441.396000,60.480000 L 442.512000,43.200000 L 443.628000,60.480000 L 444.744000,77.760000 L 445.860000,60.480000 L 446.976000,77.760000 L 448.092000,95.040000 L 449.208000,112.320000 L 450.324000,95.040000 L 451.440000,77.760000 L 452.556000,60.480000 L 453.672000,43.200000 L 454.788000,60.480000 L 455.904000,77.760000 L 457.020000,95.040000 L 458.136000,77.760000 L 459.252000,95.040000 L 460.368000,77.760000 L 461.484000,95.040000 L 462.600000,112.320000 L 463.716000,95.040000 L 464.832000,77.760000 L 465.948000,60.480000 L 467.064000,77.760000 L 468.180000,95.040000 L 469.296000,112.320000 L 470.412000,129.600000 L 471.528000,146.880000 L 472.644000,164.160000 L 473.760000,181.440000 L 474.876000,198.720000 L 475.992000,216.000000 L 477.108000,233.280000 L 478.224000,250.560000 L 479.340000,267.840000 L 480.456000,285.120000 L 481.572000,302.400000 L 482.688000,319.680000 L 483.804000,336.960000 L 484.920000,354.240000 L 486.036000,371.520000 L 487.152000,388.800000 L 488.268000,388.800000 L 489.384000,371.520000 L 490.500000,354.240000 L 491.616000,336.960000 L 492.732000,319.680000 L 493.848000,302.400000 L 494.964000,285.120000 L 496.080000,267.840000 L 497.196000,250.560000 L 498.312000,233.280000 L 499.428000,216.000000 L 500.544000,198.720000 L 501.660000,181.440000 L 502.776000,164.160000 L 503.892000,146.880000 L 505.008000,129.600000 L 506.124000,112.320000 L 507.240000,95.040000 L 508.356000,77.760000 L 509.472000,95.040000 L 510.588000,77.760000 L 511.704000,95.040000 L 512.820000,112.320000 L 513.936000,95.040000 L 515.052000,112.320000 L 516.168000,95.040000 L 517.284000,112.320000 L 518.400000,95.040000 "   />
<path         
style="stroke: #00bfbf;  stroke-width: 0.500000;  stroke-linejoin: miter;  stroke-linecap: square;   opacity: 1.000000;  fill: none;   clip-path:url(#-1250928610);  "
 d="M 72.000000,216.000000 L 73.116000,233.280000 L 74.232000,250.560000 L 75.348000,267.840000 L 76.464000,285.120000 L 77.580000,302.400000 L 78.696000,319.680000 L 79.812000,336.960000 L 80.928000,354.240000 L 82.044000,336.960000 L 83.160000,354.240000 L 84.276000,336.960000 L 85.392000,354.240000 L 86.508000,336.960000 L 87.624000,354.240000 L 88.740000,336.960000 L 89.856000,319.680000 L 90.972000,336.960000 L 92.088000,319.680000 L 93.204000,336.960000 L 94.320000,319.680000 L 95.436000,336.960000 L 96.552000,354.240000 L 97.668000,336.960000 L 98.784000,319.680000 L 99.900000,336.960000 L 101.016000,354.240000 L 102.132000,336.960000 L 103.248000,354.240000 L 104.364000,336.960000 L 105.480000,319.680000 L 106.596000,336.960000 L 107.712000,354.240000 L 108.828000,336.960000 L 109.944000,319.680000 L 111.060000,336.960000 L 112.176000,354.240000 L 113.292000,336.960000 L 114.408000,319.680000 L 115.524000,336.960000 L 116.640000,319.680000 L 117.756000,336.960000 L 118.872000,319.680000 L 119.988000,336.960000 L 121.104000,354.240000 L 122.220000,336.960000 L 123.336000,354.240000 L 124.452000,371.520000 L 125.568000,354.240000 L 126.684000,336.960000 L 127.800000,354.240000 L 128.916000,336.960000 L 130.032000,354.240000 L 131.148000,371.520000 L 132.264000,354.240000 L 133.380000,336.960000 L 134.496000,319.680000 L 135.612000,336.960000 L 136.728000,354.240000 L 137.844000,336.960000 L 138.960000,319.680000 L 140.076000,336.960000 L 141.192000,354.240000 L 142.308000,336.960000 L 143.424000,319.680000 L 144.540000,336.960000 L 145.656000,319.680000 L 146.772000,336.960000 L 147.888000,354.240000 L 149.004000,336.960000 L 150.120000,319.680000 L 151.236000,336.960000 L 152.352000,319.680000 L 153.468000,336.960000 L 154.584000,319.680000 L 155.700000,336.960000 L 156.816000,319.680000 L 157.932000,336.960000 L 159.048000,319.680000 L 160.164000,336.960000 L 161.280000,319.680000 L 162.396000,336.960000 L 163.512000,354.240000 L 164.628000,336.960000 L 165.744000,319.680000 L 166.860000,336.960000 L 167.976000,319.680000 L 169.092000,336.960000 L 170.208000,354.240000 L 171.324000,371.520000 L 172.440000,354.240000 L 173.556000,336.960000 L 174.672000,354.240000 L 175.788000,336.960000 L 176.904000,354.240000 L 178.020000,336.960000 L 179.136000,319.680000 L 180.252000,336.960000 L 181.368000,354.240000 L 182.484000,336.960000 L 183.600000,354.240000 L 184.716000,371.520000 L 185.832000,354.240000 L 186.948000,336.960000 L 188.064000,319.680000 L 189.180000,336.960000 L 190.296000,354.240000 L 191.412000,371.520000 L 192.528000,354.240000 L 193.644000,336.960000 L 194.760000,319.680000 L 195.876000,336.960000 L 196.992000,319.680000 L 198.108000,336.960000 L 199.224000,354.240000 L 200.340000,336.960000 L 201.456000,319.680000 L 202.572000,336.960000 L 203.688000,319.680000 L 204.804000,336.960000 L 205.920000,319.680000 L 207.036000,336.960000 L 208.152000,319.680000 L 209.268000,336.960000 L 210.384000,354.240000 L 211.500000,371.520000 L 212.616000,354.240000 L 213.732000,336.960000 L 214.848000,319.680000 L 215.964000,336.960000 L 217.080000,319.680000 L 218.196000,336.960000 L 219.312000,354.240000 L 220.428000,336.960000 L 221.544000,319.680000 L 222.660000,336.960000 L 223.776000,354.240000 L 224.892000,336.960000 L 226.008000,319.680000 L 227.124000,336.960000 L 228.240000,319.680000 L 229.356000,336.960000 L 230.472000,354.240000 L 231.588000,371.520000 L 232.704000,354.240000 L 233.820000,336.960000 L 234.936000,319.680000 L 236.052000,336.960000 L 237.168000,319.680000 L 238.284000,336.960000 L 239.400000,354.240000 L 240.516000,371.520000 L 241.632000,388.800000 L 242.748000,371.520000 L 243.864000,354.240000 L 244.980000,336.960000 L 246.096000,319.680000 L 247.212000,336.960000 L 248.328000,319.680000 L 249.444000,336.960000 L 250.560000,319.680000 L 251.676000,336.960000 L 252.792000,354.240000 L 253.908000,336.960000 L 255.024000,319.680000 L 256.140000,336.960000 L 257.256000,319.680000 L 258.372000,302.400000 L 259.488000,285.120000 L 260.604000,267.840000 L 261.720000,250.560000 L 262.836000,233.280000 L 263.952000,216.000000 L 265.068000,198.720000 L 266.184000,181.440000 L 267.300000,164.160000 L 268.416000,146.880000 L 269.532000,129.600000 L 270.648000,112.320000 L 271.764000,95.040000 L 272.880000,77.760000 L 273.996000,60.480000 L 275.112000,43.200000 L 276.228000,43.200000 L 277.344000,43.200000 L 278.460000,60.480000 L 279.576000,77.760000 L 280.692000,60.480000 L 281.808000,43.200000 L 282.924000,43.200000 L 284.040000,60.480000 L 285.156000,77.760000 L 286.272000,60.480000 L 287.388000,77.760000 L 288.504000,60.480000 L 289.620000,43.200000 L 290.736000,60.480000 L 291.852000,43.200000 L 292.968000,43.200000 L 294.084000,60.480000 L 295.200000,77.760000 L 296.316000,60.480000 L 297.432000,77.760000 L 298.548000,95.040000 L 299.664000,112.320000 L 300.780000,129.600000 L 301.896000,146.880000 L 303.012000,164.160000 L 304.128000,181.440000 L 305.244000,198.720000 L 306.360000,216.000000 L 307.476000,233.280000 L 308.592000,250.560000 L 309.708000,267.840000 L 310.824000,285.120000 L 311.940000,302.400000 L 313.056000,319.680000 L 314.172000,336.960000 L 315.288000,319.680000 L 316.404000,336.960000 L 317.520000,354.240000 L 318.636000,336.960000 L 319.752000,354.240000 L 320.868000,336.960000 L 321.984000,319.680000 L 323.100000,302.400000 L 324.216000,285.120000 L 325.332000,267.840000 L 326.448000,250.560000 L 327.564000,233.280000 L 328.680000,216.000000 L 329.796000,198.720000 L 330.912000,181.440000 L 332.028000,164.160000 L 333.144000,146.880000 L 334.260000,129.600000 L 335.376000,112.320000 L 336.492000,95.040000 L 337.608000,77.760000 L 338.724000,95.040000 L 339.840000,77.760000 L 340.956000,95.040000 L 342.072000,77.760000 L 343.188000,60.480000 L 344.304000,77.760000 L 345.420000,95.040000 L 346.536000,112.320000 L 347.652000,129.600000 L 348.768000,146.880000 L 349.884000,129.600000 L 351.000000,112.320000 L 352.116000,95.040000 L 353.232000,77.760000 L 354.348000,95.040000 L 355.464000,77.760000 L 356.580000,95.040000 L 357.696000,112.320000 L 358.812000,129.600000 L 359.928000,146.880000 L 361.044000,164.160000 L 362.160000,181.440000 L 363.276000,198.720000 L 364.392000,181.440000 L 365.508000,164.160000 L 366.624000,146.880000 L 367.740000,129.600000 L 368.856000,112.320000 L 369.972000,95.040000 L 371.088000,77.760000 L 372.204000,95.040000 L 373.320000,112.320000 L 374.436000,129.600000 L 375.552000,112.320000 L 376.668000,95.040000 L 377.784000,77.760000 L 378.900000,60.480000 L 380.016000,43.200000 L 381.132000,60.480000 L 382.248000,77.760000 L 383.364000,60.480000 L 384.480000,43.200000 L 385.596000,60.480000 L 386.712000,77.760000 L 387.828000,60.480000 L 388.944000,43.200000 L 390.060000,60.480000 L 391.176000,77.760000 L 392.292000,95.040000 L 393.408000,77.760000 L 394.524000,95.040000 L 395.640000,112.320000 L 396.756000,129.600000 L 397.872000,146.880000 L 398.988000,164.160000 L 400.104000,181.440000 L 401.220000,198.720000 L 402.336000,216.000000 L 403.452000,233.280000 L 404.568000,250.560000 L 405.684000,267.840000 L 406.800000,285.120000 L 407.916000,302.400000 L 409.032000,319.680000 L 410.148000,336.960000 L 411.264000,354.240000 L 412.380000,371.520000 L 413.496000,388.800000 L 414.612000,371.520000 L 415.728000,354.240000 L 416.844000,336.960000 L 417.960000,319.680000 L 419.076000,336.960000 L 420.192000,354.240000 L 421.308000,371.520000 L 422.424000,354.240000 L 423.540000,336.960000 L 424.656000,319.680000 L 425.772000,302.400000 L 426.888000,285.120000 L 428.004000,267.840000 L 429.120000,250.560000 L 430.236000,233.280000 L 431.352000,216.000000 L 432.468000,198.720000 L 433.584000,181.440000 L 434.700000,164.160000 L 435.816000,146.880000 L 436.932000,129.600000 L 438.048000,112.320000 L 439.164000,95.040000 L 440.280000,77.760000 L 441.396000,95.040000 L 442.512000,77.760000 L 443.628000,60.480000 L 444.744000,77.760000 L 445.860000,60.480000 L 446.976000,77.760000 L 448.092000,95.040000 L 449.208000,112.320000 L 450.324000,129.600000 L 451.440000,146.880000 L 452.556000,164.160000 L 453.672000,181.440000 L 454.788000,198.720000 L 455.904000,216.000000 L 457.020000,233.280000 L 458.136000,250.560000 L 459.252000,267.840000 L 460.368000,285.120000 L 461.484000,302.400000 L 462.600000,319.680000 L 463.716000,336.960000 L 464.832000,319.680000 L 465.948000,336.960000 L 467.064000,319.680000 L 468.180000,336.960000 L 469.296000,319.680000 L 470.412000,336.960000 L 471.528000,319.680000 L 472.644000,336.960000 L 473.760000,354.240000 L 474.876000,371.520000 L 475.992000,354.240000 L 477.108000,336.960000 L 478.224000,319.680000 L 479.340000,336.960000 L 480.456000,354.240000 L 481.572000,336.960000 L 482.688000,319.680000 L 483.804000,336.960000 L 484.920000,354.240000 L 486.036000,371.520000 L 487.152000,388.800000 L 488.268000,388.800000 L 489.384000,388.800000 L 490.500000,388.800000 L 491.616000,371.520000 L 492.732000,354.240000 L 493.848000,336.960000 L 494.964000,319.680000 L 496.080000,336.960000 L 497.196000,354.240000 L 498.312000,371.520000 L 499.428000,354.240000 L 500.544000,336.960000 L 501.660000,319.680000 L 502.776000,336.960000 L 503.892000,354.240000 L 505.008000,336.960000 L 506.124000,354.240000 L 507.240000,336.960000 L 508.356000,319.680000 L 509.472000,336.960000 L 510.588000,319.680000 L 511.704000,336.960000 L 512.820000,354.240000 L 513.936000,371.520000 L 515.052000,354.240000 L 516.168000,336.960000 L 517.284000,354.240000 L 518.400000,371.520000 "   />
<path         
style="stroke: #000000;  stroke-width: 0.500000;  stroke-linejoin: miter;  stroke-linecap: square;   opacity: 1.000000;  fill: none;   clip-path:url(#-1250928610);  "
 d="M 72.000000,216.000000 L 73.116000,216.000000 L 74.232000,216.000000 L 75.348000,216.000000 L 76.464000,216.000000 L 77.580000,216.000000 L 78.696000,216.000000 L 79.812000,216.000000 L 80.928000,233.280000 L 82.044000,216.000000 L 83.160000,233.280000 L 84.276000,216.000000 L 85.392000,233.280000 L 86.508000,216.000000 L 87.624000,233.280000 L 88.740000,216.000000 L 89.856000,198.720000 L 90.972000,198.720000 L 92.088000,198.720000 L 93.204000,216.000000 L 94.320000,198.720000 L 95.436000,216.000000 L 96.552000,233.280000 L 97.668000,216.000000 L 98.784000,198.720000 L 99.900000,216.000000 L 101.016000,233.280000 L 102.132000,216.000000 L 103.248000,233.280000 L 104.364000,216.000000 L 105.480000,198.720000 L 106.596000,216.000000 L 107.712000,233.280000 L 108.828000,216.000000 L 109.944000,198.720000 L 111.060000,216.000000 L 112.176000,233.280000 L 113.292000,216.000000 L 114.408000,198.720000 L 115.524000,198.720000 L 116.640000,198.720000 L 117.756000,216.000000 L 118.872000,198.720000 L 119.988000,216.000000 L 121.104000,233.280000 L 122.220000,216.000000 L 123.336000,233.280000 L 124.452000,233.280000 L 125.568000,233.280000 L 126.684000,216.000000 L 127.800000,233.280000 L 128.916000,216.000000 L 130.032000,233.280000 L 131.148000,233.280000 L 132.264000,233.280000 L 133.380000,216.000000 L 134.496000,198.720000 L 135.612000,216.000000 L 136.728000,233.280000 L 137.844000,216.000000 L 138.960000,198.720000 L 140.076000,216.000000 L 141.192000,233.280000 L 142.308000,216.000000 L 143.424000,198.720000 L 144.540000,198.720000 L 145.656000,198.720000 L 146.772000,216.000000 L 147.888000,233.280000 L 149.004000,216.000000 L 150.120000,198.720000 L 151.236000,216.000000 L 152.352000,198.720000 L 153.468000,216.000000 L 154.584000,198.720000 L 155.700000,216.000000 L 156.816000,198.720000 L 157.932000,216.000000 L 159.048000,198.720000 L 160.164000,198.720000 L 161.280000,198.720000 L 162.396000,216.000000 L 163.512000,233.280000 L 164.628000,216.000000 L 165.744000,198.720000 L 166.860000,216.000000 L 167.976000,198.720000 L 169.092000,216.000000 L 170.208000,233.280000 L 171.324000,233.280000 L 172.440000,233.280000 L 173.556000,216.000000 L 174.672000,233.280000 L 175.788000,216.000000 L 176.904000,233.280000 L 178.020000,216.000000 L 179.136000,198.720000 L 180.252000,216.000000 L 181.368000,233.280000 L 182.484000,216.000000 L 183.600000,233.280000 L 184.716000,233.280000 L 185.832000,233.280000 L 186.948000,216.000000 L 188.064000,198.720000 L 189.180000,216.000000 L 190.296000,233.280000 L 191.412000,233.280000 L 192.528000,233.280000 L 193.644000,216.000000 L 194.760000,198.720000 L 195.876000,216.000000 L 196.992000,198.720000 L 198.108000,216.000000 L 199.224000,233.280000 L 200.340000,216.000000 L 201.456000,198.720000 L 202.572000,198.720000 L 203.688000,181.440000 L 204.804000,198.720000 L 205.920000,198.720000 L 207.036000,216.000000 L 208.152000,198.720000 L 209.268000,216.000000 L 210.384000,233.280000 L 211.500000,233.280000 L 212.616000,233.280000 L 213.732000,216.000000 L 214.848000,198.720000 L 215.964000,216.000000 L 217.080000,198.720000 L 218.196000,216.000000 L 219.312000,233.280000 L 220.428000,216.000000 L 221.544000,198.720000 L 222.660000,216.000000 L 223.776000,233.280000 L 224.892000,216.000000 L 226.008000,198.720000 L 227.124000,216.000000 L 228.240000,198.720000 L 229.356000,216.000000 L 230.472000,233.280000 L 231.588000,233.280000 L 232.704000,233.280000 L 233.820000,216.000000 L 234.936000,198.720000 L 236.052000,198.720000 L 237.168000,198.720000 L 238.284000,216.000000 L 239.400000,233.280000 L 240.516000,233.280000 L 241.632000,250.560000 L 242.748000,233.280000 L 243.864000,233.280000 L 244.980000,216.000000 L 246.096000,198.720000 L 247.212000,216.000000 L 248.328000,198.720000 L 249.444000,198.720000 L 250.560000,198.720000 L 251.676000,216.000000 L 252.792000,233.280000 L 253.908000,216.000000 L 255.024000,198.720000 L 256.140000,216.000000 L 257.256000,216.000000 L 258.372000,198.720000 L 259.488000,181.440000 L 260.604000,181.440000 L 261.720000,181.440000 L 262.836000,164.160000 L 263.952000,164.160000 L 265.068000,146.880000 L 266.184000,146.880000 L 267.300000,129.600000 L 268.416000,112.320000 L 269.532000,112.320000 L 270.648000,95.040000 L 271.764000,95.040000 L 272.880000,77.760000 L 273.996000,60.480000 L 275.112000,43.200000 L 276.228000,43.200000 L 277.344000,43.200000 L 278.460000,60.480000 L 279.576000,60.480000 L 280.692000,60.480000 L 281.808000,43.200000 L 282.924000,43.200000 L 284.040000,60.480000 L 285.156000,60.480000 L 286.272000,60.480000 L 287.388000,60.480000 L 288.504000,60.480000 L 289.620000,43.200000 L 290.736000,60.480000 L 291.852000,43.200000 L 292.968000,43.200000 L 294.084000,60.480000 L 295.200000,60.480000 L 296.316000,60.480000 L 297.432000,77.760000 L 298.548000,95.040000 L 299.664000,112.320000 L 300.780000,112.320000 L 301.896000,112.320000 L 303.012000,129.600000 L 304.128000,146.880000 L 305.244000,146.880000 L 306.360000,164.160000 L 307.476000,164.160000 L 308.592000,181.440000 L 309.708000,181.440000 L 310.824000,198.720000 L 311.940000,198.720000 L 313.056000,216.000000 L 314.172000,216.000000 L 315.288000,198.720000 L 316.404000,216.000000 L 317.520000,233.280000 L 318.636000,216.000000 L 319.752000,233.280000 L 320.868000,216.000000 L 321.984000,216.000000 L 323.100000,198.720000 L 324.216000,181.440000 L 325.332000,181.440000 L 326.448000,164.160000 L 327.564000,164.160000 L 328.680000,164.160000 L 329.796000,146.880000 L 330.912000,129.600000 L 332.028000,112.320000 L 333.144000,95.040000 L 334.260000,95.040000 L 335.376000,95.040000 L 336.492000,95.040000 L 337.608000,77.760000 L 338.724000,77.760000 L 339.840000,77.760000 L 340.956000,77.760000 L 342.072000,60.480000 L 343.188000,60.480000 L 344.304000,60.480000 L 345.420000,77.760000 L 346.536000,95.040000 L 347.652000,112.320000 L 348.768000,129.600000 L 349.884000,112.320000 L 351.000000,95.040000 L 352.116000,95.040000 L 353.232000,77.760000 L 354.348000,95.040000 L 355.464000,77.760000 L 356.580000,95.040000 L 357.696000,95.040000 L 358.812000,95.040000 L 359.928000,112.320000 L 361.044000,129.600000 L 362.160000,146.880000 L 363.276000,146.880000 L 364.392000,146.880000 L 365.508000,129.600000 L 366.624000,112.320000 L 367.740000,95.040000 L 368.856000,95.040000 L 369.972000,95.040000 L 371.088000,77.760000 L 372.204000,95.040000 L 373.320000,112.320000 L 374.436000,112.320000 L 375.552000,95.040000 L 376.668000,77.760000 L 377.784000,60.480000 L 378.900000,60.480000 L 380.016000,43.200000 L 381.132000,60.480000 L 382.248000,60.480000 L 383.364000,60.480000 L 384.480000,43.200000 L 385.596000,60.480000 L 386.712000,77.760000 L 387.828000,60.480000 L 388.944000,43.200000 L 390.060000,60.480000 L 391.176000,77.760000 L 392.292000,95.040000 L 393.408000,77.760000 L 394.524000,95.040000 L 395.640000,112.320000 L 396.756000,112.320000 L 397.872000,112.320000 L 398.988000,129.600000 L 400.104000,129.600000 L 401.220000,146.880000 L 402.336000,164.160000 L 403.452000,164.160000 L 404.568000,181.440000 L 405.684000,181.440000 L 406.800000,181.440000 L 407.916000,198.720000 L 409.032000,216.000000 L 410.148000,216.000000 L 411.264000,233.280000 L 412.380000,233.280000 L 413.496000,250.560000 L 414.612000,233.280000 L 415.728000,233.280000 L 416.844000,216.000000 L 417.960000,198.720000 L 419.076000,216.000000 L 420.192000,233.280000 L 421.308000,233.280000 L 422.424000,233.280000 L 423.540000,216.000000 L 424.656000,198.720000 L 425.772000,181.440000 L 426.888000,181.440000 L 428.004000,181.440000 L 429.120000,181.440000 L 430.236000,164.160000 L 431.352000,146.880000 L 432.468000,146.880000 L 433.584000,129.600000 L 434.700000,129.600000 L 435.816000,129.600000 L 436.932000,112.320000 L 438.048000,95.040000 L 439.164000,95.040000 L 440.280000,77.760000 L 441.396000,77.760000 L 442.512000,60.480000 L 443.628000,60.480000 L 444.744000,77.760000 L 445.860000,60.480000 L 446.976000,77.760000 L 448.092000,95.040000 L 449.208000,112.320000 L 450.324000,112.320000 L 451.440000,112.320000 L 452.556000,112.320000 L 453.672000,112.320000 L 454.788000,129.600000 L 455.904000,146.880000 L 457.020000,164.160000 L 458.136000,164.160000 L 459.252000,181.440000 L 460.368000,181.440000 L 461.484000,198.720000 L 462.600000,216.000000 L 463.716000,216.000000 L 464.832000,198.720000 L 465.948000,198.720000 L 467.064000,198.720000 L 468.180000,216.000000 L 469.296000,216.000000 L 470.412000,233.280000 L 471.528000,233.280000 L 472.644000,250.560000 L 473.760000,267.840000 L 474.876000,285.120000 L 475.992000,285.120000 L 477.108000,285.120000 L 478.224000,285.120000 L 479.340000,302.400000 L 480.456000,319.680000 L 481.572000,319.680000 L 482.688000,319.680000 L 483.804000,336.960000 L 484.920000,354.240000 L 486.036000,371.520000 L 487.152000,388.800000 L 488.268000,388.800000 L 489.384000,388.800000 L 490.500000,371.520000 L 491.616000,354.240000 L 492.732000,336.960000 L 493.848000,319.680000 L 494.964000,302.400000 L 496.080000,302.400000 L 497.196000,302.400000 L 498.312000,302.400000 L 499.428000,285.120000 L 500.544000,267.840000 L 501.660000,250.560000 L 502.776000,250.560000 L 503.892000,250.560000 L 505.008000,233.280000 L 506.124000,233.280000 L 507.240000,216.000000 L 508.356000,198.720000 L 509.472000,216.000000 L 510.588000,198.720000 L 511.704000,216.000000 L 512.820000,233.280000 L 513.936000,233.280000 L 515.052000,233.280000 L 516.168000,216.000000 L 517.284000,233.280000 L 518.400000,233.280000 "   />
<text style="font-size: 14.000000; font-family: Bitstream Vera Sans; font-style: Roman; fill: #000000;" x="46.676562" y="36.288000" >Optimal Path by Viterbi X_hat_{n,400} r.w. on A=[0,20], P(W=+-17)=1/2</text>
<g id="legend1">
<polygon         
style="stroke: #000000;  stroke-width: 1.000000;  stroke-linejoin: miter;  stroke-linecap: square;   opacity: 1.000000;  fill: #ffffff;   "
   points = "373.814400,123.665280 373.814400,50.112000 509.472000,50.112000 509.472000,123.665280"  />
<path         
style="stroke: #0000ff;  stroke-width: 0.500000;  stroke-linejoin: miter;  stroke-linecap: square;   opacity: 1.000000;  fill: none;   "
 d="M 386.919200,61.241440 L 394.359200,61.241440 L 401.799200,61.241440 L 409.239200,61.241440 "   />
<path         
style="stroke: #008000;  stroke-width: 0.500000;  stroke-linejoin: miter;  stroke-linecap: square;   opacity: 1.000000;  fill: none;   "
 d="M 386.919200,74.315040 L 394.359200,74.315040 L 401.799200,74.315040 L 409.239200,74.315040 "   />
<path         
style="stroke: #ff0000;  stroke-width: 0.500000;  stroke-linejoin: miter;  stroke-linecap: square;   opacity: 1.000000;  fill: none;   "
 d="M 386.919200,87.388640 L 394.359200,87.388640 L 401.799200,87.388640 L 409.239200,87.388640 "   />
<path         
style="stroke: #00bfbf;  stroke-width: 0.500000;  stroke-linejoin: miter;  stroke-linecap: square;   opacity: 1.000000;  fill: none;   "
 d="M 386.919200,100.462240 L 394.359200,100.462240 L 401.799200,100.462240 L 409.239200,100.462240 "   />
<path         
style="stroke: #000000;  stroke-width: 0.500000;  stroke-linejoin: miter;  stroke-linecap: square;   opacity: 1.000000;  fill: none;   "
 d="M 386.919200,113.035840 L 394.359200,113.035840 L 401.799200,113.035840 L 409.239200,113.035840 "   />
<text style="font-size: 10.000000; font-family: Bitstream Vera Sans; font-style: Roman; fill: #000000;" x="418.167200" y="66.241440" >Xn_list</text>
<text style="font-size: 10.000000; font-family: Bitstream Vera Sans; font-style: Roman; fill: #000000;" x="418.167200" y="79.315040" >Xn_hat_list</text>
<text style="font-size: 10.000000; font-family: Bitstream Vera Sans; font-style: Roman; fill: #000000;" x="418.167200" y="92.388640" >max_X_state_list</text>
<text style="font-size: 10.000000; font-family: Bitstream Vera Sans; font-style: Roman; fill: #000000;" x="418.167200" y="105.462240" >min_X_state_list</text>
<text style="font-size: 10.000000; font-family: Bitstream Vera Sans; font-style: Roman; fill: #000000;" x="418.167200" y="117.535840" >(max+min)/2</text>
</g>
</g>
</g>
</svg>