<?xml version="1.0" standalone="no"?>
<!DOCTYPE svg PUBLIC "-//W3C//DTD SVG 1.0//EN"
"http://www.w3.org/TR/2001/REC-SVG-20010904/DTD/svg10.dtd">
<!-- Created with matplotlib (http://matplotlib.sourceforge.net/) -->
<svg
   xmlns="http://www.w3.org/2000/svg"
   xmlns:xlink="http://www.w3.org/1999/xlink"
   version="1.0"
   x="0.0"
   y="0.0"
   width="576.000000"
   height="432.000000"   
   id="svg1">
<g id="figure1">
<polygon         
style="stroke: #ffffff;  stroke-width: 1.000000;  stroke-linejoin: miter;  stroke-linecap: square;   opacity: 1.000000;  fill: #ffffff;   "
   points = "0.000000,432.000000 0.000000,0.000000 576.000000,0.000000 576.000000,432.000000"  />
<g id="axes1">
<polygon         
style="stroke: #000000;  stroke-width: 1.000000;  stroke-linejoin: miter;  stroke-linecap: square;   opacity: 1.000000;  fill: #ffffff;   "
   points = "72.000000,388.800000 72.000000,43.200000 518.400000,43.200000 518.400000,388.800000"  />
<g id="matplotlib.axis1">
<g id="xtick1">
<text style="font-size: 12.000000; font-family: Bitstream Vera Sans; font-style: Roman; fill: #000000;" x="69.000000" y="401.800000" >0</text>
</g>
<g id="xtick2">
<path         
style="stroke: #000000;  stroke-width: 0.500000;  stroke-linejoin: miter;  stroke-linecap: butt;   opacity: 1.000000;  fill: none;   "
 d="M 127.800000,388.800000 L 127.800000,384.800000"   />
<path         
style="stroke: #000000;  stroke-width: 0.500000;  stroke-linejoin: miter;  stroke-linecap: butt;   opacity: 1.000000;  fill: none;   "
 d="M 127.800000,388.800000 L 127.800000,384.800000"   />
<path         
style="stroke: #000000;  stroke-width: 0.500000;  stroke-linejoin: miter;  stroke-linecap: butt;   opacity: 1.000000;  fill: none;   "
 d="M 127.800000,47.200000 L 127.800000,43.200000"   />
<path         
style="stroke: #000000;  stroke-width: 0.500000;  stroke-linejoin: miter;  stroke-linecap: butt;   opacity: 1.000000;  fill: none;   "
 d="M 127.800000,47.200000 L 127.800000,43.200000"   />
<text style="font-size: 12.000000; font-family: Bitstream Vera Sans; font-style: Roman; fill: #000000;" x="120.800000" y="401.800000" >50</text>
</g>
<g id="xtick3">
<path         
style="stroke: #000000;  stroke-width: 0.500000;  stroke-linejoin: miter;  stroke-linecap: butt;   opacity: 1.000000;  fill: none;   "
 d="M 183.600000,388.800000 L 183.600000,384.800000"   />
<path         
style="stroke: #000000;  stroke-width: 0.500000;  stroke-linejoin: miter;  stroke-linecap: butt;   opacity: 1.000000;  fill: none;   "
 d="M 183.600000,388.800000 L 183.600000,384.800000"   />
<path         
style="stroke: #000000;  stroke-width: 0.500000;  stroke-linejoin: miter;  stroke-linecap: butt;   opacity: 1.000000;  fill: none;   "
 d="M 183.600000,47.200000 L 183.600000,43.200000"   />
<path         
style="stroke: #000000;  stroke-width: 0.500000;  stroke-linejoin: miter;  stroke-linecap: butt;   opacity: 1.000000;  fill: none;   "
 d="M 183.600000,47.200000 L 183.600000,43.200000"   />
<text style="font-size: 12.000000; font-family: Bitstream Vera Sans; font-style: Roman; fill: #000000;" x="172.600000" y="401.800000" >100</text>
</g>
<g id="xtick4">
<path         
style="stroke: #000000;  stroke-width: 0.500000;  stroke-linejoin: miter;  stroke-linecap: butt;   opacity: 1.000000;  fill: none;   "
 d="M 239.400000,388.800000 L 239.400000,384.800000"   />
<path         
style="stroke: #000000;  stroke-width: 0.500000;  stroke-linejoin: miter;  stroke-linecap: butt;   opacity: 1.000000;  fill: none;   "
 d="M 239.400000,388.800000 L 239.400000,384.800000"   />
<path         
style="stroke: #000000;  stroke-width: 0.500000;  stroke-linejoin: miter;  stroke-linecap: butt;   opacity: 1.000000;  fill: none;   "
 d="M 239.400000,47.200000 L 239.400000,43.200000"   />
<path         
style="stroke: #000000;  stroke-width: 0.500000;  stroke-linejoin: miter;  stroke-linecap: butt;   opacity: 1.000000;  fill: none;   "
 d="M 239.400000,47.200000 L 239.400000,43.200000"   />
<text style="font-size: 12.000000; font-family: Bitstream Vera Sans; font-style: Roman; fill: #000000;" x="228.400000" y="401.800000" >150</text>
</g>
<g id="xtick5">
<path         
style="stroke: #000000;  stroke-width: 0.500000;  stroke-linejoin: miter;  stroke-linecap: butt;   opacity: 1.000000;  fill: none;   "
 d="M 295.200000,388.800000 L 295.200000,384.800000"   />
<path         
style="stroke: #000000;  stroke-width: 0.500000;  stroke-linejoin: miter;  stroke-linecap: butt;   opacity: 1.000000;  fill: none;   "
 d="M 295.200000,388.800000 L 295.200000,384.800000"   />
<path         
style="stroke: #000000;  stroke-width: 0.500000;  stroke-linejoin: miter;  stroke-linecap: butt;   opacity: 1.000000;  fill: none;   "
 d="M 295.200000,47.200000 L 295.200000,43.200000"   />
<path         
style="stroke: #000000;  stroke-width: 0.500000;  stroke-linejoin: miter;  stroke-linecap: butt;   opacity: 1.000000;  fill: none;   "
 d="M 295.200000,47.200000 L 295.200000,43.200000"   />
<text style="font-size: 12.000000; font-family: Bitstream Vera Sans; font-style: Roman; fill: #000000;" x="284.200000" y="401.800000" >200</text>
</g>
<g id="xtick6">
<path         
style="stroke: #000000;  stroke-width: 0.500000;  stroke-linejoin: miter;  stroke-linecap: butt;   opacity: 1.000000;  fill: none;   "
 d="M 351.000000,388.800000 L 351.000000,384.800000"   />
<path         
style="stroke: #000000;  stroke-width: 0.500000;  stroke-linejoin: miter;  stroke-linecap: butt;   opacity: 1.000000;  fill: none;   "
 d="M 351.000000,388.800000 L 351.000000,384.800000"   />
<path         
style="stroke: #000000;  stroke-width: 0.500000;  stroke-linejoin: miter;  stroke-linecap: butt;   opacity: 1.000000;  fill: none;   "
 d="M 351.000000,47.200000 L 351.000000,43.200000"   />
<path         
style="stroke: #000000;  stroke-width: 0.500000;  stroke-linejoin: miter;  stroke-linecap: butt;   opacity: 1.000000;  fill: none;   "
 d="M 351.000000,47.200000 L 351.000000,43.200000"   />
<text style="font-size: 12.000000; font-family: Bitstream Vera Sans; font-style: Roman; fill: #000000;" x="340.000000" y="401.800000" >250</text>
</g>
<g id="xtick7">
<path         
style="stroke: #000000;  stroke-width: 0.500000;  stroke-linejoin: miter;  stroke-linecap: butt;   opacity: 1.000000;  fill: none;   "
 d="M 406.800000,388.800000 L 406.800000,384.800000"   />
<path         
style="stroke: #000000;  stroke-width: 0.500000;  stroke-linejoin: miter;  stroke-linecap: butt;   opacity: 1.000000;  fill: none;   "
 d="M 406.800000,388.800000 L 406.800000,384.800000"   />
<path         
style="stroke: #000000;  stroke-width: 0.500000;  stroke-linejoin: miter;  stroke-linecap: butt;   opacity: 1.000000;  fill: none;   "
 d="M 406.800000,47.200000 L 406.800000,43.200000"   />
<path         
style="stroke: #000000;  stroke-width: 0.500000;  stroke-linejoin: miter;  stroke-linecap: butt;   opacity: 1.000000;  fill: none;   "
 d="M 406.800000,47.200000 L 406.800000,43.200000"   />
<text style="font-size: 12.000000; font-family: Bitstream Vera Sans; font-style: Roman; fill: #000000;" x="395.800000" y="401.800000" >300</text>
</g>
<g id="xtick8">
<path         
style="stroke: #000000;  stroke-width: 0.500000;  stroke-linejoin: miter;  stroke-linecap: butt;   opacity: 1.000000;  fill: none;   "
 d="M 462.600000,388.800000 L 462.600000,384.800000"   />
<path         
style="stroke: #000000;  stroke-width: 0.500000;  stroke-linejoin: miter;  stroke-linecap: butt;   opacity: 1.000000;  fill: none;   "
 d="M 462.600000,388.800000 L 462.600000,384.800000"   />
<path         
style="stroke: #000000;  stroke-width: 0.500000;  stroke-linejoin: miter;  stroke-linecap: butt;   opacity: 1.000000;  fill: none;   "
 d="M 462.600000,47.200000 L 462.600000,43.200000"   />
<path         
style="stroke: #000000;  stroke-width: 0.500000;  stroke-linejoin: miter;  stroke-linecap: butt;   opacity: 1.000000;  fill: none;   "
 d="M 462.600000,47.200000 L 462.600000,43.200000"   />
<text style="font-size: 12.000000; font-family: Bitstream Vera Sans; font-style: Roman; fill: #000000;" x="451.600000" y="401.800000" >350</text>
</g>
<g id="xtick9">
<text style="font-size: 12.000000; font-family: Bitstream Vera Sans; font-style: Roman; fill: #000000;" x="507.400000" y="401.800000" >400</text>
</g>
<text style="font-size: 12.000000; font-family: Bitstream Vera Sans; font-style: Roman; fill: #000000;" x="292.200000" y="413.800000" >n</text>
</g>
<g id="matplotlib.axis2">
<g id="ytick1">
<text style="font-size: 12.000000; font-family: Bitstream Vera Sans; font-style: Roman; fill: #000000;" x="62.000000" y="393.300000" >0</text>
</g>
<g id="ytick2">
<path         
style="stroke: #000000;  stroke-width: 0.500000;  stroke-linejoin: miter;  stroke-linecap: butt;   opacity: 1.000000;  fill: none;   "
 d="M 72.000000,345.600000 L 76.000000,345.600000"   />
<path         
style="stroke: #000000;  stroke-width: 0.500000;  stroke-linejoin: miter;  stroke-linecap: butt;   opacity: 1.000000;  fill: none;   "
 d="M 72.000000,345.600000 L 76.000000,345.600000"   />
<path         
style="stroke: #000000;  stroke-width: 0.500000;  stroke-linejoin: miter;  stroke-linecap: butt;   opacity: 1.000000;  fill: none;   "
 d="M 514.400000,345.600000 L 518.400000,345.600000"   />
<path         
style="stroke: #000000;  stroke-width: 0.500000;  stroke-linejoin: miter;  stroke-linecap: butt;   opacity: 1.000000;  fill: none;   "
 d="M 514.400000,345.600000 L 518.400000,345.600000"   />
<text style="font-size: 12.000000; font-family: Bitstream Vera Sans; font-style: Roman; fill: #000000;" x="61.953125" y="350.100000" >2</text>
</g>
<g id="ytick3">
<path         
style="stroke: #000000;  stroke-width: 0.500000;  stroke-linejoin: miter;  stroke-linecap: butt;   opacity: 1.000000;  fill: none;   "
 d="M 72.000000,302.400000 L 76.000000,302.400000"   />
<path         
style="stroke: #000000;  stroke-width: 0.500000;  stroke-linejoin: miter;  stroke-linecap: butt;   opacity: 1.000000;  fill: none;   "
 d="M 72.000000,302.400000 L 76.000000,302.400000"   />
<path         
style="stroke: #000000;  stroke-width: 0.500000;  stroke-linejoin: miter;  stroke-linecap: butt;   opacity: 1.000000;  fill: none;   "
 d="M 514.400000,302.400000 L 518.400000,302.400000"   />
<path         
style="stroke: #000000;  stroke-width: 0.500000;  stroke-linejoin: miter;  stroke-linecap: butt;   opacity: 1.000000;  fill: none;   "
 d="M 514.400000,302.400000 L 518.400000,302.400000"   />
<text style="font-size: 12.000000; font-family: Bitstream Vera Sans; font-style: Roman; fill: #000000;" x="62.000000" y="306.900000" >4</text>
</g>
<g id="ytick4">
<path         
style="stroke: #000000;  stroke-width: 0.500000;  stroke-linejoin: miter;  stroke-linecap: butt;   opacity: 1.000000;  fill: none;   "
 d="M 72.000000,259.200000 L 76.000000,259.200000"   />
<path         
style="stroke: #000000;  stroke-width: 0.500000;  stroke-linejoin: miter;  stroke-linecap: butt;   opacity: 1.000000;  fill: none;   "
 d="M 72.000000,259.200000 L 76.000000,259.200000"   />
<path         
style="stroke: #000000;  stroke-width: 0.500000;  stroke-linejoin: miter;  stroke-linecap: butt;   opacity: 1.000000;  fill: none;   "
 d="M 514.400000,259.200000 L 518.400000,259.200000"   />
<path         
style="stroke: #000000;  stroke-width: 0.500000;  stroke-linejoin: miter;  stroke-linecap: butt;   opacity: 1.000000;  fill: none;   "
 d="M 514.400000,259.200000 L 518.400000,259.200000"   />
<text style="font-size: 12.000000; font-family: Bitstream Vera Sans; font-style: Roman; fill: #000000;" x="62.000000" y="263.700000" >6</text>
</g>
<g id="ytick5">
<path         
style="stroke: #000000;  stroke-width: 0.500000;  stroke-linejoin: miter;  stroke-linecap: butt;   opacity: 1.000000;  fill: none;   "
 d="M 72.000000,216.000000 L 76.000000,216.000000"   />
<path         
style="stroke: #000000;  stroke-width: 0.500000;  stroke-linejoin: miter;  stroke-linecap: butt;   opacity: 1.000000;  fill: none;   "
 d="M 72.000000,216.000000 L 76.000000,216.000000"   />
<path         
style="stroke: #000000;  stroke-width: 0.500000;  stroke-linejoin: miter;  stroke-linecap: butt;   opacity: 1.000000;  fill: none;   "
 d="M 514.400000,216.000000 L 518.400000,216.000000"   />
<path         
style="stroke: #000000;  stroke-width: 0.500000;  stroke-linejoin: miter;  stroke-linecap: butt;   opacity: 1.000000;  fill: none;   "
 d="M 514.400000,216.000000 L 518.400000,216.000000"   />
<text style="font-size: 12.000000; font-family: Bitstream Vera Sans; font-style: Roman; fill: #000000;" x="62.000000" y="220.500000" >8</text>
</g>
<g id="ytick6">
<path         
style="stroke: #000000;  stroke-width: 0.500000;  stroke-linejoin: miter;  stroke-linecap: butt;   opacity: 1.000000;  fill: none;   "
 d="M 72.000000,172.800000 L 76.000000,172.800000"   />
<path         
style="stroke: #000000;  stroke-width: 0.500000;  stroke-linejoin: miter;  stroke-linecap: butt;   opacity: 1.000000;  fill: none;   "
 d="M 72.000000,172.800000 L 76.000000,172.800000"   />
<path         
style="stroke: #000000;  stroke-width: 0.500000;  stroke-linejoin: miter;  stroke-linecap: butt;   opacity: 1.000000;  fill: none;   "
 d="M 514.400000,172.800000 L 518.400000,172.800000"   />
<path         
style="stroke: #000000;  stroke-width: 0.500000;  stroke-linejoin: miter;  stroke-linecap: butt;   opacity: 1.000000;  fill: none;   "
 d="M 514.400000,172.800000 L 518.400000,172.800000"   />
<text style="font-size: 12.000000; font-family: Bitstream Vera Sans; font-style: Roman; fill: #000000;" x="54.000000" y="177.300000" >10</text>
</g>
<g id="ytick7">
<path         
style="stroke: #000000;  stroke-width: 0.500000;  stroke-linejoin: miter;  stroke-linecap: butt;   opacity: 1.000000;  fill: none;   "
 d="M 72.000000,129.600000 L 76.000000,129.600000"   />
<path         
style="stroke: #000000;  stroke-width: 0.500000;  stroke-linejoin: miter;  stroke-linecap: butt;   opacity: 1.000000;  fill: none;   "
 d="M 72.000000,129.600000 L 76.000000,129.600000"   />
<path         
style="stroke: #000000;  stroke-width: 0.500000;  stroke-linejoin: miter;  stroke-linecap: butt;   opacity: 1.000000;  fill: none;   "
 d="M 514.400000,129.600000 L 518.400000,129.600000"   />
<path         
style="stroke: #000000;  stroke-width: 0.500000;  stroke-linejoin: miter;  stroke-linecap: butt;   opacity: 1.000000;  fill: none;   "
 d="M 514.400000,129.600000 L 518.400000,129.600000"   />
<text style="font-size: 12.000000; font-family: Bitstream Vera Sans; font-style: Roman; fill: #000000;" x="53.953125" y="134.100000" >12</text>
</g>
<g id="ytick8">
<path         
style="stroke: #000000;  stroke-width: 0.500000;  stroke-linejoin: miter;  stroke-linecap: butt;   opacity: 1.000000;  fill: none;   "
 d="M 72.000000,86.400000 L 76.000000,86.400000"   />
<path         
style="stroke: #000000;  stroke-width: 0.500000;  stroke-linejoin: miter;  stroke-linecap: butt;   opacity: 1.000000;  fill: none;   "
 d="M 72.000000,86.400000 L 76.000000,86.400000"   />
<path         
style="stroke: #000000;  stroke-width: 0.500000;  stroke-linejoin: miter;  stroke-linecap: butt;   opacity: 1.000000;  fill: none;   "
 d="M 514.400000,86.400000 L 518.400000,86.400000"   />
<path         
style="stroke: #000000;  stroke-width: 0.500000;  stroke-linejoin: miter;  stroke-linecap: butt;   opacity: 1.000000;  fill: none;   "
 d="M 514.400000,86.400000 L 518.400000,86.400000"   />
<text style="font-size: 12.000000; font-family: Bitstream Vera Sans; font-style: Roman; fill: #000000;" x="54.000000" y="90.900000" >14</text>
</g>
<g id="ytick9">
<text style="font-size: 12.000000; font-family: Bitstream Vera Sans; font-style: Roman; fill: #000000;" x="54.000000" y="47.700000" >16</text>
</g>
</g>

<defs>
    <clipPath id="-1250928610">
    <rect x="72.000000" y="43.200000" width="446.400000" height="345.600000"
    style="stroke: gray; fill: none;"/>
    </clipPath>
</defs>

<path         
style="stroke: #0000ff;  stroke-width: 0.500000;  stroke-linejoin: miter;  stroke-linecap: square;   opacity: 1.000000;  fill: none;   clip-path:url(#-1250928610);  "
 d="M 72.000000,172.800000 L 73.116000,194.400000 L 74.232000,172.800000 L 75.348000,194.400000 L 76.464000,216.000000 L 77.580000,194.400000 L 78.696000,172.800000 L 79.812000,151.200000 L 80.928000,172.800000 L 82.044000,151.200000 L 83.160000,129.600000 L 84.276000,108.000000 L 85.392000,86.400000 L 86.508000,108.000000 L 87.624000,129.600000 L 88.740000,108.000000 L 89.856000,129.600000 L 90.972000,108.000000 L 92.088000,129.600000 L 93.204000,151.200000 L 94.320000,172.800000 L 95.436000,194.400000 L 96.552000,216.000000 L 97.668000,194.400000 L 98.784000,172.800000 L 99.900000,151.200000 L 101.016000,172.800000 L 102.132000,194.400000 L 103.248000,172.800000 L 104.364000,151.200000 L 105.480000,129.600000 L 106.596000,151.200000 L 107.712000,172.800000 L 108.828000,151.200000 L 109.944000,129.600000 L 111.060000,108.000000 L 112.176000,86.400000 L 113.292000,64.800000 L 114.408000,86.400000 L 115.524000,108.000000 L 116.640000,129.600000 L 117.756000,151.200000 L 118.872000,129.600000 L 119.988000,151.200000 L 121.104000,129.600000 L 122.220000,108.000000 L 123.336000,129.600000 L 124.452000,108.000000 L 125.568000,129.600000 L 126.684000,151.200000 L 127.800000,172.800000 L 128.916000,151.200000 L 130.032000,129.600000 L 131.148000,151.200000 L 132.264000,172.800000 L 133.380000,194.400000 L 134.496000,216.000000 L 135.612000,237.600000 L 136.728000,259.200000 L 137.844000,280.800000 L 138.960000,259.200000 L 140.076000,280.800000 L 141.192000,259.200000 L 142.308000,280.800000 L 143.424000,259.200000 L 144.540000,280.800000 L 145.656000,302.400000 L 146.772000,280.800000 L 147.888000,259.200000 L 149.004000,280.800000 L 150.120000,259.200000 L 151.236000,280.800000 L 152.352000,259.200000 L 153.468000,280.800000 L 154.584000,302.400000 L 155.700000,280.800000 L 156.816000,302.400000 L 157.932000,280.800000 L 159.048000,302.400000 L 160.164000,280.800000 L 161.280000,302.400000 L 162.396000,324.000000 L 163.512000,302.400000 L 164.628000,324.000000 L 165.744000,302.400000 L 166.860000,280.800000 L 167.976000,302.400000 L 169.092000,324.000000 L 170.208000,345.600000 L 171.324000,324.000000 L 172.440000,302.400000 L 173.556000,280.800000 L 174.672000,259.200000 L 175.788000,237.600000 L 176.904000,216.000000 L 178.020000,194.400000 L 179.136000,172.800000 L 180.252000,194.400000 L 181.368000,216.000000 L 182.484000,237.600000 L 183.600000,216.000000 L 184.716000,194.400000 L 185.832000,172.800000 L 186.948000,151.200000 L 188.064000,172.800000 L 189.180000,194.400000 L 190.296000,216.000000 L 191.412000,237.600000 L 192.528000,259.200000 L 193.644000,237.600000 L 194.760000,216.000000 L 195.876000,194.400000 L 196.992000,172.800000 L 198.108000,194.400000 L 199.224000,172.800000 L 200.340000,194.400000 L 201.456000,172.800000 L 202.572000,194.400000 L 203.688000,216.000000 L 204.804000,194.400000 L 205.920000,216.000000 L 207.036000,237.600000 L 208.152000,259.200000 L 209.268000,237.600000 L 210.384000,259.200000 L 211.500000,280.800000 L 212.616000,302.400000 L 213.732000,324.000000 L 214.848000,345.600000 L 215.964000,367.200000 L 217.080000,388.800000 L 218.196000,367.200000 L 219.312000,388.800000 L 220.428000,388.800000 L 221.544000,367.200000 L 222.660000,345.600000 L 223.776000,367.200000 L 224.892000,345.600000 L 226.008000,367.200000 L 227.124000,388.800000 L 228.240000,388.800000 L 229.356000,388.800000 L 230.472000,388.800000 L 231.588000,388.800000 L 232.704000,367.200000 L 233.820000,388.800000 L 234.936000,388.800000 L 236.052000,367.200000 L 237.168000,345.600000 L 238.284000,324.000000 L 239.400000,345.600000 L 240.516000,367.200000 L 241.632000,388.800000 L 242.748000,388.800000 L 243.864000,367.200000 L 244.980000,345.600000 L 246.096000,367.200000 L 247.212000,388.800000 L 248.328000,367.200000 L 249.444000,345.600000 L 250.560000,367.200000 L 251.676000,345.600000 L 252.792000,367.200000 L 253.908000,388.800000 L 255.024000,388.800000 L 256.140000,388.800000 L 257.256000,367.200000 L 258.372000,388.800000 L 259.488000,388.800000 L 260.604000,367.200000 L 261.720000,345.600000 L 262.836000,324.000000 L 263.952000,302.400000 L 265.068000,280.800000 L 266.184000,259.200000 L 267.300000,280.800000 L 268.416000,302.400000 L 269.532000,280.800000 L 270.648000,259.200000 L 271.764000,237.600000 L 272.880000,216.000000 L 273.996000,237.600000 L 275.112000,216.000000 L 276.228000,237.600000 L 277.344000,216.000000 L 278.460000,237.600000 L 279.576000,259.200000 L 280.692000,280.800000 L 281.808000,302.400000 L 282.924000,324.000000 L 284.040000,345.600000 L 285.156000,324.000000 L 286.272000,345.600000 L 287.388000,324.000000 L 288.504000,345.600000 L 289.620000,324.000000 L 290.736000,345.600000 L 291.852000,367.200000 L 292.968000,388.800000 L 294.084000,367.200000 L 295.200000,388.800000 L 296.316000,367.200000 L 297.432000,388.800000 L 298.548000,367.200000 L 299.664000,345.600000 L 300.780000,367.200000 L 301.896000,345.600000 L 303.012000,324.000000 L 304.128000,345.600000 L 305.244000,324.000000 L 306.360000,345.600000 L 307.476000,324.000000 L 308.592000,302.400000 L 309.708000,280.800000 L 310.824000,302.400000 L 311.940000,280.800000 L 313.056000,259.200000 L 314.172000,280.800000 L 315.288000,302.400000 L 316.404000,324.000000 L 317.520000,302.400000 L 318.636000,324.000000 L 319.752000,302.400000 L 320.868000,280.800000 L 321.984000,259.200000 L 323.100000,280.800000 L 324.216000,302.400000 L 325.332000,280.800000 L 326.448000,302.400000 L 327.564000,280.800000 L 328.680000,302.400000 L 329.796000,324.000000 L 330.912000,302.400000 L 332.028000,280.800000 L 333.144000,259.200000 L 334.260000,280.800000 L 335.376000,259.200000 L 336.492000,280.800000 L 337.608000,302.400000 L 338.724000,324.000000 L 339.840000,302.400000 L 340.956000,280.800000 L 342.072000,259.200000 L 343.188000,280.800000 L 344.304000,302.400000 L 345.420000,324.000000 L 346.536000,302.400000 L 347.652000,324.000000 L 348.768000,302.400000 L 349.884000,280.800000 L 351.000000,259.200000 L 352.116000,237.600000 L 353.232000,259.200000 L 354.348000,280.800000 L 355.464000,259.200000 L 356.580000,237.600000 L 357.696000,216.000000 L 358.812000,194.400000 L 359.928000,172.800000 L 361.044000,194.400000 L 362.160000,172.800000 L 363.276000,151.200000 L 364.392000,172.800000 L 365.508000,194.400000 L 366.624000,172.800000 L 367.740000,194.400000 L 368.856000,172.800000 L 369.972000,151.200000 L 371.088000,172.800000 L 372.204000,151.200000 L 373.320000,172.800000 L 374.436000,151.200000 L 375.552000,129.600000 L 376.668000,108.000000 L 377.784000,129.600000 L 378.900000,151.200000 L 380.016000,172.800000 L 381.132000,151.200000 L 382.248000,129.600000 L 383.364000,151.200000 L 384.480000,172.800000 L 385.596000,194.400000 L 386.712000,172.800000 L 387.828000,194.400000 L 388.944000,216.000000 L 390.060000,237.600000 L 391.176000,259.200000 L 392.292000,237.600000 L 393.408000,259.200000 L 394.524000,280.800000 L 395.640000,259.200000 L 396.756000,237.600000 L 397.872000,216.000000 L 398.988000,237.600000 L 400.104000,259.200000 L 401.220000,280.800000 L 402.336000,259.200000 L 403.452000,237.600000 L 404.568000,259.200000 L 405.684000,237.600000 L 406.800000,259.200000 L 407.916000,237.600000 L 409.032000,216.000000 L 410.148000,237.600000 L 411.264000,259.200000 L 412.380000,280.800000 L 413.496000,302.400000 L 414.612000,280.800000 L 415.728000,259.200000 L 416.844000,280.800000 L 417.960000,259.200000 L 419.076000,237.600000 L 420.192000,259.200000 L 421.308000,237.600000 L 422.424000,259.200000 L 423.540000,237.600000 L 424.656000,259.200000 L 425.772000,280.800000 L 426.888000,302.400000 L 428.004000,324.000000 L 429.120000,302.400000 L 430.236000,280.800000 L 431.352000,302.400000 L 432.468000,280.800000 L 433.584000,302.400000 L 434.700000,280.800000 L 435.816000,302.400000 L 436.932000,280.800000 L 438.048000,302.400000 L 439.164000,324.000000 L 440.280000,302.400000 L 441.396000,324.000000 L 442.512000,345.600000 L 443.628000,324.000000 L 444.744000,345.600000 L 445.860000,324.000000 L 446.976000,345.600000 L 448.092000,367.200000 L 449.208000,388.800000 L 450.324000,367.200000 L 451.440000,388.800000 L 452.556000,388.800000 L 453.672000,388.800000 L 454.788000,388.800000 L 455.904000,388.800000 L 457.020000,388.800000 L 458.136000,388.800000 L 459.252000,388.800000 L 460.368000,367.200000 L 461.484000,388.800000 L 462.600000,388.800000 L 463.716000,367.200000 L 464.832000,388.800000 L 465.948000,388.800000 L 467.064000,388.800000 L 468.180000,367.200000 L 469.296000,388.800000 L 470.412000,367.200000 L 471.528000,388.800000 L 472.644000,367.200000 L 473.760000,388.800000 L 474.876000,367.200000 L 475.992000,345.600000 L 477.108000,324.000000 L 478.224000,302.400000 L 479.340000,280.800000 L 480.456000,302.400000 L 481.572000,324.000000 L 482.688000,302.400000 L 483.804000,280.800000 L 484.920000,302.400000 L 486.036000,324.000000 L 487.152000,302.400000 L 488.268000,324.000000 L 489.384000,345.600000 L 490.500000,367.200000 L 491.616000,345.600000 L 492.732000,367.200000 L 493.848000,388.800000 L 494.964000,367.200000 L 496.080000,345.600000 L 497.196000,367.200000 L 498.312000,388.800000 L 499.428000,388.800000 L 500.544000,367.200000 L 501.660000,388.800000 L 502.776000,367.200000 L 503.892000,388.800000 L 505.008000,367.200000 L 506.124000,345.600000 L 507.240000,367.200000 L 508.356000,345.600000 L 509.472000,324.000000 L 510.588000,302.400000 L 511.704000,280.800000 L 512.820000,302.400000 L 513.936000,280.800000 L 515.052000,259.200000 L 516.168000,237.600000 L 517.284000,259.200000 L 518.400000,280.800000 "   />
<path         
style="stroke: #008000;  stroke-width: 0.500000;  stroke-linejoin: miter;  stroke-linecap: square;   opacity: 1.000000;  fill: none;   clip-path:url(#-1250928610);  "
 d="M 72.000000,176.732941 L 73.116000,177.371901 L 74.232000,176.593943 L 75.348000,175.815984 L 76.464000,176.224659 L 77.580000,176.633334 L 78.696000,178.134324 L 79.812000,179.635314 L 80.928000,180.526366 L 82.044000,181.810522 L 83.160000,182.657661 L 84.276000,183.504801 L 85.392000,183.952301 L 86.508000,184.399801 L 87.624000,184.463202 L 88.740000,184.526603 L 89.856000,184.213769 L 90.972000,183.900934 L 92.088000,183.215163 L 93.204000,183.039519 L 94.320000,182.490469 L 95.436000,182.300340 L 96.552000,181.732375 L 97.668000,181.487520 L 98.784000,180.855846 L 99.900000,180.528538 L 101.016000,179.798512 L 102.132000,179.384428 L 103.248000,178.534118 L 104.364000,177.683809 L 105.480000,176.257661 L 106.596000,174.831512 L 107.712000,174.244396 L 108.828000,173.514592 L 109.944000,173.394748 L 111.060000,173.106453 L 112.176000,173.393765 L 113.292000,173.514075 L 114.408000,174.226272 L 115.524000,174.798388 L 116.640000,176.104995 L 117.756000,177.411603 L 118.872000,178.091416 L 119.988000,178.771228 L 121.104000,180.516170 L 122.220000,182.261111 L 123.336000,183.637773 L 124.452000,185.221883 L 125.568000,186.534690 L 126.684000,187.847497 L 127.800000,190.416768 L 128.916000,192.986039 L 130.032000,197.044619 L 131.148000,201.103199 L 132.264000,205.161778 L 133.380000,209.220358 L 134.496000,215.969525 L 135.612000,222.718692 L 136.728000,234.879128 L 137.844000,247.039564 L 138.960000,259.200000 L 140.076000,280.800000 L 141.192000,259.200000 L 142.308000,280.800000 L 143.424000,259.200000 L 144.540000,280.800000 L 145.656000,302.400000 L 146.772000,280.800000 L 147.888000,259.200000 L 149.004000,280.800000 L 150.120000,259.200000 L 151.236000,262.285714 L 152.352000,265.371429 L 153.468000,268.457143 L 154.584000,271.542857 L 155.700000,274.628571 L 156.816000,277.714286 L 157.932000,280.800000 L 159.048000,280.800000 L 160.164000,280.800000 L 161.280000,288.000000 L 162.396000,295.200000 L 163.512000,302.400000 L 164.628000,295.200000 L 165.744000,288.000000 L 166.860000,280.800000 L 167.976000,285.120000 L 169.092000,289.440000 L 170.208000,293.760000 L 171.324000,298.080000 L 172.440000,302.400000 L 173.556000,280.800000 L 174.672000,259.200000 L 175.788000,237.600000 L 176.904000,230.520344 L 178.020000,223.440687 L 179.136000,216.361031 L 180.252000,209.281375 L 181.368000,205.085502 L 182.484000,200.889630 L 183.600000,198.765988 L 184.716000,196.642346 L 185.832000,194.462482 L 186.948000,192.604077 L 188.064000,190.599637 L 189.180000,188.595198 L 190.296000,187.974973 L 191.412000,187.316906 L 192.528000,187.925527 L 193.644000,188.534147 L 194.760000,188.856642 L 195.876000,189.179137 L 196.992000,190.893592 L 198.108000,192.608048 L 199.224000,196.154034 L 200.340000,199.700020 L 201.456000,203.171479 L 202.572000,206.642938 L 203.688000,210.114396 L 204.804000,213.585855 L 205.920000,217.057313 L 207.036000,220.528772 L 208.152000,229.064386 L 209.268000,237.600000 L 210.384000,259.200000 L 211.500000,280.800000 L 212.616000,302.400000 L 213.732000,324.000000 L 214.848000,334.800000 L 215.964000,345.600000 L 217.080000,356.400000 L 218.196000,367.200000 L 219.312000,388.800000 L 220.428000,388.800000 L 221.544000,367.200000 L 222.660000,345.600000 L 223.776000,345.600000 L 224.892000,345.600000 L 226.008000,367.200000 L 227.124000,388.800000 L 228.240000,379.542857 L 229.356000,376.457143 L 230.472000,374.605714 L 231.588000,374.605714 L 232.704000,376.457143 L 233.820000,379.542857 L 234.936000,388.800000 L 236.052000,367.200000 L 237.168000,345.600000 L 238.284000,324.000000 L 239.400000,345.600000 L 240.516000,367.200000 L 241.632000,388.800000 L 242.748000,388.800000 L 243.864000,367.200000 L 244.980000,367.200000 L 246.096000,367.200000 L 247.212000,388.800000 L 248.328000,367.200000 L 249.444000,367.200000 L 250.560000,363.600000 L 251.676000,367.200000 L 252.792000,367.200000 L 253.908000,388.800000 L 255.024000,388.800000 L 256.140000,388.800000 L 257.256000,367.200000 L 258.372000,388.800000 L 259.488000,388.800000 L 260.604000,367.200000 L 261.720000,345.600000 L 262.836000,324.000000 L 263.952000,302.400000 L 265.068000,280.800000 L 266.184000,259.200000 L 267.300000,280.800000 L 268.416000,302.400000 L 269.532000,280.800000 L 270.648000,259.200000 L 271.764000,249.381818 L 272.880000,239.563636 L 273.996000,229.745455 L 275.112000,231.709091 L 276.228000,233.672727 L 277.344000,235.636364 L 278.460000,237.600000 L 279.576000,259.200000 L 280.692000,280.800000 L 281.808000,302.400000 L 282.924000,324.000000 L 284.040000,345.600000 L 285.156000,324.000000 L 286.272000,331.200000 L 287.388000,338.400000 L 288.504000,345.600000 L 289.620000,345.600000 L 290.736000,345.600000 L 291.852000,367.200000 L 292.968000,388.800000 L 294.084000,378.000000 L 295.200000,388.800000 L 296.316000,367.200000 L 297.432000,367.200000 L 298.548000,367.200000 L 299.664000,367.200000 L 300.780000,367.200000 L 301.896000,345.600000 L 303.012000,324.000000 L 304.128000,345.600000 L 305.244000,324.000000 L 306.360000,324.000000 L 307.476000,324.000000 L 308.592000,302.400000 L 309.708000,280.800000 L 310.824000,302.400000 L 311.940000,280.800000 L 313.056000,280.800000 L 314.172000,280.800000 L 315.288000,302.400000 L 316.404000,324.000000 L 317.520000,316.800000 L 318.636000,309.600000 L 319.752000,302.400000 L 320.868000,280.800000 L 321.984000,259.200000 L 323.100000,280.800000 L 324.216000,280.800000 L 325.332000,280.800000 L 326.448000,302.400000 L 327.564000,302.400000 L 328.680000,302.400000 L 329.796000,302.400000 L 330.912000,302.400000 L 332.028000,280.800000 L 333.144000,259.200000 L 334.260000,280.800000 L 335.376000,280.800000 L 336.492000,280.800000 L 337.608000,276.480000 L 338.724000,272.160000 L 339.840000,267.840000 L 340.956000,263.520000 L 342.072000,259.200000 L 343.188000,280.800000 L 344.304000,302.400000 L 345.420000,324.000000 L 346.536000,313.200000 L 347.652000,302.400000 L 348.768000,291.600000 L 349.884000,280.800000 L 351.000000,273.600000 L 352.116000,266.400000 L 353.232000,259.200000 L 354.348000,280.800000 L 355.464000,259.200000 L 356.580000,237.600000 L 357.696000,230.230690 L 358.812000,222.861380 L 359.928000,215.492070 L 361.044000,208.122760 L 362.160000,203.425879 L 363.276000,198.728999 L 364.392000,195.802552 L 365.508000,192.876106 L 366.624000,189.855360 L 367.740000,186.834614 L 368.856000,184.992651 L 369.972000,183.150688 L 371.088000,182.323535 L 372.204000,181.496383 L 373.320000,180.199330 L 374.436000,178.902276 L 375.552000,178.464587 L 376.668000,177.929208 L 377.784000,178.113866 L 378.900000,178.197884 L 380.016000,179.115692 L 381.132000,180.033499 L 382.248000,180.410974 L 383.364000,180.788448 L 384.480000,182.079463 L 385.596000,183.370479 L 386.712000,185.545563 L 387.828000,187.667910 L 388.944000,191.003035 L 390.060000,194.338160 L 391.176000,197.596481 L 392.292000,200.854802 L 393.408000,206.453081 L 394.524000,212.051360 L 395.640000,217.649639 L 396.756000,223.247917 L 397.872000,235.231945 L 398.988000,247.215972 L 400.104000,259.200000 L 401.220000,280.800000 L 402.336000,259.200000 L 403.452000,248.629787 L 404.568000,238.059574 L 405.684000,227.489362 L 406.800000,225.191489 L 407.916000,222.893617 L 409.032000,226.110638 L 410.148000,229.327660 L 411.264000,242.195745 L 412.380000,255.063830 L 413.496000,267.931915 L 414.612000,280.800000 L 415.728000,267.986441 L 416.844000,255.172881 L 417.960000,242.359322 L 419.076000,229.545763 L 420.192000,226.836610 L 421.308000,224.127458 L 422.424000,228.740339 L 423.540000,233.353220 L 424.656000,237.966102 L 425.772000,246.532881 L 426.888000,255.099661 L 428.004000,263.666441 L 429.120000,272.233220 L 430.236000,280.800000 L 431.352000,302.400000 L 432.468000,280.800000 L 433.584000,280.800000 L 434.700000,280.800000 L 435.816000,280.800000 L 436.932000,280.800000 L 438.048000,302.400000 L 439.164000,309.600000 L 440.280000,316.800000 L 441.396000,324.000000 L 442.512000,331.200000 L 443.628000,338.400000 L 444.744000,345.600000 L 445.860000,345.600000 L 446.976000,345.600000 L 448.092000,367.200000 L 449.208000,367.200000 L 450.324000,367.200000 L 451.440000,388.800000 L 452.556000,388.800000 L 453.672000,388.800000 L 454.788000,378.000000 L 455.904000,388.800000 L 457.020000,388.800000 L 458.136000,388.800000 L 459.252000,388.800000 L 460.368000,367.200000 L 461.484000,388.800000 L 462.600000,388.800000 L 463.716000,367.200000 L 464.832000,388.800000 L 465.948000,388.800000 L 467.064000,388.800000 L 468.180000,367.200000 L 469.296000,367.200000 L 470.412000,362.880000 L 471.528000,363.960000 L 472.644000,362.880000 L 473.760000,367.200000 L 474.876000,367.200000 L 475.992000,345.600000 L 477.108000,324.000000 L 478.224000,302.400000 L 479.340000,302.400000 L 480.456000,302.400000 L 481.572000,302.400000 L 482.688000,302.400000 L 483.804000,280.800000 L 484.920000,302.400000 L 486.036000,324.000000 L 487.152000,302.400000 L 488.268000,324.000000 L 489.384000,345.600000 L 490.500000,367.200000 L 491.616000,374.400000 L 492.732000,374.400000 L 493.848000,388.800000 L 494.964000,378.000000 L 496.080000,378.000000 L 497.196000,378.000000 L 498.312000,388.800000 L 499.428000,388.800000 L 500.544000,367.200000 L 501.660000,388.800000 L 502.776000,378.000000 L 503.892000,388.800000 L 505.008000,367.200000 L 506.124000,345.600000 L 507.240000,336.342857 L 508.356000,327.085714 L 509.472000,317.828571 L 510.588000,308.571429 L 511.704000,299.314286 L 512.820000,290.057143 L 513.936000,280.800000 L 515.052000,259.200000 L 516.168000,259.200000 L 517.284000,259.200000 L 518.400000,280.800000 "   />
<path         
style="stroke: #ff0000;  stroke-width: 0.500000;  stroke-linejoin: miter;  stroke-linecap: square;   opacity: 1.000000;  fill: none;   clip-path:url(#-1250928610);  "
 d="M 72.000000,172.800000 L 73.116000,151.200000 L 74.232000,129.600000 L 75.348000,108.000000 L 76.464000,86.400000 L 77.580000,64.800000 L 78.696000,86.400000 L 79.812000,108.000000 L 80.928000,86.400000 L 82.044000,108.000000 L 83.160000,86.400000 L 84.276000,108.000000 L 85.392000,86.400000 L 86.508000,108.000000 L 87.624000,86.400000 L 88.740000,108.000000 L 89.856000,86.400000 L 90.972000,108.000000 L 92.088000,86.400000 L 93.204000,108.000000 L 94.320000,86.400000 L 95.436000,108.000000 L 96.552000,86.400000 L 97.668000,108.000000 L 98.784000,86.400000 L 99.900000,108.000000 L 101.016000,86.400000 L 102.132000,108.000000 L 103.248000,86.400000 L 104.364000,108.000000 L 105.480000,86.400000 L 106.596000,64.800000 L 107.712000,86.400000 L 108.828000,64.800000 L 109.944000,86.400000 L 111.060000,64.800000 L 112.176000,86.400000 L 113.292000,64.800000 L 114.408000,86.400000 L 115.524000,64.800000 L 116.640000,86.400000 L 117.756000,108.000000 L 118.872000,86.400000 L 119.988000,64.800000 L 121.104000,86.400000 L 122.220000,108.000000 L 123.336000,86.400000 L 124.452000,108.000000 L 125.568000,86.400000 L 126.684000,64.800000 L 127.800000,43.200000 L 128.916000,64.800000 L 130.032000,86.400000 L 131.148000,108.000000 L 132.264000,129.600000 L 133.380000,151.200000 L 134.496000,172.800000 L 135.612000,194.400000 L 136.728000,216.000000 L 137.844000,237.600000 L 138.960000,259.200000 L 140.076000,280.800000 L 141.192000,259.200000 L 142.308000,280.800000 L 143.424000,259.200000 L 144.540000,280.800000 L 145.656000,302.400000 L 146.772000,280.800000 L 147.888000,259.200000 L 149.004000,280.800000 L 150.120000,259.200000 L 151.236000,237.600000 L 152.352000,216.000000 L 153.468000,194.400000 L 154.584000,216.000000 L 155.700000,237.600000 L 156.816000,259.200000 L 157.932000,280.800000 L 159.048000,259.200000 L 160.164000,280.800000 L 161.280000,259.200000 L 162.396000,280.800000 L 163.512000,302.400000 L 164.628000,280.800000 L 165.744000,259.200000 L 166.860000,280.800000 L 167.976000,259.200000 L 169.092000,237.600000 L 170.208000,259.200000 L 171.324000,280.800000 L 172.440000,302.400000 L 173.556000,280.800000 L 174.672000,259.200000 L 175.788000,237.600000 L 176.904000,216.000000 L 178.020000,194.400000 L 179.136000,172.800000 L 180.252000,151.200000 L 181.368000,129.600000 L 182.484000,108.000000 L 183.600000,86.400000 L 184.716000,108.000000 L 185.832000,86.400000 L 186.948000,108.000000 L 188.064000,86.400000 L 189.180000,64.800000 L 190.296000,86.400000 L 191.412000,64.800000 L 192.528000,86.400000 L 193.644000,108.000000 L 194.760000,86.400000 L 195.876000,64.800000 L 196.992000,43.200000 L 198.108000,64.800000 L 199.224000,86.400000 L 200.340000,108.000000 L 201.456000,86.400000 L 202.572000,108.000000 L 203.688000,129.600000 L 204.804000,151.200000 L 205.920000,172.800000 L 207.036000,194.400000 L 208.152000,216.000000 L 209.268000,237.600000 L 210.384000,259.200000 L 211.500000,280.800000 L 212.616000,302.400000 L 213.732000,324.000000 L 214.848000,302.400000 L 215.964000,324.000000 L 217.080000,345.600000 L 218.196000,367.200000 L 219.312000,388.800000 L 220.428000,388.800000 L 221.544000,367.200000 L 222.660000,345.600000 L 223.776000,324.000000 L 224.892000,345.600000 L 226.008000,367.200000 L 227.124000,388.800000 L 228.240000,388.800000 L 229.356000,367.200000 L 230.472000,345.600000 L 231.588000,324.000000 L 232.704000,345.600000 L 233.820000,367.200000 L 234.936000,388.800000 L 236.052000,367.200000 L 237.168000,345.600000 L 238.284000,324.000000 L 239.400000,345.600000 L 240.516000,367.200000 L 241.632000,388.800000 L 242.748000,388.800000 L 243.864000,367.200000 L 244.980000,345.600000 L 246.096000,367.200000 L 247.212000,388.800000 L 248.328000,367.200000 L 249.444000,345.600000 L 250.560000,324.000000 L 251.676000,345.600000 L 252.792000,367.200000 L 253.908000,388.800000 L 255.024000,388.800000 L 256.140000,388.800000 L 257.256000,367.200000 L 258.372000,388.800000 L 259.488000,388.800000 L 260.604000,367.200000 L 261.720000,345.600000 L 262.836000,324.000000 L 263.952000,302.400000 L 265.068000,280.800000 L 266.184000,259.200000 L 267.300000,280.800000 L 268.416000,302.400000 L 269.532000,280.800000 L 270.648000,259.200000 L 271.764000,237.600000 L 272.880000,216.000000 L 273.996000,194.400000 L 275.112000,172.800000 L 276.228000,194.400000 L 277.344000,216.000000 L 278.460000,237.600000 L 279.576000,259.200000 L 280.692000,280.800000 L 281.808000,302.400000 L 282.924000,324.000000 L 284.040000,345.600000 L 285.156000,324.000000 L 286.272000,302.400000 L 287.388000,324.000000 L 288.504000,345.600000 L 289.620000,324.000000 L 290.736000,345.600000 L 291.852000,367.200000 L 292.968000,388.800000 L 294.084000,367.200000 L 295.200000,388.800000 L 296.316000,367.200000 L 297.432000,345.600000 L 298.548000,367.200000 L 299.664000,345.600000 L 300.780000,367.200000 L 301.896000,345.600000 L 303.012000,324.000000 L 304.128000,345.600000 L 305.244000,324.000000 L 306.360000,302.400000 L 307.476000,324.000000 L 308.592000,302.400000 L 309.708000,280.800000 L 310.824000,302.400000 L 311.940000,280.800000 L 313.056000,259.200000 L 314.172000,280.800000 L 315.288000,302.400000 L 316.404000,324.000000 L 317.520000,302.400000 L 318.636000,280.800000 L 319.752000,302.400000 L 320.868000,280.800000 L 321.984000,259.200000 L 323.100000,280.800000 L 324.216000,259.200000 L 325.332000,280.800000 L 326.448000,302.400000 L 327.564000,280.800000 L 328.680000,302.400000 L 329.796000,280.800000 L 330.912000,302.400000 L 332.028000,280.800000 L 333.144000,259.200000 L 334.260000,280.800000 L 335.376000,259.200000 L 336.492000,280.800000 L 337.608000,259.200000 L 338.724000,237.600000 L 339.840000,216.000000 L 340.956000,237.600000 L 342.072000,259.200000 L 343.188000,280.800000 L 344.304000,302.400000 L 345.420000,324.000000 L 346.536000,302.400000 L 347.652000,280.800000 L 348.768000,259.200000 L 349.884000,280.800000 L 351.000000,259.200000 L 352.116000,237.600000 L 353.232000,259.200000 L 354.348000,280.800000 L 355.464000,259.200000 L 356.580000,237.600000 L 357.696000,216.000000 L 358.812000,194.400000 L 359.928000,172.800000 L 361.044000,151.200000 L 362.160000,129.600000 L 363.276000,108.000000 L 364.392000,86.400000 L 365.508000,108.000000 L 366.624000,86.400000 L 367.740000,64.800000 L 368.856000,43.200000 L 369.972000,64.800000 L 371.088000,86.400000 L 372.204000,108.000000 L 373.320000,86.400000 L 374.436000,64.800000 L 375.552000,86.400000 L 376.668000,64.800000 L 377.784000,86.400000 L 378.900000,64.800000 L 380.016000,86.400000 L 381.132000,108.000000 L 382.248000,86.400000 L 383.364000,64.800000 L 384.480000,43.200000 L 385.596000,64.800000 L 386.712000,86.400000 L 387.828000,64.800000 L 388.944000,86.400000 L 390.060000,108.000000 L 391.176000,86.400000 L 392.292000,108.000000 L 393.408000,129.600000 L 394.524000,151.200000 L 395.640000,172.800000 L 396.756000,194.400000 L 397.872000,216.000000 L 398.988000,237.600000 L 400.104000,259.200000 L 401.220000,280.800000 L 402.336000,259.200000 L 403.452000,237.600000 L 404.568000,216.000000 L 405.684000,194.400000 L 406.800000,172.800000 L 407.916000,151.200000 L 409.032000,172.800000 L 410.148000,194.400000 L 411.264000,216.000000 L 412.380000,237.600000 L 413.496000,259.200000 L 414.612000,280.800000 L 415.728000,259.200000 L 416.844000,237.600000 L 417.960000,216.000000 L 419.076000,194.400000 L 420.192000,172.800000 L 421.308000,151.200000 L 422.424000,129.600000 L 423.540000,151.200000 L 424.656000,172.800000 L 425.772000,194.400000 L 426.888000,216.000000 L 428.004000,237.600000 L 429.120000,259.200000 L 430.236000,280.800000 L 431.352000,302.400000 L 432.468000,280.800000 L 433.584000,259.200000 L 434.700000,237.600000 L 435.816000,259.200000 L 436.932000,280.800000 L 438.048000,302.400000 L 439.164000,280.800000 L 440.280000,302.400000 L 441.396000,324.000000 L 442.512000,302.400000 L 443.628000,324.000000 L 444.744000,345.600000 L 445.860000,324.000000 L 446.976000,345.600000 L 448.092000,367.200000 L 449.208000,345.600000 L 450.324000,367.200000 L 451.440000,388.800000 L 452.556000,388.800000 L 453.672000,388.800000 L 454.788000,367.200000 L 455.904000,388.800000 L 457.020000,388.800000 L 458.136000,388.800000 L 459.252000,388.800000 L 460.368000,367.200000 L 461.484000,388.800000 L 462.600000,388.800000 L 463.716000,367.200000 L 464.832000,388.800000 L 465.948000,388.800000 L 467.064000,388.800000 L 468.180000,367.200000 L 469.296000,345.600000 L 470.412000,324.000000 L 471.528000,302.400000 L 472.644000,324.000000 L 473.760000,345.600000 L 474.876000,367.200000 L 475.992000,345.600000 L 477.108000,324.000000 L 478.224000,302.400000 L 479.340000,280.800000 L 480.456000,259.200000 L 481.572000,280.800000 L 482.688000,302.400000 L 483.804000,280.800000 L 484.920000,302.400000 L 486.036000,324.000000 L 487.152000,302.400000 L 488.268000,324.000000 L 489.384000,345.600000 L 490.500000,367.200000 L 491.616000,345.600000 L 492.732000,367.200000 L 493.848000,388.800000 L 494.964000,367.200000 L 496.080000,345.600000 L 497.196000,367.200000 L 498.312000,388.800000 L 499.428000,388.800000 L 500.544000,367.200000 L 501.660000,388.800000 L 502.776000,367.200000 L 503.892000,388.800000 L 505.008000,367.200000 L 506.124000,345.600000 L 507.240000,324.000000 L 508.356000,302.400000 L 509.472000,280.800000 L 510.588000,259.200000 L 511.704000,237.600000 L 512.820000,259.200000 L 513.936000,280.800000 L 515.052000,259.200000 L 516.168000,237.600000 L 517.284000,259.200000 L 518.400000,280.800000 "   />
<path         
style="stroke: #00bfbf;  stroke-width: 0.500000;  stroke-linejoin: miter;  stroke-linecap: square;   opacity: 1.000000;  fill: none;   clip-path:url(#-1250928610);  "
 d="M 72.000000,172.800000 L 73.116000,194.400000 L 74.232000,216.000000 L 75.348000,237.600000 L 76.464000,259.200000 L 77.580000,237.600000 L 78.696000,259.200000 L 79.812000,280.800000 L 80.928000,259.200000 L 82.044000,280.800000 L 83.160000,302.400000 L 84.276000,324.000000 L 85.392000,345.600000 L 86.508000,367.200000 L 87.624000,345.600000 L 88.740000,324.000000 L 89.856000,302.400000 L 90.972000,280.800000 L 92.088000,259.200000 L 93.204000,280.800000 L 94.320000,259.200000 L 95.436000,280.800000 L 96.552000,259.200000 L 97.668000,280.800000 L 98.784000,259.200000 L 99.900000,280.800000 L 101.016000,259.200000 L 102.132000,280.800000 L 103.248000,302.400000 L 104.364000,280.800000 L 105.480000,259.200000 L 106.596000,237.600000 L 107.712000,259.200000 L 108.828000,237.600000 L 109.944000,259.200000 L 111.060000,237.600000 L 112.176000,259.200000 L 113.292000,237.600000 L 114.408000,259.200000 L 115.524000,237.600000 L 116.640000,259.200000 L 117.756000,280.800000 L 118.872000,259.200000 L 119.988000,237.600000 L 121.104000,259.200000 L 122.220000,280.800000 L 123.336000,259.200000 L 124.452000,280.800000 L 125.568000,259.200000 L 126.684000,237.600000 L 127.800000,259.200000 L 128.916000,237.600000 L 130.032000,259.200000 L 131.148000,280.800000 L 132.264000,259.200000 L 133.380000,237.600000 L 134.496000,259.200000 L 135.612000,237.600000 L 136.728000,259.200000 L 137.844000,280.800000 L 138.960000,259.200000 L 140.076000,280.800000 L 141.192000,259.200000 L 142.308000,280.800000 L 143.424000,259.200000 L 144.540000,280.800000 L 145.656000,302.400000 L 146.772000,280.800000 L 147.888000,259.200000 L 149.004000,280.800000 L 150.120000,259.200000 L 151.236000,280.800000 L 152.352000,302.400000 L 153.468000,324.000000 L 154.584000,345.600000 L 155.700000,324.000000 L 156.816000,302.400000 L 157.932000,280.800000 L 159.048000,302.400000 L 160.164000,280.800000 L 161.280000,302.400000 L 162.396000,324.000000 L 163.512000,302.400000 L 164.628000,324.000000 L 165.744000,302.400000 L 166.860000,280.800000 L 167.976000,302.400000 L 169.092000,324.000000 L 170.208000,345.600000 L 171.324000,324.000000 L 172.440000,302.400000 L 173.556000,280.800000 L 174.672000,259.200000 L 175.788000,237.600000 L 176.904000,259.200000 L 178.020000,280.800000 L 179.136000,259.200000 L 180.252000,237.600000 L 181.368000,259.200000 L 182.484000,237.600000 L 183.600000,259.200000 L 184.716000,280.800000 L 185.832000,259.200000 L 186.948000,280.800000 L 188.064000,259.200000 L 189.180000,237.600000 L 190.296000,259.200000 L 191.412000,237.600000 L 192.528000,259.200000 L 193.644000,280.800000 L 194.760000,259.200000 L 195.876000,237.600000 L 196.992000,259.200000 L 198.108000,237.600000 L 199.224000,259.200000 L 200.340000,280.800000 L 201.456000,302.400000 L 202.572000,324.000000 L 203.688000,302.400000 L 204.804000,280.800000 L 205.920000,259.200000 L 207.036000,237.600000 L 208.152000,259.200000 L 209.268000,237.600000 L 210.384000,259.200000 L 211.500000,280.800000 L 212.616000,302.400000 L 213.732000,324.000000 L 214.848000,345.600000 L 215.964000,367.200000 L 217.080000,388.800000 L 218.196000,367.200000 L 219.312000,388.800000 L 220.428000,388.800000 L 221.544000,367.200000 L 222.660000,345.600000 L 223.776000,367.200000 L 224.892000,345.600000 L 226.008000,367.200000 L 227.124000,388.800000 L 228.240000,388.800000 L 229.356000,388.800000 L 230.472000,388.800000 L 231.588000,388.800000 L 232.704000,388.800000 L 233.820000,388.800000 L 234.936000,388.800000 L 236.052000,367.200000 L 237.168000,345.600000 L 238.284000,324.000000 L 239.400000,345.600000 L 240.516000,367.200000 L 241.632000,388.800000 L 242.748000,388.800000 L 243.864000,367.200000 L 244.980000,388.800000 L 246.096000,367.200000 L 247.212000,388.800000 L 248.328000,367.200000 L 249.444000,388.800000 L 250.560000,388.800000 L 251.676000,388.800000 L 252.792000,367.200000 L 253.908000,388.800000 L 255.024000,388.800000 L 256.140000,388.800000 L 257.256000,367.200000 L 258.372000,388.800000 L 259.488000,388.800000 L 260.604000,367.200000 L 261.720000,345.600000 L 262.836000,324.000000 L 263.952000,302.400000 L 265.068000,280.800000 L 266.184000,259.200000 L 267.300000,280.800000 L 268.416000,302.400000 L 269.532000,280.800000 L 270.648000,259.200000 L 271.764000,280.800000 L 272.880000,259.200000 L 273.996000,237.600000 L 275.112000,259.200000 L 276.228000,280.800000 L 277.344000,259.200000 L 278.460000,237.600000 L 279.576000,259.200000 L 280.692000,280.800000 L 281.808000,302.400000 L 282.924000,324.000000 L 284.040000,345.600000 L 285.156000,324.000000 L 286.272000,345.600000 L 287.388000,367.200000 L 288.504000,345.600000 L 289.620000,367.200000 L 290.736000,345.600000 L 291.852000,367.200000 L 292.968000,388.800000 L 294.084000,388.800000 L 295.200000,388.800000 L 296.316000,367.200000 L 297.432000,388.800000 L 298.548000,367.200000 L 299.664000,388.800000 L 300.780000,367.200000 L 301.896000,345.600000 L 303.012000,324.000000 L 304.128000,345.600000 L 305.244000,324.000000 L 306.360000,345.600000 L 307.476000,324.000000 L 308.592000,302.400000 L 309.708000,280.800000 L 310.824000,302.400000 L 311.940000,280.800000 L 313.056000,302.400000 L 314.172000,280.800000 L 315.288000,302.400000 L 316.404000,324.000000 L 317.520000,345.600000 L 318.636000,324.000000 L 319.752000,302.400000 L 320.868000,280.800000 L 321.984000,259.200000 L 323.100000,280.800000 L 324.216000,302.400000 L 325.332000,280.800000 L 326.448000,302.400000 L 327.564000,324.000000 L 328.680000,302.400000 L 329.796000,324.000000 L 330.912000,302.400000 L 332.028000,280.800000 L 333.144000,259.200000 L 334.260000,280.800000 L 335.376000,302.400000 L 336.492000,280.800000 L 337.608000,302.400000 L 338.724000,324.000000 L 339.840000,302.400000 L 340.956000,280.800000 L 342.072000,259.200000 L 343.188000,280.800000 L 344.304000,302.400000 L 345.420000,324.000000 L 346.536000,345.600000 L 347.652000,324.000000 L 348.768000,302.400000 L 349.884000,280.800000 L 351.000000,302.400000 L 352.116000,280.800000 L 353.232000,259.200000 L 354.348000,280.800000 L 355.464000,259.200000 L 356.580000,237.600000 L 357.696000,259.200000 L 358.812000,280.800000 L 359.928000,259.200000 L 361.044000,237.600000 L 362.160000,259.200000 L 363.276000,237.600000 L 364.392000,259.200000 L 365.508000,280.800000 L 366.624000,259.200000 L 367.740000,237.600000 L 368.856000,259.200000 L 369.972000,237.600000 L 371.088000,259.200000 L 372.204000,280.800000 L 373.320000,259.200000 L 374.436000,237.600000 L 375.552000,259.200000 L 376.668000,237.600000 L 377.784000,259.200000 L 378.900000,237.600000 L 380.016000,259.200000 L 381.132000,280.800000 L 382.248000,259.200000 L 383.364000,237.600000 L 384.480000,259.200000 L 385.596000,237.600000 L 386.712000,259.200000 L 387.828000,237.600000 L 388.944000,259.200000 L 390.060000,280.800000 L 391.176000,259.200000 L 392.292000,237.600000 L 393.408000,259.200000 L 394.524000,280.800000 L 395.640000,259.200000 L 396.756000,237.600000 L 397.872000,259.200000 L 398.988000,280.800000 L 400.104000,259.200000 L 401.220000,280.800000 L 402.336000,259.200000 L 403.452000,280.800000 L 404.568000,259.200000 L 405.684000,237.600000 L 406.800000,259.200000 L 407.916000,237.600000 L 409.032000,259.200000 L 410.148000,237.600000 L 411.264000,259.200000 L 412.380000,280.800000 L 413.496000,302.400000 L 414.612000,280.800000 L 415.728000,302.400000 L 416.844000,280.800000 L 417.960000,259.200000 L 419.076000,237.600000 L 420.192000,259.200000 L 421.308000,237.600000 L 422.424000,259.200000 L 423.540000,280.800000 L 424.656000,259.200000 L 425.772000,280.800000 L 426.888000,302.400000 L 428.004000,324.000000 L 429.120000,302.400000 L 430.236000,280.800000 L 431.352000,302.400000 L 432.468000,280.800000 L 433.584000,302.400000 L 434.700000,324.000000 L 435.816000,302.400000 L 436.932000,280.800000 L 438.048000,302.400000 L 439.164000,324.000000 L 440.280000,345.600000 L 441.396000,324.000000 L 442.512000,345.600000 L 443.628000,367.200000 L 444.744000,345.600000 L 445.860000,367.200000 L 446.976000,345.600000 L 448.092000,367.200000 L 449.208000,388.800000 L 450.324000,367.200000 L 451.440000,388.800000 L 452.556000,388.800000 L 453.672000,388.800000 L 454.788000,388.800000 L 455.904000,388.800000 L 457.020000,388.800000 L 458.136000,388.800000 L 459.252000,388.800000 L 460.368000,367.200000 L 461.484000,388.800000 L 462.600000,388.800000 L 463.716000,367.200000 L 464.832000,388.800000 L 465.948000,388.800000 L 467.064000,388.800000 L 468.180000,367.200000 L 469.296000,388.800000 L 470.412000,388.800000 L 471.528000,388.800000 L 472.644000,388.800000 L 473.760000,388.800000 L 474.876000,367.200000 L 475.992000,345.600000 L 477.108000,324.000000 L 478.224000,302.400000 L 479.340000,324.000000 L 480.456000,345.600000 L 481.572000,324.000000 L 482.688000,302.400000 L 483.804000,280.800000 L 484.920000,302.400000 L 486.036000,324.000000 L 487.152000,302.400000 L 488.268000,324.000000 L 489.384000,345.600000 L 490.500000,367.200000 L 491.616000,388.800000 L 492.732000,388.800000 L 493.848000,388.800000 L 494.964000,388.800000 L 496.080000,388.800000 L 497.196000,388.800000 L 498.312000,388.800000 L 499.428000,388.800000 L 500.544000,367.200000 L 501.660000,388.800000 L 502.776000,388.800000 L 503.892000,388.800000 L 505.008000,367.200000 L 506.124000,345.600000 L 507.240000,367.200000 L 508.356000,388.800000 L 509.472000,367.200000 L 510.588000,345.600000 L 511.704000,324.000000 L 512.820000,302.400000 L 513.936000,280.800000 L 515.052000,259.200000 L 516.168000,280.800000 L 517.284000,259.200000 L 518.400000,280.800000 "   />
<path         
style="stroke: #000000;  stroke-width: 0.500000;  stroke-linejoin: miter;  stroke-linecap: square;   opacity: 1.000000;  fill: none;   clip-path:url(#-1250928610);  "
 d="M 72.000000,172.800000 L 73.116000,172.800000 L 74.232000,172.800000 L 75.348000,172.800000 L 76.464000,172.800000 L 77.580000,151.200000 L 78.696000,172.800000 L 79.812000,194.400000 L 80.928000,172.800000 L 82.044000,194.400000 L 83.160000,194.400000 L 84.276000,216.000000 L 85.392000,216.000000 L 86.508000,237.600000 L 87.624000,216.000000 L 88.740000,216.000000 L 89.856000,194.400000 L 90.972000,194.400000 L 92.088000,172.800000 L 93.204000,194.400000 L 94.320000,172.800000 L 95.436000,194.400000 L 96.552000,172.800000 L 97.668000,194.400000 L 98.784000,172.800000 L 99.900000,194.400000 L 101.016000,172.800000 L 102.132000,194.400000 L 103.248000,194.400000 L 104.364000,194.400000 L 105.480000,172.800000 L 106.596000,151.200000 L 107.712000,172.800000 L 108.828000,151.200000 L 109.944000,172.800000 L 111.060000,151.200000 L 112.176000,172.800000 L 113.292000,151.200000 L 114.408000,172.800000 L 115.524000,151.200000 L 116.640000,172.800000 L 117.756000,194.400000 L 118.872000,172.800000 L 119.988000,151.200000 L 121.104000,172.800000 L 122.220000,194.400000 L 123.336000,172.800000 L 124.452000,194.400000 L 125.568000,172.800000 L 126.684000,151.200000 L 127.800000,151.200000 L 128.916000,151.200000 L 130.032000,172.800000 L 131.148000,194.400000 L 132.264000,194.400000 L 133.380000,194.400000 L 134.496000,216.000000 L 135.612000,216.000000 L 136.728000,237.600000 L 137.844000,259.200000 L 138.960000,259.200000 L 140.076000,280.800000 L 141.192000,259.200000 L 142.308000,280.800000 L 143.424000,259.200000 L 144.540000,280.800000 L 145.656000,302.400000 L 146.772000,280.800000 L 147.888000,259.200000 L 149.004000,280.800000 L 150.120000,259.200000 L 151.236000,259.200000 L 152.352000,259.200000 L 153.468000,259.200000 L 154.584000,280.800000 L 155.700000,280.800000 L 156.816000,280.800000 L 157.932000,280.800000 L 159.048000,280.800000 L 160.164000,280.800000 L 161.280000,280.800000 L 162.396000,302.400000 L 163.512000,302.400000 L 164.628000,302.400000 L 165.744000,280.800000 L 166.860000,280.800000 L 167.976000,280.800000 L 169.092000,280.800000 L 170.208000,302.400000 L 171.324000,302.400000 L 172.440000,302.400000 L 173.556000,280.800000 L 174.672000,259.200000 L 175.788000,237.600000 L 176.904000,237.600000 L 178.020000,237.600000 L 179.136000,216.000000 L 180.252000,194.400000 L 181.368000,194.400000 L 182.484000,172.800000 L 183.600000,172.800000 L 184.716000,194.400000 L 185.832000,172.800000 L 186.948000,194.400000 L 188.064000,172.800000 L 189.180000,151.200000 L 190.296000,172.800000 L 191.412000,151.200000 L 192.528000,172.800000 L 193.644000,194.400000 L 194.760000,172.800000 L 195.876000,151.200000 L 196.992000,151.200000 L 198.108000,151.200000 L 199.224000,172.800000 L 200.340000,194.400000 L 201.456000,194.400000 L 202.572000,216.000000 L 203.688000,216.000000 L 204.804000,216.000000 L 205.920000,216.000000 L 207.036000,216.000000 L 208.152000,237.600000 L 209.268000,237.600000 L 210.384000,259.200000 L 211.500000,280.800000 L 212.616000,302.400000 L 213.732000,324.000000 L 214.848000,324.000000 L 215.964000,345.600000 L 217.080000,367.200000 L 218.196000,367.200000 L 219.312000,388.800000 L 220.428000,388.800000 L 221.544000,367.200000 L 222.660000,345.600000 L 223.776000,345.600000 L 224.892000,345.600000 L 226.008000,367.200000 L 227.124000,388.800000 L 228.240000,388.800000 L 229.356000,388.800000 L 230.472000,367.200000 L 231.588000,367.200000 L 232.704000,367.200000 L 233.820000,388.800000 L 234.936000,388.800000 L 236.052000,367.200000 L 237.168000,345.600000 L 238.284000,324.000000 L 239.400000,345.600000 L 240.516000,367.200000 L 241.632000,388.800000 L 242.748000,388.800000 L 243.864000,367.200000 L 244.980000,367.200000 L 246.096000,367.200000 L 247.212000,388.800000 L 248.328000,367.200000 L 249.444000,367.200000 L 250.560000,367.200000 L 251.676000,367.200000 L 252.792000,367.200000 L 253.908000,388.800000 L 255.024000,388.800000 L 256.140000,388.800000 L 257.256000,367.200000 L 258.372000,388.800000 L 259.488000,388.800000 L 260.604000,367.200000 L 261.720000,345.600000 L 262.836000,324.000000 L 263.952000,302.400000 L 265.068000,280.800000 L 266.184000,259.200000 L 267.300000,280.800000 L 268.416000,302.400000 L 269.532000,280.800000 L 270.648000,259.200000 L 271.764000,259.200000 L 272.880000,237.600000 L 273.996000,216.000000 L 275.112000,216.000000 L 276.228000,237.600000 L 277.344000,237.600000 L 278.460000,237.600000 L 279.576000,259.200000 L 280.692000,280.800000 L 281.808000,302.400000 L 282.924000,324.000000 L 284.040000,345.600000 L 285.156000,324.000000 L 286.272000,324.000000 L 287.388000,345.600000 L 288.504000,345.600000 L 289.620000,345.600000 L 290.736000,345.600000 L 291.852000,367.200000 L 292.968000,388.800000 L 294.084000,388.800000 L 295.200000,388.800000 L 296.316000,367.200000 L 297.432000,367.200000 L 298.548000,367.200000 L 299.664000,367.200000 L 300.780000,367.200000 L 301.896000,345.600000 L 303.012000,324.000000 L 304.128000,345.600000 L 305.244000,324.000000 L 306.360000,324.000000 L 307.476000,324.000000 L 308.592000,302.400000 L 309.708000,280.800000 L 310.824000,302.400000 L 311.940000,280.800000 L 313.056000,280.800000 L 314.172000,280.800000 L 315.288000,302.400000 L 316.404000,324.000000 L 317.520000,324.000000 L 318.636000,302.400000 L 319.752000,302.400000 L 320.868000,280.800000 L 321.984000,259.200000 L 323.100000,280.800000 L 324.216000,280.800000 L 325.332000,280.800000 L 326.448000,302.400000 L 327.564000,302.400000 L 328.680000,302.400000 L 329.796000,302.400000 L 330.912000,302.400000 L 332.028000,280.800000 L 333.144000,259.200000 L 334.260000,280.800000 L 335.376000,280.800000 L 336.492000,280.800000 L 337.608000,280.800000 L 338.724000,280.800000 L 339.840000,259.200000 L 340.956000,259.200000 L 342.072000,259.200000 L 343.188000,280.800000 L 344.304000,302.400000 L 345.420000,324.000000 L 346.536000,324.000000 L 347.652000,302.400000 L 348.768000,280.800000 L 349.884000,280.800000 L 351.000000,280.800000 L 352.116000,259.200000 L 353.232000,259.200000 L 354.348000,280.800000 L 355.464000,259.200000 L 356.580000,237.600000 L 357.696000,237.600000 L 358.812000,237.600000 L 359.928000,216.000000 L 361.044000,194.400000 L 362.160000,194.400000 L 363.276000,172.800000 L 364.392000,172.800000 L 365.508000,194.400000 L 366.624000,172.800000 L 367.740000,151.200000 L 368.856000,151.200000 L 369.972000,151.200000 L 371.088000,172.800000 L 372.204000,194.400000 L 373.320000,172.800000 L 374.436000,151.200000 L 375.552000,172.800000 L 376.668000,151.200000 L 377.784000,172.800000 L 378.900000,151.200000 L 380.016000,172.800000 L 381.132000,194.400000 L 382.248000,172.800000 L 383.364000,151.200000 L 384.480000,151.200000 L 385.596000,151.200000 L 386.712000,172.800000 L 387.828000,151.200000 L 388.944000,172.800000 L 390.060000,194.400000 L 391.176000,172.800000 L 392.292000,172.800000 L 393.408000,194.400000 L 394.524000,216.000000 L 395.640000,216.000000 L 396.756000,216.000000 L 397.872000,237.600000 L 398.988000,259.200000 L 400.104000,259.200000 L 401.220000,280.800000 L 402.336000,259.200000 L 403.452000,259.200000 L 404.568000,237.600000 L 405.684000,216.000000 L 406.800000,216.000000 L 407.916000,194.400000 L 409.032000,216.000000 L 410.148000,216.000000 L 411.264000,237.600000 L 412.380000,259.200000 L 413.496000,280.800000 L 414.612000,280.800000 L 415.728000,280.800000 L 416.844000,259.200000 L 417.960000,237.600000 L 419.076000,216.000000 L 420.192000,216.000000 L 421.308000,194.400000 L 422.424000,194.400000 L 423.540000,216.000000 L 424.656000,216.000000 L 425.772000,237.600000 L 426.888000,259.200000 L 428.004000,280.800000 L 429.120000,280.800000 L 430.236000,280.800000 L 431.352000,302.400000 L 432.468000,280.800000 L 433.584000,280.800000 L 434.700000,280.800000 L 435.816000,280.800000 L 436.932000,280.800000 L 438.048000,302.400000 L 439.164000,302.400000 L 440.280000,324.000000 L 441.396000,324.000000 L 442.512000,324.000000 L 443.628000,345.600000 L 444.744000,345.600000 L 445.860000,345.600000 L 446.976000,345.600000 L 448.092000,367.200000 L 449.208000,367.200000 L 450.324000,367.200000 L 451.440000,388.800000 L 452.556000,388.800000 L 453.672000,388.800000 L 454.788000,388.800000 L 455.904000,388.800000 L 457.020000,388.800000 L 458.136000,388.800000 L 459.252000,388.800000 L 460.368000,367.200000 L 461.484000,388.800000 L 462.600000,388.800000 L 463.716000,367.200000 L 464.832000,388.800000 L 465.948000,388.800000 L 467.064000,388.800000 L 468.180000,367.200000 L 469.296000,367.200000 L 470.412000,367.200000 L 471.528000,345.600000 L 472.644000,367.200000 L 473.760000,367.200000 L 474.876000,367.200000 L 475.992000,345.600000 L 477.108000,324.000000 L 478.224000,302.400000 L 479.340000,302.400000 L 480.456000,302.400000 L 481.572000,302.400000 L 482.688000,302.400000 L 483.804000,280.800000 L 484.920000,302.400000 L 486.036000,324.000000 L 487.152000,302.400000 L 488.268000,324.000000 L 489.384000,345.600000 L 490.500000,367.200000 L 491.616000,367.200000 L 492.732000,388.800000 L 493.848000,388.800000 L 494.964000,388.800000 L 496.080000,367.200000 L 497.196000,388.800000 L 498.312000,388.800000 L 499.428000,388.800000 L 500.544000,367.200000 L 501.660000,388.800000 L 502.776000,388.800000 L 503.892000,388.800000 L 505.008000,367.200000 L 506.124000,345.600000 L 507.240000,345.600000 L 508.356000,345.600000 L 509.472000,324.000000 L 510.588000,302.400000 L 511.704000,280.800000 L 512.820000,280.800000 L 513.936000,280.800000 L 515.052000,259.200000 L 516.168000,259.200000 L 517.284000,259.200000 L 518.400000,280.800000 "   />
<text style="font-size: 14.000000; font-family: Bitstream Vera Sans; font-style: Roman; fill: #000000;" x="46.676562" y="36.288000" >Optimal Path by Viterbi X_hat_{n,400} r.w. on A=[0,20], P(W=+-14)=1/2</text>
<g id="legend1">
<polygon         
style="stroke: #000000;  stroke-width: 1.000000;  stroke-linejoin: miter;  stroke-linecap: square;   opacity: 1.000000;  fill: #ffffff;   "
   points = "373.814400,123.665280 373.814400,50.112000 509.472000,50.112000 509.472000,123.665280"  />
<path         
style="stroke: #0000ff;  stroke-width: 0.500000;  stroke-linejoin: miter;  stroke-linecap: square;   opacity: 1.000000;  fill: none;   "
 d="M 386.919200,61.241440 L 394.359200,61.241440 L 401.799200,61.241440 L 409.239200,61.241440 "   />
<path         
style="stroke: #008000;  stroke-width: 0.500000;  stroke-linejoin: miter;  stroke-linecap: square;   opacity: 1.000000;  fill: none;   "
 d="M 386.919200,74.315040 L 394.359200,74.315040 L 401.799200,74.315040 L 409.239200,74.315040 "   />
<path         
style="stroke: #ff0000;  stroke-width: 0.500000;  stroke-linejoin: miter;  stroke-linecap: square;   opacity: 1.000000;  fill: none;   "
 d="M 386.919200,87.388640 L 394.359200,87.388640 L 401.799200,87.388640 L 409.239200,87.388640 "   />
<path         
style="stroke: #00bfbf;  stroke-width: 0.500000;  stroke-linejoin: miter;  stroke-linecap: square;   opacity: 1.000000;  fill: none;   "
 d="M 386.919200,100.462240 L 394.359200,100.462240 L 401.799200,100.462240 L 409.239200,100.462240 "   />
<path         
style="stroke: #000000;  stroke-width: 0.500000;  stroke-linejoin: miter;  stroke-linecap: square;   opacity: 1.000000;  fill: none;   "
 d="M 386.919200,113.035840 L 394.359200,113.035840 L 401.799200,113.035840 L 409.239200,113.035840 "   />
<text style="font-size: 10.000000; font-family: Bitstream Vera Sans; font-style: Roman; fill: #000000;" x="418.167200" y="66.241440" >Xn_list</text>
<text style="font-size: 10.000000; font-family: Bitstream Vera Sans; font-style: Roman; fill: #000000;" x="418.167200" y="79.315040" >Xn_hat_list</text>
<text style="font-size: 10.000000; font-family: Bitstream Vera Sans; font-style: Roman; fill: #000000;" x="418.167200" y="92.388640" >max_X_state_list</text>
<text style="font-size: 10.000000; font-family: Bitstream Vera Sans; font-style: Roman; fill: #000000;" x="418.167200" y="105.462240" >min_X_state_list</text>
<text style="font-size: 10.000000; font-family: Bitstream Vera Sans; font-style: Roman; fill: #000000;" x="418.167200" y="117.535840" >(max+min)/2</text>
</g>
</g>
</g>
</svg>