<?xml version="1.0" standalone="no"?>
<!DOCTYPE svg PUBLIC "-//W3C//DTD SVG 1.0//EN"
"http://www.w3.org/TR/2001/REC-SVG-20010904/DTD/svg10.dtd">
<!-- Created with matplotlib (http://matplotlib.sourceforge.net/) -->
<svg
   xmlns="http://www.w3.org/2000/svg"
   xmlns:xlink="http://www.w3.org/1999/xlink"
   version="1.0"
   x="0.0"
   y="0.0"
   width="576.000000"
   height="432.000000"   
   id="svg1">
<g id="figure1">
<polygon         
style="stroke: #ffffff;  stroke-width: 1.000000;  stroke-linejoin: miter;  stroke-linecap: square;   opacity: 1.000000;  fill: #ffffff;   "
   points = "0.000000,432.000000 0.000000,0.000000 576.000000,0.000000 576.000000,432.000000"  />
<g id="axes1">
<polygon         
style="stroke: #000000;  stroke-width: 1.000000;  stroke-linejoin: miter;  stroke-linecap: square;   opacity: 1.000000;  fill: #ffffff;   "
   points = "72.000000,388.800000 72.000000,43.200000 518.400000,43.200000 518.400000,388.800000"  />
<g id="matplotlib.axis1">
<g id="xtick1">
<text style="font-size: 12.000000; font-family: Bitstream Vera Sans; font-style: Roman; fill: #000000;" x="69.000000" y="401.800000" >0</text>
</g>
<g id="xtick2">
<path         
style="stroke: #000000;  stroke-width: 0.500000;  stroke-linejoin: miter;  stroke-linecap: butt;   opacity: 1.000000;  fill: none;   "
 d="M 127.800000,388.800000 L 127.800000,384.800000"   />
<path         
style="stroke: #000000;  stroke-width: 0.500000;  stroke-linejoin: miter;  stroke-linecap: butt;   opacity: 1.000000;  fill: none;   "
 d="M 127.800000,388.800000 L 127.800000,384.800000"   />
<path         
style="stroke: #000000;  stroke-width: 0.500000;  stroke-linejoin: miter;  stroke-linecap: butt;   opacity: 1.000000;  fill: none;   "
 d="M 127.800000,47.200000 L 127.800000,43.200000"   />
<path         
style="stroke: #000000;  stroke-width: 0.500000;  stroke-linejoin: miter;  stroke-linecap: butt;   opacity: 1.000000;  fill: none;   "
 d="M 127.800000,47.200000 L 127.800000,43.200000"   />
<text style="font-size: 12.000000; font-family: Bitstream Vera Sans; font-style: Roman; fill: #000000;" x="120.800000" y="401.800000" >50</text>
</g>
<g id="xtick3">
<path         
style="stroke: #000000;  stroke-width: 0.500000;  stroke-linejoin: miter;  stroke-linecap: butt;   opacity: 1.000000;  fill: none;   "
 d="M 183.600000,388.800000 L 183.600000,384.800000"   />
<path         
style="stroke: #000000;  stroke-width: 0.500000;  stroke-linejoin: miter;  stroke-linecap: butt;   opacity: 1.000000;  fill: none;   "
 d="M 183.600000,388.800000 L 183.600000,384.800000"   />
<path         
style="stroke: #000000;  stroke-width: 0.500000;  stroke-linejoin: miter;  stroke-linecap: butt;   opacity: 1.000000;  fill: none;   "
 d="M 183.600000,47.200000 L 183.600000,43.200000"   />
<path         
style="stroke: #000000;  stroke-width: 0.500000;  stroke-linejoin: miter;  stroke-linecap: butt;   opacity: 1.000000;  fill: none;   "
 d="M 183.600000,47.200000 L 183.600000,43.200000"   />
<text style="font-size: 12.000000; font-family: Bitstream Vera Sans; font-style: Roman; fill: #000000;" x="172.600000" y="401.800000" >100</text>
</g>
<g id="xtick4">
<path         
style="stroke: #000000;  stroke-width: 0.500000;  stroke-linejoin: miter;  stroke-linecap: butt;   opacity: 1.000000;  fill: none;   "
 d="M 239.400000,388.800000 L 239.400000,384.800000"   />
<path         
style="stroke: #000000;  stroke-width: 0.500000;  stroke-linejoin: miter;  stroke-linecap: butt;   opacity: 1.000000;  fill: none;   "
 d="M 239.400000,388.800000 L 239.400000,384.800000"   />
<path         
style="stroke: #000000;  stroke-width: 0.500000;  stroke-linejoin: miter;  stroke-linecap: butt;   opacity: 1.000000;  fill: none;   "
 d="M 239.400000,47.200000 L 239.400000,43.200000"   />
<path         
style="stroke: #000000;  stroke-width: 0.500000;  stroke-linejoin: miter;  stroke-linecap: butt;   opacity: 1.000000;  fill: none;   "
 d="M 239.400000,47.200000 L 239.400000,43.200000"   />
<text style="font-size: 12.000000; font-family: Bitstream Vera Sans; font-style: Roman; fill: #000000;" x="228.400000" y="401.800000" >150</text>
</g>
<g id="xtick5">
<path         
style="stroke: #000000;  stroke-width: 0.500000;  stroke-linejoin: miter;  stroke-linecap: butt;   opacity: 1.000000;  fill: none;   "
 d="M 295.200000,388.800000 L 295.200000,384.800000"   />
<path         
style="stroke: #000000;  stroke-width: 0.500000;  stroke-linejoin: miter;  stroke-linecap: butt;   opacity: 1.000000;  fill: none;   "
 d="M 295.200000,388.800000 L 295.200000,384.800000"   />
<path         
style="stroke: #000000;  stroke-width: 0.500000;  stroke-linejoin: miter;  stroke-linecap: butt;   opacity: 1.000000;  fill: none;   "
 d="M 295.200000,47.200000 L 295.200000,43.200000"   />
<path         
style="stroke: #000000;  stroke-width: 0.500000;  stroke-linejoin: miter;  stroke-linecap: butt;   opacity: 1.000000;  fill: none;   "
 d="M 295.200000,47.200000 L 295.200000,43.200000"   />
<text style="font-size: 12.000000; font-family: Bitstream Vera Sans; font-style: Roman; fill: #000000;" x="284.200000" y="401.800000" >200</text>
</g>
<g id="xtick6">
<path         
style="stroke: #000000;  stroke-width: 0.500000;  stroke-linejoin: miter;  stroke-linecap: butt;   opacity: 1.000000;  fill: none;   "
 d="M 351.000000,388.800000 L 351.000000,384.800000"   />
<path         
style="stroke: #000000;  stroke-width: 0.500000;  stroke-linejoin: miter;  stroke-linecap: butt;   opacity: 1.000000;  fill: none;   "
 d="M 351.000000,388.800000 L 351.000000,384.800000"   />
<path         
style="stroke: #000000;  stroke-width: 0.500000;  stroke-linejoin: miter;  stroke-linecap: butt;   opacity: 1.000000;  fill: none;   "
 d="M 351.000000,47.200000 L 351.000000,43.200000"   />
<path         
style="stroke: #000000;  stroke-width: 0.500000;  stroke-linejoin: miter;  stroke-linecap: butt;   opacity: 1.000000;  fill: none;   "
 d="M 351.000000,47.200000 L 351.000000,43.200000"   />
<text style="font-size: 12.000000; font-family: Bitstream Vera Sans; font-style: Roman; fill: #000000;" x="340.000000" y="401.800000" >250</text>
</g>
<g id="xtick7">
<path         
style="stroke: #000000;  stroke-width: 0.500000;  stroke-linejoin: miter;  stroke-linecap: butt;   opacity: 1.000000;  fill: none;   "
 d="M 406.800000,388.800000 L 406.800000,384.800000"   />
<path         
style="stroke: #000000;  stroke-width: 0.500000;  stroke-linejoin: miter;  stroke-linecap: butt;   opacity: 1.000000;  fill: none;   "
 d="M 406.800000,388.800000 L 406.800000,384.800000"   />
<path         
style="stroke: #000000;  stroke-width: 0.500000;  stroke-linejoin: miter;  stroke-linecap: butt;   opacity: 1.000000;  fill: none;   "
 d="M 406.800000,47.200000 L 406.800000,43.200000"   />
<path         
style="stroke: #000000;  stroke-width: 0.500000;  stroke-linejoin: miter;  stroke-linecap: butt;   opacity: 1.000000;  fill: none;   "
 d="M 406.800000,47.200000 L 406.800000,43.200000"   />
<text style="font-size: 12.000000; font-family: Bitstream Vera Sans; font-style: Roman; fill: #000000;" x="395.800000" y="401.800000" >300</text>
</g>
<g id="xtick8">
<path         
style="stroke: #000000;  stroke-width: 0.500000;  stroke-linejoin: miter;  stroke-linecap: butt;   opacity: 1.000000;  fill: none;   "
 d="M 462.600000,388.800000 L 462.600000,384.800000"   />
<path         
style="stroke: #000000;  stroke-width: 0.500000;  stroke-linejoin: miter;  stroke-linecap: butt;   opacity: 1.000000;  fill: none;   "
 d="M 462.600000,388.800000 L 462.600000,384.800000"   />
<path         
style="stroke: #000000;  stroke-width: 0.500000;  stroke-linejoin: miter;  stroke-linecap: butt;   opacity: 1.000000;  fill: none;   "
 d="M 462.600000,47.200000 L 462.600000,43.200000"   />
<path         
style="stroke: #000000;  stroke-width: 0.500000;  stroke-linejoin: miter;  stroke-linecap: butt;   opacity: 1.000000;  fill: none;   "
 d="M 462.600000,47.200000 L 462.600000,43.200000"   />
<text style="font-size: 12.000000; font-family: Bitstream Vera Sans; font-style: Roman; fill: #000000;" x="451.600000" y="401.800000" >350</text>
</g>
<g id="xtick9">
<text style="font-size: 12.000000; font-family: Bitstream Vera Sans; font-style: Roman; fill: #000000;" x="507.400000" y="401.800000" >400</text>
</g>
<text style="font-size: 12.000000; font-family: Bitstream Vera Sans; font-style: Roman; fill: #000000;" x="292.200000" y="413.800000" >n</text>
</g>
<g id="matplotlib.axis2">
<g id="ytick1">
<text style="font-size: 12.000000; font-family: Bitstream Vera Sans; font-style: Roman; fill: #000000;" x="62.000000" y="393.300000" >0</text>
</g>
<g id="ytick2">
<path         
style="stroke: #000000;  stroke-width: 0.500000;  stroke-linejoin: miter;  stroke-linecap: butt;   opacity: 1.000000;  fill: none;   "
 d="M 72.000000,302.400000 L 76.000000,302.400000"   />
<path         
style="stroke: #000000;  stroke-width: 0.500000;  stroke-linejoin: miter;  stroke-linecap: butt;   opacity: 1.000000;  fill: none;   "
 d="M 72.000000,302.400000 L 76.000000,302.400000"   />
<path         
style="stroke: #000000;  stroke-width: 0.500000;  stroke-linejoin: miter;  stroke-linecap: butt;   opacity: 1.000000;  fill: none;   "
 d="M 514.400000,302.400000 L 518.400000,302.400000"   />
<path         
style="stroke: #000000;  stroke-width: 0.500000;  stroke-linejoin: miter;  stroke-linecap: butt;   opacity: 1.000000;  fill: none;   "
 d="M 514.400000,302.400000 L 518.400000,302.400000"   />
<text style="font-size: 12.000000; font-family: Bitstream Vera Sans; font-style: Roman; fill: #000000;" x="62.000000" y="306.900000" >5</text>
</g>
<g id="ytick3">
<path         
style="stroke: #000000;  stroke-width: 0.500000;  stroke-linejoin: miter;  stroke-linecap: butt;   opacity: 1.000000;  fill: none;   "
 d="M 72.000000,216.000000 L 76.000000,216.000000"   />
<path         
style="stroke: #000000;  stroke-width: 0.500000;  stroke-linejoin: miter;  stroke-linecap: butt;   opacity: 1.000000;  fill: none;   "
 d="M 72.000000,216.000000 L 76.000000,216.000000"   />
<path         
style="stroke: #000000;  stroke-width: 0.500000;  stroke-linejoin: miter;  stroke-linecap: butt;   opacity: 1.000000;  fill: none;   "
 d="M 514.400000,216.000000 L 518.400000,216.000000"   />
<path         
style="stroke: #000000;  stroke-width: 0.500000;  stroke-linejoin: miter;  stroke-linecap: butt;   opacity: 1.000000;  fill: none;   "
 d="M 514.400000,216.000000 L 518.400000,216.000000"   />
<text style="font-size: 12.000000; font-family: Bitstream Vera Sans; font-style: Roman; fill: #000000;" x="54.000000" y="220.500000" >10</text>
</g>
<g id="ytick4">
<path         
style="stroke: #000000;  stroke-width: 0.500000;  stroke-linejoin: miter;  stroke-linecap: butt;   opacity: 1.000000;  fill: none;   "
 d="M 72.000000,129.600000 L 76.000000,129.600000"   />
<path         
style="stroke: #000000;  stroke-width: 0.500000;  stroke-linejoin: miter;  stroke-linecap: butt;   opacity: 1.000000;  fill: none;   "
 d="M 72.000000,129.600000 L 76.000000,129.600000"   />
<path         
style="stroke: #000000;  stroke-width: 0.500000;  stroke-linejoin: miter;  stroke-linecap: butt;   opacity: 1.000000;  fill: none;   "
 d="M 514.400000,129.600000 L 518.400000,129.600000"   />
<path         
style="stroke: #000000;  stroke-width: 0.500000;  stroke-linejoin: miter;  stroke-linecap: butt;   opacity: 1.000000;  fill: none;   "
 d="M 514.400000,129.600000 L 518.400000,129.600000"   />
<text style="font-size: 12.000000; font-family: Bitstream Vera Sans; font-style: Roman; fill: #000000;" x="54.000000" y="134.100000" >15</text>
</g>
<g id="ytick5">
<text style="font-size: 12.000000; font-family: Bitstream Vera Sans; font-style: Roman; fill: #000000;" x="54.000000" y="47.700000" >20</text>
</g>
</g>

<defs>
    <clipPath id="-1250928610">
    <rect x="72.000000" y="43.200000" width="446.400000" height="345.600000"
    style="stroke: gray; fill: none;"/>
    </clipPath>
</defs>

<path         
style="stroke: #0000ff;  stroke-width: 0.500000;  stroke-linejoin: miter;  stroke-linecap: square;   opacity: 1.000000;  fill: none;   clip-path:url(#-1250928610);  "
 d="M 72.000000,216.000000 L 73.116000,198.720000 L 74.232000,181.440000 L 75.348000,164.160000 L 76.464000,146.880000 L 77.580000,129.600000 L 78.696000,112.320000 L 79.812000,95.040000 L 80.928000,77.760000 L 82.044000,95.040000 L 83.160000,112.320000 L 84.276000,129.600000 L 85.392000,112.320000 L 86.508000,129.600000 L 87.624000,112.320000 L 88.740000,95.040000 L 89.856000,112.320000 L 90.972000,95.040000 L 92.088000,77.760000 L 93.204000,95.040000 L 94.320000,112.320000 L 95.436000,129.600000 L 96.552000,112.320000 L 97.668000,129.600000 L 98.784000,146.880000 L 99.900000,129.600000 L 101.016000,146.880000 L 102.132000,164.160000 L 103.248000,181.440000 L 104.364000,198.720000 L 105.480000,216.000000 L 106.596000,233.280000 L 107.712000,216.000000 L 108.828000,233.280000 L 109.944000,250.560000 L 111.060000,267.840000 L 112.176000,250.560000 L 113.292000,267.840000 L 114.408000,285.120000 L 115.524000,267.840000 L 116.640000,285.120000 L 117.756000,267.840000 L 118.872000,250.560000 L 119.988000,233.280000 L 121.104000,250.560000 L 122.220000,233.280000 L 123.336000,250.560000 L 124.452000,233.280000 L 125.568000,250.560000 L 126.684000,267.840000 L 127.800000,285.120000 L 128.916000,302.400000 L 130.032000,319.680000 L 131.148000,336.960000 L 132.264000,319.680000 L 133.380000,336.960000 L 134.496000,354.240000 L 135.612000,371.520000 L 136.728000,388.800000 L 137.844000,388.800000 L 138.960000,388.800000 L 140.076000,371.520000 L 141.192000,388.800000 L 142.308000,388.800000 L 143.424000,388.800000 L 144.540000,371.520000 L 145.656000,388.800000 L 146.772000,371.520000 L 147.888000,388.800000 L 149.004000,371.520000 L 150.120000,388.800000 L 151.236000,388.800000 L 152.352000,371.520000 L 153.468000,354.240000 L 154.584000,371.520000 L 155.700000,388.800000 L 156.816000,388.800000 L 157.932000,388.800000 L 159.048000,388.800000 L 160.164000,371.520000 L 161.280000,354.240000 L 162.396000,336.960000 L 163.512000,319.680000 L 164.628000,302.400000 L 165.744000,319.680000 L 166.860000,302.400000 L 167.976000,285.120000 L 169.092000,267.840000 L 170.208000,285.120000 L 171.324000,267.840000 L 172.440000,285.120000 L 173.556000,302.400000 L 174.672000,285.120000 L 175.788000,302.400000 L 176.904000,285.120000 L 178.020000,302.400000 L 179.136000,285.120000 L 180.252000,267.840000 L 181.368000,285.120000 L 182.484000,302.400000 L 183.600000,319.680000 L 184.716000,336.960000 L 185.832000,354.240000 L 186.948000,336.960000 L 188.064000,354.240000 L 189.180000,336.960000 L 190.296000,319.680000 L 191.412000,302.400000 L 192.528000,285.120000 L 193.644000,302.400000 L 194.760000,319.680000 L 195.876000,336.960000 L 196.992000,319.680000 L 198.108000,302.400000 L 199.224000,319.680000 L 200.340000,336.960000 L 201.456000,354.240000 L 202.572000,371.520000 L 203.688000,388.800000 L 204.804000,371.520000 L 205.920000,388.800000 L 207.036000,371.520000 L 208.152000,388.800000 L 209.268000,388.800000 L 210.384000,371.520000 L 211.500000,354.240000 L 212.616000,371.520000 L 213.732000,354.240000 L 214.848000,336.960000 L 215.964000,319.680000 L 217.080000,302.400000 L 218.196000,285.120000 L 219.312000,302.400000 L 220.428000,319.680000 L 221.544000,336.960000 L 222.660000,354.240000 L 223.776000,371.520000 L 224.892000,354.240000 L 226.008000,371.520000 L 227.124000,388.800000 L 228.240000,371.520000 L 229.356000,388.800000 L 230.472000,371.520000 L 231.588000,388.800000 L 232.704000,371.520000 L 233.820000,388.800000 L 234.936000,388.800000 L 236.052000,388.800000 L 237.168000,388.800000 L 238.284000,388.800000 L 239.400000,371.520000 L 240.516000,354.240000 L 241.632000,371.520000 L 242.748000,388.800000 L 243.864000,388.800000 L 244.980000,371.520000 L 246.096000,388.800000 L 247.212000,371.520000 L 248.328000,388.800000 L 249.444000,388.800000 L 250.560000,388.800000 L 251.676000,371.520000 L 252.792000,354.240000 L 253.908000,336.960000 L 255.024000,319.680000 L 256.140000,302.400000 L 257.256000,319.680000 L 258.372000,302.400000 L 259.488000,285.120000 L 260.604000,302.400000 L 261.720000,285.120000 L 262.836000,302.400000 L 263.952000,285.120000 L 265.068000,302.400000 L 266.184000,319.680000 L 267.300000,336.960000 L 268.416000,319.680000 L 269.532000,302.400000 L 270.648000,285.120000 L 271.764000,267.840000 L 272.880000,285.120000 L 273.996000,302.400000 L 275.112000,319.680000 L 276.228000,302.400000 L 277.344000,319.680000 L 278.460000,302.400000 L 279.576000,319.680000 L 280.692000,336.960000 L 281.808000,354.240000 L 282.924000,336.960000 L 284.040000,354.240000 L 285.156000,371.520000 L 286.272000,354.240000 L 287.388000,336.960000 L 288.504000,319.680000 L 289.620000,302.400000 L 290.736000,319.680000 L 291.852000,302.400000 L 292.968000,319.680000 L 294.084000,336.960000 L 295.200000,354.240000 L 296.316000,336.960000 L 297.432000,319.680000 L 298.548000,302.400000 L 299.664000,319.680000 L 300.780000,336.960000 L 301.896000,319.680000 L 303.012000,336.960000 L 304.128000,319.680000 L 305.244000,302.400000 L 306.360000,319.680000 L 307.476000,302.400000 L 308.592000,285.120000 L 309.708000,302.400000 L 310.824000,319.680000 L 311.940000,336.960000 L 313.056000,319.680000 L 314.172000,302.400000 L 315.288000,319.680000 L 316.404000,336.960000 L 317.520000,319.680000 L 318.636000,336.960000 L 319.752000,354.240000 L 320.868000,371.520000 L 321.984000,388.800000 L 323.100000,388.800000 L 324.216000,371.520000 L 325.332000,354.240000 L 326.448000,371.520000 L 327.564000,388.800000 L 328.680000,388.800000 L 329.796000,371.520000 L 330.912000,388.800000 L 332.028000,371.520000 L 333.144000,354.240000 L 334.260000,336.960000 L 335.376000,319.680000 L 336.492000,302.400000 L 337.608000,285.120000 L 338.724000,267.840000 L 339.840000,285.120000 L 340.956000,302.400000 L 342.072000,285.120000 L 343.188000,302.400000 L 344.304000,285.120000 L 345.420000,302.400000 L 346.536000,319.680000 L 347.652000,336.960000 L 348.768000,354.240000 L 349.884000,371.520000 L 351.000000,354.240000 L 352.116000,336.960000 L 353.232000,319.680000 L 354.348000,302.400000 L 355.464000,285.120000 L 356.580000,267.840000 L 357.696000,250.560000 L 358.812000,233.280000 L 359.928000,216.000000 L 361.044000,198.720000 L 362.160000,216.000000 L 363.276000,233.280000 L 364.392000,216.000000 L 365.508000,233.280000 L 366.624000,250.560000 L 367.740000,233.280000 L 368.856000,250.560000 L 369.972000,267.840000 L 371.088000,285.120000 L 372.204000,267.840000 L 373.320000,285.120000 L 374.436000,267.840000 L 375.552000,285.120000 L 376.668000,267.840000 L 377.784000,285.120000 L 378.900000,302.400000 L 380.016000,285.120000 L 381.132000,267.840000 L 382.248000,250.560000 L 383.364000,233.280000 L 384.480000,250.560000 L 385.596000,233.280000 L 386.712000,216.000000 L 387.828000,233.280000 L 388.944000,216.000000 L 390.060000,198.720000 L 391.176000,181.440000 L 392.292000,164.160000 L 393.408000,181.440000 L 394.524000,198.720000 L 395.640000,181.440000 L 396.756000,164.160000 L 397.872000,146.880000 L 398.988000,164.160000 L 400.104000,146.880000 L 401.220000,129.600000 L 402.336000,146.880000 L 403.452000,129.600000 L 404.568000,112.320000 L 405.684000,129.600000 L 406.800000,112.320000 L 407.916000,95.040000 L 409.032000,77.760000 L 410.148000,60.480000 L 411.264000,77.760000 L 412.380000,95.040000 L 413.496000,77.760000 L 414.612000,95.040000 L 415.728000,112.320000 L 416.844000,129.600000 L 417.960000,112.320000 L 419.076000,95.040000 L 420.192000,112.320000 L 421.308000,95.040000 L 422.424000,77.760000 L 423.540000,60.480000 L 424.656000,77.760000 L 425.772000,60.480000 L 426.888000,43.200000 L 428.004000,60.480000 L 429.120000,43.200000 L 430.236000,60.480000 L 431.352000,43.200000 L 432.468000,43.200000 L 433.584000,60.480000 L 434.700000,77.760000 L 435.816000,60.480000 L 436.932000,43.200000 L 438.048000,60.480000 L 439.164000,77.760000 L 440.280000,95.040000 L 441.396000,77.760000 L 442.512000,95.040000 L 443.628000,112.320000 L 444.744000,95.040000 L 445.860000,112.320000 L 446.976000,129.600000 L 448.092000,112.320000 L 449.208000,129.600000 L 450.324000,146.880000 L 451.440000,164.160000 L 452.556000,146.880000 L 453.672000,129.600000 L 454.788000,112.320000 L 455.904000,129.600000 L 457.020000,146.880000 L 458.136000,129.600000 L 459.252000,146.880000 L 460.368000,129.600000 L 461.484000,146.880000 L 462.600000,129.600000 L 463.716000,112.320000 L 464.832000,129.600000 L 465.948000,146.880000 L 467.064000,164.160000 L 468.180000,181.440000 L 469.296000,198.720000 L 470.412000,181.440000 L 471.528000,198.720000 L 472.644000,181.440000 L 473.760000,198.720000 L 474.876000,216.000000 L 475.992000,233.280000 L 477.108000,250.560000 L 478.224000,267.840000 L 479.340000,285.120000 L 480.456000,267.840000 L 481.572000,285.120000 L 482.688000,302.400000 L 483.804000,285.120000 L 484.920000,302.400000 L 486.036000,319.680000 L 487.152000,302.400000 L 488.268000,319.680000 L 489.384000,302.400000 L 490.500000,285.120000 L 491.616000,267.840000 L 492.732000,250.560000 L 493.848000,233.280000 L 494.964000,250.560000 L 496.080000,233.280000 L 497.196000,250.560000 L 498.312000,267.840000 L 499.428000,250.560000 L 500.544000,267.840000 L 501.660000,250.560000 L 502.776000,267.840000 L 503.892000,285.120000 L 505.008000,267.840000 L 506.124000,250.560000 L 507.240000,233.280000 L 508.356000,216.000000 L 509.472000,233.280000 L 510.588000,216.000000 L 511.704000,198.720000 L 512.820000,216.000000 L 513.936000,198.720000 L 515.052000,181.440000 L 516.168000,198.720000 L 517.284000,181.440000 L 518.400000,164.160000 "   />
<path         
style="stroke: #008000;  stroke-width: 0.500000;  stroke-linejoin: miter;  stroke-linecap: square;   opacity: 1.000000;  fill: none;   clip-path:url(#-1250928610);  "
 d="M 72.000000,216.000000 L 73.116000,198.720000 L 74.232000,181.440000 L 75.348000,164.160000 L 76.464000,146.880000 L 77.580000,129.600000 L 78.696000,112.320000 L 79.812000,95.040000 L 80.928000,77.760000 L 82.044000,95.040000 L 83.160000,112.320000 L 84.276000,129.600000 L 85.392000,112.320000 L 86.508000,129.600000 L 87.624000,119.232000 L 88.740000,108.864000 L 89.856000,98.496000 L 90.972000,88.128000 L 92.088000,77.760000 L 93.204000,95.040000 L 94.320000,100.800000 L 95.436000,106.560000 L 96.552000,112.320000 L 97.668000,124.662857 L 98.784000,137.005714 L 99.900000,149.348571 L 101.016000,161.691429 L 102.132000,174.034286 L 103.248000,186.377143 L 104.364000,198.720000 L 105.480000,216.000000 L 106.596000,233.280000 L 107.712000,239.040000 L 108.828000,244.800000 L 109.944000,250.560000 L 111.060000,250.560000 L 112.176000,250.560000 L 113.292000,267.840000 L 114.408000,264.384000 L 115.524000,260.928000 L 116.640000,257.472000 L 117.756000,254.016000 L 118.872000,250.560000 L 119.988000,250.560000 L 121.104000,250.560000 L 122.220000,256.320000 L 123.336000,262.080000 L 124.452000,267.840000 L 125.568000,273.600000 L 126.684000,279.360000 L 127.800000,285.120000 L 128.916000,302.400000 L 130.032000,319.680000 L 131.148000,328.320000 L 132.264000,336.960000 L 133.380000,345.600000 L 134.496000,354.240000 L 135.612000,371.520000 L 136.728000,388.800000 L 137.844000,380.160000 L 138.960000,388.800000 L 140.076000,371.520000 L 141.192000,377.280000 L 142.308000,377.280000 L 143.424000,388.800000 L 144.540000,371.520000 L 145.656000,388.800000 L 146.772000,371.520000 L 147.888000,388.800000 L 149.004000,371.520000 L 150.120000,388.800000 L 151.236000,388.800000 L 152.352000,371.520000 L 153.468000,354.240000 L 154.584000,371.520000 L 155.700000,388.800000 L 156.816000,388.800000 L 157.932000,380.160000 L 159.048000,388.800000 L 160.164000,371.520000 L 161.280000,354.240000 L 162.396000,336.960000 L 163.512000,319.680000 L 164.628000,302.400000 L 165.744000,319.680000 L 166.860000,302.400000 L 167.976000,293.760000 L 169.092000,285.120000 L 170.208000,276.480000 L 171.324000,267.840000 L 172.440000,276.480000 L 173.556000,285.120000 L 174.672000,293.760000 L 175.788000,302.400000 L 176.904000,285.120000 L 178.020000,285.120000 L 179.136000,285.120000 L 180.252000,290.880000 L 181.368000,296.640000 L 182.484000,302.400000 L 183.600000,319.680000 L 184.716000,336.960000 L 185.832000,354.240000 L 186.948000,336.960000 L 188.064000,334.491429 L 189.180000,332.022857 L 190.296000,329.554286 L 191.412000,327.085714 L 192.528000,324.617143 L 193.644000,322.148571 L 194.760000,319.680000 L 195.876000,336.960000 L 196.992000,319.680000 L 198.108000,319.680000 L 199.224000,319.680000 L 200.340000,336.960000 L 201.456000,354.240000 L 202.572000,371.520000 L 203.688000,371.520000 L 204.804000,371.520000 L 205.920000,371.520000 L 207.036000,371.520000 L 208.152000,388.800000 L 209.268000,388.800000 L 210.384000,371.520000 L 211.500000,365.760000 L 212.616000,360.000000 L 213.732000,354.240000 L 214.848000,336.960000 L 215.964000,319.680000 L 217.080000,302.400000 L 218.196000,308.160000 L 219.312000,313.920000 L 220.428000,319.680000 L 221.544000,336.960000 L 222.660000,354.240000 L 223.776000,362.880000 L 224.892000,371.520000 L 226.008000,375.840000 L 227.124000,388.800000 L 228.240000,380.160000 L 229.356000,380.160000 L 230.472000,380.160000 L 231.588000,388.800000 L 232.704000,383.040000 L 233.820000,383.040000 L 234.936000,388.800000 L 236.052000,388.800000 L 237.168000,388.800000 L 238.284000,388.800000 L 239.400000,377.280000 L 240.516000,377.280000 L 241.632000,371.520000 L 242.748000,388.800000 L 243.864000,388.800000 L 244.980000,371.520000 L 246.096000,388.800000 L 247.212000,383.040000 L 248.328000,383.040000 L 249.444000,388.800000 L 250.560000,388.800000 L 251.676000,371.520000 L 252.792000,354.240000 L 253.908000,336.960000 L 255.024000,319.680000 L 256.140000,302.400000 L 257.256000,302.400000 L 258.372000,302.400000 L 259.488000,302.400000 L 260.604000,302.400000 L 261.720000,302.400000 L 262.836000,302.400000 L 263.952000,285.120000 L 265.068000,302.400000 L 266.184000,319.680000 L 267.300000,336.960000 L 268.416000,319.680000 L 269.532000,302.400000 L 270.648000,285.120000 L 271.764000,267.840000 L 272.880000,285.120000 L 273.996000,302.400000 L 275.112000,308.160000 L 276.228000,313.920000 L 277.344000,319.680000 L 278.460000,302.400000 L 279.576000,312.768000 L 280.692000,323.136000 L 281.808000,333.504000 L 282.924000,343.872000 L 284.040000,354.240000 L 285.156000,371.520000 L 286.272000,354.240000 L 287.388000,336.960000 L 288.504000,333.504000 L 289.620000,330.048000 L 290.736000,326.592000 L 291.852000,323.136000 L 292.968000,319.680000 L 294.084000,319.680000 L 295.200000,319.680000 L 296.316000,319.680000 L 297.432000,319.680000 L 298.548000,302.400000 L 299.664000,319.680000 L 300.780000,336.960000 L 301.896000,336.960000 L 303.012000,336.960000 L 304.128000,319.680000 L 305.244000,302.400000 L 306.360000,319.680000 L 307.476000,313.920000 L 308.592000,308.160000 L 309.708000,302.400000 L 310.824000,319.680000 L 311.940000,336.960000 L 313.056000,319.680000 L 314.172000,319.680000 L 315.288000,319.680000 L 316.404000,319.680000 L 317.520000,319.680000 L 318.636000,336.960000 L 319.752000,354.240000 L 320.868000,371.520000 L 321.984000,388.800000 L 323.100000,388.800000 L 324.216000,371.520000 L 325.332000,354.240000 L 326.448000,371.520000 L 327.564000,383.040000 L 328.680000,383.040000 L 329.796000,380.160000 L 330.912000,377.280000 L 332.028000,365.760000 L 333.144000,354.240000 L 334.260000,336.960000 L 335.376000,319.680000 L 336.492000,302.400000 L 337.608000,298.944000 L 338.724000,295.488000 L 339.840000,292.032000 L 340.956000,288.576000 L 342.072000,285.120000 L 343.188000,295.488000 L 344.304000,305.856000 L 345.420000,316.224000 L 346.536000,326.592000 L 347.652000,336.960000 L 348.768000,354.240000 L 349.884000,343.872000 L 351.000000,333.504000 L 352.116000,323.136000 L 353.232000,312.768000 L 354.348000,302.400000 L 355.464000,285.120000 L 356.580000,267.840000 L 357.696000,250.560000 L 358.812000,233.280000 L 359.928000,216.000000 L 361.044000,198.720000 L 362.160000,216.000000 L 363.276000,233.280000 L 364.392000,216.000000 L 365.508000,233.280000 L 366.624000,250.560000 L 367.740000,256.320000 L 368.856000,262.080000 L 369.972000,267.840000 L 371.088000,267.840000 L 372.204000,267.840000 L 373.320000,285.120000 L 374.436000,267.840000 L 375.552000,276.480000 L 376.668000,285.120000 L 377.784000,293.760000 L 378.900000,302.400000 L 380.016000,285.120000 L 381.132000,267.840000 L 382.248000,250.560000 L 383.364000,233.280000 L 384.480000,250.560000 L 385.596000,233.280000 L 386.712000,216.000000 L 387.828000,233.280000 L 388.944000,216.000000 L 390.060000,198.720000 L 391.176000,181.440000 L 392.292000,164.160000 L 393.408000,181.440000 L 394.524000,198.720000 L 395.640000,181.440000 L 396.756000,164.160000 L 397.872000,146.880000 L 398.988000,146.880000 L 400.104000,146.880000 L 401.220000,146.880000 L 402.336000,146.880000 L 403.452000,129.600000 L 404.568000,112.320000 L 405.684000,129.600000 L 406.800000,112.320000 L 407.916000,95.040000 L 409.032000,77.760000 L 410.148000,60.480000 L 411.264000,77.760000 L 412.380000,77.760000 L 413.496000,77.760000 L 414.612000,95.040000 L 415.728000,112.320000 L 416.844000,129.600000 L 417.960000,120.960000 L 419.076000,112.320000 L 420.192000,103.680000 L 421.308000,95.040000 L 422.424000,86.400000 L 423.540000,78.377143 L 424.656000,69.120000 L 425.772000,60.480000 L 426.888000,43.200000 L 428.004000,54.720000 L 429.120000,54.720000 L 430.236000,60.480000 L 431.352000,43.200000 L 432.468000,47.520000 L 433.584000,51.840000 L 434.700000,51.840000 L 435.816000,60.480000 L 436.932000,60.480000 L 438.048000,60.480000 L 439.164000,66.240000 L 440.280000,72.000000 L 441.396000,77.760000 L 442.512000,95.040000 L 443.628000,95.040000 L 444.744000,95.040000 L 445.860000,112.320000 L 446.976000,122.688000 L 448.092000,133.056000 L 449.208000,143.424000 L 450.324000,153.792000 L 451.440000,164.160000 L 452.556000,146.880000 L 453.672000,129.600000 L 454.788000,112.320000 L 455.904000,129.600000 L 457.020000,146.880000 L 458.136000,129.600000 L 459.252000,146.880000 L 460.368000,129.600000 L 461.484000,135.360000 L 462.600000,141.120000 L 463.716000,146.880000 L 464.832000,152.640000 L 465.948000,158.400000 L 467.064000,164.160000 L 468.180000,172.800000 L 469.296000,181.440000 L 470.412000,190.080000 L 471.528000,198.720000 L 472.644000,198.720000 L 473.760000,198.720000 L 474.876000,216.000000 L 475.992000,233.280000 L 477.108000,244.800000 L 478.224000,256.320000 L 479.340000,267.840000 L 480.456000,279.360000 L 481.572000,290.880000 L 482.688000,302.400000 L 483.804000,302.400000 L 484.920000,302.400000 L 486.036000,319.680000 L 487.152000,319.680000 L 488.268000,319.680000 L 489.384000,302.400000 L 490.500000,285.120000 L 491.616000,267.840000 L 492.732000,250.560000 L 493.848000,233.280000 L 494.964000,233.280000 L 496.080000,233.280000 L 497.196000,250.560000 L 498.312000,256.320000 L 499.428000,262.080000 L 500.544000,267.840000 L 501.660000,250.560000 L 502.776000,267.840000 L 503.892000,267.840000 L 505.008000,267.840000 L 506.124000,259.200000 L 507.240000,250.560000 L 508.356000,241.920000 L 509.472000,233.280000 L 510.588000,216.000000 L 511.704000,198.720000 L 512.820000,216.000000 L 513.936000,198.720000 L 515.052000,190.080000 L 516.168000,181.440000 L 517.284000,172.800000 L 518.400000,164.160000 "   />
<path         
style="stroke: #ff0000;  stroke-width: 0.500000;  stroke-linejoin: miter;  stroke-linecap: square;   opacity: 1.000000;  fill: none;   clip-path:url(#-1250928610);  "
 d="M 72.000000,216.000000 L 73.116000,198.720000 L 74.232000,181.440000 L 75.348000,164.160000 L 76.464000,146.880000 L 77.580000,129.600000 L 78.696000,112.320000 L 79.812000,95.040000 L 80.928000,77.760000 L 82.044000,95.040000 L 83.160000,112.320000 L 84.276000,129.600000 L 85.392000,112.320000 L 86.508000,129.600000 L 87.624000,112.320000 L 88.740000,95.040000 L 89.856000,77.760000 L 90.972000,60.480000 L 92.088000,77.760000 L 93.204000,95.040000 L 94.320000,77.760000 L 95.436000,95.040000 L 96.552000,112.320000 L 97.668000,95.040000 L 98.784000,112.320000 L 99.900000,129.600000 L 101.016000,146.880000 L 102.132000,164.160000 L 103.248000,181.440000 L 104.364000,198.720000 L 105.480000,216.000000 L 106.596000,233.280000 L 107.712000,216.000000 L 108.828000,233.280000 L 109.944000,250.560000 L 111.060000,233.280000 L 112.176000,250.560000 L 113.292000,267.840000 L 114.408000,250.560000 L 115.524000,233.280000 L 116.640000,216.000000 L 117.756000,233.280000 L 118.872000,250.560000 L 119.988000,233.280000 L 121.104000,250.560000 L 122.220000,233.280000 L 123.336000,216.000000 L 124.452000,233.280000 L 125.568000,250.560000 L 126.684000,267.840000 L 127.800000,285.120000 L 128.916000,302.400000 L 130.032000,319.680000 L 131.148000,302.400000 L 132.264000,319.680000 L 133.380000,336.960000 L 134.496000,354.240000 L 135.612000,371.520000 L 136.728000,388.800000 L 137.844000,371.520000 L 138.960000,388.800000 L 140.076000,371.520000 L 141.192000,354.240000 L 142.308000,371.520000 L 143.424000,388.800000 L 144.540000,371.520000 L 145.656000,388.800000 L 146.772000,371.520000 L 147.888000,388.800000 L 149.004000,371.520000 L 150.120000,388.800000 L 151.236000,388.800000 L 152.352000,371.520000 L 153.468000,354.240000 L 154.584000,371.520000 L 155.700000,388.800000 L 156.816000,388.800000 L 157.932000,371.520000 L 159.048000,388.800000 L 160.164000,371.520000 L 161.280000,354.240000 L 162.396000,336.960000 L 163.512000,319.680000 L 164.628000,302.400000 L 165.744000,319.680000 L 166.860000,302.400000 L 167.976000,285.120000 L 169.092000,267.840000 L 170.208000,250.560000 L 171.324000,267.840000 L 172.440000,250.560000 L 173.556000,267.840000 L 174.672000,285.120000 L 175.788000,302.400000 L 176.904000,285.120000 L 178.020000,267.840000 L 179.136000,285.120000 L 180.252000,267.840000 L 181.368000,285.120000 L 182.484000,302.400000 L 183.600000,319.680000 L 184.716000,336.960000 L 185.832000,354.240000 L 186.948000,336.960000 L 188.064000,319.680000 L 189.180000,302.400000 L 190.296000,285.120000 L 191.412000,267.840000 L 192.528000,285.120000 L 193.644000,302.400000 L 194.760000,319.680000 L 195.876000,336.960000 L 196.992000,319.680000 L 198.108000,302.400000 L 199.224000,319.680000 L 200.340000,336.960000 L 201.456000,354.240000 L 202.572000,371.520000 L 203.688000,354.240000 L 204.804000,371.520000 L 205.920000,354.240000 L 207.036000,371.520000 L 208.152000,388.800000 L 209.268000,388.800000 L 210.384000,371.520000 L 211.500000,354.240000 L 212.616000,336.960000 L 213.732000,354.240000 L 214.848000,336.960000 L 215.964000,319.680000 L 217.080000,302.400000 L 218.196000,285.120000 L 219.312000,302.400000 L 220.428000,319.680000 L 221.544000,336.960000 L 222.660000,354.240000 L 223.776000,336.960000 L 224.892000,354.240000 L 226.008000,371.520000 L 227.124000,388.800000 L 228.240000,371.520000 L 229.356000,354.240000 L 230.472000,371.520000 L 231.588000,388.800000 L 232.704000,388.800000 L 233.820000,371.520000 L 234.936000,388.800000 L 236.052000,388.800000 L 237.168000,388.800000 L 238.284000,388.800000 L 239.400000,371.520000 L 240.516000,354.240000 L 241.632000,371.520000 L 242.748000,388.800000 L 243.864000,388.800000 L 244.980000,371.520000 L 246.096000,388.800000 L 247.212000,388.800000 L 248.328000,371.520000 L 249.444000,388.800000 L 250.560000,388.800000 L 251.676000,371.520000 L 252.792000,354.240000 L 253.908000,336.960000 L 255.024000,319.680000 L 256.140000,302.400000 L 257.256000,285.120000 L 258.372000,302.400000 L 259.488000,285.120000 L 260.604000,267.840000 L 261.720000,285.120000 L 262.836000,302.400000 L 263.952000,285.120000 L 265.068000,302.400000 L 266.184000,319.680000 L 267.300000,336.960000 L 268.416000,319.680000 L 269.532000,302.400000 L 270.648000,285.120000 L 271.764000,267.840000 L 272.880000,285.120000 L 273.996000,302.400000 L 275.112000,285.120000 L 276.228000,302.400000 L 277.344000,319.680000 L 278.460000,302.400000 L 279.576000,285.120000 L 280.692000,302.400000 L 281.808000,319.680000 L 282.924000,336.960000 L 284.040000,354.240000 L 285.156000,371.520000 L 286.272000,354.240000 L 287.388000,336.960000 L 288.504000,319.680000 L 289.620000,302.400000 L 290.736000,285.120000 L 291.852000,302.400000 L 292.968000,319.680000 L 294.084000,302.400000 L 295.200000,285.120000 L 296.316000,302.400000 L 297.432000,319.680000 L 298.548000,302.400000 L 299.664000,319.680000 L 300.780000,336.960000 L 301.896000,319.680000 L 303.012000,336.960000 L 304.128000,319.680000 L 305.244000,302.400000 L 306.360000,319.680000 L 307.476000,302.400000 L 308.592000,285.120000 L 309.708000,302.400000 L 310.824000,319.680000 L 311.940000,336.960000 L 313.056000,319.680000 L 314.172000,302.400000 L 315.288000,319.680000 L 316.404000,302.400000 L 317.520000,319.680000 L 318.636000,336.960000 L 319.752000,354.240000 L 320.868000,371.520000 L 321.984000,388.800000 L 323.100000,388.800000 L 324.216000,371.520000 L 325.332000,354.240000 L 326.448000,371.520000 L 327.564000,388.800000 L 328.680000,388.800000 L 329.796000,371.520000 L 330.912000,354.240000 L 332.028000,336.960000 L 333.144000,354.240000 L 334.260000,336.960000 L 335.376000,319.680000 L 336.492000,302.400000 L 337.608000,285.120000 L 338.724000,267.840000 L 339.840000,250.560000 L 340.956000,267.840000 L 342.072000,285.120000 L 343.188000,267.840000 L 344.304000,285.120000 L 345.420000,302.400000 L 346.536000,319.680000 L 347.652000,336.960000 L 348.768000,354.240000 L 349.884000,336.960000 L 351.000000,319.680000 L 352.116000,302.400000 L 353.232000,285.120000 L 354.348000,302.400000 L 355.464000,285.120000 L 356.580000,267.840000 L 357.696000,250.560000 L 358.812000,233.280000 L 359.928000,216.000000 L 361.044000,198.720000 L 362.160000,216.000000 L 363.276000,233.280000 L 364.392000,216.000000 L 365.508000,233.280000 L 366.624000,250.560000 L 367.740000,233.280000 L 368.856000,250.560000 L 369.972000,267.840000 L 371.088000,250.560000 L 372.204000,267.840000 L 373.320000,285.120000 L 374.436000,267.840000 L 375.552000,250.560000 L 376.668000,267.840000 L 377.784000,285.120000 L 378.900000,302.400000 L 380.016000,285.120000 L 381.132000,267.840000 L 382.248000,250.560000 L 383.364000,233.280000 L 384.480000,250.560000 L 385.596000,233.280000 L 386.712000,216.000000 L 387.828000,233.280000 L 388.944000,216.000000 L 390.060000,198.720000 L 391.176000,181.440000 L 392.292000,164.160000 L 393.408000,181.440000 L 394.524000,198.720000 L 395.640000,181.440000 L 396.756000,164.160000 L 397.872000,146.880000 L 398.988000,129.600000 L 400.104000,146.880000 L 401.220000,129.600000 L 402.336000,146.880000 L 403.452000,129.600000 L 404.568000,112.320000 L 405.684000,129.600000 L 406.800000,112.320000 L 407.916000,95.040000 L 409.032000,77.760000 L 410.148000,60.480000 L 411.264000,77.760000 L 412.380000,60.480000 L 413.496000,77.760000 L 414.612000,95.040000 L 415.728000,112.320000 L 416.844000,129.600000 L 417.960000,112.320000 L 419.076000,95.040000 L 420.192000,77.760000 L 421.308000,60.480000 L 422.424000,43.200000 L 423.540000,43.200000 L 424.656000,43.200000 L 425.772000,60.480000 L 426.888000,43.200000 L 428.004000,43.200000 L 429.120000,43.200000 L 430.236000,60.480000 L 431.352000,43.200000 L 432.468000,43.200000 L 433.584000,43.200000 L 434.700000,43.200000 L 435.816000,60.480000 L 436.932000,43.200000 L 438.048000,60.480000 L 439.164000,43.200000 L 440.280000,60.480000 L 441.396000,77.760000 L 442.512000,95.040000 L 443.628000,77.760000 L 444.744000,95.040000 L 445.860000,112.320000 L 446.976000,95.040000 L 448.092000,112.320000 L 449.208000,129.600000 L 450.324000,146.880000 L 451.440000,164.160000 L 452.556000,146.880000 L 453.672000,129.600000 L 454.788000,112.320000 L 455.904000,129.600000 L 457.020000,146.880000 L 458.136000,129.600000 L 459.252000,146.880000 L 460.368000,129.600000 L 461.484000,112.320000 L 462.600000,95.040000 L 463.716000,112.320000 L 464.832000,129.600000 L 465.948000,146.880000 L 467.064000,164.160000 L 468.180000,146.880000 L 469.296000,164.160000 L 470.412000,181.440000 L 471.528000,198.720000 L 472.644000,181.440000 L 473.760000,198.720000 L 474.876000,216.000000 L 475.992000,233.280000 L 477.108000,216.000000 L 478.224000,233.280000 L 479.340000,250.560000 L 480.456000,267.840000 L 481.572000,285.120000 L 482.688000,302.400000 L 483.804000,285.120000 L 484.920000,302.400000 L 486.036000,319.680000 L 487.152000,302.400000 L 488.268000,319.680000 L 489.384000,302.400000 L 490.500000,285.120000 L 491.616000,267.840000 L 492.732000,250.560000 L 493.848000,233.280000 L 494.964000,216.000000 L 496.080000,233.280000 L 497.196000,250.560000 L 498.312000,233.280000 L 499.428000,250.560000 L 500.544000,267.840000 L 501.660000,250.560000 L 502.776000,267.840000 L 503.892000,250.560000 L 505.008000,267.840000 L 506.124000,250.560000 L 507.240000,233.280000 L 508.356000,216.000000 L 509.472000,233.280000 L 510.588000,216.000000 L 511.704000,198.720000 L 512.820000,216.000000 L 513.936000,198.720000 L 515.052000,181.440000 L 516.168000,164.160000 L 517.284000,146.880000 L 518.400000,164.160000 "   />
<path         
style="stroke: #00bfbf;  stroke-width: 0.500000;  stroke-linejoin: miter;  stroke-linecap: square;   opacity: 1.000000;  fill: none;   clip-path:url(#-1250928610);  "
 d="M 72.000000,216.000000 L 73.116000,198.720000 L 74.232000,181.440000 L 75.348000,164.160000 L 76.464000,146.880000 L 77.580000,129.600000 L 78.696000,112.320000 L 79.812000,95.040000 L 80.928000,77.760000 L 82.044000,95.040000 L 83.160000,112.320000 L 84.276000,129.600000 L 85.392000,112.320000 L 86.508000,129.600000 L 87.624000,146.880000 L 88.740000,129.600000 L 89.856000,112.320000 L 90.972000,95.040000 L 92.088000,77.760000 L 93.204000,95.040000 L 94.320000,112.320000 L 95.436000,129.600000 L 96.552000,112.320000 L 97.668000,129.600000 L 98.784000,146.880000 L 99.900000,164.160000 L 101.016000,181.440000 L 102.132000,198.720000 L 103.248000,216.000000 L 104.364000,198.720000 L 105.480000,216.000000 L 106.596000,233.280000 L 107.712000,250.560000 L 108.828000,267.840000 L 109.944000,250.560000 L 111.060000,267.840000 L 112.176000,250.560000 L 113.292000,267.840000 L 114.408000,285.120000 L 115.524000,302.400000 L 116.640000,285.120000 L 117.756000,267.840000 L 118.872000,250.560000 L 119.988000,267.840000 L 121.104000,250.560000 L 122.220000,267.840000 L 123.336000,285.120000 L 124.452000,302.400000 L 125.568000,319.680000 L 126.684000,302.400000 L 127.800000,285.120000 L 128.916000,302.400000 L 130.032000,319.680000 L 131.148000,336.960000 L 132.264000,354.240000 L 133.380000,371.520000 L 134.496000,354.240000 L 135.612000,371.520000 L 136.728000,388.800000 L 137.844000,388.800000 L 138.960000,388.800000 L 140.076000,371.520000 L 141.192000,388.800000 L 142.308000,388.800000 L 143.424000,388.800000 L 144.540000,371.520000 L 145.656000,388.800000 L 146.772000,371.520000 L 147.888000,388.800000 L 149.004000,371.520000 L 150.120000,388.800000 L 151.236000,388.800000 L 152.352000,371.520000 L 153.468000,354.240000 L 154.584000,371.520000 L 155.700000,388.800000 L 156.816000,388.800000 L 157.932000,388.800000 L 159.048000,388.800000 L 160.164000,371.520000 L 161.280000,354.240000 L 162.396000,336.960000 L 163.512000,319.680000 L 164.628000,302.400000 L 165.744000,319.680000 L 166.860000,302.400000 L 167.976000,319.680000 L 169.092000,302.400000 L 170.208000,285.120000 L 171.324000,267.840000 L 172.440000,285.120000 L 173.556000,302.400000 L 174.672000,319.680000 L 175.788000,302.400000 L 176.904000,285.120000 L 178.020000,302.400000 L 179.136000,285.120000 L 180.252000,302.400000 L 181.368000,319.680000 L 182.484000,302.400000 L 183.600000,319.680000 L 184.716000,336.960000 L 185.832000,354.240000 L 186.948000,336.960000 L 188.064000,354.240000 L 189.180000,371.520000 L 190.296000,388.800000 L 191.412000,371.520000 L 192.528000,354.240000 L 193.644000,336.960000 L 194.760000,319.680000 L 195.876000,336.960000 L 196.992000,319.680000 L 198.108000,336.960000 L 199.224000,319.680000 L 200.340000,336.960000 L 201.456000,354.240000 L 202.572000,371.520000 L 203.688000,388.800000 L 204.804000,371.520000 L 205.920000,388.800000 L 207.036000,371.520000 L 208.152000,388.800000 L 209.268000,388.800000 L 210.384000,371.520000 L 211.500000,388.800000 L 212.616000,371.520000 L 213.732000,354.240000 L 214.848000,336.960000 L 215.964000,319.680000 L 217.080000,302.400000 L 218.196000,319.680000 L 219.312000,336.960000 L 220.428000,319.680000 L 221.544000,336.960000 L 222.660000,354.240000 L 223.776000,371.520000 L 224.892000,388.800000 L 226.008000,388.800000 L 227.124000,388.800000 L 228.240000,388.800000 L 229.356000,388.800000 L 230.472000,388.800000 L 231.588000,388.800000 L 232.704000,388.800000 L 233.820000,388.800000 L 234.936000,388.800000 L 236.052000,388.800000 L 237.168000,388.800000 L 238.284000,388.800000 L 239.400000,388.800000 L 240.516000,388.800000 L 241.632000,371.520000 L 242.748000,388.800000 L 243.864000,388.800000 L 244.980000,371.520000 L 246.096000,388.800000 L 247.212000,388.800000 L 248.328000,388.800000 L 249.444000,388.800000 L 250.560000,388.800000 L 251.676000,371.520000 L 252.792000,354.240000 L 253.908000,336.960000 L 255.024000,319.680000 L 256.140000,302.400000 L 257.256000,319.680000 L 258.372000,302.400000 L 259.488000,319.680000 L 260.604000,336.960000 L 261.720000,319.680000 L 262.836000,302.400000 L 263.952000,285.120000 L 265.068000,302.400000 L 266.184000,319.680000 L 267.300000,336.960000 L 268.416000,319.680000 L 269.532000,302.400000 L 270.648000,285.120000 L 271.764000,267.840000 L 272.880000,285.120000 L 273.996000,302.400000 L 275.112000,319.680000 L 276.228000,336.960000 L 277.344000,319.680000 L 278.460000,302.400000 L 279.576000,319.680000 L 280.692000,336.960000 L 281.808000,354.240000 L 282.924000,371.520000 L 284.040000,354.240000 L 285.156000,371.520000 L 286.272000,354.240000 L 287.388000,336.960000 L 288.504000,354.240000 L 289.620000,371.520000 L 290.736000,354.240000 L 291.852000,336.960000 L 292.968000,319.680000 L 294.084000,336.960000 L 295.200000,354.240000 L 296.316000,336.960000 L 297.432000,319.680000 L 298.548000,302.400000 L 299.664000,319.680000 L 300.780000,336.960000 L 301.896000,354.240000 L 303.012000,336.960000 L 304.128000,319.680000 L 305.244000,302.400000 L 306.360000,319.680000 L 307.476000,336.960000 L 308.592000,319.680000 L 309.708000,302.400000 L 310.824000,319.680000 L 311.940000,336.960000 L 313.056000,319.680000 L 314.172000,336.960000 L 315.288000,319.680000 L 316.404000,336.960000 L 317.520000,319.680000 L 318.636000,336.960000 L 319.752000,354.240000 L 320.868000,371.520000 L 321.984000,388.800000 L 323.100000,388.800000 L 324.216000,371.520000 L 325.332000,354.240000 L 326.448000,371.520000 L 327.564000,388.800000 L 328.680000,388.800000 L 329.796000,388.800000 L 330.912000,388.800000 L 332.028000,371.520000 L 333.144000,354.240000 L 334.260000,336.960000 L 335.376000,319.680000 L 336.492000,302.400000 L 337.608000,319.680000 L 338.724000,336.960000 L 339.840000,319.680000 L 340.956000,302.400000 L 342.072000,285.120000 L 343.188000,302.400000 L 344.304000,319.680000 L 345.420000,336.960000 L 346.536000,354.240000 L 347.652000,336.960000 L 348.768000,354.240000 L 349.884000,371.520000 L 351.000000,354.240000 L 352.116000,336.960000 L 353.232000,319.680000 L 354.348000,302.400000 L 355.464000,285.120000 L 356.580000,267.840000 L 357.696000,250.560000 L 358.812000,233.280000 L 359.928000,216.000000 L 361.044000,198.720000 L 362.160000,216.000000 L 363.276000,233.280000 L 364.392000,216.000000 L 365.508000,233.280000 L 366.624000,250.560000 L 367.740000,267.840000 L 368.856000,285.120000 L 369.972000,267.840000 L 371.088000,285.120000 L 372.204000,267.840000 L 373.320000,285.120000 L 374.436000,267.840000 L 375.552000,285.120000 L 376.668000,302.400000 L 377.784000,319.680000 L 378.900000,302.400000 L 380.016000,285.120000 L 381.132000,267.840000 L 382.248000,250.560000 L 383.364000,233.280000 L 384.480000,250.560000 L 385.596000,233.280000 L 386.712000,216.000000 L 387.828000,233.280000 L 388.944000,216.000000 L 390.060000,198.720000 L 391.176000,181.440000 L 392.292000,164.160000 L 393.408000,181.440000 L 394.524000,198.720000 L 395.640000,181.440000 L 396.756000,164.160000 L 397.872000,146.880000 L 398.988000,164.160000 L 400.104000,146.880000 L 401.220000,164.160000 L 402.336000,146.880000 L 403.452000,129.600000 L 404.568000,112.320000 L 405.684000,129.600000 L 406.800000,112.320000 L 407.916000,95.040000 L 409.032000,77.760000 L 410.148000,60.480000 L 411.264000,77.760000 L 412.380000,95.040000 L 413.496000,77.760000 L 414.612000,95.040000 L 415.728000,112.320000 L 416.844000,129.600000 L 417.960000,146.880000 L 419.076000,164.160000 L 420.192000,146.880000 L 421.308000,129.600000 L 422.424000,112.320000 L 423.540000,95.040000 L 424.656000,77.760000 L 425.772000,60.480000 L 426.888000,43.200000 L 428.004000,60.480000 L 429.120000,77.760000 L 430.236000,60.480000 L 431.352000,43.200000 L 432.468000,43.200000 L 433.584000,60.480000 L 434.700000,77.760000 L 435.816000,60.480000 L 436.932000,77.760000 L 438.048000,60.480000 L 439.164000,77.760000 L 440.280000,95.040000 L 441.396000,77.760000 L 442.512000,95.040000 L 443.628000,112.320000 L 444.744000,95.040000 L 445.860000,112.320000 L 446.976000,129.600000 L 448.092000,146.880000 L 449.208000,164.160000 L 450.324000,181.440000 L 451.440000,164.160000 L 452.556000,146.880000 L 453.672000,129.600000 L 454.788000,112.320000 L 455.904000,129.600000 L 457.020000,146.880000 L 458.136000,129.600000 L 459.252000,146.880000 L 460.368000,129.600000 L 461.484000,146.880000 L 462.600000,164.160000 L 463.716000,181.440000 L 464.832000,198.720000 L 465.948000,181.440000 L 467.064000,164.160000 L 468.180000,181.440000 L 469.296000,198.720000 L 470.412000,216.000000 L 471.528000,198.720000 L 472.644000,216.000000 L 473.760000,198.720000 L 474.876000,216.000000 L 475.992000,233.280000 L 477.108000,250.560000 L 478.224000,267.840000 L 479.340000,285.120000 L 480.456000,302.400000 L 481.572000,319.680000 L 482.688000,302.400000 L 483.804000,319.680000 L 484.920000,302.400000 L 486.036000,319.680000 L 487.152000,336.960000 L 488.268000,319.680000 L 489.384000,302.400000 L 490.500000,285.120000 L 491.616000,267.840000 L 492.732000,250.560000 L 493.848000,233.280000 L 494.964000,250.560000 L 496.080000,233.280000 L 497.196000,250.560000 L 498.312000,267.840000 L 499.428000,285.120000 L 500.544000,267.840000 L 501.660000,250.560000 L 502.776000,267.840000 L 503.892000,285.120000 L 505.008000,267.840000 L 506.124000,285.120000 L 507.240000,267.840000 L 508.356000,250.560000 L 509.472000,233.280000 L 510.588000,216.000000 L 511.704000,198.720000 L 512.820000,216.000000 L 513.936000,198.720000 L 515.052000,216.000000 L 516.168000,198.720000 L 517.284000,181.440000 L 518.400000,164.160000 "   />
<path         
style="stroke: #000000;  stroke-width: 0.500000;  stroke-linejoin: miter;  stroke-linecap: square;   opacity: 1.000000;  fill: none;   clip-path:url(#-1250928610);  "
 d="M 72.000000,216.000000 L 73.116000,198.720000 L 74.232000,181.440000 L 75.348000,164.160000 L 76.464000,146.880000 L 77.580000,129.600000 L 78.696000,112.320000 L 79.812000,95.040000 L 80.928000,77.760000 L 82.044000,95.040000 L 83.160000,112.320000 L 84.276000,129.600000 L 85.392000,112.320000 L 86.508000,129.600000 L 87.624000,129.600000 L 88.740000,112.320000 L 89.856000,95.040000 L 90.972000,77.760000 L 92.088000,77.760000 L 93.204000,95.040000 L 94.320000,95.040000 L 95.436000,112.320000 L 96.552000,112.320000 L 97.668000,112.320000 L 98.784000,129.600000 L 99.900000,146.880000 L 101.016000,164.160000 L 102.132000,181.440000 L 103.248000,198.720000 L 104.364000,198.720000 L 105.480000,216.000000 L 106.596000,233.280000 L 107.712000,233.280000 L 108.828000,250.560000 L 109.944000,250.560000 L 111.060000,250.560000 L 112.176000,250.560000 L 113.292000,267.840000 L 114.408000,267.840000 L 115.524000,267.840000 L 116.640000,250.560000 L 117.756000,250.560000 L 118.872000,250.560000 L 119.988000,250.560000 L 121.104000,250.560000 L 122.220000,250.560000 L 123.336000,250.560000 L 124.452000,267.840000 L 125.568000,285.120000 L 126.684000,285.120000 L 127.800000,285.120000 L 128.916000,302.400000 L 130.032000,319.680000 L 131.148000,319.680000 L 132.264000,336.960000 L 133.380000,354.240000 L 134.496000,354.240000 L 135.612000,371.520000 L 136.728000,388.800000 L 137.844000,388.800000 L 138.960000,388.800000 L 140.076000,371.520000 L 141.192000,371.520000 L 142.308000,388.800000 L 143.424000,388.800000 L 144.540000,371.520000 L 145.656000,388.800000 L 146.772000,371.520000 L 147.888000,388.800000 L 149.004000,371.520000 L 150.120000,388.800000 L 151.236000,388.800000 L 152.352000,371.520000 L 153.468000,354.240000 L 154.584000,371.520000 L 155.700000,388.800000 L 156.816000,388.800000 L 157.932000,388.800000 L 159.048000,388.800000 L 160.164000,371.520000 L 161.280000,354.240000 L 162.396000,336.960000 L 163.512000,319.680000 L 164.628000,302.400000 L 165.744000,319.680000 L 166.860000,302.400000 L 167.976000,302.400000 L 169.092000,285.120000 L 170.208000,267.840000 L 171.324000,267.840000 L 172.440000,267.840000 L 173.556000,285.120000 L 174.672000,302.400000 L 175.788000,302.400000 L 176.904000,285.120000 L 178.020000,285.120000 L 179.136000,285.120000 L 180.252000,285.120000 L 181.368000,302.400000 L 182.484000,302.400000 L 183.600000,319.680000 L 184.716000,336.960000 L 185.832000,354.240000 L 186.948000,336.960000 L 188.064000,336.960000 L 189.180000,336.960000 L 190.296000,336.960000 L 191.412000,319.680000 L 192.528000,319.680000 L 193.644000,319.680000 L 194.760000,319.680000 L 195.876000,336.960000 L 196.992000,319.680000 L 198.108000,319.680000 L 199.224000,319.680000 L 200.340000,336.960000 L 201.456000,354.240000 L 202.572000,371.520000 L 203.688000,371.520000 L 204.804000,371.520000 L 205.920000,371.520000 L 207.036000,371.520000 L 208.152000,388.800000 L 209.268000,388.800000 L 210.384000,371.520000 L 211.500000,371.520000 L 212.616000,354.240000 L 213.732000,354.240000 L 214.848000,336.960000 L 215.964000,319.680000 L 217.080000,302.400000 L 218.196000,302.400000 L 219.312000,319.680000 L 220.428000,319.680000 L 221.544000,336.960000 L 222.660000,354.240000 L 223.776000,354.240000 L 224.892000,371.520000 L 226.008000,388.800000 L 227.124000,388.800000 L 228.240000,388.800000 L 229.356000,371.520000 L 230.472000,388.800000 L 231.588000,388.800000 L 232.704000,388.800000 L 233.820000,388.800000 L 234.936000,388.800000 L 236.052000,388.800000 L 237.168000,388.800000 L 238.284000,388.800000 L 239.400000,388.800000 L 240.516000,371.520000 L 241.632000,371.520000 L 242.748000,388.800000 L 243.864000,388.800000 L 244.980000,371.520000 L 246.096000,388.800000 L 247.212000,388.800000 L 248.328000,388.800000 L 249.444000,388.800000 L 250.560000,388.800000 L 251.676000,371.520000 L 252.792000,354.240000 L 253.908000,336.960000 L 255.024000,319.680000 L 256.140000,302.400000 L 257.256000,302.400000 L 258.372000,302.400000 L 259.488000,302.400000 L 260.604000,302.400000 L 261.720000,302.400000 L 262.836000,302.400000 L 263.952000,285.120000 L 265.068000,302.400000 L 266.184000,319.680000 L 267.300000,336.960000 L 268.416000,319.680000 L 269.532000,302.400000 L 270.648000,285.120000 L 271.764000,267.840000 L 272.880000,285.120000 L 273.996000,302.400000 L 275.112000,302.400000 L 276.228000,319.680000 L 277.344000,319.680000 L 278.460000,302.400000 L 279.576000,302.400000 L 280.692000,319.680000 L 281.808000,336.960000 L 282.924000,354.240000 L 284.040000,354.240000 L 285.156000,371.520000 L 286.272000,354.240000 L 287.388000,336.960000 L 288.504000,336.960000 L 289.620000,336.960000 L 290.736000,319.680000 L 291.852000,319.680000 L 292.968000,319.680000 L 294.084000,319.680000 L 295.200000,319.680000 L 296.316000,319.680000 L 297.432000,319.680000 L 298.548000,302.400000 L 299.664000,319.680000 L 300.780000,336.960000 L 301.896000,336.960000 L 303.012000,336.960000 L 304.128000,319.680000 L 305.244000,302.400000 L 306.360000,319.680000 L 307.476000,319.680000 L 308.592000,302.400000 L 309.708000,302.400000 L 310.824000,319.680000 L 311.940000,336.960000 L 313.056000,319.680000 L 314.172000,319.680000 L 315.288000,319.680000 L 316.404000,319.680000 L 317.520000,319.680000 L 318.636000,336.960000 L 319.752000,354.240000 L 320.868000,371.520000 L 321.984000,388.800000 L 323.100000,388.800000 L 324.216000,371.520000 L 325.332000,354.240000 L 326.448000,371.520000 L 327.564000,388.800000 L 328.680000,388.800000 L 329.796000,388.800000 L 330.912000,371.520000 L 332.028000,354.240000 L 333.144000,354.240000 L 334.260000,336.960000 L 335.376000,319.680000 L 336.492000,302.400000 L 337.608000,302.400000 L 338.724000,302.400000 L 339.840000,285.120000 L 340.956000,285.120000 L 342.072000,285.120000 L 343.188000,285.120000 L 344.304000,302.400000 L 345.420000,319.680000 L 346.536000,336.960000 L 347.652000,336.960000 L 348.768000,354.240000 L 349.884000,354.240000 L 351.000000,336.960000 L 352.116000,319.680000 L 353.232000,302.400000 L 354.348000,302.400000 L 355.464000,285.120000 L 356.580000,267.840000 L 357.696000,250.560000 L 358.812000,233.280000 L 359.928000,216.000000 L 361.044000,198.720000 L 362.160000,216.000000 L 363.276000,233.280000 L 364.392000,216.000000 L 365.508000,233.280000 L 366.624000,250.560000 L 367.740000,250.560000 L 368.856000,267.840000 L 369.972000,267.840000 L 371.088000,267.840000 L 372.204000,267.840000 L 373.320000,285.120000 L 374.436000,267.840000 L 375.552000,267.840000 L 376.668000,285.120000 L 377.784000,302.400000 L 378.900000,302.400000 L 380.016000,285.120000 L 381.132000,267.840000 L 382.248000,250.560000 L 383.364000,233.280000 L 384.480000,250.560000 L 385.596000,233.280000 L 386.712000,216.000000 L 387.828000,233.280000 L 388.944000,216.000000 L 390.060000,198.720000 L 391.176000,181.440000 L 392.292000,164.160000 L 393.408000,181.440000 L 394.524000,198.720000 L 395.640000,181.440000 L 396.756000,164.160000 L 397.872000,146.880000 L 398.988000,146.880000 L 400.104000,146.880000 L 401.220000,146.880000 L 402.336000,146.880000 L 403.452000,129.600000 L 404.568000,112.320000 L 405.684000,129.600000 L 406.800000,112.320000 L 407.916000,95.040000 L 409.032000,77.760000 L 410.148000,60.480000 L 411.264000,77.760000 L 412.380000,77.760000 L 413.496000,77.760000 L 414.612000,95.040000 L 415.728000,112.320000 L 416.844000,129.600000 L 417.960000,129.600000 L 419.076000,129.600000 L 420.192000,112.320000 L 421.308000,95.040000 L 422.424000,77.760000 L 423.540000,77.760000 L 424.656000,60.480000 L 425.772000,60.480000 L 426.888000,43.200000 L 428.004000,60.480000 L 429.120000,60.480000 L 430.236000,60.480000 L 431.352000,43.200000 L 432.468000,43.200000 L 433.584000,60.480000 L 434.700000,60.480000 L 435.816000,60.480000 L 436.932000,60.480000 L 438.048000,60.480000 L 439.164000,60.480000 L 440.280000,77.760000 L 441.396000,77.760000 L 442.512000,95.040000 L 443.628000,95.040000 L 444.744000,95.040000 L 445.860000,112.320000 L 446.976000,112.320000 L 448.092000,129.600000 L 449.208000,146.880000 L 450.324000,164.160000 L 451.440000,164.160000 L 452.556000,146.880000 L 453.672000,129.600000 L 454.788000,112.320000 L 455.904000,129.600000 L 457.020000,146.880000 L 458.136000,129.600000 L 459.252000,146.880000 L 460.368000,129.600000 L 461.484000,129.600000 L 462.600000,129.600000 L 463.716000,146.880000 L 464.832000,164.160000 L 465.948000,164.160000 L 467.064000,164.160000 L 468.180000,164.160000 L 469.296000,181.440000 L 470.412000,198.720000 L 471.528000,198.720000 L 472.644000,198.720000 L 473.760000,198.720000 L 474.876000,216.000000 L 475.992000,233.280000 L 477.108000,233.280000 L 478.224000,250.560000 L 479.340000,267.840000 L 480.456000,285.120000 L 481.572000,302.400000 L 482.688000,302.400000 L 483.804000,302.400000 L 484.920000,302.400000 L 486.036000,319.680000 L 487.152000,319.680000 L 488.268000,319.680000 L 489.384000,302.400000 L 490.500000,285.120000 L 491.616000,267.840000 L 492.732000,250.560000 L 493.848000,233.280000 L 494.964000,233.280000 L 496.080000,233.280000 L 497.196000,250.560000 L 498.312000,250.560000 L 499.428000,267.840000 L 500.544000,267.840000 L 501.660000,250.560000 L 502.776000,267.840000 L 503.892000,267.840000 L 505.008000,267.840000 L 506.124000,267.840000 L 507.240000,250.560000 L 508.356000,233.280000 L 509.472000,233.280000 L 510.588000,216.000000 L 511.704000,198.720000 L 512.820000,216.000000 L 513.936000,198.720000 L 515.052000,198.720000 L 516.168000,181.440000 L 517.284000,164.160000 L 518.400000,164.160000 "   />
<text style="font-size: 14.000000; font-family: Bitstream Vera Sans; font-style: Roman; fill: #000000;" x="46.676562" y="36.288000" >Optimal Path by Viterbi X_hat_{n,400} r.w. on A=[0,20], P(W=+-10)=1/2</text>
<g id="legend1">
<polygon         
style="stroke: #000000;  stroke-width: 1.000000;  stroke-linejoin: miter;  stroke-linecap: square;   opacity: 1.000000;  fill: #ffffff;   "
   points = "373.814400,123.665280 373.814400,50.112000 509.472000,50.112000 509.472000,123.665280"  />
<path         
style="stroke: #0000ff;  stroke-width: 0.500000;  stroke-linejoin: miter;  stroke-linecap: square;   opacity: 1.000000;  fill: none;   "
 d="M 386.919200,61.241440 L 394.359200,61.241440 L 401.799200,61.241440 L 409.239200,61.241440 "   />
<path         
style="stroke: #008000;  stroke-width: 0.500000;  stroke-linejoin: miter;  stroke-linecap: square;   opacity: 1.000000;  fill: none;   "
 d="M 386.919200,74.315040 L 394.359200,74.315040 L 401.799200,74.315040 L 409.239200,74.315040 "   />
<path         
style="stroke: #ff0000;  stroke-width: 0.500000;  stroke-linejoin: miter;  stroke-linecap: square;   opacity: 1.000000;  fill: none;   "
 d="M 386.919200,87.388640 L 394.359200,87.388640 L 401.799200,87.388640 L 409.239200,87.388640 "   />
<path         
style="stroke: #00bfbf;  stroke-width: 0.500000;  stroke-linejoin: miter;  stroke-linecap: square;   opacity: 1.000000;  fill: none;   "
 d="M 386.919200,100.462240 L 394.359200,100.462240 L 401.799200,100.462240 L 409.239200,100.462240 "   />
<path         
style="stroke: #000000;  stroke-width: 0.500000;  stroke-linejoin: miter;  stroke-linecap: square;   opacity: 1.000000;  fill: none;   "
 d="M 386.919200,113.035840 L 394.359200,113.035840 L 401.799200,113.035840 L 409.239200,113.035840 "   />
<text style="font-size: 10.000000; font-family: Bitstream Vera Sans; font-style: Roman; fill: #000000;" x="418.167200" y="66.241440" >Xn_list</text>
<text style="font-size: 10.000000; font-family: Bitstream Vera Sans; font-style: Roman; fill: #000000;" x="418.167200" y="79.315040" >Xn_hat_list</text>
<text style="font-size: 10.000000; font-family: Bitstream Vera Sans; font-style: Roman; fill: #000000;" x="418.167200" y="92.388640" >max_X_state_list</text>
<text style="font-size: 10.000000; font-family: Bitstream Vera Sans; font-style: Roman; fill: #000000;" x="418.167200" y="105.462240" >min_X_state_list</text>
<text style="font-size: 10.000000; font-family: Bitstream Vera Sans; font-style: Roman; fill: #000000;" x="418.167200" y="117.535840" >(max+min)/2</text>
</g>
</g>
</g>
</svg>