<?xml version="1.0" standalone="no"?>
<!DOCTYPE svg PUBLIC "-//W3C//DTD SVG 1.0//EN"
"http://www.w3.org/TR/2001/REC-SVG-20010904/DTD/svg10.dtd">
<!-- Created with matplotlib (http://matplotlib.sourceforge.net/) -->
<svg
   xmlns="http://www.w3.org/2000/svg"
   xmlns:xlink="http://www.w3.org/1999/xlink"
   version="1.0"
   x="0.0"
   y="0.0"
   width="576.000000"
   height="432.000000"   
   id="svg1">
<g id="figure1">
<polygon         
style="stroke: #ffffff;  stroke-width: 1.000000;  stroke-linejoin: miter;  stroke-linecap: square;   opacity: 1.000000;  fill: #ffffff;   "
   points = "0.000000,432.000000 0.000000,0.000000 576.000000,0.000000 576.000000,432.000000"  />
<g id="axes1">
<polygon         
style="stroke: #000000;  stroke-width: 1.000000;  stroke-linejoin: miter;  stroke-linecap: square;   opacity: 1.000000;  fill: #ffffff;   "
   points = "72.000000,388.800000 72.000000,43.200000 518.400000,43.200000 518.400000,388.800000"  />
<g id="matplotlib.axis1">
<g id="xtick1">
<text style="font-size: 12.000000; font-family: Bitstream Vera Sans; font-style: Roman; fill: #000000;" x="69.000000" y="401.800000" >0</text>
</g>
<g id="xtick2">
<path         
style="stroke: #000000;  stroke-width: 0.500000;  stroke-linejoin: miter;  stroke-linecap: butt;   opacity: 1.000000;  fill: none;   "
 d="M 127.800000,388.800000 L 127.800000,384.800000"   />
<path         
style="stroke: #000000;  stroke-width: 0.500000;  stroke-linejoin: miter;  stroke-linecap: butt;   opacity: 1.000000;  fill: none;   "
 d="M 127.800000,388.800000 L 127.800000,384.800000"   />
<path         
style="stroke: #000000;  stroke-width: 0.500000;  stroke-linejoin: miter;  stroke-linecap: butt;   opacity: 1.000000;  fill: none;   "
 d="M 127.800000,47.200000 L 127.800000,43.200000"   />
<path         
style="stroke: #000000;  stroke-width: 0.500000;  stroke-linejoin: miter;  stroke-linecap: butt;   opacity: 1.000000;  fill: none;   "
 d="M 127.800000,47.200000 L 127.800000,43.200000"   />
<text style="font-size: 12.000000; font-family: Bitstream Vera Sans; font-style: Roman; fill: #000000;" x="120.800000" y="401.800000" >50</text>
</g>
<g id="xtick3">
<path         
style="stroke: #000000;  stroke-width: 0.500000;  stroke-linejoin: miter;  stroke-linecap: butt;   opacity: 1.000000;  fill: none;   "
 d="M 183.600000,388.800000 L 183.600000,384.800000"   />
<path         
style="stroke: #000000;  stroke-width: 0.500000;  stroke-linejoin: miter;  stroke-linecap: butt;   opacity: 1.000000;  fill: none;   "
 d="M 183.600000,388.800000 L 183.600000,384.800000"   />
<path         
style="stroke: #000000;  stroke-width: 0.500000;  stroke-linejoin: miter;  stroke-linecap: butt;   opacity: 1.000000;  fill: none;   "
 d="M 183.600000,47.200000 L 183.600000,43.200000"   />
<path         
style="stroke: #000000;  stroke-width: 0.500000;  stroke-linejoin: miter;  stroke-linecap: butt;   opacity: 1.000000;  fill: none;   "
 d="M 183.600000,47.200000 L 183.600000,43.200000"   />
<text style="font-size: 12.000000; font-family: Bitstream Vera Sans; font-style: Roman; fill: #000000;" x="172.600000" y="401.800000" >100</text>
</g>
<g id="xtick4">
<path         
style="stroke: #000000;  stroke-width: 0.500000;  stroke-linejoin: miter;  stroke-linecap: butt;   opacity: 1.000000;  fill: none;   "
 d="M 239.400000,388.800000 L 239.400000,384.800000"   />
<path         
style="stroke: #000000;  stroke-width: 0.500000;  stroke-linejoin: miter;  stroke-linecap: butt;   opacity: 1.000000;  fill: none;   "
 d="M 239.400000,388.800000 L 239.400000,384.800000"   />
<path         
style="stroke: #000000;  stroke-width: 0.500000;  stroke-linejoin: miter;  stroke-linecap: butt;   opacity: 1.000000;  fill: none;   "
 d="M 239.400000,47.200000 L 239.400000,43.200000"   />
<path         
style="stroke: #000000;  stroke-width: 0.500000;  stroke-linejoin: miter;  stroke-linecap: butt;   opacity: 1.000000;  fill: none;   "
 d="M 239.400000,47.200000 L 239.400000,43.200000"   />
<text style="font-size: 12.000000; font-family: Bitstream Vera Sans; font-style: Roman; fill: #000000;" x="228.400000" y="401.800000" >150</text>
</g>
<g id="xtick5">
<path         
style="stroke: #000000;  stroke-width: 0.500000;  stroke-linejoin: miter;  stroke-linecap: butt;   opacity: 1.000000;  fill: none;   "
 d="M 295.200000,388.800000 L 295.200000,384.800000"   />
<path         
style="stroke: #000000;  stroke-width: 0.500000;  stroke-linejoin: miter;  stroke-linecap: butt;   opacity: 1.000000;  fill: none;   "
 d="M 295.200000,388.800000 L 295.200000,384.800000"   />
<path         
style="stroke: #000000;  stroke-width: 0.500000;  stroke-linejoin: miter;  stroke-linecap: butt;   opacity: 1.000000;  fill: none;   "
 d="M 295.200000,47.200000 L 295.200000,43.200000"   />
<path         
style="stroke: #000000;  stroke-width: 0.500000;  stroke-linejoin: miter;  stroke-linecap: butt;   opacity: 1.000000;  fill: none;   "
 d="M 295.200000,47.200000 L 295.200000,43.200000"   />
<text style="font-size: 12.000000; font-family: Bitstream Vera Sans; font-style: Roman; fill: #000000;" x="284.200000" y="401.800000" >200</text>
</g>
<g id="xtick6">
<path         
style="stroke: #000000;  stroke-width: 0.500000;  stroke-linejoin: miter;  stroke-linecap: butt;   opacity: 1.000000;  fill: none;   "
 d="M 351.000000,388.800000 L 351.000000,384.800000"   />
<path         
style="stroke: #000000;  stroke-width: 0.500000;  stroke-linejoin: miter;  stroke-linecap: butt;   opacity: 1.000000;  fill: none;   "
 d="M 351.000000,388.800000 L 351.000000,384.800000"   />
<path         
style="stroke: #000000;  stroke-width: 0.500000;  stroke-linejoin: miter;  stroke-linecap: butt;   opacity: 1.000000;  fill: none;   "
 d="M 351.000000,47.200000 L 351.000000,43.200000"   />
<path         
style="stroke: #000000;  stroke-width: 0.500000;  stroke-linejoin: miter;  stroke-linecap: butt;   opacity: 1.000000;  fill: none;   "
 d="M 351.000000,47.200000 L 351.000000,43.200000"   />
<text style="font-size: 12.000000; font-family: Bitstream Vera Sans; font-style: Roman; fill: #000000;" x="340.000000" y="401.800000" >250</text>
</g>
<g id="xtick7">
<path         
style="stroke: #000000;  stroke-width: 0.500000;  stroke-linejoin: miter;  stroke-linecap: butt;   opacity: 1.000000;  fill: none;   "
 d="M 406.800000,388.800000 L 406.800000,384.800000"   />
<path         
style="stroke: #000000;  stroke-width: 0.500000;  stroke-linejoin: miter;  stroke-linecap: butt;   opacity: 1.000000;  fill: none;   "
 d="M 406.800000,388.800000 L 406.800000,384.800000"   />
<path         
style="stroke: #000000;  stroke-width: 0.500000;  stroke-linejoin: miter;  stroke-linecap: butt;   opacity: 1.000000;  fill: none;   "
 d="M 406.800000,47.200000 L 406.800000,43.200000"   />
<path         
style="stroke: #000000;  stroke-width: 0.500000;  stroke-linejoin: miter;  stroke-linecap: butt;   opacity: 1.000000;  fill: none;   "
 d="M 406.800000,47.200000 L 406.800000,43.200000"   />
<text style="font-size: 12.000000; font-family: Bitstream Vera Sans; font-style: Roman; fill: #000000;" x="395.800000" y="401.800000" >300</text>
</g>
<g id="xtick8">
<path         
style="stroke: #000000;  stroke-width: 0.500000;  stroke-linejoin: miter;  stroke-linecap: butt;   opacity: 1.000000;  fill: none;   "
 d="M 462.600000,388.800000 L 462.600000,384.800000"   />
<path         
style="stroke: #000000;  stroke-width: 0.500000;  stroke-linejoin: miter;  stroke-linecap: butt;   opacity: 1.000000;  fill: none;   "
 d="M 462.600000,388.800000 L 462.600000,384.800000"   />
<path         
style="stroke: #000000;  stroke-width: 0.500000;  stroke-linejoin: miter;  stroke-linecap: butt;   opacity: 1.000000;  fill: none;   "
 d="M 462.600000,47.200000 L 462.600000,43.200000"   />
<path         
style="stroke: #000000;  stroke-width: 0.500000;  stroke-linejoin: miter;  stroke-linecap: butt;   opacity: 1.000000;  fill: none;   "
 d="M 462.600000,47.200000 L 462.600000,43.200000"   />
<text style="font-size: 12.000000; font-family: Bitstream Vera Sans; font-style: Roman; fill: #000000;" x="451.600000" y="401.800000" >350</text>
</g>
<g id="xtick9">
<text style="font-size: 12.000000; font-family: Bitstream Vera Sans; font-style: Roman; fill: #000000;" x="507.400000" y="401.800000" >400</text>
</g>
<text style="font-size: 12.000000; font-family: Bitstream Vera Sans; font-style: Roman; fill: #000000;" x="292.200000" y="413.800000" >n</text>
</g>
<g id="matplotlib.axis2">
<g id="ytick1">
<text style="font-size: 12.000000; font-family: Bitstream Vera Sans; font-style: Roman; fill: #000000;" x="62.000000" y="393.300000" >0</text>
</g>
<g id="ytick2">
<path         
style="stroke: #000000;  stroke-width: 0.500000;  stroke-linejoin: miter;  stroke-linecap: butt;   opacity: 1.000000;  fill: none;   "
 d="M 72.000000,302.400000 L 76.000000,302.400000"   />
<path         
style="stroke: #000000;  stroke-width: 0.500000;  stroke-linejoin: miter;  stroke-linecap: butt;   opacity: 1.000000;  fill: none;   "
 d="M 72.000000,302.400000 L 76.000000,302.400000"   />
<path         
style="stroke: #000000;  stroke-width: 0.500000;  stroke-linejoin: miter;  stroke-linecap: butt;   opacity: 1.000000;  fill: none;   "
 d="M 514.400000,302.400000 L 518.400000,302.400000"   />
<path         
style="stroke: #000000;  stroke-width: 0.500000;  stroke-linejoin: miter;  stroke-linecap: butt;   opacity: 1.000000;  fill: none;   "
 d="M 514.400000,302.400000 L 518.400000,302.400000"   />
<text style="font-size: 12.000000; font-family: Bitstream Vera Sans; font-style: Roman; fill: #000000;" x="62.000000" y="306.900000" >5</text>
</g>
<g id="ytick3">
<path         
style="stroke: #000000;  stroke-width: 0.500000;  stroke-linejoin: miter;  stroke-linecap: butt;   opacity: 1.000000;  fill: none;   "
 d="M 72.000000,216.000000 L 76.000000,216.000000"   />
<path         
style="stroke: #000000;  stroke-width: 0.500000;  stroke-linejoin: miter;  stroke-linecap: butt;   opacity: 1.000000;  fill: none;   "
 d="M 72.000000,216.000000 L 76.000000,216.000000"   />
<path         
style="stroke: #000000;  stroke-width: 0.500000;  stroke-linejoin: miter;  stroke-linecap: butt;   opacity: 1.000000;  fill: none;   "
 d="M 514.400000,216.000000 L 518.400000,216.000000"   />
<path         
style="stroke: #000000;  stroke-width: 0.500000;  stroke-linejoin: miter;  stroke-linecap: butt;   opacity: 1.000000;  fill: none;   "
 d="M 514.400000,216.000000 L 518.400000,216.000000"   />
<text style="font-size: 12.000000; font-family: Bitstream Vera Sans; font-style: Roman; fill: #000000;" x="54.000000" y="220.500000" >10</text>
</g>
<g id="ytick4">
<path         
style="stroke: #000000;  stroke-width: 0.500000;  stroke-linejoin: miter;  stroke-linecap: butt;   opacity: 1.000000;  fill: none;   "
 d="M 72.000000,129.600000 L 76.000000,129.600000"   />
<path         
style="stroke: #000000;  stroke-width: 0.500000;  stroke-linejoin: miter;  stroke-linecap: butt;   opacity: 1.000000;  fill: none;   "
 d="M 72.000000,129.600000 L 76.000000,129.600000"   />
<path         
style="stroke: #000000;  stroke-width: 0.500000;  stroke-linejoin: miter;  stroke-linecap: butt;   opacity: 1.000000;  fill: none;   "
 d="M 514.400000,129.600000 L 518.400000,129.600000"   />
<path         
style="stroke: #000000;  stroke-width: 0.500000;  stroke-linejoin: miter;  stroke-linecap: butt;   opacity: 1.000000;  fill: none;   "
 d="M 514.400000,129.600000 L 518.400000,129.600000"   />
<text style="font-size: 12.000000; font-family: Bitstream Vera Sans; font-style: Roman; fill: #000000;" x="54.000000" y="134.100000" >15</text>
</g>
<g id="ytick5">
<text style="font-size: 12.000000; font-family: Bitstream Vera Sans; font-style: Roman; fill: #000000;" x="54.000000" y="47.700000" >20</text>
</g>
</g>

<defs>
    <clipPath id="-1250928610">
    <rect x="72.000000" y="43.200000" width="446.400000" height="345.600000"
    style="stroke: gray; fill: none;"/>
    </clipPath>
</defs>

<path         
style="stroke: #0000ff;  stroke-width: 0.500000;  stroke-linejoin: miter;  stroke-linecap: square;   opacity: 1.000000;  fill: none;   clip-path:url(#-1250928610);  "
 d="M 72.000000,216.000000 L 73.116000,233.280000 L 74.232000,216.000000 L 75.348000,233.280000 L 76.464000,216.000000 L 77.580000,198.720000 L 78.696000,216.000000 L 79.812000,198.720000 L 80.928000,216.000000 L 82.044000,198.720000 L 83.160000,216.000000 L 84.276000,233.280000 L 85.392000,250.560000 L 86.508000,233.280000 L 87.624000,250.560000 L 88.740000,267.840000 L 89.856000,250.560000 L 90.972000,267.840000 L 92.088000,250.560000 L 93.204000,267.840000 L 94.320000,285.120000 L 95.436000,302.400000 L 96.552000,285.120000 L 97.668000,267.840000 L 98.784000,285.120000 L 99.900000,302.400000 L 101.016000,285.120000 L 102.132000,302.400000 L 103.248000,319.680000 L 104.364000,302.400000 L 105.480000,319.680000 L 106.596000,336.960000 L 107.712000,354.240000 L 108.828000,336.960000 L 109.944000,354.240000 L 111.060000,371.520000 L 112.176000,354.240000 L 113.292000,336.960000 L 114.408000,354.240000 L 115.524000,371.520000 L 116.640000,354.240000 L 117.756000,336.960000 L 118.872000,354.240000 L 119.988000,371.520000 L 121.104000,354.240000 L 122.220000,371.520000 L 123.336000,354.240000 L 124.452000,371.520000 L 125.568000,388.800000 L 126.684000,388.800000 L 127.800000,371.520000 L 128.916000,388.800000 L 130.032000,371.520000 L 131.148000,388.800000 L 132.264000,371.520000 L 133.380000,354.240000 L 134.496000,371.520000 L 135.612000,354.240000 L 136.728000,371.520000 L 137.844000,354.240000 L 138.960000,336.960000 L 140.076000,354.240000 L 141.192000,371.520000 L 142.308000,354.240000 L 143.424000,336.960000 L 144.540000,319.680000 L 145.656000,302.400000 L 146.772000,319.680000 L 147.888000,302.400000 L 149.004000,285.120000 L 150.120000,302.400000 L 151.236000,319.680000 L 152.352000,302.400000 L 153.468000,285.120000 L 154.584000,302.400000 L 155.700000,285.120000 L 156.816000,267.840000 L 157.932000,285.120000 L 159.048000,267.840000 L 160.164000,250.560000 L 161.280000,267.840000 L 162.396000,285.120000 L 163.512000,302.400000 L 164.628000,319.680000 L 165.744000,302.400000 L 166.860000,285.120000 L 167.976000,302.400000 L 169.092000,285.120000 L 170.208000,302.400000 L 171.324000,319.680000 L 172.440000,302.400000 L 173.556000,285.120000 L 174.672000,302.400000 L 175.788000,285.120000 L 176.904000,267.840000 L 178.020000,285.120000 L 179.136000,267.840000 L 180.252000,250.560000 L 181.368000,233.280000 L 182.484000,250.560000 L 183.600000,267.840000 L 184.716000,285.120000 L 185.832000,302.400000 L 186.948000,285.120000 L 188.064000,267.840000 L 189.180000,285.120000 L 190.296000,267.840000 L 191.412000,285.120000 L 192.528000,267.840000 L 193.644000,285.120000 L 194.760000,267.840000 L 195.876000,250.560000 L 196.992000,267.840000 L 198.108000,285.120000 L 199.224000,302.400000 L 200.340000,285.120000 L 201.456000,267.840000 L 202.572000,285.120000 L 203.688000,302.400000 L 204.804000,319.680000 L 205.920000,302.400000 L 207.036000,285.120000 L 208.152000,302.400000 L 209.268000,319.680000 L 210.384000,302.400000 L 211.500000,285.120000 L 212.616000,302.400000 L 213.732000,319.680000 L 214.848000,336.960000 L 215.964000,319.680000 L 217.080000,336.960000 L 218.196000,354.240000 L 219.312000,371.520000 L 220.428000,354.240000 L 221.544000,371.520000 L 222.660000,354.240000 L 223.776000,336.960000 L 224.892000,354.240000 L 226.008000,336.960000 L 227.124000,319.680000 L 228.240000,302.400000 L 229.356000,319.680000 L 230.472000,302.400000 L 231.588000,319.680000 L 232.704000,336.960000 L 233.820000,319.680000 L 234.936000,336.960000 L 236.052000,354.240000 L 237.168000,371.520000 L 238.284000,354.240000 L 239.400000,371.520000 L 240.516000,354.240000 L 241.632000,371.520000 L 242.748000,388.800000 L 243.864000,388.800000 L 244.980000,371.520000 L 246.096000,354.240000 L 247.212000,336.960000 L 248.328000,319.680000 L 249.444000,302.400000 L 250.560000,285.120000 L 251.676000,302.400000 L 252.792000,319.680000 L 253.908000,302.400000 L 255.024000,319.680000 L 256.140000,336.960000 L 257.256000,319.680000 L 258.372000,336.960000 L 259.488000,319.680000 L 260.604000,302.400000 L 261.720000,285.120000 L 262.836000,302.400000 L 263.952000,319.680000 L 265.068000,336.960000 L 266.184000,319.680000 L 267.300000,336.960000 L 268.416000,319.680000 L 269.532000,302.400000 L 270.648000,285.120000 L 271.764000,302.400000 L 272.880000,319.680000 L 273.996000,302.400000 L 275.112000,319.680000 L 276.228000,302.400000 L 277.344000,319.680000 L 278.460000,336.960000 L 279.576000,354.240000 L 280.692000,336.960000 L 281.808000,354.240000 L 282.924000,371.520000 L 284.040000,388.800000 L 285.156000,371.520000 L 286.272000,354.240000 L 287.388000,371.520000 L 288.504000,354.240000 L 289.620000,371.520000 L 290.736000,354.240000 L 291.852000,371.520000 L 292.968000,388.800000 L 294.084000,371.520000 L 295.200000,388.800000 L 296.316000,371.520000 L 297.432000,354.240000 L 298.548000,371.520000 L 299.664000,354.240000 L 300.780000,336.960000 L 301.896000,319.680000 L 303.012000,336.960000 L 304.128000,319.680000 L 305.244000,302.400000 L 306.360000,319.680000 L 307.476000,336.960000 L 308.592000,319.680000 L 309.708000,336.960000 L 310.824000,354.240000 L 311.940000,371.520000 L 313.056000,354.240000 L 314.172000,336.960000 L 315.288000,319.680000 L 316.404000,302.400000 L 317.520000,319.680000 L 318.636000,302.400000 L 319.752000,285.120000 L 320.868000,302.400000 L 321.984000,285.120000 L 323.100000,302.400000 L 324.216000,319.680000 L 325.332000,336.960000 L 326.448000,319.680000 L 327.564000,336.960000 L 328.680000,319.680000 L 329.796000,302.400000 L 330.912000,319.680000 L 332.028000,302.400000 L 333.144000,285.120000 L 334.260000,267.840000 L 335.376000,285.120000 L 336.492000,302.400000 L 337.608000,285.120000 L 338.724000,302.400000 L 339.840000,319.680000 L 340.956000,336.960000 L 342.072000,319.680000 L 343.188000,336.960000 L 344.304000,319.680000 L 345.420000,302.400000 L 346.536000,285.120000 L 347.652000,302.400000 L 348.768000,319.680000 L 349.884000,336.960000 L 351.000000,354.240000 L 352.116000,371.520000 L 353.232000,388.800000 L 354.348000,371.520000 L 355.464000,354.240000 L 356.580000,336.960000 L 357.696000,319.680000 L 358.812000,302.400000 L 359.928000,285.120000 L 361.044000,302.400000 L 362.160000,319.680000 L 363.276000,302.400000 L 364.392000,319.680000 L 365.508000,302.400000 L 366.624000,285.120000 L 367.740000,302.400000 L 368.856000,285.120000 L 369.972000,302.400000 L 371.088000,285.120000 L 372.204000,267.840000 L 373.320000,285.120000 L 374.436000,267.840000 L 375.552000,250.560000 L 376.668000,233.280000 L 377.784000,250.560000 L 378.900000,267.840000 L 380.016000,250.560000 L 381.132000,267.840000 L 382.248000,285.120000 L 383.364000,302.400000 L 384.480000,285.120000 L 385.596000,302.400000 L 386.712000,319.680000 L 387.828000,302.400000 L 388.944000,319.680000 L 390.060000,302.400000 L 391.176000,285.120000 L 392.292000,267.840000 L 393.408000,250.560000 L 394.524000,267.840000 L 395.640000,285.120000 L 396.756000,267.840000 L 397.872000,285.120000 L 398.988000,267.840000 L 400.104000,250.560000 L 401.220000,233.280000 L 402.336000,216.000000 L 403.452000,233.280000 L 404.568000,250.560000 L 405.684000,267.840000 L 406.800000,250.560000 L 407.916000,233.280000 L 409.032000,250.560000 L 410.148000,233.280000 L 411.264000,216.000000 L 412.380000,198.720000 L 413.496000,181.440000 L 414.612000,164.160000 L 415.728000,146.880000 L 416.844000,164.160000 L 417.960000,181.440000 L 419.076000,198.720000 L 420.192000,181.440000 L 421.308000,198.720000 L 422.424000,216.000000 L 423.540000,198.720000 L 424.656000,181.440000 L 425.772000,198.720000 L 426.888000,181.440000 L 428.004000,198.720000 L 429.120000,216.000000 L 430.236000,233.280000 L 431.352000,216.000000 L 432.468000,198.720000 L 433.584000,216.000000 L 434.700000,198.720000 L 435.816000,181.440000 L 436.932000,198.720000 L 438.048000,181.440000 L 439.164000,164.160000 L 440.280000,146.880000 L 441.396000,129.600000 L 442.512000,112.320000 L 443.628000,95.040000 L 444.744000,112.320000 L 445.860000,95.040000 L 446.976000,77.760000 L 448.092000,60.480000 L 449.208000,77.760000 L 450.324000,60.480000 L 451.440000,77.760000 L 452.556000,95.040000 L 453.672000,77.760000 L 454.788000,95.040000 L 455.904000,112.320000 L 457.020000,95.040000 L 458.136000,77.760000 L 459.252000,95.040000 L 460.368000,112.320000 L 461.484000,129.600000 L 462.600000,112.320000 L 463.716000,129.600000 L 464.832000,146.880000 L 465.948000,164.160000 L 467.064000,181.440000 L 468.180000,198.720000 L 469.296000,181.440000 L 470.412000,164.160000 L 471.528000,146.880000 L 472.644000,129.600000 L 473.760000,112.320000 L 474.876000,95.040000 L 475.992000,112.320000 L 477.108000,129.600000 L 478.224000,112.320000 L 479.340000,129.600000 L 480.456000,146.880000 L 481.572000,164.160000 L 482.688000,181.440000 L 483.804000,164.160000 L 484.920000,181.440000 L 486.036000,198.720000 L 487.152000,216.000000 L 488.268000,233.280000 L 489.384000,216.000000 L 490.500000,233.280000 L 491.616000,250.560000 L 492.732000,233.280000 L 493.848000,216.000000 L 494.964000,198.720000 L 496.080000,181.440000 L 497.196000,198.720000 L 498.312000,216.000000 L 499.428000,198.720000 L 500.544000,216.000000 L 501.660000,198.720000 L 502.776000,216.000000 L 503.892000,198.720000 L 505.008000,216.000000 L 506.124000,233.280000 L 507.240000,216.000000 L 508.356000,198.720000 L 509.472000,216.000000 L 510.588000,198.720000 L 511.704000,181.440000 L 512.820000,198.720000 L 513.936000,181.440000 L 515.052000,164.160000 L 516.168000,146.880000 L 517.284000,164.160000 L 518.400000,181.440000 "   />
<path         
style="stroke: #008000;  stroke-width: 0.500000;  stroke-linejoin: miter;  stroke-linecap: square;   opacity: 1.000000;  fill: none;   clip-path:url(#-1250928610);  "
 d="M 72.000000,229.632394 L 73.116000,229.506061 L 74.232000,230.267012 L 75.348000,231.027963 L 76.464000,231.571541 L 77.580000,232.115118 L 78.696000,233.121408 L 79.812000,234.127698 L 80.928000,235.570744 L 82.044000,237.013790 L 83.160000,238.386438 L 84.276000,239.759085 L 85.392000,241.585265 L 86.508000,243.411444 L 87.624000,245.672202 L 88.740000,247.932960 L 89.856000,250.775822 L 90.972000,253.618684 L 92.088000,256.459390 L 93.204000,259.300097 L 94.320000,263.018575 L 95.436000,266.737053 L 96.552000,271.714447 L 97.668000,276.691842 L 98.784000,281.669237 L 99.900000,286.646632 L 101.016000,296.302827 L 102.132000,305.959023 L 103.248000,315.615218 L 104.364000,325.271414 L 105.480000,334.927609 L 106.596000,344.583805 L 107.712000,354.240000 L 108.828000,336.960000 L 109.944000,354.240000 L 111.060000,354.240000 L 112.176000,354.240000 L 113.292000,336.960000 L 114.408000,354.240000 L 115.524000,371.520000 L 116.640000,354.240000 L 117.756000,336.960000 L 118.872000,354.240000 L 119.988000,371.520000 L 121.104000,354.240000 L 122.220000,360.000000 L 123.336000,365.760000 L 124.452000,371.520000 L 125.568000,378.925714 L 126.684000,378.102857 L 127.800000,378.925714 L 128.916000,378.925714 L 130.032000,378.102857 L 131.148000,378.925714 L 132.264000,371.520000 L 133.380000,354.240000 L 134.496000,371.520000 L 135.612000,354.240000 L 136.728000,357.696000 L 137.844000,361.152000 L 138.960000,362.880000 L 140.076000,368.064000 L 141.192000,371.520000 L 142.308000,354.240000 L 143.424000,336.960000 L 144.540000,325.883071 L 145.656000,314.806143 L 146.772000,303.729214 L 147.888000,292.652286 L 149.004000,287.810374 L 150.120000,282.968462 L 151.236000,278.126550 L 152.352000,273.720560 L 153.468000,269.314571 L 154.584000,264.908582 L 155.700000,261.922132 L 156.816000,258.935682 L 157.932000,255.949231 L 159.048000,252.962781 L 160.164000,250.684627 L 161.280000,248.406474 L 162.396000,246.632693 L 163.512000,244.858911 L 164.628000,243.541831 L 165.744000,242.220929 L 166.860000,241.440798 L 167.976000,240.660667 L 169.092000,239.847398 L 170.208000,239.193096 L 171.324000,238.502995 L 172.440000,237.812894 L 173.556000,237.080006 L 174.672000,236.347119 L 175.788000,235.556678 L 176.904000,234.766237 L 178.020000,234.543852 L 179.136000,234.321467 L 180.252000,234.013776 L 181.368000,233.706085 L 182.484000,233.775080 L 183.600000,233.824009 L 184.716000,234.184553 L 185.832000,234.545097 L 186.948000,235.220904 L 188.064000,235.896711 L 189.180000,236.959111 L 190.296000,238.021512 L 191.412000,239.019691 L 192.528000,240.017871 L 193.644000,241.473065 L 194.760000,242.928259 L 195.876000,244.906980 L 196.992000,246.885701 L 198.108000,248.846600 L 199.224000,250.807499 L 200.340000,253.653575 L 201.456000,256.499651 L 202.572000,259.343667 L 203.688000,262.428621 L 204.804000,265.513575 L 205.920000,268.907396 L 207.036000,272.301216 L 208.152000,275.695037 L 209.268000,281.978603 L 210.384000,288.262169 L 211.500000,294.545735 L 212.616000,300.829302 L 213.732000,307.112868 L 214.848000,313.396434 L 215.964000,319.680000 L 217.080000,336.960000 L 218.196000,354.240000 L 219.312000,371.520000 L 220.428000,354.240000 L 221.544000,371.520000 L 222.660000,359.696842 L 223.776000,347.873684 L 224.892000,336.050526 L 226.008000,324.227368 L 227.124000,312.404211 L 228.240000,300.581053 L 229.356000,306.947368 L 230.472000,313.313684 L 231.588000,319.680000 L 232.704000,336.960000 L 233.820000,319.680000 L 234.936000,336.960000 L 236.052000,354.240000 L 237.168000,371.520000 L 238.284000,354.240000 L 239.400000,371.520000 L 240.516000,371.520000 L 241.632000,371.520000 L 242.748000,388.800000 L 243.864000,388.800000 L 244.980000,371.520000 L 246.096000,354.240000 L 247.212000,336.960000 L 248.328000,319.680000 L 249.444000,302.400000 L 250.560000,302.400000 L 251.676000,302.400000 L 252.792000,302.400000 L 253.908000,302.400000 L 255.024000,319.680000 L 256.140000,336.960000 L 257.256000,327.655385 L 258.372000,318.350769 L 259.488000,309.046154 L 260.604000,299.741538 L 261.720000,306.387692 L 262.836000,313.033846 L 263.952000,319.680000 L 265.068000,336.960000 L 266.184000,319.680000 L 267.300000,336.960000 L 268.416000,319.680000 L 269.532000,302.400000 L 270.648000,300.240000 L 271.764000,298.080000 L 272.880000,295.920000 L 273.996000,293.760000 L 275.112000,298.080000 L 276.228000,302.400000 L 277.344000,319.680000 L 278.460000,336.960000 L 279.576000,339.428571 L 280.692000,341.897143 L 281.808000,344.365714 L 282.924000,346.340571 L 284.040000,349.302857 L 285.156000,351.771429 L 286.272000,354.240000 L 287.388000,371.520000 L 288.504000,354.240000 L 289.620000,354.240000 L 290.736000,354.240000 L 291.852000,360.000000 L 292.968000,365.760000 L 294.084000,371.520000 L 295.200000,371.520000 L 296.316000,371.520000 L 297.432000,365.760000 L 298.548000,360.000000 L 299.664000,354.240000 L 300.780000,343.872000 L 301.896000,333.504000 L 303.012000,323.136000 L 304.128000,312.768000 L 305.244000,302.400000 L 306.360000,319.680000 L 307.476000,336.960000 L 308.592000,336.960000 L 309.708000,336.960000 L 310.824000,329.657953 L 311.940000,322.355906 L 313.056000,315.053858 L 314.172000,307.751811 L 315.288000,300.449764 L 316.404000,293.147717 L 317.520000,294.009449 L 318.636000,294.871181 L 319.752000,295.732913 L 320.868000,297.955276 L 321.984000,300.177638 L 323.100000,302.400000 L 324.216000,319.680000 L 325.332000,336.960000 L 326.448000,319.680000 L 327.564000,318.109091 L 328.680000,316.538182 L 329.796000,314.967273 L 330.912000,313.396364 L 332.028000,311.788052 L 333.144000,310.254545 L 334.260000,308.683636 L 335.376000,307.112727 L 336.492000,305.541818 L 337.608000,303.970909 L 338.724000,302.400000 L 339.840000,319.680000 L 340.956000,336.960000 L 342.072000,336.960000 L 343.188000,336.960000 L 344.304000,319.680000 L 345.420000,302.400000 L 346.536000,308.160000 L 347.652000,313.920000 L 348.768000,319.680000 L 349.884000,336.960000 L 351.000000,354.240000 L 352.116000,371.520000 L 353.232000,365.760000 L 354.348000,360.000000 L 355.464000,354.240000 L 356.580000,336.960000 L 357.696000,319.680000 L 358.812000,302.400000 L 359.928000,296.092044 L 361.044000,289.784088 L 362.160000,283.476132 L 363.276000,277.168176 L 364.392000,273.093852 L 365.508000,269.019528 L 366.624000,264.945204 L 367.740000,260.870880 L 368.856000,257.770399 L 369.972000,254.669917 L 371.088000,252.362985 L 372.204000,250.056053 L 373.320000,247.746143 L 374.436000,245.578568 L 375.552000,243.401096 L 376.668000,241.352318 L 377.784000,239.279755 L 378.900000,237.207192 L 380.016000,235.726621 L 381.132000,234.246051 L 382.248000,232.710571 L 383.364000,231.175091 L 384.480000,229.557946 L 385.596000,227.940802 L 386.712000,226.671083 L 387.828000,225.401365 L 388.944000,224.429293 L 390.060000,223.457221 L 391.176000,222.345860 L 392.292000,221.282465 L 393.408000,220.052759 L 394.524000,218.823053 L 395.640000,217.820594 L 396.756000,216.818135 L 397.872000,216.011969 L 398.988000,215.205803 L 400.104000,214.103903 L 401.220000,213.002003 L 402.336000,212.060230 L 403.452000,211.038956 L 404.568000,210.141426 L 405.684000,209.243897 L 406.800000,208.456489 L 407.916000,207.556431 L 409.032000,206.756074 L 410.148000,205.846323 L 411.264000,205.026893 L 412.380000,204.066124 L 413.496000,203.186835 L 414.612000,202.307547 L 415.728000,201.501908 L 416.844000,200.696270 L 417.960000,199.964690 L 419.076000,199.233110 L 420.192000,197.973718 L 421.308000,196.714327 L 422.424000,195.514198 L 423.540000,194.314070 L 424.656000,192.602707 L 425.772000,190.891344 L 426.888000,189.210108 L 428.004000,187.528872 L 429.120000,185.334299 L 430.236000,183.139726 L 431.352000,180.417178 L 432.468000,177.695148 L 433.584000,174.173264 L 434.700000,170.651380 L 435.816000,167.129496 L 436.932000,163.363699 L 438.048000,159.597902 L 439.164000,155.832105 L 440.280000,149.350241 L 441.396000,142.868378 L 442.512000,136.386515 L 443.628000,129.904652 L 444.744000,123.422789 L 445.860000,112.007091 L 446.976000,100.591394 L 448.092000,89.175697 L 449.208000,77.760000 L 450.324000,77.760000 L 451.440000,77.760000 L 452.556000,95.040000 L 453.672000,95.040000 L 454.788000,95.040000 L 455.904000,112.320000 L 457.020000,106.560000 L 458.136000,100.800000 L 459.252000,95.040000 L 460.368000,112.320000 L 461.484000,122.221188 L 462.600000,132.122376 L 463.716000,142.023565 L 464.832000,147.766795 L 465.948000,153.510025 L 467.064000,157.090532 L 468.180000,160.671038 L 469.296000,164.251544 L 470.412000,167.832050 L 471.528000,171.412557 L 472.644000,174.993063 L 473.760000,177.406621 L 474.876000,179.820180 L 475.992000,182.236122 L 477.108000,184.510235 L 478.224000,186.794174 L 479.340000,189.078112 L 480.456000,190.676382 L 481.572000,192.274652 L 482.688000,193.905502 L 483.804000,195.446333 L 484.920000,197.039854 L 486.036000,198.633375 L 487.152000,199.835676 L 488.268000,201.055776 L 489.384000,201.976437 L 490.500000,202.897098 L 491.616000,203.479035 L 492.732000,204.060972 L 493.848000,204.749781 L 494.964000,205.367506 L 496.080000,206.082631 L 497.196000,206.728535 L 498.312000,207.501539 L 499.428000,208.274542 L 500.544000,208.741515 L 501.660000,209.234753 L 502.776000,209.430796 L 503.892000,209.626838 L 505.008000,209.983851 L 506.124000,210.282986 L 507.240000,210.751256 L 508.356000,211.219526 L 509.472000,211.295488 L 510.588000,211.371450 L 511.704000,211.651004 L 512.820000,211.848437 L 513.936000,212.267112 L 515.052000,212.593068 L 516.168000,213.332436 L 517.284000,214.071804 L 518.400000,214.071804 "   />
<path         
style="stroke: #ff0000;  stroke-width: 0.500000;  stroke-linejoin: miter;  stroke-linecap: square;   opacity: 1.000000;  fill: none;   clip-path:url(#-1250928610);  "
 d="M 72.000000,216.000000 L 73.116000,198.720000 L 74.232000,181.440000 L 75.348000,164.160000 L 76.464000,146.880000 L 77.580000,129.600000 L 78.696000,112.320000 L 79.812000,95.040000 L 80.928000,112.320000 L 82.044000,129.600000 L 83.160000,112.320000 L 84.276000,95.040000 L 85.392000,77.760000 L 86.508000,60.480000 L 87.624000,77.760000 L 88.740000,95.040000 L 89.856000,112.320000 L 90.972000,129.600000 L 92.088000,112.320000 L 93.204000,129.600000 L 94.320000,146.880000 L 95.436000,164.160000 L 96.552000,181.440000 L 97.668000,198.720000 L 98.784000,216.000000 L 99.900000,233.280000 L 101.016000,250.560000 L 102.132000,267.840000 L 103.248000,285.120000 L 104.364000,302.400000 L 105.480000,319.680000 L 106.596000,336.960000 L 107.712000,354.240000 L 108.828000,336.960000 L 109.944000,354.240000 L 111.060000,336.960000 L 112.176000,354.240000 L 113.292000,336.960000 L 114.408000,354.240000 L 115.524000,371.520000 L 116.640000,354.240000 L 117.756000,336.960000 L 118.872000,354.240000 L 119.988000,371.520000 L 121.104000,354.240000 L 122.220000,336.960000 L 123.336000,354.240000 L 124.452000,371.520000 L 125.568000,388.800000 L 126.684000,388.800000 L 127.800000,371.520000 L 128.916000,354.240000 L 130.032000,336.960000 L 131.148000,354.240000 L 132.264000,371.520000 L 133.380000,354.240000 L 134.496000,371.520000 L 135.612000,354.240000 L 136.728000,336.960000 L 137.844000,319.680000 L 138.960000,336.960000 L 140.076000,354.240000 L 141.192000,371.520000 L 142.308000,354.240000 L 143.424000,336.960000 L 144.540000,319.680000 L 145.656000,302.400000 L 146.772000,285.120000 L 147.888000,267.840000 L 149.004000,250.560000 L 150.120000,233.280000 L 151.236000,216.000000 L 152.352000,198.720000 L 153.468000,181.440000 L 154.584000,164.160000 L 155.700000,146.880000 L 156.816000,129.600000 L 157.932000,112.320000 L 159.048000,95.040000 L 160.164000,77.760000 L 161.280000,60.480000 L 162.396000,77.760000 L 163.512000,95.040000 L 164.628000,112.320000 L 165.744000,95.040000 L 166.860000,112.320000 L 167.976000,129.600000 L 169.092000,112.320000 L 170.208000,129.600000 L 171.324000,112.320000 L 172.440000,129.600000 L 173.556000,112.320000 L 174.672000,129.600000 L 175.788000,112.320000 L 176.904000,95.040000 L 178.020000,112.320000 L 179.136000,129.600000 L 180.252000,112.320000 L 181.368000,95.040000 L 182.484000,112.320000 L 183.600000,95.040000 L 184.716000,77.760000 L 185.832000,60.480000 L 186.948000,77.760000 L 188.064000,95.040000 L 189.180000,112.320000 L 190.296000,129.600000 L 191.412000,112.320000 L 192.528000,95.040000 L 193.644000,77.760000 L 194.760000,95.040000 L 195.876000,112.320000 L 196.992000,129.600000 L 198.108000,112.320000 L 199.224000,95.040000 L 200.340000,112.320000 L 201.456000,129.600000 L 202.572000,112.320000 L 203.688000,129.600000 L 204.804000,146.880000 L 205.920000,164.160000 L 207.036000,181.440000 L 208.152000,198.720000 L 209.268000,216.000000 L 210.384000,233.280000 L 211.500000,250.560000 L 212.616000,267.840000 L 213.732000,285.120000 L 214.848000,302.400000 L 215.964000,319.680000 L 217.080000,336.960000 L 218.196000,354.240000 L 219.312000,371.520000 L 220.428000,354.240000 L 221.544000,371.520000 L 222.660000,354.240000 L 223.776000,336.960000 L 224.892000,319.680000 L 226.008000,302.400000 L 227.124000,285.120000 L 228.240000,267.840000 L 229.356000,285.120000 L 230.472000,302.400000 L 231.588000,319.680000 L 232.704000,336.960000 L 233.820000,319.680000 L 234.936000,336.960000 L 236.052000,354.240000 L 237.168000,371.520000 L 238.284000,354.240000 L 239.400000,371.520000 L 240.516000,354.240000 L 241.632000,371.520000 L 242.748000,388.800000 L 243.864000,388.800000 L 244.980000,371.520000 L 246.096000,354.240000 L 247.212000,336.960000 L 248.328000,319.680000 L 249.444000,302.400000 L 250.560000,285.120000 L 251.676000,267.840000 L 252.792000,285.120000 L 253.908000,302.400000 L 255.024000,319.680000 L 256.140000,336.960000 L 257.256000,319.680000 L 258.372000,302.400000 L 259.488000,285.120000 L 260.604000,267.840000 L 261.720000,285.120000 L 262.836000,302.400000 L 263.952000,319.680000 L 265.068000,336.960000 L 266.184000,319.680000 L 267.300000,336.960000 L 268.416000,319.680000 L 269.532000,302.400000 L 270.648000,285.120000 L 271.764000,267.840000 L 272.880000,250.560000 L 273.996000,267.840000 L 275.112000,285.120000 L 276.228000,302.400000 L 277.344000,319.680000 L 278.460000,336.960000 L 279.576000,319.680000 L 280.692000,302.400000 L 281.808000,285.120000 L 282.924000,302.400000 L 284.040000,319.680000 L 285.156000,336.960000 L 286.272000,354.240000 L 287.388000,371.520000 L 288.504000,354.240000 L 289.620000,336.960000 L 290.736000,354.240000 L 291.852000,336.960000 L 292.968000,354.240000 L 294.084000,371.520000 L 295.200000,354.240000 L 296.316000,371.520000 L 297.432000,354.240000 L 298.548000,336.960000 L 299.664000,354.240000 L 300.780000,336.960000 L 301.896000,319.680000 L 303.012000,302.400000 L 304.128000,285.120000 L 305.244000,302.400000 L 306.360000,319.680000 L 307.476000,336.960000 L 308.592000,319.680000 L 309.708000,336.960000 L 310.824000,319.680000 L 311.940000,302.400000 L 313.056000,285.120000 L 314.172000,267.840000 L 315.288000,250.560000 L 316.404000,233.280000 L 317.520000,216.000000 L 318.636000,233.280000 L 319.752000,250.560000 L 320.868000,267.840000 L 321.984000,285.120000 L 323.100000,302.400000 L 324.216000,319.680000 L 325.332000,336.960000 L 326.448000,319.680000 L 327.564000,302.400000 L 328.680000,285.120000 L 329.796000,267.840000 L 330.912000,250.560000 L 332.028000,233.280000 L 333.144000,216.000000 L 334.260000,233.280000 L 335.376000,250.560000 L 336.492000,267.840000 L 337.608000,285.120000 L 338.724000,302.400000 L 339.840000,319.680000 L 340.956000,336.960000 L 342.072000,319.680000 L 343.188000,336.960000 L 344.304000,319.680000 L 345.420000,302.400000 L 346.536000,285.120000 L 347.652000,302.400000 L 348.768000,319.680000 L 349.884000,336.960000 L 351.000000,354.240000 L 352.116000,371.520000 L 353.232000,354.240000 L 354.348000,336.960000 L 355.464000,354.240000 L 356.580000,336.960000 L 357.696000,319.680000 L 358.812000,302.400000 L 359.928000,285.120000 L 361.044000,267.840000 L 362.160000,250.560000 L 363.276000,233.280000 L 364.392000,216.000000 L 365.508000,198.720000 L 366.624000,181.440000 L 367.740000,164.160000 L 368.856000,146.880000 L 369.972000,129.600000 L 371.088000,112.320000 L 372.204000,129.600000 L 373.320000,112.320000 L 374.436000,129.600000 L 375.552000,112.320000 L 376.668000,129.600000 L 377.784000,112.320000 L 378.900000,95.040000 L 380.016000,112.320000 L 381.132000,129.600000 L 382.248000,112.320000 L 383.364000,129.600000 L 384.480000,112.320000 L 385.596000,95.040000 L 386.712000,77.760000 L 387.828000,95.040000 L 388.944000,112.320000 L 390.060000,129.600000 L 391.176000,112.320000 L 392.292000,129.600000 L 393.408000,112.320000 L 394.524000,95.040000 L 395.640000,77.760000 L 396.756000,95.040000 L 397.872000,112.320000 L 398.988000,129.600000 L 400.104000,112.320000 L 401.220000,95.040000 L 402.336000,112.320000 L 403.452000,95.040000 L 404.568000,77.760000 L 405.684000,95.040000 L 406.800000,112.320000 L 407.916000,95.040000 L 409.032000,112.320000 L 410.148000,95.040000 L 411.264000,112.320000 L 412.380000,95.040000 L 413.496000,77.760000 L 414.612000,60.480000 L 415.728000,77.760000 L 416.844000,95.040000 L 417.960000,112.320000 L 419.076000,129.600000 L 420.192000,112.320000 L 421.308000,95.040000 L 422.424000,112.320000 L 423.540000,129.600000 L 424.656000,112.320000 L 425.772000,95.040000 L 426.888000,112.320000 L 428.004000,129.600000 L 429.120000,112.320000 L 430.236000,129.600000 L 431.352000,112.320000 L 432.468000,129.600000 L 433.584000,112.320000 L 434.700000,95.040000 L 435.816000,112.320000 L 436.932000,95.040000 L 438.048000,112.320000 L 439.164000,129.600000 L 440.280000,112.320000 L 441.396000,95.040000 L 442.512000,77.760000 L 443.628000,95.040000 L 444.744000,112.320000 L 445.860000,95.040000 L 446.976000,77.760000 L 448.092000,60.480000 L 449.208000,77.760000 L 450.324000,60.480000 L 451.440000,77.760000 L 452.556000,95.040000 L 453.672000,77.760000 L 454.788000,95.040000 L 455.904000,112.320000 L 457.020000,95.040000 L 458.136000,77.760000 L 459.252000,95.040000 L 460.368000,112.320000 L 461.484000,95.040000 L 462.600000,112.320000 L 463.716000,129.600000 L 464.832000,112.320000 L 465.948000,129.600000 L 467.064000,112.320000 L 468.180000,95.040000 L 469.296000,77.760000 L 470.412000,95.040000 L 471.528000,112.320000 L 472.644000,129.600000 L 473.760000,112.320000 L 474.876000,95.040000 L 475.992000,112.320000 L 477.108000,95.040000 L 478.224000,112.320000 L 479.340000,129.600000 L 480.456000,112.320000 L 481.572000,95.040000 L 482.688000,112.320000 L 483.804000,95.040000 L 484.920000,112.320000 L 486.036000,129.600000 L 487.152000,112.320000 L 488.268000,129.600000 L 489.384000,112.320000 L 490.500000,129.600000 L 491.616000,112.320000 L 492.732000,95.040000 L 493.848000,112.320000 L 494.964000,95.040000 L 496.080000,112.320000 L 497.196000,95.040000 L 498.312000,112.320000 L 499.428000,129.600000 L 500.544000,112.320000 L 501.660000,129.600000 L 502.776000,112.320000 L 503.892000,95.040000 L 505.008000,112.320000 L 506.124000,95.040000 L 507.240000,112.320000 L 508.356000,129.600000 L 509.472000,112.320000 L 510.588000,95.040000 L 511.704000,112.320000 L 512.820000,95.040000 L 513.936000,112.320000 L 515.052000,95.040000 L 516.168000,112.320000 L 517.284000,129.600000 L 518.400000,112.320000 "   />
<path         
style="stroke: #00bfbf;  stroke-width: 0.500000;  stroke-linejoin: miter;  stroke-linecap: square;   opacity: 1.000000;  fill: none;   clip-path:url(#-1250928610);  "
 d="M 72.000000,216.000000 L 73.116000,233.280000 L 74.232000,250.560000 L 75.348000,267.840000 L 76.464000,285.120000 L 77.580000,302.400000 L 78.696000,319.680000 L 79.812000,302.400000 L 80.928000,319.680000 L 82.044000,336.960000 L 83.160000,319.680000 L 84.276000,302.400000 L 85.392000,319.680000 L 86.508000,302.400000 L 87.624000,319.680000 L 88.740000,302.400000 L 89.856000,319.680000 L 90.972000,336.960000 L 92.088000,319.680000 L 93.204000,302.400000 L 94.320000,319.680000 L 95.436000,302.400000 L 96.552000,319.680000 L 97.668000,336.960000 L 98.784000,319.680000 L 99.900000,302.400000 L 101.016000,319.680000 L 102.132000,336.960000 L 103.248000,354.240000 L 104.364000,371.520000 L 105.480000,388.800000 L 106.596000,371.520000 L 107.712000,354.240000 L 108.828000,336.960000 L 109.944000,354.240000 L 111.060000,371.520000 L 112.176000,354.240000 L 113.292000,336.960000 L 114.408000,354.240000 L 115.524000,371.520000 L 116.640000,354.240000 L 117.756000,336.960000 L 118.872000,354.240000 L 119.988000,371.520000 L 121.104000,354.240000 L 122.220000,371.520000 L 123.336000,388.800000 L 124.452000,371.520000 L 125.568000,388.800000 L 126.684000,388.800000 L 127.800000,388.800000 L 128.916000,388.800000 L 130.032000,388.800000 L 131.148000,388.800000 L 132.264000,371.520000 L 133.380000,354.240000 L 134.496000,371.520000 L 135.612000,354.240000 L 136.728000,371.520000 L 137.844000,388.800000 L 138.960000,388.800000 L 140.076000,388.800000 L 141.192000,371.520000 L 142.308000,354.240000 L 143.424000,336.960000 L 144.540000,354.240000 L 145.656000,336.960000 L 146.772000,319.680000 L 147.888000,302.400000 L 149.004000,319.680000 L 150.120000,336.960000 L 151.236000,319.680000 L 152.352000,336.960000 L 153.468000,319.680000 L 154.584000,302.400000 L 155.700000,319.680000 L 156.816000,336.960000 L 157.932000,319.680000 L 159.048000,302.400000 L 160.164000,319.680000 L 161.280000,302.400000 L 162.396000,319.680000 L 163.512000,302.400000 L 164.628000,319.680000 L 165.744000,302.400000 L 166.860000,319.680000 L 167.976000,336.960000 L 169.092000,319.680000 L 170.208000,336.960000 L 171.324000,354.240000 L 172.440000,371.520000 L 173.556000,354.240000 L 174.672000,336.960000 L 175.788000,319.680000 L 176.904000,302.400000 L 178.020000,319.680000 L 179.136000,336.960000 L 180.252000,319.680000 L 181.368000,302.400000 L 182.484000,319.680000 L 183.600000,302.400000 L 184.716000,319.680000 L 185.832000,302.400000 L 186.948000,319.680000 L 188.064000,302.400000 L 189.180000,319.680000 L 190.296000,336.960000 L 191.412000,319.680000 L 192.528000,302.400000 L 193.644000,319.680000 L 194.760000,302.400000 L 195.876000,319.680000 L 196.992000,336.960000 L 198.108000,319.680000 L 199.224000,302.400000 L 200.340000,319.680000 L 201.456000,336.960000 L 202.572000,319.680000 L 203.688000,336.960000 L 204.804000,319.680000 L 205.920000,336.960000 L 207.036000,319.680000 L 208.152000,302.400000 L 209.268000,319.680000 L 210.384000,336.960000 L 211.500000,354.240000 L 212.616000,371.520000 L 213.732000,354.240000 L 214.848000,336.960000 L 215.964000,319.680000 L 217.080000,336.960000 L 218.196000,354.240000 L 219.312000,371.520000 L 220.428000,354.240000 L 221.544000,371.520000 L 222.660000,388.800000 L 223.776000,371.520000 L 224.892000,354.240000 L 226.008000,336.960000 L 227.124000,319.680000 L 228.240000,302.400000 L 229.356000,319.680000 L 230.472000,336.960000 L 231.588000,319.680000 L 232.704000,336.960000 L 233.820000,319.680000 L 234.936000,336.960000 L 236.052000,354.240000 L 237.168000,371.520000 L 238.284000,354.240000 L 239.400000,371.520000 L 240.516000,388.800000 L 241.632000,371.520000 L 242.748000,388.800000 L 243.864000,388.800000 L 244.980000,371.520000 L 246.096000,354.240000 L 247.212000,336.960000 L 248.328000,319.680000 L 249.444000,302.400000 L 250.560000,319.680000 L 251.676000,336.960000 L 252.792000,319.680000 L 253.908000,302.400000 L 255.024000,319.680000 L 256.140000,336.960000 L 257.256000,354.240000 L 258.372000,336.960000 L 259.488000,319.680000 L 260.604000,302.400000 L 261.720000,319.680000 L 262.836000,336.960000 L 263.952000,319.680000 L 265.068000,336.960000 L 266.184000,319.680000 L 267.300000,336.960000 L 268.416000,319.680000 L 269.532000,302.400000 L 270.648000,319.680000 L 271.764000,336.960000 L 272.880000,319.680000 L 273.996000,302.400000 L 275.112000,319.680000 L 276.228000,302.400000 L 277.344000,319.680000 L 278.460000,336.960000 L 279.576000,354.240000 L 280.692000,371.520000 L 281.808000,388.800000 L 282.924000,388.800000 L 284.040000,388.800000 L 285.156000,371.520000 L 286.272000,354.240000 L 287.388000,371.520000 L 288.504000,354.240000 L 289.620000,371.520000 L 290.736000,354.240000 L 291.852000,371.520000 L 292.968000,388.800000 L 294.084000,371.520000 L 295.200000,388.800000 L 296.316000,371.520000 L 297.432000,388.800000 L 298.548000,371.520000 L 299.664000,354.240000 L 300.780000,371.520000 L 301.896000,354.240000 L 303.012000,336.960000 L 304.128000,319.680000 L 305.244000,302.400000 L 306.360000,319.680000 L 307.476000,336.960000 L 308.592000,354.240000 L 309.708000,336.960000 L 310.824000,354.240000 L 311.940000,371.520000 L 313.056000,354.240000 L 314.172000,336.960000 L 315.288000,319.680000 L 316.404000,302.400000 L 317.520000,319.680000 L 318.636000,336.960000 L 319.752000,319.680000 L 320.868000,336.960000 L 321.984000,319.680000 L 323.100000,302.400000 L 324.216000,319.680000 L 325.332000,336.960000 L 326.448000,319.680000 L 327.564000,336.960000 L 328.680000,354.240000 L 329.796000,371.520000 L 330.912000,388.800000 L 332.028000,388.800000 L 333.144000,388.800000 L 334.260000,371.520000 L 335.376000,354.240000 L 336.492000,336.960000 L 337.608000,319.680000 L 338.724000,302.400000 L 339.840000,319.680000 L 340.956000,336.960000 L 342.072000,354.240000 L 343.188000,336.960000 L 344.304000,319.680000 L 345.420000,302.400000 L 346.536000,319.680000 L 347.652000,336.960000 L 348.768000,319.680000 L 349.884000,336.960000 L 351.000000,354.240000 L 352.116000,371.520000 L 353.232000,388.800000 L 354.348000,371.520000 L 355.464000,354.240000 L 356.580000,336.960000 L 357.696000,319.680000 L 358.812000,302.400000 L 359.928000,319.680000 L 361.044000,336.960000 L 362.160000,319.680000 L 363.276000,302.400000 L 364.392000,319.680000 L 365.508000,336.960000 L 366.624000,319.680000 L 367.740000,302.400000 L 368.856000,319.680000 L 369.972000,302.400000 L 371.088000,319.680000 L 372.204000,336.960000 L 373.320000,319.680000 L 374.436000,336.960000 L 375.552000,319.680000 L 376.668000,336.960000 L 377.784000,319.680000 L 378.900000,302.400000 L 380.016000,319.680000 L 381.132000,336.960000 L 382.248000,354.240000 L 383.364000,336.960000 L 384.480000,319.680000 L 385.596000,302.400000 L 386.712000,319.680000 L 387.828000,302.400000 L 388.944000,319.680000 L 390.060000,336.960000 L 391.176000,319.680000 L 392.292000,336.960000 L 393.408000,319.680000 L 394.524000,302.400000 L 395.640000,319.680000 L 396.756000,302.400000 L 397.872000,319.680000 L 398.988000,336.960000 L 400.104000,319.680000 L 401.220000,302.400000 L 402.336000,319.680000 L 403.452000,302.400000 L 404.568000,319.680000 L 405.684000,302.400000 L 406.800000,319.680000 L 407.916000,302.400000 L 409.032000,319.680000 L 410.148000,302.400000 L 411.264000,319.680000 L 412.380000,302.400000 L 413.496000,319.680000 L 414.612000,302.400000 L 415.728000,319.680000 L 416.844000,302.400000 L 417.960000,319.680000 L 419.076000,336.960000 L 420.192000,319.680000 L 421.308000,302.400000 L 422.424000,319.680000 L 423.540000,336.960000 L 424.656000,319.680000 L 425.772000,302.400000 L 426.888000,319.680000 L 428.004000,336.960000 L 429.120000,354.240000 L 430.236000,336.960000 L 431.352000,319.680000 L 432.468000,336.960000 L 433.584000,319.680000 L 434.700000,302.400000 L 435.816000,285.120000 L 436.932000,267.840000 L 438.048000,250.560000 L 439.164000,233.280000 L 440.280000,216.000000 L 441.396000,198.720000 L 442.512000,181.440000 L 443.628000,164.160000 L 444.744000,146.880000 L 445.860000,129.600000 L 446.976000,112.320000 L 448.092000,95.040000 L 449.208000,77.760000 L 450.324000,95.040000 L 451.440000,77.760000 L 452.556000,95.040000 L 453.672000,112.320000 L 454.788000,95.040000 L 455.904000,112.320000 L 457.020000,129.600000 L 458.136000,112.320000 L 459.252000,95.040000 L 460.368000,112.320000 L 461.484000,129.600000 L 462.600000,146.880000 L 463.716000,164.160000 L 464.832000,181.440000 L 465.948000,198.720000 L 467.064000,216.000000 L 468.180000,233.280000 L 469.296000,250.560000 L 470.412000,267.840000 L 471.528000,285.120000 L 472.644000,302.400000 L 473.760000,319.680000 L 474.876000,302.400000 L 475.992000,319.680000 L 477.108000,302.400000 L 478.224000,319.680000 L 479.340000,336.960000 L 480.456000,319.680000 L 481.572000,302.400000 L 482.688000,319.680000 L 483.804000,302.400000 L 484.920000,319.680000 L 486.036000,336.960000 L 487.152000,319.680000 L 488.268000,336.960000 L 489.384000,354.240000 L 490.500000,336.960000 L 491.616000,319.680000 L 492.732000,302.400000 L 493.848000,319.680000 L 494.964000,302.400000 L 496.080000,319.680000 L 497.196000,302.400000 L 498.312000,319.680000 L 499.428000,336.960000 L 500.544000,319.680000 L 501.660000,336.960000 L 502.776000,319.680000 L 503.892000,302.400000 L 505.008000,319.680000 L 506.124000,302.400000 L 507.240000,319.680000 L 508.356000,336.960000 L 509.472000,319.680000 L 510.588000,302.400000 L 511.704000,319.680000 L 512.820000,302.400000 L 513.936000,319.680000 L 515.052000,302.400000 L 516.168000,319.680000 L 517.284000,336.960000 L 518.400000,354.240000 "   />
<path         
style="stroke: #000000;  stroke-width: 0.500000;  stroke-linejoin: miter;  stroke-linecap: square;   opacity: 1.000000;  fill: none;   clip-path:url(#-1250928610);  "
 d="M 72.000000,216.000000 L 73.116000,216.000000 L 74.232000,216.000000 L 75.348000,216.000000 L 76.464000,216.000000 L 77.580000,216.000000 L 78.696000,216.000000 L 79.812000,198.720000 L 80.928000,216.000000 L 82.044000,233.280000 L 83.160000,216.000000 L 84.276000,198.720000 L 85.392000,198.720000 L 86.508000,181.440000 L 87.624000,198.720000 L 88.740000,198.720000 L 89.856000,216.000000 L 90.972000,233.280000 L 92.088000,216.000000 L 93.204000,216.000000 L 94.320000,233.280000 L 95.436000,233.280000 L 96.552000,250.560000 L 97.668000,267.840000 L 98.784000,267.840000 L 99.900000,267.840000 L 101.016000,285.120000 L 102.132000,302.400000 L 103.248000,319.680000 L 104.364000,336.960000 L 105.480000,354.240000 L 106.596000,354.240000 L 107.712000,354.240000 L 108.828000,336.960000 L 109.944000,354.240000 L 111.060000,354.240000 L 112.176000,354.240000 L 113.292000,336.960000 L 114.408000,354.240000 L 115.524000,371.520000 L 116.640000,354.240000 L 117.756000,336.960000 L 118.872000,354.240000 L 119.988000,371.520000 L 121.104000,354.240000 L 122.220000,354.240000 L 123.336000,371.520000 L 124.452000,371.520000 L 125.568000,388.800000 L 126.684000,388.800000 L 127.800000,388.800000 L 128.916000,371.520000 L 130.032000,371.520000 L 131.148000,371.520000 L 132.264000,371.520000 L 133.380000,354.240000 L 134.496000,371.520000 L 135.612000,354.240000 L 136.728000,354.240000 L 137.844000,354.240000 L 138.960000,371.520000 L 140.076000,371.520000 L 141.192000,371.520000 L 142.308000,354.240000 L 143.424000,336.960000 L 144.540000,336.960000 L 145.656000,319.680000 L 146.772000,302.400000 L 147.888000,285.120000 L 149.004000,285.120000 L 150.120000,285.120000 L 151.236000,267.840000 L 152.352000,267.840000 L 153.468000,250.560000 L 154.584000,233.280000 L 155.700000,233.280000 L 156.816000,233.280000 L 157.932000,216.000000 L 159.048000,198.720000 L 160.164000,198.720000 L 161.280000,181.440000 L 162.396000,198.720000 L 163.512000,198.720000 L 164.628000,216.000000 L 165.744000,198.720000 L 166.860000,216.000000 L 167.976000,233.280000 L 169.092000,216.000000 L 170.208000,233.280000 L 171.324000,233.280000 L 172.440000,250.560000 L 173.556000,233.280000 L 174.672000,233.280000 L 175.788000,216.000000 L 176.904000,198.720000 L 178.020000,216.000000 L 179.136000,233.280000 L 180.252000,216.000000 L 181.368000,198.720000 L 182.484000,216.000000 L 183.600000,198.720000 L 184.716000,198.720000 L 185.832000,181.440000 L 186.948000,198.720000 L 188.064000,198.720000 L 189.180000,216.000000 L 190.296000,233.280000 L 191.412000,216.000000 L 192.528000,198.720000 L 193.644000,198.720000 L 194.760000,198.720000 L 195.876000,216.000000 L 196.992000,233.280000 L 198.108000,216.000000 L 199.224000,198.720000 L 200.340000,216.000000 L 201.456000,233.280000 L 202.572000,216.000000 L 203.688000,233.280000 L 204.804000,233.280000 L 205.920000,250.560000 L 207.036000,250.560000 L 208.152000,250.560000 L 209.268000,267.840000 L 210.384000,285.120000 L 211.500000,302.400000 L 212.616000,319.680000 L 213.732000,319.680000 L 214.848000,319.680000 L 215.964000,319.680000 L 217.080000,336.960000 L 218.196000,354.240000 L 219.312000,371.520000 L 220.428000,354.240000 L 221.544000,371.520000 L 222.660000,371.520000 L 223.776000,354.240000 L 224.892000,336.960000 L 226.008000,319.680000 L 227.124000,302.400000 L 228.240000,285.120000 L 229.356000,302.400000 L 230.472000,319.680000 L 231.588000,319.680000 L 232.704000,336.960000 L 233.820000,319.680000 L 234.936000,336.960000 L 236.052000,354.240000 L 237.168000,371.520000 L 238.284000,354.240000 L 239.400000,371.520000 L 240.516000,371.520000 L 241.632000,371.520000 L 242.748000,388.800000 L 243.864000,388.800000 L 244.980000,371.520000 L 246.096000,354.240000 L 247.212000,336.960000 L 248.328000,319.680000 L 249.444000,302.400000 L 250.560000,302.400000 L 251.676000,302.400000 L 252.792000,302.400000 L 253.908000,302.400000 L 255.024000,319.680000 L 256.140000,336.960000 L 257.256000,336.960000 L 258.372000,319.680000 L 259.488000,302.400000 L 260.604000,285.120000 L 261.720000,302.400000 L 262.836000,319.680000 L 263.952000,319.680000 L 265.068000,336.960000 L 266.184000,319.680000 L 267.300000,336.960000 L 268.416000,319.680000 L 269.532000,302.400000 L 270.648000,302.400000 L 271.764000,302.400000 L 272.880000,285.120000 L 273.996000,285.120000 L 275.112000,302.400000 L 276.228000,302.400000 L 277.344000,319.680000 L 278.460000,336.960000 L 279.576000,336.960000 L 280.692000,336.960000 L 281.808000,336.960000 L 282.924000,354.240000 L 284.040000,354.240000 L 285.156000,354.240000 L 286.272000,354.240000 L 287.388000,371.520000 L 288.504000,354.240000 L 289.620000,354.240000 L 290.736000,354.240000 L 291.852000,354.240000 L 292.968000,371.520000 L 294.084000,371.520000 L 295.200000,371.520000 L 296.316000,371.520000 L 297.432000,371.520000 L 298.548000,354.240000 L 299.664000,354.240000 L 300.780000,354.240000 L 301.896000,336.960000 L 303.012000,319.680000 L 304.128000,302.400000 L 305.244000,302.400000 L 306.360000,319.680000 L 307.476000,336.960000 L 308.592000,336.960000 L 309.708000,336.960000 L 310.824000,336.960000 L 311.940000,336.960000 L 313.056000,319.680000 L 314.172000,302.400000 L 315.288000,285.120000 L 316.404000,267.840000 L 317.520000,267.840000 L 318.636000,285.120000 L 319.752000,285.120000 L 320.868000,302.400000 L 321.984000,302.400000 L 323.100000,302.400000 L 324.216000,319.680000 L 325.332000,336.960000 L 326.448000,319.680000 L 327.564000,319.680000 L 328.680000,319.680000 L 329.796000,319.680000 L 330.912000,319.680000 L 332.028000,319.680000 L 333.144000,302.400000 L 334.260000,302.400000 L 335.376000,302.400000 L 336.492000,302.400000 L 337.608000,302.400000 L 338.724000,302.400000 L 339.840000,319.680000 L 340.956000,336.960000 L 342.072000,336.960000 L 343.188000,336.960000 L 344.304000,319.680000 L 345.420000,302.400000 L 346.536000,302.400000 L 347.652000,319.680000 L 348.768000,319.680000 L 349.884000,336.960000 L 351.000000,354.240000 L 352.116000,371.520000 L 353.232000,371.520000 L 354.348000,354.240000 L 355.464000,354.240000 L 356.580000,336.960000 L 357.696000,319.680000 L 358.812000,302.400000 L 359.928000,302.400000 L 361.044000,302.400000 L 362.160000,285.120000 L 363.276000,267.840000 L 364.392000,267.840000 L 365.508000,267.840000 L 366.624000,250.560000 L 367.740000,233.280000 L 368.856000,233.280000 L 369.972000,216.000000 L 371.088000,216.000000 L 372.204000,233.280000 L 373.320000,216.000000 L 374.436000,233.280000 L 375.552000,216.000000 L 376.668000,233.280000 L 377.784000,216.000000 L 378.900000,198.720000 L 380.016000,216.000000 L 381.132000,233.280000 L 382.248000,233.280000 L 383.364000,233.280000 L 384.480000,216.000000 L 385.596000,198.720000 L 386.712000,198.720000 L 387.828000,198.720000 L 388.944000,216.000000 L 390.060000,233.280000 L 391.176000,216.000000 L 392.292000,233.280000 L 393.408000,216.000000 L 394.524000,198.720000 L 395.640000,198.720000 L 396.756000,198.720000 L 397.872000,216.000000 L 398.988000,233.280000 L 400.104000,216.000000 L 401.220000,198.720000 L 402.336000,216.000000 L 403.452000,198.720000 L 404.568000,198.720000 L 405.684000,198.720000 L 406.800000,216.000000 L 407.916000,198.720000 L 409.032000,216.000000 L 410.148000,198.720000 L 411.264000,216.000000 L 412.380000,198.720000 L 413.496000,198.720000 L 414.612000,181.440000 L 415.728000,198.720000 L 416.844000,198.720000 L 417.960000,216.000000 L 419.076000,233.280000 L 420.192000,216.000000 L 421.308000,198.720000 L 422.424000,216.000000 L 423.540000,233.280000 L 424.656000,216.000000 L 425.772000,198.720000 L 426.888000,216.000000 L 428.004000,233.280000 L 429.120000,233.280000 L 430.236000,233.280000 L 431.352000,216.000000 L 432.468000,233.280000 L 433.584000,216.000000 L 434.700000,198.720000 L 435.816000,198.720000 L 436.932000,181.440000 L 438.048000,181.440000 L 439.164000,181.440000 L 440.280000,164.160000 L 441.396000,146.880000 L 442.512000,129.600000 L 443.628000,129.600000 L 444.744000,129.600000 L 445.860000,112.320000 L 446.976000,95.040000 L 448.092000,77.760000 L 449.208000,77.760000 L 450.324000,77.760000 L 451.440000,77.760000 L 452.556000,95.040000 L 453.672000,95.040000 L 454.788000,95.040000 L 455.904000,112.320000 L 457.020000,112.320000 L 458.136000,95.040000 L 459.252000,95.040000 L 460.368000,112.320000 L 461.484000,112.320000 L 462.600000,129.600000 L 463.716000,146.880000 L 464.832000,146.880000 L 465.948000,164.160000 L 467.064000,164.160000 L 468.180000,164.160000 L 469.296000,164.160000 L 470.412000,181.440000 L 471.528000,198.720000 L 472.644000,216.000000 L 473.760000,216.000000 L 474.876000,198.720000 L 475.992000,216.000000 L 477.108000,198.720000 L 478.224000,216.000000 L 479.340000,233.280000 L 480.456000,216.000000 L 481.572000,198.720000 L 482.688000,216.000000 L 483.804000,198.720000 L 484.920000,216.000000 L 486.036000,233.280000 L 487.152000,216.000000 L 488.268000,233.280000 L 489.384000,233.280000 L 490.500000,233.280000 L 491.616000,216.000000 L 492.732000,198.720000 L 493.848000,216.000000 L 494.964000,198.720000 L 496.080000,216.000000 L 497.196000,198.720000 L 498.312000,216.000000 L 499.428000,233.280000 L 500.544000,216.000000 L 501.660000,233.280000 L 502.776000,216.000000 L 503.892000,198.720000 L 505.008000,216.000000 L 506.124000,198.720000 L 507.240000,216.000000 L 508.356000,233.280000 L 509.472000,216.000000 L 510.588000,198.720000 L 511.704000,216.000000 L 512.820000,198.720000 L 513.936000,216.000000 L 515.052000,198.720000 L 516.168000,216.000000 L 517.284000,233.280000 L 518.400000,233.280000 "   />
<text style="font-size: 14.000000; font-family: Bitstream Vera Sans; font-style: Roman; fill: #000000;" x="46.676562" y="36.288000" >Optimal Path by Viterbi X_hat_{n,400} r.w. on A=[0,20], P(W=+-16)=1/2</text>
<g id="legend1">
<polygon         
style="stroke: #000000;  stroke-width: 1.000000;  stroke-linejoin: miter;  stroke-linecap: square;   opacity: 1.000000;  fill: #ffffff;   "
   points = "373.814400,123.665280 373.814400,50.112000 509.472000,50.112000 509.472000,123.665280"  />
<path         
style="stroke: #0000ff;  stroke-width: 0.500000;  stroke-linejoin: miter;  stroke-linecap: square;   opacity: 1.000000;  fill: none;   "
 d="M 386.919200,61.241440 L 394.359200,61.241440 L 401.799200,61.241440 L 409.239200,61.241440 "   />
<path         
style="stroke: #008000;  stroke-width: 0.500000;  stroke-linejoin: miter;  stroke-linecap: square;   opacity: 1.000000;  fill: none;   "
 d="M 386.919200,74.315040 L 394.359200,74.315040 L 401.799200,74.315040 L 409.239200,74.315040 "   />
<path         
style="stroke: #ff0000;  stroke-width: 0.500000;  stroke-linejoin: miter;  stroke-linecap: square;   opacity: 1.000000;  fill: none;   "
 d="M 386.919200,87.388640 L 394.359200,87.388640 L 401.799200,87.388640 L 409.239200,87.388640 "   />
<path         
style="stroke: #00bfbf;  stroke-width: 0.500000;  stroke-linejoin: miter;  stroke-linecap: square;   opacity: 1.000000;  fill: none;   "
 d="M 386.919200,100.462240 L 394.359200,100.462240 L 401.799200,100.462240 L 409.239200,100.462240 "   />
<path         
style="stroke: #000000;  stroke-width: 0.500000;  stroke-linejoin: miter;  stroke-linecap: square;   opacity: 1.000000;  fill: none;   "
 d="M 386.919200,113.035840 L 394.359200,113.035840 L 401.799200,113.035840 L 409.239200,113.035840 "   />
<text style="font-size: 10.000000; font-family: Bitstream Vera Sans; font-style: Roman; fill: #000000;" x="418.167200" y="66.241440" >Xn_list</text>
<text style="font-size: 10.000000; font-family: Bitstream Vera Sans; font-style: Roman; fill: #000000;" x="418.167200" y="79.315040" >Xn_hat_list</text>
<text style="font-size: 10.000000; font-family: Bitstream Vera Sans; font-style: Roman; fill: #000000;" x="418.167200" y="92.388640" >max_X_state_list</text>
<text style="font-size: 10.000000; font-family: Bitstream Vera Sans; font-style: Roman; fill: #000000;" x="418.167200" y="105.462240" >min_X_state_list</text>
<text style="font-size: 10.000000; font-family: Bitstream Vera Sans; font-style: Roman; fill: #000000;" x="418.167200" y="117.535840" >(max+min)/2</text>
</g>
</g>
</g>
</svg>